  0
SECTION
  2
HEADER
  9
$ACADVER
  1
AC1018
  9
$HANDSEED
  5
FFFFFFFF
  9
$ANGBASE
  50
0.0
  9
$ANGDIR
  70
1
  9
$MEASUREMENT
  70
0
  9
$INSUNITS
  70
1
  0
ENDSEC
  0
SECTION
  2
TABLES
  0
TABLE
  2
APPID
  5
1
330
0
100
AcDbSymbolTable
 70
1
  0
APPID
  5
2
330
1
100
AcDbSymbolTableRecord
100
AcDbRegAppTableRecord
  2
ACAD
 70
0
  0
ENDTAB
  0
TABLE
  2
LTYPE
  5
3
330
0
100
AcDbSymbolTable
 70
6
  0
LTYPE
  5
4
330
3
100
AcDbSymbolTableRecord
100
AcDbLinetypeTableRecord
  2
ByBlock
 70
0
  3

 72
65
 73
0
 40
0
  0
LTYPE
  5
5
330
3
100
AcDbSymbolTableRecord
100
AcDbLinetypeTableRecord
  2
ByLayer
 70
0
  3

 72
65
 73
0
 40
0
  0
LTYPE
  5
6
330
3
100
AcDbSymbolTableRecord
100
AcDbLinetypeTableRecord
  2
CONTINUOUS
 70
0
  3
Solid line
 72
65
 73
0
 40
0
  0
LTYPE
  5
7
330
3
100
AcDbSymbolTableRecord
100
AcDbLinetypeTableRecord
  2
DASHDOT
 70
0
  3
Dash Dot ____ _ ____ _
 72
65
 73
4
 40
2
 49
1.25
 74
0
 49
-0.25
 74
0
 49
0.25
 74
0
 49
-0.25
 74
0
  0
LTYPE
  5
8
330
3
100
AcDbSymbolTableRecord
100
AcDbLinetypeTableRecord
  2
DASHED
 70
0
  3
Dashed __ __ __ __ __
 72
65
 73
2
 40
0.75
 49
0.5
 74
0
 49
-0.25
 74
0
  0
LTYPE
  5
9
330
3
100
AcDbSymbolTableRecord
100
AcDbLinetypeTableRecord
  2
DOTTED
 70
0
  3
Dotted .  .  .  .
 72
65
 73
2
 40
0.2
 49
0.0
 74
0
 49
-0.2
 74
0
  0
ENDTAB
  0
TABLE
  2
STYLE
  5
A
330
0
100
AcDbSymbolTable
 70
4
  0
STYLE
  5
B
330
A
100
AcDbSymbolTableRecord
100
AcDbTextStyleTableRecord
  2
KICAD
 70
0
 40
0
 41
1
 42
1
 50
0
 71
0
  3
isocp.shx
  0
STYLE
  5
C
330
A
100
AcDbSymbolTableRecord
100
AcDbTextStyleTableRecord
  2
KICADB
 70
0
 40
0
 41
1
 42
1
 50
0
 71
0
  3
isocp.shx
  0
STYLE
  5
D
330
A
100
AcDbSymbolTableRecord
100
AcDbTextStyleTableRecord
  2
KICADI
 70
0
 40
0
 41
1
 42
1
 50
15
 71
0
  3
isocp.shx
  0
STYLE
  5
E
330
A
100
AcDbSymbolTableRecord
100
AcDbTextStyleTableRecord
  2
KICADBI
 70
0
 40
0
 41
1
 42
1
 50
15
 71
0
  3
isocp.shx
  0
ENDTAB
  0
TABLE
  2
LAYER
  5
F
330
0
100
AcDbSymbolTable
 70
2
  0
LAYER
  5
12
330
F
100
AcDbSymbolTableRecord
100
AcDbLayerTableRecord
  2
0
 70
0
 62
7
  6
CONTINUOUS
390
10
  0
LAYER
  5
13
330
F
100
AcDbSymbolTableRecord
100
AcDbLayerTableRecord
  2
B.Paste
 70
0
 62
132
420
49858
  6
CONTINUOUS
390
10
  0
ENDTAB
  0
TABLE
  2
VPORT
  5
14
330
0
100
AcDbSymbolTable
 70
0
  0
ENDTAB
  0
TABLE
  2
VIEW
  5
15
330
0
100
AcDbSymbolTable
 70
0
  0
ENDTAB
  0
TABLE
  2
UCS
  5
16
330
0
100
AcDbSymbolTable
 70
0
  0
ENDTAB
  0
TABLE
  2
DIMSTYLE
  5
17
330
0
100
AcDbSymbolTable
 70
1
100
AcDbDimStyleTable
 71
0
  0
DIMSTYLE
105
18
330
17
100
AcDbSymbolTableRecord
100
AcDbDimStyleTableRecord
  2
Standard
 70
0
  0
ENDTAB
  0
TABLE
  2
BLOCK_RECORD
  5
19
330
0
100
AcDbSymbolTable
 70
3
  0
BLOCK_RECORD
  5
1A
330
19
100
AcDbSymbolTableRecord
100
AcDbBlockTableRecord
  2
*Model_Space
340
1D
 70
0
280
1
281
0
  0
BLOCK_RECORD
  5
1B
330
19
100
AcDbSymbolTableRecord
100
AcDbBlockTableRecord
  2
*Paper_Space
340
1E
 70
0
280
1
281
0
  0
BLOCK_RECORD
  5
1C
330
19
100
AcDbSymbolTableRecord
100
AcDbBlockTableRecord
  2
*Paper_Space0
340
1F
 70
0
280
1
281
0
  0
ENDTAB
  0
ENDSEC
  0
SECTION
  2
BLOCKS
  0
BLOCK
  5
23
330
1A
100
AcDbEntity
  8
0
100
AcDbBlockBegin
  2
*Model_Space
 70
0
 10
0.0
 20
0.0
 30
0.0
  3
*Model_Space
  1

  0
ENDBLK
  5
22
330
1A
100
AcDbEntity
  8
0
100
AcDbBlockEnd
  0
BLOCK
  5
25
330
1B
100
AcDbEntity
 67
1
  8
0
100
AcDbBlockBegin
  2
*Paper_Space
 70
0
 10
0.0
 20
0.0
 30
0.0
  3
*Paper_Space
  1

  0
ENDBLK
  5
24
330
1B
100
AcDbEntity
 67
1
  8
0
100
AcDbBlockEnd
  0
BLOCK
  5
27
330
1C
100
AcDbEntity
 67
1
  8
0
100
AcDbBlockBegin
  2
*Paper_Space0
 70
0
 10
0.0
 20
0.0
 30
0.0
  3
*Paper_Space0
  1

  0
ENDBLK
  5
26
330
1C
100
AcDbEntity
 67
1
  8
0
100
AcDbBlockEnd
  0
ENDSEC
  0
SECTION
  2
ENTITIES
  0
LINE
  5
28
330
1A
100
AcDbEntity
  8
B.Paste
  6
CONTINUOUS
100
AcDbLine
 10
1.545876496062992
 20
-3.1497747244094487
 30
0
 11
1.5508402362204725
 21
-3.1511047244094486
 31
0
  0
LINE
  5
29
330
1A
100
AcDbEntity
  8
B.Paste
  6
CONTINUOUS
100
AcDbLine
 10
1.5508402362204725
 20
-3.1511047244094486
 30
0
 11
1.5552905905511811
 21
-3.1536741338582677
 31
0
  0
LINE
  5
2A
330
1A
100
AcDbEntity
  8
B.Paste
  6
CONTINUOUS
100
AcDbLine
 10
1.5552905905511811
 20
-3.1536741338582677
 30
0
 11
1.5589242913385826
 21
-3.1573078346456693
 31
0
  0
LINE
  5
2B
330
1A
100
AcDbEntity
  8
B.Paste
  6
CONTINUOUS
100
AcDbLine
 10
1.5589242913385826
 20
-3.1573078346456693
 30
0
 11
1.5614937007874015
 21
-3.1617581889763779
 31
0
  0
LINE
  5
2C
330
1A
100
AcDbEntity
  8
B.Paste
  6
CONTINUOUS
100
AcDbLine
 10
1.5614937007874015
 20
-3.1617581889763779
 30
0
 11
1.5628237007874015
 21
-3.1667219291338582
 31
0
  0
LINE
  5
2D
330
1A
100
AcDbEntity
  8
B.Paste
  6
CONTINUOUS
100
AcDbLine
 10
1.5628237007874015
 20
-3.1667219291338582
 30
0
 11
1.5628237007874015
 21
-3.171860748031496
 31
0
  0
LINE
  5
2E
330
1A
100
AcDbEntity
  8
B.Paste
  6
CONTINUOUS
100
AcDbLine
 10
1.5628237007874015
 20
-3.171860748031496
 30
0
 11
1.5614937007874015
 21
-3.1768244881889762
 31
0
  0
LINE
  5
2F
330
1A
100
AcDbEntity
  8
B.Paste
  6
CONTINUOUS
100
AcDbLine
 10
1.5614937007874015
 20
-3.1768244881889762
 30
0
 11
1.5589242913385826
 21
-3.1812748425196848
 31
0
  0
LINE
  5
30
330
1A
100
AcDbEntity
  8
B.Paste
  6
CONTINUOUS
100
AcDbLine
 10
1.5589242913385826
 20
-3.1812748425196848
 30
0
 11
1.5552905905511811
 21
-3.1849085433070865
 31
0
  0
LINE
  5
31
330
1A
100
AcDbEntity
  8
B.Paste
  6
CONTINUOUS
100
AcDbLine
 10
1.5552905905511811
 20
-3.1849085433070865
 30
0
 11
1.5508402362204725
 21
-3.1874779527559056
 31
0
  0
LINE
  5
32
330
1A
100
AcDbEntity
  8
B.Paste
  6
CONTINUOUS
100
AcDbLine
 10
1.5508402362204725
 20
-3.1874779527559056
 30
0
 11
1.545876496062992
 21
-3.1888079527559055
 31
0
  0
LINE
  5
33
330
1A
100
AcDbEntity
  8
B.Paste
  6
CONTINUOUS
100
AcDbLine
 10
1.545876496062992
 20
-3.1888079527559055
 30
0
 11
1.5433070866141732
 21
-3.188976377952756
 31
0
  0
LINE
  5
34
330
1A
100
AcDbEntity
  8
B.Paste
  6
CONTINUOUS
100
AcDbLine
 10
1.5433070866141732
 20
-3.188976377952756
 30
0
 11
1.5118110236220472
 21
-3.188976377952756
 31
0
  0
LINE
  5
35
330
1A
100
AcDbEntity
  8
B.Paste
  6
CONTINUOUS
100
AcDbLine
 10
1.5118110236220472
 20
-3.188976377952756
 30
0
 11
1.5092416141732283
 21
-3.1888079527559055
 31
0
  0
LINE
  5
36
330
1A
100
AcDbEntity
  8
B.Paste
  6
CONTINUOUS
100
AcDbLine
 10
1.5092416141732283
 20
-3.1888079527559055
 30
0
 11
1.5042778740157481
 21
-3.1874779527559056
 31
0
  0
LINE
  5
37
330
1A
100
AcDbEntity
  8
B.Paste
  6
CONTINUOUS
100
AcDbLine
 10
1.5042778740157481
 20
-3.1874779527559056
 30
0
 11
1.4998275196850392
 21
-3.1849085433070865
 31
0
  0
LINE
  5
38
330
1A
100
AcDbEntity
  8
B.Paste
  6
CONTINUOUS
100
AcDbLine
 10
1.4998275196850392
 20
-3.1849085433070865
 30
0
 11
1.4961938188976378
 21
-3.1812748425196848
 31
0
  0
LINE
  5
39
330
1A
100
AcDbEntity
  8
B.Paste
  6
CONTINUOUS
100
AcDbLine
 10
1.4961938188976378
 20
-3.1812748425196848
 30
0
 11
1.4936244094488189
 21
-3.1768244881889762
 31
0
  0
LINE
  5
3A
330
1A
100
AcDbEntity
  8
B.Paste
  6
CONTINUOUS
100
AcDbLine
 10
1.4936244094488189
 20
-3.1768244881889762
 30
0
 11
1.4922944094488189
 21
-3.171860748031496
 31
0
  0
LINE
  5
3B
330
1A
100
AcDbEntity
  8
B.Paste
  6
CONTINUOUS
100
AcDbLine
 10
1.4922944094488189
 20
-3.171860748031496
 30
0
 11
1.4922944094488189
 21
-3.1667219291338582
 31
0
  0
LINE
  5
3C
330
1A
100
AcDbEntity
  8
B.Paste
  6
CONTINUOUS
100
AcDbLine
 10
1.4922944094488189
 20
-3.1667219291338582
 30
0
 11
1.4936244094488189
 21
-3.1617581889763779
 31
0
  0
LINE
  5
3D
330
1A
100
AcDbEntity
  8
B.Paste
  6
CONTINUOUS
100
AcDbLine
 10
1.4936244094488189
 20
-3.1617581889763779
 30
0
 11
1.4961938188976378
 21
-3.1573078346456693
 31
0
  0
LINE
  5
3E
330
1A
100
AcDbEntity
  8
B.Paste
  6
CONTINUOUS
100
AcDbLine
 10
1.4961938188976378
 20
-3.1573078346456693
 30
0
 11
1.4998275196850392
 21
-3.1536741338582677
 31
0
  0
LINE
  5
3F
330
1A
100
AcDbEntity
  8
B.Paste
  6
CONTINUOUS
100
AcDbLine
 10
1.4998275196850392
 20
-3.1536741338582677
 30
0
 11
1.5042778740157481
 21
-3.1511047244094486
 31
0
  0
LINE
  5
40
330
1A
100
AcDbEntity
  8
B.Paste
  6
CONTINUOUS
100
AcDbLine
 10
1.5042778740157481
 20
-3.1511047244094486
 30
0
 11
1.5092416141732283
 21
-3.1497747244094487
 31
0
  0
LINE
  5
41
330
1A
100
AcDbEntity
  8
B.Paste
  6
CONTINUOUS
100
AcDbLine
 10
1.5092416141732283
 20
-3.1497747244094487
 30
0
 11
1.5118110236220472
 21
-3.1496062992125982
 31
0
  0
LINE
  5
42
330
1A
100
AcDbEntity
  8
B.Paste
  6
CONTINUOUS
100
AcDbLine
 10
1.5118110236220472
 20
-3.1496062992125982
 30
0
 11
1.5433070866141732
 21
-3.1496062992125982
 31
0
  0
LINE
  5
43
330
1A
100
AcDbEntity
  8
B.Paste
  6
CONTINUOUS
100
AcDbLine
 10
1.5433070866141732
 20
-3.1496062992125982
 30
0
 11
1.545876496062992
 21
-3.1497747244094487
 31
0
  0
LINE
  5
44
330
1A
100
AcDbEntity
  8
B.Paste
  6
CONTINUOUS
100
AcDbLine
 10
1.7163489370078739
 20
-3.1497747244094487
 30
0
 11
1.7213126771653542
 21
-3.1511047244094486
 31
0
  0
LINE
  5
45
330
1A
100
AcDbEntity
  8
B.Paste
  6
CONTINUOUS
100
AcDbLine
 10
1.7213126771653542
 20
-3.1511047244094486
 30
0
 11
1.725763031496063
 21
-3.1536741338582677
 31
0
  0
LINE
  5
46
330
1A
100
AcDbEntity
  8
B.Paste
  6
CONTINUOUS
100
AcDbLine
 10
1.725763031496063
 20
-3.1536741338582677
 30
0
 11
1.7293967322834645
 21
-3.1573078346456693
 31
0
  0
LINE
  5
47
330
1A
100
AcDbEntity
  8
B.Paste
  6
CONTINUOUS
100
AcDbLine
 10
1.7293967322834645
 20
-3.1573078346456693
 30
0
 11
1.7319661417322834
 21
-3.1617581889763779
 31
0
  0
LINE
  5
48
330
1A
100
AcDbEntity
  8
B.Paste
  6
CONTINUOUS
100
AcDbLine
 10
1.7319661417322834
 20
-3.1617581889763779
 30
0
 11
1.7332961417322834
 21
-3.1667219291338582
 31
0
  0
LINE
  5
49
330
1A
100
AcDbEntity
  8
B.Paste
  6
CONTINUOUS
100
AcDbLine
 10
1.7332961417322834
 20
-3.1667219291338582
 30
0
 11
1.7332961417322834
 21
-3.171860748031496
 31
0
  0
LINE
  5
4A
330
1A
100
AcDbEntity
  8
B.Paste
  6
CONTINUOUS
100
AcDbLine
 10
1.7332961417322834
 20
-3.171860748031496
 30
0
 11
1.7319661417322834
 21
-3.1768244881889762
 31
0
  0
LINE
  5
4B
330
1A
100
AcDbEntity
  8
B.Paste
  6
CONTINUOUS
100
AcDbLine
 10
1.7319661417322834
 20
-3.1768244881889762
 30
0
 11
1.7293967322834645
 21
-3.1812748425196848
 31
0
  0
LINE
  5
4C
330
1A
100
AcDbEntity
  8
B.Paste
  6
CONTINUOUS
100
AcDbLine
 10
1.7293967322834645
 20
-3.1812748425196848
 30
0
 11
1.725763031496063
 21
-3.1849085433070865
 31
0
  0
LINE
  5
4D
330
1A
100
AcDbEntity
  8
B.Paste
  6
CONTINUOUS
100
AcDbLine
 10
1.725763031496063
 20
-3.1849085433070865
 30
0
 11
1.7213126771653542
 21
-3.1874779527559056
 31
0
  0
LINE
  5
4E
330
1A
100
AcDbEntity
  8
B.Paste
  6
CONTINUOUS
100
AcDbLine
 10
1.7213126771653542
 20
-3.1874779527559056
 30
0
 11
1.7163489370078739
 21
-3.1888079527559055
 31
0
  0
LINE
  5
4F
330
1A
100
AcDbEntity
  8
B.Paste
  6
CONTINUOUS
100
AcDbLine
 10
1.7163489370078739
 20
-3.1888079527559055
 30
0
 11
1.713779527559055
 21
-3.188976377952756
 31
0
  0
LINE
  5
50
330
1A
100
AcDbEntity
  8
B.Paste
  6
CONTINUOUS
100
AcDbLine
 10
1.713779527559055
 20
-3.188976377952756
 30
0
 11
1.6704724409448819
 21
-3.188976377952756
 31
0
  0
LINE
  5
51
330
1A
100
AcDbEntity
  8
B.Paste
  6
CONTINUOUS
100
AcDbLine
 10
1.6704724409448819
 20
-3.188976377952756
 30
0
 11
1.667903031496063
 21
-3.1888079527559055
 31
0
  0
LINE
  5
52
330
1A
100
AcDbEntity
  8
B.Paste
  6
CONTINUOUS
100
AcDbLine
 10
1.667903031496063
 20
-3.1888079527559055
 30
0
 11
1.6629392913385825
 21
-3.1874779527559056
 31
0
  0
LINE
  5
53
330
1A
100
AcDbEntity
  8
B.Paste
  6
CONTINUOUS
100
AcDbLine
 10
1.6629392913385825
 20
-3.1874779527559056
 30
0
 11
1.6584889370078739
 21
-3.1849085433070865
 31
0
  0
LINE
  5
54
330
1A
100
AcDbEntity
  8
B.Paste
  6
CONTINUOUS
100
AcDbLine
 10
1.6584889370078739
 20
-3.1849085433070865
 30
0
 11
1.6548552362204725
 21
-3.1812748425196848
 31
0
  0
LINE
  5
55
330
1A
100
AcDbEntity
  8
B.Paste
  6
CONTINUOUS
100
AcDbLine
 10
1.6548552362204725
 20
-3.1812748425196848
 30
0
 11
1.6522858267716536
 21
-3.1768244881889762
 31
0
  0
LINE
  5
56
330
1A
100
AcDbEntity
  8
B.Paste
  6
CONTINUOUS
100
AcDbLine
 10
1.6522858267716536
 20
-3.1768244881889762
 30
0
 11
1.6509558267716535
 21
-3.171860748031496
 31
0
  0
LINE
  5
57
330
1A
100
AcDbEntity
  8
B.Paste
  6
CONTINUOUS
100
AcDbLine
 10
1.6509558267716535
 20
-3.171860748031496
 30
0
 11
1.6509558267716535
 21
-3.1667219291338582
 31
0
  0
LINE
  5
58
330
1A
100
AcDbEntity
  8
B.Paste
  6
CONTINUOUS
100
AcDbLine
 10
1.6509558267716535
 20
-3.1667219291338582
 30
0
 11
1.6522858267716536
 21
-3.1617581889763779
 31
0
  0
LINE
  5
59
330
1A
100
AcDbEntity
  8
B.Paste
  6
CONTINUOUS
100
AcDbLine
 10
1.6522858267716536
 20
-3.1617581889763779
 30
0
 11
1.6548552362204725
 21
-3.1573078346456693
 31
0
  0
LINE
  5
5A
330
1A
100
AcDbEntity
  8
B.Paste
  6
CONTINUOUS
100
AcDbLine
 10
1.6548552362204725
 20
-3.1573078346456693
 30
0
 11
1.6584889370078739
 21
-3.1536741338582677
 31
0
  0
LINE
  5
5B
330
1A
100
AcDbEntity
  8
B.Paste
  6
CONTINUOUS
100
AcDbLine
 10
1.6584889370078739
 20
-3.1536741338582677
 30
0
 11
1.6629392913385825
 21
-3.1511047244094486
 31
0
  0
LINE
  5
5C
330
1A
100
AcDbEntity
  8
B.Paste
  6
CONTINUOUS
100
AcDbLine
 10
1.6629392913385825
 20
-3.1511047244094486
 30
0
 11
1.667903031496063
 21
-3.1497747244094487
 31
0
  0
LINE
  5
5D
330
1A
100
AcDbEntity
  8
B.Paste
  6
CONTINUOUS
100
AcDbLine
 10
1.667903031496063
 20
-3.1497747244094487
 30
0
 11
1.6704724409448819
 21
-3.1496062992125982
 31
0
  0
LINE
  5
5E
330
1A
100
AcDbEntity
  8
B.Paste
  6
CONTINUOUS
100
AcDbLine
 10
1.6704724409448819
 20
-3.1496062992125982
 30
0
 11
1.713779527559055
 21
-3.1496062992125982
 31
0
  0
LINE
  5
5F
330
1A
100
AcDbEntity
  8
B.Paste
  6
CONTINUOUS
100
AcDbLine
 10
1.713779527559055
 20
-3.1496062992125982
 30
0
 11
1.7163489370078739
 21
-3.1497747244094487
 31
0
  0
LINE
  5
60
330
1A
100
AcDbEntity
  8
B.Paste
  6
CONTINUOUS
100
AcDbLine
 10
1.9634122440944881
 20
-3.1483870078740157
 30
0
 11
1.9666053937007875
 21
-3.1505205905511811
 31
0
  0
LINE
  5
61
330
1A
100
AcDbEntity
  8
B.Paste
  6
CONTINUOUS
100
AcDbLine
 10
1.9666053937007875
 20
-3.1505205905511811
 30
0
 11
1.9687389763779528
 21
-3.1537137401574804
 31
0
  0
LINE
  5
62
330
1A
100
AcDbEntity
  8
B.Paste
  6
CONTINUOUS
100
AcDbLine
 10
1.9687389763779528
 20
-3.1537137401574804
 30
0
 11
1.969488188976378
 21
-3.1574803149606296
 31
0
  0
LINE
  5
63
330
1A
100
AcDbEntity
  8
B.Paste
  6
CONTINUOUS
100
AcDbLine
 10
1.969488188976378
 20
-3.1574803149606296
 30
0
 11
1.969488188976378
 21
-3.1771653543307088
 31
0
  0
LINE
  5
64
330
1A
100
AcDbEntity
  8
B.Paste
  6
CONTINUOUS
100
AcDbLine
 10
1.969488188976378
 20
-3.1771653543307088
 30
0
 11
1.9687389763779528
 21
-3.180931929133858
 31
0
  0
LINE
  5
65
330
1A
100
AcDbEntity
  8
B.Paste
  6
CONTINUOUS
100
AcDbLine
 10
1.9687389763779528
 20
-3.180931929133858
 30
0
 11
1.9666053937007875
 21
-3.1841250787401574
 31
0
  0
LINE
  5
66
330
1A
100
AcDbEntity
  8
B.Paste
  6
CONTINUOUS
100
AcDbLine
 10
1.9666053937007875
 20
-3.1841250787401574
 30
0
 11
1.9634122440944881
 21
-3.1862586614173227
 31
0
  0
LINE
  5
67
330
1A
100
AcDbEntity
  8
B.Paste
  6
CONTINUOUS
100
AcDbLine
 10
1.9634122440944881
 20
-3.1862586614173227
 30
0
 11
1.9596456692913384
 21
-3.1870078740157481
 31
0
  0
LINE
  5
68
330
1A
100
AcDbEntity
  8
B.Paste
  6
CONTINUOUS
100
AcDbLine
 10
1.9596456692913384
 20
-3.1870078740157481
 30
0
 11
1.9222440944881889
 21
-3.1870078740157481
 31
0
  0
LINE
  5
69
330
1A
100
AcDbEntity
  8
B.Paste
  6
CONTINUOUS
100
AcDbLine
 10
1.9222440944881889
 20
-3.1870078740157481
 30
0
 11
1.9184775196850394
 21
-3.1862586614173227
 31
0
  0
LINE
  5
6A
330
1A
100
AcDbEntity
  8
B.Paste
  6
CONTINUOUS
100
AcDbLine
 10
1.9184775196850394
 20
-3.1862586614173227
 30
0
 11
1.9152843700787401
 21
-3.1841250787401574
 31
0
  0
LINE
  5
6B
330
1A
100
AcDbEntity
  8
B.Paste
  6
CONTINUOUS
100
AcDbLine
 10
1.9152843700787401
 20
-3.1841250787401574
 30
0
 11
1.9131507874015747
 21
-3.180931929133858
 31
0
  0
LINE
  5
6C
330
1A
100
AcDbEntity
  8
B.Paste
  6
CONTINUOUS
100
AcDbLine
 10
1.9131507874015747
 20
-3.180931929133858
 30
0
 11
1.9124015748031495
 21
-3.1771653543307088
 31
0
  0
LINE
  5
6D
330
1A
100
AcDbEntity
  8
B.Paste
  6
CONTINUOUS
100
AcDbLine
 10
1.9124015748031495
 20
-3.1771653543307088
 30
0
 11
1.9124015748031495
 21
-3.1574803149606296
 31
0
  0
LINE
  5
6E
330
1A
100
AcDbEntity
  8
B.Paste
  6
CONTINUOUS
100
AcDbLine
 10
1.9124015748031495
 20
-3.1574803149606296
 30
0
 11
1.9131507874015747
 21
-3.1537137401574804
 31
0
  0
LINE
  5
6F
330
1A
100
AcDbEntity
  8
B.Paste
  6
CONTINUOUS
100
AcDbLine
 10
1.9131507874015747
 20
-3.1537137401574804
 30
0
 11
1.9152843700787401
 21
-3.1505205905511811
 31
0
  0
LINE
  5
70
330
1A
100
AcDbEntity
  8
B.Paste
  6
CONTINUOUS
100
AcDbLine
 10
1.9152843700787401
 20
-3.1505205905511811
 30
0
 11
1.9184775196850394
 21
-3.1483870078740157
 31
0
  0
LINE
  5
71
330
1A
100
AcDbEntity
  8
B.Paste
  6
CONTINUOUS
100
AcDbLine
 10
1.9184775196850394
 20
-3.1483870078740157
 30
0
 11
1.9222440944881889
 21
-3.1476377952755903
 31
0
  0
LINE
  5
72
330
1A
100
AcDbEntity
  8
B.Paste
  6
CONTINUOUS
100
AcDbLine
 10
1.9222440944881889
 20
-3.1476377952755903
 30
0
 11
1.9596456692913384
 21
-3.1476377952755903
 31
0
  0
LINE
  5
73
330
1A
100
AcDbEntity
  8
B.Paste
  6
CONTINUOUS
100
AcDbLine
 10
1.9596456692913384
 20
-3.1476377952755903
 30
0
 11
1.9634122440944881
 21
-3.1483870078740157
 31
0
  0
LINE
  5
74
330
1A
100
AcDbEntity
  8
B.Paste
  6
CONTINUOUS
100
AcDbLine
 10
2.1523886220472441
 20
-3.14445
 30
0
 11
2.1555817716535435
 21
-3.1465835826771653
 31
0
  0
LINE
  5
75
330
1A
100
AcDbEntity
  8
B.Paste
  6
CONTINUOUS
100
AcDbLine
 10
2.1555817716535435
 20
-3.1465835826771653
 30
0
 11
2.1577153543307088
 21
-3.1497767322834647
 31
0
  0
LINE
  5
76
330
1A
100
AcDbEntity
  8
B.Paste
  6
CONTINUOUS
100
AcDbLine
 10
2.1577153543307088
 20
-3.1497767322834647
 30
0
 11
2.1584645669291338
 21
-3.1535433070866139
 31
0
  0
LINE
  5
77
330
1A
100
AcDbEntity
  8
B.Paste
  6
CONTINUOUS
100
AcDbLine
 10
2.1584645669291338
 20
-3.1535433070866139
 30
0
 11
2.1584645669291338
 21
-3.173228346456693
 31
0
  0
LINE
  5
78
330
1A
100
AcDbEntity
  8
B.Paste
  6
CONTINUOUS
100
AcDbLine
 10
2.1584645669291338
 20
-3.173228346456693
 30
0
 11
2.1577153543307088
 21
-3.1769949212598423
 31
0
  0
LINE
  5
79
330
1A
100
AcDbEntity
  8
B.Paste
  6
CONTINUOUS
100
AcDbLine
 10
2.1577153543307088
 20
-3.1769949212598423
 30
0
 11
2.1555817716535435
 21
-3.1801880708661416
 31
0
  0
LINE
  5
7A
330
1A
100
AcDbEntity
  8
B.Paste
  6
CONTINUOUS
100
AcDbLine
 10
2.1555817716535435
 20
-3.1801880708661416
 30
0
 11
2.1523886220472441
 21
-3.182321653543307
 31
0
  0
LINE
  5
7B
330
1A
100
AcDbEntity
  8
B.Paste
  6
CONTINUOUS
100
AcDbLine
 10
2.1523886220472441
 20
-3.182321653543307
 30
0
 11
2.1486220472440944
 21
-3.1830708661417324
 31
0
  0
LINE
  5
7C
330
1A
100
AcDbEntity
  8
B.Paste
  6
CONTINUOUS
100
AcDbLine
 10
2.1486220472440944
 20
-3.1830708661417324
 30
0
 11
2.1112204724409449
 21
-3.1830708661417324
 31
0
  0
LINE
  5
7D
330
1A
100
AcDbEntity
  8
B.Paste
  6
CONTINUOUS
100
AcDbLine
 10
2.1112204724409449
 20
-3.1830708661417324
 30
0
 11
2.1074538976377952
 21
-3.182321653543307
 31
0
  0
LINE
  5
7E
330
1A
100
AcDbEntity
  8
B.Paste
  6
CONTINUOUS
100
AcDbLine
 10
2.1074538976377952
 20
-3.182321653543307
 30
0
 11
2.1042607480314959
 21
-3.1801880708661416
 31
0
  0
LINE
  5
7F
330
1A
100
AcDbEntity
  8
B.Paste
  6
CONTINUOUS
100
AcDbLine
 10
2.1042607480314959
 20
-3.1801880708661416
 30
0
 11
2.1021271653543305
 21
-3.1769949212598423
 31
0
  0
LINE
  5
80
330
1A
100
AcDbEntity
  8
B.Paste
  6
CONTINUOUS
100
AcDbLine
 10
2.1021271653543305
 20
-3.1769949212598423
 30
0
 11
2.1013779527559056
 21
-3.173228346456693
 31
0
  0
LINE
  5
81
330
1A
100
AcDbEntity
  8
B.Paste
  6
CONTINUOUS
100
AcDbLine
 10
2.1013779527559056
 20
-3.173228346456693
 30
0
 11
2.1013779527559056
 21
-3.1535433070866139
 31
0
  0
LINE
  5
82
330
1A
100
AcDbEntity
  8
B.Paste
  6
CONTINUOUS
100
AcDbLine
 10
2.1013779527559056
 20
-3.1535433070866139
 30
0
 11
2.1021271653543305
 21
-3.1497767322834647
 31
0
  0
LINE
  5
83
330
1A
100
AcDbEntity
  8
B.Paste
  6
CONTINUOUS
100
AcDbLine
 10
2.1021271653543305
 20
-3.1497767322834647
 30
0
 11
2.1042607480314959
 21
-3.1465835826771653
 31
0
  0
LINE
  5
84
330
1A
100
AcDbEntity
  8
B.Paste
  6
CONTINUOUS
100
AcDbLine
 10
2.1042607480314959
 20
-3.1465835826771653
 30
0
 11
2.1074538976377952
 21
-3.14445
 31
0
  0
LINE
  5
85
330
1A
100
AcDbEntity
  8
B.Paste
  6
CONTINUOUS
100
AcDbLine
 10
2.1074538976377952
 20
-3.14445
 30
0
 11
2.1112204724409449
 21
-3.1437007874015745
 31
0
  0
LINE
  5
86
330
1A
100
AcDbEntity
  8
B.Paste
  6
CONTINUOUS
100
AcDbLine
 10
2.1112204724409449
 20
-3.1437007874015745
 30
0
 11
2.1486220472440944
 21
-3.1437007874015745
 31
0
  0
LINE
  5
87
330
1A
100
AcDbEntity
  8
B.Paste
  6
CONTINUOUS
100
AcDbLine
 10
2.1486220472440944
 20
-3.1437007874015745
 30
0
 11
2.1523886220472441
 21
-3.14445
 31
0
  0
LINE
  5
88
330
1A
100
AcDbEntity
  8
B.Paste
  6
CONTINUOUS
100
AcDbLine
 10
1.7337560236220473
 20
-3.1138353543307087
 30
0
 11
1.7356718897637795
 21
-3.1151155118110236
 31
0
  0
LINE
  5
89
330
1A
100
AcDbEntity
  8
B.Paste
  6
CONTINUOUS
100
AcDbLine
 10
1.7356718897637795
 20
-3.1151155118110236
 30
0
 11
1.7369520472440945
 21
-3.1170313779527556
 31
0
  0
LINE
  5
8A
330
1A
100
AcDbEntity
  8
B.Paste
  6
CONTINUOUS
100
AcDbLine
 10
1.7369520472440945
 20
-3.1170313779527556
 30
0
 11
1.7374015748031495
 21
-3.119291338582677
 31
0
  0
LINE
  5
8B
330
1A
100
AcDbEntity
  8
B.Paste
  6
CONTINUOUS
100
AcDbLine
 10
1.7374015748031495
 20
-3.119291338582677
 30
0
 11
1.7374015748031495
 21
-3.1311023622047243
 31
0
  0
LINE
  5
8C
330
1A
100
AcDbEntity
  8
B.Paste
  6
CONTINUOUS
100
AcDbLine
 10
1.7374015748031495
 20
-3.1311023622047243
 30
0
 11
1.7369520472440945
 21
-3.1333623228346457
 31
0
  0
LINE
  5
8D
330
1A
100
AcDbEntity
  8
B.Paste
  6
CONTINUOUS
100
AcDbLine
 10
1.7369520472440945
 20
-3.1333623228346457
 30
0
 11
1.7356718897637795
 21
-3.1352781889763777
 31
0
  0
LINE
  5
8E
330
1A
100
AcDbEntity
  8
B.Paste
  6
CONTINUOUS
100
AcDbLine
 10
1.7356718897637795
 20
-3.1352781889763777
 30
0
 11
1.7337560236220473
 21
-3.1365583464566926
 31
0
  0
LINE
  5
8F
330
1A
100
AcDbEntity
  8
B.Paste
  6
CONTINUOUS
100
AcDbLine
 10
1.7337560236220473
 20
-3.1365583464566926
 30
0
 11
1.7314960629921259
 21
-3.1370078740157479
 31
0
  0
LINE
  5
90
330
1A
100
AcDbEntity
  8
B.Paste
  6
CONTINUOUS
100
AcDbLine
 10
1.7314960629921259
 20
-3.1370078740157479
 30
0
 11
1.6980314960629921
 21
-3.1370078740157479
 31
0
  0
LINE
  5
91
330
1A
100
AcDbEntity
  8
B.Paste
  6
CONTINUOUS
100
AcDbLine
 10
1.6980314960629921
 20
-3.1370078740157479
 30
0
 11
1.6957715354330709
 21
-3.1365583464566926
 31
0
  0
LINE
  5
92
330
1A
100
AcDbEntity
  8
B.Paste
  6
CONTINUOUS
100
AcDbLine
 10
1.6957715354330709
 20
-3.1365583464566926
 30
0
 11
1.6938556692913385
 21
-3.1352781889763777
 31
0
  0
LINE
  5
93
330
1A
100
AcDbEntity
  8
B.Paste
  6
CONTINUOUS
100
AcDbLine
 10
1.6938556692913385
 20
-3.1352781889763777
 30
0
 11
1.6925755118110235
 21
-3.1333623228346457
 31
0
  0
LINE
  5
94
330
1A
100
AcDbEntity
  8
B.Paste
  6
CONTINUOUS
100
AcDbLine
 10
1.6925755118110235
 20
-3.1333623228346457
 30
0
 11
1.6921259842519685
 21
-3.1311023622047243
 31
0
  0
LINE
  5
95
330
1A
100
AcDbEntity
  8
B.Paste
  6
CONTINUOUS
100
AcDbLine
 10
1.6921259842519685
 20
-3.1311023622047243
 30
0
 11
1.6921259842519685
 21
-3.119291338582677
 31
0
  0
LINE
  5
96
330
1A
100
AcDbEntity
  8
B.Paste
  6
CONTINUOUS
100
AcDbLine
 10
1.6921259842519685
 20
-3.119291338582677
 30
0
 11
1.6925755118110235
 21
-3.1170313779527556
 31
0
  0
LINE
  5
97
330
1A
100
AcDbEntity
  8
B.Paste
  6
CONTINUOUS
100
AcDbLine
 10
1.6925755118110235
 20
-3.1170313779527556
 30
0
 11
1.6938556692913385
 21
-3.1151155118110236
 31
0
  0
LINE
  5
98
330
1A
100
AcDbEntity
  8
B.Paste
  6
CONTINUOUS
100
AcDbLine
 10
1.6938556692913385
 20
-3.1151155118110236
 30
0
 11
1.6957715354330709
 21
-3.1138353543307087
 31
0
  0
LINE
  5
99
330
1A
100
AcDbEntity
  8
B.Paste
  6
CONTINUOUS
100
AcDbLine
 10
1.6957715354330709
 20
-3.1138353543307087
 30
0
 11
1.6980314960629921
 21
-3.1133858267716534
 31
0
  0
LINE
  5
9A
330
1A
100
AcDbEntity
  8
B.Paste
  6
CONTINUOUS
100
AcDbLine
 10
1.6980314960629921
 20
-3.1133858267716534
 30
0
 11
1.7314960629921259
 21
-3.1133858267716534
 31
0
  0
LINE
  5
9B
330
1A
100
AcDbEntity
  8
B.Paste
  6
CONTINUOUS
100
AcDbLine
 10
1.7314960629921259
 20
-3.1133858267716534
 30
0
 11
1.7337560236220473
 21
-3.1138353543307087
 31
0
  0
LINE
  5
9C
330
1A
100
AcDbEntity
  8
B.Paste
  6
CONTINUOUS
100
AcDbLine
 10
2.4348689370078738
 20
-3.0519303149606301
 30
0
 11
2.4380620866141731
 21
-3.0540638976377954
 31
0
  0
LINE
  5
9D
330
1A
100
AcDbEntity
  8
B.Paste
  6
CONTINUOUS
100
AcDbLine
 10
2.4380620866141731
 20
-3.0540638976377954
 30
0
 11
2.4401956692913385
 21
-3.0572570472440943
 31
0
  0
LINE
  5
9E
330
1A
100
AcDbEntity
  8
B.Paste
  6
CONTINUOUS
100
AcDbLine
 10
2.4401956692913385
 20
-3.0572570472440943
 30
0
 11
2.4409448818897639
 21
-3.061023622047244
 31
0
  0
LINE
  5
9F
330
1A
100
AcDbEntity
  8
B.Paste
  6
CONTINUOUS
100
AcDbLine
 10
2.4409448818897639
 20
-3.061023622047244
 30
0
 11
2.4409448818897639
 21
-3.1122047244094486
 31
0
  0
LINE
  5
A0
330
1A
100
AcDbEntity
  8
B.Paste
  6
CONTINUOUS
100
AcDbLine
 10
2.4409448818897639
 20
-3.1122047244094486
 30
0
 11
2.4401956692913385
 21
-3.1159712992125983
 31
0
  0
LINE
  5
A1
330
1A
100
AcDbEntity
  8
B.Paste
  6
CONTINUOUS
100
AcDbLine
 10
2.4401956692913385
 20
-3.1159712992125983
 30
0
 11
2.4380620866141731
 21
-3.1191644488188977
 31
0
  0
LINE
  5
A2
330
1A
100
AcDbEntity
  8
B.Paste
  6
CONTINUOUS
100
AcDbLine
 10
2.4380620866141731
 20
-3.1191644488188977
 30
0
 11
2.4348689370078738
 21
-3.121298031496063
 31
0
  0
LINE
  5
A3
330
1A
100
AcDbEntity
  8
B.Paste
  6
CONTINUOUS
100
AcDbLine
 10
2.4348689370078738
 20
-3.121298031496063
 30
0
 11
2.4311023622047245
 21
-3.122047244094488
 31
0
  0
LINE
  5
A4
330
1A
100
AcDbEntity
  8
B.Paste
  6
CONTINUOUS
100
AcDbLine
 10
2.4311023622047245
 20
-3.122047244094488
 30
0
 11
2.3169291338582676
 21
-3.122047244094488
 31
0
  0
LINE
  5
A5
330
1A
100
AcDbEntity
  8
B.Paste
  6
CONTINUOUS
100
AcDbLine
 10
2.3169291338582676
 20
-3.122047244094488
 30
0
 11
2.3131625590551179
 21
-3.121298031496063
 31
0
  0
LINE
  5
A6
330
1A
100
AcDbEntity
  8
B.Paste
  6
CONTINUOUS
100
AcDbLine
 10
2.3131625590551179
 20
-3.121298031496063
 30
0
 11
2.309969409448819
 21
-3.1191644488188977
 31
0
  0
LINE
  5
A7
330
1A
100
AcDbEntity
  8
B.Paste
  6
CONTINUOUS
100
AcDbLine
 10
2.309969409448819
 20
-3.1191644488188977
 30
0
 11
2.3078358267716537
 21
-3.1159712992125983
 31
0
  0
LINE
  5
A8
330
1A
100
AcDbEntity
  8
B.Paste
  6
CONTINUOUS
100
AcDbLine
 10
2.3078358267716537
 20
-3.1159712992125983
 30
0
 11
2.3070866141732282
 21
-3.1122047244094486
 31
0
  0
LINE
  5
A9
330
1A
100
AcDbEntity
  8
B.Paste
  6
CONTINUOUS
100
AcDbLine
 10
2.3070866141732282
 20
-3.1122047244094486
 30
0
 11
2.3070866141732282
 21
-3.061023622047244
 31
0
  0
LINE
  5
AA
330
1A
100
AcDbEntity
  8
B.Paste
  6
CONTINUOUS
100
AcDbLine
 10
2.3070866141732282
 20
-3.061023622047244
 30
0
 11
2.3078358267716537
 21
-3.0572570472440943
 31
0
  0
LINE
  5
AB
330
1A
100
AcDbEntity
  8
B.Paste
  6
CONTINUOUS
100
AcDbLine
 10
2.3078358267716537
 20
-3.0572570472440943
 30
0
 11
2.309969409448819
 21
-3.0540638976377954
 31
0
  0
LINE
  5
AC
330
1A
100
AcDbEntity
  8
B.Paste
  6
CONTINUOUS
100
AcDbLine
 10
2.309969409448819
 20
-3.0540638976377954
 30
0
 11
2.3131625590551179
 21
-3.0519303149606301
 31
0
  0
LINE
  5
AD
330
1A
100
AcDbEntity
  8
B.Paste
  6
CONTINUOUS
100
AcDbLine
 10
2.3131625590551179
 20
-3.0519303149606301
 30
0
 11
2.3169291338582676
 21
-3.0511811023622046
 31
0
  0
LINE
  5
AE
330
1A
100
AcDbEntity
  8
B.Paste
  6
CONTINUOUS
100
AcDbLine
 10
2.3169291338582676
 20
-3.0511811023622046
 30
0
 11
2.4311023622047245
 21
-3.0511811023622046
 31
0
  0
LINE
  5
AF
330
1A
100
AcDbEntity
  8
B.Paste
  6
CONTINUOUS
100
AcDbLine
 10
2.4311023622047245
 20
-3.0511811023622046
 30
0
 11
2.4348689370078738
 21
-3.0519303149606301
 31
0
  0
LINE
  5
B0
330
1A
100
AcDbEntity
  8
B.Paste
  6
CONTINUOUS
100
AcDbLine
 10
2.9008661811023622
 20
-3.0419523622047242
 30
0
 11
2.9052324409448818
 21
-3.0440868897637796
 31
0
  0
LINE
  5
B1
330
1A
100
AcDbEntity
  8
B.Paste
  6
CONTINUOUS
100
AcDbLine
 10
2.9052324409448818
 20
-3.0440868897637796
 30
0
 11
2.9086690157480315
 21
-3.0475234645669289
 31
0
  0
LINE
  5
B2
330
1A
100
AcDbEntity
  8
B.Paste
  6
CONTINUOUS
100
AcDbLine
 10
2.9086690157480315
 20
-3.0475234645669289
 30
0
 11
2.9108035433070865
 21
-3.0518897244094489
 31
0
  0
LINE
  5
B3
330
1A
100
AcDbEntity
  8
B.Paste
  6
CONTINUOUS
100
AcDbLine
 10
2.9108035433070865
 20
-3.0518897244094489
 30
0
 11
2.9114173228346454
 21
-3.0561023622047245
 31
0
  0
LINE
  5
B4
330
1A
100
AcDbEntity
  8
B.Paste
  6
CONTINUOUS
100
AcDbLine
 10
2.9114173228346454
 20
-3.0561023622047245
 30
0
 11
2.9114173228346454
 21
-3.1053149606299213
 31
0
  0
LINE
  5
B5
330
1A
100
AcDbEntity
  8
B.Paste
  6
CONTINUOUS
100
AcDbLine
 10
2.9114173228346454
 20
-3.1053149606299213
 30
0
 11
2.9108035433070865
 21
-3.1095275984251969
 31
0
  0
LINE
  5
B6
330
1A
100
AcDbEntity
  8
B.Paste
  6
CONTINUOUS
100
AcDbLine
 10
2.9108035433070865
 20
-3.1095275984251969
 30
0
 11
2.9086690157480315
 21
-3.1138938582677165
 31
0
  0
LINE
  5
B7
330
1A
100
AcDbEntity
  8
B.Paste
  6
CONTINUOUS
100
AcDbLine
 10
2.9086690157480315
 20
-3.1138938582677165
 30
0
 11
2.9052324409448818
 21
-3.1173304330708662
 31
0
  0
LINE
  5
B8
330
1A
100
AcDbEntity
  8
B.Paste
  6
CONTINUOUS
100
AcDbLine
 10
2.9052324409448818
 20
-3.1173304330708662
 30
0
 11
2.9008661811023622
 21
-3.1194649606299212
 31
0
  0
LINE
  5
B9
330
1A
100
AcDbEntity
  8
B.Paste
  6
CONTINUOUS
100
AcDbLine
 10
2.9008661811023622
 20
-3.1194649606299212
 30
0
 11
2.8966535433070866
 21
-3.1200787401574801
 31
0
  0
LINE
  5
BA
330
1A
100
AcDbEntity
  8
B.Paste
  6
CONTINUOUS
100
AcDbLine
 10
2.8966535433070866
 20
-3.1200787401574801
 30
0
 11
2.8671259842519685
 21
-3.1200787401574801
 31
0
  0
LINE
  5
BB
330
1A
100
AcDbEntity
  8
B.Paste
  6
CONTINUOUS
100
AcDbLine
 10
2.8671259842519685
 20
-3.1200787401574801
 30
0
 11
2.8629133464566929
 21
-3.1194649606299212
 31
0
  0
LINE
  5
BC
330
1A
100
AcDbEntity
  8
B.Paste
  6
CONTINUOUS
100
AcDbLine
 10
2.8629133464566929
 20
-3.1194649606299212
 30
0
 11
2.8585470866141733
 21
-3.1173304330708662
 31
0
  0
LINE
  5
BD
330
1A
100
AcDbEntity
  8
B.Paste
  6
CONTINUOUS
100
AcDbLine
 10
2.8585470866141733
 20
-3.1173304330708662
 30
0
 11
2.8551105118110236
 21
-3.1138938582677165
 31
0
  0
LINE
  5
BE
330
1A
100
AcDbEntity
  8
B.Paste
  6
CONTINUOUS
100
AcDbLine
 10
2.8551105118110236
 20
-3.1138938582677165
 30
0
 11
2.8529759842519686
 21
-3.1095275984251969
 31
0
  0
LINE
  5
BF
330
1A
100
AcDbEntity
  8
B.Paste
  6
CONTINUOUS
100
AcDbLine
 10
2.8529759842519686
 20
-3.1095275984251969
 30
0
 11
2.8523622047244093
 21
-3.1053149606299213
 31
0
  0
LINE
  5
C0
330
1A
100
AcDbEntity
  8
B.Paste
  6
CONTINUOUS
100
AcDbLine
 10
2.8523622047244093
 20
-3.1053149606299213
 30
0
 11
2.8523622047244093
 21
-3.0561023622047245
 31
0
  0
LINE
  5
C1
330
1A
100
AcDbEntity
  8
B.Paste
  6
CONTINUOUS
100
AcDbLine
 10
2.8523622047244093
 20
-3.0561023622047245
 30
0
 11
2.8529759842519686
 21
-3.0518897244094489
 31
0
  0
LINE
  5
C2
330
1A
100
AcDbEntity
  8
B.Paste
  6
CONTINUOUS
100
AcDbLine
 10
2.8529759842519686
 20
-3.0518897244094489
 30
0
 11
2.8551105118110236
 21
-3.0475234645669289
 31
0
  0
LINE
  5
C3
330
1A
100
AcDbEntity
  8
B.Paste
  6
CONTINUOUS
100
AcDbLine
 10
2.8551105118110236
 20
-3.0475234645669289
 30
0
 11
2.8585470866141733
 21
-3.0440868897637796
 31
0
  0
LINE
  5
C4
330
1A
100
AcDbEntity
  8
B.Paste
  6
CONTINUOUS
100
AcDbLine
 10
2.8585470866141733
 20
-3.0440868897637796
 30
0
 11
2.8629133464566929
 21
-3.0419523622047242
 31
0
  0
LINE
  5
C5
330
1A
100
AcDbEntity
  8
B.Paste
  6
CONTINUOUS
100
AcDbLine
 10
2.8629133464566929
 20
-3.0419523622047242
 30
0
 11
2.8671259842519685
 21
-3.0413385826771653
 31
0
  0
LINE
  5
C6
330
1A
100
AcDbEntity
  8
B.Paste
  6
CONTINUOUS
100
AcDbLine
 10
2.8671259842519685
 20
-3.0413385826771653
 30
0
 11
2.8966535433070866
 21
-3.0413385826771653
 31
0
  0
LINE
  5
C7
330
1A
100
AcDbEntity
  8
B.Paste
  6
CONTINUOUS
100
AcDbLine
 10
2.8966535433070866
 20
-3.0413385826771653
 30
0
 11
2.9008661811023622
 21
-3.0419523622047242
 31
0
  0
LINE
  5
C8
330
1A
100
AcDbEntity
  8
B.Paste
  6
CONTINUOUS
100
AcDbLine
 10
2.9914173622047242
 20
-3.0419523622047242
 30
0
 11
2.9957836220472442
 21
-3.0440868897637796
 31
0
  0
LINE
  5
C9
330
1A
100
AcDbEntity
  8
B.Paste
  6
CONTINUOUS
100
AcDbLine
 10
2.9957836220472442
 20
-3.0440868897637796
 30
0
 11
2.9992201968503935
 21
-3.0475234645669289
 31
0
  0
LINE
  5
CA
330
1A
100
AcDbEntity
  8
B.Paste
  6
CONTINUOUS
100
AcDbLine
 10
2.9992201968503935
 20
-3.0475234645669289
 30
0
 11
3.0013547244094489
 21
-3.0518897244094489
 31
0
  0
LINE
  5
CB
330
1A
100
AcDbEntity
  8
B.Paste
  6
CONTINUOUS
100
AcDbLine
 10
3.0013547244094489
 20
-3.0518897244094489
 30
0
 11
3.0019685039370079
 21
-3.0561023622047245
 31
0
  0
LINE
  5
CC
330
1A
100
AcDbEntity
  8
B.Paste
  6
CONTINUOUS
100
AcDbLine
 10
3.0019685039370079
 20
-3.0561023622047245
 30
0
 11
3.0019685039370079
 21
-3.1053149606299213
 31
0
  0
LINE
  5
CD
330
1A
100
AcDbEntity
  8
B.Paste
  6
CONTINUOUS
100
AcDbLine
 10
3.0019685039370079
 20
-3.1053149606299213
 30
0
 11
3.0013547244094489
 21
-3.1095275984251969
 31
0
  0
LINE
  5
CE
330
1A
100
AcDbEntity
  8
B.Paste
  6
CONTINUOUS
100
AcDbLine
 10
3.0013547244094489
 20
-3.1095275984251969
 30
0
 11
2.9992201968503935
 21
-3.1138938582677165
 31
0
  0
LINE
  5
CF
330
1A
100
AcDbEntity
  8
B.Paste
  6
CONTINUOUS
100
AcDbLine
 10
2.9992201968503935
 20
-3.1138938582677165
 30
0
 11
2.9957836220472442
 21
-3.1173304330708662
 31
0
  0
LINE
  5
D0
330
1A
100
AcDbEntity
  8
B.Paste
  6
CONTINUOUS
100
AcDbLine
 10
2.9957836220472442
 20
-3.1173304330708662
 30
0
 11
2.9914173622047242
 21
-3.1194649606299212
 31
0
  0
LINE
  5
D1
330
1A
100
AcDbEntity
  8
B.Paste
  6
CONTINUOUS
100
AcDbLine
 10
2.9914173622047242
 20
-3.1194649606299212
 30
0
 11
2.9872047244094486
 21
-3.1200787401574801
 31
0
  0
LINE
  5
D2
330
1A
100
AcDbEntity
  8
B.Paste
  6
CONTINUOUS
100
AcDbLine
 10
2.9872047244094486
 20
-3.1200787401574801
 30
0
 11
2.9576771653543306
 21
-3.1200787401574801
 31
0
  0
LINE
  5
D3
330
1A
100
AcDbEntity
  8
B.Paste
  6
CONTINUOUS
100
AcDbLine
 10
2.9576771653543306
 20
-3.1200787401574801
 30
0
 11
2.953464527559055
 21
-3.1194649606299212
 31
0
  0
LINE
  5
D4
330
1A
100
AcDbEntity
  8
B.Paste
  6
CONTINUOUS
100
AcDbLine
 10
2.953464527559055
 20
-3.1194649606299212
 30
0
 11
2.9490982677165354
 21
-3.1173304330708662
 31
0
  0
LINE
  5
D5
330
1A
100
AcDbEntity
  8
B.Paste
  6
CONTINUOUS
100
AcDbLine
 10
2.9490982677165354
 20
-3.1173304330708662
 30
0
 11
2.9456616929133856
 21
-3.1138938582677165
 31
0
  0
LINE
  5
D6
330
1A
100
AcDbEntity
  8
B.Paste
  6
CONTINUOUS
100
AcDbLine
 10
2.9456616929133856
 20
-3.1138938582677165
 30
0
 11
2.9435271653543307
 21
-3.1095275984251969
 31
0
  0
LINE
  5
D7
330
1A
100
AcDbEntity
  8
B.Paste
  6
CONTINUOUS
100
AcDbLine
 10
2.9435271653543307
 20
-3.1095275984251969
 30
0
 11
2.9429133858267718
 21
-3.1053149606299213
 31
0
  0
LINE
  5
D8
330
1A
100
AcDbEntity
  8
B.Paste
  6
CONTINUOUS
100
AcDbLine
 10
2.9429133858267718
 20
-3.1053149606299213
 30
0
 11
2.9429133858267718
 21
-3.0561023622047245
 31
0
  0
LINE
  5
D9
330
1A
100
AcDbEntity
  8
B.Paste
  6
CONTINUOUS
100
AcDbLine
 10
2.9429133858267718
 20
-3.0561023622047245
 30
0
 11
2.9435271653543307
 21
-3.0518897244094489
 31
0
  0
LINE
  5
DA
330
1A
100
AcDbEntity
  8
B.Paste
  6
CONTINUOUS
100
AcDbLine
 10
2.9435271653543307
 20
-3.0518897244094489
 30
0
 11
2.9456616929133856
 21
-3.0475234645669289
 31
0
  0
LINE
  5
DB
330
1A
100
AcDbEntity
  8
B.Paste
  6
CONTINUOUS
100
AcDbLine
 10
2.9456616929133856
 20
-3.0475234645669289
 30
0
 11
2.9490982677165354
 21
-3.0440868897637796
 31
0
  0
LINE
  5
DC
330
1A
100
AcDbEntity
  8
B.Paste
  6
CONTINUOUS
100
AcDbLine
 10
2.9490982677165354
 20
-3.0440868897637796
 30
0
 11
2.953464527559055
 21
-3.0419523622047242
 31
0
  0
LINE
  5
DD
330
1A
100
AcDbEntity
  8
B.Paste
  6
CONTINUOUS
100
AcDbLine
 10
2.953464527559055
 20
-3.0419523622047242
 30
0
 11
2.9576771653543306
 21
-3.0413385826771653
 31
0
  0
LINE
  5
DE
330
1A
100
AcDbEntity
  8
B.Paste
  6
CONTINUOUS
100
AcDbLine
 10
2.9576771653543306
 20
-3.0413385826771653
 30
0
 11
2.9872047244094486
 21
-3.0413385826771653
 31
0
  0
LINE
  5
DF
330
1A
100
AcDbEntity
  8
B.Paste
  6
CONTINUOUS
100
AcDbLine
 10
2.9872047244094486
 20
-3.0413385826771653
 30
0
 11
2.9914173622047242
 21
-3.0419523622047242
 31
0
  0
LINE
  5
E0
330
1A
100
AcDbEntity
  8
B.Paste
  6
CONTINUOUS
100
AcDbLine
 10
3.0819685433070867
 20
-3.0419523622047242
 30
0
 11
3.0863348031496063
 21
-3.0440868897637796
 31
0
  0
LINE
  5
E1
330
1A
100
AcDbEntity
  8
B.Paste
  6
CONTINUOUS
100
AcDbLine
 10
3.0863348031496063
 20
-3.0440868897637796
 30
0
 11
3.089771377952756
 21
-3.0475234645669289
 31
0
  0
LINE
  5
E2
330
1A
100
AcDbEntity
  8
B.Paste
  6
CONTINUOUS
100
AcDbLine
 10
3.089771377952756
 20
-3.0475234645669289
 30
0
 11
3.091905905511811
 21
-3.0518897244094489
 31
0
  0
LINE
  5
E3
330
1A
100
AcDbEntity
  8
B.Paste
  6
CONTINUOUS
100
AcDbLine
 10
3.091905905511811
 20
-3.0518897244094489
 30
0
 11
3.0925196850393699
 21
-3.0561023622047245
 31
0
  0
LINE
  5
E4
330
1A
100
AcDbEntity
  8
B.Paste
  6
CONTINUOUS
100
AcDbLine
 10
3.0925196850393699
 20
-3.0561023622047245
 30
0
 11
3.0925196850393699
 21
-3.1053149606299213
 31
0
  0
LINE
  5
E5
330
1A
100
AcDbEntity
  8
B.Paste
  6
CONTINUOUS
100
AcDbLine
 10
3.0925196850393699
 20
-3.1053149606299213
 30
0
 11
3.091905905511811
 21
-3.1095275984251969
 31
0
  0
LINE
  5
E6
330
1A
100
AcDbEntity
  8
B.Paste
  6
CONTINUOUS
100
AcDbLine
 10
3.091905905511811
 20
-3.1095275984251969
 30
0
 11
3.089771377952756
 21
-3.1138938582677165
 31
0
  0
LINE
  5
E7
330
1A
100
AcDbEntity
  8
B.Paste
  6
CONTINUOUS
100
AcDbLine
 10
3.089771377952756
 20
-3.1138938582677165
 30
0
 11
3.0863348031496063
 21
-3.1173304330708662
 31
0
  0
LINE
  5
E8
330
1A
100
AcDbEntity
  8
B.Paste
  6
CONTINUOUS
100
AcDbLine
 10
3.0863348031496063
 20
-3.1173304330708662
 30
0
 11
3.0819685433070867
 21
-3.1194649606299212
 31
0
  0
LINE
  5
E9
330
1A
100
AcDbEntity
  8
B.Paste
  6
CONTINUOUS
100
AcDbLine
 10
3.0819685433070867
 20
-3.1194649606299212
 30
0
 11
3.0777559055118111
 21
-3.1200787401574801
 31
0
  0
LINE
  5
EA
330
1A
100
AcDbEntity
  8
B.Paste
  6
CONTINUOUS
100
AcDbLine
 10
3.0777559055118111
 20
-3.1200787401574801
 30
0
 11
3.048228346456693
 21
-3.1200787401574801
 31
0
  0
LINE
  5
EB
330
1A
100
AcDbEntity
  8
B.Paste
  6
CONTINUOUS
100
AcDbLine
 10
3.048228346456693
 20
-3.1200787401574801
 30
0
 11
3.0440157086614175
 21
-3.1194649606299212
 31
0
  0
LINE
  5
EC
330
1A
100
AcDbEntity
  8
B.Paste
  6
CONTINUOUS
100
AcDbLine
 10
3.0440157086614175
 20
-3.1194649606299212
 30
0
 11
3.0396494488188974
 21
-3.1173304330708662
 31
0
  0
LINE
  5
ED
330
1A
100
AcDbEntity
  8
B.Paste
  6
CONTINUOUS
100
AcDbLine
 10
3.0396494488188974
 20
-3.1173304330708662
 30
0
 11
3.0362128740157481
 21
-3.1138938582677165
 31
0
  0
LINE
  5
EE
330
1A
100
AcDbEntity
  8
B.Paste
  6
CONTINUOUS
100
AcDbLine
 10
3.0362128740157481
 20
-3.1138938582677165
 30
0
 11
3.0340783464566927
 21
-3.1095275984251969
 31
0
  0
LINE
  5
EF
330
1A
100
AcDbEntity
  8
B.Paste
  6
CONTINUOUS
100
AcDbLine
 10
3.0340783464566927
 20
-3.1095275984251969
 30
0
 11
3.0334645669291338
 21
-3.1053149606299213
 31
0
  0
LINE
  5
F0
330
1A
100
AcDbEntity
  8
B.Paste
  6
CONTINUOUS
100
AcDbLine
 10
3.0334645669291338
 20
-3.1053149606299213
 30
0
 11
3.0334645669291338
 21
-3.0561023622047245
 31
0
  0
LINE
  5
F1
330
1A
100
AcDbEntity
  8
B.Paste
  6
CONTINUOUS
100
AcDbLine
 10
3.0334645669291338
 20
-3.0561023622047245
 30
0
 11
3.0340783464566927
 21
-3.0518897244094489
 31
0
  0
LINE
  5
F2
330
1A
100
AcDbEntity
  8
B.Paste
  6
CONTINUOUS
100
AcDbLine
 10
3.0340783464566927
 20
-3.0518897244094489
 30
0
 11
3.0362128740157481
 21
-3.0475234645669289
 31
0
  0
LINE
  5
F3
330
1A
100
AcDbEntity
  8
B.Paste
  6
CONTINUOUS
100
AcDbLine
 10
3.0362128740157481
 20
-3.0475234645669289
 30
0
 11
3.0396494488188974
 21
-3.0440868897637796
 31
0
  0
LINE
  5
F4
330
1A
100
AcDbEntity
  8
B.Paste
  6
CONTINUOUS
100
AcDbLine
 10
3.0396494488188974
 20
-3.0440868897637796
 30
0
 11
3.0440157086614175
 21
-3.0419523622047242
 31
0
  0
LINE
  5
F5
330
1A
100
AcDbEntity
  8
B.Paste
  6
CONTINUOUS
100
AcDbLine
 10
3.0440157086614175
 20
-3.0419523622047242
 30
0
 11
3.048228346456693
 21
-3.0413385826771653
 31
0
  0
LINE
  5
F6
330
1A
100
AcDbEntity
  8
B.Paste
  6
CONTINUOUS
100
AcDbLine
 10
3.048228346456693
 20
-3.0413385826771653
 30
0
 11
3.0777559055118111
 21
-3.0413385826771653
 31
0
  0
LINE
  5
F7
330
1A
100
AcDbEntity
  8
B.Paste
  6
CONTINUOUS
100
AcDbLine
 10
3.0777559055118111
 20
-3.0413385826771653
 30
0
 11
3.0819685433070867
 21
-3.0419523622047242
 31
0
  0
LINE
  5
F8
330
1A
100
AcDbEntity
  8
B.Paste
  6
CONTINUOUS
100
AcDbLine
 10
1.9634122440944881
 20
-3.0735838582677166
 30
0
 11
1.9666053937007875
 21
-3.075717440944882
 31
0
  0
LINE
  5
F9
330
1A
100
AcDbEntity
  8
B.Paste
  6
CONTINUOUS
100
AcDbLine
 10
1.9666053937007875
 20
-3.075717440944882
 30
0
 11
1.9687389763779528
 21
-3.0789105905511809
 31
0
  0
LINE
  5
FA
330
1A
100
AcDbEntity
  8
B.Paste
  6
CONTINUOUS
100
AcDbLine
 10
1.9687389763779528
 20
-3.0789105905511809
 30
0
 11
1.969488188976378
 21
-3.0826771653543306
 31
0
  0
LINE
  5
FB
330
1A
100
AcDbEntity
  8
B.Paste
  6
CONTINUOUS
100
AcDbLine
 10
1.969488188976378
 20
-3.0826771653543306
 30
0
 11
1.969488188976378
 21
-3.1023622047244093
 31
0
  0
LINE
  5
FC
330
1A
100
AcDbEntity
  8
B.Paste
  6
CONTINUOUS
100
AcDbLine
 10
1.969488188976378
 20
-3.1023622047244093
 30
0
 11
1.9687389763779528
 21
-3.1061287795275589
 31
0
  0
LINE
  5
FD
330
1A
100
AcDbEntity
  8
B.Paste
  6
CONTINUOUS
100
AcDbLine
 10
1.9687389763779528
 20
-3.1061287795275589
 30
0
 11
1.9666053937007875
 21
-3.1093219291338583
 31
0
  0
LINE
  5
FE
330
1A
100
AcDbEntity
  8
B.Paste
  6
CONTINUOUS
100
AcDbLine
 10
1.9666053937007875
 20
-3.1093219291338583
 30
0
 11
1.9634122440944881
 21
-3.1114555118110236
 31
0
  0
LINE
  5
FF
330
1A
100
AcDbEntity
  8
B.Paste
  6
CONTINUOUS
100
AcDbLine
 10
1.9634122440944881
 20
-3.1114555118110236
 30
0
 11
1.9596456692913384
 21
-3.1122047244094486
 31
0
  0
LINE
  5
100
330
1A
100
AcDbEntity
  8
B.Paste
  6
CONTINUOUS
100
AcDbLine
 10
1.9596456692913384
 20
-3.1122047244094486
 30
0
 11
1.9222440944881889
 21
-3.1122047244094486
 31
0
  0
LINE
  5
101
330
1A
100
AcDbEntity
  8
B.Paste
  6
CONTINUOUS
100
AcDbLine
 10
1.9222440944881889
 20
-3.1122047244094486
 30
0
 11
1.9184775196850394
 21
-3.1114555118110236
 31
0
  0
LINE
  5
102
330
1A
100
AcDbEntity
  8
B.Paste
  6
CONTINUOUS
100
AcDbLine
 10
1.9184775196850394
 20
-3.1114555118110236
 30
0
 11
1.9152843700787401
 21
-3.1093219291338583
 31
0
  0
LINE
  5
103
330
1A
100
AcDbEntity
  8
B.Paste
  6
CONTINUOUS
100
AcDbLine
 10
1.9152843700787401
 20
-3.1093219291338583
 30
0
 11
1.9131507874015747
 21
-3.1061287795275589
 31
0
  0
LINE
  5
104
330
1A
100
AcDbEntity
  8
B.Paste
  6
CONTINUOUS
100
AcDbLine
 10
1.9131507874015747
 20
-3.1061287795275589
 30
0
 11
1.9124015748031495
 21
-3.1023622047244093
 31
0
  0
LINE
  5
105
330
1A
100
AcDbEntity
  8
B.Paste
  6
CONTINUOUS
100
AcDbLine
 10
1.9124015748031495
 20
-3.1023622047244093
 30
0
 11
1.9124015748031495
 21
-3.0826771653543306
 31
0
  0
LINE
  5
106
330
1A
100
AcDbEntity
  8
B.Paste
  6
CONTINUOUS
100
AcDbLine
 10
1.9124015748031495
 20
-3.0826771653543306
 30
0
 11
1.9131507874015747
 21
-3.0789105905511809
 31
0
  0
LINE
  5
107
330
1A
100
AcDbEntity
  8
B.Paste
  6
CONTINUOUS
100
AcDbLine
 10
1.9131507874015747
 20
-3.0789105905511809
 30
0
 11
1.9152843700787401
 21
-3.075717440944882
 31
0
  0
LINE
  5
108
330
1A
100
AcDbEntity
  8
B.Paste
  6
CONTINUOUS
100
AcDbLine
 10
1.9152843700787401
 20
-3.075717440944882
 30
0
 11
1.9184775196850394
 21
-3.0735838582677166
 31
0
  0
LINE
  5
109
330
1A
100
AcDbEntity
  8
B.Paste
  6
CONTINUOUS
100
AcDbLine
 10
1.9184775196850394
 20
-3.0735838582677166
 30
0
 11
1.9222440944881889
 21
-3.0728346456692912
 31
0
  0
LINE
  5
10A
330
1A
100
AcDbEntity
  8
B.Paste
  6
CONTINUOUS
100
AcDbLine
 10
1.9222440944881889
 20
-3.0728346456692912
 30
0
 11
1.9596456692913384
 21
-3.0728346456692912
 31
0
  0
LINE
  5
10B
330
1A
100
AcDbEntity
  8
B.Paste
  6
CONTINUOUS
100
AcDbLine
 10
1.9596456692913384
 20
-3.0728346456692912
 30
0
 11
1.9634122440944881
 21
-3.0735838582677166
 31
0
  0
LINE
  5
10C
330
1A
100
AcDbEntity
  8
B.Paste
  6
CONTINUOUS
100
AcDbLine
 10
2.1523886220472441
 20
-3.0696468503937009
 30
0
 11
2.1555817716535435
 21
-3.0717804330708662
 31
0
  0
LINE
  5
10D
330
1A
100
AcDbEntity
  8
B.Paste
  6
CONTINUOUS
100
AcDbLine
 10
2.1555817716535435
 20
-3.0717804330708662
 30
0
 11
2.1577153543307088
 21
-3.0749735826771651
 31
0
  0
LINE
  5
10E
330
1A
100
AcDbEntity
  8
B.Paste
  6
CONTINUOUS
100
AcDbLine
 10
2.1577153543307088
 20
-3.0749735826771651
 30
0
 11
2.1584645669291338
 21
-3.0787401574803148
 31
0
  0
LINE
  5
10F
330
1A
100
AcDbEntity
  8
B.Paste
  6
CONTINUOUS
100
AcDbLine
 10
2.1584645669291338
 20
-3.0787401574803148
 30
0
 11
2.1584645669291338
 21
-3.0984251968503935
 31
0
  0
LINE
  5
110
330
1A
100
AcDbEntity
  8
B.Paste
  6
CONTINUOUS
100
AcDbLine
 10
2.1584645669291338
 20
-3.0984251968503935
 30
0
 11
2.1577153543307088
 21
-3.1021917716535432
 31
0
  0
LINE
  5
111
330
1A
100
AcDbEntity
  8
B.Paste
  6
CONTINUOUS
100
AcDbLine
 10
2.1577153543307088
 20
-3.1021917716535432
 30
0
 11
2.1555817716535435
 21
-3.1053849212598426
 31
0
  0
LINE
  5
112
330
1A
100
AcDbEntity
  8
B.Paste
  6
CONTINUOUS
100
AcDbLine
 10
2.1555817716535435
 20
-3.1053849212598426
 30
0
 11
2.1523886220472441
 21
-3.1075185039370079
 31
0
  0
LINE
  5
113
330
1A
100
AcDbEntity
  8
B.Paste
  6
CONTINUOUS
100
AcDbLine
 10
2.1523886220472441
 20
-3.1075185039370079
 30
0
 11
2.1486220472440944
 21
-3.1082677165354329
 31
0
  0
LINE
  5
114
330
1A
100
AcDbEntity
  8
B.Paste
  6
CONTINUOUS
100
AcDbLine
 10
2.1486220472440944
 20
-3.1082677165354329
 30
0
 11
2.1112204724409449
 21
-3.1082677165354329
 31
0
  0
LINE
  5
115
330
1A
100
AcDbEntity
  8
B.Paste
  6
CONTINUOUS
100
AcDbLine
 10
2.1112204724409449
 20
-3.1082677165354329
 30
0
 11
2.1074538976377952
 21
-3.1075185039370079
 31
0
  0
LINE
  5
116
330
1A
100
AcDbEntity
  8
B.Paste
  6
CONTINUOUS
100
AcDbLine
 10
2.1074538976377952
 20
-3.1075185039370079
 30
0
 11
2.1042607480314959
 21
-3.1053849212598426
 31
0
  0
LINE
  5
117
330
1A
100
AcDbEntity
  8
B.Paste
  6
CONTINUOUS
100
AcDbLine
 10
2.1042607480314959
 20
-3.1053849212598426
 30
0
 11
2.1021271653543305
 21
-3.1021917716535432
 31
0
  0
LINE
  5
118
330
1A
100
AcDbEntity
  8
B.Paste
  6
CONTINUOUS
100
AcDbLine
 10
2.1021271653543305
 20
-3.1021917716535432
 30
0
 11
2.1013779527559056
 21
-3.0984251968503935
 31
0
  0
LINE
  5
119
330
1A
100
AcDbEntity
  8
B.Paste
  6
CONTINUOUS
100
AcDbLine
 10
2.1013779527559056
 20
-3.0984251968503935
 30
0
 11
2.1013779527559056
 21
-3.0787401574803148
 31
0
  0
LINE
  5
11A
330
1A
100
AcDbEntity
  8
B.Paste
  6
CONTINUOUS
100
AcDbLine
 10
2.1013779527559056
 20
-3.0787401574803148
 30
0
 11
2.1021271653543305
 21
-3.0749735826771651
 31
0
  0
LINE
  5
11B
330
1A
100
AcDbEntity
  8
B.Paste
  6
CONTINUOUS
100
AcDbLine
 10
2.1021271653543305
 20
-3.0749735826771651
 30
0
 11
2.1042607480314959
 21
-3.0717804330708662
 31
0
  0
LINE
  5
11C
330
1A
100
AcDbEntity
  8
B.Paste
  6
CONTINUOUS
100
AcDbLine
 10
2.1042607480314959
 20
-3.0717804330708662
 30
0
 11
2.1074538976377952
 21
-3.0696468503937009
 31
0
  0
LINE
  5
11D
330
1A
100
AcDbEntity
  8
B.Paste
  6
CONTINUOUS
100
AcDbLine
 10
2.1074538976377952
 20
-3.0696468503937009
 30
0
 11
2.1112204724409449
 21
-3.0688976377952755
 31
0
  0
LINE
  5
11E
330
1A
100
AcDbEntity
  8
B.Paste
  6
CONTINUOUS
100
AcDbLine
 10
2.1112204724409449
 20
-3.0688976377952755
 30
0
 11
2.1486220472440944
 21
-3.0688976377952755
 31
0
  0
LINE
  5
11F
330
1A
100
AcDbEntity
  8
B.Paste
  6
CONTINUOUS
100
AcDbLine
 10
2.1486220472440944
 20
-3.0688976377952755
 30
0
 11
2.1523886220472441
 21
-3.0696468503937009
 31
0
  0
LINE
  5
120
330
1A
100
AcDbEntity
  8
B.Paste
  6
CONTINUOUS
100
AcDbLine
 10
1.7337560236220473
 20
-3.0823392913385828
 30
0
 11
1.7356718897637795
 21
-3.0836194488188977
 31
0
  0
LINE
  5
121
330
1A
100
AcDbEntity
  8
B.Paste
  6
CONTINUOUS
100
AcDbLine
 10
1.7356718897637795
 20
-3.0836194488188977
 30
0
 11
1.7369520472440945
 21
-3.0855353149606297
 31
0
  0
LINE
  5
122
330
1A
100
AcDbEntity
  8
B.Paste
  6
CONTINUOUS
100
AcDbLine
 10
1.7369520472440945
 20
-3.0855353149606297
 30
0
 11
1.7374015748031495
 21
-3.0877952755905511
 31
0
  0
LINE
  5
123
330
1A
100
AcDbEntity
  8
B.Paste
  6
CONTINUOUS
100
AcDbLine
 10
1.7374015748031495
 20
-3.0877952755905511
 30
0
 11
1.7374015748031495
 21
-3.0996062992125983
 31
0
  0
LINE
  5
124
330
1A
100
AcDbEntity
  8
B.Paste
  6
CONTINUOUS
100
AcDbLine
 10
1.7374015748031495
 20
-3.0996062992125983
 30
0
 11
1.7369520472440945
 21
-3.1018662598425197
 31
0
  0
LINE
  5
125
330
1A
100
AcDbEntity
  8
B.Paste
  6
CONTINUOUS
100
AcDbLine
 10
1.7369520472440945
 20
-3.1018662598425197
 30
0
 11
1.7356718897637795
 21
-3.1037821259842517
 31
0
  0
LINE
  5
126
330
1A
100
AcDbEntity
  8
B.Paste
  6
CONTINUOUS
100
AcDbLine
 10
1.7356718897637795
 20
-3.1037821259842517
 30
0
 11
1.7337560236220473
 21
-3.1050622834645667
 31
0
  0
LINE
  5
127
330
1A
100
AcDbEntity
  8
B.Paste
  6
CONTINUOUS
100
AcDbLine
 10
1.7337560236220473
 20
-3.1050622834645667
 30
0
 11
1.7314960629921259
 21
-3.1055118110236219
 31
0
  0
LINE
  5
128
330
1A
100
AcDbEntity
  8
B.Paste
  6
CONTINUOUS
100
AcDbLine
 10
1.7314960629921259
 20
-3.1055118110236219
 30
0
 11
1.6980314960629921
 21
-3.1055118110236219
 31
0
  0
LINE
  5
129
330
1A
100
AcDbEntity
  8
B.Paste
  6
CONTINUOUS
100
AcDbLine
 10
1.6980314960629921
 20
-3.1055118110236219
 30
0
 11
1.6957715354330709
 21
-3.1050622834645667
 31
0
  0
LINE
  5
12A
330
1A
100
AcDbEntity
  8
B.Paste
  6
CONTINUOUS
100
AcDbLine
 10
1.6957715354330709
 20
-3.1050622834645667
 30
0
 11
1.6938556692913385
 21
-3.1037821259842517
 31
0
  0
LINE
  5
12B
330
1A
100
AcDbEntity
  8
B.Paste
  6
CONTINUOUS
100
AcDbLine
 10
1.6938556692913385
 20
-3.1037821259842517
 30
0
 11
1.6925755118110235
 21
-3.1018662598425197
 31
0
  0
LINE
  5
12C
330
1A
100
AcDbEntity
  8
B.Paste
  6
CONTINUOUS
100
AcDbLine
 10
1.6925755118110235
 20
-3.1018662598425197
 30
0
 11
1.6921259842519685
 21
-3.0996062992125983
 31
0
  0
LINE
  5
12D
330
1A
100
AcDbEntity
  8
B.Paste
  6
CONTINUOUS
100
AcDbLine
 10
1.6921259842519685
 20
-3.0996062992125983
 30
0
 11
1.6921259842519685
 21
-3.0877952755905511
 31
0
  0
LINE
  5
12E
330
1A
100
AcDbEntity
  8
B.Paste
  6
CONTINUOUS
100
AcDbLine
 10
1.6921259842519685
 20
-3.0877952755905511
 30
0
 11
1.6925755118110235
 21
-3.0855353149606297
 31
0
  0
LINE
  5
12F
330
1A
100
AcDbEntity
  8
B.Paste
  6
CONTINUOUS
100
AcDbLine
 10
1.6925755118110235
 20
-3.0855353149606297
 30
0
 11
1.6938556692913385
 21
-3.0836194488188977
 31
0
  0
LINE
  5
130
330
1A
100
AcDbEntity
  8
B.Paste
  6
CONTINUOUS
100
AcDbLine
 10
1.6938556692913385
 20
-3.0836194488188977
 30
0
 11
1.6957715354330709
 21
-3.0823392913385828
 31
0
  0
LINE
  5
131
330
1A
100
AcDbEntity
  8
B.Paste
  6
CONTINUOUS
100
AcDbLine
 10
1.6957715354330709
 20
-3.0823392913385828
 30
0
 11
1.6980314960629921
 21
-3.0818897637795275
 31
0
  0
LINE
  5
132
330
1A
100
AcDbEntity
  8
B.Paste
  6
CONTINUOUS
100
AcDbLine
 10
1.6980314960629921
 20
-3.0818897637795275
 30
0
 11
1.7314960629921259
 21
-3.0818897637795275
 31
0
  0
LINE
  5
133
330
1A
100
AcDbEntity
  8
B.Paste
  6
CONTINUOUS
100
AcDbLine
 10
1.7314960629921259
 20
-3.0818897637795275
 30
0
 11
1.7337560236220473
 21
-3.0823392913385828
 31
0
  0
LINE
  5
134
330
1A
100
AcDbEntity
  8
B.Paste
  6
CONTINUOUS
100
AcDbLine
 10
3.340380748031496
 20
-3.063249212598425
 30
0
 11
3.3435738976377953
 21
-3.0653827952755903
 31
0
  0
LINE
  5
135
330
1A
100
AcDbEntity
  8
B.Paste
  6
CONTINUOUS
100
AcDbLine
 10
3.3435738976377953
 20
-3.0653827952755903
 30
0
 11
3.3457074803149607
 21
-3.0685759448818897
 31
0
  0
LINE
  5
136
330
1A
100
AcDbEntity
  8
B.Paste
  6
CONTINUOUS
100
AcDbLine
 10
3.3457074803149607
 20
-3.0685759448818897
 30
0
 11
3.3464566929133857
 21
-3.0723425196850394
 31
0
  0
LINE
  5
137
330
1A
100
AcDbEntity
  8
B.Paste
  6
CONTINUOUS
100
AcDbLine
 10
3.3464566929133857
 20
-3.0723425196850394
 30
0
 11
3.3464566929133857
 21
-3.0930118110236218
 31
0
  0
LINE
  5
138
330
1A
100
AcDbEntity
  8
B.Paste
  6
CONTINUOUS
100
AcDbLine
 10
3.3464566929133857
 20
-3.0930118110236218
 30
0
 11
3.3457074803149607
 21
-3.0967783858267715
 31
0
  0
LINE
  5
139
330
1A
100
AcDbEntity
  8
B.Paste
  6
CONTINUOUS
100
AcDbLine
 10
3.3457074803149607
 20
-3.0967783858267715
 30
0
 11
3.3435738976377953
 21
-3.0999715354330708
 31
0
  0
LINE
  5
13A
330
1A
100
AcDbEntity
  8
B.Paste
  6
CONTINUOUS
100
AcDbLine
 10
3.3435738976377953
 20
-3.0999715354330708
 30
0
 11
3.340380748031496
 21
-3.1021051181102361
 31
0
  0
LINE
  5
13B
330
1A
100
AcDbEntity
  8
B.Paste
  6
CONTINUOUS
100
AcDbLine
 10
3.340380748031496
 20
-3.1021051181102361
 30
0
 11
3.3366141732283463
 21
-3.1028543307086616
 31
0
  0
LINE
  5
13C
330
1A
100
AcDbEntity
  8
B.Paste
  6
CONTINUOUS
100
AcDbLine
 10
3.3366141732283463
 20
-3.1028543307086616
 30
0
 11
3.3011811023622046
 21
-3.1028543307086616
 31
0
  0
LINE
  5
13D
330
1A
100
AcDbEntity
  8
B.Paste
  6
CONTINUOUS
100
AcDbLine
 10
3.3011811023622046
 20
-3.1028543307086616
 30
0
 11
3.297414527559055
 21
-3.1021051181102361
 31
0
  0
LINE
  5
13E
330
1A
100
AcDbEntity
  8
B.Paste
  6
CONTINUOUS
100
AcDbLine
 10
3.297414527559055
 20
-3.1021051181102361
 30
0
 11
3.294221377952756
 21
-3.0999715354330708
 31
0
  0
LINE
  5
13F
330
1A
100
AcDbEntity
  8
B.Paste
  6
CONTINUOUS
100
AcDbLine
 10
3.294221377952756
 20
-3.0999715354330708
 30
0
 11
3.2920877952755903
 21
-3.0967783858267715
 31
0
  0
LINE
  5
140
330
1A
100
AcDbEntity
  8
B.Paste
  6
CONTINUOUS
100
AcDbLine
 10
3.2920877952755903
 20
-3.0967783858267715
 30
0
 11
3.2913385826771653
 21
-3.0930118110236218
 31
0
  0
LINE
  5
141
330
1A
100
AcDbEntity
  8
B.Paste
  6
CONTINUOUS
100
AcDbLine
 10
3.2913385826771653
 20
-3.0930118110236218
 30
0
 11
3.2913385826771653
 21
-3.0723425196850394
 31
0
  0
LINE
  5
142
330
1A
100
AcDbEntity
  8
B.Paste
  6
CONTINUOUS
100
AcDbLine
 10
3.2913385826771653
 20
-3.0723425196850394
 30
0
 11
3.2920877952755903
 21
-3.0685759448818897
 31
0
  0
LINE
  5
143
330
1A
100
AcDbEntity
  8
B.Paste
  6
CONTINUOUS
100
AcDbLine
 10
3.2920877952755903
 20
-3.0685759448818897
 30
0
 11
3.294221377952756
 21
-3.0653827952755903
 31
0
  0
LINE
  5
144
330
1A
100
AcDbEntity
  8
B.Paste
  6
CONTINUOUS
100
AcDbLine
 10
3.294221377952756
 20
-3.0653827952755903
 30
0
 11
3.297414527559055
 21
-3.063249212598425
 31
0
  0
LINE
  5
145
330
1A
100
AcDbEntity
  8
B.Paste
  6
CONTINUOUS
100
AcDbLine
 10
3.297414527559055
 20
-3.063249212598425
 30
0
 11
3.3011811023622046
 21
-3.0625
 31
0
  0
LINE
  5
146
330
1A
100
AcDbEntity
  8
B.Paste
  6
CONTINUOUS
100
AcDbLine
 10
3.3011811023622046
 20
-3.0625
 30
0
 11
3.3366141732283463
 21
-3.0625
 31
0
  0
LINE
  5
147
330
1A
100
AcDbEntity
  8
B.Paste
  6
CONTINUOUS
100
AcDbLine
 10
3.3366141732283463
 20
-3.0625
 30
0
 11
3.340380748031496
 21
-3.063249212598425
 31
0
  0
LINE
  5
148
330
1A
100
AcDbEntity
  8
B.Paste
  6
CONTINUOUS
100
AcDbLine
 10
2.6563256299212599
 20
-3.0617728346456694
 30
0
 11
2.6595187795275588
 21
-3.0639064173228348
 31
0
  0
LINE
  5
149
330
1A
100
AcDbEntity
  8
B.Paste
  6
CONTINUOUS
100
AcDbLine
 10
2.6595187795275588
 20
-3.0639064173228348
 30
0
 11
2.6616523622047246
 21
-3.0670995669291337
 31
0
  0
LINE
  5
14A
330
1A
100
AcDbEntity
  8
B.Paste
  6
CONTINUOUS
100
AcDbLine
 10
2.6616523622047246
 20
-3.0670995669291337
 30
0
 11
2.6624015748031495
 21
-3.0708661417322833
 31
0
  0
LINE
  5
14B
330
1A
100
AcDbEntity
  8
B.Paste
  6
CONTINUOUS
100
AcDbLine
 10
2.6624015748031495
 20
-3.0708661417322833
 30
0
 11
2.6624015748031495
 21
-3.090551181102362
 31
0
  0
LINE
  5
14C
330
1A
100
AcDbEntity
  8
B.Paste
  6
CONTINUOUS
100
AcDbLine
 10
2.6624015748031495
 20
-3.090551181102362
 30
0
 11
2.6616523622047246
 21
-3.0943177559055117
 31
0
  0
LINE
  5
14D
330
1A
100
AcDbEntity
  8
B.Paste
  6
CONTINUOUS
100
AcDbLine
 10
2.6616523622047246
 20
-3.0943177559055117
 30
0
 11
2.6595187795275588
 21
-3.0975109055118111
 31
0
  0
LINE
  5
14E
330
1A
100
AcDbEntity
  8
B.Paste
  6
CONTINUOUS
100
AcDbLine
 10
2.6595187795275588
 20
-3.0975109055118111
 30
0
 11
2.6563256299212599
 21
-3.0996444881889764
 31
0
  0
LINE
  5
14F
330
1A
100
AcDbEntity
  8
B.Paste
  6
CONTINUOUS
100
AcDbLine
 10
2.6563256299212599
 20
-3.0996444881889764
 30
0
 11
2.6525590551181102
 21
-3.1003937007874014
 31
0
  0
LINE
  5
150
330
1A
100
AcDbEntity
  8
B.Paste
  6
CONTINUOUS
100
AcDbLine
 10
2.6525590551181102
 20
-3.1003937007874014
 30
0
 11
2.6151574803149606
 21
-3.1003937007874014
 31
0
  0
LINE
  5
151
330
1A
100
AcDbEntity
  8
B.Paste
  6
CONTINUOUS
100
AcDbLine
 10
2.6151574803149606
 20
-3.1003937007874014
 30
0
 11
2.611390905511811
 21
-3.0996444881889764
 31
0
  0
LINE
  5
152
330
1A
100
AcDbEntity
  8
B.Paste
  6
CONTINUOUS
100
AcDbLine
 10
2.611390905511811
 20
-3.0996444881889764
 30
0
 11
2.6081977559055116
 21
-3.0975109055118111
 31
0
  0
LINE
  5
153
330
1A
100
AcDbEntity
  8
B.Paste
  6
CONTINUOUS
100
AcDbLine
 10
2.6081977559055116
 20
-3.0975109055118111
 30
0
 11
2.6060641732283463
 21
-3.0943177559055117
 31
0
  0
LINE
  5
154
330
1A
100
AcDbEntity
  8
B.Paste
  6
CONTINUOUS
100
AcDbLine
 10
2.6060641732283463
 20
-3.0943177559055117
 30
0
 11
2.6053149606299213
 21
-3.090551181102362
 31
0
  0
LINE
  5
155
330
1A
100
AcDbEntity
  8
B.Paste
  6
CONTINUOUS
100
AcDbLine
 10
2.6053149606299213
 20
-3.090551181102362
 30
0
 11
2.6053149606299213
 21
-3.0708661417322833
 31
0
  0
LINE
  5
156
330
1A
100
AcDbEntity
  8
B.Paste
  6
CONTINUOUS
100
AcDbLine
 10
2.6053149606299213
 20
-3.0708661417322833
 30
0
 11
2.6060641732283463
 21
-3.0670995669291337
 31
0
  0
LINE
  5
157
330
1A
100
AcDbEntity
  8
B.Paste
  6
CONTINUOUS
100
AcDbLine
 10
2.6060641732283463
 20
-3.0670995669291337
 30
0
 11
2.6081977559055116
 21
-3.0639064173228348
 31
0
  0
LINE
  5
158
330
1A
100
AcDbEntity
  8
B.Paste
  6
CONTINUOUS
100
AcDbLine
 10
2.6081977559055116
 20
-3.0639064173228348
 30
0
 11
2.611390905511811
 21
-3.0617728346456694
 31
0
  0
LINE
  5
159
330
1A
100
AcDbEntity
  8
B.Paste
  6
CONTINUOUS
100
AcDbLine
 10
2.611390905511811
 20
-3.0617728346456694
 30
0
 11
2.6151574803149606
 21
-3.061023622047244
 31
0
  0
LINE
  5
15A
330
1A
100
AcDbEntity
  8
B.Paste
  6
CONTINUOUS
100
AcDbLine
 10
2.6151574803149606
 20
-3.061023622047244
 30
0
 11
2.6525590551181102
 21
-3.061023622047244
 31
0
  0
LINE
  5
15B
330
1A
100
AcDbEntity
  8
B.Paste
  6
CONTINUOUS
100
AcDbLine
 10
2.6525590551181102
 20
-3.061023622047244
 30
0
 11
2.6563256299212599
 21
-3.0617728346456694
 31
0
  0
LINE
  5
15C
330
1A
100
AcDbEntity
  8
B.Paste
  6
CONTINUOUS
100
AcDbLine
 10
1.735578779527559
 20
-3.0624294881889762
 30
0
 11
1.7365367322834646
 21
-3.0630695669291339
 31
0
  0
LINE
  5
15D
330
1A
100
AcDbEntity
  8
B.Paste
  6
CONTINUOUS
100
AcDbLine
 10
1.7365367322834646
 20
-3.0630695669291339
 30
0
 11
1.7371768110236221
 21
-3.0640275196850393
 31
0
  0
LINE
  5
15E
330
1A
100
AcDbEntity
  8
B.Paste
  6
CONTINUOUS
100
AcDbLine
 10
1.7371768110236221
 20
-3.0640275196850393
 30
0
 11
1.7374015748031495
 21
-3.0651574803149604
 31
0
  0
LINE
  5
15F
330
1A
100
AcDbEntity
  8
B.Paste
  6
CONTINUOUS
100
AcDbLine
 10
1.7374015748031495
 20
-3.0651574803149604
 30
0
 11
1.7374015748031495
 21
-3.071062992125984
 31
0
  0
LINE
  5
160
330
1A
100
AcDbEntity
  8
B.Paste
  6
CONTINUOUS
100
AcDbLine
 10
1.7374015748031495
 20
-3.071062992125984
 30
0
 11
1.7371768110236221
 21
-3.0721929527559055
 31
0
  0
LINE
  5
161
330
1A
100
AcDbEntity
  8
B.Paste
  6
CONTINUOUS
100
AcDbLine
 10
1.7371768110236221
 20
-3.0721929527559055
 30
0
 11
1.7365367322834646
 21
-3.0731509055118109
 31
0
  0
LINE
  5
162
330
1A
100
AcDbEntity
  8
B.Paste
  6
CONTINUOUS
100
AcDbLine
 10
1.7365367322834646
 20
-3.0731509055118109
 30
0
 11
1.735578779527559
 21
-3.0737909842519686
 31
0
  0
LINE
  5
163
330
1A
100
AcDbEntity
  8
B.Paste
  6
CONTINUOUS
100
AcDbLine
 10
1.735578779527559
 20
-3.0737909842519686
 30
0
 11
1.7344488188976377
 21
-3.074015748031496
 31
0
  0
LINE
  5
164
330
1A
100
AcDbEntity
  8
B.Paste
  6
CONTINUOUS
100
AcDbLine
 10
1.7344488188976377
 20
-3.074015748031496
 30
0
 11
1.6950787401574803
 21
-3.074015748031496
 31
0
  0
LINE
  5
165
330
1A
100
AcDbEntity
  8
B.Paste
  6
CONTINUOUS
100
AcDbLine
 10
1.6950787401574803
 20
-3.074015748031496
 30
0
 11
1.693948779527559
 21
-3.0737909842519686
 31
0
  0
LINE
  5
166
330
1A
100
AcDbEntity
  8
B.Paste
  6
CONTINUOUS
100
AcDbLine
 10
1.693948779527559
 20
-3.0737909842519686
 30
0
 11
1.6929908267716536
 21
-3.0731509055118109
 31
0
  0
LINE
  5
167
330
1A
100
AcDbEntity
  8
B.Paste
  6
CONTINUOUS
100
AcDbLine
 10
1.6929908267716536
 20
-3.0731509055118109
 30
0
 11
1.6923507480314961
 21
-3.0721929527559055
 31
0
  0
LINE
  5
168
330
1A
100
AcDbEntity
  8
B.Paste
  6
CONTINUOUS
100
AcDbLine
 10
1.6923507480314961
 20
-3.0721929527559055
 30
0
 11
1.6921259842519685
 21
-3.071062992125984
 31
0
  0
LINE
  5
169
330
1A
100
AcDbEntity
  8
B.Paste
  6
CONTINUOUS
100
AcDbLine
 10
1.6921259842519685
 20
-3.071062992125984
 30
0
 11
1.6921259842519685
 21
-3.0651574803149604
 31
0
  0
LINE
  5
16A
330
1A
100
AcDbEntity
  8
B.Paste
  6
CONTINUOUS
100
AcDbLine
 10
1.6921259842519685
 20
-3.0651574803149604
 30
0
 11
1.6923507480314961
 21
-3.0640275196850393
 31
0
  0
LINE
  5
16B
330
1A
100
AcDbEntity
  8
B.Paste
  6
CONTINUOUS
100
AcDbLine
 10
1.6923507480314961
 20
-3.0640275196850393
 30
0
 11
1.6929908267716536
 21
-3.0630695669291339
 31
0
  0
LINE
  5
16C
330
1A
100
AcDbEntity
  8
B.Paste
  6
CONTINUOUS
100
AcDbLine
 10
1.6929908267716536
 20
-3.0630695669291339
 30
0
 11
1.693948779527559
 21
-3.0624294881889762
 31
0
  0
LINE
  5
16D
330
1A
100
AcDbEntity
  8
B.Paste
  6
CONTINUOUS
100
AcDbLine
 10
1.693948779527559
 20
-3.0624294881889762
 30
0
 11
1.6950787401574803
 21
-3.0622047244094488
 31
0
  0
LINE
  5
16E
330
1A
100
AcDbEntity
  8
B.Paste
  6
CONTINUOUS
100
AcDbLine
 10
1.6950787401574803
 20
-3.0622047244094488
 30
0
 11
1.7344488188976377
 21
-3.0622047244094488
 31
0
  0
LINE
  5
16F
330
1A
100
AcDbEntity
  8
B.Paste
  6
CONTINUOUS
100
AcDbLine
 10
1.7344488188976377
 20
-3.0622047244094488
 30
0
 11
1.735578779527559
 21
-3.0624294881889762
 31
0
  0
LINE
  5
170
330
1A
100
AcDbEntity
  8
B.Paste
  6
CONTINUOUS
100
AcDbLine
 10
1.735578779527559
 20
-3.0427444488188975
 30
0
 11
1.7365367322834646
 21
-3.0433845275590552
 31
0
  0
LINE
  5
171
330
1A
100
AcDbEntity
  8
B.Paste
  6
CONTINUOUS
100
AcDbLine
 10
1.7365367322834646
 20
-3.0433845275590552
 30
0
 11
1.7371768110236221
 21
-3.0443424803149606
 31
0
  0
LINE
  5
172
330
1A
100
AcDbEntity
  8
B.Paste
  6
CONTINUOUS
100
AcDbLine
 10
1.7371768110236221
 20
-3.0443424803149606
 30
0
 11
1.7374015748031495
 21
-3.0454724409448817
 31
0
  0
LINE
  5
173
330
1A
100
AcDbEntity
  8
B.Paste
  6
CONTINUOUS
100
AcDbLine
 10
1.7374015748031495
 20
-3.0454724409448817
 30
0
 11
1.7374015748031495
 21
-3.0513779527559053
 31
0
  0
LINE
  5
174
330
1A
100
AcDbEntity
  8
B.Paste
  6
CONTINUOUS
100
AcDbLine
 10
1.7374015748031495
 20
-3.0513779527559053
 30
0
 11
1.7371768110236221
 21
-3.0525079133858268
 31
0
  0
LINE
  5
175
330
1A
100
AcDbEntity
  8
B.Paste
  6
CONTINUOUS
100
AcDbLine
 10
1.7371768110236221
 20
-3.0525079133858268
 30
0
 11
1.7365367322834646
 21
-3.0534658661417322
 31
0
  0
LINE
  5
176
330
1A
100
AcDbEntity
  8
B.Paste
  6
CONTINUOUS
100
AcDbLine
 10
1.7365367322834646
 20
-3.0534658661417322
 30
0
 11
1.735578779527559
 21
-3.0541059448818899
 31
0
  0
LINE
  5
177
330
1A
100
AcDbEntity
  8
B.Paste
  6
CONTINUOUS
100
AcDbLine
 10
1.735578779527559
 20
-3.0541059448818899
 30
0
 11
1.7344488188976377
 21
-3.0543307086614173
 31
0
  0
LINE
  5
178
330
1A
100
AcDbEntity
  8
B.Paste
  6
CONTINUOUS
100
AcDbLine
 10
1.7344488188976377
 20
-3.0543307086614173
 30
0
 11
1.6950787401574803
 21
-3.0543307086614173
 31
0
  0
LINE
  5
179
330
1A
100
AcDbEntity
  8
B.Paste
  6
CONTINUOUS
100
AcDbLine
 10
1.6950787401574803
 20
-3.0543307086614173
 30
0
 11
1.693948779527559
 21
-3.0541059448818899
 31
0
  0
LINE
  5
17A
330
1A
100
AcDbEntity
  8
B.Paste
  6
CONTINUOUS
100
AcDbLine
 10
1.693948779527559
 20
-3.0541059448818899
 30
0
 11
1.6929908267716536
 21
-3.0534658661417322
 31
0
  0
LINE
  5
17B
330
1A
100
AcDbEntity
  8
B.Paste
  6
CONTINUOUS
100
AcDbLine
 10
1.6929908267716536
 20
-3.0534658661417322
 30
0
 11
1.6923507480314961
 21
-3.0525079133858268
 31
0
  0
LINE
  5
17C
330
1A
100
AcDbEntity
  8
B.Paste
  6
CONTINUOUS
100
AcDbLine
 10
1.6923507480314961
 20
-3.0525079133858268
 30
0
 11
1.6921259842519685
 21
-3.0513779527559053
 31
0
  0
LINE
  5
17D
330
1A
100
AcDbEntity
  8
B.Paste
  6
CONTINUOUS
100
AcDbLine
 10
1.6921259842519685
 20
-3.0513779527559053
 30
0
 11
1.6921259842519685
 21
-3.0454724409448817
 31
0
  0
LINE
  5
17E
330
1A
100
AcDbEntity
  8
B.Paste
  6
CONTINUOUS
100
AcDbLine
 10
1.6921259842519685
 20
-3.0454724409448817
 30
0
 11
1.6923507480314961
 21
-3.0443424803149606
 31
0
  0
LINE
  5
17F
330
1A
100
AcDbEntity
  8
B.Paste
  6
CONTINUOUS
100
AcDbLine
 10
1.6923507480314961
 20
-3.0443424803149606
 30
0
 11
1.6929908267716536
 21
-3.0433845275590552
 31
0
  0
LINE
  5
180
330
1A
100
AcDbEntity
  8
B.Paste
  6
CONTINUOUS
100
AcDbLine
 10
1.6929908267716536
 20
-3.0433845275590552
 30
0
 11
1.693948779527559
 21
-3.0427444488188975
 31
0
  0
LINE
  5
181
330
1A
100
AcDbEntity
  8
B.Paste
  6
CONTINUOUS
100
AcDbLine
 10
1.693948779527559
 20
-3.0427444488188975
 30
0
 11
1.6950787401574803
 21
-3.0425196850393701
 31
0
  0
LINE
  5
182
330
1A
100
AcDbEntity
  8
B.Paste
  6
CONTINUOUS
100
AcDbLine
 10
1.6950787401574803
 20
-3.0425196850393701
 30
0
 11
1.7344488188976377
 21
-3.0425196850393701
 31
0
  0
LINE
  5
183
330
1A
100
AcDbEntity
  8
B.Paste
  6
CONTINUOUS
100
AcDbLine
 10
1.7344488188976377
 20
-3.0425196850393701
 30
0
 11
1.735578779527559
 21
-3.0427444488188975
 31
0
  0
LINE
  5
184
330
1A
100
AcDbEntity
  8
B.Paste
  6
CONTINUOUS
100
AcDbLine
 10
1.919120905511811
 20
-2.985001181102362
 30
0
 11
1.9223140551181102
 21
-2.9871347637795274
 31
0
  0
LINE
  5
185
330
1A
100
AcDbEntity
  8
B.Paste
  6
CONTINUOUS
100
AcDbLine
 10
1.9223140551181102
 20
-2.9871347637795274
 30
0
 11
1.9244476377952755
 21
-2.9903279133858267
 31
0
  0
LINE
  5
186
330
1A
100
AcDbEntity
  8
B.Paste
  6
CONTINUOUS
100
AcDbLine
 10
1.9244476377952755
 20
-2.9903279133858267
 30
0
 11
1.9251968503937007
 21
-2.9940944881889764
 31
0
  0
LINE
  5
187
330
1A
100
AcDbEntity
  8
B.Paste
  6
CONTINUOUS
100
AcDbLine
 10
1.9251968503937007
 20
-2.9940944881889764
 30
0
 11
1.9251968503937007
 21
-3.0295275590551181
 31
0
  0
LINE
  5
188
330
1A
100
AcDbEntity
  8
B.Paste
  6
CONTINUOUS
100
AcDbLine
 10
1.9251968503937007
 20
-3.0295275590551181
 30
0
 11
1.9244476377952755
 21
-3.0332941338582677
 31
0
  0
LINE
  5
189
330
1A
100
AcDbEntity
  8
B.Paste
  6
CONTINUOUS
100
AcDbLine
 10
1.9244476377952755
 20
-3.0332941338582677
 30
0
 11
1.9223140551181102
 21
-3.0364872834645666
 31
0
  0
LINE
  5
18A
330
1A
100
AcDbEntity
  8
B.Paste
  6
CONTINUOUS
100
AcDbLine
 10
1.9223140551181102
 20
-3.0364872834645666
 30
0
 11
1.919120905511811
 21
-3.0386208661417324
 31
0
  0
LINE
  5
18B
330
1A
100
AcDbEntity
  8
B.Paste
  6
CONTINUOUS
100
AcDbLine
 10
1.919120905511811
 20
-3.0386208661417324
 30
0
 11
1.9153543307086613
 21
-3.0393700787401574
 31
0
  0
LINE
  5
18C
330
1A
100
AcDbEntity
  8
B.Paste
  6
CONTINUOUS
100
AcDbLine
 10
1.9153543307086613
 20
-3.0393700787401574
 30
0
 11
1.8946850393700787
 21
-3.0393700787401574
 31
0
  0
LINE
  5
18D
330
1A
100
AcDbEntity
  8
B.Paste
  6
CONTINUOUS
100
AcDbLine
 10
1.8946850393700787
 20
-3.0393700787401574
 30
0
 11
1.890918464566929
 21
-3.0386208661417324
 31
0
  0
LINE
  5
18E
330
1A
100
AcDbEntity
  8
B.Paste
  6
CONTINUOUS
100
AcDbLine
 10
1.890918464566929
 20
-3.0386208661417324
 30
0
 11
1.8877253149606299
 21
-3.0364872834645666
 31
0
  0
LINE
  5
18F
330
1A
100
AcDbEntity
  8
B.Paste
  6
CONTINUOUS
100
AcDbLine
 10
1.8877253149606299
 20
-3.0364872834645666
 30
0
 11
1.8855917322834645
 21
-3.0332941338582677
 31
0
  0
LINE
  5
190
330
1A
100
AcDbEntity
  8
B.Paste
  6
CONTINUOUS
100
AcDbLine
 10
1.8855917322834645
 20
-3.0332941338582677
 30
0
 11
1.8848425196850394
 21
-3.0295275590551181
 31
0
  0
LINE
  5
191
330
1A
100
AcDbEntity
  8
B.Paste
  6
CONTINUOUS
100
AcDbLine
 10
1.8848425196850394
 20
-3.0295275590551181
 30
0
 11
1.8848425196850394
 21
-2.9940944881889764
 31
0
  0
LINE
  5
192
330
1A
100
AcDbEntity
  8
B.Paste
  6
CONTINUOUS
100
AcDbLine
 10
1.8848425196850394
 20
-2.9940944881889764
 30
0
 11
1.8855917322834645
 21
-2.9903279133858267
 31
0
  0
LINE
  5
193
330
1A
100
AcDbEntity
  8
B.Paste
  6
CONTINUOUS
100
AcDbLine
 10
1.8855917322834645
 20
-2.9903279133858267
 30
0
 11
1.8877253149606299
 21
-2.9871347637795274
 31
0
  0
LINE
  5
194
330
1A
100
AcDbEntity
  8
B.Paste
  6
CONTINUOUS
100
AcDbLine
 10
1.8877253149606299
 20
-2.9871347637795274
 30
0
 11
1.890918464566929
 21
-2.985001181102362
 31
0
  0
LINE
  5
195
330
1A
100
AcDbEntity
  8
B.Paste
  6
CONTINUOUS
100
AcDbLine
 10
1.890918464566929
 20
-2.985001181102362
 30
0
 11
1.8946850393700787
 21
-2.984251968503937
 31
0
  0
LINE
  5
196
330
1A
100
AcDbEntity
  8
B.Paste
  6
CONTINUOUS
100
AcDbLine
 10
1.8946850393700787
 20
-2.984251968503937
 30
0
 11
1.9153543307086613
 21
-2.984251968503937
 31
0
  0
LINE
  5
197
330
1A
100
AcDbEntity
  8
B.Paste
  6
CONTINUOUS
100
AcDbLine
 10
1.9153543307086613
 20
-2.984251968503937
 30
0
 11
1.919120905511811
 21
-2.985001181102362
 31
0
  0
LINE
  5
198
330
1A
100
AcDbEntity
  8
B.Paste
  6
CONTINUOUS
100
AcDbLine
 10
1.9909712992125983
 20
-2.985001181102362
 30
0
 11
1.9941644488188977
 21
-2.9871347637795274
 31
0
  0
LINE
  5
199
330
1A
100
AcDbEntity
  8
B.Paste
  6
CONTINUOUS
100
AcDbLine
 10
1.9941644488188977
 20
-2.9871347637795274
 30
0
 11
1.996298031496063
 21
-2.9903279133858267
 31
0
  0
LINE
  5
19A
330
1A
100
AcDbEntity
  8
B.Paste
  6
CONTINUOUS
100
AcDbLine
 10
1.996298031496063
 20
-2.9903279133858267
 30
0
 11
1.9970472440944882
 21
-2.9940944881889764
 31
0
  0
LINE
  5
19B
330
1A
100
AcDbEntity
  8
B.Paste
  6
CONTINUOUS
100
AcDbLine
 10
1.9970472440944882
 20
-2.9940944881889764
 30
0
 11
1.9970472440944882
 21
-3.0295275590551181
 31
0
  0
LINE
  5
19C
330
1A
100
AcDbEntity
  8
B.Paste
  6
CONTINUOUS
100
AcDbLine
 10
1.9970472440944882
 20
-3.0295275590551181
 30
0
 11
1.996298031496063
 21
-3.0332941338582677
 31
0
  0
LINE
  5
19D
330
1A
100
AcDbEntity
  8
B.Paste
  6
CONTINUOUS
100
AcDbLine
 10
1.996298031496063
 20
-3.0332941338582677
 30
0
 11
1.9941644488188977
 21
-3.0364872834645666
 31
0
  0
LINE
  5
19E
330
1A
100
AcDbEntity
  8
B.Paste
  6
CONTINUOUS
100
AcDbLine
 10
1.9941644488188977
 20
-3.0364872834645666
 30
0
 11
1.9909712992125983
 21
-3.0386208661417324
 31
0
  0
LINE
  5
19F
330
1A
100
AcDbEntity
  8
B.Paste
  6
CONTINUOUS
100
AcDbLine
 10
1.9909712992125983
 20
-3.0386208661417324
 30
0
 11
1.9872047244094488
 21
-3.0393700787401574
 31
0
  0
LINE
  5
1A0
330
1A
100
AcDbEntity
  8
B.Paste
  6
CONTINUOUS
100
AcDbLine
 10
1.9872047244094488
 20
-3.0393700787401574
 30
0
 11
1.9665354330708662
 21
-3.0393700787401574
 31
0
  0
LINE
  5
1A1
330
1A
100
AcDbEntity
  8
B.Paste
  6
CONTINUOUS
100
AcDbLine
 10
1.9665354330708662
 20
-3.0393700787401574
 30
0
 11
1.9627688582677165
 21
-3.0386208661417324
 31
0
  0
LINE
  5
1A2
330
1A
100
AcDbEntity
  8
B.Paste
  6
CONTINUOUS
100
AcDbLine
 10
1.9627688582677165
 20
-3.0386208661417324
 30
0
 11
1.9595757086614172
 21
-3.0364872834645666
 31
0
  0
LINE
  5
1A3
330
1A
100
AcDbEntity
  8
B.Paste
  6
CONTINUOUS
100
AcDbLine
 10
1.9595757086614172
 20
-3.0364872834645666
 30
0
 11
1.9574421259842518
 21
-3.0332941338582677
 31
0
  0
LINE
  5
1A4
330
1A
100
AcDbEntity
  8
B.Paste
  6
CONTINUOUS
100
AcDbLine
 10
1.9574421259842518
 20
-3.0332941338582677
 30
0
 11
1.9566929133858266
 21
-3.0295275590551181
 31
0
  0
LINE
  5
1A5
330
1A
100
AcDbEntity
  8
B.Paste
  6
CONTINUOUS
100
AcDbLine
 10
1.9566929133858266
 20
-3.0295275590551181
 30
0
 11
1.9566929133858266
 21
-2.9940944881889764
 31
0
  0
LINE
  5
1A6
330
1A
100
AcDbEntity
  8
B.Paste
  6
CONTINUOUS
100
AcDbLine
 10
1.9566929133858266
 20
-2.9940944881889764
 30
0
 11
1.9574421259842518
 21
-2.9903279133858267
 31
0
  0
LINE
  5
1A7
330
1A
100
AcDbEntity
  8
B.Paste
  6
CONTINUOUS
100
AcDbLine
 10
1.9574421259842518
 20
-2.9903279133858267
 30
0
 11
1.9595757086614172
 21
-2.9871347637795274
 31
0
  0
LINE
  5
1A8
330
1A
100
AcDbEntity
  8
B.Paste
  6
CONTINUOUS
100
AcDbLine
 10
1.9595757086614172
 20
-2.9871347637795274
 30
0
 11
1.9627688582677165
 21
-2.985001181102362
 31
0
  0
LINE
  5
1A9
330
1A
100
AcDbEntity
  8
B.Paste
  6
CONTINUOUS
100
AcDbLine
 10
1.9627688582677165
 20
-2.985001181102362
 30
0
 11
1.9665354330708662
 21
-2.984251968503937
 31
0
  0
LINE
  5
1AA
330
1A
100
AcDbEntity
  8
B.Paste
  6
CONTINUOUS
100
AcDbLine
 10
1.9665354330708662
 20
-2.984251968503937
 30
0
 11
1.9872047244094488
 21
-2.984251968503937
 31
0
  0
LINE
  5
1AB
330
1A
100
AcDbEntity
  8
B.Paste
  6
CONTINUOUS
100
AcDbLine
 10
1.9872047244094488
 20
-2.984251968503937
 30
0
 11
1.9909712992125983
 21
-2.985001181102362
 31
0
  0
LINE
  5
1AC
330
1A
100
AcDbEntity
  8
B.Paste
  6
CONTINUOUS
100
AcDbLine
 10
1.735578779527559
 20
-3.0230594094488188
 30
0
 11
1.7365367322834646
 21
-3.0236994881889765
 31
0
  0
LINE
  5
1AD
330
1A
100
AcDbEntity
  8
B.Paste
  6
CONTINUOUS
100
AcDbLine
 10
1.7365367322834646
 20
-3.0236994881889765
 30
0
 11
1.7371768110236221
 21
-3.0246574409448819
 31
0
  0
LINE
  5
1AE
330
1A
100
AcDbEntity
  8
B.Paste
  6
CONTINUOUS
100
AcDbLine
 10
1.7371768110236221
 20
-3.0246574409448819
 30
0
 11
1.7374015748031495
 21
-3.025787401574803
 31
0
  0
LINE
  5
1AF
330
1A
100
AcDbEntity
  8
B.Paste
  6
CONTINUOUS
100
AcDbLine
 10
1.7374015748031495
 20
-3.025787401574803
 30
0
 11
1.7374015748031495
 21
-3.0316929133858266
 31
0
  0
LINE
  5
1B0
330
1A
100
AcDbEntity
  8
B.Paste
  6
CONTINUOUS
100
AcDbLine
 10
1.7374015748031495
 20
-3.0316929133858266
 30
0
 11
1.7371768110236221
 21
-3.0328228740157481
 31
0
  0
LINE
  5
1B1
330
1A
100
AcDbEntity
  8
B.Paste
  6
CONTINUOUS
100
AcDbLine
 10
1.7371768110236221
 20
-3.0328228740157481
 30
0
 11
1.7365367322834646
 21
-3.0337808267716535
 31
0
  0
LINE
  5
1B2
330
1A
100
AcDbEntity
  8
B.Paste
  6
CONTINUOUS
100
AcDbLine
 10
1.7365367322834646
 20
-3.0337808267716535
 30
0
 11
1.735578779527559
 21
-3.0344209055118108
 31
0
  0
LINE
  5
1B3
330
1A
100
AcDbEntity
  8
B.Paste
  6
CONTINUOUS
100
AcDbLine
 10
1.735578779527559
 20
-3.0344209055118108
 30
0
 11
1.7344488188976377
 21
-3.0346456692913386
 31
0
  0
LINE
  5
1B4
330
1A
100
AcDbEntity
  8
B.Paste
  6
CONTINUOUS
100
AcDbLine
 10
1.7344488188976377
 20
-3.0346456692913386
 30
0
 11
1.6950787401574803
 21
-3.0346456692913386
 31
0
  0
LINE
  5
1B5
330
1A
100
AcDbEntity
  8
B.Paste
  6
CONTINUOUS
100
AcDbLine
 10
1.6950787401574803
 20
-3.0346456692913386
 30
0
 11
1.693948779527559
 21
-3.0344209055118108
 31
0
  0
LINE
  5
1B6
330
1A
100
AcDbEntity
  8
B.Paste
  6
CONTINUOUS
100
AcDbLine
 10
1.693948779527559
 20
-3.0344209055118108
 30
0
 11
1.6929908267716536
 21
-3.0337808267716535
 31
0
  0
LINE
  5
1B7
330
1A
100
AcDbEntity
  8
B.Paste
  6
CONTINUOUS
100
AcDbLine
 10
1.6929908267716536
 20
-3.0337808267716535
 30
0
 11
1.6923507480314961
 21
-3.0328228740157481
 31
0
  0
LINE
  5
1B8
330
1A
100
AcDbEntity
  8
B.Paste
  6
CONTINUOUS
100
AcDbLine
 10
1.6923507480314961
 20
-3.0328228740157481
 30
0
 11
1.6921259842519685
 21
-3.0316929133858266
 31
0
  0
LINE
  5
1B9
330
1A
100
AcDbEntity
  8
B.Paste
  6
CONTINUOUS
100
AcDbLine
 10
1.6921259842519685
 20
-3.0316929133858266
 30
0
 11
1.6921259842519685
 21
-3.025787401574803
 31
0
  0
LINE
  5
1BA
330
1A
100
AcDbEntity
  8
B.Paste
  6
CONTINUOUS
100
AcDbLine
 10
1.6921259842519685
 20
-3.025787401574803
 30
0
 11
1.6923507480314961
 21
-3.0246574409448819
 31
0
  0
LINE
  5
1BB
330
1A
100
AcDbEntity
  8
B.Paste
  6
CONTINUOUS
100
AcDbLine
 10
1.6923507480314961
 20
-3.0246574409448819
 30
0
 11
1.6929908267716536
 21
-3.0236994881889765
 31
0
  0
LINE
  5
1BC
330
1A
100
AcDbEntity
  8
B.Paste
  6
CONTINUOUS
100
AcDbLine
 10
1.6929908267716536
 20
-3.0236994881889765
 30
0
 11
1.693948779527559
 21
-3.0230594094488188
 31
0
  0
LINE
  5
1BD
330
1A
100
AcDbEntity
  8
B.Paste
  6
CONTINUOUS
100
AcDbLine
 10
1.693948779527559
 20
-3.0230594094488188
 30
0
 11
1.6950787401574803
 21
-3.0228346456692914
 31
0
  0
LINE
  5
1BE
330
1A
100
AcDbEntity
  8
B.Paste
  6
CONTINUOUS
100
AcDbLine
 10
1.6950787401574803
 20
-3.0228346456692914
 30
0
 11
1.7344488188976377
 21
-3.0228346456692914
 31
0
  0
LINE
  5
1BF
330
1A
100
AcDbEntity
  8
B.Paste
  6
CONTINUOUS
100
AcDbLine
 10
1.7344488188976377
 20
-3.0228346456692914
 30
0
 11
1.735578779527559
 21
-3.0230594094488188
 31
0
  0
LINE
  5
1C0
330
1A
100
AcDbEntity
  8
B.Paste
  6
CONTINUOUS
100
AcDbLine
 10
3.340380748031496
 20
-2.9913988188976379
 30
0
 11
3.3435738976377953
 21
-2.9935324015748033
 31
0
  0
LINE
  5
1C1
330
1A
100
AcDbEntity
  8
B.Paste
  6
CONTINUOUS
100
AcDbLine
 10
3.3435738976377953
 20
-2.9935324015748033
 30
0
 11
3.3457074803149607
 21
-2.9967255511811022
 31
0
  0
LINE
  5
1C2
330
1A
100
AcDbEntity
  8
B.Paste
  6
CONTINUOUS
100
AcDbLine
 10
3.3457074803149607
 20
-2.9967255511811022
 30
0
 11
3.3464566929133857
 21
-3.0004921259842519
 31
0
  0
LINE
  5
1C3
330
1A
100
AcDbEntity
  8
B.Paste
  6
CONTINUOUS
100
AcDbLine
 10
3.3464566929133857
 20
-3.0004921259842519
 30
0
 11
3.3464566929133857
 21
-3.0211614173228347
 31
0
  0
LINE
  5
1C4
330
1A
100
AcDbEntity
  8
B.Paste
  6
CONTINUOUS
100
AcDbLine
 10
3.3464566929133857
 20
-3.0211614173228347
 30
0
 11
3.3457074803149607
 21
-3.0249279921259844
 31
0
  0
LINE
  5
1C5
330
1A
100
AcDbEntity
  8
B.Paste
  6
CONTINUOUS
100
AcDbLine
 10
3.3457074803149607
 20
-3.0249279921259844
 30
0
 11
3.3435738976377953
 21
-3.0281211417322833
 31
0
  0
LINE
  5
1C6
330
1A
100
AcDbEntity
  8
B.Paste
  6
CONTINUOUS
100
AcDbLine
 10
3.3435738976377953
 20
-3.0281211417322833
 30
0
 11
3.340380748031496
 21
-3.0302547244094487
 31
0
  0
LINE
  5
1C7
330
1A
100
AcDbEntity
  8
B.Paste
  6
CONTINUOUS
100
AcDbLine
 10
3.340380748031496
 20
-3.0302547244094487
 30
0
 11
3.3366141732283463
 21
-3.0310039370078741
 31
0
  0
LINE
  5
1C8
330
1A
100
AcDbEntity
  8
B.Paste
  6
CONTINUOUS
100
AcDbLine
 10
3.3366141732283463
 20
-3.0310039370078741
 30
0
 11
3.3011811023622046
 21
-3.0310039370078741
 31
0
  0
LINE
  5
1C9
330
1A
100
AcDbEntity
  8
B.Paste
  6
CONTINUOUS
100
AcDbLine
 10
3.3011811023622046
 20
-3.0310039370078741
 30
0
 11
3.297414527559055
 21
-3.0302547244094487
 31
0
  0
LINE
  5
1CA
330
1A
100
AcDbEntity
  8
B.Paste
  6
CONTINUOUS
100
AcDbLine
 10
3.297414527559055
 20
-3.0302547244094487
 30
0
 11
3.294221377952756
 21
-3.0281211417322833
 31
0
  0
LINE
  5
1CB
330
1A
100
AcDbEntity
  8
B.Paste
  6
CONTINUOUS
100
AcDbLine
 10
3.294221377952756
 20
-3.0281211417322833
 30
0
 11
3.2920877952755903
 21
-3.0249279921259844
 31
0
  0
LINE
  5
1CC
330
1A
100
AcDbEntity
  8
B.Paste
  6
CONTINUOUS
100
AcDbLine
 10
3.2920877952755903
 20
-3.0249279921259844
 30
0
 11
3.2913385826771653
 21
-3.0211614173228347
 31
0
  0
LINE
  5
1CD
330
1A
100
AcDbEntity
  8
B.Paste
  6
CONTINUOUS
100
AcDbLine
 10
3.2913385826771653
 20
-3.0211614173228347
 30
0
 11
3.2913385826771653
 21
-3.0004921259842519
 31
0
  0
LINE
  5
1CE
330
1A
100
AcDbEntity
  8
B.Paste
  6
CONTINUOUS
100
AcDbLine
 10
3.2913385826771653
 20
-3.0004921259842519
 30
0
 11
3.2920877952755903
 21
-2.9967255511811022
 31
0
  0
LINE
  5
1CF
330
1A
100
AcDbEntity
  8
B.Paste
  6
CONTINUOUS
100
AcDbLine
 10
3.2920877952755903
 20
-2.9967255511811022
 30
0
 11
3.294221377952756
 21
-2.9935324015748033
 31
0
  0
LINE
  5
1D0
330
1A
100
AcDbEntity
  8
B.Paste
  6
CONTINUOUS
100
AcDbLine
 10
3.294221377952756
 20
-2.9935324015748033
 30
0
 11
3.297414527559055
 21
-2.9913988188976379
 31
0
  0
LINE
  5
1D1
330
1A
100
AcDbEntity
  8
B.Paste
  6
CONTINUOUS
100
AcDbLine
 10
3.297414527559055
 20
-2.9913988188976379
 30
0
 11
3.3011811023622046
 21
-2.9906496062992125
 31
0
  0
LINE
  5
1D2
330
1A
100
AcDbEntity
  8
B.Paste
  6
CONTINUOUS
100
AcDbLine
 10
3.3011811023622046
 20
-2.9906496062992125
 30
0
 11
3.3366141732283463
 21
-2.9906496062992125
 31
0
  0
LINE
  5
1D3
330
1A
100
AcDbEntity
  8
B.Paste
  6
CONTINUOUS
100
AcDbLine
 10
3.3366141732283463
 20
-2.9906496062992125
 30
0
 11
3.340380748031496
 21
-2.9913988188976379
 31
0
  0
LINE
  5
1D4
330
1A
100
AcDbEntity
  8
B.Paste
  6
CONTINUOUS
100
AcDbLine
 10
2.6563256299212599
 20
-2.9869696850393699
 30
0
 11
2.6595187795275588
 21
-2.9891032677165352
 31
0
  0
LINE
  5
1D5
330
1A
100
AcDbEntity
  8
B.Paste
  6
CONTINUOUS
100
AcDbLine
 10
2.6595187795275588
 20
-2.9891032677165352
 30
0
 11
2.6616523622047246
 21
-2.9922964173228346
 31
0
  0
LINE
  5
1D6
330
1A
100
AcDbEntity
  8
B.Paste
  6
CONTINUOUS
100
AcDbLine
 10
2.6616523622047246
 20
-2.9922964173228346
 30
0
 11
2.6624015748031495
 21
-2.9960629921259843
 31
0
  0
LINE
  5
1D7
330
1A
100
AcDbEntity
  8
B.Paste
  6
CONTINUOUS
100
AcDbLine
 10
2.6624015748031495
 20
-2.9960629921259843
 30
0
 11
2.6624015748031495
 21
-3.015748031496063
 31
0
  0
LINE
  5
1D8
330
1A
100
AcDbEntity
  8
B.Paste
  6
CONTINUOUS
100
AcDbLine
 10
2.6624015748031495
 20
-3.015748031496063
 30
0
 11
2.6616523622047246
 21
-3.0195146062992126
 31
0
  0
LINE
  5
1D9
330
1A
100
AcDbEntity
  8
B.Paste
  6
CONTINUOUS
100
AcDbLine
 10
2.6616523622047246
 20
-3.0195146062992126
 30
0
 11
2.6595187795275588
 21
-3.0227077559055116
 31
0
  0
LINE
  5
1DA
330
1A
100
AcDbEntity
  8
B.Paste
  6
CONTINUOUS
100
AcDbLine
 10
2.6595187795275588
 20
-3.0227077559055116
 30
0
 11
2.6563256299212599
 21
-3.0248413385826769
 31
0
  0
LINE
  5
1DB
330
1A
100
AcDbEntity
  8
B.Paste
  6
CONTINUOUS
100
AcDbLine
 10
2.6563256299212599
 20
-3.0248413385826769
 30
0
 11
2.6525590551181102
 21
-3.0255905511811023
 31
0
  0
LINE
  5
1DC
330
1A
100
AcDbEntity
  8
B.Paste
  6
CONTINUOUS
100
AcDbLine
 10
2.6525590551181102
 20
-3.0255905511811023
 30
0
 11
2.6151574803149606
 21
-3.0255905511811023
 31
0
  0
LINE
  5
1DD
330
1A
100
AcDbEntity
  8
B.Paste
  6
CONTINUOUS
100
AcDbLine
 10
2.6151574803149606
 20
-3.0255905511811023
 30
0
 11
2.611390905511811
 21
-3.0248413385826769
 31
0
  0
LINE
  5
1DE
330
1A
100
AcDbEntity
  8
B.Paste
  6
CONTINUOUS
100
AcDbLine
 10
2.611390905511811
 20
-3.0248413385826769
 30
0
 11
2.6081977559055116
 21
-3.0227077559055116
 31
0
  0
LINE
  5
1DF
330
1A
100
AcDbEntity
  8
B.Paste
  6
CONTINUOUS
100
AcDbLine
 10
2.6081977559055116
 20
-3.0227077559055116
 30
0
 11
2.6060641732283463
 21
-3.0195146062992126
 31
0
  0
LINE
  5
1E0
330
1A
100
AcDbEntity
  8
B.Paste
  6
CONTINUOUS
100
AcDbLine
 10
2.6060641732283463
 20
-3.0195146062992126
 30
0
 11
2.6053149606299213
 21
-3.015748031496063
 31
0
  0
LINE
  5
1E1
330
1A
100
AcDbEntity
  8
B.Paste
  6
CONTINUOUS
100
AcDbLine
 10
2.6053149606299213
 20
-3.015748031496063
 30
0
 11
2.6053149606299213
 21
-2.9960629921259843
 31
0
  0
LINE
  5
1E2
330
1A
100
AcDbEntity
  8
B.Paste
  6
CONTINUOUS
100
AcDbLine
 10
2.6053149606299213
 20
-2.9960629921259843
 30
0
 11
2.6060641732283463
 21
-2.9922964173228346
 31
0
  0
LINE
  5
1E3
330
1A
100
AcDbEntity
  8
B.Paste
  6
CONTINUOUS
100
AcDbLine
 10
2.6060641732283463
 20
-2.9922964173228346
 30
0
 11
2.6081977559055116
 21
-2.9891032677165352
 31
0
  0
LINE
  5
1E4
330
1A
100
AcDbEntity
  8
B.Paste
  6
CONTINUOUS
100
AcDbLine
 10
2.6081977559055116
 20
-2.9891032677165352
 30
0
 11
2.611390905511811
 21
-2.9869696850393699
 31
0
  0
LINE
  5
1E5
330
1A
100
AcDbEntity
  8
B.Paste
  6
CONTINUOUS
100
AcDbLine
 10
2.611390905511811
 20
-2.9869696850393699
 30
0
 11
2.6151574803149606
 21
-2.9862204724409449
 31
0
  0
LINE
  5
1E6
330
1A
100
AcDbEntity
  8
B.Paste
  6
CONTINUOUS
100
AcDbLine
 10
2.6151574803149606
 20
-2.9862204724409449
 30
0
 11
2.6525590551181102
 21
-2.9862204724409449
 31
0
  0
LINE
  5
1E7
330
1A
100
AcDbEntity
  8
B.Paste
  6
CONTINUOUS
100
AcDbLine
 10
2.6525590551181102
 20
-2.9862204724409449
 30
0
 11
2.6563256299212599
 21
-2.9869696850393699
 31
0
  0
LINE
  5
1E8
330
1A
100
AcDbEntity
  8
B.Paste
  6
CONTINUOUS
100
AcDbLine
 10
1.735578779527559
 20
-3.0033743700787401
 30
0
 11
1.7365367322834646
 21
-3.0040144488188978
 31
0
  0
LINE
  5
1E9
330
1A
100
AcDbEntity
  8
B.Paste
  6
CONTINUOUS
100
AcDbLine
 10
1.7365367322834646
 20
-3.0040144488188978
 30
0
 11
1.7371768110236221
 21
-3.0049724015748032
 31
0
  0
LINE
  5
1EA
330
1A
100
AcDbEntity
  8
B.Paste
  6
CONTINUOUS
100
AcDbLine
 10
1.7371768110236221
 20
-3.0049724015748032
 30
0
 11
1.7374015748031495
 21
-3.0061023622047243
 31
0
  0
LINE
  5
1EB
330
1A
100
AcDbEntity
  8
B.Paste
  6
CONTINUOUS
100
AcDbLine
 10
1.7374015748031495
 20
-3.0061023622047243
 30
0
 11
1.7374015748031495
 21
-3.0120078740157479
 31
0
  0
LINE
  5
1EC
330
1A
100
AcDbEntity
  8
B.Paste
  6
CONTINUOUS
100
AcDbLine
 10
1.7374015748031495
 20
-3.0120078740157479
 30
0
 11
1.7371768110236221
 21
-3.0131378346456694
 31
0
  0
LINE
  5
1ED
330
1A
100
AcDbEntity
  8
B.Paste
  6
CONTINUOUS
100
AcDbLine
 10
1.7371768110236221
 20
-3.0131378346456694
 30
0
 11
1.7365367322834646
 21
-3.0140957874015748
 31
0
  0
LINE
  5
1EE
330
1A
100
AcDbEntity
  8
B.Paste
  6
CONTINUOUS
100
AcDbLine
 10
1.7365367322834646
 20
-3.0140957874015748
 30
0
 11
1.735578779527559
 21
-3.0147358661417321
 31
0
  0
LINE
  5
1EF
330
1A
100
AcDbEntity
  8
B.Paste
  6
CONTINUOUS
100
AcDbLine
 10
1.735578779527559
 20
-3.0147358661417321
 30
0
 11
1.7344488188976377
 21
-3.0149606299212599
 31
0
  0
LINE
  5
1F0
330
1A
100
AcDbEntity
  8
B.Paste
  6
CONTINUOUS
100
AcDbLine
 10
1.7344488188976377
 20
-3.0149606299212599
 30
0
 11
1.6950787401574803
 21
-3.0149606299212599
 31
0
  0
LINE
  5
1F1
330
1A
100
AcDbEntity
  8
B.Paste
  6
CONTINUOUS
100
AcDbLine
 10
1.6950787401574803
 20
-3.0149606299212599
 30
0
 11
1.693948779527559
 21
-3.0147358661417321
 31
0
  0
LINE
  5
1F2
330
1A
100
AcDbEntity
  8
B.Paste
  6
CONTINUOUS
100
AcDbLine
 10
1.693948779527559
 20
-3.0147358661417321
 30
0
 11
1.6929908267716536
 21
-3.0140957874015748
 31
0
  0
LINE
  5
1F3
330
1A
100
AcDbEntity
  8
B.Paste
  6
CONTINUOUS
100
AcDbLine
 10
1.6929908267716536
 20
-3.0140957874015748
 30
0
 11
1.6923507480314961
 21
-3.0131378346456694
 31
0
  0
LINE
  5
1F4
330
1A
100
AcDbEntity
  8
B.Paste
  6
CONTINUOUS
100
AcDbLine
 10
1.6923507480314961
 20
-3.0131378346456694
 30
0
 11
1.6921259842519685
 21
-3.0120078740157479
 31
0
  0
LINE
  5
1F5
330
1A
100
AcDbEntity
  8
B.Paste
  6
CONTINUOUS
100
AcDbLine
 10
1.6921259842519685
 20
-3.0120078740157479
 30
0
 11
1.6921259842519685
 21
-3.0061023622047243
 31
0
  0
LINE
  5
1F6
330
1A
100
AcDbEntity
  8
B.Paste
  6
CONTINUOUS
100
AcDbLine
 10
1.6921259842519685
 20
-3.0061023622047243
 30
0
 11
1.6923507480314961
 21
-3.0049724015748032
 31
0
  0
LINE
  5
1F7
330
1A
100
AcDbEntity
  8
B.Paste
  6
CONTINUOUS
100
AcDbLine
 10
1.6923507480314961
 20
-3.0049724015748032
 30
0
 11
1.6929908267716536
 21
-3.0040144488188978
 31
0
  0
LINE
  5
1F8
330
1A
100
AcDbEntity
  8
B.Paste
  6
CONTINUOUS
100
AcDbLine
 10
1.6929908267716536
 20
-3.0040144488188978
 30
0
 11
1.693948779527559
 21
-3.0033743700787401
 31
0
  0
LINE
  5
1F9
330
1A
100
AcDbEntity
  8
B.Paste
  6
CONTINUOUS
100
AcDbLine
 10
1.693948779527559
 20
-3.0033743700787401
 30
0
 11
1.6950787401574803
 21
-3.0031496062992127
 31
0
  0
LINE
  5
1FA
330
1A
100
AcDbEntity
  8
B.Paste
  6
CONTINUOUS
100
AcDbLine
 10
1.6950787401574803
 20
-3.0031496062992127
 30
0
 11
1.7344488188976377
 21
-3.0031496062992127
 31
0
  0
LINE
  5
1FB
330
1A
100
AcDbEntity
  8
B.Paste
  6
CONTINUOUS
100
AcDbLine
 10
1.7344488188976377
 20
-3.0031496062992127
 30
0
 11
1.735578779527559
 21
-3.0033743700787401
 31
0
  0
LINE
  5
1FC
330
1A
100
AcDbEntity
  8
B.Paste
  6
CONTINUOUS
100
AcDbLine
 10
1.735578779527559
 20
-2.9836893307086614
 30
0
 11
1.7365367322834646
 21
-2.9843294094488186
 31
0
  0
LINE
  5
1FD
330
1A
100
AcDbEntity
  8
B.Paste
  6
CONTINUOUS
100
AcDbLine
 10
1.7365367322834646
 20
-2.9843294094488186
 30
0
 11
1.7371768110236221
 21
-2.9852873622047245
 31
0
  0
LINE
  5
1FE
330
1A
100
AcDbEntity
  8
B.Paste
  6
CONTINUOUS
100
AcDbLine
 10
1.7371768110236221
 20
-2.9852873622047245
 30
0
 11
1.7374015748031495
 21
-2.9864173228346456
 31
0
  0
LINE
  5
1FF
330
1A
100
AcDbEntity
  8
B.Paste
  6
CONTINUOUS
100
AcDbLine
 10
1.7374015748031495
 20
-2.9864173228346456
 30
0
 11
1.7374015748031495
 21
-2.9923228346456692
 31
0
  0
LINE
  5
200
330
1A
100
AcDbEntity
  8
B.Paste
  6
CONTINUOUS
100
AcDbLine
 10
1.7374015748031495
 20
-2.9923228346456692
 30
0
 11
1.7371768110236221
 21
-2.9934527952755903
 31
0
  0
LINE
  5
201
330
1A
100
AcDbEntity
  8
B.Paste
  6
CONTINUOUS
100
AcDbLine
 10
1.7371768110236221
 20
-2.9934527952755903
 30
0
 11
1.7365367322834646
 21
-2.9944107480314961
 31
0
  0
LINE
  5
202
330
1A
100
AcDbEntity
  8
B.Paste
  6
CONTINUOUS
100
AcDbLine
 10
1.7365367322834646
 20
-2.9944107480314961
 30
0
 11
1.735578779527559
 21
-2.9950508267716534
 31
0
  0
LINE
  5
203
330
1A
100
AcDbEntity
  8
B.Paste
  6
CONTINUOUS
100
AcDbLine
 10
1.735578779527559
 20
-2.9950508267716534
 30
0
 11
1.7344488188976377
 21
-2.9952755905511812
 31
0
  0
LINE
  5
204
330
1A
100
AcDbEntity
  8
B.Paste
  6
CONTINUOUS
100
AcDbLine
 10
1.7344488188976377
 20
-2.9952755905511812
 30
0
 11
1.6950787401574803
 21
-2.9952755905511812
 31
0
  0
LINE
  5
205
330
1A
100
AcDbEntity
  8
B.Paste
  6
CONTINUOUS
100
AcDbLine
 10
1.6950787401574803
 20
-2.9952755905511812
 30
0
 11
1.693948779527559
 21
-2.9950508267716534
 31
0
  0
LINE
  5
206
330
1A
100
AcDbEntity
  8
B.Paste
  6
CONTINUOUS
100
AcDbLine
 10
1.693948779527559
 20
-2.9950508267716534
 30
0
 11
1.6929908267716536
 21
-2.9944107480314961
 31
0
  0
LINE
  5
207
330
1A
100
AcDbEntity
  8
B.Paste
  6
CONTINUOUS
100
AcDbLine
 10
1.6929908267716536
 20
-2.9944107480314961
 30
0
 11
1.6923507480314961
 21
-2.9934527952755903
 31
0
  0
LINE
  5
208
330
1A
100
AcDbEntity
  8
B.Paste
  6
CONTINUOUS
100
AcDbLine
 10
1.6923507480314961
 20
-2.9934527952755903
 30
0
 11
1.6921259842519685
 21
-2.9923228346456692
 31
0
  0
LINE
  5
209
330
1A
100
AcDbEntity
  8
B.Paste
  6
CONTINUOUS
100
AcDbLine
 10
1.6921259842519685
 20
-2.9923228346456692
 30
0
 11
1.6921259842519685
 21
-2.9864173228346456
 31
0
  0
LINE
  5
20A
330
1A
100
AcDbEntity
  8
B.Paste
  6
CONTINUOUS
100
AcDbLine
 10
1.6921259842519685
 20
-2.9864173228346456
 30
0
 11
1.6923507480314961
 21
-2.9852873622047245
 31
0
  0
LINE
  5
20B
330
1A
100
AcDbEntity
  8
B.Paste
  6
CONTINUOUS
100
AcDbLine
 10
1.6923507480314961
 20
-2.9852873622047245
 30
0
 11
1.6929908267716536
 21
-2.9843294094488186
 31
0
  0
LINE
  5
20C
330
1A
100
AcDbEntity
  8
B.Paste
  6
CONTINUOUS
100
AcDbLine
 10
1.6929908267716536
 20
-2.9843294094488186
 30
0
 11
1.693948779527559
 21
-2.9836893307086614
 31
0
  0
LINE
  5
20D
330
1A
100
AcDbEntity
  8
B.Paste
  6
CONTINUOUS
100
AcDbLine
 10
1.693948779527559
 20
-2.9836893307086614
 30
0
 11
1.6950787401574803
 21
-2.983464566929134
 31
0
  0
LINE
  5
20E
330
1A
100
AcDbEntity
  8
B.Paste
  6
CONTINUOUS
100
AcDbLine
 10
1.6950787401574803
 20
-2.983464566929134
 30
0
 11
1.7344488188976377
 21
-2.983464566929134
 31
0
  0
LINE
  5
20F
330
1A
100
AcDbEntity
  8
B.Paste
  6
CONTINUOUS
100
AcDbLine
 10
1.7344488188976377
 20
-2.983464566929134
 30
0
 11
1.735578779527559
 21
-2.9836893307086614
 31
0
  0
LINE
  5
210
330
1A
100
AcDbEntity
  8
B.Paste
  6
CONTINUOUS
100
AcDbLine
 10
1.735578779527559
 20
-2.9640042913385827
 30
0
 11
1.7365367322834646
 21
-2.9646443700787399
 31
0
  0
LINE
  5
211
330
1A
100
AcDbEntity
  8
B.Paste
  6
CONTINUOUS
100
AcDbLine
 10
1.7365367322834646
 20
-2.9646443700787399
 30
0
 11
1.7371768110236221
 21
-2.9656023228346458
 31
0
  0
LINE
  5
212
330
1A
100
AcDbEntity
  8
B.Paste
  6
CONTINUOUS
100
AcDbLine
 10
1.7371768110236221
 20
-2.9656023228346458
 30
0
 11
1.7374015748031495
 21
-2.9667322834645669
 31
0
  0
LINE
  5
213
330
1A
100
AcDbEntity
  8
B.Paste
  6
CONTINUOUS
100
AcDbLine
 10
1.7374015748031495
 20
-2.9667322834645669
 30
0
 11
1.7374015748031495
 21
-2.9726377952755905
 31
0
  0
LINE
  5
214
330
1A
100
AcDbEntity
  8
B.Paste
  6
CONTINUOUS
100
AcDbLine
 10
1.7374015748031495
 20
-2.9726377952755905
 30
0
 11
1.7371768110236221
 21
-2.9737677559055116
 31
0
  0
LINE
  5
215
330
1A
100
AcDbEntity
  8
B.Paste
  6
CONTINUOUS
100
AcDbLine
 10
1.7371768110236221
 20
-2.9737677559055116
 30
0
 11
1.7365367322834646
 21
-2.9747257086614174
 31
0
  0
LINE
  5
216
330
1A
100
AcDbEntity
  8
B.Paste
  6
CONTINUOUS
100
AcDbLine
 10
1.7365367322834646
 20
-2.9747257086614174
 30
0
 11
1.735578779527559
 21
-2.9753657874015746
 31
0
  0
LINE
  5
217
330
1A
100
AcDbEntity
  8
B.Paste
  6
CONTINUOUS
100
AcDbLine
 10
1.735578779527559
 20
-2.9753657874015746
 30
0
 11
1.7344488188976377
 21
-2.9755905511811025
 31
0
  0
LINE
  5
218
330
1A
100
AcDbEntity
  8
B.Paste
  6
CONTINUOUS
100
AcDbLine
 10
1.7344488188976377
 20
-2.9755905511811025
 30
0
 11
1.6950787401574803
 21
-2.9755905511811025
 31
0
  0
LINE
  5
219
330
1A
100
AcDbEntity
  8
B.Paste
  6
CONTINUOUS
100
AcDbLine
 10
1.6950787401574803
 20
-2.9755905511811025
 30
0
 11
1.693948779527559
 21
-2.9753657874015746
 31
0
  0
LINE
  5
21A
330
1A
100
AcDbEntity
  8
B.Paste
  6
CONTINUOUS
100
AcDbLine
 10
1.693948779527559
 20
-2.9753657874015746
 30
0
 11
1.6929908267716536
 21
-2.9747257086614174
 31
0
  0
LINE
  5
21B
330
1A
100
AcDbEntity
  8
B.Paste
  6
CONTINUOUS
100
AcDbLine
 10
1.6929908267716536
 20
-2.9747257086614174
 30
0
 11
1.6923507480314961
 21
-2.9737677559055116
 31
0
  0
LINE
  5
21C
330
1A
100
AcDbEntity
  8
B.Paste
  6
CONTINUOUS
100
AcDbLine
 10
1.6923507480314961
 20
-2.9737677559055116
 30
0
 11
1.6921259842519685
 21
-2.9726377952755905
 31
0
  0
LINE
  5
21D
330
1A
100
AcDbEntity
  8
B.Paste
  6
CONTINUOUS
100
AcDbLine
 10
1.6921259842519685
 20
-2.9726377952755905
 30
0
 11
1.6921259842519685
 21
-2.9667322834645669
 31
0
  0
LINE
  5
21E
330
1A
100
AcDbEntity
  8
B.Paste
  6
CONTINUOUS
100
AcDbLine
 10
1.6921259842519685
 20
-2.9667322834645669
 30
0
 11
1.6923507480314961
 21
-2.9656023228346458
 31
0
  0
LINE
  5
21F
330
1A
100
AcDbEntity
  8
B.Paste
  6
CONTINUOUS
100
AcDbLine
 10
1.6923507480314961
 20
-2.9656023228346458
 30
0
 11
1.6929908267716536
 21
-2.9646443700787399
 31
0
  0
LINE
  5
220
330
1A
100
AcDbEntity
  8
B.Paste
  6
CONTINUOUS
100
AcDbLine
 10
1.6929908267716536
 20
-2.9646443700787399
 30
0
 11
1.693948779527559
 21
-2.9640042913385827
 31
0
  0
LINE
  5
221
330
1A
100
AcDbEntity
  8
B.Paste
  6
CONTINUOUS
100
AcDbLine
 10
1.693948779527559
 20
-2.9640042913385827
 30
0
 11
1.6950787401574803
 21
-2.9637795275590553
 31
0
  0
LINE
  5
222
330
1A
100
AcDbEntity
  8
B.Paste
  6
CONTINUOUS
100
AcDbLine
 10
1.6950787401574803
 20
-2.9637795275590553
 30
0
 11
1.7344488188976377
 21
-2.9637795275590553
 31
0
  0
LINE
  5
223
330
1A
100
AcDbEntity
  8
B.Paste
  6
CONTINUOUS
100
AcDbLine
 10
1.7344488188976377
 20
-2.9637795275590553
 30
0
 11
1.735578779527559
 21
-2.9640042913385827
 31
0
  0
LINE
  5
224
330
1A
100
AcDbEntity
  8
B.Paste
  6
CONTINUOUS
100
AcDbLine
 10
1.735578779527559
 20
-2.944319251968504
 30
0
 11
1.7365367322834646
 21
-2.9449593307086612
 31
0
  0
LINE
  5
225
330
1A
100
AcDbEntity
  8
B.Paste
  6
CONTINUOUS
100
AcDbLine
 10
1.7365367322834646
 20
-2.9449593307086612
 30
0
 11
1.7371768110236221
 21
-2.945917283464567
 31
0
  0
LINE
  5
226
330
1A
100
AcDbEntity
  8
B.Paste
  6
CONTINUOUS
100
AcDbLine
 10
1.7371768110236221
 20
-2.945917283464567
 30
0
 11
1.7374015748031495
 21
-2.9470472440944881
 31
0
  0
LINE
  5
227
330
1A
100
AcDbEntity
  8
B.Paste
  6
CONTINUOUS
100
AcDbLine
 10
1.7374015748031495
 20
-2.9470472440944881
 30
0
 11
1.7374015748031495
 21
-2.9529527559055118
 31
0
  0
LINE
  5
228
330
1A
100
AcDbEntity
  8
B.Paste
  6
CONTINUOUS
100
AcDbLine
 10
1.7374015748031495
 20
-2.9529527559055118
 30
0
 11
1.7371768110236221
 21
-2.9540827165354329
 31
0
  0
LINE
  5
229
330
1A
100
AcDbEntity
  8
B.Paste
  6
CONTINUOUS
100
AcDbLine
 10
1.7371768110236221
 20
-2.9540827165354329
 30
0
 11
1.7365367322834646
 21
-2.9550406692913387
 31
0
  0
LINE
  5
22A
330
1A
100
AcDbEntity
  8
B.Paste
  6
CONTINUOUS
100
AcDbLine
 10
1.7365367322834646
 20
-2.9550406692913387
 30
0
 11
1.735578779527559
 21
-2.9556807480314959
 31
0
  0
LINE
  5
22B
330
1A
100
AcDbEntity
  8
B.Paste
  6
CONTINUOUS
100
AcDbLine
 10
1.735578779527559
 20
-2.9556807480314959
 30
0
 11
1.7344488188976377
 21
-2.9559055118110233
 31
0
  0
LINE
  5
22C
330
1A
100
AcDbEntity
  8
B.Paste
  6
CONTINUOUS
100
AcDbLine
 10
1.7344488188976377
 20
-2.9559055118110233
 30
0
 11
1.6950787401574803
 21
-2.9559055118110233
 31
0
  0
LINE
  5
22D
330
1A
100
AcDbEntity
  8
B.Paste
  6
CONTINUOUS
100
AcDbLine
 10
1.6950787401574803
 20
-2.9559055118110233
 30
0
 11
1.693948779527559
 21
-2.9556807480314959
 31
0
  0
LINE
  5
22E
330
1A
100
AcDbEntity
  8
B.Paste
  6
CONTINUOUS
100
AcDbLine
 10
1.693948779527559
 20
-2.9556807480314959
 30
0
 11
1.6929908267716536
 21
-2.9550406692913387
 31
0
  0
LINE
  5
22F
330
1A
100
AcDbEntity
  8
B.Paste
  6
CONTINUOUS
100
AcDbLine
 10
1.6929908267716536
 20
-2.9550406692913387
 30
0
 11
1.6923507480314961
 21
-2.9540827165354329
 31
0
  0
LINE
  5
230
330
1A
100
AcDbEntity
  8
B.Paste
  6
CONTINUOUS
100
AcDbLine
 10
1.6923507480314961
 20
-2.9540827165354329
 30
0
 11
1.6921259842519685
 21
-2.9529527559055118
 31
0
  0
LINE
  5
231
330
1A
100
AcDbEntity
  8
B.Paste
  6
CONTINUOUS
100
AcDbLine
 10
1.6921259842519685
 20
-2.9529527559055118
 30
0
 11
1.6921259842519685
 21
-2.9470472440944881
 31
0
  0
LINE
  5
232
330
1A
100
AcDbEntity
  8
B.Paste
  6
CONTINUOUS
100
AcDbLine
 10
1.6921259842519685
 20
-2.9470472440944881
 30
0
 11
1.6923507480314961
 21
-2.945917283464567
 31
0
  0
LINE
  5
233
330
1A
100
AcDbEntity
  8
B.Paste
  6
CONTINUOUS
100
AcDbLine
 10
1.6923507480314961
 20
-2.945917283464567
 30
0
 11
1.6929908267716536
 21
-2.9449593307086612
 31
0
  0
LINE
  5
234
330
1A
100
AcDbEntity
  8
B.Paste
  6
CONTINUOUS
100
AcDbLine
 10
1.6929908267716536
 20
-2.9449593307086612
 30
0
 11
1.693948779527559
 21
-2.944319251968504
 31
0
  0
LINE
  5
235
330
1A
100
AcDbEntity
  8
B.Paste
  6
CONTINUOUS
100
AcDbLine
 10
1.693948779527559
 20
-2.944319251968504
 30
0
 11
1.6950787401574803
 21
-2.9440944881889761
 31
0
  0
LINE
  5
236
330
1A
100
AcDbEntity
  8
B.Paste
  6
CONTINUOUS
100
AcDbLine
 10
1.6950787401574803
 20
-2.9440944881889761
 30
0
 11
1.7344488188976377
 21
-2.9440944881889761
 31
0
  0
LINE
  5
237
330
1A
100
AcDbEntity
  8
B.Paste
  6
CONTINUOUS
100
AcDbLine
 10
1.7344488188976377
 20
-2.9440944881889761
 30
0
 11
1.735578779527559
 21
-2.944319251968504
 31
0
  0
LINE
  5
238
330
1A
100
AcDbEntity
  8
B.Paste
  6
CONTINUOUS
100
AcDbLine
 10
1.9112468897637795
 20
-2.8826389763779527
 30
0
 11
1.9144400393700787
 21
-2.8847725590551181
 31
0
  0
LINE
  5
239
330
1A
100
AcDbEntity
  8
B.Paste
  6
CONTINUOUS
100
AcDbLine
 10
1.9144400393700787
 20
-2.8847725590551181
 30
0
 11
1.916573622047244
 21
-2.8879657086614174
 31
0
  0
LINE
  5
23A
330
1A
100
AcDbEntity
  8
B.Paste
  6
CONTINUOUS
100
AcDbLine
 10
1.916573622047244
 20
-2.8879657086614174
 30
0
 11
1.9173228346456692
 21
-2.8917322834645667
 31
0
  0
LINE
  5
23B
330
1A
100
AcDbEntity
  8
B.Paste
  6
CONTINUOUS
100
AcDbLine
 10
1.9173228346456692
 20
-2.8917322834645667
 30
0
 11
1.9173228346456692
 21
-2.9271653543307088
 31
0
  0
LINE
  5
23C
330
1A
100
AcDbEntity
  8
B.Paste
  6
CONTINUOUS
100
AcDbLine
 10
1.9173228346456692
 20
-2.9271653543307088
 30
0
 11
1.916573622047244
 21
-2.930931929133858
 31
0
  0
LINE
  5
23D
330
1A
100
AcDbEntity
  8
B.Paste
  6
CONTINUOUS
100
AcDbLine
 10
1.916573622047244
 20
-2.930931929133858
 30
0
 11
1.9144400393700787
 21
-2.9341250787401574
 31
0
  0
LINE
  5
23E
330
1A
100
AcDbEntity
  8
B.Paste
  6
CONTINUOUS
100
AcDbLine
 10
1.9144400393700787
 20
-2.9341250787401574
 30
0
 11
1.9112468897637795
 21
-2.9362586614173227
 31
0
  0
LINE
  5
23F
330
1A
100
AcDbEntity
  8
B.Paste
  6
CONTINUOUS
100
AcDbLine
 10
1.9112468897637795
 20
-2.9362586614173227
 30
0
 11
1.9074803149606299
 21
-2.9370078740157481
 31
0
  0
LINE
  5
240
330
1A
100
AcDbEntity
  8
B.Paste
  6
CONTINUOUS
100
AcDbLine
 10
1.9074803149606299
 20
-2.9370078740157481
 30
0
 11
1.8868110236220472
 21
-2.9370078740157481
 31
0
  0
LINE
  5
241
330
1A
100
AcDbEntity
  8
B.Paste
  6
CONTINUOUS
100
AcDbLine
 10
1.8868110236220472
 20
-2.9370078740157481
 30
0
 11
1.8830444488188975
 21
-2.9362586614173227
 31
0
  0
LINE
  5
242
330
1A
100
AcDbEntity
  8
B.Paste
  6
CONTINUOUS
100
AcDbLine
 10
1.8830444488188975
 20
-2.9362586614173227
 30
0
 11
1.8798512992125984
 21
-2.9341250787401574
 31
0
  0
LINE
  5
243
330
1A
100
AcDbEntity
  8
B.Paste
  6
CONTINUOUS
100
AcDbLine
 10
1.8798512992125984
 20
-2.9341250787401574
 30
0
 11
1.8777177165354331
 21
-2.930931929133858
 31
0
  0
LINE
  5
244
330
1A
100
AcDbEntity
  8
B.Paste
  6
CONTINUOUS
100
AcDbLine
 10
1.8777177165354331
 20
-2.930931929133858
 30
0
 11
1.8769685039370079
 21
-2.9271653543307088
 31
0
  0
LINE
  5
245
330
1A
100
AcDbEntity
  8
B.Paste
  6
CONTINUOUS
100
AcDbLine
 10
1.8769685039370079
 20
-2.9271653543307088
 30
0
 11
1.8769685039370079
 21
-2.8917322834645667
 31
0
  0
LINE
  5
246
330
1A
100
AcDbEntity
  8
B.Paste
  6
CONTINUOUS
100
AcDbLine
 10
1.8769685039370079
 20
-2.8917322834645667
 30
0
 11
1.8777177165354331
 21
-2.8879657086614174
 31
0
  0
LINE
  5
247
330
1A
100
AcDbEntity
  8
B.Paste
  6
CONTINUOUS
100
AcDbLine
 10
1.8777177165354331
 20
-2.8879657086614174
 30
0
 11
1.8798512992125984
 21
-2.8847725590551181
 31
0
  0
LINE
  5
248
330
1A
100
AcDbEntity
  8
B.Paste
  6
CONTINUOUS
100
AcDbLine
 10
1.8798512992125984
 20
-2.8847725590551181
 30
0
 11
1.8830444488188975
 21
-2.8826389763779527
 31
0
  0
LINE
  5
249
330
1A
100
AcDbEntity
  8
B.Paste
  6
CONTINUOUS
100
AcDbLine
 10
1.8830444488188975
 20
-2.8826389763779527
 30
0
 11
1.8868110236220472
 21
-2.8818897637795273
 31
0
  0
LINE
  5
24A
330
1A
100
AcDbEntity
  8
B.Paste
  6
CONTINUOUS
100
AcDbLine
 10
1.8868110236220472
 20
-2.8818897637795273
 30
0
 11
1.9074803149606299
 21
-2.8818897637795273
 31
0
  0
LINE
  5
24B
330
1A
100
AcDbEntity
  8
B.Paste
  6
CONTINUOUS
100
AcDbLine
 10
1.9074803149606299
 20
-2.8818897637795273
 30
0
 11
1.9112468897637795
 21
-2.8826389763779527
 31
0
  0
LINE
  5
24C
330
1A
100
AcDbEntity
  8
B.Paste
  6
CONTINUOUS
100
AcDbLine
 10
1.9830972834645668
 20
-2.8826389763779527
 30
0
 11
1.9862904330708662
 21
-2.8847725590551181
 31
0
  0
LINE
  5
24D
330
1A
100
AcDbEntity
  8
B.Paste
  6
CONTINUOUS
100
AcDbLine
 10
1.9862904330708662
 20
-2.8847725590551181
 30
0
 11
1.9884240157480315
 21
-2.8879657086614174
 31
0
  0
LINE
  5
24E
330
1A
100
AcDbEntity
  8
B.Paste
  6
CONTINUOUS
100
AcDbLine
 10
1.9884240157480315
 20
-2.8879657086614174
 30
0
 11
1.9891732283464567
 21
-2.8917322834645667
 31
0
  0
LINE
  5
24F
330
1A
100
AcDbEntity
  8
B.Paste
  6
CONTINUOUS
100
AcDbLine
 10
1.9891732283464567
 20
-2.8917322834645667
 30
0
 11
1.9891732283464567
 21
-2.9271653543307088
 31
0
  0
LINE
  5
250
330
1A
100
AcDbEntity
  8
B.Paste
  6
CONTINUOUS
100
AcDbLine
 10
1.9891732283464567
 20
-2.9271653543307088
 30
0
 11
1.9884240157480315
 21
-2.930931929133858
 31
0
  0
LINE
  5
251
330
1A
100
AcDbEntity
  8
B.Paste
  6
CONTINUOUS
100
AcDbLine
 10
1.9884240157480315
 20
-2.930931929133858
 30
0
 11
1.9862904330708662
 21
-2.9341250787401574
 31
0
  0
LINE
  5
252
330
1A
100
AcDbEntity
  8
B.Paste
  6
CONTINUOUS
100
AcDbLine
 10
1.9862904330708662
 20
-2.9341250787401574
 30
0
 11
1.9830972834645668
 21
-2.9362586614173227
 31
0
  0
LINE
  5
253
330
1A
100
AcDbEntity
  8
B.Paste
  6
CONTINUOUS
100
AcDbLine
 10
1.9830972834645668
 20
-2.9362586614173227
 30
0
 11
1.9793307086614174
 21
-2.9370078740157481
 31
0
  0
LINE
  5
254
330
1A
100
AcDbEntity
  8
B.Paste
  6
CONTINUOUS
100
AcDbLine
 10
1.9793307086614174
 20
-2.9370078740157481
 30
0
 11
1.9586614173228345
 21
-2.9370078740157481
 31
0
  0
LINE
  5
255
330
1A
100
AcDbEntity
  8
B.Paste
  6
CONTINUOUS
100
AcDbLine
 10
1.9586614173228345
 20
-2.9370078740157481
 30
0
 11
1.954894842519685
 21
-2.9362586614173227
 31
0
  0
LINE
  5
256
330
1A
100
AcDbEntity
  8
B.Paste
  6
CONTINUOUS
100
AcDbLine
 10
1.954894842519685
 20
-2.9362586614173227
 30
0
 11
1.9517016929133857
 21
-2.9341250787401574
 31
0
  0
LINE
  5
257
330
1A
100
AcDbEntity
  8
B.Paste
  6
CONTINUOUS
100
AcDbLine
 10
1.9517016929133857
 20
-2.9341250787401574
 30
0
 11
1.9495681102362203
 21
-2.930931929133858
 31
0
  0
LINE
  5
258
330
1A
100
AcDbEntity
  8
B.Paste
  6
CONTINUOUS
100
AcDbLine
 10
1.9495681102362203
 20
-2.930931929133858
 30
0
 11
1.9488188976377951
 21
-2.9271653543307088
 31
0
  0
LINE
  5
259
330
1A
100
AcDbEntity
  8
B.Paste
  6
CONTINUOUS
100
AcDbLine
 10
1.9488188976377951
 20
-2.9271653543307088
 30
0
 11
1.9488188976377951
 21
-2.8917322834645667
 31
0
  0
LINE
  5
25A
330
1A
100
AcDbEntity
  8
B.Paste
  6
CONTINUOUS
100
AcDbLine
 10
1.9488188976377951
 20
-2.8917322834645667
 30
0
 11
1.9495681102362203
 21
-2.8879657086614174
 31
0
  0
LINE
  5
25B
330
1A
100
AcDbEntity
  8
B.Paste
  6
CONTINUOUS
100
AcDbLine
 10
1.9495681102362203
 20
-2.8879657086614174
 30
0
 11
1.9517016929133857
 21
-2.8847725590551181
 31
0
  0
LINE
  5
25C
330
1A
100
AcDbEntity
  8
B.Paste
  6
CONTINUOUS
100
AcDbLine
 10
1.9517016929133857
 20
-2.8847725590551181
 30
0
 11
1.954894842519685
 21
-2.8826389763779527
 31
0
  0
LINE
  5
25D
330
1A
100
AcDbEntity
  8
B.Paste
  6
CONTINUOUS
100
AcDbLine
 10
1.954894842519685
 20
-2.8826389763779527
 30
0
 11
1.9586614173228345
 21
-2.8818897637795273
 31
0
  0
LINE
  5
25E
330
1A
100
AcDbEntity
  8
B.Paste
  6
CONTINUOUS
100
AcDbLine
 10
1.9586614173228345
 20
-2.8818897637795273
 30
0
 11
1.9793307086614174
 21
-2.8818897637795273
 31
0
  0
LINE
  5
25F
330
1A
100
AcDbEntity
  8
B.Paste
  6
CONTINUOUS
100
AcDbLine
 10
1.9793307086614174
 20
-2.8818897637795273
 30
0
 11
1.9830972834645668
 21
-2.8826389763779527
 31
0
  0
LINE
  5
260
330
1A
100
AcDbEntity
  8
B.Paste
  6
CONTINUOUS
100
AcDbLine
 10
1.735578779527559
 20
-2.9246342125984253
 30
0
 11
1.7365367322834646
 21
-2.9252742913385825
 31
0
  0
LINE
  5
261
330
1A
100
AcDbEntity
  8
B.Paste
  6
CONTINUOUS
100
AcDbLine
 10
1.7365367322834646
 20
-2.9252742913385825
 30
0
 11
1.7371768110236221
 21
-2.9262322440944883
 31
0
  0
LINE
  5
262
330
1A
100
AcDbEntity
  8
B.Paste
  6
CONTINUOUS
100
AcDbLine
 10
1.7371768110236221
 20
-2.9262322440944883
 30
0
 11
1.7374015748031495
 21
-2.9273622047244094
 31
0
  0
LINE
  5
263
330
1A
100
AcDbEntity
  8
B.Paste
  6
CONTINUOUS
100
AcDbLine
 10
1.7374015748031495
 20
-2.9273622047244094
 30
0
 11
1.7374015748031495
 21
-2.9332677165354331
 31
0
  0
LINE
  5
264
330
1A
100
AcDbEntity
  8
B.Paste
  6
CONTINUOUS
100
AcDbLine
 10
1.7374015748031495
 20
-2.9332677165354331
 30
0
 11
1.7371768110236221
 21
-2.9343976771653542
 31
0
  0
LINE
  5
265
330
1A
100
AcDbEntity
  8
B.Paste
  6
CONTINUOUS
100
AcDbLine
 10
1.7371768110236221
 20
-2.9343976771653542
 30
0
 11
1.7365367322834646
 21
-2.93535562992126
 31
0
  0
LINE
  5
266
330
1A
100
AcDbEntity
  8
B.Paste
  6
CONTINUOUS
100
AcDbLine
 10
1.7365367322834646
 20
-2.93535562992126
 30
0
 11
1.735578779527559
 21
-2.9359957086614172
 31
0
  0
LINE
  5
267
330
1A
100
AcDbEntity
  8
B.Paste
  6
CONTINUOUS
100
AcDbLine
 10
1.735578779527559
 20
-2.9359957086614172
 30
0
 11
1.7344488188976377
 21
-2.9362204724409446
 31
0
  0
LINE
  5
268
330
1A
100
AcDbEntity
  8
B.Paste
  6
CONTINUOUS
100
AcDbLine
 10
1.7344488188976377
 20
-2.9362204724409446
 30
0
 11
1.6950787401574803
 21
-2.9362204724409446
 31
0
  0
LINE
  5
269
330
1A
100
AcDbEntity
  8
B.Paste
  6
CONTINUOUS
100
AcDbLine
 10
1.6950787401574803
 20
-2.9362204724409446
 30
0
 11
1.693948779527559
 21
-2.9359957086614172
 31
0
  0
LINE
  5
26A
330
1A
100
AcDbEntity
  8
B.Paste
  6
CONTINUOUS
100
AcDbLine
 10
1.693948779527559
 20
-2.9359957086614172
 30
0
 11
1.6929908267716536
 21
-2.93535562992126
 31
0
  0
LINE
  5
26B
330
1A
100
AcDbEntity
  8
B.Paste
  6
CONTINUOUS
100
AcDbLine
 10
1.6929908267716536
 20
-2.93535562992126
 30
0
 11
1.6923507480314961
 21
-2.9343976771653542
 31
0
  0
LINE
  5
26C
330
1A
100
AcDbEntity
  8
B.Paste
  6
CONTINUOUS
100
AcDbLine
 10
1.6923507480314961
 20
-2.9343976771653542
 30
0
 11
1.6921259842519685
 21
-2.9332677165354331
 31
0
  0
LINE
  5
26D
330
1A
100
AcDbEntity
  8
B.Paste
  6
CONTINUOUS
100
AcDbLine
 10
1.6921259842519685
 20
-2.9332677165354331
 30
0
 11
1.6921259842519685
 21
-2.9273622047244094
 31
0
  0
LINE
  5
26E
330
1A
100
AcDbEntity
  8
B.Paste
  6
CONTINUOUS
100
AcDbLine
 10
1.6921259842519685
 20
-2.9273622047244094
 30
0
 11
1.6923507480314961
 21
-2.9262322440944883
 31
0
  0
LINE
  5
26F
330
1A
100
AcDbEntity
  8
B.Paste
  6
CONTINUOUS
100
AcDbLine
 10
1.6923507480314961
 20
-2.9262322440944883
 30
0
 11
1.6929908267716536
 21
-2.9252742913385825
 31
0
  0
LINE
  5
270
330
1A
100
AcDbEntity
  8
B.Paste
  6
CONTINUOUS
100
AcDbLine
 10
1.6929908267716536
 20
-2.9252742913385825
 30
0
 11
1.693948779527559
 21
-2.9246342125984253
 31
0
  0
LINE
  5
271
330
1A
100
AcDbEntity
  8
B.Paste
  6
CONTINUOUS
100
AcDbLine
 10
1.693948779527559
 20
-2.9246342125984253
 30
0
 11
1.6950787401574803
 21
-2.9244094488188974
 31
0
  0
LINE
  5
272
330
1A
100
AcDbEntity
  8
B.Paste
  6
CONTINUOUS
100
AcDbLine
 10
1.6950787401574803
 20
-2.9244094488188974
 30
0
 11
1.7344488188976377
 21
-2.9244094488188974
 31
0
  0
LINE
  5
273
330
1A
100
AcDbEntity
  8
B.Paste
  6
CONTINUOUS
100
AcDbLine
 10
1.7344488188976377
 20
-2.9244094488188974
 30
0
 11
1.735578779527559
 21
-2.9246342125984253
 31
0
  0
LINE
  5
274
330
1A
100
AcDbEntity
  8
B.Paste
  6
CONTINUOUS
100
AcDbLine
 10
3.3365956299212596
 20
-2.8806517322834644
 30
0
 11
3.3397089370078739
 21
-2.8827320078740155
 31
0
  0
LINE
  5
275
330
1A
100
AcDbEntity
  8
B.Paste
  6
CONTINUOUS
100
AcDbLine
 10
3.3397089370078739
 20
-2.8827320078740155
 30
0
 11
3.341789212598425
 21
-2.8858453149606298
 31
0
  0
LINE
  5
276
330
1A
100
AcDbEntity
  8
B.Paste
  6
CONTINUOUS
100
AcDbLine
 10
3.341789212598425
 20
-2.8858453149606298
 30
0
 11
3.3425196850393699
 21
-2.8895177165354329
 31
0
  0
LINE
  5
277
330
1A
100
AcDbEntity
  8
B.Paste
  6
CONTINUOUS
100
AcDbLine
 10
3.3425196850393699
 20
-2.8895177165354329
 30
0
 11
3.3425196850393699
 21
-2.9087106299212597
 31
0
  0
LINE
  5
278
330
1A
100
AcDbEntity
  8
B.Paste
  6
CONTINUOUS
100
AcDbLine
 10
3.3425196850393699
 20
-2.9087106299212597
 30
0
 11
3.341789212598425
 21
-2.9123830314960628
 31
0
  0
LINE
  5
279
330
1A
100
AcDbEntity
  8
B.Paste
  6
CONTINUOUS
100
AcDbLine
 10
3.341789212598425
 20
-2.9123830314960628
 30
0
 11
3.3397089370078739
 21
-2.9154963385826771
 31
0
  0
LINE
  5
27A
330
1A
100
AcDbEntity
  8
B.Paste
  6
CONTINUOUS
100
AcDbLine
 10
3.3397089370078739
 20
-2.9154963385826771
 30
0
 11
3.3365956299212596
 21
-2.9175766141732282
 31
0
  0
LINE
  5
27B
330
1A
100
AcDbEntity
  8
B.Paste
  6
CONTINUOUS
100
AcDbLine
 10
3.3365956299212596
 20
-2.9175766141732282
 30
0
 11
3.3329232283464565
 21
-2.9183070866141732
 31
0
  0
LINE
  5
27C
330
1A
100
AcDbEntity
  8
B.Paste
  6
CONTINUOUS
100
AcDbLine
 10
3.3329232283464565
 20
-2.9183070866141732
 30
0
 11
3.296998031496063
 21
-2.9183070866141732
 31
0
  0
LINE
  5
27D
330
1A
100
AcDbEntity
  8
B.Paste
  6
CONTINUOUS
100
AcDbLine
 10
3.296998031496063
 20
-2.9183070866141732
 30
0
 11
3.2933256299212599
 21
-2.9175766141732282
 31
0
  0
LINE
  5
27E
330
1A
100
AcDbEntity
  8
B.Paste
  6
CONTINUOUS
100
AcDbLine
 10
3.2933256299212599
 20
-2.9175766141732282
 30
0
 11
3.2902123228346456
 21
-2.9154963385826771
 31
0
  0
LINE
  5
27F
330
1A
100
AcDbEntity
  8
B.Paste
  6
CONTINUOUS
100
AcDbLine
 10
3.2902123228346456
 20
-2.9154963385826771
 30
0
 11
3.2881320472440945
 21
-2.9123830314960628
 31
0
  0
LINE
  5
280
330
1A
100
AcDbEntity
  8
B.Paste
  6
CONTINUOUS
100
AcDbLine
 10
3.2881320472440945
 20
-2.9123830314960628
 30
0
 11
3.2874015748031495
 21
-2.9087106299212597
 31
0
  0
LINE
  5
281
330
1A
100
AcDbEntity
  8
B.Paste
  6
CONTINUOUS
100
AcDbLine
 10
3.2874015748031495
 20
-2.9087106299212597
 30
0
 11
3.2874015748031495
 21
-2.8895177165354329
 31
0
  0
LINE
  5
282
330
1A
100
AcDbEntity
  8
B.Paste
  6
CONTINUOUS
100
AcDbLine
 10
3.2874015748031495
 20
-2.8895177165354329
 30
0
 11
3.2881320472440945
 21
-2.8858453149606298
 31
0
  0
LINE
  5
283
330
1A
100
AcDbEntity
  8
B.Paste
  6
CONTINUOUS
100
AcDbLine
 10
3.2881320472440945
 20
-2.8858453149606298
 30
0
 11
3.2902123228346456
 21
-2.8827320078740155
 31
0
  0
LINE
  5
284
330
1A
100
AcDbEntity
  8
B.Paste
  6
CONTINUOUS
100
AcDbLine
 10
3.2902123228346456
 20
-2.8827320078740155
 30
0
 11
3.2933256299212599
 21
-2.8806517322834644
 31
0
  0
LINE
  5
285
330
1A
100
AcDbEntity
  8
B.Paste
  6
CONTINUOUS
100
AcDbLine
 10
3.2933256299212599
 20
-2.8806517322834644
 30
0
 11
3.296998031496063
 21
-2.8799212598425195
 31
0
  0
LINE
  5
286
330
1A
100
AcDbEntity
  8
B.Paste
  6
CONTINUOUS
100
AcDbLine
 10
3.296998031496063
 20
-2.8799212598425195
 30
0
 11
3.3329232283464565
 21
-2.8799212598425195
 31
0
  0
LINE
  5
287
330
1A
100
AcDbEntity
  8
B.Paste
  6
CONTINUOUS
100
AcDbLine
 10
3.3329232283464565
 20
-2.8799212598425195
 30
0
 11
3.3365956299212596
 21
-2.8806517322834644
 31
0
  0
LINE
  5
288
330
1A
100
AcDbEntity
  8
B.Paste
  6
CONTINUOUS
100
AcDbLine
 10
1.7337560236220473
 20
-2.8933629133858267
 30
0
 11
1.7356718897637795
 21
-2.8946430708661417
 31
0
  0
LINE
  5
289
330
1A
100
AcDbEntity
  8
B.Paste
  6
CONTINUOUS
100
AcDbLine
 10
1.7356718897637795
 20
-2.8946430708661417
 30
0
 11
1.7369520472440945
 21
-2.8965589370078741
 31
0
  0
LINE
  5
28A
330
1A
100
AcDbEntity
  8
B.Paste
  6
CONTINUOUS
100
AcDbLine
 10
1.7369520472440945
 20
-2.8965589370078741
 30
0
 11
1.7374015748031495
 21
-2.8988188976377951
 31
0
  0
LINE
  5
28B
330
1A
100
AcDbEntity
  8
B.Paste
  6
CONTINUOUS
100
AcDbLine
 10
1.7374015748031495
 20
-2.8988188976377951
 30
0
 11
1.7374015748031495
 21
-2.9106299212598423
 31
0
  0
LINE
  5
28C
330
1A
100
AcDbEntity
  8
B.Paste
  6
CONTINUOUS
100
AcDbLine
 10
1.7374015748031495
 20
-2.9106299212598423
 30
0
 11
1.7369520472440945
 21
-2.9128898818897637
 31
0
  0
LINE
  5
28D
330
1A
100
AcDbEntity
  8
B.Paste
  6
CONTINUOUS
100
AcDbLine
 10
1.7369520472440945
 20
-2.9128898818897637
 30
0
 11
1.7356718897637795
 21
-2.9148057480314962
 31
0
  0
LINE
  5
28E
330
1A
100
AcDbEntity
  8
B.Paste
  6
CONTINUOUS
100
AcDbLine
 10
1.7356718897637795
 20
-2.9148057480314962
 30
0
 11
1.7337560236220473
 21
-2.9160859055118111
 31
0
  0
LINE
  5
28F
330
1A
100
AcDbEntity
  8
B.Paste
  6
CONTINUOUS
100
AcDbLine
 10
1.7337560236220473
 20
-2.9160859055118111
 30
0
 11
1.7314960629921259
 21
-2.9165354330708659
 31
0
  0
LINE
  5
290
330
1A
100
AcDbEntity
  8
B.Paste
  6
CONTINUOUS
100
AcDbLine
 10
1.7314960629921259
 20
-2.9165354330708659
 30
0
 11
1.6980314960629921
 21
-2.9165354330708659
 31
0
  0
LINE
  5
291
330
1A
100
AcDbEntity
  8
B.Paste
  6
CONTINUOUS
100
AcDbLine
 10
1.6980314960629921
 20
-2.9165354330708659
 30
0
 11
1.6957715354330709
 21
-2.9160859055118111
 31
0
  0
LINE
  5
292
330
1A
100
AcDbEntity
  8
B.Paste
  6
CONTINUOUS
100
AcDbLine
 10
1.6957715354330709
 20
-2.9160859055118111
 30
0
 11
1.6938556692913385
 21
-2.9148057480314962
 31
0
  0
LINE
  5
293
330
1A
100
AcDbEntity
  8
B.Paste
  6
CONTINUOUS
100
AcDbLine
 10
1.6938556692913385
 20
-2.9148057480314962
 30
0
 11
1.6925755118110235
 21
-2.9128898818897637
 31
0
  0
LINE
  5
294
330
1A
100
AcDbEntity
  8
B.Paste
  6
CONTINUOUS
100
AcDbLine
 10
1.6925755118110235
 20
-2.9128898818897637
 30
0
 11
1.6921259842519685
 21
-2.9106299212598423
 31
0
  0
LINE
  5
295
330
1A
100
AcDbEntity
  8
B.Paste
  6
CONTINUOUS
100
AcDbLine
 10
1.6921259842519685
 20
-2.9106299212598423
 30
0
 11
1.6921259842519685
 21
-2.8988188976377951
 31
0
  0
LINE
  5
296
330
1A
100
AcDbEntity
  8
B.Paste
  6
CONTINUOUS
100
AcDbLine
 10
1.6921259842519685
 20
-2.8988188976377951
 30
0
 11
1.6925755118110235
 21
-2.8965589370078741
 31
0
  0
LINE
  5
297
330
1A
100
AcDbEntity
  8
B.Paste
  6
CONTINUOUS
100
AcDbLine
 10
1.6925755118110235
 20
-2.8965589370078741
 30
0
 11
1.6938556692913385
 21
-2.8946430708661417
 31
0
  0
LINE
  5
298
330
1A
100
AcDbEntity
  8
B.Paste
  6
CONTINUOUS
100
AcDbLine
 10
1.6938556692913385
 20
-2.8946430708661417
 30
0
 11
1.6957715354330709
 21
-2.8933629133858267
 31
0
  0
LINE
  5
299
330
1A
100
AcDbEntity
  8
B.Paste
  6
CONTINUOUS
100
AcDbLine
 10
1.6957715354330709
 20
-2.8933629133858267
 30
0
 11
1.6980314960629921
 21
-2.8929133858267715
 31
0
  0
LINE
  5
29A
330
1A
100
AcDbEntity
  8
B.Paste
  6
CONTINUOUS
100
AcDbLine
 10
1.6980314960629921
 20
-2.8929133858267715
 30
0
 11
1.7314960629921259
 21
-2.8929133858267715
 31
0
  0
LINE
  5
29B
330
1A
100
AcDbEntity
  8
B.Paste
  6
CONTINUOUS
100
AcDbLine
 10
1.7314960629921259
 20
-2.8929133858267715
 30
0
 11
1.7337560236220473
 21
-2.8933629133858267
 31
0
  0
LINE
  5
29C
330
1A
100
AcDbEntity
  8
B.Paste
  6
CONTINUOUS
100
AcDbLine
 10
1.7337560236220473
 20
-2.8618668503937008
 30
0
 11
1.7356718897637795
 21
-2.8631470078740158
 31
0
  0
LINE
  5
29D
330
1A
100
AcDbEntity
  8
B.Paste
  6
CONTINUOUS
100
AcDbLine
 10
1.7356718897637795
 20
-2.8631470078740158
 30
0
 11
1.7369520472440945
 21
-2.8650628740157478
 31
0
  0
LINE
  5
29E
330
1A
100
AcDbEntity
  8
B.Paste
  6
CONTINUOUS
100
AcDbLine
 10
1.7369520472440945
 20
-2.8650628740157478
 30
0
 11
1.7374015748031495
 21
-2.8673228346456692
 31
0
  0
LINE
  5
29F
330
1A
100
AcDbEntity
  8
B.Paste
  6
CONTINUOUS
100
AcDbLine
 10
1.7374015748031495
 20
-2.8673228346456692
 30
0
 11
1.7374015748031495
 21
-2.8791338582677164
 31
0
  0
LINE
  5
2A0
330
1A
100
AcDbEntity
  8
B.Paste
  6
CONTINUOUS
100
AcDbLine
 10
1.7374015748031495
 20
-2.8791338582677164
 30
0
 11
1.7369520472440945
 21
-2.8813938188976378
 31
0
  0
LINE
  5
2A1
330
1A
100
AcDbEntity
  8
B.Paste
  6
CONTINUOUS
100
AcDbLine
 10
1.7369520472440945
 20
-2.8813938188976378
 30
0
 11
1.7356718897637795
 21
-2.8833096850393698
 31
0
  0
LINE
  5
2A2
330
1A
100
AcDbEntity
  8
B.Paste
  6
CONTINUOUS
100
AcDbLine
 10
1.7356718897637795
 20
-2.8833096850393698
 30
0
 11
1.7337560236220473
 21
-2.8845898425196848
 31
0
  0
LINE
  5
2A3
330
1A
100
AcDbEntity
  8
B.Paste
  6
CONTINUOUS
100
AcDbLine
 10
1.7337560236220473
 20
-2.8845898425196848
 30
0
 11
1.7314960629921259
 21
-2.88503937007874
 31
0
  0
LINE
  5
2A4
330
1A
100
AcDbEntity
  8
B.Paste
  6
CONTINUOUS
100
AcDbLine
 10
1.7314960629921259
 20
-2.88503937007874
 30
0
 11
1.6980314960629921
 21
-2.88503937007874
 31
0
  0
LINE
  5
2A5
330
1A
100
AcDbEntity
  8
B.Paste
  6
CONTINUOUS
100
AcDbLine
 10
1.6980314960629921
 20
-2.88503937007874
 30
0
 11
1.6957715354330709
 21
-2.8845898425196848
 31
0
  0
LINE
  5
2A6
330
1A
100
AcDbEntity
  8
B.Paste
  6
CONTINUOUS
100
AcDbLine
 10
1.6957715354330709
 20
-2.8845898425196848
 30
0
 11
1.6938556692913385
 21
-2.8833096850393698
 31
0
  0
LINE
  5
2A7
330
1A
100
AcDbEntity
  8
B.Paste
  6
CONTINUOUS
100
AcDbLine
 10
1.6938556692913385
 20
-2.8833096850393698
 30
0
 11
1.6925755118110235
 21
-2.8813938188976378
 31
0
  0
LINE
  5
2A8
330
1A
100
AcDbEntity
  8
B.Paste
  6
CONTINUOUS
100
AcDbLine
 10
1.6925755118110235
 20
-2.8813938188976378
 30
0
 11
1.6921259842519685
 21
-2.8791338582677164
 31
0
  0
LINE
  5
2A9
330
1A
100
AcDbEntity
  8
B.Paste
  6
CONTINUOUS
100
AcDbLine
 10
1.6921259842519685
 20
-2.8791338582677164
 30
0
 11
1.6921259842519685
 21
-2.8673228346456692
 31
0
  0
LINE
  5
2AA
330
1A
100
AcDbEntity
  8
B.Paste
  6
CONTINUOUS
100
AcDbLine
 10
1.6921259842519685
 20
-2.8673228346456692
 30
0
 11
1.6925755118110235
 21
-2.8650628740157478
 31
0
  0
LINE
  5
2AB
330
1A
100
AcDbEntity
  8
B.Paste
  6
CONTINUOUS
100
AcDbLine
 10
1.6925755118110235
 20
-2.8650628740157478
 30
0
 11
1.6938556692913385
 21
-2.8631470078740158
 31
0
  0
LINE
  5
2AC
330
1A
100
AcDbEntity
  8
B.Paste
  6
CONTINUOUS
100
AcDbLine
 10
1.6938556692913385
 20
-2.8631470078740158
 30
0
 11
1.6957715354330709
 21
-2.8618668503937008
 31
0
  0
LINE
  5
2AD
330
1A
100
AcDbEntity
  8
B.Paste
  6
CONTINUOUS
100
AcDbLine
 10
1.6957715354330709
 20
-2.8618668503937008
 30
0
 11
1.6980314960629921
 21
-2.8614173228346456
 31
0
  0
LINE
  5
2AE
330
1A
100
AcDbEntity
  8
B.Paste
  6
CONTINUOUS
100
AcDbLine
 10
1.6980314960629921
 20
-2.8614173228346456
 30
0
 11
1.7314960629921259
 21
-2.8614173228346456
 31
0
  0
LINE
  5
2AF
330
1A
100
AcDbEntity
  8
B.Paste
  6
CONTINUOUS
100
AcDbLine
 10
1.7314960629921259
 20
-2.8614173228346456
 30
0
 11
1.7337560236220473
 21
-2.8618668503937008
 31
0
  0
LINE
  5
2B0
330
1A
100
AcDbEntity
  8
B.Paste
  6
CONTINUOUS
100
AcDbLine
 10
3.0317434251968503
 20
-2.7937569685039367
 30
0
 11
3.0369930708661417
 21
-2.795715
 31
0
  0
LINE
  5
2B1
330
1A
100
AcDbEntity
  8
B.Paste
  6
CONTINUOUS
100
AcDbLine
 10
3.0369930708661417
 20
-2.795715
 30
0
 11
3.0414784645669291
 21
-2.799072716535433
 31
0
  0
LINE
  5
2B2
330
1A
100
AcDbEntity
  8
B.Paste
  6
CONTINUOUS
100
AcDbLine
 10
3.0414784645669291
 20
-2.799072716535433
 30
0
 11
3.0448361811023621
 21
-2.8035581102362204
 31
0
  0
LINE
  5
2B3
330
1A
100
AcDbEntity
  8
B.Paste
  6
CONTINUOUS
100
AcDbLine
 10
3.0448361811023621
 20
-2.8035581102362204
 30
0
 11
3.0467942125984253
 21
-2.8088077559055118
 31
0
  0
LINE
  5
2B4
330
1A
100
AcDbEntity
  8
B.Paste
  6
CONTINUOUS
100
AcDbLine
 10
3.0467942125984253
 20
-2.8088077559055118
 30
0
 11
3.0472440944881889
 21
-2.8129921259842519
 31
0
  0
LINE
  5
2B5
330
1A
100
AcDbEntity
  8
B.Paste
  6
CONTINUOUS
100
AcDbLine
 10
3.0472440944881889
 20
-2.8129921259842519
 30
0
 11
3.0472440944881889
 21
-2.8523622047244093
 31
0
  0
LINE
  5
2B6
330
1A
100
AcDbEntity
  8
B.Paste
  6
CONTINUOUS
100
AcDbLine
 10
3.0472440944881889
 20
-2.8523622047244093
 30
0
 11
3.0467942125984253
 21
-2.8565465748031493
 31
0
  0
LINE
  5
2B7
330
1A
100
AcDbEntity
  8
B.Paste
  6
CONTINUOUS
100
AcDbLine
 10
3.0467942125984253
 20
-2.8565465748031493
 30
0
 11
3.0448361811023621
 21
-2.8617962204724408
 31
0
  0
LINE
  5
2B8
330
1A
100
AcDbEntity
  8
B.Paste
  6
CONTINUOUS
100
AcDbLine
 10
3.0448361811023621
 20
-2.8617962204724408
 30
0
 11
3.0414784645669291
 21
-2.8662816141732281
 31
0
  0
LINE
  5
2B9
330
1A
100
AcDbEntity
  8
B.Paste
  6
CONTINUOUS
100
AcDbLine
 10
3.0414784645669291
 20
-2.8662816141732281
 30
0
 11
3.0369930708661417
 21
-2.8696393307086612
 31
0
  0
LINE
  5
2BA
330
1A
100
AcDbEntity
  8
B.Paste
  6
CONTINUOUS
100
AcDbLine
 10
3.0369930708661417
 20
-2.8696393307086612
 30
0
 11
3.0317434251968503
 21
-2.8715973622047244
 31
0
  0
LINE
  5
2BB
330
1A
100
AcDbEntity
  8
B.Paste
  6
CONTINUOUS
100
AcDbLine
 10
3.0317434251968503
 20
-2.8715973622047244
 30
0
 11
3.0275590551181102
 21
-2.872047244094488
 31
0
  0
LINE
  5
2BC
330
1A
100
AcDbEntity
  8
B.Paste
  6
CONTINUOUS
100
AcDbLine
 10
3.0275590551181102
 20
-2.872047244094488
 30
0
 11
2.9173228346456694
 21
-2.872047244094488
 31
0
  0
LINE
  5
2BD
330
1A
100
AcDbEntity
  8
B.Paste
  6
CONTINUOUS
100
AcDbLine
 10
2.9173228346456694
 20
-2.872047244094488
 30
0
 11
2.9131384645669289
 21
-2.8715973622047244
 31
0
  0
LINE
  5
2BE
330
1A
100
AcDbEntity
  8
B.Paste
  6
CONTINUOUS
100
AcDbLine
 10
2.9131384645669289
 20
-2.8715973622047244
 30
0
 11
2.907888818897638
 21
-2.8696393307086612
 31
0
  0
LINE
  5
2BF
330
1A
100
AcDbEntity
  8
B.Paste
  6
CONTINUOUS
100
AcDbLine
 10
2.907888818897638
 20
-2.8696393307086612
 30
0
 11
2.9034034251968501
 21
-2.8662816141732281
 31
0
  0
LINE
  5
2C0
330
1A
100
AcDbEntity
  8
B.Paste
  6
CONTINUOUS
100
AcDbLine
 10
2.9034034251968501
 20
-2.8662816141732281
 30
0
 11
2.9000457086614171
 21
-2.8617962204724408
 31
0
  0
LINE
  5
2C1
330
1A
100
AcDbEntity
  8
B.Paste
  6
CONTINUOUS
100
AcDbLine
 10
2.9000457086614171
 20
-2.8617962204724408
 30
0
 11
2.8980876771653543
 21
-2.8565465748031493
 31
0
  0
LINE
  5
2C2
330
1A
100
AcDbEntity
  8
B.Paste
  6
CONTINUOUS
100
AcDbLine
 10
2.8980876771653543
 20
-2.8565465748031493
 30
0
 11
2.8976377952755903
 21
-2.8523622047244093
 31
0
  0
LINE
  5
2C3
330
1A
100
AcDbEntity
  8
B.Paste
  6
CONTINUOUS
100
AcDbLine
 10
2.8976377952755903
 20
-2.8523622047244093
 30
0
 11
2.8976377952755903
 21
-2.8129921259842519
 31
0
  0
LINE
  5
2C4
330
1A
100
AcDbEntity
  8
B.Paste
  6
CONTINUOUS
100
AcDbLine
 10
2.8976377952755903
 20
-2.8129921259842519
 30
0
 11
2.8980876771653543
 21
-2.8088077559055118
 31
0
  0
LINE
  5
2C5
330
1A
100
AcDbEntity
  8
B.Paste
  6
CONTINUOUS
100
AcDbLine
 10
2.8980876771653543
 20
-2.8088077559055118
 30
0
 11
2.9000457086614171
 21
-2.8035581102362204
 31
0
  0
LINE
  5
2C6
330
1A
100
AcDbEntity
  8
B.Paste
  6
CONTINUOUS
100
AcDbLine
 10
2.9000457086614171
 20
-2.8035581102362204
 30
0
 11
2.9034034251968501
 21
-2.799072716535433
 31
0
  0
LINE
  5
2C7
330
1A
100
AcDbEntity
  8
B.Paste
  6
CONTINUOUS
100
AcDbLine
 10
2.9034034251968501
 20
-2.799072716535433
 30
0
 11
2.907888818897638
 21
-2.795715
 31
0
  0
LINE
  5
2C8
330
1A
100
AcDbEntity
  8
B.Paste
  6
CONTINUOUS
100
AcDbLine
 10
2.907888818897638
 20
-2.795715
 30
0
 11
2.9131384645669289
 21
-2.7937569685039367
 31
0
  0
LINE
  5
2C9
330
1A
100
AcDbEntity
  8
B.Paste
  6
CONTINUOUS
100
AcDbLine
 10
2.9131384645669289
 20
-2.7937569685039367
 30
0
 11
2.9173228346456694
 21
-2.7933070866141732
 31
0
  0
LINE
  5
2CA
330
1A
100
AcDbEntity
  8
B.Paste
  6
CONTINUOUS
100
AcDbLine
 10
2.9173228346456694
 20
-2.7933070866141732
 30
0
 11
3.0275590551181102
 21
-2.7933070866141732
 31
0
  0
LINE
  5
2CB
330
1A
100
AcDbEntity
  8
B.Paste
  6
CONTINUOUS
100
AcDbLine
 10
3.0275590551181102
 20
-2.7933070866141732
 30
0
 11
3.0317434251968503
 21
-2.7937569685039367
 31
0
  0
LINE
  5
2CC
330
1A
100
AcDbEntity
  8
B.Paste
  6
CONTINUOUS
100
AcDbLine
 10
1.9079538976377952
 20
-2.796006062992126
 30
0
 11
1.9110672047244095
 21
-2.7980863385826771
 31
0
  0
LINE
  5
2CD
330
1A
100
AcDbEntity
  8
B.Paste
  6
CONTINUOUS
100
AcDbLine
 10
1.9110672047244095
 20
-2.7980863385826771
 30
0
 11
1.9131474803149606
 21
-2.8011996456692914
 31
0
  0
LINE
  5
2CE
330
1A
100
AcDbEntity
  8
B.Paste
  6
CONTINUOUS
100
AcDbLine
 10
1.9131474803149606
 20
-2.8011996456692914
 30
0
 11
1.9138779527559056
 21
-2.8048720472440944
 31
0
  0
LINE
  5
2CF
330
1A
100
AcDbEntity
  8
B.Paste
  6
CONTINUOUS
100
AcDbLine
 10
1.9138779527559056
 20
-2.8048720472440944
 30
0
 11
1.9138779527559056
 21
-2.840797244094488
 31
0
  0
LINE
  5
2D0
330
1A
100
AcDbEntity
  8
B.Paste
  6
CONTINUOUS
100
AcDbLine
 10
1.9138779527559056
 20
-2.840797244094488
 30
0
 11
1.9131474803149606
 21
-2.8444696456692911
 31
0
  0
LINE
  5
2D1
330
1A
100
AcDbEntity
  8
B.Paste
  6
CONTINUOUS
100
AcDbLine
 10
1.9131474803149606
 20
-2.8444696456692911
 30
0
 11
1.9110672047244095
 21
-2.8475829527559053
 31
0
  0
LINE
  5
2D2
330
1A
100
AcDbEntity
  8
B.Paste
  6
CONTINUOUS
100
AcDbLine
 10
1.9110672047244095
 20
-2.8475829527559053
 30
0
 11
1.9079538976377952
 21
-2.8496632283464565
 31
0
  0
LINE
  5
2D3
330
1A
100
AcDbEntity
  8
B.Paste
  6
CONTINUOUS
100
AcDbLine
 10
1.9079538976377952
 20
-2.8496632283464565
 30
0
 11
1.9042814960629921
 21
-2.8503937007874014
 31
0
  0
LINE
  5
2D4
330
1A
100
AcDbEntity
  8
B.Paste
  6
CONTINUOUS
100
AcDbLine
 10
1.9042814960629921
 20
-2.8503937007874014
 30
0
 11
1.8850885826771653
 21
-2.8503937007874014
 31
0
  0
LINE
  5
2D5
330
1A
100
AcDbEntity
  8
B.Paste
  6
CONTINUOUS
100
AcDbLine
 10
1.8850885826771653
 20
-2.8503937007874014
 30
0
 11
1.8814161811023622
 21
-2.8496632283464565
 31
0
  0
LINE
  5
2D6
330
1A
100
AcDbEntity
  8
B.Paste
  6
CONTINUOUS
100
AcDbLine
 10
1.8814161811023622
 20
-2.8496632283464565
 30
0
 11
1.8783028740157479
 21
-2.8475829527559053
 31
0
  0
LINE
  5
2D7
330
1A
100
AcDbEntity
  8
B.Paste
  6
CONTINUOUS
100
AcDbLine
 10
1.8783028740157479
 20
-2.8475829527559053
 30
0
 11
1.8762225984251968
 21
-2.8444696456692911
 31
0
  0
LINE
  5
2D8
330
1A
100
AcDbEntity
  8
B.Paste
  6
CONTINUOUS
100
AcDbLine
 10
1.8762225984251968
 20
-2.8444696456692911
 30
0
 11
1.8754921259842519
 21
-2.840797244094488
 31
0
  0
LINE
  5
2D9
330
1A
100
AcDbEntity
  8
B.Paste
  6
CONTINUOUS
100
AcDbLine
 10
1.8754921259842519
 20
-2.840797244094488
 30
0
 11
1.8754921259842519
 21
-2.8048720472440944
 31
0
  0
LINE
  5
2DA
330
1A
100
AcDbEntity
  8
B.Paste
  6
CONTINUOUS
100
AcDbLine
 10
1.8754921259842519
 20
-2.8048720472440944
 30
0
 11
1.8762225984251968
 21
-2.8011996456692914
 31
0
  0
LINE
  5
2DB
330
1A
100
AcDbEntity
  8
B.Paste
  6
CONTINUOUS
100
AcDbLine
 10
1.8762225984251968
 20
-2.8011996456692914
 30
0
 11
1.8783028740157479
 21
-2.7980863385826771
 31
0
  0
LINE
  5
2DC
330
1A
100
AcDbEntity
  8
B.Paste
  6
CONTINUOUS
100
AcDbLine
 10
1.8783028740157479
 20
-2.7980863385826771
 30
0
 11
1.8814161811023622
 21
-2.796006062992126
 31
0
  0
LINE
  5
2DD
330
1A
100
AcDbEntity
  8
B.Paste
  6
CONTINUOUS
100
AcDbLine
 10
1.8814161811023622
 20
-2.796006062992126
 30
0
 11
1.8850885826771653
 21
-2.795275590551181
 31
0
  0
LINE
  5
2DE
330
1A
100
AcDbEntity
  8
B.Paste
  6
CONTINUOUS
100
AcDbLine
 10
1.8850885826771653
 20
-2.795275590551181
 30
0
 11
1.9042814960629921
 21
-2.795275590551181
 31
0
  0
LINE
  5
2DF
330
1A
100
AcDbEntity
  8
B.Paste
  6
CONTINUOUS
100
AcDbLine
 10
1.9042814960629921
 20
-2.795275590551181
 30
0
 11
1.9079538976377952
 21
-2.796006062992126
 31
0
  0
LINE
  5
2E0
330
1A
100
AcDbEntity
  8
B.Paste
  6
CONTINUOUS
100
AcDbLine
 10
1.9817727952755906
 20
-2.796006062992126
 30
0
 11
1.9848861023622046
 21
-2.7980863385826771
 31
0
  0
LINE
  5
2E1
330
1A
100
AcDbEntity
  8
B.Paste
  6
CONTINUOUS
100
AcDbLine
 10
1.9848861023622046
 20
-2.7980863385826771
 30
0
 11
1.9869663779527558
 21
-2.8011996456692914
 31
0
  0
LINE
  5
2E2
330
1A
100
AcDbEntity
  8
B.Paste
  6
CONTINUOUS
100
AcDbLine
 10
1.9869663779527558
 20
-2.8011996456692914
 30
0
 11
1.9876968503937007
 21
-2.8048720472440944
 31
0
  0
LINE
  5
2E3
330
1A
100
AcDbEntity
  8
B.Paste
  6
CONTINUOUS
100
AcDbLine
 10
1.9876968503937007
 20
-2.8048720472440944
 30
0
 11
1.9876968503937007
 21
-2.840797244094488
 31
0
  0
LINE
  5
2E4
330
1A
100
AcDbEntity
  8
B.Paste
  6
CONTINUOUS
100
AcDbLine
 10
1.9876968503937007
 20
-2.840797244094488
 30
0
 11
1.9869663779527558
 21
-2.8444696456692911
 31
0
  0
LINE
  5
2E5
330
1A
100
AcDbEntity
  8
B.Paste
  6
CONTINUOUS
100
AcDbLine
 10
1.9869663779527558
 20
-2.8444696456692911
 30
0
 11
1.9848861023622046
 21
-2.8475829527559053
 31
0
  0
LINE
  5
2E6
330
1A
100
AcDbEntity
  8
B.Paste
  6
CONTINUOUS
100
AcDbLine
 10
1.9848861023622046
 20
-2.8475829527559053
 30
0
 11
1.9817727952755906
 21
-2.8496632283464565
 31
0
  0
LINE
  5
2E7
330
1A
100
AcDbEntity
  8
B.Paste
  6
CONTINUOUS
100
AcDbLine
 10
1.9817727952755906
 20
-2.8496632283464565
 30
0
 11
1.9781003937007873
 21
-2.8503937007874014
 31
0
  0
LINE
  5
2E8
330
1A
100
AcDbEntity
  8
B.Paste
  6
CONTINUOUS
100
AcDbLine
 10
1.9781003937007873
 20
-2.8503937007874014
 30
0
 11
1.9589074803149606
 21
-2.8503937007874014
 31
0
  0
LINE
  5
2E9
330
1A
100
AcDbEntity
  8
B.Paste
  6
CONTINUOUS
100
AcDbLine
 10
1.9589074803149606
 20
-2.8503937007874014
 30
0
 11
1.9552350787401573
 21
-2.8496632283464565
 31
0
  0
LINE
  5
2EA
330
1A
100
AcDbEntity
  8
B.Paste
  6
CONTINUOUS
100
AcDbLine
 10
1.9552350787401573
 20
-2.8496632283464565
 30
0
 11
1.9521217716535433
 21
-2.8475829527559053
 31
0
  0
LINE
  5
2EB
330
1A
100
AcDbEntity
  8
B.Paste
  6
CONTINUOUS
100
AcDbLine
 10
1.9521217716535433
 20
-2.8475829527559053
 30
0
 11
1.9500414960629922
 21
-2.8444696456692911
 31
0
  0
LINE
  5
2EC
330
1A
100
AcDbEntity
  8
B.Paste
  6
CONTINUOUS
100
AcDbLine
 10
1.9500414960629922
 20
-2.8444696456692911
 30
0
 11
1.9493110236220472
 21
-2.840797244094488
 31
0
  0
LINE
  5
2ED
330
1A
100
AcDbEntity
  8
B.Paste
  6
CONTINUOUS
100
AcDbLine
 10
1.9493110236220472
 20
-2.840797244094488
 30
0
 11
1.9493110236220472
 21
-2.8048720472440944
 31
0
  0
LINE
  5
2EE
330
1A
100
AcDbEntity
  8
B.Paste
  6
CONTINUOUS
100
AcDbLine
 10
1.9493110236220472
 20
-2.8048720472440944
 30
0
 11
1.9500414960629922
 21
-2.8011996456692914
 31
0
  0
LINE
  5
2EF
330
1A
100
AcDbEntity
  8
B.Paste
  6
CONTINUOUS
100
AcDbLine
 10
1.9500414960629922
 20
-2.8011996456692914
 30
0
 11
1.9521217716535433
 21
-2.7980863385826771
 31
0
  0
LINE
  5
2F0
330
1A
100
AcDbEntity
  8
B.Paste
  6
CONTINUOUS
100
AcDbLine
 10
1.9521217716535433
 20
-2.7980863385826771
 30
0
 11
1.9552350787401573
 21
-2.796006062992126
 31
0
  0
LINE
  5
2F1
330
1A
100
AcDbEntity
  8
B.Paste
  6
CONTINUOUS
100
AcDbLine
 10
1.9552350787401573
 20
-2.796006062992126
 30
0
 11
1.9589074803149606
 21
-2.795275590551181
 31
0
  0
LINE
  5
2F2
330
1A
100
AcDbEntity
  8
B.Paste
  6
CONTINUOUS
100
AcDbLine
 10
1.9589074803149606
 20
-2.795275590551181
 30
0
 11
1.9781003937007873
 21
-2.795275590551181
 31
0
  0
LINE
  5
2F3
330
1A
100
AcDbEntity
  8
B.Paste
  6
CONTINUOUS
100
AcDbLine
 10
1.9781003937007873
 20
-2.795275590551181
 30
0
 11
1.9817727952755906
 21
-2.796006062992126
 31
0
  0
LINE
  5
2F4
330
1A
100
AcDbEntity
  8
B.Paste
  6
CONTINUOUS
100
AcDbLine
 10
2.0721720866141733
 20
-2.7960248031496064
 30
0
 11
2.0753652362204722
 21
-2.7981583858267718
 31
0
  0
LINE
  5
2F5
330
1A
100
AcDbEntity
  8
B.Paste
  6
CONTINUOUS
100
AcDbLine
 10
2.0753652362204722
 20
-2.7981583858267718
 30
0
 11
2.0774988188976375
 21
-2.8013515354330707
 31
0
  0
LINE
  5
2F6
330
1A
100
AcDbEntity
  8
B.Paste
  6
CONTINUOUS
100
AcDbLine
 10
2.0774988188976375
 20
-2.8013515354330707
 30
0
 11
2.078248031496063
 21
-2.8051181102362204
 31
0
  0
LINE
  5
2F7
330
1A
100
AcDbEntity
  8
B.Paste
  6
CONTINUOUS
100
AcDbLine
 10
2.078248031496063
 20
-2.8051181102362204
 30
0
 11
2.078248031496063
 21
-2.840551181102362
 31
0
  0
LINE
  5
2F8
330
1A
100
AcDbEntity
  8
B.Paste
  6
CONTINUOUS
100
AcDbLine
 10
2.078248031496063
 20
-2.840551181102362
 30
0
 11
2.0774988188976375
 21
-2.8443177559055117
 31
0
  0
LINE
  5
2F9
330
1A
100
AcDbEntity
  8
B.Paste
  6
CONTINUOUS
100
AcDbLine
 10
2.0774988188976375
 20
-2.8443177559055117
 30
0
 11
2.0753652362204722
 21
-2.8475109055118111
 31
0
  0
LINE
  5
2FA
330
1A
100
AcDbEntity
  8
B.Paste
  6
CONTINUOUS
100
AcDbLine
 10
2.0753652362204722
 20
-2.8475109055118111
 30
0
 11
2.0721720866141733
 21
-2.8496444881889764
 31
0
  0
LINE
  5
2FB
330
1A
100
AcDbEntity
  8
B.Paste
  6
CONTINUOUS
100
AcDbLine
 10
2.0721720866141733
 20
-2.8496444881889764
 30
0
 11
2.0684055118110236
 21
-2.8503937007874014
 31
0
  0
LINE
  5
2FC
330
1A
100
AcDbEntity
  8
B.Paste
  6
CONTINUOUS
100
AcDbLine
 10
2.0684055118110236
 20
-2.8503937007874014
 30
0
 11
2.0477362204724407
 21
-2.8503937007874014
 31
0
  0
LINE
  5
2FD
330
1A
100
AcDbEntity
  8
B.Paste
  6
CONTINUOUS
100
AcDbLine
 10
2.0477362204724407
 20
-2.8503937007874014
 30
0
 11
2.0439696456692915
 21
-2.8496444881889764
 31
0
  0
LINE
  5
2FE
330
1A
100
AcDbEntity
  8
B.Paste
  6
CONTINUOUS
100
AcDbLine
 10
2.0439696456692915
 20
-2.8496444881889764
 30
0
 11
2.0407764960629922
 21
-2.8475109055118111
 31
0
  0
LINE
  5
2FF
330
1A
100
AcDbEntity
  8
B.Paste
  6
CONTINUOUS
100
AcDbLine
 10
2.0407764960629922
 20
-2.8475109055118111
 30
0
 11
2.0386429133858268
 21
-2.8443177559055117
 31
0
  0
LINE
  5
300
330
1A
100
AcDbEntity
  8
B.Paste
  6
CONTINUOUS
100
AcDbLine
 10
2.0386429133858268
 20
-2.8443177559055117
 30
0
 11
2.0378937007874014
 21
-2.840551181102362
 31
0
  0
LINE
  5
301
330
1A
100
AcDbEntity
  8
B.Paste
  6
CONTINUOUS
100
AcDbLine
 10
2.0378937007874014
 20
-2.840551181102362
 30
0
 11
2.0378937007874014
 21
-2.8051181102362204
 31
0
  0
LINE
  5
302
330
1A
100
AcDbEntity
  8
B.Paste
  6
CONTINUOUS
100
AcDbLine
 10
2.0378937007874014
 20
-2.8051181102362204
 30
0
 11
2.0386429133858268
 21
-2.8013515354330707
 31
0
  0
LINE
  5
303
330
1A
100
AcDbEntity
  8
B.Paste
  6
CONTINUOUS
100
AcDbLine
 10
2.0386429133858268
 20
-2.8013515354330707
 30
0
 11
2.0407764960629922
 21
-2.7981583858267718
 31
0
  0
LINE
  5
304
330
1A
100
AcDbEntity
  8
B.Paste
  6
CONTINUOUS
100
AcDbLine
 10
2.0407764960629922
 20
-2.7981583858267718
 30
0
 11
2.0439696456692915
 21
-2.7960248031496064
 31
0
  0
LINE
  5
305
330
1A
100
AcDbEntity
  8
B.Paste
  6
CONTINUOUS
100
AcDbLine
 10
2.0439696456692915
 20
-2.7960248031496064
 30
0
 11
2.0477362204724407
 21
-2.795275590551181
 31
0
  0
LINE
  5
306
330
1A
100
AcDbEntity
  8
B.Paste
  6
CONTINUOUS
100
AcDbLine
 10
2.0477362204724407
 20
-2.795275590551181
 30
0
 11
2.0684055118110236
 21
-2.795275590551181
 31
0
  0
LINE
  5
307
330
1A
100
AcDbEntity
  8
B.Paste
  6
CONTINUOUS
100
AcDbLine
 10
2.0684055118110236
 20
-2.795275590551181
 30
0
 11
2.0721720866141733
 21
-2.7960248031496064
 31
0
  0
LINE
  5
308
330
1A
100
AcDbEntity
  8
B.Paste
  6
CONTINUOUS
100
AcDbLine
 10
2.1440224803149608
 20
-2.7960248031496064
 30
0
 11
2.1472156299212597
 21
-2.7981583858267718
 31
0
  0
LINE
  5
309
330
1A
100
AcDbEntity
  8
B.Paste
  6
CONTINUOUS
100
AcDbLine
 10
2.1472156299212597
 20
-2.7981583858267718
 30
0
 11
2.149349212598425
 21
-2.8013515354330707
 31
0
  0
LINE
  5
30A
330
1A
100
AcDbEntity
  8
B.Paste
  6
CONTINUOUS
100
AcDbLine
 10
2.149349212598425
 20
-2.8013515354330707
 30
0
 11
2.1500984251968505
 21
-2.8051181102362204
 31
0
  0
LINE
  5
30B
330
1A
100
AcDbEntity
  8
B.Paste
  6
CONTINUOUS
100
AcDbLine
 10
2.1500984251968505
 20
-2.8051181102362204
 30
0
 11
2.1500984251968505
 21
-2.840551181102362
 31
0
  0
LINE
  5
30C
330
1A
100
AcDbEntity
  8
B.Paste
  6
CONTINUOUS
100
AcDbLine
 10
2.1500984251968505
 20
-2.840551181102362
 30
0
 11
2.149349212598425
 21
-2.8443177559055117
 31
0
  0
LINE
  5
30D
330
1A
100
AcDbEntity
  8
B.Paste
  6
CONTINUOUS
100
AcDbLine
 10
2.149349212598425
 20
-2.8443177559055117
 30
0
 11
2.1472156299212597
 21
-2.8475109055118111
 31
0
  0
LINE
  5
30E
330
1A
100
AcDbEntity
  8
B.Paste
  6
CONTINUOUS
100
AcDbLine
 10
2.1472156299212597
 20
-2.8475109055118111
 30
0
 11
2.1440224803149608
 21
-2.8496444881889764
 31
0
  0
LINE
  5
30F
330
1A
100
AcDbEntity
  8
B.Paste
  6
CONTINUOUS
100
AcDbLine
 10
2.1440224803149608
 20
-2.8496444881889764
 30
0
 11
2.1402559055118111
 21
-2.8503937007874014
 31
0
  0
LINE
  5
310
330
1A
100
AcDbEntity
  8
B.Paste
  6
CONTINUOUS
100
AcDbLine
 10
2.1402559055118111
 20
-2.8503937007874014
 30
0
 11
2.1195866141732282
 21
-2.8503937007874014
 31
0
  0
LINE
  5
311
330
1A
100
AcDbEntity
  8
B.Paste
  6
CONTINUOUS
100
AcDbLine
 10
2.1195866141732282
 20
-2.8503937007874014
 30
0
 11
2.1158200393700786
 21
-2.8496444881889764
 31
0
  0
LINE
  5
312
330
1A
100
AcDbEntity
  8
B.Paste
  6
CONTINUOUS
100
AcDbLine
 10
2.1158200393700786
 20
-2.8496444881889764
 30
0
 11
2.1126268897637797
 21
-2.8475109055118111
 31
0
  0
LINE
  5
313
330
1A
100
AcDbEntity
  8
B.Paste
  6
CONTINUOUS
100
AcDbLine
 10
2.1126268897637797
 20
-2.8475109055118111
 30
0
 11
2.1104933070866143
 21
-2.8443177559055117
 31
0
  0
LINE
  5
314
330
1A
100
AcDbEntity
  8
B.Paste
  6
CONTINUOUS
100
AcDbLine
 10
2.1104933070866143
 20
-2.8443177559055117
 30
0
 11
2.1097440944881889
 21
-2.840551181102362
 31
0
  0
LINE
  5
315
330
1A
100
AcDbEntity
  8
B.Paste
  6
CONTINUOUS
100
AcDbLine
 10
2.1097440944881889
 20
-2.840551181102362
 30
0
 11
2.1097440944881889
 21
-2.8051181102362204
 31
0
  0
LINE
  5
316
330
1A
100
AcDbEntity
  8
B.Paste
  6
CONTINUOUS
100
AcDbLine
 10
2.1097440944881889
 20
-2.8051181102362204
 30
0
 11
2.1104933070866143
 21
-2.8013515354330707
 31
0
  0
LINE
  5
317
330
1A
100
AcDbEntity
  8
B.Paste
  6
CONTINUOUS
100
AcDbLine
 10
2.1104933070866143
 20
-2.8013515354330707
 30
0
 11
2.1126268897637797
 21
-2.7981583858267718
 31
0
  0
LINE
  5
318
330
1A
100
AcDbEntity
  8
B.Paste
  6
CONTINUOUS
100
AcDbLine
 10
2.1126268897637797
 20
-2.7981583858267718
 30
0
 11
2.1158200393700786
 21
-2.7960248031496064
 31
0
  0
LINE
  5
319
330
1A
100
AcDbEntity
  8
B.Paste
  6
CONTINUOUS
100
AcDbLine
 10
2.1158200393700786
 20
-2.7960248031496064
 30
0
 11
2.1195866141732282
 21
-2.795275590551181
 31
0
  0
LINE
  5
31A
330
1A
100
AcDbEntity
  8
B.Paste
  6
CONTINUOUS
100
AcDbLine
 10
2.1195866141732282
 20
-2.795275590551181
 30
0
 11
2.1402559055118111
 21
-2.795275590551181
 31
0
  0
LINE
  5
31B
330
1A
100
AcDbEntity
  8
B.Paste
  6
CONTINUOUS
100
AcDbLine
 10
2.1402559055118111
 20
-2.795275590551181
 30
0
 11
2.1440224803149608
 21
-2.7960248031496064
 31
0
  0
LINE
  5
31C
330
1A
100
AcDbEntity
  8
B.Paste
  6
CONTINUOUS
100
AcDbLine
 10
1.545876496062992
 20
-2.809617244094488
 30
0
 11
1.5508402362204725
 21
-2.8109472440944883
 31
0
  0
LINE
  5
31D
330
1A
100
AcDbEntity
  8
B.Paste
  6
CONTINUOUS
100
AcDbLine
 10
1.5508402362204725
 20
-2.8109472440944883
 30
0
 11
1.5552905905511811
 21
-2.8135166535433069
 31
0
  0
LINE
  5
31E
330
1A
100
AcDbEntity
  8
B.Paste
  6
CONTINUOUS
100
AcDbLine
 10
1.5552905905511811
 20
-2.8135166535433069
 30
0
 11
1.5589242913385826
 21
-2.8171503543307086
 31
0
  0
LINE
  5
31F
330
1A
100
AcDbEntity
  8
B.Paste
  6
CONTINUOUS
100
AcDbLine
 10
1.5589242913385826
 20
-2.8171503543307086
 30
0
 11
1.5614937007874015
 21
-2.8216007086614172
 31
0
  0
LINE
  5
320
330
1A
100
AcDbEntity
  8
B.Paste
  6
CONTINUOUS
100
AcDbLine
 10
1.5614937007874015
 20
-2.8216007086614172
 30
0
 11
1.5628237007874015
 21
-2.8265644488188975
 31
0
  0
LINE
  5
321
330
1A
100
AcDbEntity
  8
B.Paste
  6
CONTINUOUS
100
AcDbLine
 10
1.5628237007874015
 20
-2.8265644488188975
 30
0
 11
1.5628237007874015
 21
-2.8317032677165352
 31
0
  0
LINE
  5
322
330
1A
100
AcDbEntity
  8
B.Paste
  6
CONTINUOUS
100
AcDbLine
 10
1.5628237007874015
 20
-2.8317032677165352
 30
0
 11
1.5614937007874015
 21
-2.8366670078740155
 31
0
  0
LINE
  5
323
330
1A
100
AcDbEntity
  8
B.Paste
  6
CONTINUOUS
100
AcDbLine
 10
1.5614937007874015
 20
-2.8366670078740155
 30
0
 11
1.5589242913385826
 21
-2.8411173622047246
 31
0
  0
LINE
  5
324
330
1A
100
AcDbEntity
  8
B.Paste
  6
CONTINUOUS
100
AcDbLine
 10
1.5589242913385826
 20
-2.8411173622047246
 30
0
 11
1.5552905905511811
 21
-2.8447510629921258
 31
0
  0
LINE
  5
325
330
1A
100
AcDbEntity
  8
B.Paste
  6
CONTINUOUS
100
AcDbLine
 10
1.5552905905511811
 20
-2.8447510629921258
 30
0
 11
1.5508402362204725
 21
-2.8473204724409449
 31
0
  0
LINE
  5
326
330
1A
100
AcDbEntity
  8
B.Paste
  6
CONTINUOUS
100
AcDbLine
 10
1.5508402362204725
 20
-2.8473204724409449
 30
0
 11
1.545876496062992
 21
-2.8486504724409447
 31
0
  0
LINE
  5
327
330
1A
100
AcDbEntity
  8
B.Paste
  6
CONTINUOUS
100
AcDbLine
 10
1.545876496062992
 20
-2.8486504724409447
 30
0
 11
1.5433070866141732
 21
-2.8488188976377953
 31
0
  0
LINE
  5
328
330
1A
100
AcDbEntity
  8
B.Paste
  6
CONTINUOUS
100
AcDbLine
 10
1.5433070866141732
 20
-2.8488188976377953
 30
0
 11
1.5118110236220472
 21
-2.8488188976377953
 31
0
  0
LINE
  5
329
330
1A
100
AcDbEntity
  8
B.Paste
  6
CONTINUOUS
100
AcDbLine
 10
1.5118110236220472
 20
-2.8488188976377953
 30
0
 11
1.5092416141732283
 21
-2.8486504724409447
 31
0
  0
LINE
  5
32A
330
1A
100
AcDbEntity
  8
B.Paste
  6
CONTINUOUS
100
AcDbLine
 10
1.5092416141732283
 20
-2.8486504724409447
 30
0
 11
1.5042778740157481
 21
-2.8473204724409449
 31
0
  0
LINE
  5
32B
330
1A
100
AcDbEntity
  8
B.Paste
  6
CONTINUOUS
100
AcDbLine
 10
1.5042778740157481
 20
-2.8473204724409449
 30
0
 11
1.4998275196850392
 21
-2.8447510629921258
 31
0
  0
LINE
  5
32C
330
1A
100
AcDbEntity
  8
B.Paste
  6
CONTINUOUS
100
AcDbLine
 10
1.4998275196850392
 20
-2.8447510629921258
 30
0
 11
1.4961938188976378
 21
-2.8411173622047246
 31
0
  0
LINE
  5
32D
330
1A
100
AcDbEntity
  8
B.Paste
  6
CONTINUOUS
100
AcDbLine
 10
1.4961938188976378
 20
-2.8411173622047246
 30
0
 11
1.4936244094488189
 21
-2.8366670078740155
 31
0
  0
LINE
  5
32E
330
1A
100
AcDbEntity
  8
B.Paste
  6
CONTINUOUS
100
AcDbLine
 10
1.4936244094488189
 20
-2.8366670078740155
 30
0
 11
1.4922944094488189
 21
-2.8317032677165352
 31
0
  0
LINE
  5
32F
330
1A
100
AcDbEntity
  8
B.Paste
  6
CONTINUOUS
100
AcDbLine
 10
1.4922944094488189
 20
-2.8317032677165352
 30
0
 11
1.4922944094488189
 21
-2.8265644488188975
 31
0
  0
LINE
  5
330
330
1A
100
AcDbEntity
  8
B.Paste
  6
CONTINUOUS
100
AcDbLine
 10
1.4922944094488189
 20
-2.8265644488188975
 30
0
 11
1.4936244094488189
 21
-2.8216007086614172
 31
0
  0
LINE
  5
331
330
1A
100
AcDbEntity
  8
B.Paste
  6
CONTINUOUS
100
AcDbLine
 10
1.4936244094488189
 20
-2.8216007086614172
 30
0
 11
1.4961938188976378
 21
-2.8171503543307086
 31
0
  0
LINE
  5
332
330
1A
100
AcDbEntity
  8
B.Paste
  6
CONTINUOUS
100
AcDbLine
 10
1.4961938188976378
 20
-2.8171503543307086
 30
0
 11
1.4998275196850392
 21
-2.8135166535433069
 31
0
  0
LINE
  5
333
330
1A
100
AcDbEntity
  8
B.Paste
  6
CONTINUOUS
100
AcDbLine
 10
1.4998275196850392
 20
-2.8135166535433069
 30
0
 11
1.5042778740157481
 21
-2.8109472440944883
 31
0
  0
LINE
  5
334
330
1A
100
AcDbEntity
  8
B.Paste
  6
CONTINUOUS
100
AcDbLine
 10
1.5042778740157481
 20
-2.8109472440944883
 30
0
 11
1.5092416141732283
 21
-2.809617244094488
 31
0
  0
LINE
  5
335
330
1A
100
AcDbEntity
  8
B.Paste
  6
CONTINUOUS
100
AcDbLine
 10
1.5092416141732283
 20
-2.809617244094488
 30
0
 11
1.5118110236220472
 21
-2.8094488188976379
 31
0
  0
LINE
  5
336
330
1A
100
AcDbEntity
  8
B.Paste
  6
CONTINUOUS
100
AcDbLine
 10
1.5118110236220472
 20
-2.8094488188976379
 30
0
 11
1.5433070866141732
 21
-2.8094488188976379
 31
0
  0
LINE
  5
337
330
1A
100
AcDbEntity
  8
B.Paste
  6
CONTINUOUS
100
AcDbLine
 10
1.5433070866141732
 20
-2.8094488188976379
 30
0
 11
1.545876496062992
 21
-2.809617244094488
 31
0
  0
LINE
  5
338
330
1A
100
AcDbEntity
  8
B.Paste
  6
CONTINUOUS
100
AcDbLine
 10
1.7163489370078739
 20
-2.809617244094488
 30
0
 11
1.7213126771653542
 21
-2.8109472440944883
 31
0
  0
LINE
  5
339
330
1A
100
AcDbEntity
  8
B.Paste
  6
CONTINUOUS
100
AcDbLine
 10
1.7213126771653542
 20
-2.8109472440944883
 30
0
 11
1.725763031496063
 21
-2.8135166535433069
 31
0
  0
LINE
  5
33A
330
1A
100
AcDbEntity
  8
B.Paste
  6
CONTINUOUS
100
AcDbLine
 10
1.725763031496063
 20
-2.8135166535433069
 30
0
 11
1.7293967322834645
 21
-2.8171503543307086
 31
0
  0
LINE
  5
33B
330
1A
100
AcDbEntity
  8
B.Paste
  6
CONTINUOUS
100
AcDbLine
 10
1.7293967322834645
 20
-2.8171503543307086
 30
0
 11
1.7319661417322834
 21
-2.8216007086614172
 31
0
  0
LINE
  5
33C
330
1A
100
AcDbEntity
  8
B.Paste
  6
CONTINUOUS
100
AcDbLine
 10
1.7319661417322834
 20
-2.8216007086614172
 30
0
 11
1.7332961417322834
 21
-2.8265644488188975
 31
0
  0
LINE
  5
33D
330
1A
100
AcDbEntity
  8
B.Paste
  6
CONTINUOUS
100
AcDbLine
 10
1.7332961417322834
 20
-2.8265644488188975
 30
0
 11
1.7332961417322834
 21
-2.8317032677165352
 31
0
  0
LINE
  5
33E
330
1A
100
AcDbEntity
  8
B.Paste
  6
CONTINUOUS
100
AcDbLine
 10
1.7332961417322834
 20
-2.8317032677165352
 30
0
 11
1.7319661417322834
 21
-2.8366670078740155
 31
0
  0
LINE
  5
33F
330
1A
100
AcDbEntity
  8
B.Paste
  6
CONTINUOUS
100
AcDbLine
 10
1.7319661417322834
 20
-2.8366670078740155
 30
0
 11
1.7293967322834645
 21
-2.8411173622047246
 31
0
  0
LINE
  5
340
330
1A
100
AcDbEntity
  8
B.Paste
  6
CONTINUOUS
100
AcDbLine
 10
1.7293967322834645
 20
-2.8411173622047246
 30
0
 11
1.725763031496063
 21
-2.8447510629921258
 31
0
  0
LINE
  5
341
330
1A
100
AcDbEntity
  8
B.Paste
  6
CONTINUOUS
100
AcDbLine
 10
1.725763031496063
 20
-2.8447510629921258
 30
0
 11
1.7213126771653542
 21
-2.8473204724409449
 31
0
  0
LINE
  5
342
330
1A
100
AcDbEntity
  8
B.Paste
  6
CONTINUOUS
100
AcDbLine
 10
1.7213126771653542
 20
-2.8473204724409449
 30
0
 11
1.7163489370078739
 21
-2.8486504724409447
 31
0
  0
LINE
  5
343
330
1A
100
AcDbEntity
  8
B.Paste
  6
CONTINUOUS
100
AcDbLine
 10
1.7163489370078739
 20
-2.8486504724409447
 30
0
 11
1.713779527559055
 21
-2.8488188976377953
 31
0
  0
LINE
  5
344
330
1A
100
AcDbEntity
  8
B.Paste
  6
CONTINUOUS
100
AcDbLine
 10
1.713779527559055
 20
-2.8488188976377953
 30
0
 11
1.6704724409448819
 21
-2.8488188976377953
 31
0
  0
LINE
  5
345
330
1A
100
AcDbEntity
  8
B.Paste
  6
CONTINUOUS
100
AcDbLine
 10
1.6704724409448819
 20
-2.8488188976377953
 30
0
 11
1.667903031496063
 21
-2.8486504724409447
 31
0
  0
LINE
  5
346
330
1A
100
AcDbEntity
  8
B.Paste
  6
CONTINUOUS
100
AcDbLine
 10
1.667903031496063
 20
-2.8486504724409447
 30
0
 11
1.6629392913385825
 21
-2.8473204724409449
 31
0
  0
LINE
  5
347
330
1A
100
AcDbEntity
  8
B.Paste
  6
CONTINUOUS
100
AcDbLine
 10
1.6629392913385825
 20
-2.8473204724409449
 30
0
 11
1.6584889370078739
 21
-2.8447510629921258
 31
0
  0
LINE
  5
348
330
1A
100
AcDbEntity
  8
B.Paste
  6
CONTINUOUS
100
AcDbLine
 10
1.6584889370078739
 20
-2.8447510629921258
 30
0
 11
1.6548552362204725
 21
-2.8411173622047246
 31
0
  0
LINE
  5
349
330
1A
100
AcDbEntity
  8
B.Paste
  6
CONTINUOUS
100
AcDbLine
 10
1.6548552362204725
 20
-2.8411173622047246
 30
0
 11
1.6522858267716536
 21
-2.8366670078740155
 31
0
  0
LINE
  5
34A
330
1A
100
AcDbEntity
  8
B.Paste
  6
CONTINUOUS
100
AcDbLine
 10
1.6522858267716536
 20
-2.8366670078740155
 30
0
 11
1.6509558267716535
 21
-2.8317032677165352
 31
0
  0
LINE
  5
34B
330
1A
100
AcDbEntity
  8
B.Paste
  6
CONTINUOUS
100
AcDbLine
 10
1.6509558267716535
 20
-2.8317032677165352
 30
0
 11
1.6509558267716535
 21
-2.8265644488188975
 31
0
  0
LINE
  5
34C
330
1A
100
AcDbEntity
  8
B.Paste
  6
CONTINUOUS
100
AcDbLine
 10
1.6509558267716535
 20
-2.8265644488188975
 30
0
 11
1.6522858267716536
 21
-2.8216007086614172
 31
0
  0
LINE
  5
34D
330
1A
100
AcDbEntity
  8
B.Paste
  6
CONTINUOUS
100
AcDbLine
 10
1.6522858267716536
 20
-2.8216007086614172
 30
0
 11
1.6548552362204725
 21
-2.8171503543307086
 31
0
  0
LINE
  5
34E
330
1A
100
AcDbEntity
  8
B.Paste
  6
CONTINUOUS
100
AcDbLine
 10
1.6548552362204725
 20
-2.8171503543307086
 30
0
 11
1.6584889370078739
 21
-2.8135166535433069
 31
0
  0
LINE
  5
34F
330
1A
100
AcDbEntity
  8
B.Paste
  6
CONTINUOUS
100
AcDbLine
 10
1.6584889370078739
 20
-2.8135166535433069
 30
0
 11
1.6629392913385825
 21
-2.8109472440944883
 31
0
  0
LINE
  5
350
330
1A
100
AcDbEntity
  8
B.Paste
  6
CONTINUOUS
100
AcDbLine
 10
1.6629392913385825
 20
-2.8109472440944883
 30
0
 11
1.667903031496063
 21
-2.809617244094488
 31
0
  0
LINE
  5
351
330
1A
100
AcDbEntity
  8
B.Paste
  6
CONTINUOUS
100
AcDbLine
 10
1.667903031496063
 20
-2.809617244094488
 30
0
 11
1.6704724409448819
 21
-2.8094488188976379
 31
0
  0
LINE
  5
352
330
1A
100
AcDbEntity
  8
B.Paste
  6
CONTINUOUS
100
AcDbLine
 10
1.6704724409448819
 20
-2.8094488188976379
 30
0
 11
1.713779527559055
 21
-2.8094488188976379
 31
0
  0
LINE
  5
353
330
1A
100
AcDbEntity
  8
B.Paste
  6
CONTINUOUS
100
AcDbLine
 10
1.713779527559055
 20
-2.8094488188976379
 30
0
 11
1.7163489370078739
 21
-2.809617244094488
 31
0
  0
LINE
  5
354
330
1A
100
AcDbEntity
  8
B.Paste
  6
CONTINUOUS
100
AcDbLine
 10
3.3365956299212596
 20
-2.806832834645669
 30
0
 11
3.3397089370078739
 21
-2.8089131102362206
 31
0
  0
LINE
  5
355
330
1A
100
AcDbEntity
  8
B.Paste
  6
CONTINUOUS
100
AcDbLine
 10
3.3397089370078739
 20
-2.8089131102362206
 30
0
 11
3.341789212598425
 21
-2.8120264173228344
 31
0
  0
LINE
  5
356
330
1A
100
AcDbEntity
  8
B.Paste
  6
CONTINUOUS
100
AcDbLine
 10
3.341789212598425
 20
-2.8120264173228344
 30
0
 11
3.3425196850393699
 21
-2.8156988188976375
 31
0
  0
LINE
  5
357
330
1A
100
AcDbEntity
  8
B.Paste
  6
CONTINUOUS
100
AcDbLine
 10
3.3425196850393699
 20
-2.8156988188976375
 30
0
 11
3.3425196850393699
 21
-2.8348917322834644
 31
0
  0
LINE
  5
358
330
1A
100
AcDbEntity
  8
B.Paste
  6
CONTINUOUS
100
AcDbLine
 10
3.3425196850393699
 20
-2.8348917322834644
 30
0
 11
3.341789212598425
 21
-2.8385641338582674
 31
0
  0
LINE
  5
359
330
1A
100
AcDbEntity
  8
B.Paste
  6
CONTINUOUS
100
AcDbLine
 10
3.341789212598425
 20
-2.8385641338582674
 30
0
 11
3.3397089370078739
 21
-2.8416774409448817
 31
0
  0
LINE
  5
35A
330
1A
100
AcDbEntity
  8
B.Paste
  6
CONTINUOUS
100
AcDbLine
 10
3.3397089370078739
 20
-2.8416774409448817
 30
0
 11
3.3365956299212596
 21
-2.8437577165354329
 31
0
  0
LINE
  5
35B
330
1A
100
AcDbEntity
  8
B.Paste
  6
CONTINUOUS
100
AcDbLine
 10
3.3365956299212596
 20
-2.8437577165354329
 30
0
 11
3.3329232283464565
 21
-2.8444881889763778
 31
0
  0
LINE
  5
35C
330
1A
100
AcDbEntity
  8
B.Paste
  6
CONTINUOUS
100
AcDbLine
 10
3.3329232283464565
 20
-2.8444881889763778
 30
0
 11
3.296998031496063
 21
-2.8444881889763778
 31
0
  0
LINE
  5
35D
330
1A
100
AcDbEntity
  8
B.Paste
  6
CONTINUOUS
100
AcDbLine
 10
3.296998031496063
 20
-2.8444881889763778
 30
0
 11
3.2933256299212599
 21
-2.8437577165354329
 31
0
  0
LINE
  5
35E
330
1A
100
AcDbEntity
  8
B.Paste
  6
CONTINUOUS
100
AcDbLine
 10
3.2933256299212599
 20
-2.8437577165354329
 30
0
 11
3.2902123228346456
 21
-2.8416774409448817
 31
0
  0
LINE
  5
35F
330
1A
100
AcDbEntity
  8
B.Paste
  6
CONTINUOUS
100
AcDbLine
 10
3.2902123228346456
 20
-2.8416774409448817
 30
0
 11
3.2881320472440945
 21
-2.8385641338582674
 31
0
  0
LINE
  5
360
330
1A
100
AcDbEntity
  8
B.Paste
  6
CONTINUOUS
100
AcDbLine
 10
3.2881320472440945
 20
-2.8385641338582674
 30
0
 11
3.2874015748031495
 21
-2.8348917322834644
 31
0
  0
LINE
  5
361
330
1A
100
AcDbEntity
  8
B.Paste
  6
CONTINUOUS
100
AcDbLine
 10
3.2874015748031495
 20
-2.8348917322834644
 30
0
 11
3.2874015748031495
 21
-2.8156988188976375
 31
0
  0
LINE
  5
362
330
1A
100
AcDbEntity
  8
B.Paste
  6
CONTINUOUS
100
AcDbLine
 10
3.2874015748031495
 20
-2.8156988188976375
 30
0
 11
3.2881320472440945
 21
-2.8120264173228344
 31
0
  0
LINE
  5
363
330
1A
100
AcDbEntity
  8
B.Paste
  6
CONTINUOUS
100
AcDbLine
 10
3.2881320472440945
 20
-2.8120264173228344
 30
0
 11
3.2902123228346456
 21
-2.8089131102362206
 31
0
  0
LINE
  5
364
330
1A
100
AcDbEntity
  8
B.Paste
  6
CONTINUOUS
100
AcDbLine
 10
3.2902123228346456
 20
-2.8089131102362206
 30
0
 11
3.2933256299212599
 21
-2.806832834645669
 31
0
  0
LINE
  5
365
330
1A
100
AcDbEntity
  8
B.Paste
  6
CONTINUOUS
100
AcDbLine
 10
3.2933256299212599
 20
-2.806832834645669
 30
0
 11
3.296998031496063
 21
-2.8061023622047245
 31
0
  0
LINE
  5
366
330
1A
100
AcDbEntity
  8
B.Paste
  6
CONTINUOUS
100
AcDbLine
 10
3.296998031496063
 20
-2.8061023622047245
 30
0
 11
3.3329232283464565
 21
-2.8061023622047245
 31
0
  0
LINE
  5
367
330
1A
100
AcDbEntity
  8
B.Paste
  6
CONTINUOUS
100
AcDbLine
 10
3.3329232283464565
 20
-2.8061023622047245
 30
0
 11
3.3365956299212596
 21
-2.806832834645669
 31
0
  0
LINE
  5
368
330
1A
100
AcDbEntity
  8
B.Paste
  6
CONTINUOUS
100
AcDbLine
 10
2.6454988582677164
 20
-2.7871665354330708
 30
0
 11
2.6486920078740157
 21
-2.7893001181102361
 31
0
  0
LINE
  5
369
330
1A
100
AcDbEntity
  8
B.Paste
  6
CONTINUOUS
100
AcDbLine
 10
2.6486920078740157
 20
-2.7893001181102361
 30
0
 11
2.6508255905511811
 21
-2.7924932677165355
 31
0
  0
LINE
  5
36A
330
1A
100
AcDbEntity
  8
B.Paste
  6
CONTINUOUS
100
AcDbLine
 10
2.6508255905511811
 20
-2.7924932677165355
 30
0
 11
2.651574803149606
 21
-2.7962598425196852
 31
0
  0
LINE
  5
36B
330
1A
100
AcDbEntity
  8
B.Paste
  6
CONTINUOUS
100
AcDbLine
 10
2.651574803149606
 20
-2.7962598425196852
 30
0
 11
2.651574803149606
 21
-2.8336614173228347
 31
0
  0
LINE
  5
36C
330
1A
100
AcDbEntity
  8
B.Paste
  6
CONTINUOUS
100
AcDbLine
 10
2.651574803149606
 20
-2.8336614173228347
 30
0
 11
2.6508255905511811
 21
-2.8374279921259844
 31
0
  0
LINE
  5
36D
330
1A
100
AcDbEntity
  8
B.Paste
  6
CONTINUOUS
100
AcDbLine
 10
2.6508255905511811
 20
-2.8374279921259844
 30
0
 11
2.6486920078740157
 21
-2.8406211417322833
 31
0
  0
LINE
  5
36E
330
1A
100
AcDbEntity
  8
B.Paste
  6
CONTINUOUS
100
AcDbLine
 10
2.6486920078740157
 20
-2.8406211417322833
 30
0
 11
2.6454988582677164
 21
-2.8427547244094487
 31
0
  0
LINE
  5
36F
330
1A
100
AcDbEntity
  8
B.Paste
  6
CONTINUOUS
100
AcDbLine
 10
2.6454988582677164
 20
-2.8427547244094487
 30
0
 11
2.6417322834645667
 21
-2.8435039370078741
 31
0
  0
LINE
  5
370
330
1A
100
AcDbEntity
  8
B.Paste
  6
CONTINUOUS
100
AcDbLine
 10
2.6417322834645667
 20
-2.8435039370078741
 30
0
 11
2.622047244094488
 21
-2.8435039370078741
 31
0
  0
LINE
  5
371
330
1A
100
AcDbEntity
  8
B.Paste
  6
CONTINUOUS
100
AcDbLine
 10
2.622047244094488
 20
-2.8435039370078741
 30
0
 11
2.6182806692913387
 21
-2.8427547244094487
 31
0
  0
LINE
  5
372
330
1A
100
AcDbEntity
  8
B.Paste
  6
CONTINUOUS
100
AcDbLine
 10
2.6182806692913387
 20
-2.8427547244094487
 30
0
 11
2.6150875196850394
 21
-2.8406211417322833
 31
0
  0
LINE
  5
373
330
1A
100
AcDbEntity
  8
B.Paste
  6
CONTINUOUS
100
AcDbLine
 10
2.6150875196850394
 20
-2.8406211417322833
 30
0
 11
2.612953937007874
 21
-2.8374279921259844
 31
0
  0
LINE
  5
374
330
1A
100
AcDbEntity
  8
B.Paste
  6
CONTINUOUS
100
AcDbLine
 10
2.612953937007874
 20
-2.8374279921259844
 30
0
 11
2.6122047244094486
 21
-2.8336614173228347
 31
0
  0
LINE
  5
375
330
1A
100
AcDbEntity
  8
B.Paste
  6
CONTINUOUS
100
AcDbLine
 10
2.6122047244094486
 20
-2.8336614173228347
 30
0
 11
2.6122047244094486
 21
-2.7962598425196852
 31
0
  0
LINE
  5
376
330
1A
100
AcDbEntity
  8
B.Paste
  6
CONTINUOUS
100
AcDbLine
 10
2.6122047244094486
 20
-2.7962598425196852
 30
0
 11
2.612953937007874
 21
-2.7924932677165355
 31
0
  0
LINE
  5
377
330
1A
100
AcDbEntity
  8
B.Paste
  6
CONTINUOUS
100
AcDbLine
 10
2.612953937007874
 20
-2.7924932677165355
 30
0
 11
2.6150875196850394
 21
-2.7893001181102361
 31
0
  0
LINE
  5
378
330
1A
100
AcDbEntity
  8
B.Paste
  6
CONTINUOUS
100
AcDbLine
 10
2.6150875196850394
 20
-2.7893001181102361
 30
0
 11
2.6182806692913387
 21
-2.7871665354330708
 31
0
  0
LINE
  5
379
330
1A
100
AcDbEntity
  8
B.Paste
  6
CONTINUOUS
100
AcDbLine
 10
2.6182806692913387
 20
-2.7871665354330708
 30
0
 11
2.622047244094488
 21
-2.7864173228346458
 31
0
  0
LINE
  5
37A
330
1A
100
AcDbEntity
  8
B.Paste
  6
CONTINUOUS
100
AcDbLine
 10
2.622047244094488
 20
-2.7864173228346458
 30
0
 11
2.6417322834645667
 21
-2.7864173228346458
 31
0
  0
LINE
  5
37B
330
1A
100
AcDbEntity
  8
B.Paste
  6
CONTINUOUS
100
AcDbLine
 10
2.6417322834645667
 20
-2.7864173228346458
 30
0
 11
2.6454988582677164
 21
-2.7871665354330708
 31
0
  0
LINE
  5
37C
330
1A
100
AcDbEntity
  8
B.Paste
  6
CONTINUOUS
100
AcDbLine
 10
2.7203020078740159
 20
-2.7871665354330708
 30
0
 11
2.7234951574803148
 21
-2.7893001181102361
 31
0
  0
LINE
  5
37D
330
1A
100
AcDbEntity
  8
B.Paste
  6
CONTINUOUS
100
AcDbLine
 10
2.7234951574803148
 20
-2.7893001181102361
 30
0
 11
2.7256287401574801
 21
-2.7924932677165355
 31
0
  0
LINE
  5
37E
330
1A
100
AcDbEntity
  8
B.Paste
  6
CONTINUOUS
100
AcDbLine
 10
2.7256287401574801
 20
-2.7924932677165355
 30
0
 11
2.7263779527559056
 21
-2.7962598425196852
 31
0
  0
LINE
  5
37F
330
1A
100
AcDbEntity
  8
B.Paste
  6
CONTINUOUS
100
AcDbLine
 10
2.7263779527559056
 20
-2.7962598425196852
 30
0
 11
2.7263779527559056
 21
-2.8336614173228347
 31
0
  0
LINE
  5
380
330
1A
100
AcDbEntity
  8
B.Paste
  6
CONTINUOUS
100
AcDbLine
 10
2.7263779527559056
 20
-2.8336614173228347
 30
0
 11
2.7256287401574801
 21
-2.8374279921259844
 31
0
  0
LINE
  5
381
330
1A
100
AcDbEntity
  8
B.Paste
  6
CONTINUOUS
100
AcDbLine
 10
2.7256287401574801
 20
-2.8374279921259844
 30
0
 11
2.7234951574803148
 21
-2.8406211417322833
 31
0
  0
LINE
  5
382
330
1A
100
AcDbEntity
  8
B.Paste
  6
CONTINUOUS
100
AcDbLine
 10
2.7234951574803148
 20
-2.8406211417322833
 30
0
 11
2.7203020078740159
 21
-2.8427547244094487
 31
0
  0
LINE
  5
383
330
1A
100
AcDbEntity
  8
B.Paste
  6
CONTINUOUS
100
AcDbLine
 10
2.7203020078740159
 20
-2.8427547244094487
 30
0
 11
2.7165354330708662
 21
-2.8435039370078741
 31
0
  0
LINE
  5
384
330
1A
100
AcDbEntity
  8
B.Paste
  6
CONTINUOUS
100
AcDbLine
 10
2.7165354330708662
 20
-2.8435039370078741
 30
0
 11
2.6968503937007875
 21
-2.8435039370078741
 31
0
  0
LINE
  5
385
330
1A
100
AcDbEntity
  8
B.Paste
  6
CONTINUOUS
100
AcDbLine
 10
2.6968503937007875
 20
-2.8435039370078741
 30
0
 11
2.6930838188976378
 21
-2.8427547244094487
 31
0
  0
LINE
  5
386
330
1A
100
AcDbEntity
  8
B.Paste
  6
CONTINUOUS
100
AcDbLine
 10
2.6930838188976378
 20
-2.8427547244094487
 30
0
 11
2.6898906692913385
 21
-2.8406211417322833
 31
0
  0
LINE
  5
387
330
1A
100
AcDbEntity
  8
B.Paste
  6
CONTINUOUS
100
AcDbLine
 10
2.6898906692913385
 20
-2.8406211417322833
 30
0
 11
2.6877570866141731
 21
-2.8374279921259844
 31
0
  0
LINE
  5
388
330
1A
100
AcDbEntity
  8
B.Paste
  6
CONTINUOUS
100
AcDbLine
 10
2.6877570866141731
 20
-2.8374279921259844
 30
0
 11
2.6870078740157481
 21
-2.8336614173228347
 31
0
  0
LINE
  5
389
330
1A
100
AcDbEntity
  8
B.Paste
  6
CONTINUOUS
100
AcDbLine
 10
2.6870078740157481
 20
-2.8336614173228347
 30
0
 11
2.6870078740157481
 21
-2.7962598425196852
 31
0
  0
LINE
  5
38A
330
1A
100
AcDbEntity
  8
B.Paste
  6
CONTINUOUS
100
AcDbLine
 10
2.6870078740157481
 20
-2.7962598425196852
 30
0
 11
2.6877570866141731
 21
-2.7924932677165355
 31
0
  0
LINE
  5
38B
330
1A
100
AcDbEntity
  8
B.Paste
  6
CONTINUOUS
100
AcDbLine
 10
2.6877570866141731
 20
-2.7924932677165355
 30
0
 11
2.6898906692913385
 21
-2.7893001181102361
 31
0
  0
LINE
  5
38C
330
1A
100
AcDbEntity
  8
B.Paste
  6
CONTINUOUS
100
AcDbLine
 10
2.6898906692913385
 20
-2.7893001181102361
 30
0
 11
2.6930838188976378
 21
-2.7871665354330708
 31
0
  0
LINE
  5
38D
330
1A
100
AcDbEntity
  8
B.Paste
  6
CONTINUOUS
100
AcDbLine
 10
2.6930838188976378
 20
-2.7871665354330708
 30
0
 11
2.6968503937007875
 21
-2.7864173228346458
 31
0
  0
LINE
  5
38E
330
1A
100
AcDbEntity
  8
B.Paste
  6
CONTINUOUS
100
AcDbLine
 10
2.6968503937007875
 20
-2.7864173228346458
 30
0
 11
2.7165354330708662
 21
-2.7864173228346458
 31
0
  0
LINE
  5
38F
330
1A
100
AcDbEntity
  8
B.Paste
  6
CONTINUOUS
100
AcDbLine
 10
2.7165354330708662
 20
-2.7864173228346458
 30
0
 11
2.7203020078740159
 21
-2.7871665354330708
 31
0
  0
LINE
  5
390
330
1A
100
AcDbEntity
  8
B.Paste
  6
CONTINUOUS
100
AcDbLine
 10
6.0657744488188978
 20
-2.4456311023622046
 30
0
 11
6.0689675984251963
 21
-2.4477646850393699
 31
0
  0
LINE
  5
391
330
1A
100
AcDbEntity
  8
B.Paste
  6
CONTINUOUS
100
AcDbLine
 10
6.0689675984251963
 20
-2.4477646850393699
 30
0
 11
6.0711011811023621
 21
-2.4509578346456693
 31
0
  0
LINE
  5
392
330
1A
100
AcDbEntity
  8
B.Paste
  6
CONTINUOUS
100
AcDbLine
 10
6.0711011811023621
 20
-2.4509578346456693
 30
0
 11
6.0718503937007871
 21
-2.454724409448819
 31
0
  0
LINE
  5
393
330
1A
100
AcDbEntity
  8
B.Paste
  6
CONTINUOUS
100
AcDbLine
 10
6.0718503937007871
 20
-2.454724409448819
 30
0
 11
6.0718503937007871
 21
-2.4744094488188977
 31
0
  0
LINE
  5
394
330
1A
100
AcDbEntity
  8
B.Paste
  6
CONTINUOUS
100
AcDbLine
 10
6.0718503937007871
 20
-2.4744094488188977
 30
0
 11
6.0711011811023621
 21
-2.4781760236220474
 31
0
  0
LINE
  5
395
330
1A
100
AcDbEntity
  8
B.Paste
  6
CONTINUOUS
100
AcDbLine
 10
6.0711011811023621
 20
-2.4781760236220474
 30
0
 11
6.0689675984251963
 21
-2.4813691732283463
 31
0
  0
LINE
  5
396
330
1A
100
AcDbEntity
  8
B.Paste
  6
CONTINUOUS
100
AcDbLine
 10
6.0689675984251963
 20
-2.4813691732283463
 30
0
 11
6.0657744488188978
 21
-2.4835027559055116
 31
0
  0
LINE
  5
397
330
1A
100
AcDbEntity
  8
B.Paste
  6
CONTINUOUS
100
AcDbLine
 10
6.0657744488188978
 20
-2.4835027559055116
 30
0
 11
6.0620078740157481
 21
-2.484251968503937
 31
0
  0
LINE
  5
398
330
1A
100
AcDbEntity
  8
B.Paste
  6
CONTINUOUS
100
AcDbLine
 10
6.0620078740157481
 20
-2.484251968503937
 30
0
 11
6.0246062992125982
 21
-2.484251968503937
 31
0
  0
LINE
  5
399
330
1A
100
AcDbEntity
  8
B.Paste
  6
CONTINUOUS
100
AcDbLine
 10
6.0246062992125982
 20
-2.484251968503937
 30
0
 11
6.0208397244094485
 21
-2.4835027559055116
 31
0
  0
LINE
  5
39A
330
1A
100
AcDbEntity
  8
B.Paste
  6
CONTINUOUS
100
AcDbLine
 10
6.0208397244094485
 20
-2.4835027559055116
 30
0
 11
6.0176465748031491
 21
-2.4813691732283463
 31
0
  0
LINE
  5
39B
330
1A
100
AcDbEntity
  8
B.Paste
  6
CONTINUOUS
100
AcDbLine
 10
6.0176465748031491
 20
-2.4813691732283463
 30
0
 11
6.0155129921259842
 21
-2.4781760236220474
 31
0
  0
LINE
  5
39C
330
1A
100
AcDbEntity
  8
B.Paste
  6
CONTINUOUS
100
AcDbLine
 10
6.0155129921259842
 20
-2.4781760236220474
 30
0
 11
6.0147637795275593
 21
-2.4744094488188977
 31
0
  0
LINE
  5
39D
330
1A
100
AcDbEntity
  8
B.Paste
  6
CONTINUOUS
100
AcDbLine
 10
6.0147637795275593
 20
-2.4744094488188977
 30
0
 11
6.0147637795275593
 21
-2.454724409448819
 31
0
  0
LINE
  5
39E
330
1A
100
AcDbEntity
  8
B.Paste
  6
CONTINUOUS
100
AcDbLine
 10
6.0147637795275593
 20
-2.454724409448819
 30
0
 11
6.0155129921259842
 21
-2.4509578346456693
 31
0
  0
LINE
  5
39F
330
1A
100
AcDbEntity
  8
B.Paste
  6
CONTINUOUS
100
AcDbLine
 10
6.0155129921259842
 20
-2.4509578346456693
 30
0
 11
6.0176465748031491
 21
-2.4477646850393699
 31
0
  0
LINE
  5
3A0
330
1A
100
AcDbEntity
  8
B.Paste
  6
CONTINUOUS
100
AcDbLine
 10
6.0176465748031491
 20
-2.4477646850393699
 30
0
 11
6.0208397244094485
 21
-2.4456311023622046
 31
0
  0
LINE
  5
3A1
330
1A
100
AcDbEntity
  8
B.Paste
  6
CONTINUOUS
100
AcDbLine
 10
6.0208397244094485
 20
-2.4456311023622046
 30
0
 11
6.0246062992125982
 21
-2.4448818897637796
 31
0
  0
LINE
  5
3A2
330
1A
100
AcDbEntity
  8
B.Paste
  6
CONTINUOUS
100
AcDbLine
 10
6.0246062992125982
 20
-2.4448818897637796
 30
0
 11
6.0620078740157481
 21
-2.4448818897637796
 31
0
  0
LINE
  5
3A3
330
1A
100
AcDbEntity
  8
B.Paste
  6
CONTINUOUS
100
AcDbLine
 10
6.0620078740157481
 20
-2.4448818897637796
 30
0
 11
6.0657744488188978
 21
-2.4456311023622046
 31
0
  0
LINE
  5
3A4
330
1A
100
AcDbEntity
  8
B.Paste
  6
CONTINUOUS
100
AcDbLine
 10
5.8610500393700784
 20
-2.4436625984251967
 30
0
 11
5.8642431889763778
 21
-2.4457961811023621
 31
0
  0
LINE
  5
3A5
330
1A
100
AcDbEntity
  8
B.Paste
  6
CONTINUOUS
100
AcDbLine
 10
5.8642431889763778
 20
-2.4457961811023621
 30
0
 11
5.8663767716535435
 21
-2.4489893307086614
 31
0
  0
LINE
  5
3A6
330
1A
100
AcDbEntity
  8
B.Paste
  6
CONTINUOUS
100
AcDbLine
 10
5.8663767716535435
 20
-2.4489893307086614
 30
0
 11
5.8671259842519685
 21
-2.4527559055118111
 31
0
  0
LINE
  5
3A7
330
1A
100
AcDbEntity
  8
B.Paste
  6
CONTINUOUS
100
AcDbLine
 10
5.8671259842519685
 20
-2.4527559055118111
 30
0
 11
5.8671259842519685
 21
-2.4724409448818898
 31
0
  0
LINE
  5
3A8
330
1A
100
AcDbEntity
  8
B.Paste
  6
CONTINUOUS
100
AcDbLine
 10
5.8671259842519685
 20
-2.4724409448818898
 30
0
 11
5.8663767716535435
 21
-2.4762075196850395
 31
0
  0
LINE
  5
3A9
330
1A
100
AcDbEntity
  8
B.Paste
  6
CONTINUOUS
100
AcDbLine
 10
5.8663767716535435
 20
-2.4762075196850395
 30
0
 11
5.8642431889763778
 21
-2.4794006692913384
 31
0
  0
LINE
  5
3AA
330
1A
100
AcDbEntity
  8
B.Paste
  6
CONTINUOUS
100
AcDbLine
 10
5.8642431889763778
 20
-2.4794006692913384
 30
0
 11
5.8610500393700784
 21
-2.4815342519685037
 31
0
  0
LINE
  5
3AB
330
1A
100
AcDbEntity
  8
B.Paste
  6
CONTINUOUS
100
AcDbLine
 10
5.8610500393700784
 20
-2.4815342519685037
 30
0
 11
5.8572834645669287
 21
-2.4822834645669292
 31
0
  0
LINE
  5
3AC
330
1A
100
AcDbEntity
  8
B.Paste
  6
CONTINUOUS
100
AcDbLine
 10
5.8572834645669287
 20
-2.4822834645669292
 30
0
 11
5.8198818897637796
 21
-2.4822834645669292
 31
0
  0
LINE
  5
3AD
330
1A
100
AcDbEntity
  8
B.Paste
  6
CONTINUOUS
100
AcDbLine
 10
5.8198818897637796
 20
-2.4822834645669292
 30
0
 11
5.8161153149606299
 21
-2.4815342519685037
 31
0
  0
LINE
  5
3AE
330
1A
100
AcDbEntity
  8
B.Paste
  6
CONTINUOUS
100
AcDbLine
 10
5.8161153149606299
 20
-2.4815342519685037
 30
0
 11
5.8129221653543306
 21
-2.4794006692913384
 31
0
  0
LINE
  5
3AF
330
1A
100
AcDbEntity
  8
B.Paste
  6
CONTINUOUS
100
AcDbLine
 10
5.8129221653543306
 20
-2.4794006692913384
 30
0
 11
5.8107885826771648
 21
-2.4762075196850395
 31
0
  0
LINE
  5
3B0
330
1A
100
AcDbEntity
  8
B.Paste
  6
CONTINUOUS
100
AcDbLine
 10
5.8107885826771648
 20
-2.4762075196850395
 30
0
 11
5.8100393700787398
 21
-2.4724409448818898
 31
0
  0
LINE
  5
3B1
330
1A
100
AcDbEntity
  8
B.Paste
  6
CONTINUOUS
100
AcDbLine
 10
5.8100393700787398
 20
-2.4724409448818898
 30
0
 11
5.8100393700787398
 21
-2.4527559055118111
 31
0
  0
LINE
  5
3B2
330
1A
100
AcDbEntity
  8
B.Paste
  6
CONTINUOUS
100
AcDbLine
 10
5.8100393700787398
 20
-2.4527559055118111
 30
0
 11
5.8107885826771648
 21
-2.4489893307086614
 31
0
  0
LINE
  5
3B3
330
1A
100
AcDbEntity
  8
B.Paste
  6
CONTINUOUS
100
AcDbLine
 10
5.8107885826771648
 20
-2.4489893307086614
 30
0
 11
5.8129221653543306
 21
-2.4457961811023621
 31
0
  0
LINE
  5
3B4
330
1A
100
AcDbEntity
  8
B.Paste
  6
CONTINUOUS
100
AcDbLine
 10
5.8129221653543306
 20
-2.4457961811023621
 30
0
 11
5.8161153149606299
 21
-2.4436625984251967
 31
0
  0
LINE
  5
3B5
330
1A
100
AcDbEntity
  8
B.Paste
  6
CONTINUOUS
100
AcDbLine
 10
5.8161153149606299
 20
-2.4436625984251967
 30
0
 11
5.8198818897637796
 21
-2.4429133858267718
 31
0
  0
LINE
  5
3B6
330
1A
100
AcDbEntity
  8
B.Paste
  6
CONTINUOUS
100
AcDbLine
 10
5.8198818897637796
 20
-2.4429133858267718
 30
0
 11
5.8572834645669287
 21
-2.4429133858267718
 31
0
  0
LINE
  5
3B7
330
1A
100
AcDbEntity
  8
B.Paste
  6
CONTINUOUS
100
AcDbLine
 10
5.8572834645669287
 20
-2.4429133858267718
 30
0
 11
5.8610500393700784
 21
-2.4436625984251967
 31
0
  0
LINE
  5
3B8
330
1A
100
AcDbEntity
  8
B.Paste
  6
CONTINUOUS
100
AcDbLine
 10
6.0657744488188978
 20
-2.3708279527559055
 30
0
 11
6.0689675984251963
 21
-2.3729615354330709
 31
0
  0
LINE
  5
3B9
330
1A
100
AcDbEntity
  8
B.Paste
  6
CONTINUOUS
100
AcDbLine
 10
6.0689675984251963
 20
-2.3729615354330709
 30
0
 11
6.0711011811023621
 21
-2.3761546850393702
 31
0
  0
LINE
  5
3BA
330
1A
100
AcDbEntity
  8
B.Paste
  6
CONTINUOUS
100
AcDbLine
 10
6.0711011811023621
 20
-2.3761546850393702
 30
0
 11
6.0718503937007871
 21
-2.3799212598425195
 31
0
  0
LINE
  5
3BB
330
1A
100
AcDbEntity
  8
B.Paste
  6
CONTINUOUS
100
AcDbLine
 10
6.0718503937007871
 20
-2.3799212598425195
 30
0
 11
6.0718503937007871
 21
-2.3996062992125982
 31
0
  0
LINE
  5
3BC
330
1A
100
AcDbEntity
  8
B.Paste
  6
CONTINUOUS
100
AcDbLine
 10
6.0718503937007871
 20
-2.3996062992125982
 30
0
 11
6.0711011811023621
 21
-2.4033728740157478
 31
0
  0
LINE
  5
3BD
330
1A
100
AcDbEntity
  8
B.Paste
  6
CONTINUOUS
100
AcDbLine
 10
6.0711011811023621
 20
-2.4033728740157478
 30
0
 11
6.0689675984251963
 21
-2.4065660236220472
 31
0
  0
LINE
  5
3BE
330
1A
100
AcDbEntity
  8
B.Paste
  6
CONTINUOUS
100
AcDbLine
 10
6.0689675984251963
 20
-2.4065660236220472
 30
0
 11
6.0657744488188978
 21
-2.4086996062992125
 31
0
  0
LINE
  5
3BF
330
1A
100
AcDbEntity
  8
B.Paste
  6
CONTINUOUS
100
AcDbLine
 10
6.0657744488188978
 20
-2.4086996062992125
 30
0
 11
6.0620078740157481
 21
-2.409448818897638
 31
0
  0
LINE
  5
3C0
330
1A
100
AcDbEntity
  8
B.Paste
  6
CONTINUOUS
100
AcDbLine
 10
6.0620078740157481
 20
-2.409448818897638
 30
0
 11
6.0246062992125982
 21
-2.409448818897638
 31
0
  0
LINE
  5
3C1
330
1A
100
AcDbEntity
  8
B.Paste
  6
CONTINUOUS
100
AcDbLine
 10
6.0246062992125982
 20
-2.409448818897638
 30
0
 11
6.0208397244094485
 21
-2.4086996062992125
 31
0
  0
LINE
  5
3C2
330
1A
100
AcDbEntity
  8
B.Paste
  6
CONTINUOUS
100
AcDbLine
 10
6.0208397244094485
 20
-2.4086996062992125
 30
0
 11
6.0176465748031491
 21
-2.4065660236220472
 31
0
  0
LINE
  5
3C3
330
1A
100
AcDbEntity
  8
B.Paste
  6
CONTINUOUS
100
AcDbLine
 10
6.0176465748031491
 20
-2.4065660236220472
 30
0
 11
6.0155129921259842
 21
-2.4033728740157478
 31
0
  0
LINE
  5
3C4
330
1A
100
AcDbEntity
  8
B.Paste
  6
CONTINUOUS
100
AcDbLine
 10
6.0155129921259842
 20
-2.4033728740157478
 30
0
 11
6.0147637795275593
 21
-2.3996062992125982
 31
0
  0
LINE
  5
3C5
330
1A
100
AcDbEntity
  8
B.Paste
  6
CONTINUOUS
100
AcDbLine
 10
6.0147637795275593
 20
-2.3996062992125982
 30
0
 11
6.0147637795275593
 21
-2.3799212598425195
 31
0
  0
LINE
  5
3C6
330
1A
100
AcDbEntity
  8
B.Paste
  6
CONTINUOUS
100
AcDbLine
 10
6.0147637795275593
 20
-2.3799212598425195
 30
0
 11
6.0155129921259842
 21
-2.3761546850393702
 31
0
  0
LINE
  5
3C7
330
1A
100
AcDbEntity
  8
B.Paste
  6
CONTINUOUS
100
AcDbLine
 10
6.0155129921259842
 20
-2.3761546850393702
 30
0
 11
6.0176465748031491
 21
-2.3729615354330709
 31
0
  0
LINE
  5
3C8
330
1A
100
AcDbEntity
  8
B.Paste
  6
CONTINUOUS
100
AcDbLine
 10
6.0176465748031491
 20
-2.3729615354330709
 30
0
 11
6.0208397244094485
 21
-2.3708279527559055
 31
0
  0
LINE
  5
3C9
330
1A
100
AcDbEntity
  8
B.Paste
  6
CONTINUOUS
100
AcDbLine
 10
6.0208397244094485
 20
-2.3708279527559055
 30
0
 11
6.0246062992125982
 21
-2.3700787401574801
 31
0
  0
LINE
  5
3CA
330
1A
100
AcDbEntity
  8
B.Paste
  6
CONTINUOUS
100
AcDbLine
 10
6.0246062992125982
 20
-2.3700787401574801
 30
0
 11
6.0620078740157481
 21
-2.3700787401574801
 31
0
  0
LINE
  5
3CB
330
1A
100
AcDbEntity
  8
B.Paste
  6
CONTINUOUS
100
AcDbLine
 10
6.0620078740157481
 20
-2.3700787401574801
 30
0
 11
6.0657744488188978
 21
-2.3708279527559055
 31
0
  0
LINE
  5
3CC
330
1A
100
AcDbEntity
  8
B.Paste
  6
CONTINUOUS
100
AcDbLine
 10
5.8610500393700784
 20
-2.3688594488188977
 30
0
 11
5.8642431889763778
 21
-2.370993031496063
 31
0
  0
LINE
  5
3CD
330
1A
100
AcDbEntity
  8
B.Paste
  6
CONTINUOUS
100
AcDbLine
 10
5.8642431889763778
 20
-2.370993031496063
 30
0
 11
5.8663767716535435
 21
-2.3741861811023623
 31
0
  0
LINE
  5
3CE
330
1A
100
AcDbEntity
  8
B.Paste
  6
CONTINUOUS
100
AcDbLine
 10
5.8663767716535435
 20
-2.3741861811023623
 30
0
 11
5.8671259842519685
 21
-2.3779527559055116
 31
0
  0
LINE
  5
3CF
330
1A
100
AcDbEntity
  8
B.Paste
  6
CONTINUOUS
100
AcDbLine
 10
5.8671259842519685
 20
-2.3779527559055116
 30
0
 11
5.8671259842519685
 21
-2.3976377952755903
 31
0
  0
LINE
  5
3D0
330
1A
100
AcDbEntity
  8
B.Paste
  6
CONTINUOUS
100
AcDbLine
 10
5.8671259842519685
 20
-2.3976377952755903
 30
0
 11
5.8663767716535435
 21
-2.40140437007874
 31
0
  0
LINE
  5
3D1
330
1A
100
AcDbEntity
  8
B.Paste
  6
CONTINUOUS
100
AcDbLine
 10
5.8663767716535435
 20
-2.40140437007874
 30
0
 11
5.8642431889763778
 21
-2.4045975196850393
 31
0
  0
LINE
  5
3D2
330
1A
100
AcDbEntity
  8
B.Paste
  6
CONTINUOUS
100
AcDbLine
 10
5.8642431889763778
 20
-2.4045975196850393
 30
0
 11
5.8610500393700784
 21
-2.4067311023622047
 31
0
  0
LINE
  5
3D3
330
1A
100
AcDbEntity
  8
B.Paste
  6
CONTINUOUS
100
AcDbLine
 10
5.8610500393700784
 20
-2.4067311023622047
 30
0
 11
5.8572834645669287
 21
-2.4074803149606301
 31
0
  0
LINE
  5
3D4
330
1A
100
AcDbEntity
  8
B.Paste
  6
CONTINUOUS
100
AcDbLine
 10
5.8572834645669287
 20
-2.4074803149606301
 30
0
 11
5.8198818897637796
 21
-2.4074803149606301
 31
0
  0
LINE
  5
3D5
330
1A
100
AcDbEntity
  8
B.Paste
  6
CONTINUOUS
100
AcDbLine
 10
5.8198818897637796
 20
-2.4074803149606301
 30
0
 11
5.8161153149606299
 21
-2.4067311023622047
 31
0
  0
LINE
  5
3D6
330
1A
100
AcDbEntity
  8
B.Paste
  6
CONTINUOUS
100
AcDbLine
 10
5.8161153149606299
 20
-2.4067311023622047
 30
0
 11
5.8129221653543306
 21
-2.4045975196850393
 31
0
  0
LINE
  5
3D7
330
1A
100
AcDbEntity
  8
B.Paste
  6
CONTINUOUS
100
AcDbLine
 10
5.8129221653543306
 20
-2.4045975196850393
 30
0
 11
5.8107885826771648
 21
-2.40140437007874
 31
0
  0
LINE
  5
3D8
330
1A
100
AcDbEntity
  8
B.Paste
  6
CONTINUOUS
100
AcDbLine
 10
5.8107885826771648
 20
-2.40140437007874
 30
0
 11
5.8100393700787398
 21
-2.3976377952755903
 31
0
  0
LINE
  5
3D9
330
1A
100
AcDbEntity
  8
B.Paste
  6
CONTINUOUS
100
AcDbLine
 10
5.8100393700787398
 20
-2.3976377952755903
 30
0
 11
5.8100393700787398
 21
-2.3779527559055116
 31
0
  0
LINE
  5
3DA
330
1A
100
AcDbEntity
  8
B.Paste
  6
CONTINUOUS
100
AcDbLine
 10
5.8100393700787398
 20
-2.3779527559055116
 30
0
 11
5.8107885826771648
 21
-2.3741861811023623
 31
0
  0
LINE
  5
3DB
330
1A
100
AcDbEntity
  8
B.Paste
  6
CONTINUOUS
100
AcDbLine
 10
5.8107885826771648
 20
-2.3741861811023623
 30
0
 11
5.8129221653543306
 21
-2.370993031496063
 31
0
  0
LINE
  5
3DC
330
1A
100
AcDbEntity
  8
B.Paste
  6
CONTINUOUS
100
AcDbLine
 10
5.8129221653543306
 20
-2.370993031496063
 30
0
 11
5.8161153149606299
 21
-2.3688594488188977
 31
0
  0
LINE
  5
3DD
330
1A
100
AcDbEntity
  8
B.Paste
  6
CONTINUOUS
100
AcDbLine
 10
5.8161153149606299
 20
-2.3688594488188977
 30
0
 11
5.8198818897637796
 21
-2.3681102362204722
 31
0
  0
LINE
  5
3DE
330
1A
100
AcDbEntity
  8
B.Paste
  6
CONTINUOUS
100
AcDbLine
 10
5.8198818897637796
 20
-2.3681102362204722
 30
0
 11
5.8572834645669287
 21
-2.3681102362204722
 31
0
  0
LINE
  5
3DF
330
1A
100
AcDbEntity
  8
B.Paste
  6
CONTINUOUS
100
AcDbLine
 10
5.8572834645669287
 20
-2.3681102362204722
 30
0
 11
5.8610500393700784
 21
-2.3688594488188977
 31
0
  0
ENDSEC
  0
SECTION
  2
OBJECTS
  0
DICTIONARY
  5
20
330
0
100
AcDbDictionary
281
1
  3
ACAD_GROUP
350
3E0
  3
ACAD_LAYOUT
350
21
  3
ACAD_PLOTSTYLENAME
350
11
  0
DICTIONARY
  5
3E0
330
20
100
AcDbDictionary
281
1
  0
ACDBDICTIONARYWDFLT
  5
11
330
20
100
AcDbDictionary
281
1
  3
Normal
350
10
100
AcDbDictionaryWithDefault
340
10
  0
ACDBPLACEHOLDER
  5
10
330
11
  0
DICTIONARY
  5
21
330
20
100
AcDbDictionary
281
1
  3
Model
350
1D
  3
Layout1
350
1E
  3
Layout2
350
1F
  0
LAYOUT
  5
1D
330
21
100
AcDbPlotSettings
  1

  2
none_device
  4
A3
  6

 40
0.0
 41
0.0
 42
0.0
 43
0.0
 44
420.0
 45
297.0
 46
0.0
 47
0.0
 48
0.0
 49
0.0
140
0.0
141
0.0
142
1.0
143
1.0
 70
1024
 72
1
 73
0
 74
5
  7

 75
16
 76
0
 77
2
 78
300
147
1.0
148
0.0
149
0.0
100
AcDbLayout
  1
Model
 70
1
 71
0
 10
0.0
 20
0.0
 11
420.0
 21
297.0
 12
0.0
 22
0.0
 32
0.0
 14
1e+20
 24
1e+20
 34
1e+20
 15
-1e+20
 25
-1e+20
 35
-1e+20
146
0.0
 13
0.0
 23
0.0
 33
0.0
 16
1.0
 26
0.0
 36
0.0
 17
0.0
 27
1.0
 37
0.0
 76
0
330
1A
  0
LAYOUT
  5
1E
330
21
100
AcDbPlotSettings
  1

  2
none_device
  4
A3
  6

 40
0.0
 41
0.0
 42
0.0
 43
0.0
 44
420.0
 45
297.0
 46
0.0
 47
0.0
 48
0.0
 49
0.0
140
0.0
141
0.0
142
1.0
143
1.0
 70
0
 72
1
 73
0
 74
5
  7

 75
16
 76
0
 77
2
 78
300
147
1.0
148
0.0
149
0.0
100
AcDbLayout
  1
Layout1
 70
1
 71
1
 10
0.0
 20
0.0
 11
420.0
 21
297.0
 12
0.0
 22
0.0
 32
0.0
 14
1e+20
 24
1e+20
 34
1e+20
 15
-1e+20
 25
-1e+20
 35
-1e+20
146
0.0
 13
0.0
 23
0.0
 33
0.0
 16
1.0
 26
0.0
 36
0.0
 17
0.0
 27
1.0
 37
0.0
 76
0
330
1B
  0
LAYOUT
  5
1F
330
21
100
AcDbPlotSettings
  1

  2
none_device
  4
A3
  6

 40
0.0
 41
0.0
 42
0.0
 43
0.0
 44
420.0
 45
297.0
 46
0.0
 47
0.0
 48
0.0
 49
0.0
140
0.0
141
0.0
142
1.0
143
1.0
 70
0
 72
1
 73
0
 74
5
  7

 75
16
 76
0
 77
2
 78
300
147
1.0
148
0.0
149
0.0
100
AcDbLayout
  1
Layout2
 70
1
 71
2
 10
0.0
 20
0.0
 11
420.0
 21
297.0
 12
0.0
 22
0.0
 32
0.0
 14
1e+20
 24
1e+20
 34
1e+20
 15
-1e+20
 25
-1e+20
 35
-1e+20
146
0.0
 13
0.0
 23
0.0
 33
0.0
 16
1.0
 26
0.0
 36
0.0
 17
0.0
 27
1.0
 37
0.0
 76
0
330
1C
  0
ENDSEC
  0
EOF
