%TF.GenerationSoftware,KiCad,Pcbnew,9.0.0*%
%TF.CreationDate,2025-08-28T17:52:35+02:00*%
%TF.ProjectId,audioVisualizer_PCB,61756469-6f56-4697-9375-616c697a6572,rev?*%
%TF.SameCoordinates,Original*%
%TF.FileFunction,Copper,L2,Bot*%
%TF.FilePolarity,Positive*%
%FSLAX46Y46*%
G04 Gerber Fmt 4.6, Leading zero omitted, Abs format (unit mm)*
G04 Created by KiCad (PCBNEW 9.0.0) date 2025-08-28 17:52:35*
%MOMM*%
%LPD*%
G01*
G04 APERTURE LIST*
%TA.AperFunction,HeatsinkPad*%
%ADD10O,0.900000X1.600000*%
%TD*%
%TA.AperFunction,ComponentPad*%
%ADD11R,1.700000X1.700000*%
%TD*%
%TA.AperFunction,ComponentPad*%
%ADD12O,1.700000X1.700000*%
%TD*%
%TA.AperFunction,ComponentPad*%
%ADD13C,1.500000*%
%TD*%
%TA.AperFunction,ViaPad*%
%ADD14C,0.600000*%
%TD*%
%TA.AperFunction,Conductor*%
%ADD15C,0.200000*%
%TD*%
G04 APERTURE END LIST*
D10*
%TO.P,J2,6,Shield*%
%TO.N,unconnected-(J2-Shield-Pad6)_4*%
X158600000Y-43000000D03*
%TO.N,unconnected-(J2-Shield-Pad6)_3*%
X152000000Y-43000000D03*
%TD*%
D11*
%TO.P,J1,1,Pin_1*%
%TO.N,/OUT*%
X107000000Y-58500000D03*
D12*
%TO.P,J1,2,Pin_2*%
%TO.N,GND*%
X107000000Y-55960000D03*
%TO.P,J1,3,Pin_3*%
%TO.N,+3.3V*%
X107000000Y-53420000D03*
%TD*%
D11*
%TO.P,JTAG,1,Pin_1*%
%TO.N,GND*%
X145800000Y-44000000D03*
D12*
%TO.P,JTAG,2,Pin_2*%
%TO.N,/SWDIO*%
X143260000Y-44000000D03*
%TO.P,JTAG,3,Pin_3*%
%TO.N,Net-(J4-Pin_3)*%
X140720000Y-44000000D03*
%TO.P,JTAG,4,Pin_4*%
%TO.N,VBUS*%
X138180000Y-44000000D03*
%TD*%
D13*
%TO.P,Y1,1,1*%
%TO.N,Net-(U1-PD1)*%
X115000000Y-58450000D03*
%TO.P,Y1,2,2*%
%TO.N,Net-(U1-PD0)*%
X115000000Y-53570000D03*
%TD*%
D11*
%TO.P,J3,1,Pin_1*%
%TO.N,/CLK*%
X172000000Y-59000000D03*
D12*
%TO.P,J3,2,Pin_2*%
%TO.N,/CS*%
X172000000Y-56460000D03*
%TO.P,J3,3,Pin_3*%
%TO.N,/DIN*%
X172000000Y-53920000D03*
%TO.P,J3,4,Pin_4*%
%TO.N,GND*%
X172000000Y-51380000D03*
%TO.P,J3,5,Pin_5*%
%TO.N,VBUS*%
X172000000Y-48840000D03*
%TD*%
D14*
%TO.N,/CLK*%
X133304200Y-58659800D03*
X138775900Y-65622000D03*
%TO.N,/CS*%
X167393100Y-70649500D03*
%TO.N,/DIN*%
X156236000Y-53958500D03*
X137470200Y-58659800D03*
%TO.N,/SWDIO*%
X141561000Y-54252000D03*
%TO.N,Net-(U1-NRST)*%
X127021400Y-67913500D03*
X132571200Y-56096000D03*
%TO.N,GND*%
X134721200Y-50327400D03*
X126678900Y-51090300D03*
X137939800Y-53400300D03*
X144859300Y-62331500D03*
X150092700Y-65200800D03*
X158742900Y-67913500D03*
X120545500Y-51903000D03*
X135784200Y-48376500D03*
X152041800Y-61518400D03*
X132715700Y-50321900D03*
X135000000Y-62000000D03*
X122000000Y-62500000D03*
X128000000Y-56500000D03*
X141159200Y-51167500D03*
X166826200Y-47785500D03*
X153228000Y-48376500D03*
%TD*%
D15*
%TO.N,/CLK*%
X138775900Y-64131500D02*
X133304200Y-58659800D01*
X138775900Y-65622000D02*
X138775900Y-64131500D01*
%TO.N,/CS*%
X167393100Y-61404100D02*
X171185500Y-57611700D01*
X171185500Y-57611700D02*
X172000000Y-57611700D01*
X167393100Y-70649500D02*
X167393100Y-61404100D01*
X172000000Y-56460000D02*
X172000000Y-57611700D01*
%TO.N,/DIN*%
X137470200Y-58659800D02*
X151534700Y-58659800D01*
X151534700Y-58659800D02*
X156236000Y-53958500D01*
%TO.N,/SWDIO*%
X141561000Y-54252000D02*
X143260000Y-52553000D01*
X143260000Y-52553000D02*
X143260000Y-44000000D01*
%TO.N,Net-(U1-NRST)*%
X127021400Y-67913500D02*
X132571200Y-62363700D01*
X132571200Y-62363700D02*
X132571200Y-56096000D01*
%TD*%
%TA.AperFunction,Conductor*%
%TO.N,GND*%
G36*
X151125876Y-42020185D02*
G01*
X151171631Y-42072989D01*
X151181575Y-42142147D01*
X151161939Y-42193391D01*
X151157681Y-42199762D01*
X151157676Y-42199771D01*
X151086027Y-42372748D01*
X151086025Y-42372756D01*
X151049500Y-42556379D01*
X151049500Y-43443620D01*
X151086025Y-43627243D01*
X151086027Y-43627251D01*
X151157676Y-43800228D01*
X151157681Y-43800237D01*
X151261697Y-43955907D01*
X151261700Y-43955911D01*
X151394088Y-44088299D01*
X151394092Y-44088302D01*
X151549762Y-44192318D01*
X151549768Y-44192321D01*
X151549769Y-44192322D01*
X151722749Y-44263973D01*
X151906379Y-44300499D01*
X151906383Y-44300500D01*
X151906384Y-44300500D01*
X152093617Y-44300500D01*
X152093618Y-44300499D01*
X152277251Y-44263973D01*
X152450231Y-44192322D01*
X152605908Y-44088302D01*
X152738302Y-43955908D01*
X152842322Y-43800231D01*
X152913973Y-43627251D01*
X152950500Y-43443616D01*
X152950500Y-42556384D01*
X152913973Y-42372749D01*
X152842322Y-42199769D01*
X152842321Y-42199768D01*
X152842318Y-42199762D01*
X152838061Y-42193391D01*
X152817183Y-42126714D01*
X152835667Y-42059333D01*
X152887646Y-42012643D01*
X152941163Y-42000500D01*
X157658837Y-42000500D01*
X157725876Y-42020185D01*
X157771631Y-42072989D01*
X157781575Y-42142147D01*
X157761939Y-42193391D01*
X157757681Y-42199762D01*
X157757676Y-42199771D01*
X157686027Y-42372748D01*
X157686025Y-42372756D01*
X157649500Y-42556379D01*
X157649500Y-43443620D01*
X157686025Y-43627243D01*
X157686027Y-43627251D01*
X157757676Y-43800228D01*
X157757681Y-43800237D01*
X157861697Y-43955907D01*
X157861700Y-43955911D01*
X157994088Y-44088299D01*
X157994092Y-44088302D01*
X158149762Y-44192318D01*
X158149768Y-44192321D01*
X158149769Y-44192322D01*
X158322749Y-44263973D01*
X158506379Y-44300499D01*
X158506383Y-44300500D01*
X158506384Y-44300500D01*
X158693617Y-44300500D01*
X158693618Y-44300499D01*
X158877251Y-44263973D01*
X159050231Y-44192322D01*
X159205908Y-44088302D01*
X159338302Y-43955908D01*
X159442322Y-43800231D01*
X159513973Y-43627251D01*
X159550500Y-43443616D01*
X159550500Y-42556384D01*
X159513973Y-42372749D01*
X159442322Y-42199769D01*
X159442321Y-42199768D01*
X159442318Y-42199762D01*
X159438061Y-42193391D01*
X159417183Y-42126714D01*
X159435667Y-42059333D01*
X159487646Y-42012643D01*
X159541163Y-42000500D01*
X173875500Y-42000500D01*
X173942539Y-42020185D01*
X173988294Y-42072989D01*
X173999500Y-42124500D01*
X173999500Y-71375500D01*
X173979815Y-71442539D01*
X173927011Y-71488294D01*
X173875500Y-71499500D01*
X167970621Y-71499500D01*
X167903582Y-71479815D01*
X167857827Y-71427011D01*
X167847883Y-71357853D01*
X167876908Y-71294297D01*
X167901729Y-71272399D01*
X167902639Y-71271789D01*
X167903389Y-71271289D01*
X168014889Y-71159789D01*
X168102494Y-71028679D01*
X168162837Y-70882997D01*
X168193600Y-70728342D01*
X168193600Y-70570658D01*
X168193600Y-70570655D01*
X168193599Y-70570653D01*
X168162838Y-70416010D01*
X168162837Y-70416003D01*
X168162835Y-70415998D01*
X168102497Y-70270327D01*
X168102490Y-70270314D01*
X168014498Y-70138625D01*
X167993620Y-70071947D01*
X167993600Y-70069734D01*
X167993600Y-61704197D01*
X168013285Y-61637158D01*
X168029919Y-61616516D01*
X168722857Y-60923578D01*
X170437821Y-59208613D01*
X170499142Y-59175130D01*
X170568834Y-59180114D01*
X170624767Y-59221986D01*
X170649184Y-59287450D01*
X170649500Y-59296296D01*
X170649500Y-59897870D01*
X170649501Y-59897876D01*
X170655908Y-59957483D01*
X170706202Y-60092328D01*
X170706206Y-60092335D01*
X170792452Y-60207544D01*
X170792455Y-60207547D01*
X170907664Y-60293793D01*
X170907671Y-60293797D01*
X171042517Y-60344091D01*
X171042516Y-60344091D01*
X171049444Y-60344835D01*
X171102127Y-60350500D01*
X172897872Y-60350499D01*
X172957483Y-60344091D01*
X173092331Y-60293796D01*
X173207546Y-60207546D01*
X173293796Y-60092331D01*
X173344091Y-59957483D01*
X173350500Y-59897873D01*
X173350499Y-58102128D01*
X173344091Y-58042517D01*
X173342556Y-58038402D01*
X173293797Y-57907671D01*
X173293793Y-57907664D01*
X173207547Y-57792455D01*
X173207544Y-57792452D01*
X173092335Y-57706206D01*
X173092328Y-57706202D01*
X172960917Y-57657189D01*
X172904983Y-57615318D01*
X172880566Y-57549853D01*
X172895418Y-57481580D01*
X172916563Y-57453332D01*
X173030104Y-57339792D01*
X173155051Y-57167816D01*
X173251557Y-56978412D01*
X173317246Y-56776243D01*
X173350500Y-56566287D01*
X173350500Y-56353713D01*
X173317246Y-56143757D01*
X173251557Y-55941588D01*
X173155051Y-55752184D01*
X173155049Y-55752181D01*
X173155048Y-55752179D01*
X173030109Y-55580213D01*
X172879786Y-55429890D01*
X172707820Y-55304951D01*
X172707115Y-55304591D01*
X172699054Y-55300485D01*
X172648259Y-55252512D01*
X172631463Y-55184692D01*
X172653999Y-55118556D01*
X172699054Y-55079515D01*
X172707816Y-55075051D01*
X172781200Y-55021735D01*
X172879786Y-54950109D01*
X172879788Y-54950106D01*
X172879792Y-54950104D01*
X173030104Y-54799792D01*
X173030106Y-54799788D01*
X173030109Y-54799786D01*
X173155048Y-54627820D01*
X173155047Y-54627820D01*
X173155051Y-54627816D01*
X173251557Y-54438412D01*
X173317246Y-54236243D01*
X173350500Y-54026287D01*
X173350500Y-53813713D01*
X173317246Y-53603757D01*
X173251557Y-53401588D01*
X173155051Y-53212184D01*
X173155049Y-53212181D01*
X173155048Y-53212179D01*
X173030109Y-53040213D01*
X172879786Y-52889890D01*
X172707817Y-52764949D01*
X172698504Y-52760204D01*
X172647707Y-52712230D01*
X172630912Y-52644409D01*
X172653449Y-52578274D01*
X172698507Y-52539232D01*
X172707558Y-52534620D01*
X172879459Y-52409727D01*
X172879464Y-52409723D01*
X173029723Y-52259464D01*
X173029727Y-52259459D01*
X173154620Y-52087557D01*
X173251095Y-51898217D01*
X173316757Y-51696129D01*
X173316757Y-51696126D01*
X173327231Y-51630000D01*
X172433012Y-51630000D01*
X172465925Y-51572993D01*
X172500000Y-51445826D01*
X172500000Y-51314174D01*
X172465925Y-51187007D01*
X172433012Y-51130000D01*
X173327231Y-51130000D01*
X173316757Y-51063873D01*
X173316757Y-51063870D01*
X173251095Y-50861782D01*
X173154620Y-50672442D01*
X173029727Y-50500540D01*
X173029723Y-50500535D01*
X172879464Y-50350276D01*
X172879459Y-50350272D01*
X172707555Y-50225377D01*
X172698500Y-50220763D01*
X172647706Y-50172788D01*
X172630912Y-50104966D01*
X172653451Y-50038832D01*
X172698508Y-49999793D01*
X172707816Y-49995051D01*
X172787007Y-49937515D01*
X172879786Y-49870109D01*
X172879788Y-49870106D01*
X172879792Y-49870104D01*
X173030104Y-49719792D01*
X173030106Y-49719788D01*
X173030109Y-49719786D01*
X173155048Y-49547820D01*
X173155047Y-49547820D01*
X173155051Y-49547816D01*
X173251557Y-49358412D01*
X173317246Y-49156243D01*
X173350500Y-48946287D01*
X173350500Y-48733713D01*
X173317246Y-48523757D01*
X173251557Y-48321588D01*
X173155051Y-48132184D01*
X173155049Y-48132181D01*
X173155048Y-48132179D01*
X173030109Y-47960213D01*
X172879786Y-47809890D01*
X172707820Y-47684951D01*
X172518414Y-47588444D01*
X172518413Y-47588443D01*
X172518412Y-47588443D01*
X172316243Y-47522754D01*
X172316241Y-47522753D01*
X172316240Y-47522753D01*
X172154957Y-47497208D01*
X172106287Y-47489500D01*
X171893713Y-47489500D01*
X171845042Y-47497208D01*
X171683760Y-47522753D01*
X171481585Y-47588444D01*
X171292179Y-47684951D01*
X171120213Y-47809890D01*
X170969890Y-47960213D01*
X170844951Y-48132179D01*
X170748444Y-48321585D01*
X170682753Y-48523760D01*
X170649500Y-48733713D01*
X170649500Y-48946286D01*
X170682753Y-49156239D01*
X170748444Y-49358414D01*
X170844951Y-49547820D01*
X170969890Y-49719786D01*
X171120213Y-49870109D01*
X171292179Y-49995048D01*
X171292181Y-49995049D01*
X171292184Y-49995051D01*
X171301493Y-49999794D01*
X171352290Y-50047766D01*
X171369087Y-50115587D01*
X171346552Y-50181722D01*
X171301502Y-50220762D01*
X171292443Y-50225378D01*
X171120540Y-50350272D01*
X171120535Y-50350276D01*
X170970276Y-50500535D01*
X170970272Y-50500540D01*
X170845379Y-50672442D01*
X170748904Y-50861782D01*
X170683242Y-51063870D01*
X170683242Y-51063873D01*
X170672769Y-51130000D01*
X171566988Y-51130000D01*
X171534075Y-51187007D01*
X171500000Y-51314174D01*
X171500000Y-51445826D01*
X171534075Y-51572993D01*
X171566988Y-51630000D01*
X170672769Y-51630000D01*
X170683242Y-51696126D01*
X170683242Y-51696129D01*
X170748904Y-51898217D01*
X170845379Y-52087557D01*
X170970272Y-52259459D01*
X170970276Y-52259464D01*
X171120535Y-52409723D01*
X171120540Y-52409727D01*
X171292444Y-52534622D01*
X171301495Y-52539234D01*
X171352292Y-52587208D01*
X171369087Y-52655029D01*
X171346550Y-52721164D01*
X171301499Y-52760202D01*
X171292182Y-52764949D01*
X171120213Y-52889890D01*
X170969890Y-53040213D01*
X170844951Y-53212179D01*
X170748444Y-53401585D01*
X170748443Y-53401587D01*
X170748443Y-53401588D01*
X170733294Y-53448211D01*
X170682753Y-53603760D01*
X170649500Y-53813713D01*
X170649500Y-54026286D01*
X170675746Y-54192001D01*
X170682754Y-54236243D01*
X170730973Y-54384646D01*
X170748444Y-54438414D01*
X170844951Y-54627820D01*
X170969890Y-54799786D01*
X171120213Y-54950109D01*
X171292182Y-55075050D01*
X171300946Y-55079516D01*
X171351742Y-55127491D01*
X171368536Y-55195312D01*
X171345998Y-55261447D01*
X171300946Y-55300484D01*
X171292182Y-55304949D01*
X171120213Y-55429890D01*
X170969890Y-55580213D01*
X170844951Y-55752179D01*
X170748444Y-55941585D01*
X170682753Y-56143760D01*
X170661788Y-56276129D01*
X170649500Y-56353713D01*
X170649500Y-56566287D01*
X170682754Y-56776243D01*
X170740229Y-56953133D01*
X170748445Y-56978417D01*
X170782175Y-57044617D01*
X170795071Y-57113286D01*
X170768794Y-57178026D01*
X170759371Y-57188592D01*
X167024386Y-60923578D01*
X166912581Y-61035382D01*
X166912579Y-61035385D01*
X166862461Y-61122194D01*
X166862459Y-61122196D01*
X166833525Y-61172309D01*
X166833524Y-61172310D01*
X166833523Y-61172315D01*
X166792599Y-61325043D01*
X166792599Y-61325045D01*
X166792599Y-61493146D01*
X166792600Y-61493159D01*
X166792600Y-70069734D01*
X166772915Y-70136773D01*
X166771702Y-70138625D01*
X166683709Y-70270314D01*
X166683702Y-70270327D01*
X166623364Y-70415998D01*
X166623361Y-70416010D01*
X166592600Y-70570653D01*
X166592600Y-70728346D01*
X166623361Y-70882989D01*
X166623364Y-70883001D01*
X166683702Y-71028672D01*
X166683709Y-71028685D01*
X166771310Y-71159788D01*
X166771313Y-71159792D01*
X166882807Y-71271286D01*
X166882814Y-71271291D01*
X166884471Y-71272399D01*
X166885143Y-71273203D01*
X166887519Y-71275153D01*
X166887149Y-71275603D01*
X166929276Y-71326012D01*
X166937982Y-71395337D01*
X166907826Y-71458364D01*
X166848383Y-71495082D01*
X166815579Y-71499500D01*
X106124500Y-71499500D01*
X106057461Y-71479815D01*
X106011706Y-71427011D01*
X106000500Y-71375500D01*
X106000500Y-67834653D01*
X126220900Y-67834653D01*
X126220900Y-67992346D01*
X126251661Y-68146989D01*
X126251664Y-68147001D01*
X126312002Y-68292672D01*
X126312009Y-68292685D01*
X126399610Y-68423788D01*
X126399613Y-68423792D01*
X126511107Y-68535286D01*
X126511111Y-68535289D01*
X126642214Y-68622890D01*
X126642227Y-68622897D01*
X126787898Y-68683235D01*
X126787903Y-68683237D01*
X126942553Y-68713999D01*
X126942556Y-68714000D01*
X126942558Y-68714000D01*
X127100244Y-68714000D01*
X127100245Y-68713999D01*
X127254897Y-68683237D01*
X127400579Y-68622894D01*
X127531689Y-68535289D01*
X127643189Y-68423789D01*
X127730794Y-68292679D01*
X127791137Y-68146997D01*
X127810513Y-68049585D01*
X127822038Y-67991650D01*
X127854423Y-67929739D01*
X127855918Y-67928216D01*
X132929706Y-62854427D01*
X132929711Y-62854424D01*
X132939914Y-62844220D01*
X132939916Y-62844220D01*
X133051720Y-62732416D01*
X133130777Y-62595484D01*
X133171700Y-62442757D01*
X133171700Y-59675897D01*
X133191385Y-59608858D01*
X133244189Y-59563103D01*
X133313347Y-59553159D01*
X133376903Y-59582184D01*
X133383381Y-59588216D01*
X138139081Y-64343916D01*
X138172566Y-64405239D01*
X138175400Y-64431597D01*
X138175400Y-65042234D01*
X138155715Y-65109273D01*
X138154502Y-65111125D01*
X138066509Y-65242814D01*
X138066502Y-65242827D01*
X138006164Y-65388498D01*
X138006161Y-65388510D01*
X137975400Y-65543153D01*
X137975400Y-65700846D01*
X138006161Y-65855489D01*
X138006164Y-65855501D01*
X138066502Y-66001172D01*
X138066509Y-66001185D01*
X138154110Y-66132288D01*
X138154113Y-66132292D01*
X138265607Y-66243786D01*
X138265611Y-66243789D01*
X138396714Y-66331390D01*
X138396727Y-66331397D01*
X138542398Y-66391735D01*
X138542403Y-66391737D01*
X138697053Y-66422499D01*
X138697056Y-66422500D01*
X138697058Y-66422500D01*
X138854744Y-66422500D01*
X138854745Y-66422499D01*
X139009397Y-66391737D01*
X139155079Y-66331394D01*
X139286189Y-66243789D01*
X139397689Y-66132289D01*
X139485294Y-66001179D01*
X139545637Y-65855497D01*
X139576400Y-65700842D01*
X139576400Y-65543158D01*
X139576400Y-65543155D01*
X139576399Y-65543153D01*
X139545638Y-65388510D01*
X139545637Y-65388503D01*
X139545635Y-65388498D01*
X139485297Y-65242827D01*
X139485290Y-65242814D01*
X139397298Y-65111125D01*
X139376420Y-65044447D01*
X139376400Y-65042234D01*
X139376400Y-64052445D01*
X139376400Y-64052443D01*
X139335477Y-63899716D01*
X139335473Y-63899709D01*
X139256424Y-63762790D01*
X139256421Y-63762786D01*
X139256420Y-63762784D01*
X139144616Y-63650980D01*
X139144615Y-63650979D01*
X139140285Y-63646649D01*
X139140274Y-63646639D01*
X134138774Y-58645139D01*
X134105289Y-58583816D01*
X134104838Y-58581649D01*
X134104700Y-58580953D01*
X136669700Y-58580953D01*
X136669700Y-58738646D01*
X136700461Y-58893289D01*
X136700464Y-58893301D01*
X136760802Y-59038972D01*
X136760809Y-59038985D01*
X136848410Y-59170088D01*
X136848413Y-59170092D01*
X136959907Y-59281586D01*
X136959911Y-59281589D01*
X137091014Y-59369190D01*
X137091027Y-59369197D01*
X137236698Y-59429535D01*
X137236703Y-59429537D01*
X137337697Y-59449626D01*
X137391353Y-59460299D01*
X137391356Y-59460300D01*
X137391358Y-59460300D01*
X137549044Y-59460300D01*
X137549045Y-59460299D01*
X137703697Y-59429537D01*
X137849379Y-59369194D01*
X137849385Y-59369190D01*
X137981075Y-59281198D01*
X138047753Y-59260320D01*
X138049966Y-59260300D01*
X151448031Y-59260300D01*
X151448047Y-59260301D01*
X151455643Y-59260301D01*
X151613754Y-59260301D01*
X151613757Y-59260301D01*
X151766485Y-59219377D01*
X151816604Y-59190439D01*
X151903416Y-59140320D01*
X152015220Y-59028516D01*
X152015220Y-59028514D01*
X152025428Y-59018307D01*
X152025429Y-59018304D01*
X156250662Y-54793072D01*
X156311983Y-54759589D01*
X156314150Y-54759138D01*
X156372085Y-54747613D01*
X156469497Y-54728237D01*
X156615179Y-54667894D01*
X156746289Y-54580289D01*
X156857789Y-54468789D01*
X156945394Y-54337679D01*
X157005737Y-54191997D01*
X157036500Y-54037342D01*
X157036500Y-53879658D01*
X157036500Y-53879655D01*
X157036499Y-53879653D01*
X157033152Y-53862826D01*
X157005737Y-53725003D01*
X156982301Y-53668422D01*
X156945397Y-53579327D01*
X156945390Y-53579314D01*
X156857789Y-53448211D01*
X156857786Y-53448207D01*
X156746292Y-53336713D01*
X156746288Y-53336710D01*
X156615185Y-53249109D01*
X156615172Y-53249102D01*
X156469501Y-53188764D01*
X156469489Y-53188761D01*
X156314845Y-53158000D01*
X156314842Y-53158000D01*
X156157158Y-53158000D01*
X156157155Y-53158000D01*
X156002510Y-53188761D01*
X156002498Y-53188764D01*
X155856827Y-53249102D01*
X155856814Y-53249109D01*
X155725711Y-53336710D01*
X155725707Y-53336713D01*
X155614213Y-53448207D01*
X155614210Y-53448211D01*
X155526609Y-53579314D01*
X155526602Y-53579327D01*
X155466264Y-53724998D01*
X155466261Y-53725008D01*
X155435361Y-53880350D01*
X155402976Y-53942261D01*
X155401425Y-53943839D01*
X151322284Y-58022981D01*
X151260961Y-58056466D01*
X151234603Y-58059300D01*
X138049966Y-58059300D01*
X137982927Y-58039615D01*
X137981075Y-58038402D01*
X137849385Y-57950409D01*
X137849372Y-57950402D01*
X137703701Y-57890064D01*
X137703689Y-57890061D01*
X137549045Y-57859300D01*
X137549042Y-57859300D01*
X137391358Y-57859300D01*
X137391355Y-57859300D01*
X137236710Y-57890061D01*
X137236698Y-57890064D01*
X137091027Y-57950402D01*
X137091014Y-57950409D01*
X136959911Y-58038010D01*
X136959907Y-58038013D01*
X136848413Y-58149507D01*
X136848410Y-58149511D01*
X136760809Y-58280614D01*
X136760802Y-58280627D01*
X136700464Y-58426298D01*
X136700461Y-58426310D01*
X136669700Y-58580953D01*
X134104700Y-58580953D01*
X134073938Y-58426310D01*
X134073937Y-58426303D01*
X134042985Y-58351577D01*
X134013597Y-58280627D01*
X134013590Y-58280614D01*
X133925989Y-58149511D01*
X133925986Y-58149507D01*
X133814492Y-58038013D01*
X133814488Y-58038010D01*
X133683385Y-57950409D01*
X133683372Y-57950402D01*
X133537701Y-57890064D01*
X133537689Y-57890061D01*
X133383045Y-57859300D01*
X133383042Y-57859300D01*
X133295700Y-57859300D01*
X133228661Y-57839615D01*
X133182906Y-57786811D01*
X133171700Y-57735300D01*
X133171700Y-56675765D01*
X133191385Y-56608726D01*
X133192598Y-56606874D01*
X133219718Y-56566287D01*
X133280594Y-56475179D01*
X133340937Y-56329497D01*
X133371700Y-56174842D01*
X133371700Y-56017158D01*
X133371700Y-56017155D01*
X133371699Y-56017153D01*
X133356667Y-55941585D01*
X133340937Y-55862503D01*
X133295240Y-55752179D01*
X133280597Y-55716827D01*
X133280590Y-55716814D01*
X133192989Y-55585711D01*
X133192986Y-55585707D01*
X133081492Y-55474213D01*
X133081488Y-55474210D01*
X132950385Y-55386609D01*
X132950372Y-55386602D01*
X132804701Y-55326264D01*
X132804689Y-55326261D01*
X132650045Y-55295500D01*
X132650042Y-55295500D01*
X132492358Y-55295500D01*
X132492355Y-55295500D01*
X132337710Y-55326261D01*
X132337698Y-55326264D01*
X132192027Y-55386602D01*
X132192014Y-55386609D01*
X132060911Y-55474210D01*
X132060907Y-55474213D01*
X131949413Y-55585707D01*
X131949410Y-55585711D01*
X131861809Y-55716814D01*
X131861802Y-55716827D01*
X131801464Y-55862498D01*
X131801461Y-55862510D01*
X131770700Y-56017153D01*
X131770700Y-56174846D01*
X131801461Y-56329489D01*
X131801464Y-56329501D01*
X131861802Y-56475172D01*
X131861809Y-56475185D01*
X131949802Y-56606874D01*
X131970680Y-56673551D01*
X131970700Y-56675765D01*
X131970700Y-62063603D01*
X131951015Y-62130642D01*
X131934381Y-62151284D01*
X127006739Y-67078925D01*
X126945416Y-67112410D01*
X126943250Y-67112861D01*
X126787908Y-67143761D01*
X126787898Y-67143764D01*
X126642227Y-67204102D01*
X126642214Y-67204109D01*
X126511111Y-67291710D01*
X126511107Y-67291713D01*
X126399613Y-67403207D01*
X126399610Y-67403211D01*
X126312009Y-67534314D01*
X126312002Y-67534327D01*
X126251664Y-67679998D01*
X126251661Y-67680010D01*
X126220900Y-67834653D01*
X106000500Y-67834653D01*
X106000500Y-59974499D01*
X106020185Y-59907460D01*
X106072989Y-59861705D01*
X106124495Y-59850499D01*
X107897872Y-59850499D01*
X107957483Y-59844091D01*
X108092331Y-59793796D01*
X108207546Y-59707546D01*
X108293796Y-59592331D01*
X108344091Y-59457483D01*
X108350500Y-59397873D01*
X108350499Y-58351577D01*
X113749500Y-58351577D01*
X113749500Y-58548422D01*
X113780290Y-58742826D01*
X113841117Y-58930029D01*
X113930476Y-59105405D01*
X114046172Y-59264646D01*
X114185354Y-59403828D01*
X114344595Y-59519524D01*
X114410608Y-59553159D01*
X114519970Y-59608882D01*
X114519972Y-59608882D01*
X114519975Y-59608884D01*
X114620317Y-59641487D01*
X114707173Y-59669709D01*
X114901578Y-59700500D01*
X114901583Y-59700500D01*
X115098422Y-59700500D01*
X115292826Y-59669709D01*
X115480025Y-59608884D01*
X115655405Y-59519524D01*
X115814646Y-59403828D01*
X115953828Y-59264646D01*
X116069524Y-59105405D01*
X116158884Y-58930025D01*
X116219709Y-58742826D01*
X116240578Y-58611065D01*
X116250500Y-58548422D01*
X116250500Y-58351577D01*
X116219709Y-58157173D01*
X116182454Y-58042516D01*
X116158884Y-57969975D01*
X116158882Y-57969972D01*
X116158882Y-57969970D01*
X116102493Y-57859300D01*
X116069524Y-57794595D01*
X115953828Y-57635354D01*
X115814646Y-57496172D01*
X115655405Y-57380476D01*
X115480029Y-57291117D01*
X115292826Y-57230290D01*
X115098422Y-57199500D01*
X115098417Y-57199500D01*
X114901583Y-57199500D01*
X114901578Y-57199500D01*
X114707173Y-57230290D01*
X114519970Y-57291117D01*
X114344594Y-57380476D01*
X114253741Y-57446485D01*
X114185354Y-57496172D01*
X114185352Y-57496174D01*
X114185351Y-57496174D01*
X114046174Y-57635351D01*
X114046174Y-57635352D01*
X114046172Y-57635354D01*
X114031238Y-57655909D01*
X113930476Y-57794594D01*
X113841117Y-57969970D01*
X113780290Y-58157173D01*
X113749500Y-58351577D01*
X108350499Y-58351577D01*
X108350499Y-57602128D01*
X108344091Y-57542517D01*
X108326806Y-57496174D01*
X108293797Y-57407671D01*
X108293793Y-57407664D01*
X108207547Y-57292455D01*
X108207544Y-57292452D01*
X108092335Y-57206206D01*
X108092328Y-57206202D01*
X107960401Y-57156997D01*
X107904467Y-57115126D01*
X107880050Y-57049662D01*
X107894902Y-56981389D01*
X107916053Y-56953133D01*
X108029728Y-56839458D01*
X108154620Y-56667557D01*
X108251095Y-56478217D01*
X108316757Y-56276129D01*
X108316757Y-56276126D01*
X108327231Y-56210000D01*
X107433012Y-56210000D01*
X107465925Y-56152993D01*
X107500000Y-56025826D01*
X107500000Y-55894174D01*
X107465925Y-55767007D01*
X107433012Y-55710000D01*
X108327231Y-55710000D01*
X108316757Y-55643873D01*
X108316757Y-55643870D01*
X108251095Y-55441782D01*
X108154620Y-55252442D01*
X108029727Y-55080540D01*
X108029723Y-55080535D01*
X107879464Y-54930276D01*
X107879459Y-54930272D01*
X107707555Y-54805377D01*
X107698500Y-54800763D01*
X107647706Y-54752788D01*
X107630912Y-54684966D01*
X107653451Y-54618832D01*
X107698508Y-54579793D01*
X107707816Y-54575051D01*
X107831072Y-54485501D01*
X107879786Y-54450109D01*
X107879788Y-54450106D01*
X107879792Y-54450104D01*
X108030104Y-54299792D01*
X108030106Y-54299788D01*
X108030109Y-54299786D01*
X108155048Y-54127820D01*
X108155047Y-54127820D01*
X108155051Y-54127816D01*
X108251557Y-53938412D01*
X108317246Y-53736243D01*
X108350500Y-53526287D01*
X108350500Y-53471577D01*
X113749500Y-53471577D01*
X113749500Y-53668422D01*
X113780290Y-53862826D01*
X113841117Y-54050029D01*
X113880752Y-54127816D01*
X113930476Y-54225405D01*
X114046172Y-54384646D01*
X114185354Y-54523828D01*
X114344595Y-54639524D01*
X114400267Y-54667890D01*
X114519970Y-54728882D01*
X114519972Y-54728882D01*
X114519975Y-54728884D01*
X114593544Y-54752788D01*
X114707173Y-54789709D01*
X114901578Y-54820500D01*
X114901583Y-54820500D01*
X115098422Y-54820500D01*
X115292826Y-54789709D01*
X115480025Y-54728884D01*
X115655405Y-54639524D01*
X115814646Y-54523828D01*
X115953828Y-54384646D01*
X116069524Y-54225405D01*
X116158884Y-54050025D01*
X116219709Y-53862826D01*
X116238892Y-53741711D01*
X116250500Y-53668422D01*
X116250500Y-53471577D01*
X116219709Y-53277173D01*
X116158882Y-53089970D01*
X116069523Y-52914594D01*
X115953828Y-52755354D01*
X115814646Y-52616172D01*
X115655405Y-52500476D01*
X115588425Y-52466348D01*
X115480029Y-52411117D01*
X115292826Y-52350290D01*
X115098422Y-52319500D01*
X115098417Y-52319500D01*
X114901583Y-52319500D01*
X114901578Y-52319500D01*
X114707173Y-52350290D01*
X114519970Y-52411117D01*
X114344594Y-52500476D01*
X114289902Y-52540213D01*
X114185354Y-52616172D01*
X114185352Y-52616174D01*
X114185351Y-52616174D01*
X114046174Y-52755351D01*
X114046174Y-52755352D01*
X114046172Y-52755354D01*
X114039201Y-52764949D01*
X113930476Y-52914594D01*
X113841117Y-53089970D01*
X113780290Y-53277173D01*
X113749500Y-53471577D01*
X108350500Y-53471577D01*
X108350500Y-53313713D01*
X108317246Y-53103757D01*
X108251557Y-52901588D01*
X108155051Y-52712184D01*
X108155049Y-52712181D01*
X108155048Y-52712179D01*
X108030109Y-52540213D01*
X107879786Y-52389890D01*
X107707820Y-52264951D01*
X107518414Y-52168444D01*
X107518413Y-52168443D01*
X107518412Y-52168443D01*
X107316243Y-52102754D01*
X107316241Y-52102753D01*
X107316240Y-52102753D01*
X107154957Y-52077208D01*
X107106287Y-52069500D01*
X106893713Y-52069500D01*
X106845042Y-52077208D01*
X106683760Y-52102753D01*
X106481585Y-52168444D01*
X106292179Y-52264951D01*
X106197385Y-52333823D01*
X106131578Y-52357303D01*
X106063525Y-52341477D01*
X106014830Y-52291371D01*
X106000500Y-52233505D01*
X106000500Y-43893713D01*
X136829500Y-43893713D01*
X136829500Y-44106286D01*
X136862753Y-44316239D01*
X136928444Y-44518414D01*
X137024951Y-44707820D01*
X137149890Y-44879786D01*
X137300213Y-45030109D01*
X137472179Y-45155048D01*
X137472181Y-45155049D01*
X137472184Y-45155051D01*
X137661588Y-45251557D01*
X137863757Y-45317246D01*
X138073713Y-45350500D01*
X138073714Y-45350500D01*
X138286286Y-45350500D01*
X138286287Y-45350500D01*
X138496243Y-45317246D01*
X138698412Y-45251557D01*
X138887816Y-45155051D01*
X138974478Y-45092088D01*
X139059786Y-45030109D01*
X139059788Y-45030106D01*
X139059792Y-45030104D01*
X139210104Y-44879792D01*
X139210106Y-44879788D01*
X139210109Y-44879786D01*
X139335048Y-44707820D01*
X139335047Y-44707820D01*
X139335051Y-44707816D01*
X139339514Y-44699054D01*
X139387488Y-44648259D01*
X139455308Y-44631463D01*
X139521444Y-44653999D01*
X139560486Y-44699056D01*
X139564951Y-44707820D01*
X139689890Y-44879786D01*
X139840213Y-45030109D01*
X140012179Y-45155048D01*
X140012181Y-45155049D01*
X140012184Y-45155051D01*
X140201588Y-45251557D01*
X140403757Y-45317246D01*
X140613713Y-45350500D01*
X140613714Y-45350500D01*
X140826286Y-45350500D01*
X140826287Y-45350500D01*
X141036243Y-45317246D01*
X141238412Y-45251557D01*
X141427816Y-45155051D01*
X141514478Y-45092088D01*
X141599786Y-45030109D01*
X141599788Y-45030106D01*
X141599792Y-45030104D01*
X141750104Y-44879792D01*
X141750106Y-44879788D01*
X141750109Y-44879786D01*
X141875048Y-44707820D01*
X141875047Y-44707820D01*
X141875051Y-44707816D01*
X141879514Y-44699054D01*
X141927488Y-44648259D01*
X141995308Y-44631463D01*
X142061444Y-44653999D01*
X142100486Y-44699056D01*
X142104951Y-44707820D01*
X142229890Y-44879786D01*
X142380213Y-45030109D01*
X142552184Y-45155051D01*
X142552184Y-45155052D01*
X142591793Y-45175233D01*
X142642590Y-45223206D01*
X142659500Y-45285718D01*
X142659500Y-52252903D01*
X142639815Y-52319942D01*
X142623181Y-52340584D01*
X141546339Y-53417425D01*
X141485016Y-53450910D01*
X141482850Y-53451361D01*
X141327508Y-53482261D01*
X141327498Y-53482264D01*
X141181827Y-53542602D01*
X141181814Y-53542609D01*
X141050711Y-53630210D01*
X141050707Y-53630213D01*
X140939213Y-53741707D01*
X140939210Y-53741711D01*
X140851609Y-53872814D01*
X140851602Y-53872827D01*
X140791264Y-54018498D01*
X140791261Y-54018510D01*
X140760500Y-54173153D01*
X140760500Y-54330846D01*
X140791261Y-54485489D01*
X140791264Y-54485501D01*
X140851602Y-54631172D01*
X140851609Y-54631185D01*
X140939210Y-54762288D01*
X140939213Y-54762292D01*
X141050707Y-54873786D01*
X141050711Y-54873789D01*
X141181814Y-54961390D01*
X141181827Y-54961397D01*
X141327498Y-55021735D01*
X141327503Y-55021737D01*
X141482153Y-55052499D01*
X141482156Y-55052500D01*
X141482158Y-55052500D01*
X141639844Y-55052500D01*
X141639845Y-55052499D01*
X141794497Y-55021737D01*
X141940179Y-54961394D01*
X142071289Y-54873789D01*
X142182789Y-54762289D01*
X142270394Y-54631179D01*
X142330737Y-54485497D01*
X142360140Y-54337679D01*
X142361638Y-54330150D01*
X142394023Y-54268239D01*
X142395520Y-54266714D01*
X143628713Y-53033521D01*
X143628716Y-53033520D01*
X143740520Y-52921716D01*
X143790639Y-52834904D01*
X143819577Y-52784785D01*
X143860501Y-52632057D01*
X143860501Y-52473943D01*
X143860501Y-52466348D01*
X143860500Y-52466330D01*
X143860500Y-45285718D01*
X143880185Y-45218679D01*
X143928207Y-45175233D01*
X143967815Y-45155052D01*
X143967815Y-45155051D01*
X143967816Y-45155051D01*
X144139792Y-45030104D01*
X144253717Y-44916178D01*
X144315036Y-44882696D01*
X144384728Y-44887680D01*
X144440662Y-44929551D01*
X144457577Y-44960528D01*
X144506646Y-45092088D01*
X144506649Y-45092093D01*
X144592809Y-45207187D01*
X144592812Y-45207190D01*
X144707906Y-45293350D01*
X144707913Y-45293354D01*
X144842620Y-45343596D01*
X144842627Y-45343598D01*
X144902155Y-45349999D01*
X144902172Y-45350000D01*
X145550000Y-45350000D01*
X145550000Y-44433012D01*
X145607007Y-44465925D01*
X145734174Y-44500000D01*
X145865826Y-44500000D01*
X145992993Y-44465925D01*
X146050000Y-44433012D01*
X146050000Y-45350000D01*
X146697828Y-45350000D01*
X146697844Y-45349999D01*
X146757372Y-45343598D01*
X146757379Y-45343596D01*
X146892086Y-45293354D01*
X146892093Y-45293350D01*
X147007187Y-45207190D01*
X147007190Y-45207187D01*
X147093350Y-45092093D01*
X147093354Y-45092086D01*
X147143596Y-44957379D01*
X147143598Y-44957372D01*
X147149999Y-44897844D01*
X147150000Y-44897827D01*
X147150000Y-44250000D01*
X146233012Y-44250000D01*
X146265925Y-44192993D01*
X146300000Y-44065826D01*
X146300000Y-43934174D01*
X146265925Y-43807007D01*
X146233012Y-43750000D01*
X147150000Y-43750000D01*
X147150000Y-43102172D01*
X147149999Y-43102155D01*
X147143598Y-43042627D01*
X147143596Y-43042620D01*
X147093354Y-42907913D01*
X147093350Y-42907906D01*
X147007190Y-42792812D01*
X147007187Y-42792809D01*
X146892093Y-42706649D01*
X146892086Y-42706645D01*
X146757379Y-42656403D01*
X146757372Y-42656401D01*
X146697844Y-42650000D01*
X146050000Y-42650000D01*
X146050000Y-43566988D01*
X145992993Y-43534075D01*
X145865826Y-43500000D01*
X145734174Y-43500000D01*
X145607007Y-43534075D01*
X145550000Y-43566988D01*
X145550000Y-42650000D01*
X144902155Y-42650000D01*
X144842627Y-42656401D01*
X144842620Y-42656403D01*
X144707913Y-42706645D01*
X144707906Y-42706649D01*
X144592812Y-42792809D01*
X144592809Y-42792812D01*
X144506649Y-42907906D01*
X144506646Y-42907912D01*
X144457577Y-43039471D01*
X144415705Y-43095404D01*
X144350241Y-43119821D01*
X144281968Y-43104969D01*
X144253714Y-43083818D01*
X144139786Y-42969890D01*
X143967820Y-42844951D01*
X143778414Y-42748444D01*
X143778413Y-42748443D01*
X143778412Y-42748443D01*
X143576243Y-42682754D01*
X143576241Y-42682753D01*
X143576240Y-42682753D01*
X143414957Y-42657208D01*
X143366287Y-42649500D01*
X143153713Y-42649500D01*
X143105042Y-42657208D01*
X142943760Y-42682753D01*
X142741585Y-42748444D01*
X142552179Y-42844951D01*
X142380213Y-42969890D01*
X142229890Y-43120213D01*
X142104949Y-43292182D01*
X142100484Y-43300946D01*
X142052509Y-43351742D01*
X141984688Y-43368536D01*
X141918553Y-43345998D01*
X141879516Y-43300946D01*
X141875050Y-43292182D01*
X141750109Y-43120213D01*
X141599786Y-42969890D01*
X141427820Y-42844951D01*
X141238414Y-42748444D01*
X141238413Y-42748443D01*
X141238412Y-42748443D01*
X141036243Y-42682754D01*
X141036241Y-42682753D01*
X141036240Y-42682753D01*
X140874957Y-42657208D01*
X140826287Y-42649500D01*
X140613713Y-42649500D01*
X140565042Y-42657208D01*
X140403760Y-42682753D01*
X140201585Y-42748444D01*
X140012179Y-42844951D01*
X139840213Y-42969890D01*
X139689890Y-43120213D01*
X139564949Y-43292182D01*
X139560484Y-43300946D01*
X139512509Y-43351742D01*
X139444688Y-43368536D01*
X139378553Y-43345998D01*
X139339516Y-43300946D01*
X139335050Y-43292182D01*
X139210109Y-43120213D01*
X139059786Y-42969890D01*
X138887820Y-42844951D01*
X138698414Y-42748444D01*
X138698413Y-42748443D01*
X138698412Y-42748443D01*
X138496243Y-42682754D01*
X138496241Y-42682753D01*
X138496240Y-42682753D01*
X138334957Y-42657208D01*
X138286287Y-42649500D01*
X138073713Y-42649500D01*
X138025042Y-42657208D01*
X137863760Y-42682753D01*
X137661585Y-42748444D01*
X137472179Y-42844951D01*
X137300213Y-42969890D01*
X137149890Y-43120213D01*
X137024951Y-43292179D01*
X136928444Y-43481585D01*
X136862753Y-43683760D01*
X136829500Y-43893713D01*
X106000500Y-43893713D01*
X106000500Y-42124500D01*
X106020185Y-42057461D01*
X106072989Y-42011706D01*
X106124500Y-42000500D01*
X151058837Y-42000500D01*
X151125876Y-42020185D01*
G37*
%TD.AperFunction*%
%TD*%
M02*
