%TF.GenerationSoftware,KiCad,Pcbnew,10.0.4*%
%TF.CreationDate,2026-06-24T14:37:47+02:00*%
%TF.ProjectId,audioVisualizer_PCB,61756469-6f56-4697-9375-616c697a6572,rev?*%
%TF.SameCoordinates,Original*%
%TF.FileFunction,Copper,L2,Bot*%
%TF.FilePolarity,Positive*%
%FSLAX46Y46*%
G04 Gerber Fmt 4.6, Leading zero omitted, Abs format (unit mm)*
G04 Created by KiCad (PCBNEW 10.0.4) date 2026-06-24 14:37:47*
%MOMM*%
%LPD*%
G01*
G04 APERTURE LIST*
G04 Aperture macros list*
%AMRoundRect*
0 Rectangle with rounded corners*
0 $1 Rounding radius*
0 $2 $3 $4 $5 $6 $7 $8 $9 X,Y pos of 4 corners*
0 Add a 4 corners polygon primitive as box body*
4,1,4,$2,$3,$4,$5,$6,$7,$8,$9,$2,$3,0*
0 Add four circle primitives for the rounded corners*
1,1,$1+$1,$2,$3*
1,1,$1+$1,$4,$5*
1,1,$1+$1,$6,$7*
1,1,$1+$1,$8,$9*
0 Add four rect primitives between the rounded corners*
20,1,$1+$1,$2,$3,$4,$5,0*
20,1,$1+$1,$4,$5,$6,$7,0*
20,1,$1+$1,$6,$7,$8,$9,0*
20,1,$1+$1,$8,$9,$2,$3,0*%
G04 Aperture macros list end*
%TA.AperFunction,ComponentPad*%
%ADD10O,2.100000X1.000000*%
%TD*%
%TA.AperFunction,ComponentPad*%
%ADD11O,1.800000X1.000000*%
%TD*%
%TA.AperFunction,SMDPad,CuDef*%
%ADD12RoundRect,0.150000X0.425000X-0.150000X0.425000X0.150000X-0.425000X0.150000X-0.425000X-0.150000X0*%
%TD*%
%TA.AperFunction,SMDPad,CuDef*%
%ADD13RoundRect,0.075000X0.500000X-0.075000X0.500000X0.075000X-0.500000X0.075000X-0.500000X-0.075000X0*%
%TD*%
%TA.AperFunction,SMDPad,CuDef*%
%ADD14RoundRect,0.375000X0.375000X-0.625000X0.375000X0.625000X-0.375000X0.625000X-0.375000X-0.625000X0*%
%TD*%
%TA.AperFunction,SMDPad,CuDef*%
%ADD15RoundRect,0.500000X1.400000X-0.500000X1.400000X0.500000X-1.400000X0.500000X-1.400000X-0.500000X0*%
%TD*%
%TA.AperFunction,ComponentPad*%
%ADD16R,1.700000X1.700000*%
%TD*%
%TA.AperFunction,ComponentPad*%
%ADD17C,1.700000*%
%TD*%
%TA.AperFunction,SMDPad,CuDef*%
%ADD18RoundRect,0.250000X0.250000X0.475000X-0.250000X0.475000X-0.250000X-0.475000X0.250000X-0.475000X0*%
%TD*%
%TA.AperFunction,SMDPad,CuDef*%
%ADD19RoundRect,0.250000X0.262500X0.450000X-0.262500X0.450000X-0.262500X-0.450000X0.262500X-0.450000X0*%
%TD*%
%TA.AperFunction,SMDPad,CuDef*%
%ADD20RoundRect,0.243750X0.243750X0.456250X-0.243750X0.456250X-0.243750X-0.456250X0.243750X-0.456250X0*%
%TD*%
%TA.AperFunction,SMDPad,CuDef*%
%ADD21RoundRect,0.250000X-0.450000X0.262500X-0.450000X-0.262500X0.450000X-0.262500X0.450000X0.262500X0*%
%TD*%
%TA.AperFunction,SMDPad,CuDef*%
%ADD22RoundRect,0.250000X-0.475000X0.250000X-0.475000X-0.250000X0.475000X-0.250000X0.475000X0.250000X0*%
%TD*%
%TA.AperFunction,SMDPad,CuDef*%
%ADD23RoundRect,0.250000X0.475000X-0.250000X0.475000X0.250000X-0.475000X0.250000X-0.475000X-0.250000X0*%
%TD*%
%TA.AperFunction,SMDPad,CuDef*%
%ADD24R,1.000000X1.000000*%
%TD*%
%TA.AperFunction,ViaPad*%
%ADD25C,0.600000*%
%TD*%
%TA.AperFunction,Conductor*%
%ADD26C,0.500000*%
%TD*%
%TA.AperFunction,Conductor*%
%ADD27C,0.200000*%
%TD*%
G04 APERTURE END LIST*
D10*
%TO.P,J1,SH,SHIELD_SH*%
%TO.N,unconnected-(J1-SHIELD-PadSH)*%
X42980000Y-71860000D03*
D11*
%TO.N,unconnected-(J1-SHIELD-PadSH)_3*%
X38800000Y-71860000D03*
D10*
%TO.N,unconnected-(J1-SHIELD-PadSH)_1*%
X42980000Y-80500000D03*
D11*
%TO.N,unconnected-(J1-SHIELD-PadSH)_2*%
X38800000Y-80500000D03*
D12*
%TO.P,J1,B12,GND_B12*%
%TO.N,GND*%
X43555000Y-79380000D03*
%TO.P,J1,B9,VBUS_B9*%
%TO.N,+5V*%
X43555000Y-78580000D03*
D13*
%TO.P,J1,B8,SBU2_B8*%
%TO.N,unconnected-(J1-SBU2-PadB8)*%
X43555000Y-77930000D03*
%TO.P,J1,B7,D-_B7*%
%TO.N,unconnected-(J1-D--PadA7)*%
X43555000Y-76930000D03*
%TO.P,J1,B6,D+_B6*%
%TO.N,unconnected-(J1-D+-PadA6)*%
X43555000Y-75430000D03*
%TO.P,J1,B5,CC2_B5*%
%TO.N,Net-(J1-CC2)*%
X43555000Y-74430000D03*
D12*
%TO.P,J1,B4,VBUS_B4*%
%TO.N,+5V*%
X43555000Y-73780000D03*
%TO.P,J1,B1,GND_B1*%
%TO.N,GND*%
X43555000Y-72980000D03*
%TO.P,J1,A12,GND_A12*%
X43555000Y-72980000D03*
%TO.P,J1,A9,VBUS_A9*%
%TO.N,+5V*%
X43555000Y-73780000D03*
D13*
%TO.P,J1,A8,SBU1_A8*%
%TO.N,unconnected-(J1-SBU1-PadA8)*%
X43555000Y-74930000D03*
%TO.P,J1,A7,D-_A7*%
%TO.N,unconnected-(J1-D--PadA7)*%
X43555000Y-75930000D03*
%TO.P,J1,A6,D+_A6*%
%TO.N,unconnected-(J1-D+-PadA6)*%
X43555000Y-76430000D03*
%TO.P,J1,A5,CC1_A5*%
%TO.N,Net-(J1-CC1)*%
X43555000Y-77430000D03*
D12*
%TO.P,J1,A4,VBUS_A4*%
%TO.N,+5V*%
X43555000Y-78580000D03*
%TO.P,J1,A1,GND_A1*%
%TO.N,GND*%
X43555000Y-79380000D03*
%TD*%
D14*
%TO.P,U1,3,VI_3*%
%TO.N,+5V*%
X75100000Y-77150000D03*
D15*
%TO.P,U1,2,VO_2*%
%TO.N,+3.3V*%
X77400000Y-70850000D03*
D14*
X77400000Y-77150000D03*
%TO.P,U1,1,GND_1*%
%TO.N,GND*%
X79700000Y-77150000D03*
%TD*%
D16*
%TO.P,J3,1,VCC_1*%
%TO.N,+5V*%
X165000000Y-60800000D03*
D17*
%TO.P,J3,2,GND_2*%
%TO.N,GND*%
X165000000Y-63340000D03*
%TO.P,J3,3,DIN_3*%
%TO.N,SPI_DIN*%
X165000000Y-65880000D03*
%TO.P,J3,4,CS_4*%
%TO.N,SPI_CS*%
X165000000Y-68420000D03*
%TO.P,J3,5,CLK_5*%
%TO.N,SPI_CLK*%
X165000000Y-70960000D03*
%TD*%
D16*
%TO.P,J2,1,Pin_1_1*%
%TO.N,SWDIO*%
X113380000Y-52650000D03*
D17*
%TO.P,J2,2,Pin_2_2*%
%TO.N,SWCLK*%
X110840000Y-52650000D03*
%TO.P,J2,3,Pin_3_3*%
%TO.N,GND*%
X108300000Y-52650000D03*
%TO.P,J2,4,Pin_4_4*%
%TO.N,+3.3V*%
X105760000Y-52650000D03*
%TD*%
D18*
%TO.P,C12,1*%
%TO.N,+3.3V*%
X70200000Y-70600000D03*
%TO.P,C12,2*%
%TO.N,GND*%
X68300000Y-70600000D03*
%TD*%
D19*
%TO.P,R3,1*%
%TO.N,GND*%
X50212500Y-76500000D03*
%TO.P,R3,2*%
%TO.N,Net-(J1-CC1)*%
X48387500Y-76500000D03*
%TD*%
D20*
%TO.P,D1,1,K_1*%
%TO.N,Net-(D1-K)*%
X86900000Y-73400000D03*
%TO.P,D1,2,A_2*%
%TO.N,+3.3V*%
X85025000Y-73400000D03*
%TD*%
D21*
%TO.P,R2,1*%
%TO.N,Net-(D1-K)*%
X87900000Y-76887500D03*
%TO.P,R2,2*%
%TO.N,GND*%
X87900000Y-78712500D03*
%TD*%
D22*
%TO.P,C15,1*%
%TO.N,+5V*%
X54100000Y-78450000D03*
%TO.P,C15,2*%
%TO.N,GND*%
X54100000Y-80350000D03*
%TD*%
D23*
%TO.P,C14,1*%
%TO.N,GND*%
X49300000Y-80450000D03*
%TO.P,C14,2*%
%TO.N,+5V*%
X49300000Y-78550000D03*
%TD*%
D24*
%TO.P,5V1,1,1_1*%
%TO.N,+5V*%
X60300000Y-78400000D03*
%TD*%
%TO.P,3V3,1,1_1*%
%TO.N,+3.3V*%
X70100000Y-66600000D03*
%TD*%
D21*
%TO.P,R6,1*%
%TO.N,Net-(D2-K)*%
X53500000Y-66600000D03*
%TO.P,R6,2*%
%TO.N,GND*%
X53500000Y-68425000D03*
%TD*%
D19*
%TO.P,R1,1*%
%TO.N,GND*%
X50125000Y-73000000D03*
%TO.P,R1,2*%
%TO.N,Net-(J1-CC2)*%
X48300000Y-73000000D03*
%TD*%
D20*
%TO.P,D2,1,K_1*%
%TO.N,Net-(D2-K)*%
X50037500Y-67600000D03*
%TO.P,D2,2,A_2*%
%TO.N,+5V*%
X48162500Y-67600000D03*
%TD*%
D24*
%TO.P,GND1,1,1_1*%
%TO.N,GND*%
X61500000Y-69000000D03*
%TD*%
D23*
%TO.P,C11,1*%
%TO.N,+5V*%
X68300000Y-77350000D03*
%TO.P,C11,2*%
%TO.N,GND*%
X68300000Y-75450000D03*
%TD*%
D25*
%TO.N,+3.3V*%
X70300000Y-62000000D03*
X80700000Y-66600000D03*
X120700000Y-59600000D03*
X39300000Y-63800000D03*
X151300000Y-55800000D03*
X128700000Y-55800000D03*
X111500000Y-70000000D03*
%TO.N,GND*%
X52300000Y-75600000D03*
X91900000Y-62000000D03*
X61500000Y-71800000D03*
X59500000Y-63600000D03*
X51700000Y-73000000D03*
X59500000Y-66200000D03*
X103900000Y-74000000D03*
X52700000Y-70200000D03*
X101900000Y-57350000D03*
X159700000Y-58000000D03*
X119900000Y-75400000D03*
X42100000Y-62000000D03*
X64900000Y-80000000D03*
X155500000Y-62400000D03*
X64900000Y-77200000D03*
X110100000Y-71400000D03*
X95500000Y-59000000D03*
X100700000Y-58000000D03*
X80700000Y-68600000D03*
X159515500Y-51600000D03*
X44900000Y-68600000D03*
X45100000Y-51400000D03*
%TO.N,MIC_SCK*%
X109900000Y-78600000D03*
X109900000Y-75200000D03*
%TO.N,MIC_SD*%
X135300000Y-61800000D03*
X115500000Y-65800000D03*
X124500000Y-53000000D03*
X113700000Y-75600000D03*
%TO.N,SPI_CS*%
X118100000Y-66000000D03*
X141700000Y-64800000D03*
%TO.N,SPI_CLK*%
X100900000Y-71800000D03*
%TO.N,SWDIO*%
X107500000Y-59000000D03*
X107500000Y-64200000D03*
%TO.N,Net-(U7-NRST)*%
X94500000Y-66800000D03*
X97900000Y-66200000D03*
%TD*%
%TO.N,+5V*%
D26*
X75100000Y-79800000D02*
X75100000Y-77150000D01*
%TO.N,GND*%
D27*
X79700000Y-77150000D02*
X86337500Y-77150000D01*
X86337500Y-77150000D02*
X87900000Y-78712500D01*
%TO.N,+3.3V*%
X77500000Y-73500000D02*
X84925000Y-73500000D01*
X77500000Y-73500000D02*
X77400000Y-73600000D01*
X77400000Y-73600000D02*
X77400000Y-77150000D01*
%TO.N,+5V*%
X68300000Y-77350000D02*
X74900000Y-77350000D01*
X74900000Y-77350000D02*
X75100000Y-77150000D01*
%TO.N,+3.3V*%
X40500000Y-65000000D02*
X67300000Y-65000000D01*
X84925000Y-73500000D02*
X85025000Y-73400000D01*
X67300000Y-65000000D02*
X70300000Y-62000000D01*
X111500000Y-68800000D02*
X120700000Y-59600000D01*
X70200000Y-66700000D02*
X70100000Y-66600000D01*
X70100000Y-62200000D02*
X70300000Y-62000000D01*
X77400000Y-68500000D02*
X77400000Y-73500000D01*
X80700000Y-66600000D02*
X79300000Y-66600000D01*
X70200000Y-70600000D02*
X70200000Y-66700000D01*
X73100000Y-73500000D02*
X70200000Y-70600000D01*
X79300000Y-66600000D02*
X77400000Y-68500000D01*
X39300000Y-63800000D02*
X40500000Y-65000000D01*
X128700000Y-55800000D02*
X151300000Y-55800000D01*
X70100000Y-66600000D02*
X70100000Y-62200000D01*
X77400000Y-73500000D02*
X77500000Y-73500000D01*
X111500000Y-70000000D02*
X111500000Y-68800000D01*
X77400000Y-73500000D02*
X73100000Y-73500000D01*
%TO.N,GND*%
X51400000Y-76500000D02*
X52300000Y-75600000D01*
X44480000Y-79380000D02*
X45450000Y-80350000D01*
X44900000Y-71635000D02*
X44900000Y-68600000D01*
X61500000Y-69000000D02*
X61500000Y-71800000D01*
X52700000Y-70200000D02*
X53500000Y-69400000D01*
X43555000Y-72980000D02*
X44900000Y-71635000D01*
X51400000Y-76500000D02*
X52300000Y-75600000D01*
X50212500Y-76500000D02*
X51400000Y-76500000D01*
X43555000Y-79380000D02*
X44480000Y-79380000D01*
X50125000Y-73000000D02*
X51700000Y-73000000D01*
X68300000Y-75450000D02*
X68300000Y-70600000D01*
X45450000Y-80350000D02*
X54100000Y-80350000D01*
X53500000Y-69400000D02*
X53500000Y-68425000D01*
%TO.N,MIC_SCK*%
X109900000Y-78600000D02*
X109900000Y-75200000D01*
%TO.N,MIC_SD*%
X113700000Y-75200000D02*
X113700000Y-75600000D01*
X133300000Y-61800000D02*
X135300000Y-61800000D01*
X124500000Y-53000000D02*
X133300000Y-61800000D01*
X115500000Y-65800000D02*
X115500000Y-73400000D01*
X115500000Y-73400000D02*
X113700000Y-75200000D01*
%TO.N,+5V*%
X42680000Y-78279999D02*
X42680000Y-74044594D01*
X54100000Y-78450000D02*
X60250000Y-78450000D01*
X43555000Y-78580000D02*
X42980001Y-78580000D01*
D26*
X144700000Y-81100000D02*
X165000000Y-60800000D01*
D27*
X43880000Y-78580000D02*
X43910000Y-78550000D01*
X60300000Y-78400000D02*
X67250000Y-78400000D01*
X43555000Y-78580000D02*
X43880000Y-78580000D01*
X67250000Y-78400000D02*
X68300000Y-77350000D01*
X43555000Y-73780000D02*
X44120000Y-73780000D01*
X43910000Y-78550000D02*
X49300000Y-78550000D01*
X42980001Y-78580000D02*
X42680000Y-78279999D01*
X44120000Y-73780000D02*
X48162500Y-69737500D01*
D26*
X76400000Y-81100000D02*
X144700000Y-81100000D01*
D27*
X54000000Y-78550000D02*
X54100000Y-78450000D01*
X49300000Y-78550000D02*
X54000000Y-78550000D01*
D26*
X75100000Y-79800000D02*
X76400000Y-81100000D01*
D27*
X42944594Y-73780000D02*
X43555000Y-73780000D01*
X53970000Y-78580000D02*
X54100000Y-78450000D01*
X48162500Y-69737500D02*
X48162500Y-67600000D01*
X42680000Y-74044594D02*
X42944594Y-73780000D01*
%TO.N,SPI_CS*%
X140500000Y-66000000D02*
X141700000Y-64800000D01*
X118100000Y-66000000D02*
X140500000Y-66000000D01*
%TO.N,SPI_CLK*%
X129748529Y-79200000D02*
X104700000Y-79200000D01*
X166150000Y-69810000D02*
X166150000Y-59650000D01*
X101300000Y-75800000D02*
X101300000Y-72200000D01*
X165000000Y-70960000D02*
X166150000Y-69810000D01*
X101300000Y-72200000D02*
X100900000Y-71800000D01*
X104700000Y-79200000D02*
X101300000Y-75800000D01*
X149298529Y-59650000D02*
X129748529Y-79200000D01*
X166150000Y-59650000D02*
X149298529Y-59650000D01*
%TO.N,SWDIO*%
X107500000Y-64200000D02*
X107500000Y-59000000D01*
%TO.N,Net-(U7-NRST)*%
X94500000Y-66800000D02*
X95100000Y-66200000D01*
X95100000Y-66200000D02*
X97900000Y-66200000D01*
%TO.N,Net-(J1-CC1)*%
X43555000Y-77430000D02*
X47457500Y-77430000D01*
X47457500Y-77430000D02*
X48387500Y-76500000D01*
%TO.N,Net-(D1-K)*%
X87900000Y-76887500D02*
X87900000Y-74400000D01*
X87900000Y-74400000D02*
X86900000Y-73400000D01*
%TO.N,Net-(D2-K)*%
X51037500Y-66600000D02*
X53500000Y-66600000D01*
X50037500Y-67600000D02*
X51037500Y-66600000D01*
%TO.N,Net-(J1-CC2)*%
X44270000Y-74430000D02*
X45700000Y-73000000D01*
X43555000Y-74430000D02*
X44270000Y-74430000D01*
X45700000Y-73000000D02*
X48300000Y-73000000D01*
%TD*%
%TA.AperFunction,Conductor*%
%TO.N,GND*%
G36*
X166257549Y-50114150D02*
G01*
X166303304Y-50166954D01*
X166314510Y-50218465D01*
X166314510Y-58925500D01*
X166294825Y-58992539D01*
X166242021Y-59038294D01*
X166190510Y-59049500D01*
X149219472Y-59049500D01*
X149066744Y-59090422D01*
X149061661Y-59093357D01*
X149059297Y-59094722D01*
X149059294Y-59094724D01*
X148929819Y-59169475D01*
X148929811Y-59169481D01*
X148865804Y-59233489D01*
X148818009Y-59281284D01*
X148818007Y-59281286D01*
X139160880Y-68938414D01*
X129536113Y-78563181D01*
X129474790Y-78596666D01*
X129448432Y-78599500D01*
X110817848Y-78599500D01*
X110750809Y-78579815D01*
X110705054Y-78527011D01*
X110696231Y-78499692D01*
X110669738Y-78366508D01*
X110669737Y-78366507D01*
X110669737Y-78366503D01*
X110658759Y-78339999D01*
X110609397Y-78220827D01*
X110609390Y-78220814D01*
X110521398Y-78089125D01*
X110500520Y-78022447D01*
X110500500Y-78020234D01*
X110500500Y-75779765D01*
X110520185Y-75712726D01*
X110521398Y-75710874D01*
X110530866Y-75696705D01*
X110609394Y-75579179D01*
X110669737Y-75433497D01*
X110700500Y-75278842D01*
X110700500Y-75121158D01*
X110700500Y-75121155D01*
X110700499Y-75121153D01*
X110690859Y-75072691D01*
X110669737Y-74966503D01*
X110646612Y-74910673D01*
X110609397Y-74820827D01*
X110609390Y-74820814D01*
X110521789Y-74689711D01*
X110521786Y-74689707D01*
X110410292Y-74578213D01*
X110410288Y-74578210D01*
X110279185Y-74490609D01*
X110279172Y-74490602D01*
X110133501Y-74430264D01*
X110133489Y-74430261D01*
X109978845Y-74399500D01*
X109978842Y-74399500D01*
X109821158Y-74399500D01*
X109821155Y-74399500D01*
X109666510Y-74430261D01*
X109666498Y-74430264D01*
X109520827Y-74490602D01*
X109520814Y-74490609D01*
X109389711Y-74578210D01*
X109389707Y-74578213D01*
X109278213Y-74689707D01*
X109278210Y-74689711D01*
X109190609Y-74820814D01*
X109190602Y-74820827D01*
X109130264Y-74966498D01*
X109130261Y-74966510D01*
X109099500Y-75121153D01*
X109099500Y-75278846D01*
X109130261Y-75433489D01*
X109130264Y-75433501D01*
X109190602Y-75579172D01*
X109190609Y-75579185D01*
X109278602Y-75710874D01*
X109299480Y-75777551D01*
X109299500Y-75779765D01*
X109299500Y-78020234D01*
X109279815Y-78087273D01*
X109278602Y-78089125D01*
X109190609Y-78220814D01*
X109190602Y-78220827D01*
X109130264Y-78366498D01*
X109130261Y-78366508D01*
X109103769Y-78499692D01*
X109071384Y-78561603D01*
X109010668Y-78596177D01*
X108982152Y-78599500D01*
X105000097Y-78599500D01*
X104933058Y-78579815D01*
X104912416Y-78563181D01*
X101936819Y-75587584D01*
X101903334Y-75526261D01*
X101900500Y-75499903D01*
X101900500Y-72120944D01*
X101900500Y-72120943D01*
X101889889Y-72081344D01*
X101889534Y-72080019D01*
X101859577Y-71968216D01*
X101807980Y-71878846D01*
X101780524Y-71831290D01*
X101780518Y-71831282D01*
X101734573Y-71785337D01*
X101701088Y-71724014D01*
X101700637Y-71721847D01*
X101689890Y-71667820D01*
X101669737Y-71566503D01*
X101660145Y-71543345D01*
X101609397Y-71420827D01*
X101609390Y-71420814D01*
X101521789Y-71289711D01*
X101521786Y-71289707D01*
X101410292Y-71178213D01*
X101410288Y-71178210D01*
X101279185Y-71090609D01*
X101279172Y-71090602D01*
X101133501Y-71030264D01*
X101133489Y-71030261D01*
X100978845Y-70999500D01*
X100978842Y-70999500D01*
X100821158Y-70999500D01*
X100821155Y-70999500D01*
X100666510Y-71030261D01*
X100666498Y-71030264D01*
X100520827Y-71090602D01*
X100520814Y-71090609D01*
X100389711Y-71178210D01*
X100389707Y-71178213D01*
X100278213Y-71289707D01*
X100278210Y-71289711D01*
X100190609Y-71420814D01*
X100190602Y-71420827D01*
X100130264Y-71566498D01*
X100130261Y-71566510D01*
X100099500Y-71721153D01*
X100099500Y-71878846D01*
X100130261Y-72033489D01*
X100130264Y-72033501D01*
X100190602Y-72179172D01*
X100190609Y-72179185D01*
X100278210Y-72310288D01*
X100278213Y-72310292D01*
X100389707Y-72421786D01*
X100389711Y-72421789D01*
X100520814Y-72509390D01*
X100520827Y-72509397D01*
X100622952Y-72551698D01*
X100677356Y-72595538D01*
X100699421Y-72661833D01*
X100699500Y-72666259D01*
X100699500Y-75713330D01*
X100699499Y-75713348D01*
X100699499Y-75879054D01*
X100699498Y-75879054D01*
X100740423Y-76031785D01*
X100759995Y-76065683D01*
X100759996Y-76065687D01*
X100819475Y-76168709D01*
X100819481Y-76168717D01*
X100938349Y-76287585D01*
X100938355Y-76287590D01*
X104215139Y-79564374D01*
X104215149Y-79564385D01*
X104219479Y-79568715D01*
X104219480Y-79568716D01*
X104331284Y-79680520D01*
X104410202Y-79726083D01*
X104468215Y-79759577D01*
X104620943Y-79800500D01*
X104779057Y-79800500D01*
X129661860Y-79800500D01*
X129661876Y-79800501D01*
X129669472Y-79800501D01*
X129827583Y-79800501D01*
X129827586Y-79800501D01*
X129980314Y-79759577D01*
X130038327Y-79726083D01*
X130117245Y-79680520D01*
X130229049Y-79568716D01*
X130229049Y-79568714D01*
X130239253Y-79558511D01*
X130239256Y-79558506D01*
X149510945Y-60286819D01*
X149572268Y-60253334D01*
X149598626Y-60250500D01*
X163525500Y-60250500D01*
X163592539Y-60270185D01*
X163638294Y-60322989D01*
X163649500Y-60374500D01*
X163649500Y-61037770D01*
X163629815Y-61104809D01*
X163613181Y-61125451D01*
X144425451Y-80313181D01*
X144364128Y-80346666D01*
X144337770Y-80349500D01*
X76762229Y-80349500D01*
X76695190Y-80329815D01*
X76674548Y-80313181D01*
X75886819Y-79525451D01*
X75853334Y-79464128D01*
X75850500Y-79437770D01*
X75850500Y-79024986D01*
X86700001Y-79024986D01*
X86710494Y-79127697D01*
X86765641Y-79294119D01*
X86765643Y-79294124D01*
X86857684Y-79443345D01*
X86981654Y-79567315D01*
X87130875Y-79659356D01*
X87130880Y-79659358D01*
X87297302Y-79714505D01*
X87297309Y-79714506D01*
X87400019Y-79724999D01*
X87649999Y-79724999D01*
X88150000Y-79724999D01*
X88399972Y-79724999D01*
X88399986Y-79724998D01*
X88502697Y-79714505D01*
X88669119Y-79659358D01*
X88669124Y-79659356D01*
X88818345Y-79567315D01*
X88942315Y-79443345D01*
X89034356Y-79294124D01*
X89034358Y-79294119D01*
X89089505Y-79127697D01*
X89089506Y-79127690D01*
X89099999Y-79024986D01*
X89100000Y-79024973D01*
X89100000Y-78962500D01*
X88150000Y-78962500D01*
X88150000Y-79724999D01*
X87649999Y-79724999D01*
X87650000Y-79724998D01*
X87650000Y-78962500D01*
X86700001Y-78962500D01*
X86700001Y-79024986D01*
X75850500Y-79024986D01*
X75850500Y-78642942D01*
X75870185Y-78575903D01*
X75919406Y-78531854D01*
X75929171Y-78527011D01*
X75949296Y-78517030D01*
X76097722Y-78397722D01*
X76153353Y-78328514D01*
X76210696Y-78288595D01*
X76280518Y-78286015D01*
X76340651Y-78321594D01*
X76346647Y-78328514D01*
X76402277Y-78397721D01*
X76402278Y-78397722D01*
X76550704Y-78517030D01*
X76550707Y-78517032D01*
X76721302Y-78601639D01*
X76721303Y-78601639D01*
X76721307Y-78601641D01*
X76906111Y-78647600D01*
X76948877Y-78650500D01*
X77851122Y-78650499D01*
X77893889Y-78647600D01*
X78078693Y-78601641D01*
X78249296Y-78517030D01*
X78397722Y-78397722D01*
X78453675Y-78328112D01*
X78511015Y-78288196D01*
X78580837Y-78285616D01*
X78640970Y-78321194D01*
X78646967Y-78328115D01*
X78702632Y-78397366D01*
X78702633Y-78397367D01*
X78850974Y-78516607D01*
X78850977Y-78516609D01*
X79021476Y-78601168D01*
X79206175Y-78647102D01*
X79248903Y-78650000D01*
X79450000Y-78650000D01*
X79950000Y-78650000D01*
X80151097Y-78650000D01*
X80193824Y-78647102D01*
X80378523Y-78601168D01*
X80549022Y-78516609D01*
X80549025Y-78516607D01*
X80697366Y-78397367D01*
X80697367Y-78397366D01*
X80816607Y-78249025D01*
X80816609Y-78249022D01*
X80901168Y-78078523D01*
X80947102Y-77893824D01*
X80950000Y-77851096D01*
X80950000Y-77400000D01*
X79950000Y-77400000D01*
X79950000Y-78650000D01*
X79450000Y-78650000D01*
X79450000Y-76900000D01*
X79950000Y-76900000D01*
X80950000Y-76900000D01*
X80950000Y-76448903D01*
X80947102Y-76406175D01*
X80901168Y-76221476D01*
X80816609Y-76050977D01*
X80816607Y-76050974D01*
X80697367Y-75902633D01*
X80697366Y-75902632D01*
X80549025Y-75783392D01*
X80549022Y-75783390D01*
X80378523Y-75698831D01*
X80193824Y-75652897D01*
X80151097Y-75650000D01*
X79950000Y-75650000D01*
X79950000Y-76900000D01*
X79450000Y-76900000D01*
X79450000Y-75650000D01*
X79248903Y-75650000D01*
X79206175Y-75652897D01*
X79021476Y-75698831D01*
X78850977Y-75783390D01*
X78850974Y-75783392D01*
X78702635Y-75902631D01*
X78646967Y-75971885D01*
X78589624Y-76011803D01*
X78519801Y-76014383D01*
X78459669Y-75978804D01*
X78453673Y-75971884D01*
X78397722Y-75902278D01*
X78397721Y-75902277D01*
X78249295Y-75782969D01*
X78249292Y-75782967D01*
X78072671Y-75695372D01*
X78073617Y-75693464D01*
X78025590Y-75657869D01*
X78000860Y-75592522D01*
X78000500Y-75583084D01*
X78000500Y-74224500D01*
X78020185Y-74157461D01*
X78072989Y-74111706D01*
X78124500Y-74100500D01*
X83989369Y-74100500D01*
X84056408Y-74120185D01*
X84097540Y-74167275D01*
X84098346Y-74166778D01*
X84101326Y-74171609D01*
X84101751Y-74172096D01*
X84102137Y-74172925D01*
X84193471Y-74320999D01*
X84193474Y-74321003D01*
X84316496Y-74444025D01*
X84316500Y-74444028D01*
X84464566Y-74535357D01*
X84464569Y-74535358D01*
X84464575Y-74535362D01*
X84629725Y-74590087D01*
X84731652Y-74600500D01*
X84731657Y-74600500D01*
X85318343Y-74600500D01*
X85318348Y-74600500D01*
X85420275Y-74590087D01*
X85585425Y-74535362D01*
X85733503Y-74444026D01*
X85856526Y-74321003D01*
X85856958Y-74320301D01*
X85857381Y-74319921D01*
X85861007Y-74315336D01*
X85861790Y-74315955D01*
X85908902Y-74273575D01*
X85977864Y-74262349D01*
X86041948Y-74290188D01*
X86063842Y-74315455D01*
X86063993Y-74315336D01*
X86066643Y-74318687D01*
X86068040Y-74320299D01*
X86068437Y-74320943D01*
X86068475Y-74321004D01*
X86191496Y-74444025D01*
X86191500Y-74444028D01*
X86339566Y-74535357D01*
X86339569Y-74535358D01*
X86339575Y-74535362D01*
X86504725Y-74590087D01*
X86606652Y-74600500D01*
X86606657Y-74600500D01*
X87175500Y-74600500D01*
X87242539Y-74620185D01*
X87288294Y-74672989D01*
X87299500Y-74724500D01*
X87299500Y-75794699D01*
X87279815Y-75861738D01*
X87227011Y-75907493D01*
X87214507Y-75912403D01*
X87181962Y-75923188D01*
X87130668Y-75940185D01*
X87130663Y-75940187D01*
X86981342Y-76032289D01*
X86857289Y-76156342D01*
X86765187Y-76305663D01*
X86765185Y-76305668D01*
X86751782Y-76346116D01*
X86710001Y-76472203D01*
X86710001Y-76472204D01*
X86710000Y-76472204D01*
X86699500Y-76574983D01*
X86699500Y-77200001D01*
X86699501Y-77200019D01*
X86710000Y-77302796D01*
X86710001Y-77302799D01*
X86744169Y-77405909D01*
X86765186Y-77469334D01*
X86850276Y-77607288D01*
X86857289Y-77618657D01*
X86951304Y-77712672D01*
X86984789Y-77773995D01*
X86979805Y-77843687D01*
X86951305Y-77888034D01*
X86857682Y-77981657D01*
X86765643Y-78130875D01*
X86765641Y-78130880D01*
X86710494Y-78297302D01*
X86710493Y-78297309D01*
X86700000Y-78400013D01*
X86700000Y-78462500D01*
X89099999Y-78462500D01*
X89099999Y-78400028D01*
X89099998Y-78400013D01*
X89089505Y-78297302D01*
X89034358Y-78130880D01*
X89034356Y-78130875D01*
X88942315Y-77981654D01*
X88848695Y-77888034D01*
X88815210Y-77826711D01*
X88820194Y-77757019D01*
X88848691Y-77712676D01*
X88942712Y-77618656D01*
X89034814Y-77469334D01*
X89089999Y-77302797D01*
X89100500Y-77200009D01*
X89100499Y-76574992D01*
X89097202Y-76542720D01*
X89089999Y-76472203D01*
X89089998Y-76472200D01*
X89082270Y-76448878D01*
X89034814Y-76305666D01*
X88942712Y-76156344D01*
X88818656Y-76032288D01*
X88669334Y-75940186D01*
X88585495Y-75912404D01*
X88528051Y-75872632D01*
X88501228Y-75808116D01*
X88500500Y-75794699D01*
X88500500Y-74489060D01*
X88500501Y-74489047D01*
X88500501Y-74320944D01*
X88500501Y-74320943D01*
X88459577Y-74168216D01*
X88440293Y-74134814D01*
X88380524Y-74031290D01*
X88380518Y-74031282D01*
X87924319Y-73575083D01*
X87890834Y-73513760D01*
X87888000Y-73487402D01*
X87888000Y-72894157D01*
X87887999Y-72894144D01*
X87887877Y-72892948D01*
X87877587Y-72792225D01*
X87822862Y-72627075D01*
X87822858Y-72627069D01*
X87822857Y-72627066D01*
X87731528Y-72479000D01*
X87731525Y-72478996D01*
X87608503Y-72355974D01*
X87608499Y-72355971D01*
X87460433Y-72264642D01*
X87460427Y-72264639D01*
X87460425Y-72264638D01*
X87358550Y-72230880D01*
X87295276Y-72209913D01*
X87193355Y-72199500D01*
X87193348Y-72199500D01*
X86606652Y-72199500D01*
X86606644Y-72199500D01*
X86504723Y-72209913D01*
X86339577Y-72264637D01*
X86339566Y-72264642D01*
X86191500Y-72355971D01*
X86191496Y-72355974D01*
X86068474Y-72478996D01*
X86068471Y-72479000D01*
X86068038Y-72479703D01*
X86067614Y-72480083D01*
X86063993Y-72484664D01*
X86063210Y-72484045D01*
X86016090Y-72526428D01*
X85947128Y-72537649D01*
X85883046Y-72509806D01*
X85861157Y-72484544D01*
X85861007Y-72484664D01*
X85858359Y-72481315D01*
X85856962Y-72479703D01*
X85856528Y-72479000D01*
X85856525Y-72478996D01*
X85733503Y-72355974D01*
X85733499Y-72355971D01*
X85585433Y-72264642D01*
X85585427Y-72264639D01*
X85585425Y-72264638D01*
X85483550Y-72230880D01*
X85420276Y-72209913D01*
X85318355Y-72199500D01*
X85318348Y-72199500D01*
X84731652Y-72199500D01*
X84731644Y-72199500D01*
X84629723Y-72209913D01*
X84464577Y-72264637D01*
X84464566Y-72264642D01*
X84316500Y-72355971D01*
X84316496Y-72355974D01*
X84193474Y-72478996D01*
X84193471Y-72479000D01*
X84102142Y-72627066D01*
X84102137Y-72627077D01*
X84047411Y-72792228D01*
X84045996Y-72798842D01*
X84043657Y-72798341D01*
X84021433Y-72852800D01*
X83964250Y-72892948D01*
X83924476Y-72899500D01*
X78124500Y-72899500D01*
X78057461Y-72879815D01*
X78011706Y-72827011D01*
X78000500Y-72775500D01*
X78000500Y-72474499D01*
X78020185Y-72407460D01*
X78072989Y-72361705D01*
X78124500Y-72350499D01*
X78858028Y-72350499D01*
X78858036Y-72350499D01*
X78977418Y-72339886D01*
X79173049Y-72283909D01*
X79353407Y-72189698D01*
X79511109Y-72061109D01*
X79639698Y-71903407D01*
X79733909Y-71723049D01*
X79789886Y-71527418D01*
X79800500Y-71408037D01*
X79800499Y-70291964D01*
X79789886Y-70172582D01*
X79733909Y-69976951D01*
X79704763Y-69921153D01*
X110699500Y-69921153D01*
X110699500Y-70078846D01*
X110730261Y-70233489D01*
X110730264Y-70233501D01*
X110790602Y-70379172D01*
X110790609Y-70379185D01*
X110878210Y-70510288D01*
X110878213Y-70510292D01*
X110989707Y-70621786D01*
X110989711Y-70621789D01*
X111120814Y-70709390D01*
X111120827Y-70709397D01*
X111266498Y-70769735D01*
X111266503Y-70769737D01*
X111421153Y-70800499D01*
X111421156Y-70800500D01*
X111421158Y-70800500D01*
X111578844Y-70800500D01*
X111578845Y-70800499D01*
X111733497Y-70769737D01*
X111879179Y-70709394D01*
X112010289Y-70621789D01*
X112121789Y-70510289D01*
X112209394Y-70379179D01*
X112269737Y-70233497D01*
X112300500Y-70078842D01*
X112300500Y-69921158D01*
X112300500Y-69921155D01*
X112300499Y-69921153D01*
X112279693Y-69816555D01*
X112269737Y-69766503D01*
X112237947Y-69689755D01*
X112209397Y-69620827D01*
X112209390Y-69620814D01*
X112121398Y-69489125D01*
X112100520Y-69422447D01*
X112100500Y-69420234D01*
X112100500Y-69100096D01*
X112120185Y-69033057D01*
X112136814Y-69012420D01*
X114687819Y-66461414D01*
X114749142Y-66427930D01*
X114818834Y-66432914D01*
X114874767Y-66474786D01*
X114899184Y-66540250D01*
X114899500Y-66549096D01*
X114899500Y-73099902D01*
X114879815Y-73166941D01*
X114863181Y-73187583D01*
X113219481Y-74831282D01*
X113219475Y-74831290D01*
X113174660Y-74908913D01*
X113174655Y-74908923D01*
X113170887Y-74915451D01*
X113140423Y-74968215D01*
X113125067Y-75025520D01*
X113121656Y-75033542D01*
X113108792Y-75049200D01*
X113095230Y-75072691D01*
X113078213Y-75089708D01*
X113078208Y-75089714D01*
X112990609Y-75220814D01*
X112990602Y-75220827D01*
X112930264Y-75366498D01*
X112930261Y-75366510D01*
X112899500Y-75521153D01*
X112899500Y-75678846D01*
X112930261Y-75833489D01*
X112930264Y-75833501D01*
X112990602Y-75979172D01*
X112990609Y-75979185D01*
X113078210Y-76110288D01*
X113078213Y-76110292D01*
X113189707Y-76221786D01*
X113189711Y-76221789D01*
X113320814Y-76309390D01*
X113320827Y-76309397D01*
X113442998Y-76360001D01*
X113466503Y-76369737D01*
X113621153Y-76400499D01*
X113621156Y-76400500D01*
X113621158Y-76400500D01*
X113778844Y-76400500D01*
X113778845Y-76400499D01*
X113933497Y-76369737D01*
X114079179Y-76309394D01*
X114210289Y-76221789D01*
X114321789Y-76110289D01*
X114409394Y-75979179D01*
X114469737Y-75833497D01*
X114500500Y-75678842D01*
X114500500Y-75521158D01*
X114500500Y-75521155D01*
X114500499Y-75521153D01*
X114468549Y-75360528D01*
X114470963Y-75360047D01*
X114470440Y-75300994D01*
X114502039Y-75247194D01*
X115858506Y-73890728D01*
X115858511Y-73890724D01*
X115868714Y-73880520D01*
X115868716Y-73880520D01*
X115980520Y-73768716D01*
X116059577Y-73631784D01*
X116100500Y-73479057D01*
X116100500Y-66379765D01*
X116120185Y-66312726D01*
X116121398Y-66310874D01*
X116137030Y-66287480D01*
X116209394Y-66179179D01*
X116269737Y-66033497D01*
X116292084Y-65921153D01*
X117299500Y-65921153D01*
X117299500Y-66078846D01*
X117330261Y-66233489D01*
X117330264Y-66233501D01*
X117390602Y-66379172D01*
X117390609Y-66379185D01*
X117478210Y-66510288D01*
X117478213Y-66510292D01*
X117589707Y-66621786D01*
X117589711Y-66621789D01*
X117720814Y-66709390D01*
X117720827Y-66709397D01*
X117842479Y-66759786D01*
X117866503Y-66769737D01*
X118021153Y-66800499D01*
X118021156Y-66800500D01*
X118021158Y-66800500D01*
X118178844Y-66800500D01*
X118178845Y-66800499D01*
X118333497Y-66769737D01*
X118477021Y-66710288D01*
X118479172Y-66709397D01*
X118479172Y-66709396D01*
X118479179Y-66709394D01*
X118516370Y-66684544D01*
X118610875Y-66621398D01*
X118677553Y-66600520D01*
X118679766Y-66600500D01*
X140413331Y-66600500D01*
X140413347Y-66600501D01*
X140420943Y-66600501D01*
X140579054Y-66600501D01*
X140579057Y-66600501D01*
X140731785Y-66559577D01*
X140798328Y-66521158D01*
X140868716Y-66480520D01*
X140980520Y-66368716D01*
X140980520Y-66368714D01*
X140990724Y-66358511D01*
X140990727Y-66358506D01*
X141714662Y-65634572D01*
X141775983Y-65601089D01*
X141778150Y-65600638D01*
X141836085Y-65589113D01*
X141933497Y-65569737D01*
X142079179Y-65509394D01*
X142210289Y-65421789D01*
X142321789Y-65310289D01*
X142409394Y-65179179D01*
X142412294Y-65172179D01*
X142469735Y-65033501D01*
X142469737Y-65033497D01*
X142500500Y-64878842D01*
X142500500Y-64721158D01*
X142500500Y-64721155D01*
X142500499Y-64721153D01*
X142492545Y-64681164D01*
X142469737Y-64566503D01*
X142446080Y-64509390D01*
X142409397Y-64420827D01*
X142409390Y-64420814D01*
X142321789Y-64289711D01*
X142321786Y-64289707D01*
X142210292Y-64178213D01*
X142210288Y-64178210D01*
X142079185Y-64090609D01*
X142079172Y-64090602D01*
X141933501Y-64030264D01*
X141933489Y-64030261D01*
X141778845Y-63999500D01*
X141778842Y-63999500D01*
X141621158Y-63999500D01*
X141621155Y-63999500D01*
X141466510Y-64030261D01*
X141466498Y-64030264D01*
X141320827Y-64090602D01*
X141320814Y-64090609D01*
X141189711Y-64178210D01*
X141189707Y-64178213D01*
X141078213Y-64289707D01*
X141078210Y-64289711D01*
X140990609Y-64420814D01*
X140990602Y-64420827D01*
X140930264Y-64566498D01*
X140930261Y-64566508D01*
X140899361Y-64721850D01*
X140866976Y-64783761D01*
X140865425Y-64785339D01*
X140287584Y-65363181D01*
X140226261Y-65396666D01*
X140199903Y-65399500D01*
X118679766Y-65399500D01*
X118612727Y-65379815D01*
X118610875Y-65378602D01*
X118479185Y-65290609D01*
X118479172Y-65290602D01*
X118333501Y-65230264D01*
X118333489Y-65230261D01*
X118178845Y-65199500D01*
X118178842Y-65199500D01*
X118021158Y-65199500D01*
X118021155Y-65199500D01*
X117866510Y-65230261D01*
X117866498Y-65230264D01*
X117720827Y-65290602D01*
X117720814Y-65290609D01*
X117589711Y-65378210D01*
X117589707Y-65378213D01*
X117478213Y-65489707D01*
X117478210Y-65489711D01*
X117390609Y-65620814D01*
X117390602Y-65620827D01*
X117330264Y-65766498D01*
X117330261Y-65766510D01*
X117299500Y-65921153D01*
X116292084Y-65921153D01*
X116298107Y-65890875D01*
X116298107Y-65890874D01*
X116300500Y-65878844D01*
X116300500Y-65721155D01*
X116300499Y-65721153D01*
X116292545Y-65681166D01*
X116269737Y-65566503D01*
X116254882Y-65530639D01*
X116209397Y-65420827D01*
X116209390Y-65420814D01*
X116121789Y-65289711D01*
X116121786Y-65289707D01*
X116078337Y-65246258D01*
X116044852Y-65184935D01*
X116049836Y-65115243D01*
X116078335Y-65070898D01*
X120714664Y-60434571D01*
X120775985Y-60401088D01*
X120778152Y-60400637D01*
X120778841Y-60400500D01*
X120778842Y-60400500D01*
X120933497Y-60369737D01*
X121079179Y-60309394D01*
X121210289Y-60221789D01*
X121321789Y-60110289D01*
X121409394Y-59979179D01*
X121469737Y-59833497D01*
X121500500Y-59678842D01*
X121500500Y-59521158D01*
X121500500Y-59521155D01*
X121500499Y-59521153D01*
X121498338Y-59510289D01*
X121469737Y-59366503D01*
X121469735Y-59366498D01*
X121409397Y-59220827D01*
X121409390Y-59220814D01*
X121321789Y-59089711D01*
X121321786Y-59089707D01*
X121210292Y-58978213D01*
X121210288Y-58978210D01*
X121079185Y-58890609D01*
X121079172Y-58890602D01*
X120933501Y-58830264D01*
X120933489Y-58830261D01*
X120778845Y-58799500D01*
X120778842Y-58799500D01*
X120621158Y-58799500D01*
X120621155Y-58799500D01*
X120466510Y-58830261D01*
X120466498Y-58830264D01*
X120320827Y-58890602D01*
X120320814Y-58890609D01*
X120189711Y-58978210D01*
X120189707Y-58978213D01*
X120078213Y-59089707D01*
X120078210Y-59089711D01*
X119990609Y-59220814D01*
X119990602Y-59220827D01*
X119930264Y-59366498D01*
X119930261Y-59366508D01*
X119899362Y-59521848D01*
X119866977Y-59583759D01*
X119865426Y-59585337D01*
X111131286Y-68319478D01*
X111019481Y-68431282D01*
X111019480Y-68431284D01*
X110970885Y-68515455D01*
X110969361Y-68518094D01*
X110969359Y-68518096D01*
X110940425Y-68568209D01*
X110940424Y-68568210D01*
X110940423Y-68568215D01*
X110899499Y-68720943D01*
X110899499Y-68720945D01*
X110899499Y-68889046D01*
X110899500Y-68889059D01*
X110899500Y-69420234D01*
X110879815Y-69487273D01*
X110878602Y-69489125D01*
X110790609Y-69620814D01*
X110790602Y-69620827D01*
X110730264Y-69766498D01*
X110730261Y-69766510D01*
X110699500Y-69921153D01*
X79704763Y-69921153D01*
X79639698Y-69796593D01*
X79567821Y-69708443D01*
X79511109Y-69638890D01*
X79353409Y-69510304D01*
X79353410Y-69510304D01*
X79353407Y-69510302D01*
X79173049Y-69416091D01*
X79173048Y-69416090D01*
X79173045Y-69416089D01*
X79055829Y-69382550D01*
X78977418Y-69360114D01*
X78977415Y-69360113D01*
X78977413Y-69360113D01*
X78904631Y-69353642D01*
X78858037Y-69349500D01*
X78858033Y-69349500D01*
X78124500Y-69349500D01*
X78057461Y-69329815D01*
X78011706Y-69277011D01*
X78000500Y-69225500D01*
X78000500Y-68800097D01*
X78020185Y-68733058D01*
X78036819Y-68712416D01*
X79512417Y-67236819D01*
X79573740Y-67203334D01*
X79600098Y-67200500D01*
X80120234Y-67200500D01*
X80187273Y-67220185D01*
X80189125Y-67221398D01*
X80320814Y-67309390D01*
X80320827Y-67309397D01*
X80400348Y-67342335D01*
X80466503Y-67369737D01*
X80621153Y-67400499D01*
X80621156Y-67400500D01*
X80621158Y-67400500D01*
X80778844Y-67400500D01*
X80778845Y-67400499D01*
X80933497Y-67369737D01*
X81079179Y-67309394D01*
X81210289Y-67221789D01*
X81321789Y-67110289D01*
X81409394Y-66979179D01*
X81469737Y-66833497D01*
X81484715Y-66758194D01*
X81492084Y-66721153D01*
X93699500Y-66721153D01*
X93699500Y-66878846D01*
X93730261Y-67033489D01*
X93730264Y-67033501D01*
X93790602Y-67179172D01*
X93790609Y-67179185D01*
X93878210Y-67310288D01*
X93878213Y-67310292D01*
X93989707Y-67421786D01*
X93989711Y-67421789D01*
X94120814Y-67509390D01*
X94120827Y-67509397D01*
X94247846Y-67562009D01*
X94266503Y-67569737D01*
X94388938Y-67594091D01*
X94421153Y-67600499D01*
X94421156Y-67600500D01*
X94421158Y-67600500D01*
X94578844Y-67600500D01*
X94578845Y-67600499D01*
X94733497Y-67569737D01*
X94879179Y-67509394D01*
X95010289Y-67421789D01*
X95121789Y-67310289D01*
X95209394Y-67179179D01*
X95269737Y-67033497D01*
X95277947Y-66992223D01*
X95296231Y-66900308D01*
X95328616Y-66838397D01*
X95389332Y-66803823D01*
X95417848Y-66800500D01*
X97320234Y-66800500D01*
X97387273Y-66820185D01*
X97389125Y-66821398D01*
X97520814Y-66909390D01*
X97520827Y-66909397D01*
X97666498Y-66969735D01*
X97666503Y-66969737D01*
X97821153Y-67000499D01*
X97821156Y-67000500D01*
X97821158Y-67000500D01*
X97978844Y-67000500D01*
X97978845Y-67000499D01*
X98133497Y-66969737D01*
X98279179Y-66909394D01*
X98410289Y-66821789D01*
X98521789Y-66710289D01*
X98609394Y-66579179D01*
X98669737Y-66433497D01*
X98700500Y-66278842D01*
X98700500Y-66121158D01*
X98700500Y-66121155D01*
X98700499Y-66121153D01*
X98694244Y-66089707D01*
X98669737Y-65966503D01*
X98624655Y-65857664D01*
X98609397Y-65820827D01*
X98609390Y-65820814D01*
X98521789Y-65689711D01*
X98521786Y-65689707D01*
X98410292Y-65578213D01*
X98410288Y-65578210D01*
X98279185Y-65490609D01*
X98279172Y-65490602D01*
X98133501Y-65430264D01*
X98133489Y-65430261D01*
X97978845Y-65399500D01*
X97978842Y-65399500D01*
X97821158Y-65399500D01*
X97821155Y-65399500D01*
X97666510Y-65430261D01*
X97666498Y-65430264D01*
X97520827Y-65490602D01*
X97520814Y-65490609D01*
X97389125Y-65578602D01*
X97322447Y-65599480D01*
X97320234Y-65599500D01*
X95020943Y-65599500D01*
X94868213Y-65640423D01*
X94840882Y-65656204D01*
X94840881Y-65656204D01*
X94731287Y-65719477D01*
X94731282Y-65719481D01*
X94619480Y-65831283D01*
X94619480Y-65831284D01*
X94619478Y-65831286D01*
X94544849Y-65905915D01*
X94485337Y-65965427D01*
X94424014Y-65998911D01*
X94421848Y-65999362D01*
X94266508Y-66030261D01*
X94266498Y-66030264D01*
X94120827Y-66090602D01*
X94120814Y-66090609D01*
X93989711Y-66178210D01*
X93989707Y-66178213D01*
X93878213Y-66289707D01*
X93878210Y-66289711D01*
X93790609Y-66420814D01*
X93790602Y-66420827D01*
X93730264Y-66566498D01*
X93730261Y-66566510D01*
X93699500Y-66721153D01*
X81492084Y-66721153D01*
X81498107Y-66690875D01*
X81498107Y-66690874D01*
X81500500Y-66678844D01*
X81500500Y-66521155D01*
X81500499Y-66521153D01*
X81492417Y-66480524D01*
X81469737Y-66366503D01*
X81466427Y-66358511D01*
X81409397Y-66220827D01*
X81409390Y-66220814D01*
X81321789Y-66089711D01*
X81321786Y-66089707D01*
X81210292Y-65978213D01*
X81210288Y-65978210D01*
X81079185Y-65890609D01*
X81079172Y-65890602D01*
X80933501Y-65830264D01*
X80933489Y-65830261D01*
X80778845Y-65799500D01*
X80778842Y-65799500D01*
X80621158Y-65799500D01*
X80621155Y-65799500D01*
X80466510Y-65830261D01*
X80466498Y-65830264D01*
X80320827Y-65890602D01*
X80320814Y-65890609D01*
X80189125Y-65978602D01*
X80122447Y-65999480D01*
X80120234Y-65999500D01*
X79386670Y-65999500D01*
X79386654Y-65999499D01*
X79379058Y-65999499D01*
X79220943Y-65999499D01*
X79151271Y-66018168D01*
X79068214Y-66040423D01*
X79068209Y-66040426D01*
X78931290Y-66119475D01*
X78931282Y-66119481D01*
X76919479Y-68131284D01*
X76912824Y-68142812D01*
X76880096Y-68199500D01*
X76840423Y-68268215D01*
X76799499Y-68420943D01*
X76799499Y-68420945D01*
X76799499Y-68589046D01*
X76799500Y-68589059D01*
X76799500Y-69225500D01*
X76779815Y-69292539D01*
X76727011Y-69338294D01*
X76675500Y-69349500D01*
X75941971Y-69349500D01*
X75941965Y-69349500D01*
X75941964Y-69349501D01*
X75930316Y-69350536D01*
X75822584Y-69360113D01*
X75626954Y-69416089D01*
X75573922Y-69443791D01*
X75446593Y-69510302D01*
X75446591Y-69510303D01*
X75446590Y-69510304D01*
X75288890Y-69638890D01*
X75184831Y-69766510D01*
X75160302Y-69796593D01*
X75128649Y-69857190D01*
X75066089Y-69976954D01*
X75010114Y-70172583D01*
X75010113Y-70172586D01*
X74999500Y-70291966D01*
X74999500Y-71408028D01*
X74999501Y-71408034D01*
X75010113Y-71527415D01*
X75066089Y-71723045D01*
X75066090Y-71723048D01*
X75066091Y-71723049D01*
X75160302Y-71903407D01*
X75160304Y-71903409D01*
X75288890Y-72061109D01*
X75362273Y-72120944D01*
X75446593Y-72189698D01*
X75626951Y-72283909D01*
X75822582Y-72339886D01*
X75941963Y-72350500D01*
X76675500Y-72350499D01*
X76742539Y-72370183D01*
X76788294Y-72422987D01*
X76799500Y-72474499D01*
X76799500Y-72775500D01*
X76779815Y-72842539D01*
X76727011Y-72888294D01*
X76675500Y-72899500D01*
X73400097Y-72899500D01*
X73333058Y-72879815D01*
X73312416Y-72863181D01*
X71236818Y-70787583D01*
X71203333Y-70726260D01*
X71200499Y-70699902D01*
X71200499Y-70074998D01*
X71200498Y-70074981D01*
X71189999Y-69972203D01*
X71189998Y-69972200D01*
X71173083Y-69921155D01*
X71134814Y-69805666D01*
X71042712Y-69656344D01*
X70918656Y-69532288D01*
X70918655Y-69532287D01*
X70859402Y-69495739D01*
X70812678Y-69443791D01*
X70800500Y-69390201D01*
X70800500Y-67637180D01*
X70820185Y-67570141D01*
X70850187Y-67537914D01*
X70957546Y-67457546D01*
X71043796Y-67342331D01*
X71094091Y-67207483D01*
X71100500Y-67147873D01*
X71100499Y-66052128D01*
X71094091Y-65992517D01*
X71092839Y-65989161D01*
X71043797Y-65857671D01*
X71043793Y-65857664D01*
X70957547Y-65742455D01*
X70957544Y-65742452D01*
X70842335Y-65656206D01*
X70842328Y-65656202D01*
X70781167Y-65633391D01*
X70725233Y-65591520D01*
X70700816Y-65526056D01*
X70700500Y-65517209D01*
X70700500Y-62761426D01*
X70720185Y-62694387D01*
X70755607Y-62658325D01*
X70810289Y-62621789D01*
X70921789Y-62510289D01*
X71009394Y-62379179D01*
X71069737Y-62233497D01*
X71100500Y-62078842D01*
X71100500Y-61921158D01*
X71100500Y-61921155D01*
X71100499Y-61921153D01*
X71069737Y-61766503D01*
X71050955Y-61721158D01*
X71009397Y-61620827D01*
X71009390Y-61620814D01*
X70921789Y-61489711D01*
X70921786Y-61489707D01*
X70810292Y-61378213D01*
X70810288Y-61378210D01*
X70679185Y-61290609D01*
X70679172Y-61290602D01*
X70533501Y-61230264D01*
X70533489Y-61230261D01*
X70378845Y-61199500D01*
X70378842Y-61199500D01*
X70221158Y-61199500D01*
X70221155Y-61199500D01*
X70066510Y-61230261D01*
X70066498Y-61230264D01*
X69920827Y-61290602D01*
X69920814Y-61290609D01*
X69789711Y-61378210D01*
X69789707Y-61378213D01*
X69678213Y-61489707D01*
X69678210Y-61489711D01*
X69590609Y-61620814D01*
X69590602Y-61620827D01*
X69530264Y-61766498D01*
X69530261Y-61766508D01*
X69499362Y-61921848D01*
X69466977Y-61983759D01*
X69465426Y-61985337D01*
X67087584Y-64363181D01*
X67026261Y-64396666D01*
X66999903Y-64399500D01*
X40800097Y-64399500D01*
X40733058Y-64379815D01*
X40712416Y-64363181D01*
X40134574Y-63785339D01*
X40101089Y-63724016D01*
X40100638Y-63721849D01*
X40080425Y-63620234D01*
X40069737Y-63566503D01*
X40035500Y-63483847D01*
X40009397Y-63420827D01*
X40009390Y-63420814D01*
X39921789Y-63289711D01*
X39921786Y-63289707D01*
X39810292Y-63178213D01*
X39810288Y-63178210D01*
X39679185Y-63090609D01*
X39679172Y-63090602D01*
X39533501Y-63030264D01*
X39533489Y-63030261D01*
X39378845Y-62999500D01*
X39378842Y-62999500D01*
X39221158Y-62999500D01*
X39221155Y-62999500D01*
X39066510Y-63030261D01*
X39066498Y-63030264D01*
X38920827Y-63090602D01*
X38920814Y-63090609D01*
X38789711Y-63178210D01*
X38789707Y-63178213D01*
X38678213Y-63289707D01*
X38678210Y-63289711D01*
X38590609Y-63420814D01*
X38590602Y-63420827D01*
X38530264Y-63566498D01*
X38530261Y-63566510D01*
X38499500Y-63721153D01*
X38499500Y-63878846D01*
X38530261Y-64033489D01*
X38530264Y-64033501D01*
X38590602Y-64179172D01*
X38590609Y-64179185D01*
X38678210Y-64310288D01*
X38678213Y-64310292D01*
X38789707Y-64421786D01*
X38789711Y-64421789D01*
X38920814Y-64509390D01*
X38920827Y-64509397D01*
X39049644Y-64562754D01*
X39066503Y-64569737D01*
X39131147Y-64582595D01*
X39221849Y-64600638D01*
X39283760Y-64633023D01*
X39285339Y-64634574D01*
X40015139Y-65364374D01*
X40015149Y-65364385D01*
X40019479Y-65368715D01*
X40019480Y-65368716D01*
X40131284Y-65480520D01*
X40181290Y-65509390D01*
X40218095Y-65530639D01*
X40218097Y-65530641D01*
X40268213Y-65559576D01*
X40268215Y-65559577D01*
X40420942Y-65600500D01*
X40420943Y-65600500D01*
X52426270Y-65600500D01*
X52440600Y-65604707D01*
X52455519Y-65603999D01*
X52473448Y-65614353D01*
X52493309Y-65620185D01*
X52503087Y-65631470D01*
X52516024Y-65638941D01*
X52525509Y-65657346D01*
X52539064Y-65672989D01*
X52541189Y-65687771D01*
X52548032Y-65701048D01*
X52546061Y-65721655D01*
X52549008Y-65742147D01*
X52542692Y-65756892D01*
X52541382Y-65770600D01*
X52528380Y-65790307D01*
X52523731Y-65801164D01*
X52519171Y-65806960D01*
X52457288Y-65868844D01*
X52409321Y-65946610D01*
X52404953Y-65952164D01*
X52382016Y-65968492D01*
X52361083Y-65987321D01*
X52352982Y-65989161D01*
X52348034Y-65992685D01*
X52334690Y-65993319D01*
X52307492Y-65999500D01*
X51124170Y-65999500D01*
X51124154Y-65999499D01*
X51116558Y-65999499D01*
X50958443Y-65999499D01*
X50888771Y-66018168D01*
X50805714Y-66040423D01*
X50805709Y-66040426D01*
X50668790Y-66119475D01*
X50668786Y-66119478D01*
X50424917Y-66363346D01*
X50363594Y-66396830D01*
X50334005Y-66399254D01*
X50334005Y-66399500D01*
X50331011Y-66399500D01*
X50330950Y-66399505D01*
X50330851Y-66399500D01*
X50330848Y-66399500D01*
X49744152Y-66399500D01*
X49744144Y-66399500D01*
X49642223Y-66409913D01*
X49477077Y-66464637D01*
X49477066Y-66464642D01*
X49329000Y-66555971D01*
X49328996Y-66555974D01*
X49205974Y-66678996D01*
X49205971Y-66679000D01*
X49205538Y-66679703D01*
X49205114Y-66680083D01*
X49201493Y-66684664D01*
X49200710Y-66684045D01*
X49153590Y-66726428D01*
X49084628Y-66737649D01*
X49020546Y-66709806D01*
X48998657Y-66684544D01*
X48998507Y-66684664D01*
X48995859Y-66681315D01*
X48994462Y-66679703D01*
X48994028Y-66679000D01*
X48994025Y-66678996D01*
X48871003Y-66555974D01*
X48870999Y-66555971D01*
X48722933Y-66464642D01*
X48722927Y-66464639D01*
X48722925Y-66464638D01*
X48713199Y-66461415D01*
X48557776Y-66409913D01*
X48455855Y-66399500D01*
X48455848Y-66399500D01*
X47869152Y-66399500D01*
X47869144Y-66399500D01*
X47767223Y-66409913D01*
X47602077Y-66464637D01*
X47602066Y-66464642D01*
X47454000Y-66555971D01*
X47453996Y-66555974D01*
X47330974Y-66678996D01*
X47330971Y-66679000D01*
X47239642Y-66827066D01*
X47239637Y-66827077D01*
X47184913Y-66992223D01*
X47174500Y-67094144D01*
X47174500Y-68105855D01*
X47184913Y-68207776D01*
X47239637Y-68372922D01*
X47239642Y-68372933D01*
X47330971Y-68520999D01*
X47330974Y-68521003D01*
X47453997Y-68644026D01*
X47503097Y-68674311D01*
X47549821Y-68726257D01*
X47562000Y-68779849D01*
X47562000Y-69437402D01*
X47542315Y-69504441D01*
X47525681Y-69525083D01*
X44647682Y-72403080D01*
X44639736Y-72407418D01*
X44634311Y-72414666D01*
X44609551Y-72423900D01*
X44586359Y-72436565D01*
X44577329Y-72435919D01*
X44568847Y-72439083D01*
X44543026Y-72433466D01*
X44516667Y-72431581D01*
X44507613Y-72425762D01*
X44500574Y-72424231D01*
X44472320Y-72403080D01*
X44471271Y-72402031D01*
X44437786Y-72340708D01*
X44442770Y-72271016D01*
X44444391Y-72266898D01*
X44492049Y-72151839D01*
X44492051Y-72151835D01*
X44512048Y-72051304D01*
X44530500Y-71958543D01*
X44530500Y-71761456D01*
X44492052Y-71568170D01*
X44492051Y-71568169D01*
X44492051Y-71568165D01*
X44492049Y-71568160D01*
X44416635Y-71386092D01*
X44416628Y-71386079D01*
X44307139Y-71222218D01*
X44307136Y-71222214D01*
X44167785Y-71082863D01*
X44167781Y-71082860D01*
X44003920Y-70973371D01*
X44003907Y-70973364D01*
X43821839Y-70897950D01*
X43821829Y-70897947D01*
X43628543Y-70859500D01*
X43628541Y-70859500D01*
X42331459Y-70859500D01*
X42331457Y-70859500D01*
X42138170Y-70897947D01*
X42138160Y-70897950D01*
X41956092Y-70973364D01*
X41956079Y-70973371D01*
X41792218Y-71082860D01*
X41792214Y-71082863D01*
X41652863Y-71222214D01*
X41652860Y-71222218D01*
X41543371Y-71386079D01*
X41543364Y-71386092D01*
X41467950Y-71568160D01*
X41467947Y-71568170D01*
X41429500Y-71761456D01*
X41429500Y-71761459D01*
X41429500Y-71958541D01*
X41429500Y-71958543D01*
X41429499Y-71958543D01*
X41467947Y-72151829D01*
X41467950Y-72151839D01*
X41543364Y-72333907D01*
X41543371Y-72333920D01*
X41652860Y-72497781D01*
X41652863Y-72497785D01*
X41792214Y-72637136D01*
X41792218Y-72637139D01*
X41956079Y-72746628D01*
X41956083Y-72746630D01*
X41956086Y-72746632D01*
X41965523Y-72750541D01*
X42019927Y-72794378D01*
X42041995Y-72860672D01*
X42024719Y-72928372D01*
X42021565Y-72933032D01*
X41943719Y-73067863D01*
X41904500Y-73214234D01*
X41904500Y-73365765D01*
X41943719Y-73512136D01*
X41944657Y-73513760D01*
X42019485Y-73643365D01*
X42019487Y-73643367D01*
X42084277Y-73708157D01*
X42117762Y-73769480D01*
X42116371Y-73827930D01*
X42079499Y-73965537D01*
X42079499Y-73965539D01*
X42079499Y-74133640D01*
X42079500Y-74133653D01*
X42079500Y-78193329D01*
X42079499Y-78193347D01*
X42079499Y-78359053D01*
X42079498Y-78359053D01*
X42122527Y-78519635D01*
X42120386Y-78520208D01*
X42126620Y-78578179D01*
X42095347Y-78640659D01*
X42092272Y-78643846D01*
X42019488Y-78716631D01*
X42019485Y-78716635D01*
X41943719Y-78847863D01*
X41913787Y-78959575D01*
X41904500Y-78994234D01*
X41904500Y-79145766D01*
X41906528Y-79153334D01*
X41943719Y-79292136D01*
X41973546Y-79343797D01*
X42019485Y-79423365D01*
X42019486Y-79423366D01*
X42023549Y-79430403D01*
X42021220Y-79431747D01*
X42041645Y-79484584D01*
X42027603Y-79553029D01*
X41978787Y-79603016D01*
X41965528Y-79609456D01*
X41956094Y-79613363D01*
X41956079Y-79613371D01*
X41792218Y-79722860D01*
X41792214Y-79722863D01*
X41652863Y-79862214D01*
X41652860Y-79862218D01*
X41543371Y-80026079D01*
X41543364Y-80026092D01*
X41467950Y-80208160D01*
X41467947Y-80208170D01*
X41429500Y-80401456D01*
X41429500Y-80401459D01*
X41429500Y-80598541D01*
X41429500Y-80598543D01*
X41429499Y-80598543D01*
X41467947Y-80791829D01*
X41467950Y-80791839D01*
X41543364Y-80973907D01*
X41543371Y-80973920D01*
X41652860Y-81137781D01*
X41652863Y-81137785D01*
X41792214Y-81277136D01*
X41792218Y-81277139D01*
X41931041Y-81369898D01*
X41975846Y-81423510D01*
X41984553Y-81492835D01*
X41954399Y-81555863D01*
X41894956Y-81592582D01*
X41862150Y-81597000D01*
X39767850Y-81597000D01*
X39700811Y-81577315D01*
X39655056Y-81524511D01*
X39645112Y-81455353D01*
X39674137Y-81391797D01*
X39698959Y-81369898D01*
X39815069Y-81292315D01*
X39837782Y-81277139D01*
X39977139Y-81137782D01*
X40086632Y-80973914D01*
X40162051Y-80791835D01*
X40190267Y-80649986D01*
X40200500Y-80598543D01*
X40200500Y-80401456D01*
X40162052Y-80208170D01*
X40162051Y-80208169D01*
X40162051Y-80208165D01*
X40095420Y-80047302D01*
X40086635Y-80026092D01*
X40086628Y-80026079D01*
X39977139Y-79862218D01*
X39977136Y-79862214D01*
X39837785Y-79722863D01*
X39837781Y-79722860D01*
X39673920Y-79613371D01*
X39673907Y-79613364D01*
X39491839Y-79537950D01*
X39491829Y-79537947D01*
X39298543Y-79499500D01*
X39298541Y-79499500D01*
X38301459Y-79499500D01*
X38299000Y-79499500D01*
X38231961Y-79479815D01*
X38186206Y-79427011D01*
X38175000Y-79375500D01*
X38175000Y-72984500D01*
X38194685Y-72917461D01*
X38247489Y-72871706D01*
X38299000Y-72860500D01*
X39298543Y-72860500D01*
X39454462Y-72829485D01*
X39491835Y-72822051D01*
X39673914Y-72746632D01*
X39837782Y-72637139D01*
X39977139Y-72497782D01*
X40086632Y-72333914D01*
X40096417Y-72310292D01*
X40129312Y-72230875D01*
X40162051Y-72151835D01*
X40182048Y-72051304D01*
X40200500Y-71958543D01*
X40200500Y-71761456D01*
X40162052Y-71568170D01*
X40162051Y-71568169D01*
X40162051Y-71568165D01*
X40162049Y-71568160D01*
X40086635Y-71386092D01*
X40086628Y-71386079D01*
X39977139Y-71222218D01*
X39977136Y-71222214D01*
X39837785Y-71082863D01*
X39837781Y-71082860D01*
X39673920Y-70973371D01*
X39673907Y-70973364D01*
X39491839Y-70897950D01*
X39491829Y-70897947D01*
X39298543Y-70859500D01*
X39298541Y-70859500D01*
X38301459Y-70859500D01*
X38299000Y-70859500D01*
X38231961Y-70839815D01*
X38186206Y-70787011D01*
X38175000Y-70735500D01*
X38175000Y-58921153D01*
X106699500Y-58921153D01*
X106699500Y-59078846D01*
X106730261Y-59233489D01*
X106730264Y-59233501D01*
X106790602Y-59379172D01*
X106790609Y-59379185D01*
X106878602Y-59510874D01*
X106899480Y-59577551D01*
X106899500Y-59579765D01*
X106899500Y-63620234D01*
X106879815Y-63687273D01*
X106878602Y-63689125D01*
X106790609Y-63820814D01*
X106790602Y-63820827D01*
X106730264Y-63966498D01*
X106730261Y-63966510D01*
X106699500Y-64121153D01*
X106699500Y-64278846D01*
X106730261Y-64433489D01*
X106730264Y-64433501D01*
X106790602Y-64579172D01*
X106790609Y-64579185D01*
X106878210Y-64710288D01*
X106878213Y-64710292D01*
X106989707Y-64821786D01*
X106989711Y-64821789D01*
X107120814Y-64909390D01*
X107120827Y-64909397D01*
X107266498Y-64969735D01*
X107266503Y-64969737D01*
X107419690Y-65000208D01*
X107421153Y-65000499D01*
X107421156Y-65000500D01*
X107421158Y-65000500D01*
X107578844Y-65000500D01*
X107578845Y-65000499D01*
X107733497Y-64969737D01*
X107879179Y-64909394D01*
X108010289Y-64821789D01*
X108121789Y-64710289D01*
X108209394Y-64579179D01*
X108214643Y-64566508D01*
X108269735Y-64433501D01*
X108269737Y-64433497D01*
X108300500Y-64278842D01*
X108300500Y-64121158D01*
X108300500Y-64121155D01*
X108300499Y-64121153D01*
X108282419Y-64030261D01*
X108269737Y-63966503D01*
X108231747Y-63874786D01*
X108209397Y-63820827D01*
X108209390Y-63820814D01*
X108121398Y-63689125D01*
X108100520Y-63622447D01*
X108100500Y-63620234D01*
X108100500Y-59579765D01*
X108120185Y-59512726D01*
X108121398Y-59510874D01*
X108209390Y-59379185D01*
X108209390Y-59379184D01*
X108209394Y-59379179D01*
X108214643Y-59366508D01*
X108269735Y-59233501D01*
X108269737Y-59233497D01*
X108300500Y-59078842D01*
X108300500Y-58921158D01*
X108300500Y-58921155D01*
X108300499Y-58921153D01*
X108282419Y-58830261D01*
X108269737Y-58766503D01*
X108269735Y-58766498D01*
X108209397Y-58620827D01*
X108209390Y-58620814D01*
X108121789Y-58489711D01*
X108121786Y-58489707D01*
X108010292Y-58378213D01*
X108010288Y-58378210D01*
X107879185Y-58290609D01*
X107879172Y-58290602D01*
X107733501Y-58230264D01*
X107733489Y-58230261D01*
X107578845Y-58199500D01*
X107578842Y-58199500D01*
X107421158Y-58199500D01*
X107421155Y-58199500D01*
X107266510Y-58230261D01*
X107266498Y-58230264D01*
X107120827Y-58290602D01*
X107120814Y-58290609D01*
X106989711Y-58378210D01*
X106989707Y-58378213D01*
X106878213Y-58489707D01*
X106878210Y-58489711D01*
X106790609Y-58620814D01*
X106790602Y-58620827D01*
X106730264Y-58766498D01*
X106730261Y-58766510D01*
X106699500Y-58921153D01*
X38175000Y-58921153D01*
X38175000Y-53204108D01*
X44584000Y-53204108D01*
X44584000Y-53335892D01*
X44599005Y-53391891D01*
X44618108Y-53463187D01*
X44645302Y-53510288D01*
X44684000Y-53577314D01*
X44777186Y-53670500D01*
X44891314Y-53736392D01*
X45018608Y-53770500D01*
X45018610Y-53770500D01*
X45150390Y-53770500D01*
X45150392Y-53770500D01*
X45277686Y-53736392D01*
X45391814Y-53670500D01*
X45485000Y-53577314D01*
X45550892Y-53463186D01*
X45585000Y-53335892D01*
X45585000Y-53204108D01*
X45550892Y-53076814D01*
X45485000Y-52962686D01*
X45391814Y-52869500D01*
X45315604Y-52825500D01*
X45277687Y-52803608D01*
X45214039Y-52786554D01*
X45150392Y-52769500D01*
X45018608Y-52769500D01*
X44891312Y-52803608D01*
X44777186Y-52869500D01*
X44777183Y-52869502D01*
X44684002Y-52962683D01*
X44684000Y-52962686D01*
X44618108Y-53076812D01*
X44593564Y-53168414D01*
X44584000Y-53204108D01*
X38175000Y-53204108D01*
X38175000Y-52543713D01*
X104409500Y-52543713D01*
X104409500Y-52756286D01*
X104442190Y-52962686D01*
X104442754Y-52966243D01*
X104496876Y-53132814D01*
X104508444Y-53168414D01*
X104604951Y-53357820D01*
X104729890Y-53529786D01*
X104880213Y-53680109D01*
X105052179Y-53805048D01*
X105052181Y-53805049D01*
X105052184Y-53805051D01*
X105241588Y-53901557D01*
X105443757Y-53967246D01*
X105653713Y-54000500D01*
X105653714Y-54000500D01*
X105866286Y-54000500D01*
X105866287Y-54000500D01*
X106076243Y-53967246D01*
X106278412Y-53901557D01*
X106467816Y-53805051D01*
X106554138Y-53742335D01*
X106639786Y-53680109D01*
X106639788Y-53680106D01*
X106639792Y-53680104D01*
X106790104Y-53529792D01*
X106790106Y-53529788D01*
X106790109Y-53529786D01*
X106875890Y-53411717D01*
X106915051Y-53357816D01*
X106919793Y-53348508D01*
X106967763Y-53297711D01*
X107035583Y-53280911D01*
X107101719Y-53303445D01*
X107140763Y-53348500D01*
X107145373Y-53357547D01*
X107184728Y-53411716D01*
X107817037Y-52779408D01*
X107834075Y-52842993D01*
X107899901Y-52957007D01*
X107992993Y-53050099D01*
X108107007Y-53115925D01*
X108170590Y-53132962D01*
X107538282Y-53765269D01*
X107538282Y-53765270D01*
X107592449Y-53804624D01*
X107781782Y-53901095D01*
X107983870Y-53966757D01*
X108193754Y-54000000D01*
X108406246Y-54000000D01*
X108616127Y-53966757D01*
X108616130Y-53966757D01*
X108818217Y-53901095D01*
X109007554Y-53804622D01*
X109061716Y-53765270D01*
X109061717Y-53765270D01*
X108429408Y-53132962D01*
X108492993Y-53115925D01*
X108607007Y-53050099D01*
X108700099Y-52957007D01*
X108765925Y-52842993D01*
X108782962Y-52779408D01*
X109415270Y-53411717D01*
X109415270Y-53411716D01*
X109454622Y-53357555D01*
X109459232Y-53348507D01*
X109507205Y-53297709D01*
X109575025Y-53280912D01*
X109641161Y-53303447D01*
X109680204Y-53348504D01*
X109684949Y-53357817D01*
X109809890Y-53529786D01*
X109960213Y-53680109D01*
X110132179Y-53805048D01*
X110132181Y-53805049D01*
X110132184Y-53805051D01*
X110321588Y-53901557D01*
X110523757Y-53967246D01*
X110733713Y-54000500D01*
X110733714Y-54000500D01*
X110946286Y-54000500D01*
X110946287Y-54000500D01*
X111156243Y-53967246D01*
X111358412Y-53901557D01*
X111547816Y-53805051D01*
X111655937Y-53726497D01*
X111719784Y-53680110D01*
X111719784Y-53680109D01*
X111719792Y-53680104D01*
X111833329Y-53566566D01*
X111894648Y-53533084D01*
X111964340Y-53538068D01*
X112020274Y-53579939D01*
X112037189Y-53610917D01*
X112086202Y-53742328D01*
X112086206Y-53742335D01*
X112172452Y-53857544D01*
X112172455Y-53857547D01*
X112287664Y-53943793D01*
X112287671Y-53943797D01*
X112422517Y-53994091D01*
X112422516Y-53994091D01*
X112429444Y-53994835D01*
X112482127Y-54000500D01*
X114277872Y-54000499D01*
X114337483Y-53994091D01*
X114472331Y-53943796D01*
X114587546Y-53857546D01*
X114673796Y-53742331D01*
X114724091Y-53607483D01*
X114730500Y-53547873D01*
X114730499Y-52921153D01*
X123699500Y-52921153D01*
X123699500Y-53078846D01*
X123730261Y-53233489D01*
X123730264Y-53233501D01*
X123790602Y-53379172D01*
X123790609Y-53379185D01*
X123878210Y-53510288D01*
X123878213Y-53510292D01*
X123989707Y-53621786D01*
X123989711Y-53621789D01*
X124120814Y-53709390D01*
X124120827Y-53709397D01*
X124266498Y-53769735D01*
X124266503Y-53769737D01*
X124331147Y-53782595D01*
X124421849Y-53800638D01*
X124483760Y-53833023D01*
X124485339Y-53834574D01*
X132815139Y-62164374D01*
X132815149Y-62164385D01*
X132819479Y-62168715D01*
X132819480Y-62168716D01*
X132931284Y-62280520D01*
X132931286Y-62280521D01*
X132931290Y-62280524D01*
X133068209Y-62359573D01*
X133068216Y-62359577D01*
X133180019Y-62389534D01*
X133220942Y-62400500D01*
X133220943Y-62400500D01*
X134720234Y-62400500D01*
X134787273Y-62420185D01*
X134789125Y-62421398D01*
X134920814Y-62509390D01*
X134920827Y-62509397D01*
X135066498Y-62569735D01*
X135066503Y-62569737D01*
X135221153Y-62600499D01*
X135221156Y-62600500D01*
X135221158Y-62600500D01*
X135378844Y-62600500D01*
X135378845Y-62600499D01*
X135533497Y-62569737D01*
X135679179Y-62509394D01*
X135810289Y-62421789D01*
X135921789Y-62310289D01*
X136009394Y-62179179D01*
X136069737Y-62033497D01*
X136100500Y-61878842D01*
X136100500Y-61721158D01*
X136100500Y-61721155D01*
X136100499Y-61721153D01*
X136080543Y-61620827D01*
X136069737Y-61566503D01*
X136037929Y-61489711D01*
X136009397Y-61420827D01*
X136009390Y-61420814D01*
X135921789Y-61289711D01*
X135921786Y-61289707D01*
X135810292Y-61178213D01*
X135810288Y-61178210D01*
X135679185Y-61090609D01*
X135679172Y-61090602D01*
X135533501Y-61030264D01*
X135533489Y-61030261D01*
X135378845Y-60999500D01*
X135378842Y-60999500D01*
X135221158Y-60999500D01*
X135221155Y-60999500D01*
X135066510Y-61030261D01*
X135066498Y-61030264D01*
X134920827Y-61090602D01*
X134920814Y-61090609D01*
X134789125Y-61178602D01*
X134722447Y-61199480D01*
X134720234Y-61199500D01*
X133600097Y-61199500D01*
X133533058Y-61179815D01*
X133512416Y-61163181D01*
X129053677Y-56704442D01*
X129043548Y-56685893D01*
X129029442Y-56670154D01*
X129027138Y-56655841D01*
X129020192Y-56643119D01*
X129021699Y-56622038D01*
X129018342Y-56601172D01*
X129024141Y-56587887D01*
X129025176Y-56573427D01*
X129037841Y-56556507D01*
X129046298Y-56537139D01*
X129061716Y-56524616D01*
X129067048Y-56517494D01*
X129072581Y-56513583D01*
X129078350Y-56509737D01*
X129079179Y-56509394D01*
X129210289Y-56421789D01*
X129210290Y-56421787D01*
X129210989Y-56421322D01*
X129244639Y-56410825D01*
X129277553Y-56400520D01*
X129277683Y-56400518D01*
X129277689Y-56400517D01*
X129277695Y-56400518D01*
X129279766Y-56400500D01*
X150720234Y-56400500D01*
X150787273Y-56420185D01*
X150789125Y-56421398D01*
X150920814Y-56509390D01*
X150920827Y-56509397D01*
X151066498Y-56569735D01*
X151066503Y-56569737D01*
X151157749Y-56587887D01*
X151221153Y-56600499D01*
X151221156Y-56600500D01*
X151221158Y-56600500D01*
X151378844Y-56600500D01*
X151378845Y-56600499D01*
X151533497Y-56569737D01*
X151679179Y-56509394D01*
X151810289Y-56421789D01*
X151921789Y-56310289D01*
X152009394Y-56179179D01*
X152069737Y-56033497D01*
X152100500Y-55878842D01*
X152100500Y-55721158D01*
X152100500Y-55721155D01*
X152100499Y-55721153D01*
X152069737Y-55566503D01*
X152011492Y-55425886D01*
X152009397Y-55420827D01*
X152009390Y-55420814D01*
X151921789Y-55289711D01*
X151921786Y-55289707D01*
X151810292Y-55178213D01*
X151810288Y-55178210D01*
X151679185Y-55090609D01*
X151679172Y-55090602D01*
X151533501Y-55030264D01*
X151533489Y-55030261D01*
X151378845Y-54999500D01*
X151378842Y-54999500D01*
X151221158Y-54999500D01*
X151221155Y-54999500D01*
X151066510Y-55030261D01*
X151066498Y-55030264D01*
X150920827Y-55090602D01*
X150920814Y-55090609D01*
X150789125Y-55178602D01*
X150722447Y-55199480D01*
X150720234Y-55199500D01*
X129279766Y-55199500D01*
X129212727Y-55179815D01*
X129210875Y-55178602D01*
X129079185Y-55090609D01*
X129079172Y-55090602D01*
X128933501Y-55030264D01*
X128933489Y-55030261D01*
X128778845Y-54999500D01*
X128778842Y-54999500D01*
X128621158Y-54999500D01*
X128621155Y-54999500D01*
X128466510Y-55030261D01*
X128466498Y-55030264D01*
X128320827Y-55090602D01*
X128320814Y-55090609D01*
X128189711Y-55178210D01*
X128189707Y-55178213D01*
X128078213Y-55289707D01*
X128078210Y-55289711D01*
X127987221Y-55425886D01*
X127985263Y-55424578D01*
X127943573Y-55466973D01*
X127875426Y-55482395D01*
X127809760Y-55458526D01*
X127795557Y-55446322D01*
X125609343Y-53260108D01*
X158999500Y-53260108D01*
X158999500Y-53391891D01*
X159033608Y-53519187D01*
X159050165Y-53547864D01*
X159099500Y-53633314D01*
X159192686Y-53726500D01*
X159306814Y-53792392D01*
X159434108Y-53826500D01*
X159434110Y-53826500D01*
X159565890Y-53826500D01*
X159565892Y-53826500D01*
X159693186Y-53792392D01*
X159807314Y-53726500D01*
X159900500Y-53633314D01*
X159966392Y-53519186D01*
X160000500Y-53391892D01*
X160000500Y-53260108D01*
X159966392Y-53132814D01*
X159900500Y-53018686D01*
X159807314Y-52925500D01*
X159750250Y-52892554D01*
X159693187Y-52859608D01*
X159629539Y-52842554D01*
X159565892Y-52825500D01*
X159434108Y-52825500D01*
X159306812Y-52859608D01*
X159192686Y-52925500D01*
X159192683Y-52925502D01*
X159099502Y-53018683D01*
X159099500Y-53018686D01*
X159033608Y-53132812D01*
X158999500Y-53260108D01*
X125609343Y-53260108D01*
X125334574Y-52985339D01*
X125301089Y-52924016D01*
X125300638Y-52921849D01*
X125269738Y-52766510D01*
X125269737Y-52766503D01*
X125269735Y-52766498D01*
X125209397Y-52620827D01*
X125209390Y-52620814D01*
X125121789Y-52489711D01*
X125121786Y-52489707D01*
X125010292Y-52378213D01*
X125010288Y-52378210D01*
X124879185Y-52290609D01*
X124879172Y-52290602D01*
X124733501Y-52230264D01*
X124733489Y-52230261D01*
X124578845Y-52199500D01*
X124578842Y-52199500D01*
X124421158Y-52199500D01*
X124421155Y-52199500D01*
X124266510Y-52230261D01*
X124266498Y-52230264D01*
X124120827Y-52290602D01*
X124120814Y-52290609D01*
X123989711Y-52378210D01*
X123989707Y-52378213D01*
X123878213Y-52489707D01*
X123878210Y-52489711D01*
X123790609Y-52620814D01*
X123790602Y-52620827D01*
X123730264Y-52766498D01*
X123730261Y-52766510D01*
X123699500Y-52921153D01*
X114730499Y-52921153D01*
X114730499Y-52650000D01*
X114730499Y-51752129D01*
X114730498Y-51752123D01*
X114724091Y-51692516D01*
X114673797Y-51557671D01*
X114673793Y-51557664D01*
X114587547Y-51442455D01*
X114587544Y-51442452D01*
X114472335Y-51356206D01*
X114472328Y-51356202D01*
X114337482Y-51305908D01*
X114337483Y-51305908D01*
X114277883Y-51299501D01*
X114277881Y-51299500D01*
X114277873Y-51299500D01*
X114277864Y-51299500D01*
X112482129Y-51299500D01*
X112482123Y-51299501D01*
X112422516Y-51305908D01*
X112287671Y-51356202D01*
X112287664Y-51356206D01*
X112172455Y-51442452D01*
X112172452Y-51442455D01*
X112086206Y-51557664D01*
X112086203Y-51557669D01*
X112037189Y-51689083D01*
X111995317Y-51745016D01*
X111929853Y-51769433D01*
X111861580Y-51754581D01*
X111833326Y-51733430D01*
X111719786Y-51619890D01*
X111547820Y-51494951D01*
X111358414Y-51398444D01*
X111358413Y-51398443D01*
X111358412Y-51398443D01*
X111156243Y-51332754D01*
X111156241Y-51332753D01*
X111156240Y-51332753D01*
X110994957Y-51307208D01*
X110946287Y-51299500D01*
X110733713Y-51299500D01*
X110685042Y-51307208D01*
X110523760Y-51332753D01*
X110321585Y-51398444D01*
X110132179Y-51494951D01*
X109960213Y-51619890D01*
X109809890Y-51770213D01*
X109684949Y-51942182D01*
X109680202Y-51951499D01*
X109632227Y-52002293D01*
X109564405Y-52019087D01*
X109498271Y-51996548D01*
X109459234Y-51951495D01*
X109454626Y-51942452D01*
X109415270Y-51888282D01*
X109415269Y-51888282D01*
X108782962Y-52520590D01*
X108765925Y-52457007D01*
X108700099Y-52342993D01*
X108607007Y-52249901D01*
X108492993Y-52184075D01*
X108429409Y-52167037D01*
X109061716Y-51534728D01*
X109007550Y-51495375D01*
X108818217Y-51398904D01*
X108616129Y-51333242D01*
X108406246Y-51300000D01*
X108193754Y-51300000D01*
X107983872Y-51333242D01*
X107983869Y-51333242D01*
X107781782Y-51398904D01*
X107592439Y-51495380D01*
X107538282Y-51534727D01*
X107538282Y-51534728D01*
X108170591Y-52167037D01*
X108107007Y-52184075D01*
X107992993Y-52249901D01*
X107899901Y-52342993D01*
X107834075Y-52457007D01*
X107817037Y-52520591D01*
X107184728Y-51888282D01*
X107184727Y-51888282D01*
X107145380Y-51942440D01*
X107145376Y-51942446D01*
X107140760Y-51951505D01*
X107092781Y-52002297D01*
X107024959Y-52019087D01*
X106958826Y-51996543D01*
X106919794Y-51951493D01*
X106915051Y-51942184D01*
X106915049Y-51942181D01*
X106915048Y-51942179D01*
X106790109Y-51770213D01*
X106639786Y-51619890D01*
X106467820Y-51494951D01*
X106278414Y-51398444D01*
X106278413Y-51398443D01*
X106278412Y-51398443D01*
X106076243Y-51332754D01*
X106076241Y-51332753D01*
X106076240Y-51332753D01*
X105914957Y-51307208D01*
X105866287Y-51299500D01*
X105653713Y-51299500D01*
X105605042Y-51307208D01*
X105443760Y-51332753D01*
X105241585Y-51398444D01*
X105052179Y-51494951D01*
X104880213Y-51619890D01*
X104729890Y-51770213D01*
X104604951Y-51942179D01*
X104508444Y-52131585D01*
X104442753Y-52333760D01*
X104409500Y-52543713D01*
X38175000Y-52543713D01*
X38175000Y-50218465D01*
X38194685Y-50151426D01*
X38247489Y-50105671D01*
X38299000Y-50094465D01*
X166190510Y-50094465D01*
X166257549Y-50114150D01*
G37*
%TD.AperFunction*%
%TA.AperFunction,Conductor*%
G36*
X73836578Y-77970185D02*
G01*
X73882333Y-78022989D01*
X73889873Y-78044573D01*
X73898357Y-78078687D01*
X73898360Y-78078695D01*
X73982967Y-78249292D01*
X73982969Y-78249295D01*
X74102277Y-78397721D01*
X74102278Y-78397722D01*
X74250704Y-78517030D01*
X74280594Y-78531854D01*
X74331907Y-78579275D01*
X74349500Y-78642942D01*
X74349500Y-79873918D01*
X74349500Y-79873920D01*
X74349499Y-79873920D01*
X74378340Y-80018907D01*
X74378343Y-80018917D01*
X74434914Y-80155492D01*
X74467812Y-80204727D01*
X74467813Y-80204730D01*
X74517046Y-80278414D01*
X74517052Y-80278421D01*
X75623952Y-81385319D01*
X75657437Y-81446642D01*
X75652453Y-81516333D01*
X75610582Y-81572267D01*
X75545117Y-81596684D01*
X75536271Y-81597000D01*
X54641076Y-81597000D01*
X54574037Y-81577315D01*
X54528282Y-81524511D01*
X54518338Y-81455353D01*
X54547363Y-81391797D01*
X54606141Y-81354023D01*
X54628474Y-81349642D01*
X54727697Y-81339505D01*
X54894119Y-81284358D01*
X54894124Y-81284356D01*
X55043345Y-81192315D01*
X55167315Y-81068345D01*
X55259356Y-80919124D01*
X55259358Y-80919119D01*
X55314505Y-80752697D01*
X55314506Y-80752690D01*
X55324999Y-80649986D01*
X55325000Y-80649973D01*
X55325000Y-80600000D01*
X52875001Y-80600000D01*
X52875001Y-80649986D01*
X52885494Y-80752697D01*
X52940641Y-80919119D01*
X52940643Y-80919124D01*
X53032684Y-81068345D01*
X53156654Y-81192315D01*
X53305875Y-81284356D01*
X53305880Y-81284358D01*
X53472302Y-81339505D01*
X53472309Y-81339506D01*
X53571516Y-81349642D01*
X53636207Y-81376038D01*
X53676359Y-81433219D01*
X53679222Y-81503030D01*
X53643888Y-81563307D01*
X53581575Y-81594912D01*
X53558913Y-81597000D01*
X50186613Y-81597000D01*
X50119574Y-81577315D01*
X50073819Y-81524511D01*
X50063875Y-81455353D01*
X50092900Y-81391797D01*
X50121516Y-81367461D01*
X50243345Y-81292315D01*
X50367315Y-81168345D01*
X50459356Y-81019124D01*
X50459358Y-81019119D01*
X50514505Y-80852697D01*
X50514506Y-80852690D01*
X50524999Y-80749986D01*
X50525000Y-80749973D01*
X50525000Y-80700000D01*
X48075001Y-80700000D01*
X48075001Y-80749986D01*
X48085494Y-80852697D01*
X48140641Y-81019119D01*
X48140643Y-81019124D01*
X48232684Y-81168345D01*
X48356654Y-81292315D01*
X48478484Y-81367461D01*
X48525209Y-81419409D01*
X48536430Y-81488372D01*
X48508587Y-81552454D01*
X48450518Y-81591310D01*
X48413387Y-81597000D01*
X44097850Y-81597000D01*
X44030811Y-81577315D01*
X43985056Y-81524511D01*
X43975112Y-81455353D01*
X44004137Y-81391797D01*
X44028959Y-81369898D01*
X44145069Y-81292315D01*
X44167782Y-81277139D01*
X44307139Y-81137782D01*
X44416632Y-80973914D01*
X44492051Y-80791835D01*
X44520267Y-80649986D01*
X44530500Y-80598543D01*
X44530500Y-80401456D01*
X44492052Y-80208170D01*
X44492051Y-80208169D01*
X44492051Y-80208165D01*
X44444389Y-80093099D01*
X44436921Y-80023633D01*
X44468196Y-79961153D01*
X44471271Y-79957966D01*
X44497683Y-79931553D01*
X44497686Y-79931550D01*
X44581281Y-79790198D01*
X44627100Y-79632486D01*
X44627295Y-79630001D01*
X44627295Y-79630000D01*
X44066091Y-79630000D01*
X44052075Y-79626488D01*
X44040809Y-79627395D01*
X44007632Y-79615355D01*
X44003193Y-79612982D01*
X43953351Y-79564017D01*
X43937894Y-79495879D01*
X43961730Y-79430200D01*
X44017289Y-79387834D01*
X44051922Y-79380009D01*
X44082569Y-79377598D01*
X44082571Y-79377597D01*
X44082573Y-79377597D01*
X44144153Y-79359706D01*
X44240398Y-79331744D01*
X44381865Y-79248081D01*
X44443128Y-79186817D01*
X44504449Y-79153334D01*
X44530808Y-79150500D01*
X48090202Y-79150500D01*
X48157241Y-79170185D01*
X48195739Y-79209401D01*
X48232288Y-79268656D01*
X48356344Y-79392712D01*
X48358580Y-79394091D01*
X48359653Y-79394753D01*
X48361445Y-79396746D01*
X48362011Y-79397193D01*
X48361934Y-79397289D01*
X48406379Y-79446699D01*
X48417603Y-79515661D01*
X48389761Y-79579744D01*
X48359665Y-79605826D01*
X48356660Y-79607679D01*
X48356655Y-79607683D01*
X48232684Y-79731654D01*
X48140643Y-79880875D01*
X48140641Y-79880880D01*
X48085494Y-80047302D01*
X48085493Y-80047309D01*
X48075000Y-80150013D01*
X48075000Y-80200000D01*
X50524999Y-80200000D01*
X50524999Y-80150028D01*
X50524998Y-80150013D01*
X50514505Y-80047302D01*
X50459358Y-79880880D01*
X50459356Y-79880875D01*
X50367315Y-79731654D01*
X50243344Y-79607683D01*
X50243341Y-79607681D01*
X50240339Y-79605829D01*
X50238713Y-79604021D01*
X50237677Y-79603202D01*
X50237817Y-79603024D01*
X50193617Y-79553880D01*
X50182397Y-79484917D01*
X50210243Y-79420836D01*
X50240344Y-79394754D01*
X50243656Y-79392712D01*
X50367712Y-79268656D01*
X50404259Y-79209402D01*
X50456207Y-79162679D01*
X50509798Y-79150500D01*
X52962769Y-79150500D01*
X52990875Y-79158753D01*
X53019647Y-79164314D01*
X53026255Y-79169141D01*
X53029808Y-79170185D01*
X53048386Y-79184802D01*
X53049440Y-79185808D01*
X53156344Y-79292712D01*
X53170749Y-79301597D01*
X53180176Y-79310595D01*
X53191379Y-79330024D01*
X53206379Y-79346699D01*
X53208495Y-79359706D01*
X53215079Y-79371122D01*
X53214000Y-79393524D01*
X53217603Y-79415661D01*
X53212351Y-79427747D01*
X53211718Y-79440911D01*
X53198697Y-79459176D01*
X53189761Y-79479744D01*
X53174778Y-79492728D01*
X53171160Y-79497804D01*
X53167005Y-79499464D01*
X53159665Y-79505826D01*
X53156660Y-79507679D01*
X53156655Y-79507683D01*
X53032684Y-79631654D01*
X52940643Y-79780875D01*
X52940641Y-79780880D01*
X52885494Y-79947302D01*
X52885493Y-79947309D01*
X52875000Y-80050013D01*
X52875000Y-80100000D01*
X55324999Y-80100000D01*
X55324999Y-80050028D01*
X55324998Y-80050013D01*
X55314505Y-79947302D01*
X55259358Y-79780880D01*
X55259356Y-79780875D01*
X55167315Y-79631654D01*
X55043344Y-79507683D01*
X55043341Y-79507681D01*
X55040339Y-79505829D01*
X55038713Y-79504021D01*
X55037677Y-79503202D01*
X55037817Y-79503024D01*
X54993617Y-79453880D01*
X54982397Y-79384917D01*
X55010243Y-79320836D01*
X55040344Y-79294754D01*
X55043656Y-79292712D01*
X55167712Y-79168656D01*
X55204259Y-79109402D01*
X55256207Y-79062679D01*
X55309798Y-79050500D01*
X59235859Y-79050500D01*
X59302898Y-79070185D01*
X59348653Y-79122989D01*
X59352030Y-79131140D01*
X59356204Y-79142331D01*
X59356205Y-79142332D01*
X59356206Y-79142335D01*
X59442452Y-79257544D01*
X59442455Y-79257547D01*
X59557664Y-79343793D01*
X59557671Y-79343797D01*
X59692517Y-79394091D01*
X59692516Y-79394091D01*
X59698637Y-79394749D01*
X59752127Y-79400500D01*
X60847872Y-79400499D01*
X60907483Y-79394091D01*
X61042331Y-79343796D01*
X61157546Y-79257546D01*
X61243796Y-79142331D01*
X61266609Y-79081167D01*
X61308480Y-79025233D01*
X61373944Y-79000816D01*
X61382791Y-79000500D01*
X67163331Y-79000500D01*
X67163347Y-79000501D01*
X67170943Y-79000501D01*
X67329054Y-79000501D01*
X67329057Y-79000501D01*
X67481785Y-78959577D01*
X67552558Y-78918716D01*
X67618716Y-78880520D01*
X67730520Y-78768716D01*
X67730520Y-78768714D01*
X67740724Y-78758511D01*
X67740728Y-78758506D01*
X68112416Y-78386818D01*
X68173739Y-78353333D01*
X68200097Y-78350499D01*
X68825002Y-78350499D01*
X68825008Y-78350499D01*
X68927797Y-78339999D01*
X69094334Y-78284814D01*
X69243656Y-78192712D01*
X69367712Y-78068656D01*
X69404259Y-78009402D01*
X69456207Y-77962679D01*
X69509798Y-77950500D01*
X73769539Y-77950500D01*
X73836578Y-77970185D01*
G37*
%TD.AperFunction*%
%TA.AperFunction,Conductor*%
G36*
X163576816Y-63387063D02*
G01*
X163632749Y-63428935D01*
X163655955Y-63483847D01*
X163683242Y-63656127D01*
X163683242Y-63656130D01*
X163748904Y-63858217D01*
X163845375Y-64047550D01*
X163884728Y-64101716D01*
X164517036Y-63469407D01*
X164534075Y-63532993D01*
X164599901Y-63647007D01*
X164692993Y-63740099D01*
X164807007Y-63805925D01*
X164870589Y-63822962D01*
X164238282Y-64455269D01*
X164238282Y-64455270D01*
X164292452Y-64494626D01*
X164292451Y-64494626D01*
X164301495Y-64499234D01*
X164352292Y-64547208D01*
X164369087Y-64615029D01*
X164346550Y-64681164D01*
X164301499Y-64720202D01*
X164292182Y-64724949D01*
X164120213Y-64849890D01*
X163969890Y-65000213D01*
X163844951Y-65172179D01*
X163748444Y-65361585D01*
X163682753Y-65563760D01*
X163657825Y-65721153D01*
X163649500Y-65773713D01*
X163649500Y-65986287D01*
X163656465Y-66030261D01*
X163680925Y-66184700D01*
X163682754Y-66196243D01*
X163742384Y-66379765D01*
X163748444Y-66398414D01*
X163844951Y-66587820D01*
X163969890Y-66759786D01*
X164120213Y-66910109D01*
X164292182Y-67035050D01*
X164300946Y-67039516D01*
X164351742Y-67087491D01*
X164368536Y-67155312D01*
X164345998Y-67221447D01*
X164300946Y-67260484D01*
X164292182Y-67264949D01*
X164120213Y-67389890D01*
X163969890Y-67540213D01*
X163844951Y-67712179D01*
X163748444Y-67901585D01*
X163682753Y-68103760D01*
X163656706Y-68268215D01*
X163649500Y-68313713D01*
X163649500Y-68526287D01*
X163659440Y-68589046D01*
X163682613Y-68735357D01*
X163682754Y-68736243D01*
X163732407Y-68889059D01*
X163748444Y-68938414D01*
X163844951Y-69127820D01*
X163969890Y-69299786D01*
X164120213Y-69450109D01*
X164292182Y-69575050D01*
X164300946Y-69579516D01*
X164351742Y-69627491D01*
X164368536Y-69695312D01*
X164345998Y-69761447D01*
X164300946Y-69800484D01*
X164292182Y-69804949D01*
X164120213Y-69929890D01*
X163969890Y-70080213D01*
X163844951Y-70252179D01*
X163748444Y-70441585D01*
X163682753Y-70643760D01*
X163659974Y-70787583D01*
X163649500Y-70853713D01*
X163649500Y-71066287D01*
X163653351Y-71090602D01*
X163674196Y-71222214D01*
X163682754Y-71276243D01*
X163729732Y-71420827D01*
X163748444Y-71478414D01*
X163844951Y-71667820D01*
X163969890Y-71839786D01*
X164120213Y-71990109D01*
X164292179Y-72115048D01*
X164292181Y-72115049D01*
X164292184Y-72115051D01*
X164481588Y-72211557D01*
X164683757Y-72277246D01*
X164893713Y-72310500D01*
X164893714Y-72310500D01*
X165106286Y-72310500D01*
X165106287Y-72310500D01*
X165316243Y-72277246D01*
X165518412Y-72211557D01*
X165707816Y-72115051D01*
X165756328Y-72079805D01*
X165879786Y-71990109D01*
X165879788Y-71990106D01*
X165879792Y-71990104D01*
X166030104Y-71839792D01*
X166090192Y-71757087D01*
X166145521Y-71714422D01*
X166215134Y-71708443D01*
X166276930Y-71741048D01*
X166311287Y-71801886D01*
X166314510Y-71829973D01*
X166314510Y-81473000D01*
X166294825Y-81540039D01*
X166242021Y-81585794D01*
X166190510Y-81597000D01*
X145563730Y-81597000D01*
X145496691Y-81577315D01*
X145450936Y-81524511D01*
X145440992Y-81455353D01*
X145470017Y-81391797D01*
X145476049Y-81385319D01*
X148464002Y-78397366D01*
X163445803Y-63415562D01*
X163507124Y-63382079D01*
X163576816Y-63387063D01*
G37*
%TD.AperFunction*%
%TA.AperFunction,Conductor*%
G36*
X69418834Y-63832914D02*
G01*
X69474767Y-63874786D01*
X69499184Y-63940250D01*
X69499500Y-63949096D01*
X69499500Y-65517209D01*
X69479815Y-65584248D01*
X69427011Y-65630003D01*
X69418833Y-65633391D01*
X69357671Y-65656202D01*
X69357664Y-65656206D01*
X69242455Y-65742452D01*
X69242452Y-65742455D01*
X69156206Y-65857664D01*
X69156202Y-65857671D01*
X69105908Y-65992517D01*
X69100758Y-66040423D01*
X69099501Y-66052123D01*
X69099500Y-66052135D01*
X69099500Y-67147870D01*
X69099501Y-67147876D01*
X69105908Y-67207483D01*
X69156202Y-67342328D01*
X69156206Y-67342335D01*
X69242452Y-67457544D01*
X69242455Y-67457547D01*
X69357664Y-67543793D01*
X69357671Y-67543797D01*
X69492517Y-67594091D01*
X69500062Y-67595874D01*
X69499523Y-67598151D01*
X69553287Y-67620408D01*
X69593147Y-67677793D01*
X69599500Y-67716975D01*
X69599500Y-69390201D01*
X69579815Y-69457240D01*
X69540598Y-69495739D01*
X69481344Y-69532287D01*
X69357288Y-69656343D01*
X69357283Y-69656349D01*
X69355241Y-69659661D01*
X69353247Y-69661453D01*
X69352807Y-69662011D01*
X69352711Y-69661935D01*
X69303291Y-69706383D01*
X69234328Y-69717602D01*
X69170247Y-69689755D01*
X69144168Y-69659656D01*
X69142319Y-69656659D01*
X69142316Y-69656655D01*
X69018345Y-69532684D01*
X68869124Y-69440643D01*
X68869119Y-69440641D01*
X68702697Y-69385494D01*
X68702690Y-69385493D01*
X68599986Y-69375000D01*
X68550000Y-69375000D01*
X68550000Y-71824999D01*
X68599972Y-71824999D01*
X68599986Y-71824998D01*
X68702697Y-71814505D01*
X68869119Y-71759358D01*
X68869124Y-71759356D01*
X69018345Y-71667315D01*
X69142318Y-71543342D01*
X69144165Y-71540348D01*
X69145969Y-71538724D01*
X69146798Y-71537677D01*
X69146976Y-71537818D01*
X69196110Y-71493621D01*
X69265073Y-71482396D01*
X69329156Y-71510236D01*
X69355243Y-71540341D01*
X69357288Y-71543656D01*
X69481344Y-71667712D01*
X69630666Y-71759814D01*
X69797203Y-71814999D01*
X69899991Y-71825500D01*
X70500008Y-71825499D01*
X70510576Y-71824419D01*
X70579268Y-71837187D01*
X70610861Y-71860096D01*
X72615139Y-73864374D01*
X72615149Y-73864385D01*
X72619479Y-73868715D01*
X72619480Y-73868716D01*
X72731284Y-73980520D01*
X72731286Y-73980521D01*
X72731290Y-73980524D01*
X72868209Y-74059573D01*
X72868216Y-74059577D01*
X72980019Y-74089534D01*
X73020942Y-74100500D01*
X73020943Y-74100500D01*
X76675500Y-74100500D01*
X76742539Y-74120185D01*
X76788294Y-74172989D01*
X76799500Y-74224500D01*
X76799500Y-75583084D01*
X76779815Y-75650123D01*
X76727011Y-75695878D01*
X76722887Y-75697574D01*
X76550707Y-75782967D01*
X76550704Y-75782969D01*
X76402278Y-75902277D01*
X76402277Y-75902278D01*
X76346647Y-75971486D01*
X76289304Y-76011405D01*
X76219482Y-76013985D01*
X76159349Y-75978406D01*
X76153353Y-75971486D01*
X76097722Y-75902278D01*
X76097721Y-75902277D01*
X75949295Y-75782969D01*
X75949292Y-75782967D01*
X75778697Y-75698360D01*
X75593892Y-75652400D01*
X75572506Y-75650950D01*
X75551123Y-75649500D01*
X75551120Y-75649500D01*
X74648877Y-75649500D01*
X74648874Y-75649501D01*
X74606113Y-75652399D01*
X74606112Y-75652399D01*
X74421303Y-75698360D01*
X74250707Y-75782967D01*
X74250704Y-75782969D01*
X74102278Y-75902277D01*
X74102277Y-75902278D01*
X73982969Y-76050704D01*
X73982967Y-76050707D01*
X73898360Y-76221302D01*
X73852400Y-76406107D01*
X73849500Y-76448879D01*
X73849500Y-76625500D01*
X73829815Y-76692539D01*
X73777011Y-76738294D01*
X73725500Y-76749500D01*
X69509798Y-76749500D01*
X69442759Y-76729815D01*
X69404259Y-76690597D01*
X69397377Y-76679439D01*
X69367712Y-76631344D01*
X69243656Y-76507288D01*
X69240342Y-76505243D01*
X69238546Y-76503248D01*
X69237989Y-76502807D01*
X69238064Y-76502711D01*
X69193618Y-76453297D01*
X69182397Y-76384334D01*
X69210240Y-76320252D01*
X69240348Y-76294165D01*
X69243342Y-76292318D01*
X69367315Y-76168345D01*
X69459356Y-76019124D01*
X69459358Y-76019119D01*
X69514505Y-75852697D01*
X69514506Y-75852690D01*
X69524999Y-75749986D01*
X69525000Y-75749973D01*
X69525000Y-75700000D01*
X67075001Y-75700000D01*
X67075001Y-75749986D01*
X67085494Y-75852697D01*
X67140641Y-76019119D01*
X67140643Y-76019124D01*
X67232684Y-76168345D01*
X67356655Y-76292316D01*
X67356659Y-76292319D01*
X67359656Y-76294168D01*
X67361279Y-76295972D01*
X67362323Y-76296798D01*
X67362181Y-76296976D01*
X67406381Y-76346116D01*
X67417602Y-76415079D01*
X67389759Y-76479161D01*
X67359661Y-76505241D01*
X67356349Y-76507283D01*
X67356343Y-76507288D01*
X67232289Y-76631342D01*
X67140187Y-76780663D01*
X67140186Y-76780666D01*
X67085001Y-76947203D01*
X67085001Y-76947204D01*
X67085000Y-76947204D01*
X67074500Y-77049983D01*
X67074500Y-77650000D01*
X67074501Y-77650009D01*
X67075581Y-77660581D01*
X67075228Y-77662476D01*
X67075902Y-77664279D01*
X67068870Y-77696672D01*
X67062808Y-77729274D01*
X67061358Y-77731273D01*
X67061080Y-77732558D01*
X67039941Y-77760821D01*
X67037621Y-77763143D01*
X66976312Y-77796655D01*
X66949902Y-77799500D01*
X61382791Y-77799500D01*
X61315752Y-77779815D01*
X61269997Y-77727011D01*
X61266609Y-77718833D01*
X61243797Y-77657671D01*
X61243793Y-77657664D01*
X61157547Y-77542455D01*
X61157544Y-77542452D01*
X61042335Y-77456206D01*
X61042328Y-77456202D01*
X60907482Y-77405908D01*
X60907483Y-77405908D01*
X60847883Y-77399501D01*
X60847881Y-77399500D01*
X60847873Y-77399500D01*
X60847864Y-77399500D01*
X59752129Y-77399500D01*
X59752123Y-77399501D01*
X59692516Y-77405908D01*
X59557671Y-77456202D01*
X59557664Y-77456206D01*
X59442455Y-77542452D01*
X59442452Y-77542455D01*
X59356206Y-77657664D01*
X59356202Y-77657671D01*
X59314742Y-77768833D01*
X59272871Y-77824767D01*
X59207407Y-77849184D01*
X59198560Y-77849500D01*
X55309798Y-77849500D01*
X55242759Y-77829815D01*
X55204259Y-77790597D01*
X55190835Y-77768833D01*
X55167712Y-77731344D01*
X55043656Y-77607288D01*
X54938543Y-77542454D01*
X54894336Y-77515187D01*
X54894331Y-77515185D01*
X54892862Y-77514698D01*
X54727797Y-77460001D01*
X54727795Y-77460000D01*
X54625010Y-77449500D01*
X53574998Y-77449500D01*
X53574980Y-77449501D01*
X53472203Y-77460000D01*
X53472200Y-77460001D01*
X53305668Y-77515185D01*
X53305663Y-77515187D01*
X53156342Y-77607289D01*
X53032289Y-77731342D01*
X53012674Y-77763143D01*
X52959410Y-77849500D01*
X52936395Y-77886813D01*
X52934600Y-77885706D01*
X52895313Y-77930337D01*
X52829092Y-77949500D01*
X50509798Y-77949500D01*
X50500012Y-77946626D01*
X50489892Y-77947892D01*
X50467051Y-77936948D01*
X50442759Y-77929815D01*
X50434404Y-77921305D01*
X50426882Y-77917701D01*
X50404265Y-77890606D01*
X50403339Y-77889105D01*
X50384893Y-77821714D01*
X50405810Y-77755049D01*
X50459448Y-77710275D01*
X50508872Y-77699999D01*
X50524972Y-77699999D01*
X50524986Y-77699998D01*
X50627697Y-77689505D01*
X50794119Y-77634358D01*
X50794124Y-77634356D01*
X50943345Y-77542315D01*
X51067315Y-77418345D01*
X51159356Y-77269124D01*
X51159358Y-77269119D01*
X51214505Y-77102697D01*
X51214506Y-77102690D01*
X51224999Y-76999986D01*
X51225000Y-76999973D01*
X51225000Y-76750000D01*
X50336500Y-76750000D01*
X50269461Y-76730315D01*
X50223706Y-76677511D01*
X50212500Y-76626000D01*
X50212500Y-76500000D01*
X50086500Y-76500000D01*
X50019461Y-76480315D01*
X49973706Y-76427511D01*
X49962500Y-76376000D01*
X49962500Y-76250000D01*
X50462500Y-76250000D01*
X51224999Y-76250000D01*
X51224999Y-76000028D01*
X51224998Y-76000013D01*
X51214505Y-75897302D01*
X51159358Y-75730880D01*
X51159356Y-75730875D01*
X51067315Y-75581654D01*
X50943345Y-75457684D01*
X50794124Y-75365643D01*
X50794119Y-75365641D01*
X50627697Y-75310494D01*
X50627690Y-75310493D01*
X50524986Y-75300000D01*
X50462500Y-75300000D01*
X50462500Y-76250000D01*
X49962500Y-76250000D01*
X49962500Y-75300000D01*
X49962499Y-75299999D01*
X49900028Y-75300000D01*
X49900011Y-75300001D01*
X49797302Y-75310494D01*
X49630880Y-75365641D01*
X49630875Y-75365643D01*
X49481657Y-75457682D01*
X49388034Y-75551305D01*
X49326710Y-75584789D01*
X49257019Y-75579805D01*
X49212672Y-75551304D01*
X49118657Y-75457289D01*
X49118656Y-75457288D01*
X48971481Y-75366510D01*
X48969336Y-75365187D01*
X48969331Y-75365185D01*
X48955277Y-75360528D01*
X48802797Y-75310001D01*
X48802795Y-75310000D01*
X48700010Y-75299500D01*
X48074998Y-75299500D01*
X48074980Y-75299501D01*
X47972203Y-75310000D01*
X47972200Y-75310001D01*
X47805668Y-75365185D01*
X47805663Y-75365187D01*
X47656342Y-75457289D01*
X47532289Y-75581342D01*
X47440187Y-75730663D01*
X47440185Y-75730668D01*
X47414522Y-75808116D01*
X47385001Y-75897203D01*
X47385001Y-75897204D01*
X47385000Y-75897204D01*
X47374500Y-75999983D01*
X47374500Y-76612400D01*
X47365856Y-76641836D01*
X47359333Y-76671826D01*
X47355577Y-76676842D01*
X47354815Y-76679439D01*
X47338182Y-76700080D01*
X47245084Y-76793180D01*
X47183761Y-76826666D01*
X47157402Y-76829500D01*
X44740854Y-76829500D01*
X44673815Y-76809815D01*
X44628060Y-76757011D01*
X44617915Y-76721687D01*
X44614626Y-76696707D01*
X44617689Y-76696303D01*
X44617689Y-76663698D01*
X44614626Y-76663295D01*
X44618832Y-76631344D01*
X44630500Y-76542720D01*
X44630500Y-76317280D01*
X44615687Y-76204764D01*
X44615686Y-76204763D01*
X44614626Y-76196705D01*
X44617689Y-76196301D01*
X44617689Y-76163698D01*
X44614626Y-76163295D01*
X44621604Y-76110289D01*
X44630500Y-76042720D01*
X44630500Y-75817280D01*
X44615687Y-75704764D01*
X44615686Y-75704763D01*
X44614626Y-75696705D01*
X44617689Y-75696301D01*
X44617689Y-75663698D01*
X44614626Y-75663295D01*
X44623943Y-75592522D01*
X44630500Y-75542720D01*
X44630500Y-75317280D01*
X44615687Y-75204764D01*
X44615686Y-75204763D01*
X44614924Y-75198970D01*
X44614866Y-75198846D01*
X44614878Y-75198621D01*
X44614626Y-75196705D01*
X44614986Y-75196657D01*
X44615761Y-75182633D01*
X44614520Y-75163554D01*
X44615607Y-75155428D01*
X44615687Y-75155236D01*
X44616375Y-75150013D01*
X67075000Y-75150013D01*
X67075000Y-75200000D01*
X68050000Y-75200000D01*
X68550000Y-75200000D01*
X69524999Y-75200000D01*
X69524999Y-75150028D01*
X69524998Y-75150013D01*
X69514505Y-75047302D01*
X69459358Y-74880880D01*
X69459356Y-74880875D01*
X69367315Y-74731654D01*
X69243345Y-74607684D01*
X69094124Y-74515643D01*
X69094119Y-74515641D01*
X68927697Y-74460494D01*
X68927690Y-74460493D01*
X68824986Y-74450000D01*
X68550000Y-74450000D01*
X68550000Y-75200000D01*
X68050000Y-75200000D01*
X68050000Y-74450000D01*
X67775029Y-74450000D01*
X67775012Y-74450001D01*
X67672302Y-74460494D01*
X67505880Y-74515641D01*
X67505875Y-74515643D01*
X67356654Y-74607684D01*
X67232684Y-74731654D01*
X67140643Y-74880875D01*
X67140641Y-74880880D01*
X67085494Y-75047302D01*
X67085493Y-75047309D01*
X67075000Y-75150013D01*
X44616375Y-75150013D01*
X44630500Y-75042720D01*
X44630500Y-74970098D01*
X44639144Y-74940658D01*
X44645667Y-74910673D01*
X44649422Y-74905656D01*
X44650185Y-74903059D01*
X44666812Y-74882423D01*
X44750520Y-74798716D01*
X44750521Y-74798713D01*
X45912416Y-73636819D01*
X45973739Y-73603334D01*
X46000097Y-73600500D01*
X47207199Y-73600500D01*
X47274238Y-73620185D01*
X47319993Y-73672989D01*
X47324903Y-73685492D01*
X47352686Y-73769334D01*
X47444788Y-73918656D01*
X47568844Y-74042712D01*
X47718166Y-74134814D01*
X47884703Y-74189999D01*
X47987491Y-74200500D01*
X48612508Y-74200499D01*
X48612516Y-74200498D01*
X48612519Y-74200498D01*
X48668802Y-74194748D01*
X48715297Y-74189999D01*
X48881834Y-74134814D01*
X49031156Y-74042712D01*
X49125175Y-73948692D01*
X49186494Y-73915210D01*
X49256186Y-73920194D01*
X49300534Y-73948695D01*
X49394154Y-74042315D01*
X49543375Y-74134356D01*
X49543380Y-74134358D01*
X49709802Y-74189505D01*
X49709809Y-74189506D01*
X49812519Y-74199999D01*
X50375000Y-74199999D01*
X50437472Y-74199999D01*
X50437486Y-74199998D01*
X50540197Y-74189505D01*
X50706619Y-74134358D01*
X50706624Y-74134356D01*
X50855845Y-74042315D01*
X50979815Y-73918345D01*
X51071856Y-73769124D01*
X51071858Y-73769119D01*
X51127005Y-73602697D01*
X51127006Y-73602690D01*
X51137499Y-73499986D01*
X51137500Y-73499973D01*
X51137500Y-73250000D01*
X50375000Y-73250000D01*
X50375000Y-74199999D01*
X49812519Y-74199999D01*
X49874999Y-74199998D01*
X49875000Y-74199998D01*
X49875000Y-72750000D01*
X50375000Y-72750000D01*
X51137499Y-72750000D01*
X51137499Y-72500028D01*
X51137498Y-72500013D01*
X51127005Y-72397302D01*
X51071858Y-72230880D01*
X51071856Y-72230875D01*
X50979815Y-72081654D01*
X50855845Y-71957684D01*
X50706624Y-71865643D01*
X50706619Y-71865641D01*
X50540197Y-71810494D01*
X50540190Y-71810493D01*
X50437486Y-71800000D01*
X50375000Y-71800000D01*
X50375000Y-72750000D01*
X49875000Y-72750000D01*
X49875000Y-71800000D01*
X49874999Y-71799999D01*
X49812528Y-71800000D01*
X49812511Y-71800001D01*
X49709802Y-71810494D01*
X49543380Y-71865641D01*
X49543375Y-71865643D01*
X49394157Y-71957682D01*
X49300534Y-72051305D01*
X49239210Y-72084789D01*
X49169519Y-72079805D01*
X49125172Y-72051304D01*
X49031157Y-71957289D01*
X49031156Y-71957288D01*
X48881834Y-71865186D01*
X48715297Y-71810001D01*
X48715295Y-71810000D01*
X48612510Y-71799500D01*
X47987498Y-71799500D01*
X47987480Y-71799501D01*
X47884703Y-71810000D01*
X47884700Y-71810001D01*
X47718168Y-71865185D01*
X47718163Y-71865187D01*
X47568842Y-71957289D01*
X47444789Y-72081342D01*
X47352687Y-72230663D01*
X47352685Y-72230668D01*
X47324905Y-72314504D01*
X47285132Y-72371949D01*
X47220616Y-72398772D01*
X47207199Y-72399500D01*
X46649097Y-72399500D01*
X46582058Y-72379815D01*
X46536303Y-72327011D01*
X46526359Y-72257853D01*
X46555384Y-72194297D01*
X46561416Y-72187819D01*
X46924816Y-71824419D01*
X47624248Y-71124986D01*
X67300001Y-71124986D01*
X67310494Y-71227697D01*
X67365641Y-71394119D01*
X67365643Y-71394124D01*
X67457684Y-71543345D01*
X67581654Y-71667315D01*
X67730875Y-71759356D01*
X67730880Y-71759358D01*
X67897302Y-71814505D01*
X67897309Y-71814506D01*
X68000019Y-71824999D01*
X68049999Y-71824998D01*
X68050000Y-71824998D01*
X68050000Y-70850000D01*
X67300001Y-70850000D01*
X67300001Y-71124986D01*
X47624248Y-71124986D01*
X48521006Y-70228227D01*
X48521011Y-70228224D01*
X48531214Y-70218020D01*
X48531216Y-70218020D01*
X48643020Y-70106216D01*
X48661035Y-70075013D01*
X67300000Y-70075013D01*
X67300000Y-70350000D01*
X68050000Y-70350000D01*
X68050000Y-69375000D01*
X68049999Y-69374999D01*
X68000029Y-69375000D01*
X68000011Y-69375001D01*
X67897302Y-69385494D01*
X67730880Y-69440641D01*
X67730875Y-69440643D01*
X67581654Y-69532684D01*
X67457684Y-69656654D01*
X67365643Y-69805875D01*
X67365641Y-69805880D01*
X67310494Y-69972302D01*
X67310493Y-69972309D01*
X67300000Y-70075013D01*
X48661035Y-70075013D01*
X48722077Y-69969284D01*
X48763000Y-69816557D01*
X48763000Y-69547844D01*
X60500000Y-69547844D01*
X60506401Y-69607372D01*
X60506403Y-69607379D01*
X60556645Y-69742086D01*
X60556649Y-69742093D01*
X60642809Y-69857187D01*
X60642812Y-69857190D01*
X60757906Y-69943350D01*
X60757913Y-69943354D01*
X60892620Y-69993596D01*
X60892627Y-69993598D01*
X60952155Y-69999999D01*
X60952172Y-70000000D01*
X61250000Y-70000000D01*
X61750000Y-70000000D01*
X62047828Y-70000000D01*
X62047844Y-69999999D01*
X62107372Y-69993598D01*
X62107379Y-69993596D01*
X62209034Y-69955682D01*
X62242086Y-69943354D01*
X62242093Y-69943350D01*
X62357187Y-69857190D01*
X62357190Y-69857187D01*
X62443350Y-69742093D01*
X62443354Y-69742086D01*
X62493596Y-69607379D01*
X62493598Y-69607372D01*
X62499999Y-69547844D01*
X62500000Y-69547827D01*
X62500000Y-69250000D01*
X61750000Y-69250000D01*
X61750000Y-70000000D01*
X61250000Y-70000000D01*
X61250000Y-69250000D01*
X60500000Y-69250000D01*
X60500000Y-69547844D01*
X48763000Y-69547844D01*
X48763000Y-68779849D01*
X48782685Y-68712810D01*
X48821902Y-68674311D01*
X48871003Y-68644026D01*
X48994026Y-68521003D01*
X48994458Y-68520301D01*
X48994881Y-68519921D01*
X48998507Y-68515336D01*
X48999290Y-68515955D01*
X49046402Y-68473575D01*
X49115364Y-68462349D01*
X49179448Y-68490188D01*
X49201342Y-68515455D01*
X49201493Y-68515336D01*
X49204143Y-68518687D01*
X49205540Y-68520299D01*
X49205972Y-68520999D01*
X49205975Y-68521004D01*
X49328996Y-68644025D01*
X49329000Y-68644028D01*
X49477066Y-68735357D01*
X49477069Y-68735358D01*
X49477075Y-68735362D01*
X49642225Y-68790087D01*
X49744152Y-68800500D01*
X49744157Y-68800500D01*
X50330843Y-68800500D01*
X50330848Y-68800500D01*
X50432775Y-68790087D01*
X50591515Y-68737486D01*
X52300001Y-68737486D01*
X52310494Y-68840197D01*
X52365641Y-69006619D01*
X52365643Y-69006624D01*
X52457684Y-69155845D01*
X52581654Y-69279815D01*
X52730875Y-69371856D01*
X52730880Y-69371858D01*
X52897302Y-69427005D01*
X52897309Y-69427006D01*
X53000019Y-69437499D01*
X53249999Y-69437499D01*
X53750000Y-69437499D01*
X53999972Y-69437499D01*
X53999986Y-69437498D01*
X54102697Y-69427005D01*
X54269119Y-69371858D01*
X54269124Y-69371856D01*
X54418345Y-69279815D01*
X54542315Y-69155845D01*
X54556073Y-69133541D01*
X54634356Y-69006624D01*
X54634358Y-69006619D01*
X54689505Y-68840197D01*
X54689506Y-68840190D01*
X54699999Y-68737486D01*
X54700000Y-68737473D01*
X54700000Y-68675000D01*
X53750000Y-68675000D01*
X53750000Y-69437499D01*
X53249999Y-69437499D01*
X53250000Y-69437498D01*
X53250000Y-68675000D01*
X52300001Y-68675000D01*
X52300001Y-68737486D01*
X50591515Y-68737486D01*
X50597925Y-68735362D01*
X50746003Y-68644026D01*
X50869026Y-68521003D01*
X50911492Y-68452155D01*
X60500000Y-68452155D01*
X60500000Y-68750000D01*
X61250000Y-68750000D01*
X61750000Y-68750000D01*
X62500000Y-68750000D01*
X62500000Y-68452172D01*
X62499999Y-68452155D01*
X62493598Y-68392627D01*
X62493596Y-68392620D01*
X62443354Y-68257913D01*
X62443350Y-68257906D01*
X62357190Y-68142812D01*
X62357187Y-68142809D01*
X62242093Y-68056649D01*
X62242086Y-68056645D01*
X62107379Y-68006403D01*
X62107372Y-68006401D01*
X62047844Y-68000000D01*
X61750000Y-68000000D01*
X61750000Y-68750000D01*
X61250000Y-68750000D01*
X61250000Y-68000000D01*
X60952155Y-68000000D01*
X60892627Y-68006401D01*
X60892620Y-68006403D01*
X60757913Y-68056645D01*
X60757906Y-68056649D01*
X60642812Y-68142809D01*
X60642809Y-68142812D01*
X60556649Y-68257906D01*
X60556645Y-68257913D01*
X60506403Y-68392620D01*
X60506401Y-68392627D01*
X60500000Y-68452155D01*
X50911492Y-68452155D01*
X50960362Y-68372925D01*
X51015087Y-68207775D01*
X51025500Y-68105848D01*
X51025500Y-67512597D01*
X51045185Y-67445558D01*
X51061819Y-67424916D01*
X51249917Y-67236819D01*
X51311240Y-67203334D01*
X51337598Y-67200500D01*
X52307492Y-67200500D01*
X52308843Y-67200896D01*
X52310203Y-67200530D01*
X52342267Y-67210711D01*
X52374531Y-67220185D01*
X52375887Y-67221386D01*
X52376796Y-67221675D01*
X52380119Y-67225134D01*
X52402958Y-67245366D01*
X52408485Y-67252034D01*
X52457288Y-67331156D01*
X52555396Y-67429264D01*
X52559089Y-67433719D01*
X52570707Y-67460706D01*
X52584789Y-67486495D01*
X52584364Y-67492429D01*
X52586717Y-67497894D01*
X52581901Y-67526875D01*
X52579805Y-67556187D01*
X52576062Y-67562009D01*
X52575264Y-67566818D01*
X52567371Y-67575533D01*
X52551305Y-67600534D01*
X52457682Y-67694157D01*
X52365643Y-67843375D01*
X52365641Y-67843380D01*
X52310494Y-68009802D01*
X52310493Y-68009809D01*
X52300000Y-68112513D01*
X52300000Y-68175000D01*
X54699999Y-68175000D01*
X54699999Y-68112528D01*
X54699998Y-68112513D01*
X54689505Y-68009802D01*
X54634358Y-67843380D01*
X54634356Y-67843375D01*
X54542315Y-67694154D01*
X54448695Y-67600534D01*
X54415210Y-67539211D01*
X54420194Y-67469519D01*
X54448691Y-67425176D01*
X54542712Y-67331156D01*
X54634814Y-67181834D01*
X54689999Y-67015297D01*
X54700500Y-66912509D01*
X54700499Y-66287492D01*
X54700423Y-66286751D01*
X54689999Y-66184703D01*
X54689998Y-66184700D01*
X54634814Y-66018166D01*
X54542712Y-65868844D01*
X54486049Y-65812181D01*
X54452564Y-65750858D01*
X54457548Y-65681166D01*
X54499420Y-65625233D01*
X54564884Y-65600816D01*
X54573730Y-65600500D01*
X67213331Y-65600500D01*
X67213347Y-65600501D01*
X67220943Y-65600501D01*
X67379054Y-65600501D01*
X67379057Y-65600501D01*
X67531785Y-65559577D01*
X67581904Y-65530639D01*
X67668716Y-65480520D01*
X67780520Y-65368716D01*
X67780520Y-65368714D01*
X67790728Y-65358507D01*
X67790729Y-65358504D01*
X69287820Y-63861413D01*
X69349142Y-63827930D01*
X69418834Y-63832914D01*
G37*
%TD.AperFunction*%
%TD*%
M02*
