%TF.GenerationSoftware,KiCad,Pcbnew,9.0.0*%
%TF.CreationDate,2025-08-08T17:30:59+02:00*%
%TF.ProjectId,audioVisualizer_PCB,61756469-6f56-4697-9375-616c697a6572,rev?*%
%TF.SameCoordinates,Original*%
%TF.FileFunction,Copper,L2,Bot*%
%TF.FilePolarity,Positive*%
%FSLAX46Y46*%
G04 Gerber Fmt 4.6, Leading zero omitted, Abs format (unit mm)*
G04 Created by KiCad (PCBNEW 9.0.0) date 2025-08-08 17:30:59*
%MOMM*%
%LPD*%
G01*
G04 APERTURE LIST*
%TA.AperFunction,HeatsinkPad*%
%ADD10O,0.900000X1.600000*%
%TD*%
%TA.AperFunction,ComponentPad*%
%ADD11R,0.850000X0.850000*%
%TD*%
%TA.AperFunction,ComponentPad*%
%ADD12O,0.850000X0.850000*%
%TD*%
%TA.AperFunction,ComponentPad*%
%ADD13C,1.500000*%
%TD*%
%TA.AperFunction,ViaPad*%
%ADD14C,0.600000*%
%TD*%
%TA.AperFunction,Conductor*%
%ADD15C,0.200000*%
%TD*%
G04 APERTURE END LIST*
D10*
%TO.P,J2,6,Shield*%
%TO.N,unconnected-(J2-Shield-Pad6)_4*%
X158600000Y-43000000D03*
%TO.N,unconnected-(J2-Shield-Pad6)_3*%
X152000000Y-43000000D03*
%TD*%
D11*
%TO.P,J1,1,Pin_1*%
%TO.N,/OUT*%
X119000000Y-43375000D03*
D12*
%TO.P,J1,2,Pin_2*%
%TO.N,GND*%
X120000000Y-43375000D03*
%TO.P,J1,3,Pin_3*%
%TO.N,+3.3V*%
X121000000Y-43375000D03*
%TD*%
D11*
%TO.P,J4,1,Pin_1*%
%TO.N,GND*%
X140500000Y-43500000D03*
D12*
%TO.P,J4,2,Pin_2*%
%TO.N,/SWDIO*%
X139500000Y-43500000D03*
%TO.P,J4,3,Pin_3*%
%TO.N,Net-(J4-Pin_3)*%
X138500000Y-43500000D03*
%TO.P,J4,4,Pin_4*%
%TO.N,VBUS*%
X137500000Y-43500000D03*
%TD*%
D13*
%TO.P,Y1,1,1*%
%TO.N,Net-(U1-PD1)*%
X115000000Y-58450000D03*
%TO.P,Y1,2,2*%
%TO.N,Net-(U1-PD0)*%
X115000000Y-53570000D03*
%TD*%
D11*
%TO.P,J3,1,Pin_1*%
%TO.N,/CLK*%
X172000000Y-59000000D03*
D12*
%TO.P,J3,2,Pin_2*%
%TO.N,/CS*%
X172000000Y-58000000D03*
%TO.P,J3,3,Pin_3*%
%TO.N,/DIN*%
X172000000Y-57000000D03*
%TO.P,J3,4,Pin_4*%
%TO.N,GND*%
X172000000Y-56000000D03*
%TO.P,J3,5,Pin_5*%
%TO.N,VBUS*%
X172000000Y-55000000D03*
%TD*%
D14*
%TO.N,Net-(J4-Pin_3)*%
X138747100Y-50696100D03*
%TO.N,/SWDIO*%
X138258700Y-53919000D03*
%TO.N,/CS*%
X137417900Y-56749600D03*
X141351300Y-54765000D03*
X170124500Y-56127000D03*
%TO.N,/CLK*%
X138255000Y-56192300D03*
X143482600Y-59938800D03*
%TO.N,/OUT*%
X132511200Y-57622500D03*
%TO.N,GND*%
X133500000Y-64500000D03*
X153872900Y-46877300D03*
X134587500Y-50327400D03*
X131023000Y-50629700D03*
X151720500Y-61987000D03*
X144345200Y-50362900D03*
X166705700Y-45535500D03*
X151809400Y-53956900D03*
X160030700Y-67913500D03*
X144457700Y-61987000D03*
X152525800Y-65122500D03*
X125010800Y-58518500D03*
X123472300Y-51167500D03*
X133765400Y-50199700D03*
X129212000Y-56779400D03*
X140743300Y-53876000D03*
%TD*%
D15*
%TO.N,Net-(J4-Pin_3)*%
X138500000Y-50449000D02*
X138747100Y-50696100D01*
X138500000Y-43500000D02*
X138500000Y-50449000D01*
%TO.N,/SWDIO*%
X139500000Y-52677700D02*
X139500000Y-43500000D01*
X138258700Y-53919000D02*
X139500000Y-52677700D01*
%TO.N,/CS*%
X170124500Y-56851200D02*
X171273300Y-58000000D01*
X170124500Y-56127000D02*
X170124500Y-56851200D01*
X172000000Y-58000000D02*
X171273300Y-58000000D01*
X144084300Y-57498000D02*
X141351300Y-54765000D01*
X144084300Y-60188000D02*
X144084300Y-57498000D01*
X143731800Y-60540500D02*
X144084300Y-60188000D01*
X141208800Y-60540500D02*
X143731800Y-60540500D01*
X137417900Y-56749600D02*
X141208800Y-60540500D01*
%TO.N,/CLK*%
X139736100Y-56192300D02*
X138255000Y-56192300D01*
X143482600Y-59938800D02*
X139736100Y-56192300D01*
%TO.N,/OUT*%
X119000000Y-44111300D02*
X132511200Y-57622500D01*
X119000000Y-43375000D02*
X119000000Y-44111300D01*
%TD*%
%TA.AperFunction,Conductor*%
%TO.N,GND*%
G36*
X151125876Y-42020185D02*
G01*
X151171631Y-42072989D01*
X151181575Y-42142147D01*
X151161939Y-42193391D01*
X151157681Y-42199762D01*
X151157676Y-42199771D01*
X151086027Y-42372748D01*
X151086025Y-42372756D01*
X151049500Y-42556379D01*
X151049500Y-43443620D01*
X151086025Y-43627243D01*
X151086027Y-43627251D01*
X151157676Y-43800228D01*
X151157681Y-43800237D01*
X151261697Y-43955907D01*
X151261700Y-43955911D01*
X151394088Y-44088299D01*
X151394092Y-44088302D01*
X151549762Y-44192318D01*
X151549771Y-44192323D01*
X151588476Y-44208355D01*
X151722749Y-44263973D01*
X151833050Y-44285913D01*
X151906379Y-44300499D01*
X151906383Y-44300500D01*
X151906384Y-44300500D01*
X152093617Y-44300500D01*
X152093618Y-44300499D01*
X152277251Y-44263973D01*
X152450231Y-44192322D01*
X152605908Y-44088302D01*
X152738302Y-43955908D01*
X152842322Y-43800231D01*
X152913973Y-43627251D01*
X152950500Y-43443616D01*
X152950500Y-42556384D01*
X152913973Y-42372749D01*
X152842322Y-42199769D01*
X152842321Y-42199768D01*
X152842318Y-42199762D01*
X152838061Y-42193391D01*
X152817183Y-42126714D01*
X152835667Y-42059333D01*
X152887646Y-42012643D01*
X152941163Y-42000500D01*
X157658837Y-42000500D01*
X157725876Y-42020185D01*
X157771631Y-42072989D01*
X157781575Y-42142147D01*
X157761939Y-42193391D01*
X157757681Y-42199762D01*
X157757676Y-42199771D01*
X157686027Y-42372748D01*
X157686025Y-42372756D01*
X157649500Y-42556379D01*
X157649500Y-43443620D01*
X157686025Y-43627243D01*
X157686027Y-43627251D01*
X157757676Y-43800228D01*
X157757681Y-43800237D01*
X157861697Y-43955907D01*
X157861700Y-43955911D01*
X157994088Y-44088299D01*
X157994092Y-44088302D01*
X158149762Y-44192318D01*
X158149771Y-44192323D01*
X158188476Y-44208355D01*
X158322749Y-44263973D01*
X158433050Y-44285913D01*
X158506379Y-44300499D01*
X158506383Y-44300500D01*
X158506384Y-44300500D01*
X158693617Y-44300500D01*
X158693618Y-44300499D01*
X158877251Y-44263973D01*
X159050231Y-44192322D01*
X159205908Y-44088302D01*
X159338302Y-43955908D01*
X159442322Y-43800231D01*
X159513973Y-43627251D01*
X159550500Y-43443616D01*
X159550500Y-42556384D01*
X159513973Y-42372749D01*
X159442322Y-42199769D01*
X159442321Y-42199768D01*
X159442318Y-42199762D01*
X159438061Y-42193391D01*
X159417183Y-42126714D01*
X159435667Y-42059333D01*
X159487646Y-42012643D01*
X159541163Y-42000500D01*
X173875500Y-42000500D01*
X173942539Y-42020185D01*
X173988294Y-42072989D01*
X173999500Y-42124500D01*
X173999500Y-71375500D01*
X173979815Y-71442539D01*
X173927011Y-71488294D01*
X173875500Y-71499500D01*
X110124500Y-71499500D01*
X110057461Y-71479815D01*
X110011706Y-71427011D01*
X110000500Y-71375500D01*
X110000500Y-58351577D01*
X113749500Y-58351577D01*
X113749500Y-58548422D01*
X113780290Y-58742826D01*
X113841117Y-58930029D01*
X113923017Y-59090765D01*
X113930476Y-59105405D01*
X114046172Y-59264646D01*
X114185354Y-59403828D01*
X114344595Y-59519524D01*
X114370027Y-59532482D01*
X114519970Y-59608882D01*
X114519972Y-59608882D01*
X114519975Y-59608884D01*
X114620317Y-59641487D01*
X114707173Y-59669709D01*
X114901578Y-59700500D01*
X114901583Y-59700500D01*
X115098422Y-59700500D01*
X115292826Y-59669709D01*
X115300154Y-59667328D01*
X115480025Y-59608884D01*
X115655405Y-59519524D01*
X115814646Y-59403828D01*
X115953828Y-59264646D01*
X116069524Y-59105405D01*
X116158884Y-58930025D01*
X116219709Y-58742826D01*
X116234378Y-58650211D01*
X116250500Y-58548422D01*
X116250500Y-58351577D01*
X116219709Y-58157173D01*
X116158882Y-57969970D01*
X116100810Y-57855997D01*
X116069524Y-57794595D01*
X115953828Y-57635354D01*
X115814646Y-57496172D01*
X115655405Y-57380476D01*
X115637565Y-57371386D01*
X115480029Y-57291117D01*
X115292826Y-57230290D01*
X115098422Y-57199500D01*
X115098417Y-57199500D01*
X114901583Y-57199500D01*
X114901578Y-57199500D01*
X114707173Y-57230290D01*
X114519970Y-57291117D01*
X114344594Y-57380476D01*
X114264892Y-57438384D01*
X114185354Y-57496172D01*
X114185352Y-57496174D01*
X114185351Y-57496174D01*
X114046174Y-57635351D01*
X114046174Y-57635352D01*
X114046172Y-57635354D01*
X114044860Y-57637160D01*
X113930476Y-57794594D01*
X113841117Y-57969970D01*
X113780290Y-58157173D01*
X113749500Y-58351577D01*
X110000500Y-58351577D01*
X110000500Y-53471577D01*
X113749500Y-53471577D01*
X113749500Y-53668422D01*
X113780290Y-53862826D01*
X113841117Y-54050029D01*
X113907255Y-54179831D01*
X113930476Y-54225405D01*
X114046172Y-54384646D01*
X114185354Y-54523828D01*
X114344595Y-54639524D01*
X114427455Y-54681743D01*
X114519970Y-54728882D01*
X114519972Y-54728882D01*
X114519975Y-54728884D01*
X114620317Y-54761487D01*
X114707173Y-54789709D01*
X114901578Y-54820500D01*
X114901583Y-54820500D01*
X115098422Y-54820500D01*
X115292826Y-54789709D01*
X115480025Y-54728884D01*
X115655405Y-54639524D01*
X115814646Y-54523828D01*
X115953828Y-54384646D01*
X116069524Y-54225405D01*
X116158884Y-54050025D01*
X116219709Y-53862826D01*
X116247793Y-53685510D01*
X116250500Y-53668422D01*
X116250500Y-53471577D01*
X116219709Y-53277173D01*
X116184374Y-53168426D01*
X116158884Y-53089975D01*
X116158882Y-53089972D01*
X116158882Y-53089970D01*
X116111743Y-52997455D01*
X116069524Y-52914595D01*
X115953828Y-52755354D01*
X115814646Y-52616172D01*
X115655405Y-52500476D01*
X115480029Y-52411117D01*
X115292826Y-52350290D01*
X115098422Y-52319500D01*
X115098417Y-52319500D01*
X114901583Y-52319500D01*
X114901578Y-52319500D01*
X114707173Y-52350290D01*
X114519970Y-52411117D01*
X114344594Y-52500476D01*
X114253741Y-52566485D01*
X114185354Y-52616172D01*
X114185352Y-52616174D01*
X114185351Y-52616174D01*
X114046174Y-52755351D01*
X114046174Y-52755352D01*
X114046172Y-52755354D01*
X114045153Y-52756757D01*
X113930476Y-52914594D01*
X113841117Y-53089970D01*
X113780290Y-53277173D01*
X113749500Y-53471577D01*
X110000500Y-53471577D01*
X110000500Y-42902135D01*
X118074500Y-42902135D01*
X118074500Y-43847870D01*
X118074501Y-43847876D01*
X118080908Y-43907483D01*
X118131202Y-44042328D01*
X118131206Y-44042335D01*
X118217452Y-44157544D01*
X118217455Y-44157547D01*
X118332664Y-44243793D01*
X118332669Y-44243796D01*
X118362931Y-44255083D01*
X118418864Y-44296952D01*
X118430425Y-44315645D01*
X118436100Y-44326953D01*
X118440423Y-44343085D01*
X118467471Y-44389933D01*
X118488005Y-44425500D01*
X118519479Y-44480014D01*
X118519481Y-44480017D01*
X118638349Y-44598885D01*
X118638355Y-44598890D01*
X131676625Y-57637160D01*
X131710110Y-57698483D01*
X131710561Y-57700649D01*
X131741461Y-57855991D01*
X131741464Y-57856001D01*
X131801802Y-58001672D01*
X131801809Y-58001685D01*
X131889410Y-58132788D01*
X131889413Y-58132792D01*
X132000907Y-58244286D01*
X132000911Y-58244289D01*
X132132014Y-58331890D01*
X132132027Y-58331897D01*
X132229411Y-58372234D01*
X132277703Y-58392237D01*
X132432353Y-58422999D01*
X132432356Y-58423000D01*
X132432358Y-58423000D01*
X132590044Y-58423000D01*
X132590045Y-58422999D01*
X132744697Y-58392237D01*
X132890379Y-58331894D01*
X133021489Y-58244289D01*
X133132989Y-58132789D01*
X133220594Y-58001679D01*
X133280937Y-57855997D01*
X133311700Y-57701342D01*
X133311700Y-57543658D01*
X133311700Y-57543655D01*
X133311699Y-57543653D01*
X133294858Y-57458990D01*
X133280937Y-57389003D01*
X133240392Y-57291117D01*
X133220597Y-57243327D01*
X133220590Y-57243314D01*
X133132989Y-57112211D01*
X133132986Y-57112207D01*
X133021492Y-57000713D01*
X133021488Y-57000710D01*
X132890385Y-56913109D01*
X132890372Y-56913102D01*
X132744701Y-56852764D01*
X132744691Y-56852761D01*
X132589349Y-56821861D01*
X132572592Y-56813095D01*
X132554114Y-56809076D01*
X132529077Y-56790333D01*
X132527438Y-56789476D01*
X132525860Y-56787925D01*
X132408688Y-56670753D01*
X136617400Y-56670753D01*
X136617400Y-56828446D01*
X136648161Y-56983089D01*
X136648164Y-56983101D01*
X136708502Y-57128772D01*
X136708509Y-57128785D01*
X136796110Y-57259888D01*
X136796113Y-57259892D01*
X136907607Y-57371386D01*
X136907611Y-57371389D01*
X137038714Y-57458990D01*
X137038727Y-57458997D01*
X137184398Y-57519335D01*
X137184403Y-57519337D01*
X137249047Y-57532195D01*
X137339749Y-57550238D01*
X137401660Y-57582623D01*
X137403239Y-57584174D01*
X140723939Y-60904874D01*
X140723949Y-60904885D01*
X140728279Y-60909215D01*
X140728280Y-60909216D01*
X140840084Y-61021020D01*
X140926895Y-61071139D01*
X140926897Y-61071141D01*
X140977013Y-61100076D01*
X140977015Y-61100077D01*
X141129742Y-61141000D01*
X141129743Y-61141000D01*
X143645131Y-61141000D01*
X143645147Y-61141001D01*
X143652743Y-61141001D01*
X143810854Y-61141001D01*
X143810857Y-61141001D01*
X143963585Y-61100077D01*
X144013704Y-61071139D01*
X144100516Y-61021020D01*
X144212320Y-60909216D01*
X144212320Y-60909214D01*
X144222528Y-60899007D01*
X144222530Y-60899004D01*
X144442806Y-60678728D01*
X144442811Y-60678724D01*
X144453014Y-60668520D01*
X144453016Y-60668520D01*
X144564820Y-60556716D01*
X144629852Y-60444076D01*
X144643877Y-60419785D01*
X144684800Y-60267058D01*
X144684800Y-60108943D01*
X144684800Y-57587060D01*
X144684801Y-57587047D01*
X144684801Y-57418944D01*
X144676777Y-57388998D01*
X144643877Y-57266216D01*
X144605359Y-57199500D01*
X144564824Y-57129290D01*
X144564821Y-57129286D01*
X144564820Y-57129284D01*
X143483689Y-56048153D01*
X169324000Y-56048153D01*
X169324000Y-56205846D01*
X169354761Y-56360489D01*
X169354764Y-56360501D01*
X169415102Y-56506172D01*
X169415109Y-56506185D01*
X169503102Y-56637874D01*
X169508752Y-56655920D01*
X169518977Y-56671830D01*
X169523428Y-56702789D01*
X169523980Y-56704551D01*
X169524000Y-56706765D01*
X169524000Y-56764530D01*
X169523999Y-56764548D01*
X169523999Y-56930254D01*
X169523998Y-56930254D01*
X169564924Y-57082989D01*
X169564925Y-57082990D01*
X169591653Y-57129283D01*
X169591654Y-57129284D01*
X169632193Y-57199500D01*
X169643979Y-57219914D01*
X169643981Y-57219917D01*
X169762849Y-57338785D01*
X169762854Y-57338789D01*
X170904584Y-58480520D01*
X171012501Y-58542825D01*
X171060715Y-58593390D01*
X171074500Y-58650211D01*
X171074500Y-59472870D01*
X171074501Y-59472876D01*
X171080908Y-59532483D01*
X171131202Y-59667328D01*
X171131206Y-59667335D01*
X171217452Y-59782544D01*
X171217455Y-59782547D01*
X171332664Y-59868793D01*
X171332671Y-59868797D01*
X171467517Y-59919091D01*
X171467516Y-59919091D01*
X171474444Y-59919835D01*
X171527127Y-59925500D01*
X172472872Y-59925499D01*
X172532483Y-59919091D01*
X172667331Y-59868796D01*
X172782546Y-59782546D01*
X172868796Y-59667331D01*
X172919091Y-59532483D01*
X172925500Y-59472873D01*
X172925499Y-58527128D01*
X172919091Y-58467517D01*
X172883551Y-58372231D01*
X172878568Y-58302542D01*
X172885173Y-58281447D01*
X172889933Y-58269958D01*
X172917218Y-58132789D01*
X172925500Y-58091156D01*
X172925500Y-57908843D01*
X172889934Y-57730047D01*
X172889933Y-57730046D01*
X172889933Y-57730042D01*
X172876861Y-57698483D01*
X172820169Y-57561615D01*
X172818482Y-57558459D01*
X172818097Y-57556613D01*
X172817836Y-57555982D01*
X172817955Y-57555932D01*
X172804236Y-57490057D01*
X172818482Y-57441541D01*
X172820163Y-57438394D01*
X172820167Y-57438389D01*
X172889933Y-57269958D01*
X172917915Y-57129285D01*
X172925500Y-57091156D01*
X172925500Y-56908843D01*
X172889934Y-56730047D01*
X172889933Y-56730046D01*
X172889933Y-56730042D01*
X172889931Y-56730037D01*
X172820170Y-56561617D01*
X172818193Y-56557918D01*
X172803953Y-56489515D01*
X172818199Y-56441005D01*
X172819730Y-56438140D01*
X172889451Y-56269817D01*
X172889454Y-56269805D01*
X172893394Y-56250000D01*
X172581016Y-56250000D01*
X172513977Y-56230315D01*
X172512157Y-56229123D01*
X172438389Y-56179833D01*
X172438388Y-56179832D01*
X172438386Y-56179831D01*
X172280808Y-56114561D01*
X172237575Y-56079722D01*
X172250000Y-56049728D01*
X172250000Y-55950272D01*
X172238051Y-55921426D01*
X172272755Y-55889116D01*
X172280808Y-55885439D01*
X172380184Y-55844276D01*
X172438389Y-55820167D01*
X172512126Y-55770897D01*
X172578803Y-55750020D01*
X172581016Y-55750000D01*
X172893394Y-55750000D01*
X172889454Y-55730194D01*
X172889451Y-55730182D01*
X172819728Y-55561854D01*
X172818198Y-55558992D01*
X172817849Y-55557318D01*
X172817394Y-55556219D01*
X172817602Y-55556132D01*
X172803951Y-55490590D01*
X172818203Y-55442061D01*
X172820160Y-55438399D01*
X172820167Y-55438389D01*
X172889933Y-55269958D01*
X172901572Y-55211445D01*
X172925500Y-55091156D01*
X172925500Y-54908843D01*
X172889934Y-54730047D01*
X172889933Y-54730046D01*
X172889933Y-54730042D01*
X172872939Y-54689014D01*
X172820168Y-54561612D01*
X172820166Y-54561608D01*
X172718886Y-54410032D01*
X172718880Y-54410024D01*
X172589975Y-54281119D01*
X172589967Y-54281113D01*
X172438391Y-54179833D01*
X172438387Y-54179831D01*
X172269962Y-54110068D01*
X172269952Y-54110065D01*
X172091156Y-54074500D01*
X172091154Y-54074500D01*
X171908846Y-54074500D01*
X171908844Y-54074500D01*
X171730047Y-54110065D01*
X171730037Y-54110068D01*
X171561612Y-54179831D01*
X171561608Y-54179833D01*
X171410032Y-54281113D01*
X171410024Y-54281119D01*
X171281119Y-54410024D01*
X171281113Y-54410032D01*
X171179833Y-54561608D01*
X171179831Y-54561612D01*
X171110068Y-54730037D01*
X171110065Y-54730047D01*
X171074500Y-54908843D01*
X171074500Y-54908846D01*
X171074500Y-55091154D01*
X171074500Y-55091156D01*
X171074499Y-55091156D01*
X171110065Y-55269952D01*
X171110068Y-55269962D01*
X171179833Y-55438390D01*
X171181808Y-55442086D01*
X171196046Y-55510489D01*
X171181811Y-55558972D01*
X171180278Y-55561839D01*
X171110547Y-55730186D01*
X171110545Y-55730191D01*
X171098171Y-55792400D01*
X171065785Y-55854310D01*
X171005069Y-55888884D01*
X170935299Y-55885143D01*
X170878628Y-55844276D01*
X170861994Y-55815662D01*
X170833894Y-55747821D01*
X170833890Y-55747814D01*
X170746289Y-55616711D01*
X170746286Y-55616707D01*
X170634792Y-55505213D01*
X170634788Y-55505210D01*
X170503685Y-55417609D01*
X170503672Y-55417602D01*
X170358001Y-55357264D01*
X170357989Y-55357261D01*
X170203345Y-55326500D01*
X170203342Y-55326500D01*
X170045658Y-55326500D01*
X170045655Y-55326500D01*
X169891010Y-55357261D01*
X169890998Y-55357264D01*
X169745327Y-55417602D01*
X169745314Y-55417609D01*
X169614211Y-55505210D01*
X169614207Y-55505213D01*
X169502713Y-55616707D01*
X169502710Y-55616711D01*
X169415109Y-55747814D01*
X169415102Y-55747827D01*
X169354764Y-55893498D01*
X169354761Y-55893510D01*
X169324000Y-56048153D01*
X143483689Y-56048153D01*
X142185873Y-54750337D01*
X142152388Y-54689014D01*
X142151937Y-54686847D01*
X142142524Y-54639523D01*
X142121037Y-54531503D01*
X142117857Y-54523825D01*
X142060697Y-54385827D01*
X142060690Y-54385814D01*
X141973089Y-54254711D01*
X141973086Y-54254707D01*
X141861592Y-54143213D01*
X141861588Y-54143210D01*
X141730485Y-54055609D01*
X141730472Y-54055602D01*
X141584801Y-53995264D01*
X141584789Y-53995261D01*
X141430145Y-53964500D01*
X141430142Y-53964500D01*
X141272458Y-53964500D01*
X141272455Y-53964500D01*
X141117810Y-53995261D01*
X141117798Y-53995264D01*
X140972127Y-54055602D01*
X140972114Y-54055609D01*
X140841011Y-54143210D01*
X140841007Y-54143213D01*
X140729513Y-54254707D01*
X140729510Y-54254711D01*
X140641909Y-54385814D01*
X140641902Y-54385827D01*
X140581564Y-54531498D01*
X140581561Y-54531510D01*
X140550800Y-54686153D01*
X140550800Y-54843846D01*
X140581561Y-54998489D01*
X140581564Y-54998501D01*
X140641902Y-55144172D01*
X140641909Y-55144185D01*
X140729510Y-55275288D01*
X140729513Y-55275292D01*
X140841007Y-55386786D01*
X140841011Y-55386789D01*
X140972114Y-55474390D01*
X140972127Y-55474397D01*
X141117798Y-55534735D01*
X141117803Y-55534737D01*
X141182447Y-55547595D01*
X141273149Y-55565638D01*
X141335060Y-55598023D01*
X141336639Y-55599574D01*
X143447481Y-57710416D01*
X143480966Y-57771739D01*
X143483800Y-57798097D01*
X143483800Y-58791403D01*
X143464115Y-58858442D01*
X143411311Y-58904197D01*
X143342153Y-58914141D01*
X143278597Y-58885116D01*
X143272119Y-58879084D01*
X140223690Y-55830655D01*
X140223688Y-55830652D01*
X140104817Y-55711781D01*
X140104816Y-55711780D01*
X140018004Y-55661660D01*
X140018004Y-55661659D01*
X140018000Y-55661658D01*
X139967885Y-55632723D01*
X139815157Y-55591799D01*
X139657043Y-55591799D01*
X139649447Y-55591799D01*
X139649431Y-55591800D01*
X138834766Y-55591800D01*
X138767727Y-55572115D01*
X138765875Y-55570902D01*
X138634185Y-55482909D01*
X138634172Y-55482902D01*
X138488501Y-55422564D01*
X138488489Y-55422561D01*
X138333845Y-55391800D01*
X138333842Y-55391800D01*
X138176158Y-55391800D01*
X138176155Y-55391800D01*
X138021510Y-55422561D01*
X138021498Y-55422564D01*
X137875827Y-55482902D01*
X137875814Y-55482909D01*
X137744711Y-55570510D01*
X137744707Y-55570513D01*
X137633213Y-55682007D01*
X137633210Y-55682011D01*
X137545609Y-55813114D01*
X137545607Y-55813118D01*
X137545606Y-55813121D01*
X137520987Y-55872554D01*
X137477149Y-55926955D01*
X137410855Y-55949021D01*
X137406428Y-55949100D01*
X137339055Y-55949100D01*
X137184410Y-55979861D01*
X137184398Y-55979864D01*
X137038727Y-56040202D01*
X137038714Y-56040209D01*
X136907611Y-56127810D01*
X136907607Y-56127813D01*
X136796113Y-56239307D01*
X136796110Y-56239311D01*
X136708509Y-56370414D01*
X136708502Y-56370427D01*
X136648164Y-56516098D01*
X136648161Y-56516110D01*
X136617400Y-56670753D01*
X132408688Y-56670753D01*
X120210796Y-44472861D01*
X120177311Y-44411538D01*
X120182295Y-44341846D01*
X120224167Y-44285913D01*
X120264501Y-44267938D01*
X120263981Y-44266222D01*
X120269817Y-44264451D01*
X120438140Y-44194730D01*
X120441005Y-44193199D01*
X120442679Y-44192850D01*
X120443781Y-44192394D01*
X120443867Y-44192602D01*
X120509407Y-44178952D01*
X120557918Y-44193193D01*
X120561617Y-44195170D01*
X120679005Y-44243793D01*
X120730042Y-44264933D01*
X120730046Y-44264933D01*
X120730047Y-44264934D01*
X120908843Y-44300500D01*
X120908846Y-44300500D01*
X121091156Y-44300500D01*
X121211445Y-44276572D01*
X121269958Y-44264933D01*
X121438389Y-44195167D01*
X121438391Y-44195166D01*
X121513672Y-44144864D01*
X121589972Y-44093883D01*
X121718883Y-43964972D01*
X121820167Y-43813389D01*
X121825619Y-43800228D01*
X121877718Y-43674447D01*
X121889933Y-43644958D01*
X121900635Y-43591156D01*
X136574499Y-43591156D01*
X136610065Y-43769952D01*
X136610068Y-43769962D01*
X136679831Y-43938387D01*
X136679833Y-43938391D01*
X136781113Y-44089967D01*
X136781119Y-44089975D01*
X136910024Y-44218880D01*
X136910032Y-44218886D01*
X137061608Y-44320166D01*
X137061612Y-44320168D01*
X137177945Y-44368354D01*
X137230042Y-44389933D01*
X137230046Y-44389933D01*
X137230047Y-44389934D01*
X137408843Y-44425500D01*
X137408846Y-44425500D01*
X137591156Y-44425500D01*
X137751308Y-44393643D01*
X137820900Y-44399870D01*
X137876077Y-44442733D01*
X137899322Y-44508622D01*
X137899500Y-44515260D01*
X137899500Y-50362330D01*
X137899499Y-50362348D01*
X137899499Y-50528054D01*
X137899498Y-50528054D01*
X137942375Y-50688068D01*
X137946600Y-50720162D01*
X137946600Y-50774946D01*
X137977361Y-50929589D01*
X137977364Y-50929601D01*
X138037702Y-51075272D01*
X138037709Y-51075285D01*
X138125310Y-51206388D01*
X138125313Y-51206392D01*
X138236807Y-51317886D01*
X138236811Y-51317889D01*
X138367914Y-51405490D01*
X138367927Y-51405497D01*
X138513598Y-51465835D01*
X138513603Y-51465837D01*
X138668253Y-51496599D01*
X138668256Y-51496600D01*
X138775500Y-51496600D01*
X138842539Y-51516285D01*
X138888294Y-51569089D01*
X138899500Y-51620600D01*
X138899500Y-52377603D01*
X138879815Y-52444642D01*
X138863181Y-52465284D01*
X138244039Y-53084425D01*
X138182716Y-53117910D01*
X138180550Y-53118361D01*
X138025208Y-53149261D01*
X138025198Y-53149264D01*
X137879527Y-53209602D01*
X137879514Y-53209609D01*
X137748411Y-53297210D01*
X137748407Y-53297213D01*
X137636913Y-53408707D01*
X137636910Y-53408711D01*
X137549309Y-53539814D01*
X137549302Y-53539827D01*
X137488964Y-53685498D01*
X137488961Y-53685510D01*
X137458200Y-53840153D01*
X137458200Y-53997846D01*
X137488961Y-54152489D01*
X137488964Y-54152501D01*
X137549302Y-54298172D01*
X137549309Y-54298185D01*
X137636910Y-54429288D01*
X137636913Y-54429292D01*
X137748407Y-54540786D01*
X137748411Y-54540789D01*
X137879514Y-54628390D01*
X137879527Y-54628397D01*
X138020640Y-54686847D01*
X138025203Y-54688737D01*
X138163590Y-54716264D01*
X138179853Y-54719499D01*
X138179856Y-54719500D01*
X138179858Y-54719500D01*
X138337544Y-54719500D01*
X138337545Y-54719499D01*
X138492197Y-54688737D01*
X138637879Y-54628394D01*
X138768989Y-54540789D01*
X138880489Y-54429289D01*
X138968094Y-54298179D01*
X139028437Y-54152497D01*
X139048820Y-54050025D01*
X139059338Y-53997150D01*
X139091723Y-53935239D01*
X139093220Y-53933714D01*
X139868713Y-53158221D01*
X139868716Y-53158220D01*
X139980520Y-53046416D01*
X140030639Y-52959604D01*
X140059577Y-52909485D01*
X140100500Y-52756758D01*
X140100500Y-52598643D01*
X140100500Y-44549000D01*
X140120185Y-44481961D01*
X140172989Y-44436206D01*
X140224500Y-44425000D01*
X140250000Y-44425000D01*
X140750000Y-44425000D01*
X140972828Y-44425000D01*
X140972844Y-44424999D01*
X141032372Y-44418598D01*
X141032379Y-44418596D01*
X141167086Y-44368354D01*
X141167093Y-44368350D01*
X141282187Y-44282190D01*
X141282190Y-44282187D01*
X141368350Y-44167093D01*
X141368354Y-44167086D01*
X141418596Y-44032379D01*
X141418598Y-44032372D01*
X141424999Y-43972844D01*
X141425000Y-43972827D01*
X141425000Y-43750000D01*
X140750000Y-43750000D01*
X140750000Y-44425000D01*
X140250000Y-44425000D01*
X140250000Y-44081016D01*
X140269685Y-44013977D01*
X140270898Y-44012125D01*
X140320167Y-43938389D01*
X140389933Y-43769958D01*
X140398193Y-43728428D01*
X140450272Y-43750000D01*
X140549728Y-43750000D01*
X140641614Y-43711940D01*
X140711940Y-43641614D01*
X140750000Y-43549728D01*
X140750000Y-43450272D01*
X140711940Y-43358386D01*
X140641614Y-43288060D01*
X140549728Y-43250000D01*
X140750000Y-43250000D01*
X141425000Y-43250000D01*
X141425000Y-43027172D01*
X141424999Y-43027155D01*
X141418598Y-42967627D01*
X141418596Y-42967620D01*
X141368354Y-42832913D01*
X141368350Y-42832906D01*
X141282190Y-42717812D01*
X141282187Y-42717809D01*
X141167093Y-42631649D01*
X141167086Y-42631645D01*
X141032379Y-42581403D01*
X141032372Y-42581401D01*
X140972844Y-42575000D01*
X140750000Y-42575000D01*
X140750000Y-43250000D01*
X140549728Y-43250000D01*
X140450272Y-43250000D01*
X140398193Y-43271571D01*
X140389934Y-43230047D01*
X140389933Y-43230046D01*
X140389933Y-43230042D01*
X140389931Y-43230037D01*
X140320169Y-43061614D01*
X140270897Y-42987873D01*
X140250020Y-42921196D01*
X140250000Y-42918983D01*
X140250000Y-42575000D01*
X140027155Y-42575000D01*
X139967627Y-42581401D01*
X139967616Y-42581403D01*
X139872909Y-42616727D01*
X139803218Y-42621711D01*
X139782127Y-42615107D01*
X139769962Y-42610068D01*
X139769952Y-42610065D01*
X139591156Y-42574500D01*
X139591154Y-42574500D01*
X139408846Y-42574500D01*
X139408844Y-42574500D01*
X139230047Y-42610065D01*
X139230041Y-42610067D01*
X139061605Y-42679835D01*
X139058444Y-42681525D01*
X139056600Y-42681908D01*
X139055984Y-42682164D01*
X139055935Y-42682047D01*
X138990040Y-42695761D01*
X138941556Y-42681525D01*
X138938394Y-42679835D01*
X138769958Y-42610067D01*
X138769952Y-42610065D01*
X138591156Y-42574500D01*
X138591154Y-42574500D01*
X138408846Y-42574500D01*
X138408844Y-42574500D01*
X138230047Y-42610065D01*
X138230041Y-42610067D01*
X138061605Y-42679835D01*
X138058444Y-42681525D01*
X138056600Y-42681908D01*
X138055984Y-42682164D01*
X138055935Y-42682047D01*
X137990040Y-42695761D01*
X137941556Y-42681525D01*
X137938394Y-42679835D01*
X137769958Y-42610067D01*
X137769952Y-42610065D01*
X137591156Y-42574500D01*
X137591154Y-42574500D01*
X137408846Y-42574500D01*
X137408844Y-42574500D01*
X137230047Y-42610065D01*
X137230037Y-42610068D01*
X137061612Y-42679831D01*
X137061608Y-42679833D01*
X136910032Y-42781113D01*
X136910024Y-42781119D01*
X136781119Y-42910024D01*
X136781113Y-42910032D01*
X136679833Y-43061608D01*
X136679831Y-43061612D01*
X136610068Y-43230037D01*
X136610065Y-43230047D01*
X136574500Y-43408843D01*
X136574500Y-43408846D01*
X136574500Y-43591154D01*
X136574500Y-43591156D01*
X136574499Y-43591156D01*
X121900635Y-43591156D01*
X121925500Y-43466154D01*
X121925500Y-43283846D01*
X121925500Y-43283843D01*
X121889934Y-43105047D01*
X121889933Y-43105046D01*
X121889933Y-43105042D01*
X121871944Y-43061612D01*
X121820168Y-42936612D01*
X121820166Y-42936608D01*
X121718886Y-42785032D01*
X121718880Y-42785024D01*
X121589975Y-42656119D01*
X121589967Y-42656113D01*
X121438391Y-42554833D01*
X121438387Y-42554831D01*
X121269962Y-42485068D01*
X121269952Y-42485065D01*
X121091156Y-42449500D01*
X121091154Y-42449500D01*
X120908846Y-42449500D01*
X120908844Y-42449500D01*
X120730047Y-42485065D01*
X120730041Y-42485067D01*
X120561607Y-42554834D01*
X120557909Y-42556811D01*
X120489505Y-42571045D01*
X120441022Y-42556808D01*
X120438157Y-42555276D01*
X120269812Y-42485546D01*
X120250000Y-42481604D01*
X120250000Y-42793983D01*
X120245897Y-42809369D01*
X120246576Y-42822923D01*
X120235579Y-42848066D01*
X120233538Y-42855721D01*
X120231440Y-42859374D01*
X120179833Y-42936611D01*
X120161009Y-42982056D01*
X120157037Y-42988975D01*
X120137336Y-43007851D01*
X120120219Y-43029093D01*
X120112479Y-43031669D01*
X120106588Y-43037314D01*
X120079808Y-43042542D01*
X120053925Y-43051158D01*
X120046020Y-43049140D01*
X120038013Y-43050704D01*
X120012661Y-43040626D01*
X119986226Y-43033879D01*
X119980665Y-43027907D01*
X119973086Y-43024894D01*
X119957208Y-43002712D01*
X119938615Y-42982742D01*
X119936496Y-42973776D01*
X119932418Y-42968079D01*
X119931683Y-42953407D01*
X119925499Y-42927237D01*
X119925499Y-42902129D01*
X119925498Y-42902123D01*
X119925497Y-42902116D01*
X119919091Y-42842517D01*
X119915506Y-42832906D01*
X119868797Y-42707671D01*
X119868793Y-42707664D01*
X119788969Y-42601033D01*
X119788967Y-42601032D01*
X119782546Y-42592454D01*
X119667331Y-42506204D01*
X119592817Y-42478412D01*
X119532482Y-42455908D01*
X119532483Y-42455908D01*
X119472883Y-42449501D01*
X119472881Y-42449500D01*
X119472873Y-42449500D01*
X119472864Y-42449500D01*
X118527129Y-42449500D01*
X118527123Y-42449501D01*
X118467516Y-42455908D01*
X118332671Y-42506202D01*
X118332664Y-42506206D01*
X118217455Y-42592452D01*
X118217452Y-42592455D01*
X118131206Y-42707664D01*
X118131202Y-42707671D01*
X118080908Y-42842517D01*
X118079489Y-42855721D01*
X118074501Y-42902123D01*
X118074500Y-42902135D01*
X110000500Y-42902135D01*
X110000500Y-42124500D01*
X110020185Y-42057461D01*
X110072989Y-42011706D01*
X110124500Y-42000500D01*
X151058837Y-42000500D01*
X151125876Y-42020185D01*
G37*
%TD.AperFunction*%
%TD*%
M02*
