%TF.GenerationSoftware,KiCad,Pcbnew,9.0.0*%
%TF.CreationDate,2025-08-08T17:32:05+02:00*%
%TF.ProjectId,audioVisualizer_PCB,61756469-6f56-4697-9375-616c697a6572,rev?*%
%TF.SameCoordinates,Original*%
%TF.FileFunction,Drillmap*%
%TF.FilePolarity,Positive*%
%FSLAX45Y45*%
G04 Gerber Fmt 4.5, Leading zero omitted, Abs format (unit mm)*
G04 Created by KiCad (PCBNEW 9.0.0) date 2025-08-08 17:32:05*
%MOMM*%
%LPD*%
G01*
G04 APERTURE LIST*
%ADD10C,0.050000*%
%ADD11C,0.200000*%
%ADD12C,0.100000*%
G04 APERTURE END LIST*
D10*
X10950000Y-4150000D02*
X17450000Y-4150000D01*
X17450000Y-7200000D01*
X10950000Y-7200000D01*
X10950000Y-4150000D01*
D11*
D12*
X12332230Y-5101750D02*
X12362230Y-5131750D01*
X12362230Y-5101750D02*
X12332230Y-5131750D01*
X12486080Y-5836850D02*
X12516080Y-5866850D01*
X12516080Y-5836850D02*
X12486080Y-5866850D01*
X12906200Y-5662940D02*
X12936200Y-5692940D01*
X12936200Y-5662940D02*
X12906200Y-5692940D01*
X13087300Y-5047970D02*
X13117300Y-5077970D01*
X13117300Y-5047970D02*
X13087300Y-5077970D01*
X13236120Y-5747250D02*
X13266120Y-5777250D01*
X13266120Y-5747250D02*
X13236120Y-5777250D01*
X13335000Y-6435000D02*
X13365000Y-6465000D01*
X13365000Y-6435000D02*
X13335000Y-6465000D01*
X13361540Y-5004970D02*
X13391540Y-5034970D01*
X13391540Y-5004970D02*
X13361540Y-5034970D01*
X13443750Y-5017740D02*
X13473750Y-5047740D01*
X13473750Y-5017740D02*
X13443750Y-5047740D01*
X13726790Y-5659960D02*
X13756790Y-5689960D01*
X13756790Y-5659960D02*
X13726790Y-5689960D01*
X13810500Y-5604230D02*
X13840500Y-5634230D01*
X13840500Y-5604230D02*
X13810500Y-5634230D01*
X13810870Y-5376900D02*
X13840870Y-5406900D01*
X13840870Y-5376900D02*
X13810870Y-5406900D01*
X13859710Y-5054610D02*
X13889710Y-5084610D01*
X13889710Y-5054610D02*
X13859710Y-5084610D01*
X14059330Y-5372600D02*
X14089330Y-5402600D01*
X14089330Y-5372600D02*
X14059330Y-5402600D01*
X14120130Y-5461500D02*
X14150130Y-5491500D01*
X14150130Y-5461500D02*
X14120130Y-5491500D01*
X14333260Y-5978880D02*
X14363260Y-6008880D01*
X14363260Y-5978880D02*
X14333260Y-6008880D01*
X14419520Y-5021290D02*
X14449520Y-5051290D01*
X14449520Y-5021290D02*
X14419520Y-5051290D01*
X14430770Y-6183700D02*
X14460770Y-6213700D01*
X14460770Y-6183700D02*
X14430770Y-6213700D01*
X15157050Y-6183700D02*
X15187050Y-6213700D01*
X15187050Y-6183700D02*
X15157050Y-6213700D01*
X15165940Y-5380690D02*
X15195940Y-5410690D01*
X15195940Y-5380690D02*
X15165940Y-5410690D01*
X15237580Y-6497250D02*
X15267580Y-6527250D01*
X15267580Y-6497250D02*
X15237580Y-6527250D01*
X15372290Y-4672730D02*
X15402290Y-4702730D01*
X15402290Y-4672730D02*
X15372290Y-4702730D01*
X15988070Y-6776350D02*
X16018070Y-6806350D01*
X16018070Y-6776350D02*
X15988070Y-6806350D01*
X16655570Y-4538550D02*
X16685570Y-4568550D01*
X16685570Y-4538550D02*
X16655570Y-4568550D01*
X16997450Y-5597700D02*
X17027450Y-5627700D01*
X17027450Y-5597700D02*
X16997450Y-5627700D01*
X11925000Y-4337500D02*
G75*
G02*
X11875000Y-4337500I-25000J0D01*
G01*
X11875000Y-4337500D02*
G75*
G02*
X11925000Y-4337500I25000J0D01*
G01*
X12025000Y-4337500D02*
G75*
G02*
X11975000Y-4337500I-25000J0D01*
G01*
X11975000Y-4337500D02*
G75*
G02*
X12025000Y-4337500I25000J0D01*
G01*
X12125000Y-4337500D02*
G75*
G02*
X12075000Y-4337500I-25000J0D01*
G01*
X12075000Y-4337500D02*
G75*
G02*
X12125000Y-4337500I25000J0D01*
G01*
X13775000Y-4350000D02*
G75*
G02*
X13725000Y-4350000I-25000J0D01*
G01*
X13725000Y-4350000D02*
G75*
G02*
X13775000Y-4350000I25000J0D01*
G01*
X13875000Y-4350000D02*
G75*
G02*
X13825000Y-4350000I-25000J0D01*
G01*
X13825000Y-4350000D02*
G75*
G02*
X13875000Y-4350000I25000J0D01*
G01*
X13975000Y-4350000D02*
G75*
G02*
X13925000Y-4350000I-25000J0D01*
G01*
X13925000Y-4350000D02*
G75*
G02*
X13975000Y-4350000I25000J0D01*
G01*
X14075000Y-4350000D02*
G75*
G02*
X14025000Y-4350000I-25000J0D01*
G01*
X14025000Y-4350000D02*
G75*
G02*
X14075000Y-4350000I25000J0D01*
G01*
X15225000Y-4300000D02*
G75*
G02*
X15175000Y-4300000I-25000J0D01*
G01*
X15175000Y-4300000D02*
G75*
G02*
X15225000Y-4300000I25000J0D01*
G01*
X15175000Y-4265000D02*
X15175000Y-4335000D01*
X15225000Y-4335000D02*
G75*
G02*
X15175000Y-4335000I-25000J0D01*
G01*
X15225000Y-4335000D02*
X15225000Y-4265000D01*
X15225000Y-4265000D02*
G75*
G03*
X15175000Y-4265000I-25000J0D01*
G01*
X15885000Y-4300000D02*
G75*
G02*
X15835000Y-4300000I-25000J0D01*
G01*
X15835000Y-4300000D02*
G75*
G02*
X15885000Y-4300000I25000J0D01*
G01*
X15835000Y-4265000D02*
X15835000Y-4335000D01*
X15885000Y-4335000D02*
G75*
G02*
X15835000Y-4335000I-25000J0D01*
G01*
X15885000Y-4335000D02*
X15885000Y-4265000D01*
X15885000Y-4265000D02*
G75*
G03*
X15835000Y-4265000I-25000J0D01*
G01*
X17225000Y-5500000D02*
G75*
G02*
X17175000Y-5500000I-25000J0D01*
G01*
X17175000Y-5500000D02*
G75*
G02*
X17225000Y-5500000I25000J0D01*
G01*
X17225000Y-5600000D02*
G75*
G02*
X17175000Y-5600000I-25000J0D01*
G01*
X17175000Y-5600000D02*
G75*
G02*
X17225000Y-5600000I25000J0D01*
G01*
X17225000Y-5700000D02*
G75*
G02*
X17175000Y-5700000I-25000J0D01*
G01*
X17175000Y-5700000D02*
G75*
G02*
X17225000Y-5700000I25000J0D01*
G01*
X17225000Y-5800000D02*
G75*
G02*
X17175000Y-5800000I-25000J0D01*
G01*
X17175000Y-5800000D02*
G75*
G02*
X17225000Y-5800000I25000J0D01*
G01*
X17225000Y-5900000D02*
G75*
G02*
X17175000Y-5900000I-25000J0D01*
G01*
X17175000Y-5900000D02*
G75*
G02*
X17225000Y-5900000I25000J0D01*
G01*
X11500000Y-5317000D02*
X11500000Y-5397000D01*
X11460000Y-5357000D02*
X11540000Y-5357000D01*
X11500000Y-5805000D02*
X11500000Y-5885000D01*
X11460000Y-5845000D02*
X11540000Y-5845000D01*
D11*
X11208277Y-7513984D02*
X11208277Y-7313984D01*
X11208277Y-7313984D02*
X11255896Y-7313984D01*
X11255896Y-7313984D02*
X11284467Y-7323508D01*
X11284467Y-7323508D02*
X11303515Y-7342555D01*
X11303515Y-7342555D02*
X11313039Y-7361603D01*
X11313039Y-7361603D02*
X11322562Y-7399698D01*
X11322562Y-7399698D02*
X11322562Y-7428269D01*
X11322562Y-7428269D02*
X11313039Y-7466365D01*
X11313039Y-7466365D02*
X11303515Y-7485412D01*
X11303515Y-7485412D02*
X11284467Y-7504460D01*
X11284467Y-7504460D02*
X11255896Y-7513984D01*
X11255896Y-7513984D02*
X11208277Y-7513984D01*
X11408277Y-7513984D02*
X11408277Y-7380650D01*
X11408277Y-7418746D02*
X11417801Y-7399698D01*
X11417801Y-7399698D02*
X11427324Y-7390174D01*
X11427324Y-7390174D02*
X11446372Y-7380650D01*
X11446372Y-7380650D02*
X11465420Y-7380650D01*
X11532086Y-7513984D02*
X11532086Y-7380650D01*
X11532086Y-7313984D02*
X11522562Y-7323508D01*
X11522562Y-7323508D02*
X11532086Y-7333031D01*
X11532086Y-7333031D02*
X11541610Y-7323508D01*
X11541610Y-7323508D02*
X11532086Y-7313984D01*
X11532086Y-7313984D02*
X11532086Y-7333031D01*
X11655896Y-7513984D02*
X11636848Y-7504460D01*
X11636848Y-7504460D02*
X11627324Y-7485412D01*
X11627324Y-7485412D02*
X11627324Y-7313984D01*
X11760658Y-7513984D02*
X11741610Y-7504460D01*
X11741610Y-7504460D02*
X11732086Y-7485412D01*
X11732086Y-7485412D02*
X11732086Y-7313984D01*
X11989229Y-7513984D02*
X11989229Y-7313984D01*
X11989229Y-7313984D02*
X12055896Y-7456841D01*
X12055896Y-7456841D02*
X12122562Y-7313984D01*
X12122562Y-7313984D02*
X12122562Y-7513984D01*
X12303515Y-7513984D02*
X12303515Y-7409222D01*
X12303515Y-7409222D02*
X12293991Y-7390174D01*
X12293991Y-7390174D02*
X12274943Y-7380650D01*
X12274943Y-7380650D02*
X12236848Y-7380650D01*
X12236848Y-7380650D02*
X12217801Y-7390174D01*
X12303515Y-7504460D02*
X12284467Y-7513984D01*
X12284467Y-7513984D02*
X12236848Y-7513984D01*
X12236848Y-7513984D02*
X12217801Y-7504460D01*
X12217801Y-7504460D02*
X12208277Y-7485412D01*
X12208277Y-7485412D02*
X12208277Y-7466365D01*
X12208277Y-7466365D02*
X12217801Y-7447317D01*
X12217801Y-7447317D02*
X12236848Y-7437793D01*
X12236848Y-7437793D02*
X12284467Y-7437793D01*
X12284467Y-7437793D02*
X12303515Y-7428269D01*
X12398753Y-7380650D02*
X12398753Y-7580650D01*
X12398753Y-7390174D02*
X12417801Y-7380650D01*
X12417801Y-7380650D02*
X12455896Y-7380650D01*
X12455896Y-7380650D02*
X12474943Y-7390174D01*
X12474943Y-7390174D02*
X12484467Y-7399698D01*
X12484467Y-7399698D02*
X12493991Y-7418746D01*
X12493991Y-7418746D02*
X12493991Y-7475888D01*
X12493991Y-7475888D02*
X12484467Y-7494936D01*
X12484467Y-7494936D02*
X12474943Y-7504460D01*
X12474943Y-7504460D02*
X12455896Y-7513984D01*
X12455896Y-7513984D02*
X12417801Y-7513984D01*
X12417801Y-7513984D02*
X12398753Y-7504460D01*
X12579705Y-7494936D02*
X12589229Y-7504460D01*
X12589229Y-7504460D02*
X12579705Y-7513984D01*
X12579705Y-7513984D02*
X12570182Y-7504460D01*
X12570182Y-7504460D02*
X12579705Y-7494936D01*
X12579705Y-7494936D02*
X12579705Y-7513984D01*
X12579705Y-7390174D02*
X12589229Y-7399698D01*
X12589229Y-7399698D02*
X12579705Y-7409222D01*
X12579705Y-7409222D02*
X12570182Y-7399698D01*
X12570182Y-7399698D02*
X12579705Y-7390174D01*
X12579705Y-7390174D02*
X12579705Y-7409222D01*
D12*
X10917500Y-7827500D02*
X10947500Y-7857500D01*
X10947500Y-7827500D02*
X10917500Y-7857500D01*
D11*
X11246372Y-7733984D02*
X11265420Y-7733984D01*
X11265420Y-7733984D02*
X11284467Y-7743508D01*
X11284467Y-7743508D02*
X11293991Y-7753031D01*
X11293991Y-7753031D02*
X11303515Y-7772079D01*
X11303515Y-7772079D02*
X11313039Y-7810174D01*
X11313039Y-7810174D02*
X11313039Y-7857793D01*
X11313039Y-7857793D02*
X11303515Y-7895888D01*
X11303515Y-7895888D02*
X11293991Y-7914936D01*
X11293991Y-7914936D02*
X11284467Y-7924460D01*
X11284467Y-7924460D02*
X11265420Y-7933984D01*
X11265420Y-7933984D02*
X11246372Y-7933984D01*
X11246372Y-7933984D02*
X11227324Y-7924460D01*
X11227324Y-7924460D02*
X11217801Y-7914936D01*
X11217801Y-7914936D02*
X11208277Y-7895888D01*
X11208277Y-7895888D02*
X11198753Y-7857793D01*
X11198753Y-7857793D02*
X11198753Y-7810174D01*
X11198753Y-7810174D02*
X11208277Y-7772079D01*
X11208277Y-7772079D02*
X11217801Y-7753031D01*
X11217801Y-7753031D02*
X11227324Y-7743508D01*
X11227324Y-7743508D02*
X11246372Y-7733984D01*
X11398753Y-7914936D02*
X11408277Y-7924460D01*
X11408277Y-7924460D02*
X11398753Y-7933984D01*
X11398753Y-7933984D02*
X11389229Y-7924460D01*
X11389229Y-7924460D02*
X11398753Y-7914936D01*
X11398753Y-7914936D02*
X11398753Y-7933984D01*
X11474943Y-7733984D02*
X11598753Y-7733984D01*
X11598753Y-7733984D02*
X11532086Y-7810174D01*
X11532086Y-7810174D02*
X11560658Y-7810174D01*
X11560658Y-7810174D02*
X11579705Y-7819698D01*
X11579705Y-7819698D02*
X11589229Y-7829222D01*
X11589229Y-7829222D02*
X11598753Y-7848269D01*
X11598753Y-7848269D02*
X11598753Y-7895888D01*
X11598753Y-7895888D02*
X11589229Y-7914936D01*
X11589229Y-7914936D02*
X11579705Y-7924460D01*
X11579705Y-7924460D02*
X11560658Y-7933984D01*
X11560658Y-7933984D02*
X11503515Y-7933984D01*
X11503515Y-7933984D02*
X11484467Y-7924460D01*
X11484467Y-7924460D02*
X11474943Y-7914936D01*
X11722562Y-7733984D02*
X11741610Y-7733984D01*
X11741610Y-7733984D02*
X11760658Y-7743508D01*
X11760658Y-7743508D02*
X11770182Y-7753031D01*
X11770182Y-7753031D02*
X11779705Y-7772079D01*
X11779705Y-7772079D02*
X11789229Y-7810174D01*
X11789229Y-7810174D02*
X11789229Y-7857793D01*
X11789229Y-7857793D02*
X11779705Y-7895888D01*
X11779705Y-7895888D02*
X11770182Y-7914936D01*
X11770182Y-7914936D02*
X11760658Y-7924460D01*
X11760658Y-7924460D02*
X11741610Y-7933984D01*
X11741610Y-7933984D02*
X11722562Y-7933984D01*
X11722562Y-7933984D02*
X11703515Y-7924460D01*
X11703515Y-7924460D02*
X11693991Y-7914936D01*
X11693991Y-7914936D02*
X11684467Y-7895888D01*
X11684467Y-7895888D02*
X11674943Y-7857793D01*
X11674943Y-7857793D02*
X11674943Y-7810174D01*
X11674943Y-7810174D02*
X11684467Y-7772079D01*
X11684467Y-7772079D02*
X11693991Y-7753031D01*
X11693991Y-7753031D02*
X11703515Y-7743508D01*
X11703515Y-7743508D02*
X11722562Y-7733984D01*
X11913039Y-7733984D02*
X11932086Y-7733984D01*
X11932086Y-7733984D02*
X11951134Y-7743508D01*
X11951134Y-7743508D02*
X11960658Y-7753031D01*
X11960658Y-7753031D02*
X11970182Y-7772079D01*
X11970182Y-7772079D02*
X11979705Y-7810174D01*
X11979705Y-7810174D02*
X11979705Y-7857793D01*
X11979705Y-7857793D02*
X11970182Y-7895888D01*
X11970182Y-7895888D02*
X11960658Y-7914936D01*
X11960658Y-7914936D02*
X11951134Y-7924460D01*
X11951134Y-7924460D02*
X11932086Y-7933984D01*
X11932086Y-7933984D02*
X11913039Y-7933984D01*
X11913039Y-7933984D02*
X11893991Y-7924460D01*
X11893991Y-7924460D02*
X11884467Y-7914936D01*
X11884467Y-7914936D02*
X11874943Y-7895888D01*
X11874943Y-7895888D02*
X11865420Y-7857793D01*
X11865420Y-7857793D02*
X11865420Y-7810174D01*
X11865420Y-7810174D02*
X11874943Y-7772079D01*
X11874943Y-7772079D02*
X11884467Y-7753031D01*
X11884467Y-7753031D02*
X11893991Y-7743508D01*
X11893991Y-7743508D02*
X11913039Y-7733984D01*
X12065420Y-7933984D02*
X12065420Y-7800650D01*
X12065420Y-7819698D02*
X12074943Y-7810174D01*
X12074943Y-7810174D02*
X12093991Y-7800650D01*
X12093991Y-7800650D02*
X12122563Y-7800650D01*
X12122563Y-7800650D02*
X12141610Y-7810174D01*
X12141610Y-7810174D02*
X12151134Y-7829222D01*
X12151134Y-7829222D02*
X12151134Y-7933984D01*
X12151134Y-7829222D02*
X12160658Y-7810174D01*
X12160658Y-7810174D02*
X12179705Y-7800650D01*
X12179705Y-7800650D02*
X12208277Y-7800650D01*
X12208277Y-7800650D02*
X12227324Y-7810174D01*
X12227324Y-7810174D02*
X12236848Y-7829222D01*
X12236848Y-7829222D02*
X12236848Y-7933984D01*
X12332086Y-7933984D02*
X12332086Y-7800650D01*
X12332086Y-7819698D02*
X12341610Y-7810174D01*
X12341610Y-7810174D02*
X12360658Y-7800650D01*
X12360658Y-7800650D02*
X12389229Y-7800650D01*
X12389229Y-7800650D02*
X12408277Y-7810174D01*
X12408277Y-7810174D02*
X12417801Y-7829222D01*
X12417801Y-7829222D02*
X12417801Y-7933984D01*
X12417801Y-7829222D02*
X12427324Y-7810174D01*
X12427324Y-7810174D02*
X12446372Y-7800650D01*
X12446372Y-7800650D02*
X12474943Y-7800650D01*
X12474943Y-7800650D02*
X12493991Y-7810174D01*
X12493991Y-7810174D02*
X12503515Y-7829222D01*
X12503515Y-7829222D02*
X12503515Y-7933984D01*
X12893991Y-7724460D02*
X12722563Y-7981603D01*
X13151134Y-7733984D02*
X13170182Y-7733984D01*
X13170182Y-7733984D02*
X13189229Y-7743508D01*
X13189229Y-7743508D02*
X13198753Y-7753031D01*
X13198753Y-7753031D02*
X13208277Y-7772079D01*
X13208277Y-7772079D02*
X13217801Y-7810174D01*
X13217801Y-7810174D02*
X13217801Y-7857793D01*
X13217801Y-7857793D02*
X13208277Y-7895888D01*
X13208277Y-7895888D02*
X13198753Y-7914936D01*
X13198753Y-7914936D02*
X13189229Y-7924460D01*
X13189229Y-7924460D02*
X13170182Y-7933984D01*
X13170182Y-7933984D02*
X13151134Y-7933984D01*
X13151134Y-7933984D02*
X13132086Y-7924460D01*
X13132086Y-7924460D02*
X13122563Y-7914936D01*
X13122563Y-7914936D02*
X13113039Y-7895888D01*
X13113039Y-7895888D02*
X13103515Y-7857793D01*
X13103515Y-7857793D02*
X13103515Y-7810174D01*
X13103515Y-7810174D02*
X13113039Y-7772079D01*
X13113039Y-7772079D02*
X13122563Y-7753031D01*
X13122563Y-7753031D02*
X13132086Y-7743508D01*
X13132086Y-7743508D02*
X13151134Y-7733984D01*
X13303515Y-7914936D02*
X13313039Y-7924460D01*
X13313039Y-7924460D02*
X13303515Y-7933984D01*
X13303515Y-7933984D02*
X13293991Y-7924460D01*
X13293991Y-7924460D02*
X13303515Y-7914936D01*
X13303515Y-7914936D02*
X13303515Y-7933984D01*
X13436848Y-7733984D02*
X13455896Y-7733984D01*
X13455896Y-7733984D02*
X13474944Y-7743508D01*
X13474944Y-7743508D02*
X13484467Y-7753031D01*
X13484467Y-7753031D02*
X13493991Y-7772079D01*
X13493991Y-7772079D02*
X13503515Y-7810174D01*
X13503515Y-7810174D02*
X13503515Y-7857793D01*
X13503515Y-7857793D02*
X13493991Y-7895888D01*
X13493991Y-7895888D02*
X13484467Y-7914936D01*
X13484467Y-7914936D02*
X13474944Y-7924460D01*
X13474944Y-7924460D02*
X13455896Y-7933984D01*
X13455896Y-7933984D02*
X13436848Y-7933984D01*
X13436848Y-7933984D02*
X13417801Y-7924460D01*
X13417801Y-7924460D02*
X13408277Y-7914936D01*
X13408277Y-7914936D02*
X13398753Y-7895888D01*
X13398753Y-7895888D02*
X13389229Y-7857793D01*
X13389229Y-7857793D02*
X13389229Y-7810174D01*
X13389229Y-7810174D02*
X13398753Y-7772079D01*
X13398753Y-7772079D02*
X13408277Y-7753031D01*
X13408277Y-7753031D02*
X13417801Y-7743508D01*
X13417801Y-7743508D02*
X13436848Y-7733984D01*
X13693991Y-7933984D02*
X13579706Y-7933984D01*
X13636848Y-7933984D02*
X13636848Y-7733984D01*
X13636848Y-7733984D02*
X13617801Y-7762555D01*
X13617801Y-7762555D02*
X13598753Y-7781603D01*
X13598753Y-7781603D02*
X13579706Y-7791127D01*
X13884467Y-7933984D02*
X13770182Y-7933984D01*
X13827325Y-7933984D02*
X13827325Y-7733984D01*
X13827325Y-7733984D02*
X13808277Y-7762555D01*
X13808277Y-7762555D02*
X13789229Y-7781603D01*
X13789229Y-7781603D02*
X13770182Y-7791127D01*
X13998753Y-7819698D02*
X13979706Y-7810174D01*
X13979706Y-7810174D02*
X13970182Y-7800650D01*
X13970182Y-7800650D02*
X13960658Y-7781603D01*
X13960658Y-7781603D02*
X13960658Y-7772079D01*
X13960658Y-7772079D02*
X13970182Y-7753031D01*
X13970182Y-7753031D02*
X13979706Y-7743508D01*
X13979706Y-7743508D02*
X13998753Y-7733984D01*
X13998753Y-7733984D02*
X14036848Y-7733984D01*
X14036848Y-7733984D02*
X14055896Y-7743508D01*
X14055896Y-7743508D02*
X14065420Y-7753031D01*
X14065420Y-7753031D02*
X14074944Y-7772079D01*
X14074944Y-7772079D02*
X14074944Y-7781603D01*
X14074944Y-7781603D02*
X14065420Y-7800650D01*
X14065420Y-7800650D02*
X14055896Y-7810174D01*
X14055896Y-7810174D02*
X14036848Y-7819698D01*
X14036848Y-7819698D02*
X13998753Y-7819698D01*
X13998753Y-7819698D02*
X13979706Y-7829222D01*
X13979706Y-7829222D02*
X13970182Y-7838746D01*
X13970182Y-7838746D02*
X13960658Y-7857793D01*
X13960658Y-7857793D02*
X13960658Y-7895888D01*
X13960658Y-7895888D02*
X13970182Y-7914936D01*
X13970182Y-7914936D02*
X13979706Y-7924460D01*
X13979706Y-7924460D02*
X13998753Y-7933984D01*
X13998753Y-7933984D02*
X14036848Y-7933984D01*
X14036848Y-7933984D02*
X14055896Y-7924460D01*
X14055896Y-7924460D02*
X14065420Y-7914936D01*
X14065420Y-7914936D02*
X14074944Y-7895888D01*
X14074944Y-7895888D02*
X14074944Y-7857793D01*
X14074944Y-7857793D02*
X14065420Y-7838746D01*
X14065420Y-7838746D02*
X14055896Y-7829222D01*
X14055896Y-7829222D02*
X14036848Y-7819698D01*
X14151134Y-7733984D02*
X14151134Y-7772079D01*
X14227325Y-7733984D02*
X14227325Y-7772079D01*
X14522563Y-8010174D02*
X14513039Y-8000650D01*
X14513039Y-8000650D02*
X14493991Y-7972079D01*
X14493991Y-7972079D02*
X14484468Y-7953031D01*
X14484468Y-7953031D02*
X14474944Y-7924460D01*
X14474944Y-7924460D02*
X14465420Y-7876841D01*
X14465420Y-7876841D02*
X14465420Y-7838746D01*
X14465420Y-7838746D02*
X14474944Y-7791127D01*
X14474944Y-7791127D02*
X14484468Y-7762555D01*
X14484468Y-7762555D02*
X14493991Y-7743508D01*
X14493991Y-7743508D02*
X14513039Y-7714936D01*
X14513039Y-7714936D02*
X14522563Y-7705412D01*
X14589229Y-7753031D02*
X14598753Y-7743508D01*
X14598753Y-7743508D02*
X14617801Y-7733984D01*
X14617801Y-7733984D02*
X14665420Y-7733984D01*
X14665420Y-7733984D02*
X14684468Y-7743508D01*
X14684468Y-7743508D02*
X14693991Y-7753031D01*
X14693991Y-7753031D02*
X14703515Y-7772079D01*
X14703515Y-7772079D02*
X14703515Y-7791127D01*
X14703515Y-7791127D02*
X14693991Y-7819698D01*
X14693991Y-7819698D02*
X14579706Y-7933984D01*
X14579706Y-7933984D02*
X14703515Y-7933984D01*
X14874944Y-7800650D02*
X14874944Y-7933984D01*
X14827325Y-7724460D02*
X14779706Y-7867317D01*
X14779706Y-7867317D02*
X14903515Y-7867317D01*
X15132087Y-7933984D02*
X15132087Y-7733984D01*
X15217801Y-7933984D02*
X15217801Y-7829222D01*
X15217801Y-7829222D02*
X15208277Y-7810174D01*
X15208277Y-7810174D02*
X15189230Y-7800650D01*
X15189230Y-7800650D02*
X15160658Y-7800650D01*
X15160658Y-7800650D02*
X15141610Y-7810174D01*
X15141610Y-7810174D02*
X15132087Y-7819698D01*
X15341610Y-7933984D02*
X15322563Y-7924460D01*
X15322563Y-7924460D02*
X15313039Y-7914936D01*
X15313039Y-7914936D02*
X15303515Y-7895888D01*
X15303515Y-7895888D02*
X15303515Y-7838746D01*
X15303515Y-7838746D02*
X15313039Y-7819698D01*
X15313039Y-7819698D02*
X15322563Y-7810174D01*
X15322563Y-7810174D02*
X15341610Y-7800650D01*
X15341610Y-7800650D02*
X15370182Y-7800650D01*
X15370182Y-7800650D02*
X15389230Y-7810174D01*
X15389230Y-7810174D02*
X15398753Y-7819698D01*
X15398753Y-7819698D02*
X15408277Y-7838746D01*
X15408277Y-7838746D02*
X15408277Y-7895888D01*
X15408277Y-7895888D02*
X15398753Y-7914936D01*
X15398753Y-7914936D02*
X15389230Y-7924460D01*
X15389230Y-7924460D02*
X15370182Y-7933984D01*
X15370182Y-7933984D02*
X15341610Y-7933984D01*
X15522563Y-7933984D02*
X15503515Y-7924460D01*
X15503515Y-7924460D02*
X15493991Y-7905412D01*
X15493991Y-7905412D02*
X15493991Y-7733984D01*
X15674944Y-7924460D02*
X15655896Y-7933984D01*
X15655896Y-7933984D02*
X15617801Y-7933984D01*
X15617801Y-7933984D02*
X15598753Y-7924460D01*
X15598753Y-7924460D02*
X15589230Y-7905412D01*
X15589230Y-7905412D02*
X15589230Y-7829222D01*
X15589230Y-7829222D02*
X15598753Y-7810174D01*
X15598753Y-7810174D02*
X15617801Y-7800650D01*
X15617801Y-7800650D02*
X15655896Y-7800650D01*
X15655896Y-7800650D02*
X15674944Y-7810174D01*
X15674944Y-7810174D02*
X15684468Y-7829222D01*
X15684468Y-7829222D02*
X15684468Y-7848269D01*
X15684468Y-7848269D02*
X15589230Y-7867317D01*
X15760658Y-7924460D02*
X15779706Y-7933984D01*
X15779706Y-7933984D02*
X15817801Y-7933984D01*
X15817801Y-7933984D02*
X15836849Y-7924460D01*
X15836849Y-7924460D02*
X15846372Y-7905412D01*
X15846372Y-7905412D02*
X15846372Y-7895888D01*
X15846372Y-7895888D02*
X15836849Y-7876841D01*
X15836849Y-7876841D02*
X15817801Y-7867317D01*
X15817801Y-7867317D02*
X15789230Y-7867317D01*
X15789230Y-7867317D02*
X15770182Y-7857793D01*
X15770182Y-7857793D02*
X15760658Y-7838746D01*
X15760658Y-7838746D02*
X15760658Y-7829222D01*
X15760658Y-7829222D02*
X15770182Y-7810174D01*
X15770182Y-7810174D02*
X15789230Y-7800650D01*
X15789230Y-7800650D02*
X15817801Y-7800650D01*
X15817801Y-7800650D02*
X15836849Y-7810174D01*
X15913039Y-8010174D02*
X15922563Y-8000650D01*
X15922563Y-8000650D02*
X15941611Y-7972079D01*
X15941611Y-7972079D02*
X15951134Y-7953031D01*
X15951134Y-7953031D02*
X15960658Y-7924460D01*
X15960658Y-7924460D02*
X15970182Y-7876841D01*
X15970182Y-7876841D02*
X15970182Y-7838746D01*
X15970182Y-7838746D02*
X15960658Y-7791127D01*
X15960658Y-7791127D02*
X15951134Y-7762555D01*
X15951134Y-7762555D02*
X15941611Y-7743508D01*
X15941611Y-7743508D02*
X15922563Y-7714936D01*
X15922563Y-7714936D02*
X15913039Y-7705412D01*
D12*
X10947500Y-8106500D02*
G75*
G02*
X10897500Y-8106500I-25000J0D01*
G01*
X10897500Y-8106500D02*
G75*
G02*
X10947500Y-8106500I25000J0D01*
G01*
D11*
X11246372Y-7997984D02*
X11265420Y-7997984D01*
X11265420Y-7997984D02*
X11284467Y-8007508D01*
X11284467Y-8007508D02*
X11293991Y-8017031D01*
X11293991Y-8017031D02*
X11303515Y-8036079D01*
X11303515Y-8036079D02*
X11313039Y-8074174D01*
X11313039Y-8074174D02*
X11313039Y-8121793D01*
X11313039Y-8121793D02*
X11303515Y-8159888D01*
X11303515Y-8159888D02*
X11293991Y-8178936D01*
X11293991Y-8178936D02*
X11284467Y-8188460D01*
X11284467Y-8188460D02*
X11265420Y-8197984D01*
X11265420Y-8197984D02*
X11246372Y-8197984D01*
X11246372Y-8197984D02*
X11227324Y-8188460D01*
X11227324Y-8188460D02*
X11217801Y-8178936D01*
X11217801Y-8178936D02*
X11208277Y-8159888D01*
X11208277Y-8159888D02*
X11198753Y-8121793D01*
X11198753Y-8121793D02*
X11198753Y-8074174D01*
X11198753Y-8074174D02*
X11208277Y-8036079D01*
X11208277Y-8036079D02*
X11217801Y-8017031D01*
X11217801Y-8017031D02*
X11227324Y-8007508D01*
X11227324Y-8007508D02*
X11246372Y-7997984D01*
X11398753Y-8178936D02*
X11408277Y-8188460D01*
X11408277Y-8188460D02*
X11398753Y-8197984D01*
X11398753Y-8197984D02*
X11389229Y-8188460D01*
X11389229Y-8188460D02*
X11398753Y-8178936D01*
X11398753Y-8178936D02*
X11398753Y-8197984D01*
X11589229Y-7997984D02*
X11493991Y-7997984D01*
X11493991Y-7997984D02*
X11484467Y-8093222D01*
X11484467Y-8093222D02*
X11493991Y-8083698D01*
X11493991Y-8083698D02*
X11513039Y-8074174D01*
X11513039Y-8074174D02*
X11560658Y-8074174D01*
X11560658Y-8074174D02*
X11579705Y-8083698D01*
X11579705Y-8083698D02*
X11589229Y-8093222D01*
X11589229Y-8093222D02*
X11598753Y-8112269D01*
X11598753Y-8112269D02*
X11598753Y-8159888D01*
X11598753Y-8159888D02*
X11589229Y-8178936D01*
X11589229Y-8178936D02*
X11579705Y-8188460D01*
X11579705Y-8188460D02*
X11560658Y-8197984D01*
X11560658Y-8197984D02*
X11513039Y-8197984D01*
X11513039Y-8197984D02*
X11493991Y-8188460D01*
X11493991Y-8188460D02*
X11484467Y-8178936D01*
X11722562Y-7997984D02*
X11741610Y-7997984D01*
X11741610Y-7997984D02*
X11760658Y-8007508D01*
X11760658Y-8007508D02*
X11770182Y-8017031D01*
X11770182Y-8017031D02*
X11779705Y-8036079D01*
X11779705Y-8036079D02*
X11789229Y-8074174D01*
X11789229Y-8074174D02*
X11789229Y-8121793D01*
X11789229Y-8121793D02*
X11779705Y-8159888D01*
X11779705Y-8159888D02*
X11770182Y-8178936D01*
X11770182Y-8178936D02*
X11760658Y-8188460D01*
X11760658Y-8188460D02*
X11741610Y-8197984D01*
X11741610Y-8197984D02*
X11722562Y-8197984D01*
X11722562Y-8197984D02*
X11703515Y-8188460D01*
X11703515Y-8188460D02*
X11693991Y-8178936D01*
X11693991Y-8178936D02*
X11684467Y-8159888D01*
X11684467Y-8159888D02*
X11674943Y-8121793D01*
X11674943Y-8121793D02*
X11674943Y-8074174D01*
X11674943Y-8074174D02*
X11684467Y-8036079D01*
X11684467Y-8036079D02*
X11693991Y-8017031D01*
X11693991Y-8017031D02*
X11703515Y-8007508D01*
X11703515Y-8007508D02*
X11722562Y-7997984D01*
X11913039Y-7997984D02*
X11932086Y-7997984D01*
X11932086Y-7997984D02*
X11951134Y-8007508D01*
X11951134Y-8007508D02*
X11960658Y-8017031D01*
X11960658Y-8017031D02*
X11970182Y-8036079D01*
X11970182Y-8036079D02*
X11979705Y-8074174D01*
X11979705Y-8074174D02*
X11979705Y-8121793D01*
X11979705Y-8121793D02*
X11970182Y-8159888D01*
X11970182Y-8159888D02*
X11960658Y-8178936D01*
X11960658Y-8178936D02*
X11951134Y-8188460D01*
X11951134Y-8188460D02*
X11932086Y-8197984D01*
X11932086Y-8197984D02*
X11913039Y-8197984D01*
X11913039Y-8197984D02*
X11893991Y-8188460D01*
X11893991Y-8188460D02*
X11884467Y-8178936D01*
X11884467Y-8178936D02*
X11874943Y-8159888D01*
X11874943Y-8159888D02*
X11865420Y-8121793D01*
X11865420Y-8121793D02*
X11865420Y-8074174D01*
X11865420Y-8074174D02*
X11874943Y-8036079D01*
X11874943Y-8036079D02*
X11884467Y-8017031D01*
X11884467Y-8017031D02*
X11893991Y-8007508D01*
X11893991Y-8007508D02*
X11913039Y-7997984D01*
X12065420Y-8197984D02*
X12065420Y-8064650D01*
X12065420Y-8083698D02*
X12074943Y-8074174D01*
X12074943Y-8074174D02*
X12093991Y-8064650D01*
X12093991Y-8064650D02*
X12122563Y-8064650D01*
X12122563Y-8064650D02*
X12141610Y-8074174D01*
X12141610Y-8074174D02*
X12151134Y-8093222D01*
X12151134Y-8093222D02*
X12151134Y-8197984D01*
X12151134Y-8093222D02*
X12160658Y-8074174D01*
X12160658Y-8074174D02*
X12179705Y-8064650D01*
X12179705Y-8064650D02*
X12208277Y-8064650D01*
X12208277Y-8064650D02*
X12227324Y-8074174D01*
X12227324Y-8074174D02*
X12236848Y-8093222D01*
X12236848Y-8093222D02*
X12236848Y-8197984D01*
X12332086Y-8197984D02*
X12332086Y-8064650D01*
X12332086Y-8083698D02*
X12341610Y-8074174D01*
X12341610Y-8074174D02*
X12360658Y-8064650D01*
X12360658Y-8064650D02*
X12389229Y-8064650D01*
X12389229Y-8064650D02*
X12408277Y-8074174D01*
X12408277Y-8074174D02*
X12417801Y-8093222D01*
X12417801Y-8093222D02*
X12417801Y-8197984D01*
X12417801Y-8093222D02*
X12427324Y-8074174D01*
X12427324Y-8074174D02*
X12446372Y-8064650D01*
X12446372Y-8064650D02*
X12474943Y-8064650D01*
X12474943Y-8064650D02*
X12493991Y-8074174D01*
X12493991Y-8074174D02*
X12503515Y-8093222D01*
X12503515Y-8093222D02*
X12503515Y-8197984D01*
X12893991Y-7988460D02*
X12722563Y-8245603D01*
X13151134Y-7997984D02*
X13170182Y-7997984D01*
X13170182Y-7997984D02*
X13189229Y-8007508D01*
X13189229Y-8007508D02*
X13198753Y-8017031D01*
X13198753Y-8017031D02*
X13208277Y-8036079D01*
X13208277Y-8036079D02*
X13217801Y-8074174D01*
X13217801Y-8074174D02*
X13217801Y-8121793D01*
X13217801Y-8121793D02*
X13208277Y-8159888D01*
X13208277Y-8159888D02*
X13198753Y-8178936D01*
X13198753Y-8178936D02*
X13189229Y-8188460D01*
X13189229Y-8188460D02*
X13170182Y-8197984D01*
X13170182Y-8197984D02*
X13151134Y-8197984D01*
X13151134Y-8197984D02*
X13132086Y-8188460D01*
X13132086Y-8188460D02*
X13122563Y-8178936D01*
X13122563Y-8178936D02*
X13113039Y-8159888D01*
X13113039Y-8159888D02*
X13103515Y-8121793D01*
X13103515Y-8121793D02*
X13103515Y-8074174D01*
X13103515Y-8074174D02*
X13113039Y-8036079D01*
X13113039Y-8036079D02*
X13122563Y-8017031D01*
X13122563Y-8017031D02*
X13132086Y-8007508D01*
X13132086Y-8007508D02*
X13151134Y-7997984D01*
X13303515Y-8178936D02*
X13313039Y-8188460D01*
X13313039Y-8188460D02*
X13303515Y-8197984D01*
X13303515Y-8197984D02*
X13293991Y-8188460D01*
X13293991Y-8188460D02*
X13303515Y-8178936D01*
X13303515Y-8178936D02*
X13303515Y-8197984D01*
X13436848Y-7997984D02*
X13455896Y-7997984D01*
X13455896Y-7997984D02*
X13474944Y-8007508D01*
X13474944Y-8007508D02*
X13484467Y-8017031D01*
X13484467Y-8017031D02*
X13493991Y-8036079D01*
X13493991Y-8036079D02*
X13503515Y-8074174D01*
X13503515Y-8074174D02*
X13503515Y-8121793D01*
X13503515Y-8121793D02*
X13493991Y-8159888D01*
X13493991Y-8159888D02*
X13484467Y-8178936D01*
X13484467Y-8178936D02*
X13474944Y-8188460D01*
X13474944Y-8188460D02*
X13455896Y-8197984D01*
X13455896Y-8197984D02*
X13436848Y-8197984D01*
X13436848Y-8197984D02*
X13417801Y-8188460D01*
X13417801Y-8188460D02*
X13408277Y-8178936D01*
X13408277Y-8178936D02*
X13398753Y-8159888D01*
X13398753Y-8159888D02*
X13389229Y-8121793D01*
X13389229Y-8121793D02*
X13389229Y-8074174D01*
X13389229Y-8074174D02*
X13398753Y-8036079D01*
X13398753Y-8036079D02*
X13408277Y-8017031D01*
X13408277Y-8017031D02*
X13417801Y-8007508D01*
X13417801Y-8007508D02*
X13436848Y-7997984D01*
X13693991Y-8197984D02*
X13579706Y-8197984D01*
X13636848Y-8197984D02*
X13636848Y-7997984D01*
X13636848Y-7997984D02*
X13617801Y-8026555D01*
X13617801Y-8026555D02*
X13598753Y-8045603D01*
X13598753Y-8045603D02*
X13579706Y-8055127D01*
X13789229Y-8197984D02*
X13827325Y-8197984D01*
X13827325Y-8197984D02*
X13846372Y-8188460D01*
X13846372Y-8188460D02*
X13855896Y-8178936D01*
X13855896Y-8178936D02*
X13874944Y-8150365D01*
X13874944Y-8150365D02*
X13884467Y-8112269D01*
X13884467Y-8112269D02*
X13884467Y-8036079D01*
X13884467Y-8036079D02*
X13874944Y-8017031D01*
X13874944Y-8017031D02*
X13865420Y-8007508D01*
X13865420Y-8007508D02*
X13846372Y-7997984D01*
X13846372Y-7997984D02*
X13808277Y-7997984D01*
X13808277Y-7997984D02*
X13789229Y-8007508D01*
X13789229Y-8007508D02*
X13779706Y-8017031D01*
X13779706Y-8017031D02*
X13770182Y-8036079D01*
X13770182Y-8036079D02*
X13770182Y-8083698D01*
X13770182Y-8083698D02*
X13779706Y-8102746D01*
X13779706Y-8102746D02*
X13789229Y-8112269D01*
X13789229Y-8112269D02*
X13808277Y-8121793D01*
X13808277Y-8121793D02*
X13846372Y-8121793D01*
X13846372Y-8121793D02*
X13865420Y-8112269D01*
X13865420Y-8112269D02*
X13874944Y-8102746D01*
X13874944Y-8102746D02*
X13884467Y-8083698D01*
X13951134Y-7997984D02*
X14084467Y-7997984D01*
X14084467Y-7997984D02*
X13998753Y-8197984D01*
X14151134Y-7997984D02*
X14151134Y-8036079D01*
X14227325Y-7997984D02*
X14227325Y-8036079D01*
X14522563Y-8274174D02*
X14513039Y-8264650D01*
X14513039Y-8264650D02*
X14493991Y-8236079D01*
X14493991Y-8236079D02*
X14484468Y-8217031D01*
X14484468Y-8217031D02*
X14474944Y-8188460D01*
X14474944Y-8188460D02*
X14465420Y-8140841D01*
X14465420Y-8140841D02*
X14465420Y-8102746D01*
X14465420Y-8102746D02*
X14474944Y-8055127D01*
X14474944Y-8055127D02*
X14484468Y-8026555D01*
X14484468Y-8026555D02*
X14493991Y-8007508D01*
X14493991Y-8007508D02*
X14513039Y-7978936D01*
X14513039Y-7978936D02*
X14522563Y-7969412D01*
X14703515Y-8197984D02*
X14589229Y-8197984D01*
X14646372Y-8197984D02*
X14646372Y-7997984D01*
X14646372Y-7997984D02*
X14627325Y-8026555D01*
X14627325Y-8026555D02*
X14608277Y-8045603D01*
X14608277Y-8045603D02*
X14589229Y-8055127D01*
X14779706Y-8017031D02*
X14789229Y-8007508D01*
X14789229Y-8007508D02*
X14808277Y-7997984D01*
X14808277Y-7997984D02*
X14855896Y-7997984D01*
X14855896Y-7997984D02*
X14874944Y-8007508D01*
X14874944Y-8007508D02*
X14884468Y-8017031D01*
X14884468Y-8017031D02*
X14893991Y-8036079D01*
X14893991Y-8036079D02*
X14893991Y-8055127D01*
X14893991Y-8055127D02*
X14884468Y-8083698D01*
X14884468Y-8083698D02*
X14770182Y-8197984D01*
X14770182Y-8197984D02*
X14893991Y-8197984D01*
X15132087Y-8197984D02*
X15132087Y-7997984D01*
X15217801Y-8197984D02*
X15217801Y-8093222D01*
X15217801Y-8093222D02*
X15208277Y-8074174D01*
X15208277Y-8074174D02*
X15189230Y-8064650D01*
X15189230Y-8064650D02*
X15160658Y-8064650D01*
X15160658Y-8064650D02*
X15141610Y-8074174D01*
X15141610Y-8074174D02*
X15132087Y-8083698D01*
X15341610Y-8197984D02*
X15322563Y-8188460D01*
X15322563Y-8188460D02*
X15313039Y-8178936D01*
X15313039Y-8178936D02*
X15303515Y-8159888D01*
X15303515Y-8159888D02*
X15303515Y-8102746D01*
X15303515Y-8102746D02*
X15313039Y-8083698D01*
X15313039Y-8083698D02*
X15322563Y-8074174D01*
X15322563Y-8074174D02*
X15341610Y-8064650D01*
X15341610Y-8064650D02*
X15370182Y-8064650D01*
X15370182Y-8064650D02*
X15389230Y-8074174D01*
X15389230Y-8074174D02*
X15398753Y-8083698D01*
X15398753Y-8083698D02*
X15408277Y-8102746D01*
X15408277Y-8102746D02*
X15408277Y-8159888D01*
X15408277Y-8159888D02*
X15398753Y-8178936D01*
X15398753Y-8178936D02*
X15389230Y-8188460D01*
X15389230Y-8188460D02*
X15370182Y-8197984D01*
X15370182Y-8197984D02*
X15341610Y-8197984D01*
X15522563Y-8197984D02*
X15503515Y-8188460D01*
X15503515Y-8188460D02*
X15493991Y-8169412D01*
X15493991Y-8169412D02*
X15493991Y-7997984D01*
X15674944Y-8188460D02*
X15655896Y-8197984D01*
X15655896Y-8197984D02*
X15617801Y-8197984D01*
X15617801Y-8197984D02*
X15598753Y-8188460D01*
X15598753Y-8188460D02*
X15589230Y-8169412D01*
X15589230Y-8169412D02*
X15589230Y-8093222D01*
X15589230Y-8093222D02*
X15598753Y-8074174D01*
X15598753Y-8074174D02*
X15617801Y-8064650D01*
X15617801Y-8064650D02*
X15655896Y-8064650D01*
X15655896Y-8064650D02*
X15674944Y-8074174D01*
X15674944Y-8074174D02*
X15684468Y-8093222D01*
X15684468Y-8093222D02*
X15684468Y-8112269D01*
X15684468Y-8112269D02*
X15589230Y-8131317D01*
X15760658Y-8188460D02*
X15779706Y-8197984D01*
X15779706Y-8197984D02*
X15817801Y-8197984D01*
X15817801Y-8197984D02*
X15836849Y-8188460D01*
X15836849Y-8188460D02*
X15846372Y-8169412D01*
X15846372Y-8169412D02*
X15846372Y-8159888D01*
X15846372Y-8159888D02*
X15836849Y-8140841D01*
X15836849Y-8140841D02*
X15817801Y-8131317D01*
X15817801Y-8131317D02*
X15789230Y-8131317D01*
X15789230Y-8131317D02*
X15770182Y-8121793D01*
X15770182Y-8121793D02*
X15760658Y-8102746D01*
X15760658Y-8102746D02*
X15760658Y-8093222D01*
X15760658Y-8093222D02*
X15770182Y-8074174D01*
X15770182Y-8074174D02*
X15789230Y-8064650D01*
X15789230Y-8064650D02*
X15817801Y-8064650D01*
X15817801Y-8064650D02*
X15836849Y-8074174D01*
X16084468Y-8121793D02*
X16236849Y-8121793D01*
X16160658Y-8197984D02*
X16160658Y-8045603D01*
X16474944Y-8017031D02*
X16484468Y-8007508D01*
X16484468Y-8007508D02*
X16503515Y-7997984D01*
X16503515Y-7997984D02*
X16551134Y-7997984D01*
X16551134Y-7997984D02*
X16570182Y-8007508D01*
X16570182Y-8007508D02*
X16579706Y-8017031D01*
X16579706Y-8017031D02*
X16589230Y-8036079D01*
X16589230Y-8036079D02*
X16589230Y-8055127D01*
X16589230Y-8055127D02*
X16579706Y-8083698D01*
X16579706Y-8083698D02*
X16465420Y-8197984D01*
X16465420Y-8197984D02*
X16589230Y-8197984D01*
X16817801Y-8188460D02*
X16836849Y-8197984D01*
X16836849Y-8197984D02*
X16874944Y-8197984D01*
X16874944Y-8197984D02*
X16893992Y-8188460D01*
X16893992Y-8188460D02*
X16903516Y-8169412D01*
X16903516Y-8169412D02*
X16903516Y-8159888D01*
X16903516Y-8159888D02*
X16893992Y-8140841D01*
X16893992Y-8140841D02*
X16874944Y-8131317D01*
X16874944Y-8131317D02*
X16846373Y-8131317D01*
X16846373Y-8131317D02*
X16827325Y-8121793D01*
X16827325Y-8121793D02*
X16817801Y-8102746D01*
X16817801Y-8102746D02*
X16817801Y-8093222D01*
X16817801Y-8093222D02*
X16827325Y-8074174D01*
X16827325Y-8074174D02*
X16846373Y-8064650D01*
X16846373Y-8064650D02*
X16874944Y-8064650D01*
X16874944Y-8064650D02*
X16893992Y-8074174D01*
X17017801Y-8197984D02*
X16998754Y-8188460D01*
X16998754Y-8188460D02*
X16989230Y-8169412D01*
X16989230Y-8169412D02*
X16989230Y-7997984D01*
X17122563Y-8197984D02*
X17103516Y-8188460D01*
X17103516Y-8188460D02*
X17093992Y-8178936D01*
X17093992Y-8178936D02*
X17084468Y-8159888D01*
X17084468Y-8159888D02*
X17084468Y-8102746D01*
X17084468Y-8102746D02*
X17093992Y-8083698D01*
X17093992Y-8083698D02*
X17103516Y-8074174D01*
X17103516Y-8074174D02*
X17122563Y-8064650D01*
X17122563Y-8064650D02*
X17151135Y-8064650D01*
X17151135Y-8064650D02*
X17170182Y-8074174D01*
X17170182Y-8074174D02*
X17179706Y-8083698D01*
X17179706Y-8083698D02*
X17189230Y-8102746D01*
X17189230Y-8102746D02*
X17189230Y-8159888D01*
X17189230Y-8159888D02*
X17179706Y-8178936D01*
X17179706Y-8178936D02*
X17170182Y-8188460D01*
X17170182Y-8188460D02*
X17151135Y-8197984D01*
X17151135Y-8197984D02*
X17122563Y-8197984D01*
X17246373Y-8064650D02*
X17322563Y-8064650D01*
X17274944Y-7997984D02*
X17274944Y-8169412D01*
X17274944Y-8169412D02*
X17284468Y-8188460D01*
X17284468Y-8188460D02*
X17303516Y-8197984D01*
X17303516Y-8197984D02*
X17322563Y-8197984D01*
X17379706Y-8188460D02*
X17398754Y-8197984D01*
X17398754Y-8197984D02*
X17436849Y-8197984D01*
X17436849Y-8197984D02*
X17455897Y-8188460D01*
X17455897Y-8188460D02*
X17465420Y-8169412D01*
X17465420Y-8169412D02*
X17465420Y-8159888D01*
X17465420Y-8159888D02*
X17455897Y-8140841D01*
X17455897Y-8140841D02*
X17436849Y-8131317D01*
X17436849Y-8131317D02*
X17408277Y-8131317D01*
X17408277Y-8131317D02*
X17389230Y-8121793D01*
X17389230Y-8121793D02*
X17379706Y-8102746D01*
X17379706Y-8102746D02*
X17379706Y-8093222D01*
X17379706Y-8093222D02*
X17389230Y-8074174D01*
X17389230Y-8074174D02*
X17408277Y-8064650D01*
X17408277Y-8064650D02*
X17436849Y-8064650D01*
X17436849Y-8064650D02*
X17455897Y-8074174D01*
X17532087Y-8274174D02*
X17541611Y-8264650D01*
X17541611Y-8264650D02*
X17560658Y-8236079D01*
X17560658Y-8236079D02*
X17570182Y-8217031D01*
X17570182Y-8217031D02*
X17579706Y-8188460D01*
X17579706Y-8188460D02*
X17589230Y-8140841D01*
X17589230Y-8140841D02*
X17589230Y-8102746D01*
X17589230Y-8102746D02*
X17579706Y-8055127D01*
X17579706Y-8055127D02*
X17570182Y-8026555D01*
X17570182Y-8026555D02*
X17560658Y-8007508D01*
X17560658Y-8007508D02*
X17541611Y-7978936D01*
X17541611Y-7978936D02*
X17532087Y-7969412D01*
D12*
X10907500Y-8330500D02*
X10907500Y-8410500D01*
X10867500Y-8370500D02*
X10947500Y-8370500D01*
D11*
X11246372Y-8261984D02*
X11265420Y-8261984D01*
X11265420Y-8261984D02*
X11284467Y-8271508D01*
X11284467Y-8271508D02*
X11293991Y-8281031D01*
X11293991Y-8281031D02*
X11303515Y-8300079D01*
X11303515Y-8300079D02*
X11313039Y-8338174D01*
X11313039Y-8338174D02*
X11313039Y-8385793D01*
X11313039Y-8385793D02*
X11303515Y-8423889D01*
X11303515Y-8423889D02*
X11293991Y-8442936D01*
X11293991Y-8442936D02*
X11284467Y-8452460D01*
X11284467Y-8452460D02*
X11265420Y-8461984D01*
X11265420Y-8461984D02*
X11246372Y-8461984D01*
X11246372Y-8461984D02*
X11227324Y-8452460D01*
X11227324Y-8452460D02*
X11217801Y-8442936D01*
X11217801Y-8442936D02*
X11208277Y-8423889D01*
X11208277Y-8423889D02*
X11198753Y-8385793D01*
X11198753Y-8385793D02*
X11198753Y-8338174D01*
X11198753Y-8338174D02*
X11208277Y-8300079D01*
X11208277Y-8300079D02*
X11217801Y-8281031D01*
X11217801Y-8281031D02*
X11227324Y-8271508D01*
X11227324Y-8271508D02*
X11246372Y-8261984D01*
X11398753Y-8442936D02*
X11408277Y-8452460D01*
X11408277Y-8452460D02*
X11398753Y-8461984D01*
X11398753Y-8461984D02*
X11389229Y-8452460D01*
X11389229Y-8452460D02*
X11398753Y-8442936D01*
X11398753Y-8442936D02*
X11398753Y-8461984D01*
X11522562Y-8347698D02*
X11503515Y-8338174D01*
X11503515Y-8338174D02*
X11493991Y-8328650D01*
X11493991Y-8328650D02*
X11484467Y-8309603D01*
X11484467Y-8309603D02*
X11484467Y-8300079D01*
X11484467Y-8300079D02*
X11493991Y-8281031D01*
X11493991Y-8281031D02*
X11503515Y-8271508D01*
X11503515Y-8271508D02*
X11522562Y-8261984D01*
X11522562Y-8261984D02*
X11560658Y-8261984D01*
X11560658Y-8261984D02*
X11579705Y-8271508D01*
X11579705Y-8271508D02*
X11589229Y-8281031D01*
X11589229Y-8281031D02*
X11598753Y-8300079D01*
X11598753Y-8300079D02*
X11598753Y-8309603D01*
X11598753Y-8309603D02*
X11589229Y-8328650D01*
X11589229Y-8328650D02*
X11579705Y-8338174D01*
X11579705Y-8338174D02*
X11560658Y-8347698D01*
X11560658Y-8347698D02*
X11522562Y-8347698D01*
X11522562Y-8347698D02*
X11503515Y-8357222D01*
X11503515Y-8357222D02*
X11493991Y-8366746D01*
X11493991Y-8366746D02*
X11484467Y-8385793D01*
X11484467Y-8385793D02*
X11484467Y-8423889D01*
X11484467Y-8423889D02*
X11493991Y-8442936D01*
X11493991Y-8442936D02*
X11503515Y-8452460D01*
X11503515Y-8452460D02*
X11522562Y-8461984D01*
X11522562Y-8461984D02*
X11560658Y-8461984D01*
X11560658Y-8461984D02*
X11579705Y-8452460D01*
X11579705Y-8452460D02*
X11589229Y-8442936D01*
X11589229Y-8442936D02*
X11598753Y-8423889D01*
X11598753Y-8423889D02*
X11598753Y-8385793D01*
X11598753Y-8385793D02*
X11589229Y-8366746D01*
X11589229Y-8366746D02*
X11579705Y-8357222D01*
X11579705Y-8357222D02*
X11560658Y-8347698D01*
X11722562Y-8261984D02*
X11741610Y-8261984D01*
X11741610Y-8261984D02*
X11760658Y-8271508D01*
X11760658Y-8271508D02*
X11770182Y-8281031D01*
X11770182Y-8281031D02*
X11779705Y-8300079D01*
X11779705Y-8300079D02*
X11789229Y-8338174D01*
X11789229Y-8338174D02*
X11789229Y-8385793D01*
X11789229Y-8385793D02*
X11779705Y-8423889D01*
X11779705Y-8423889D02*
X11770182Y-8442936D01*
X11770182Y-8442936D02*
X11760658Y-8452460D01*
X11760658Y-8452460D02*
X11741610Y-8461984D01*
X11741610Y-8461984D02*
X11722562Y-8461984D01*
X11722562Y-8461984D02*
X11703515Y-8452460D01*
X11703515Y-8452460D02*
X11693991Y-8442936D01*
X11693991Y-8442936D02*
X11684467Y-8423889D01*
X11684467Y-8423889D02*
X11674943Y-8385793D01*
X11674943Y-8385793D02*
X11674943Y-8338174D01*
X11674943Y-8338174D02*
X11684467Y-8300079D01*
X11684467Y-8300079D02*
X11693991Y-8281031D01*
X11693991Y-8281031D02*
X11703515Y-8271508D01*
X11703515Y-8271508D02*
X11722562Y-8261984D01*
X11913039Y-8261984D02*
X11932086Y-8261984D01*
X11932086Y-8261984D02*
X11951134Y-8271508D01*
X11951134Y-8271508D02*
X11960658Y-8281031D01*
X11960658Y-8281031D02*
X11970182Y-8300079D01*
X11970182Y-8300079D02*
X11979705Y-8338174D01*
X11979705Y-8338174D02*
X11979705Y-8385793D01*
X11979705Y-8385793D02*
X11970182Y-8423889D01*
X11970182Y-8423889D02*
X11960658Y-8442936D01*
X11960658Y-8442936D02*
X11951134Y-8452460D01*
X11951134Y-8452460D02*
X11932086Y-8461984D01*
X11932086Y-8461984D02*
X11913039Y-8461984D01*
X11913039Y-8461984D02*
X11893991Y-8452460D01*
X11893991Y-8452460D02*
X11884467Y-8442936D01*
X11884467Y-8442936D02*
X11874943Y-8423889D01*
X11874943Y-8423889D02*
X11865420Y-8385793D01*
X11865420Y-8385793D02*
X11865420Y-8338174D01*
X11865420Y-8338174D02*
X11874943Y-8300079D01*
X11874943Y-8300079D02*
X11884467Y-8281031D01*
X11884467Y-8281031D02*
X11893991Y-8271508D01*
X11893991Y-8271508D02*
X11913039Y-8261984D01*
X12065420Y-8461984D02*
X12065420Y-8328650D01*
X12065420Y-8347698D02*
X12074943Y-8338174D01*
X12074943Y-8338174D02*
X12093991Y-8328650D01*
X12093991Y-8328650D02*
X12122563Y-8328650D01*
X12122563Y-8328650D02*
X12141610Y-8338174D01*
X12141610Y-8338174D02*
X12151134Y-8357222D01*
X12151134Y-8357222D02*
X12151134Y-8461984D01*
X12151134Y-8357222D02*
X12160658Y-8338174D01*
X12160658Y-8338174D02*
X12179705Y-8328650D01*
X12179705Y-8328650D02*
X12208277Y-8328650D01*
X12208277Y-8328650D02*
X12227324Y-8338174D01*
X12227324Y-8338174D02*
X12236848Y-8357222D01*
X12236848Y-8357222D02*
X12236848Y-8461984D01*
X12332086Y-8461984D02*
X12332086Y-8328650D01*
X12332086Y-8347698D02*
X12341610Y-8338174D01*
X12341610Y-8338174D02*
X12360658Y-8328650D01*
X12360658Y-8328650D02*
X12389229Y-8328650D01*
X12389229Y-8328650D02*
X12408277Y-8338174D01*
X12408277Y-8338174D02*
X12417801Y-8357222D01*
X12417801Y-8357222D02*
X12417801Y-8461984D01*
X12417801Y-8357222D02*
X12427324Y-8338174D01*
X12427324Y-8338174D02*
X12446372Y-8328650D01*
X12446372Y-8328650D02*
X12474943Y-8328650D01*
X12474943Y-8328650D02*
X12493991Y-8338174D01*
X12493991Y-8338174D02*
X12503515Y-8357222D01*
X12503515Y-8357222D02*
X12503515Y-8461984D01*
X12893991Y-8252460D02*
X12722563Y-8509603D01*
X13151134Y-8261984D02*
X13170182Y-8261984D01*
X13170182Y-8261984D02*
X13189229Y-8271508D01*
X13189229Y-8271508D02*
X13198753Y-8281031D01*
X13198753Y-8281031D02*
X13208277Y-8300079D01*
X13208277Y-8300079D02*
X13217801Y-8338174D01*
X13217801Y-8338174D02*
X13217801Y-8385793D01*
X13217801Y-8385793D02*
X13208277Y-8423889D01*
X13208277Y-8423889D02*
X13198753Y-8442936D01*
X13198753Y-8442936D02*
X13189229Y-8452460D01*
X13189229Y-8452460D02*
X13170182Y-8461984D01*
X13170182Y-8461984D02*
X13151134Y-8461984D01*
X13151134Y-8461984D02*
X13132086Y-8452460D01*
X13132086Y-8452460D02*
X13122563Y-8442936D01*
X13122563Y-8442936D02*
X13113039Y-8423889D01*
X13113039Y-8423889D02*
X13103515Y-8385793D01*
X13103515Y-8385793D02*
X13103515Y-8338174D01*
X13103515Y-8338174D02*
X13113039Y-8300079D01*
X13113039Y-8300079D02*
X13122563Y-8281031D01*
X13122563Y-8281031D02*
X13132086Y-8271508D01*
X13132086Y-8271508D02*
X13151134Y-8261984D01*
X13303515Y-8442936D02*
X13313039Y-8452460D01*
X13313039Y-8452460D02*
X13303515Y-8461984D01*
X13303515Y-8461984D02*
X13293991Y-8452460D01*
X13293991Y-8452460D02*
X13303515Y-8442936D01*
X13303515Y-8442936D02*
X13303515Y-8461984D01*
X13436848Y-8261984D02*
X13455896Y-8261984D01*
X13455896Y-8261984D02*
X13474944Y-8271508D01*
X13474944Y-8271508D02*
X13484467Y-8281031D01*
X13484467Y-8281031D02*
X13493991Y-8300079D01*
X13493991Y-8300079D02*
X13503515Y-8338174D01*
X13503515Y-8338174D02*
X13503515Y-8385793D01*
X13503515Y-8385793D02*
X13493991Y-8423889D01*
X13493991Y-8423889D02*
X13484467Y-8442936D01*
X13484467Y-8442936D02*
X13474944Y-8452460D01*
X13474944Y-8452460D02*
X13455896Y-8461984D01*
X13455896Y-8461984D02*
X13436848Y-8461984D01*
X13436848Y-8461984D02*
X13417801Y-8452460D01*
X13417801Y-8452460D02*
X13408277Y-8442936D01*
X13408277Y-8442936D02*
X13398753Y-8423889D01*
X13398753Y-8423889D02*
X13389229Y-8385793D01*
X13389229Y-8385793D02*
X13389229Y-8338174D01*
X13389229Y-8338174D02*
X13398753Y-8300079D01*
X13398753Y-8300079D02*
X13408277Y-8281031D01*
X13408277Y-8281031D02*
X13417801Y-8271508D01*
X13417801Y-8271508D02*
X13436848Y-8261984D01*
X13570182Y-8261984D02*
X13693991Y-8261984D01*
X13693991Y-8261984D02*
X13627325Y-8338174D01*
X13627325Y-8338174D02*
X13655896Y-8338174D01*
X13655896Y-8338174D02*
X13674944Y-8347698D01*
X13674944Y-8347698D02*
X13684467Y-8357222D01*
X13684467Y-8357222D02*
X13693991Y-8376269D01*
X13693991Y-8376269D02*
X13693991Y-8423889D01*
X13693991Y-8423889D02*
X13684467Y-8442936D01*
X13684467Y-8442936D02*
X13674944Y-8452460D01*
X13674944Y-8452460D02*
X13655896Y-8461984D01*
X13655896Y-8461984D02*
X13598753Y-8461984D01*
X13598753Y-8461984D02*
X13579706Y-8452460D01*
X13579706Y-8452460D02*
X13570182Y-8442936D01*
X13884467Y-8461984D02*
X13770182Y-8461984D01*
X13827325Y-8461984D02*
X13827325Y-8261984D01*
X13827325Y-8261984D02*
X13808277Y-8290555D01*
X13808277Y-8290555D02*
X13789229Y-8309603D01*
X13789229Y-8309603D02*
X13770182Y-8319127D01*
X14065420Y-8261984D02*
X13970182Y-8261984D01*
X13970182Y-8261984D02*
X13960658Y-8357222D01*
X13960658Y-8357222D02*
X13970182Y-8347698D01*
X13970182Y-8347698D02*
X13989229Y-8338174D01*
X13989229Y-8338174D02*
X14036848Y-8338174D01*
X14036848Y-8338174D02*
X14055896Y-8347698D01*
X14055896Y-8347698D02*
X14065420Y-8357222D01*
X14065420Y-8357222D02*
X14074944Y-8376269D01*
X14074944Y-8376269D02*
X14074944Y-8423889D01*
X14074944Y-8423889D02*
X14065420Y-8442936D01*
X14065420Y-8442936D02*
X14055896Y-8452460D01*
X14055896Y-8452460D02*
X14036848Y-8461984D01*
X14036848Y-8461984D02*
X13989229Y-8461984D01*
X13989229Y-8461984D02*
X13970182Y-8452460D01*
X13970182Y-8452460D02*
X13960658Y-8442936D01*
X14151134Y-8261984D02*
X14151134Y-8300079D01*
X14227325Y-8261984D02*
X14227325Y-8300079D01*
X14522563Y-8538174D02*
X14513039Y-8528650D01*
X14513039Y-8528650D02*
X14493991Y-8500079D01*
X14493991Y-8500079D02*
X14484468Y-8481031D01*
X14484468Y-8481031D02*
X14474944Y-8452460D01*
X14474944Y-8452460D02*
X14465420Y-8404841D01*
X14465420Y-8404841D02*
X14465420Y-8366746D01*
X14465420Y-8366746D02*
X14474944Y-8319127D01*
X14474944Y-8319127D02*
X14484468Y-8290555D01*
X14484468Y-8290555D02*
X14493991Y-8271508D01*
X14493991Y-8271508D02*
X14513039Y-8242936D01*
X14513039Y-8242936D02*
X14522563Y-8233412D01*
X14589229Y-8281031D02*
X14598753Y-8271508D01*
X14598753Y-8271508D02*
X14617801Y-8261984D01*
X14617801Y-8261984D02*
X14665420Y-8261984D01*
X14665420Y-8261984D02*
X14684468Y-8271508D01*
X14684468Y-8271508D02*
X14693991Y-8281031D01*
X14693991Y-8281031D02*
X14703515Y-8300079D01*
X14703515Y-8300079D02*
X14703515Y-8319127D01*
X14703515Y-8319127D02*
X14693991Y-8347698D01*
X14693991Y-8347698D02*
X14579706Y-8461984D01*
X14579706Y-8461984D02*
X14703515Y-8461984D01*
X14941610Y-8461984D02*
X14941610Y-8261984D01*
X15027325Y-8461984D02*
X15027325Y-8357222D01*
X15027325Y-8357222D02*
X15017801Y-8338174D01*
X15017801Y-8338174D02*
X14998753Y-8328650D01*
X14998753Y-8328650D02*
X14970182Y-8328650D01*
X14970182Y-8328650D02*
X14951134Y-8338174D01*
X14951134Y-8338174D02*
X14941610Y-8347698D01*
X15151134Y-8461984D02*
X15132087Y-8452460D01*
X15132087Y-8452460D02*
X15122563Y-8442936D01*
X15122563Y-8442936D02*
X15113039Y-8423889D01*
X15113039Y-8423889D02*
X15113039Y-8366746D01*
X15113039Y-8366746D02*
X15122563Y-8347698D01*
X15122563Y-8347698D02*
X15132087Y-8338174D01*
X15132087Y-8338174D02*
X15151134Y-8328650D01*
X15151134Y-8328650D02*
X15179706Y-8328650D01*
X15179706Y-8328650D02*
X15198753Y-8338174D01*
X15198753Y-8338174D02*
X15208277Y-8347698D01*
X15208277Y-8347698D02*
X15217801Y-8366746D01*
X15217801Y-8366746D02*
X15217801Y-8423889D01*
X15217801Y-8423889D02*
X15208277Y-8442936D01*
X15208277Y-8442936D02*
X15198753Y-8452460D01*
X15198753Y-8452460D02*
X15179706Y-8461984D01*
X15179706Y-8461984D02*
X15151134Y-8461984D01*
X15332087Y-8461984D02*
X15313039Y-8452460D01*
X15313039Y-8452460D02*
X15303515Y-8433412D01*
X15303515Y-8433412D02*
X15303515Y-8261984D01*
X15484468Y-8452460D02*
X15465420Y-8461984D01*
X15465420Y-8461984D02*
X15427325Y-8461984D01*
X15427325Y-8461984D02*
X15408277Y-8452460D01*
X15408277Y-8452460D02*
X15398753Y-8433412D01*
X15398753Y-8433412D02*
X15398753Y-8357222D01*
X15398753Y-8357222D02*
X15408277Y-8338174D01*
X15408277Y-8338174D02*
X15427325Y-8328650D01*
X15427325Y-8328650D02*
X15465420Y-8328650D01*
X15465420Y-8328650D02*
X15484468Y-8338174D01*
X15484468Y-8338174D02*
X15493991Y-8357222D01*
X15493991Y-8357222D02*
X15493991Y-8376269D01*
X15493991Y-8376269D02*
X15398753Y-8395317D01*
X15570182Y-8452460D02*
X15589230Y-8461984D01*
X15589230Y-8461984D02*
X15627325Y-8461984D01*
X15627325Y-8461984D02*
X15646372Y-8452460D01*
X15646372Y-8452460D02*
X15655896Y-8433412D01*
X15655896Y-8433412D02*
X15655896Y-8423889D01*
X15655896Y-8423889D02*
X15646372Y-8404841D01*
X15646372Y-8404841D02*
X15627325Y-8395317D01*
X15627325Y-8395317D02*
X15598753Y-8395317D01*
X15598753Y-8395317D02*
X15579706Y-8385793D01*
X15579706Y-8385793D02*
X15570182Y-8366746D01*
X15570182Y-8366746D02*
X15570182Y-8357222D01*
X15570182Y-8357222D02*
X15579706Y-8338174D01*
X15579706Y-8338174D02*
X15598753Y-8328650D01*
X15598753Y-8328650D02*
X15627325Y-8328650D01*
X15627325Y-8328650D02*
X15646372Y-8338174D01*
X15722563Y-8538174D02*
X15732087Y-8528650D01*
X15732087Y-8528650D02*
X15751134Y-8500079D01*
X15751134Y-8500079D02*
X15760658Y-8481031D01*
X15760658Y-8481031D02*
X15770182Y-8452460D01*
X15770182Y-8452460D02*
X15779706Y-8404841D01*
X15779706Y-8404841D02*
X15779706Y-8366746D01*
X15779706Y-8366746D02*
X15770182Y-8319127D01*
X15770182Y-8319127D02*
X15760658Y-8290555D01*
X15760658Y-8290555D02*
X15751134Y-8271508D01*
X15751134Y-8271508D02*
X15732087Y-8242936D01*
X15732087Y-8242936D02*
X15722563Y-8233412D01*
M02*
