%TF.GenerationSoftware,KiCad,Pcbnew,10.0.4*%
%TF.CreationDate,2026-06-24T14:37:47+02:00*%
%TF.ProjectId,audioVisualizer_PCB,61756469-6f56-4697-9375-616c697a6572,rev?*%
%TF.SameCoordinates,Original*%
%TF.FileFunction,Legend,Bot*%
%TF.FilePolarity,Positive*%
%FSLAX46Y46*%
G04 Gerber Fmt 4.6, Leading zero omitted, Abs format (unit mm)*
G04 Created by KiCad (PCBNEW 10.0.4) date 2026-06-24 14:37:47*
%MOMM*%
%LPD*%
G01*
G04 APERTURE LIST*
G04 Aperture macros list*
%AMRoundRect*
0 Rectangle with rounded corners*
0 $1 Rounding radius*
0 $2 $3 $4 $5 $6 $7 $8 $9 X,Y pos of 4 corners*
0 Add a 4 corners polygon primitive as box body*
4,1,4,$2,$3,$4,$5,$6,$7,$8,$9,$2,$3,0*
0 Add four circle primitives for the rounded corners*
1,1,$1+$1,$2,$3*
1,1,$1+$1,$4,$5*
1,1,$1+$1,$6,$7*
1,1,$1+$1,$8,$9*
0 Add four rect primitives between the rounded corners*
20,1,$1+$1,$2,$3,$4,$5,0*
20,1,$1+$1,$4,$5,$6,$7,0*
20,1,$1+$1,$6,$7,$8,$9,0*
20,1,$1+$1,$8,$9,$2,$3,0*%
G04 Aperture macros list end*
%ADD10C,0.150000*%
%ADD11C,0.120000*%
%ADD12C,0.000000*%
%ADD13O,2.100000X1.000000*%
%ADD14O,1.800000X1.000000*%
%ADD15RoundRect,0.150000X0.425000X-0.150000X0.425000X0.150000X-0.425000X0.150000X-0.425000X-0.150000X0*%
%ADD16RoundRect,0.075000X0.500000X-0.075000X0.500000X0.075000X-0.500000X0.075000X-0.500000X-0.075000X0*%
%ADD17C,0.650000*%
%ADD18RoundRect,0.375000X0.375000X-0.625000X0.375000X0.625000X-0.375000X0.625000X-0.375000X-0.625000X0*%
%ADD19RoundRect,0.500000X1.400000X-0.500000X1.400000X0.500000X-1.400000X0.500000X-1.400000X-0.500000X0*%
%ADD20C,0.500000*%
%ADD21R,1.700000X1.700000*%
%ADD22C,1.700000*%
%ADD23RoundRect,0.250000X0.250000X0.475000X-0.250000X0.475000X-0.250000X-0.475000X0.250000X-0.475000X0*%
%ADD24RoundRect,0.250000X0.262500X0.450000X-0.262500X0.450000X-0.262500X-0.450000X0.262500X-0.450000X0*%
%ADD25RoundRect,0.243750X0.243750X0.456250X-0.243750X0.456250X-0.243750X-0.456250X0.243750X-0.456250X0*%
%ADD26RoundRect,0.250000X-0.450000X0.262500X-0.450000X-0.262500X0.450000X-0.262500X0.450000X0.262500X0*%
%ADD27RoundRect,0.250000X-0.475000X0.250000X-0.475000X-0.250000X0.475000X-0.250000X0.475000X0.250000X0*%
%ADD28RoundRect,0.250000X0.475000X-0.250000X0.475000X0.250000X-0.475000X0.250000X-0.475000X-0.250000X0*%
%ADD29R,1.000000X1.000000*%
G04 APERTURE END LIST*
D10*
X45920180Y-76513333D02*
X45205895Y-76513333D01*
X45205895Y-76513333D02*
X45063038Y-76560952D01*
X45063038Y-76560952D02*
X44967800Y-76656190D01*
X44967800Y-76656190D02*
X44920180Y-76799047D01*
X44920180Y-76799047D02*
X44920180Y-76894285D01*
X44920180Y-75513333D02*
X44920180Y-76084761D01*
X44920180Y-75799047D02*
X45920180Y-75799047D01*
X45920180Y-75799047D02*
X45777323Y-75894285D01*
X45777323Y-75894285D02*
X45682085Y-75989523D01*
X45682085Y-75989523D02*
X45634466Y-76084761D01*
X81354819Y-73238095D02*
X82164342Y-73238095D01*
X82164342Y-73238095D02*
X82259580Y-73285714D01*
X82259580Y-73285714D02*
X82307200Y-73333333D01*
X82307200Y-73333333D02*
X82354819Y-73428571D01*
X82354819Y-73428571D02*
X82354819Y-73619047D01*
X82354819Y-73619047D02*
X82307200Y-73714285D01*
X82307200Y-73714285D02*
X82259580Y-73761904D01*
X82259580Y-73761904D02*
X82164342Y-73809523D01*
X82164342Y-73809523D02*
X81354819Y-73809523D01*
X82354819Y-74809523D02*
X82354819Y-74238095D01*
X82354819Y-74523809D02*
X81354819Y-74523809D01*
X81354819Y-74523809D02*
X81497676Y-74428571D01*
X81497676Y-74428571D02*
X81592914Y-74333333D01*
X81592914Y-74333333D02*
X81640533Y-74238095D01*
X73126857Y-71181580D02*
X73174476Y-71229200D01*
X73174476Y-71229200D02*
X73317333Y-71276819D01*
X73317333Y-71276819D02*
X73412571Y-71276819D01*
X73412571Y-71276819D02*
X73555428Y-71229200D01*
X73555428Y-71229200D02*
X73650666Y-71133961D01*
X73650666Y-71133961D02*
X73698285Y-71038723D01*
X73698285Y-71038723D02*
X73745904Y-70848247D01*
X73745904Y-70848247D02*
X73745904Y-70705390D01*
X73745904Y-70705390D02*
X73698285Y-70514914D01*
X73698285Y-70514914D02*
X73650666Y-70419676D01*
X73650666Y-70419676D02*
X73555428Y-70324438D01*
X73555428Y-70324438D02*
X73412571Y-70276819D01*
X73412571Y-70276819D02*
X73317333Y-70276819D01*
X73317333Y-70276819D02*
X73174476Y-70324438D01*
X73174476Y-70324438D02*
X73126857Y-70372057D01*
X72174476Y-71276819D02*
X72745904Y-71276819D01*
X72460190Y-71276819D02*
X72460190Y-70276819D01*
X72460190Y-70276819D02*
X72555428Y-70419676D01*
X72555428Y-70419676D02*
X72650666Y-70514914D01*
X72650666Y-70514914D02*
X72745904Y-70562533D01*
X71793523Y-70372057D02*
X71745904Y-70324438D01*
X71745904Y-70324438D02*
X71650666Y-70276819D01*
X71650666Y-70276819D02*
X71412571Y-70276819D01*
X71412571Y-70276819D02*
X71317333Y-70324438D01*
X71317333Y-70324438D02*
X71269714Y-70372057D01*
X71269714Y-70372057D02*
X71222095Y-70467295D01*
X71222095Y-70467295D02*
X71222095Y-70562533D01*
X71222095Y-70562533D02*
X71269714Y-70705390D01*
X71269714Y-70705390D02*
X71841142Y-71276819D01*
X71841142Y-71276819D02*
X71222095Y-71276819D01*
X49466666Y-75304819D02*
X49799999Y-74828628D01*
X50038094Y-75304819D02*
X50038094Y-74304819D01*
X50038094Y-74304819D02*
X49657142Y-74304819D01*
X49657142Y-74304819D02*
X49561904Y-74352438D01*
X49561904Y-74352438D02*
X49514285Y-74400057D01*
X49514285Y-74400057D02*
X49466666Y-74495295D01*
X49466666Y-74495295D02*
X49466666Y-74638152D01*
X49466666Y-74638152D02*
X49514285Y-74733390D01*
X49514285Y-74733390D02*
X49561904Y-74781009D01*
X49561904Y-74781009D02*
X49657142Y-74828628D01*
X49657142Y-74828628D02*
X50038094Y-74828628D01*
X49133332Y-74304819D02*
X48514285Y-74304819D01*
X48514285Y-74304819D02*
X48847618Y-74685771D01*
X48847618Y-74685771D02*
X48704761Y-74685771D01*
X48704761Y-74685771D02*
X48609523Y-74733390D01*
X48609523Y-74733390D02*
X48561904Y-74781009D01*
X48561904Y-74781009D02*
X48514285Y-74876247D01*
X48514285Y-74876247D02*
X48514285Y-75114342D01*
X48514285Y-75114342D02*
X48561904Y-75209580D01*
X48561904Y-75209580D02*
X48609523Y-75257200D01*
X48609523Y-75257200D02*
X48704761Y-75304819D01*
X48704761Y-75304819D02*
X48990475Y-75304819D01*
X48990475Y-75304819D02*
X49085713Y-75257200D01*
X49085713Y-75257200D02*
X49133332Y-75209580D01*
X86700594Y-71354819D02*
X86700594Y-70354819D01*
X86700594Y-70354819D02*
X86462499Y-70354819D01*
X86462499Y-70354819D02*
X86319642Y-70402438D01*
X86319642Y-70402438D02*
X86224404Y-70497676D01*
X86224404Y-70497676D02*
X86176785Y-70592914D01*
X86176785Y-70592914D02*
X86129166Y-70783390D01*
X86129166Y-70783390D02*
X86129166Y-70926247D01*
X86129166Y-70926247D02*
X86176785Y-71116723D01*
X86176785Y-71116723D02*
X86224404Y-71211961D01*
X86224404Y-71211961D02*
X86319642Y-71307200D01*
X86319642Y-71307200D02*
X86462499Y-71354819D01*
X86462499Y-71354819D02*
X86700594Y-71354819D01*
X85176785Y-71354819D02*
X85748213Y-71354819D01*
X85462499Y-71354819D02*
X85462499Y-70354819D01*
X85462499Y-70354819D02*
X85557737Y-70497676D01*
X85557737Y-70497676D02*
X85652975Y-70592914D01*
X85652975Y-70592914D02*
X85748213Y-70640533D01*
X86354819Y-77633333D02*
X85878628Y-77300000D01*
X86354819Y-77061905D02*
X85354819Y-77061905D01*
X85354819Y-77061905D02*
X85354819Y-77442857D01*
X85354819Y-77442857D02*
X85402438Y-77538095D01*
X85402438Y-77538095D02*
X85450057Y-77585714D01*
X85450057Y-77585714D02*
X85545295Y-77633333D01*
X85545295Y-77633333D02*
X85688152Y-77633333D01*
X85688152Y-77633333D02*
X85783390Y-77585714D01*
X85783390Y-77585714D02*
X85831009Y-77538095D01*
X85831009Y-77538095D02*
X85878628Y-77442857D01*
X85878628Y-77442857D02*
X85878628Y-77061905D01*
X85450057Y-78014286D02*
X85402438Y-78061905D01*
X85402438Y-78061905D02*
X85354819Y-78157143D01*
X85354819Y-78157143D02*
X85354819Y-78395238D01*
X85354819Y-78395238D02*
X85402438Y-78490476D01*
X85402438Y-78490476D02*
X85450057Y-78538095D01*
X85450057Y-78538095D02*
X85545295Y-78585714D01*
X85545295Y-78585714D02*
X85640533Y-78585714D01*
X85640533Y-78585714D02*
X85783390Y-78538095D01*
X85783390Y-78538095D02*
X86354819Y-77966667D01*
X86354819Y-77966667D02*
X86354819Y-78585714D01*
X52779580Y-78757142D02*
X52827200Y-78709523D01*
X52827200Y-78709523D02*
X52874819Y-78566666D01*
X52874819Y-78566666D02*
X52874819Y-78471428D01*
X52874819Y-78471428D02*
X52827200Y-78328571D01*
X52827200Y-78328571D02*
X52731961Y-78233333D01*
X52731961Y-78233333D02*
X52636723Y-78185714D01*
X52636723Y-78185714D02*
X52446247Y-78138095D01*
X52446247Y-78138095D02*
X52303390Y-78138095D01*
X52303390Y-78138095D02*
X52112914Y-78185714D01*
X52112914Y-78185714D02*
X52017676Y-78233333D01*
X52017676Y-78233333D02*
X51922438Y-78328571D01*
X51922438Y-78328571D02*
X51874819Y-78471428D01*
X51874819Y-78471428D02*
X51874819Y-78566666D01*
X51874819Y-78566666D02*
X51922438Y-78709523D01*
X51922438Y-78709523D02*
X51970057Y-78757142D01*
X52874819Y-79709523D02*
X52874819Y-79138095D01*
X52874819Y-79423809D02*
X51874819Y-79423809D01*
X51874819Y-79423809D02*
X52017676Y-79328571D01*
X52017676Y-79328571D02*
X52112914Y-79233333D01*
X52112914Y-79233333D02*
X52160533Y-79138095D01*
X51874819Y-80614285D02*
X51874819Y-80138095D01*
X51874819Y-80138095D02*
X52351009Y-80090476D01*
X52351009Y-80090476D02*
X52303390Y-80138095D01*
X52303390Y-80138095D02*
X52255771Y-80233333D01*
X52255771Y-80233333D02*
X52255771Y-80471428D01*
X52255771Y-80471428D02*
X52303390Y-80566666D01*
X52303390Y-80566666D02*
X52351009Y-80614285D01*
X52351009Y-80614285D02*
X52446247Y-80661904D01*
X52446247Y-80661904D02*
X52684342Y-80661904D01*
X52684342Y-80661904D02*
X52779580Y-80614285D01*
X52779580Y-80614285D02*
X52827200Y-80566666D01*
X52827200Y-80566666D02*
X52874819Y-80471428D01*
X52874819Y-80471428D02*
X52874819Y-80233333D01*
X52874819Y-80233333D02*
X52827200Y-80138095D01*
X52827200Y-80138095D02*
X52779580Y-80090476D01*
X51339580Y-78857142D02*
X51387200Y-78809523D01*
X51387200Y-78809523D02*
X51434819Y-78666666D01*
X51434819Y-78666666D02*
X51434819Y-78571428D01*
X51434819Y-78571428D02*
X51387200Y-78428571D01*
X51387200Y-78428571D02*
X51291961Y-78333333D01*
X51291961Y-78333333D02*
X51196723Y-78285714D01*
X51196723Y-78285714D02*
X51006247Y-78238095D01*
X51006247Y-78238095D02*
X50863390Y-78238095D01*
X50863390Y-78238095D02*
X50672914Y-78285714D01*
X50672914Y-78285714D02*
X50577676Y-78333333D01*
X50577676Y-78333333D02*
X50482438Y-78428571D01*
X50482438Y-78428571D02*
X50434819Y-78571428D01*
X50434819Y-78571428D02*
X50434819Y-78666666D01*
X50434819Y-78666666D02*
X50482438Y-78809523D01*
X50482438Y-78809523D02*
X50530057Y-78857142D01*
X51434819Y-79809523D02*
X51434819Y-79238095D01*
X51434819Y-79523809D02*
X50434819Y-79523809D01*
X50434819Y-79523809D02*
X50577676Y-79428571D01*
X50577676Y-79428571D02*
X50672914Y-79333333D01*
X50672914Y-79333333D02*
X50720533Y-79238095D01*
X50768152Y-80666666D02*
X51434819Y-80666666D01*
X50387200Y-80428571D02*
X51101485Y-80190476D01*
X51101485Y-80190476D02*
X51101485Y-80809523D01*
X60966666Y-79302819D02*
X61442856Y-79302819D01*
X61442856Y-79302819D02*
X61490475Y-79779009D01*
X61490475Y-79779009D02*
X61442856Y-79731390D01*
X61442856Y-79731390D02*
X61347618Y-79683771D01*
X61347618Y-79683771D02*
X61109523Y-79683771D01*
X61109523Y-79683771D02*
X61014285Y-79731390D01*
X61014285Y-79731390D02*
X60966666Y-79779009D01*
X60966666Y-79779009D02*
X60919047Y-79874247D01*
X60919047Y-79874247D02*
X60919047Y-80112342D01*
X60919047Y-80112342D02*
X60966666Y-80207580D01*
X60966666Y-80207580D02*
X61014285Y-80255200D01*
X61014285Y-80255200D02*
X61109523Y-80302819D01*
X61109523Y-80302819D02*
X61347618Y-80302819D01*
X61347618Y-80302819D02*
X61442856Y-80255200D01*
X61442856Y-80255200D02*
X61490475Y-80207580D01*
X60633332Y-79302819D02*
X60299999Y-80302819D01*
X60299999Y-80302819D02*
X59966666Y-79302819D01*
X59109523Y-80302819D02*
X59680951Y-80302819D01*
X59395237Y-80302819D02*
X59395237Y-79302819D01*
X59395237Y-79302819D02*
X59490475Y-79445676D01*
X59490475Y-79445676D02*
X59585713Y-79540914D01*
X59585713Y-79540914D02*
X59680951Y-79588533D01*
X71338094Y-67502819D02*
X70719047Y-67502819D01*
X70719047Y-67502819D02*
X71052380Y-67883771D01*
X71052380Y-67883771D02*
X70909523Y-67883771D01*
X70909523Y-67883771D02*
X70814285Y-67931390D01*
X70814285Y-67931390D02*
X70766666Y-67979009D01*
X70766666Y-67979009D02*
X70719047Y-68074247D01*
X70719047Y-68074247D02*
X70719047Y-68312342D01*
X70719047Y-68312342D02*
X70766666Y-68407580D01*
X70766666Y-68407580D02*
X70814285Y-68455200D01*
X70814285Y-68455200D02*
X70909523Y-68502819D01*
X70909523Y-68502819D02*
X71195237Y-68502819D01*
X71195237Y-68502819D02*
X71290475Y-68455200D01*
X71290475Y-68455200D02*
X71338094Y-68407580D01*
X70433332Y-67502819D02*
X70099999Y-68502819D01*
X70099999Y-68502819D02*
X69766666Y-67502819D01*
X69528570Y-67502819D02*
X68909523Y-67502819D01*
X68909523Y-67502819D02*
X69242856Y-67883771D01*
X69242856Y-67883771D02*
X69099999Y-67883771D01*
X69099999Y-67883771D02*
X69004761Y-67931390D01*
X69004761Y-67931390D02*
X68957142Y-67979009D01*
X68957142Y-67979009D02*
X68909523Y-68074247D01*
X68909523Y-68074247D02*
X68909523Y-68312342D01*
X68909523Y-68312342D02*
X68957142Y-68407580D01*
X68957142Y-68407580D02*
X69004761Y-68455200D01*
X69004761Y-68455200D02*
X69099999Y-68502819D01*
X69099999Y-68502819D02*
X69385713Y-68502819D01*
X69385713Y-68502819D02*
X69480951Y-68455200D01*
X69480951Y-68455200D02*
X69528570Y-68407580D01*
X52304819Y-67345833D02*
X51828628Y-67012500D01*
X52304819Y-66774405D02*
X51304819Y-66774405D01*
X51304819Y-66774405D02*
X51304819Y-67155357D01*
X51304819Y-67155357D02*
X51352438Y-67250595D01*
X51352438Y-67250595D02*
X51400057Y-67298214D01*
X51400057Y-67298214D02*
X51495295Y-67345833D01*
X51495295Y-67345833D02*
X51638152Y-67345833D01*
X51638152Y-67345833D02*
X51733390Y-67298214D01*
X51733390Y-67298214D02*
X51781009Y-67250595D01*
X51781009Y-67250595D02*
X51828628Y-67155357D01*
X51828628Y-67155357D02*
X51828628Y-66774405D01*
X51304819Y-68202976D02*
X51304819Y-68012500D01*
X51304819Y-68012500D02*
X51352438Y-67917262D01*
X51352438Y-67917262D02*
X51400057Y-67869643D01*
X51400057Y-67869643D02*
X51542914Y-67774405D01*
X51542914Y-67774405D02*
X51733390Y-67726786D01*
X51733390Y-67726786D02*
X52114342Y-67726786D01*
X52114342Y-67726786D02*
X52209580Y-67774405D01*
X52209580Y-67774405D02*
X52257200Y-67822024D01*
X52257200Y-67822024D02*
X52304819Y-67917262D01*
X52304819Y-67917262D02*
X52304819Y-68107738D01*
X52304819Y-68107738D02*
X52257200Y-68202976D01*
X52257200Y-68202976D02*
X52209580Y-68250595D01*
X52209580Y-68250595D02*
X52114342Y-68298214D01*
X52114342Y-68298214D02*
X51876247Y-68298214D01*
X51876247Y-68298214D02*
X51781009Y-68250595D01*
X51781009Y-68250595D02*
X51733390Y-68202976D01*
X51733390Y-68202976D02*
X51685771Y-68107738D01*
X51685771Y-68107738D02*
X51685771Y-67917262D01*
X51685771Y-67917262D02*
X51733390Y-67822024D01*
X51733390Y-67822024D02*
X51781009Y-67774405D01*
X51781009Y-67774405D02*
X51876247Y-67726786D01*
X49379166Y-71804819D02*
X49712499Y-71328628D01*
X49950594Y-71804819D02*
X49950594Y-70804819D01*
X49950594Y-70804819D02*
X49569642Y-70804819D01*
X49569642Y-70804819D02*
X49474404Y-70852438D01*
X49474404Y-70852438D02*
X49426785Y-70900057D01*
X49426785Y-70900057D02*
X49379166Y-70995295D01*
X49379166Y-70995295D02*
X49379166Y-71138152D01*
X49379166Y-71138152D02*
X49426785Y-71233390D01*
X49426785Y-71233390D02*
X49474404Y-71281009D01*
X49474404Y-71281009D02*
X49569642Y-71328628D01*
X49569642Y-71328628D02*
X49950594Y-71328628D01*
X48426785Y-71804819D02*
X48998213Y-71804819D01*
X48712499Y-71804819D02*
X48712499Y-70804819D01*
X48712499Y-70804819D02*
X48807737Y-70947676D01*
X48807737Y-70947676D02*
X48902975Y-71042914D01*
X48902975Y-71042914D02*
X48998213Y-71090533D01*
X49838094Y-66404819D02*
X49838094Y-65404819D01*
X49838094Y-65404819D02*
X49599999Y-65404819D01*
X49599999Y-65404819D02*
X49457142Y-65452438D01*
X49457142Y-65452438D02*
X49361904Y-65547676D01*
X49361904Y-65547676D02*
X49314285Y-65642914D01*
X49314285Y-65642914D02*
X49266666Y-65833390D01*
X49266666Y-65833390D02*
X49266666Y-65976247D01*
X49266666Y-65976247D02*
X49314285Y-66166723D01*
X49314285Y-66166723D02*
X49361904Y-66261961D01*
X49361904Y-66261961D02*
X49457142Y-66357200D01*
X49457142Y-66357200D02*
X49599999Y-66404819D01*
X49599999Y-66404819D02*
X49838094Y-66404819D01*
X48885713Y-65500057D02*
X48838094Y-65452438D01*
X48838094Y-65452438D02*
X48742856Y-65404819D01*
X48742856Y-65404819D02*
X48504761Y-65404819D01*
X48504761Y-65404819D02*
X48409523Y-65452438D01*
X48409523Y-65452438D02*
X48361904Y-65500057D01*
X48361904Y-65500057D02*
X48314285Y-65595295D01*
X48314285Y-65595295D02*
X48314285Y-65690533D01*
X48314285Y-65690533D02*
X48361904Y-65833390D01*
X48361904Y-65833390D02*
X48933332Y-66404819D01*
X48933332Y-66404819D02*
X48314285Y-66404819D01*
X62738095Y-69950438D02*
X62833333Y-69902819D01*
X62833333Y-69902819D02*
X62976190Y-69902819D01*
X62976190Y-69902819D02*
X63119047Y-69950438D01*
X63119047Y-69950438D02*
X63214285Y-70045676D01*
X63214285Y-70045676D02*
X63261904Y-70140914D01*
X63261904Y-70140914D02*
X63309523Y-70331390D01*
X63309523Y-70331390D02*
X63309523Y-70474247D01*
X63309523Y-70474247D02*
X63261904Y-70664723D01*
X63261904Y-70664723D02*
X63214285Y-70759961D01*
X63214285Y-70759961D02*
X63119047Y-70855200D01*
X63119047Y-70855200D02*
X62976190Y-70902819D01*
X62976190Y-70902819D02*
X62880952Y-70902819D01*
X62880952Y-70902819D02*
X62738095Y-70855200D01*
X62738095Y-70855200D02*
X62690476Y-70807580D01*
X62690476Y-70807580D02*
X62690476Y-70474247D01*
X62690476Y-70474247D02*
X62880952Y-70474247D01*
X62261904Y-70902819D02*
X62261904Y-69902819D01*
X62261904Y-69902819D02*
X61690476Y-70902819D01*
X61690476Y-70902819D02*
X61690476Y-69902819D01*
X61214285Y-70902819D02*
X61214285Y-69902819D01*
X61214285Y-69902819D02*
X60976190Y-69902819D01*
X60976190Y-69902819D02*
X60833333Y-69950438D01*
X60833333Y-69950438D02*
X60738095Y-70045676D01*
X60738095Y-70045676D02*
X60690476Y-70140914D01*
X60690476Y-70140914D02*
X60642857Y-70331390D01*
X60642857Y-70331390D02*
X60642857Y-70474247D01*
X60642857Y-70474247D02*
X60690476Y-70664723D01*
X60690476Y-70664723D02*
X60738095Y-70759961D01*
X60738095Y-70759961D02*
X60833333Y-70855200D01*
X60833333Y-70855200D02*
X60976190Y-70902819D01*
X60976190Y-70902819D02*
X61214285Y-70902819D01*
X59690476Y-70902819D02*
X60261904Y-70902819D01*
X59976190Y-70902819D02*
X59976190Y-69902819D01*
X59976190Y-69902819D02*
X60071428Y-70045676D01*
X60071428Y-70045676D02*
X60166666Y-70140914D01*
X60166666Y-70140914D02*
X60261904Y-70188533D01*
X70339580Y-75757142D02*
X70387200Y-75709523D01*
X70387200Y-75709523D02*
X70434819Y-75566666D01*
X70434819Y-75566666D02*
X70434819Y-75471428D01*
X70434819Y-75471428D02*
X70387200Y-75328571D01*
X70387200Y-75328571D02*
X70291961Y-75233333D01*
X70291961Y-75233333D02*
X70196723Y-75185714D01*
X70196723Y-75185714D02*
X70006247Y-75138095D01*
X70006247Y-75138095D02*
X69863390Y-75138095D01*
X69863390Y-75138095D02*
X69672914Y-75185714D01*
X69672914Y-75185714D02*
X69577676Y-75233333D01*
X69577676Y-75233333D02*
X69482438Y-75328571D01*
X69482438Y-75328571D02*
X69434819Y-75471428D01*
X69434819Y-75471428D02*
X69434819Y-75566666D01*
X69434819Y-75566666D02*
X69482438Y-75709523D01*
X69482438Y-75709523D02*
X69530057Y-75757142D01*
X70434819Y-76709523D02*
X70434819Y-76138095D01*
X70434819Y-76423809D02*
X69434819Y-76423809D01*
X69434819Y-76423809D02*
X69577676Y-76328571D01*
X69577676Y-76328571D02*
X69672914Y-76233333D01*
X69672914Y-76233333D02*
X69720533Y-76138095D01*
X70434819Y-77661904D02*
X70434819Y-77090476D01*
X70434819Y-77376190D02*
X69434819Y-77376190D01*
X69434819Y-77376190D02*
X69577676Y-77280952D01*
X69577676Y-77280952D02*
X69672914Y-77185714D01*
X69672914Y-77185714D02*
X69720533Y-77090476D01*
%TO.C,J1*%
D11*
X39975000Y-80850000D02*
X41675000Y-80850000D01*
X39975000Y-71510000D02*
X41675000Y-71510000D01*
%TO.C,U1*%
X80710000Y-77130000D02*
X81040000Y-77370000D01*
X81040000Y-76890000D01*
X80710000Y-77130000D01*
G36*
X81040000Y-77370000D02*
G01*
X80710000Y-77130000D01*
X81040000Y-76890000D01*
X81040000Y-77370000D01*
G37*
X80810000Y-75850000D02*
X80810000Y-72090000D01*
X80810000Y-72090000D02*
X79550000Y-72090000D01*
X73990000Y-75850000D02*
X73990000Y-72090000D01*
X73990000Y-72090000D02*
X75250000Y-72090000D01*
%TO.C,C12*%
X69511252Y-69865000D02*
X68988748Y-69865000D01*
X69511252Y-71335000D02*
X68988748Y-71335000D01*
D12*
%TO.C,kibuzzard-69F6314F*%
G36*
X146430901Y-52980687D02*
G01*
X146199142Y-52980687D01*
X146018169Y-52945994D01*
X145864378Y-52841917D01*
X145759227Y-52688484D01*
X145724177Y-52505722D01*
X145759227Y-52322604D01*
X145864378Y-52168097D01*
X146018884Y-52062947D01*
X146202003Y-52027897D01*
X146430901Y-52027897D01*
X146430901Y-52980687D01*
G37*
G36*
X149472389Y-52980687D02*
G01*
X149240629Y-52980687D01*
X149059657Y-52945994D01*
X148905866Y-52841917D01*
X148800715Y-52688484D01*
X148765665Y-52505722D01*
X148800715Y-52322604D01*
X148905866Y-52168097D01*
X149060372Y-52062947D01*
X149243491Y-52027897D01*
X149472389Y-52027897D01*
X149472389Y-52980687D01*
G37*
G36*
X154664568Y-54441822D02*
G01*
X153758512Y-54441822D01*
X152751359Y-54441822D01*
X151432332Y-54441822D01*
X149735622Y-54441822D01*
X147277825Y-54441822D01*
X146694134Y-54441822D01*
X144791416Y-54441822D01*
X142387983Y-54441822D01*
X140576824Y-54441822D01*
X139841488Y-54441822D01*
X138935432Y-54441822D01*
X138935432Y-52860515D01*
X139841488Y-52860515D01*
X139853648Y-52997139D01*
X139890129Y-53120887D01*
X140014592Y-53314020D01*
X140190558Y-53441345D01*
X140386552Y-53514306D01*
X140576824Y-53535765D01*
X140737053Y-53522890D01*
X140871531Y-53491416D01*
X140981688Y-53444206D01*
X141070386Y-53389843D01*
X141139056Y-53334049D01*
X141189127Y-53283977D01*
X141220601Y-53243920D01*
X141237768Y-53223891D01*
X141309299Y-53037911D01*
X141189127Y-52854793D01*
X141070227Y-52788666D01*
X140946241Y-52807741D01*
X140817167Y-52912017D01*
X140701288Y-53016452D01*
X140588269Y-53043634D01*
X140419456Y-53002146D01*
X140367954Y-52869099D01*
X140442346Y-52780401D01*
X140666953Y-52713162D01*
X140803219Y-52676323D01*
X140911588Y-52637339D01*
X141071817Y-52545780D01*
X141186266Y-52422747D01*
X141254936Y-52268240D01*
X141277825Y-52082260D01*
X141256525Y-51916786D01*
X141192624Y-51771340D01*
X141109204Y-51673104D01*
X141430901Y-51673104D01*
X141463805Y-51870529D01*
X142141917Y-53361230D01*
X142240629Y-53465665D01*
X142387983Y-53504292D01*
X142548212Y-53468526D01*
X142645494Y-53361230D01*
X143323605Y-51870529D01*
X143338426Y-51767525D01*
X143475250Y-51767525D01*
X143495279Y-51916309D01*
X143561087Y-51996423D01*
X143639771Y-52023605D01*
X143738484Y-52027897D01*
X144528183Y-52027897D01*
X144528183Y-52282546D01*
X143998856Y-52282546D01*
X143905866Y-52286838D01*
X143837196Y-52309728D01*
X143782833Y-52378398D01*
X143767096Y-52508584D01*
X143782833Y-52635908D01*
X143838627Y-52701717D01*
X143910157Y-52724607D01*
X144004578Y-52728898D01*
X144528183Y-52728898D01*
X144528183Y-52983548D01*
X143735622Y-52983548D01*
X143636910Y-52987840D01*
X143559657Y-53015021D01*
X143495279Y-53095136D01*
X143475250Y-53246781D01*
X143495279Y-53395565D01*
X143561087Y-53475680D01*
X143639771Y-53502861D01*
X143738484Y-53507153D01*
X144791416Y-53507153D01*
X144940200Y-53487124D01*
X145020315Y-53421316D01*
X145047496Y-53342632D01*
X145051788Y-53243920D01*
X145051788Y-52494278D01*
X145200572Y-52494278D01*
X145218991Y-52695547D01*
X145274249Y-52881617D01*
X145366345Y-53052486D01*
X145495279Y-53208155D01*
X145650322Y-53337715D01*
X145820744Y-53430258D01*
X146006545Y-53485783D01*
X146207725Y-53504292D01*
X146694134Y-53504292D01*
X146838627Y-53484263D01*
X146917310Y-53422747D01*
X146947353Y-53342632D01*
X146954506Y-53241059D01*
X146954506Y-52342632D01*
X147068956Y-52342632D01*
X147084692Y-52472818D01*
X147134764Y-52542918D01*
X147277825Y-52568670D01*
X147958798Y-52568670D01*
X148086838Y-52544349D01*
X148130528Y-52494278D01*
X148242060Y-52494278D01*
X148260479Y-52695547D01*
X148315737Y-52881617D01*
X148407833Y-53052486D01*
X148536767Y-53208155D01*
X148691810Y-53337715D01*
X148862232Y-53430258D01*
X149048033Y-53485783D01*
X149249213Y-53504292D01*
X149735622Y-53504292D01*
X149880114Y-53484263D01*
X149958798Y-53422747D01*
X149988841Y-53342632D01*
X149995994Y-53241059D01*
X149995994Y-51767525D01*
X150116166Y-51767525D01*
X150136195Y-51916309D01*
X150202003Y-51996423D01*
X150280687Y-52023605D01*
X150379399Y-52027897D01*
X151169099Y-52027897D01*
X151169099Y-52282546D01*
X150639771Y-52282546D01*
X150546781Y-52286838D01*
X150478112Y-52309728D01*
X150423748Y-52378398D01*
X150408011Y-52508584D01*
X150423748Y-52635908D01*
X150479542Y-52701717D01*
X150551073Y-52724607D01*
X150645494Y-52728898D01*
X151169099Y-52728898D01*
X151169099Y-52983548D01*
X150376538Y-52983548D01*
X150277825Y-52987840D01*
X150200572Y-53015021D01*
X150136195Y-53095136D01*
X150116166Y-53246781D01*
X150136195Y-53395565D01*
X150202003Y-53475680D01*
X150280687Y-53502861D01*
X150379399Y-53507153D01*
X151432332Y-53507153D01*
X151581116Y-53487124D01*
X151661230Y-53421316D01*
X151688412Y-53342632D01*
X151692704Y-53243920D01*
X151692704Y-52528612D01*
X151930186Y-52528612D01*
X151930186Y-53115165D01*
X151998856Y-53279685D01*
X152079685Y-53358011D01*
X152184835Y-53424177D01*
X152343157Y-53486171D01*
X152531998Y-53523367D01*
X152751359Y-53535765D01*
X152950215Y-53516273D01*
X153134764Y-53457797D01*
X153305007Y-53360336D01*
X153460944Y-53223891D01*
X153591130Y-53060265D01*
X153684120Y-52881259D01*
X153739914Y-52686874D01*
X153758512Y-52477110D01*
X153739646Y-52277092D01*
X153683047Y-52091917D01*
X153588716Y-51921584D01*
X153456652Y-51766094D01*
X153298122Y-51636534D01*
X153124392Y-51543991D01*
X152935461Y-51488466D01*
X152731330Y-51469957D01*
X152582904Y-51480329D01*
X152423748Y-51511445D01*
X152273176Y-51561159D01*
X152150501Y-51627325D01*
X152070386Y-51684549D01*
X152017454Y-51744635D01*
X151990272Y-51827611D01*
X152056080Y-51987840D01*
X152161946Y-52101574D01*
X152267811Y-52139485D01*
X152422318Y-52073677D01*
X152568956Y-52013591D01*
X152745637Y-51993562D01*
X152933763Y-52028970D01*
X153091845Y-52135193D01*
X153199142Y-52292918D01*
X153234907Y-52482833D01*
X153197711Y-52678827D01*
X153086123Y-52849070D01*
X152925179Y-52967096D01*
X152739914Y-53006438D01*
X152575393Y-52997139D01*
X152453791Y-52969242D01*
X152453791Y-52723176D01*
X152665522Y-52723176D01*
X152742775Y-52718884D01*
X152802861Y-52695994D01*
X152851502Y-52628755D01*
X152865808Y-52500000D01*
X152850072Y-52374106D01*
X152797139Y-52306867D01*
X152734192Y-52283977D01*
X152656938Y-52279685D01*
X152156223Y-52279685D01*
X152046066Y-52299714D01*
X151978827Y-52336910D01*
X151944492Y-52394134D01*
X151931617Y-52457082D01*
X151930186Y-52528612D01*
X151692704Y-52528612D01*
X151692704Y-51764664D01*
X151634049Y-51560086D01*
X151423748Y-51504292D01*
X150376538Y-51504292D01*
X150277825Y-51508584D01*
X150200572Y-51535765D01*
X150136195Y-51615880D01*
X150116166Y-51767525D01*
X149995994Y-51767525D01*
X149995994Y-51761803D01*
X149991702Y-51665951D01*
X149964521Y-51587268D01*
X149884406Y-51522890D01*
X149732761Y-51504292D01*
X149240629Y-51504292D01*
X149043205Y-51522532D01*
X148860086Y-51577253D01*
X148691273Y-51668455D01*
X148536767Y-51796137D01*
X148407833Y-51949213D01*
X148315737Y-52116595D01*
X148260479Y-52298283D01*
X148242060Y-52494278D01*
X148130528Y-52494278D01*
X148150501Y-52471388D01*
X148164807Y-52339771D01*
X148147639Y-52211016D01*
X148093276Y-52142346D01*
X147955937Y-52116595D01*
X147274964Y-52116595D01*
X147147639Y-52140200D01*
X147086123Y-52211016D01*
X147068956Y-52342632D01*
X146954506Y-52342632D01*
X146954506Y-51761803D01*
X146950215Y-51665951D01*
X146923033Y-51587268D01*
X146842918Y-51522890D01*
X146691273Y-51504292D01*
X146199142Y-51504292D01*
X146001717Y-51522532D01*
X145818598Y-51577253D01*
X145649785Y-51668455D01*
X145495279Y-51796137D01*
X145366345Y-51949213D01*
X145274249Y-52116595D01*
X145218991Y-52298283D01*
X145200572Y-52494278D01*
X145051788Y-52494278D01*
X145051788Y-51764664D01*
X144993133Y-51560086D01*
X144782833Y-51504292D01*
X143735622Y-51504292D01*
X143636910Y-51508584D01*
X143559657Y-51535765D01*
X143495279Y-51615880D01*
X143475250Y-51767525D01*
X143338426Y-51767525D01*
X143352217Y-51671674D01*
X143191989Y-51535765D01*
X142977396Y-51492847D01*
X142845780Y-51655937D01*
X142393705Y-52768956D01*
X141941631Y-51655937D01*
X141807153Y-51494278D01*
X141595422Y-51535765D01*
X141430901Y-51673104D01*
X141109204Y-51673104D01*
X141086123Y-51645923D01*
X140947194Y-51549754D01*
X140786012Y-51492052D01*
X140602575Y-51472818D01*
X140386711Y-51491893D01*
X140204546Y-51549118D01*
X140056080Y-51644492D01*
X139953076Y-51791845D01*
X140021745Y-51967811D01*
X140190558Y-52106581D01*
X140382260Y-52053648D01*
X140415165Y-52026466D01*
X140455222Y-51993562D01*
X140511016Y-51972103D01*
X140605436Y-51962089D01*
X140711302Y-51997854D01*
X140757082Y-52085122D01*
X140707010Y-52178112D01*
X140593991Y-52228183D01*
X140419456Y-52263948D01*
X140236338Y-52308298D01*
X140074320Y-52382690D01*
X139948784Y-52491416D01*
X139868312Y-52646638D01*
X139841488Y-52860515D01*
X138935432Y-52860515D01*
X138935432Y-50558178D01*
X139841488Y-50558178D01*
X153758512Y-50558178D01*
X154664568Y-50558178D01*
X154664568Y-54441822D01*
G37*
%TO.C,R3*%
D11*
X49527064Y-75765000D02*
X49072936Y-75765000D01*
X49527064Y-77235000D02*
X49072936Y-77235000D01*
%TO.C,D1*%
X84962500Y-72440000D02*
X87647500Y-72440000D01*
X87647500Y-72440000D02*
X87647500Y-74360000D01*
X87647500Y-74360000D02*
X84962500Y-74360000D01*
%TO.C,R2*%
X87165000Y-77572936D02*
X87165000Y-78027064D01*
X88635000Y-77572936D02*
X88635000Y-78027064D01*
%TO.C,C15*%
X53365000Y-79138748D02*
X53365000Y-79661252D01*
X54835000Y-79138748D02*
X54835000Y-79661252D01*
%TO.C,C14*%
X48565000Y-79761252D02*
X48565000Y-79238748D01*
X50035000Y-79761252D02*
X50035000Y-79238748D01*
%TO.C,5V1*%
X59600000Y-77700000D02*
X59600000Y-79100000D01*
X59600000Y-79100000D02*
X61000000Y-79100000D01*
X61000000Y-77700000D02*
X59600000Y-77700000D01*
X61000000Y-79100000D02*
X61000000Y-77700000D01*
%TO.C,3V3*%
X69400000Y-65900000D02*
X69400000Y-67300000D01*
X69400000Y-67300000D02*
X70800000Y-67300000D01*
X70800000Y-65900000D02*
X69400000Y-65900000D01*
X70800000Y-67300000D02*
X70800000Y-65900000D01*
%TO.C,R6*%
X52765000Y-67285436D02*
X52765000Y-67739564D01*
X54235000Y-67285436D02*
X54235000Y-67739564D01*
%TO.C,R1*%
X49439564Y-72265000D02*
X48985436Y-72265000D01*
X49439564Y-73735000D02*
X48985436Y-73735000D01*
%TO.C,D2*%
X48100000Y-66640000D02*
X50785000Y-66640000D01*
X50785000Y-66640000D02*
X50785000Y-68560000D01*
X50785000Y-68560000D02*
X48100000Y-68560000D01*
%TO.C,GND1*%
X60800000Y-68300000D02*
X60800000Y-69700000D01*
X60800000Y-69700000D02*
X62200000Y-69700000D01*
X62200000Y-68300000D02*
X60800000Y-68300000D01*
X62200000Y-69700000D02*
X62200000Y-68300000D01*
%TO.C,C11*%
X67565000Y-76661252D02*
X67565000Y-76138748D01*
X69035000Y-76661252D02*
X69035000Y-76138748D01*
%TD*%
%LPC*%
D13*
%TO.C,J1*%
X42980000Y-71860000D03*
D14*
X38800000Y-71860000D03*
D13*
X42980000Y-80500000D03*
D14*
X38800000Y-80500000D03*
D15*
X43555000Y-79380000D03*
X43555000Y-78580000D03*
D16*
X43555000Y-77930000D03*
X43555000Y-76930000D03*
X43555000Y-75430000D03*
X43555000Y-74430000D03*
D15*
X43555000Y-73780000D03*
X43555000Y-72980000D03*
X43555000Y-72980000D03*
X43555000Y-73780000D03*
D16*
X43555000Y-74930000D03*
X43555000Y-75930000D03*
X43555000Y-76430000D03*
X43555000Y-77430000D03*
D15*
X43555000Y-78580000D03*
X43555000Y-79380000D03*
D17*
X42480000Y-73290000D03*
X42480000Y-79070000D03*
%TD*%
D18*
%TO.C,U1*%
X75100000Y-77150000D03*
D19*
X77400000Y-70850000D03*
D18*
X77400000Y-77150000D03*
X79700000Y-77150000D03*
%TD*%
D20*
%TO.C,MK-L1*%
X45084500Y-53270000D03*
%TD*%
D21*
%TO.C,J3*%
X165000000Y-60800000D03*
D22*
X165000000Y-63340000D03*
X165000000Y-65880000D03*
X165000000Y-68420000D03*
X165000000Y-70960000D03*
%TD*%
D20*
%TO.C,MK-R1*%
X159500000Y-53326000D03*
%TD*%
D21*
%TO.C,J2*%
X113380000Y-52650000D03*
D22*
X110840000Y-52650000D03*
X108300000Y-52650000D03*
X105760000Y-52650000D03*
%TD*%
D23*
%TO.C,C12*%
X70200000Y-70600000D03*
X68300000Y-70600000D03*
%TD*%
D24*
%TO.C,R3*%
X50212500Y-76500000D03*
X48387500Y-76500000D03*
%TD*%
D25*
%TO.C,D1*%
X86900000Y-73400000D03*
X85025000Y-73400000D03*
%TD*%
D26*
%TO.C,R2*%
X87900000Y-76887500D03*
X87900000Y-78712500D03*
%TD*%
D27*
%TO.C,C15*%
X54100000Y-78450000D03*
X54100000Y-80350000D03*
%TD*%
D28*
%TO.C,C14*%
X49300000Y-80450000D03*
X49300000Y-78550000D03*
%TD*%
D29*
%TO.C,5V1*%
X60300000Y-78400000D03*
%TD*%
%TO.C,3V3*%
X70100000Y-66600000D03*
%TD*%
D26*
%TO.C,R6*%
X53500000Y-66600000D03*
X53500000Y-68425000D03*
%TD*%
D24*
%TO.C,R1*%
X50125000Y-73000000D03*
X48300000Y-73000000D03*
%TD*%
D25*
%TO.C,D2*%
X50037500Y-67600000D03*
X48162500Y-67600000D03*
%TD*%
D29*
%TO.C,GND1*%
X61500000Y-69000000D03*
%TD*%
D28*
%TO.C,C11*%
X68300000Y-77350000D03*
X68300000Y-75450000D03*
%TD*%
%LPD*%
M02*
