%TF.GenerationSoftware,KiCad,Pcbnew,10.0.5*%
%TF.CreationDate,2026-08-07T21:44:09+02:00*%
%TF.ProjectId,audioVisualizer_PCB,61756469-6f56-4697-9375-616c697a6572,rev?*%
%TF.SameCoordinates,Original*%
%TF.FileFunction,Copper,L1,Top*%
%TF.FilePolarity,Positive*%
%FSLAX46Y46*%
G04 Gerber Fmt 4.6, Leading zero omitted, Abs format (unit mm)*
G04 Created by KiCad (PCBNEW 10.0.5) date 2026-08-07 21:44:09*
%MOMM*%
%LPD*%
G01*
G04 APERTURE LIST*
G04 Aperture macros list*
%AMRoundRect*
0 Rectangle with rounded corners*
0 $1 Rounding radius*
0 $2 $3 $4 $5 $6 $7 $8 $9 X,Y pos of 4 corners*
0 Add a 4 corners polygon primitive as box body*
4,1,4,$2,$3,$4,$5,$6,$7,$8,$9,$2,$3,0*
0 Add four circle primitives for the rounded corners*
1,1,$1+$1,$2,$3*
1,1,$1+$1,$4,$5*
1,1,$1+$1,$6,$7*
1,1,$1+$1,$8,$9*
0 Add four rect primitives between the rounded corners*
20,1,$1+$1,$2,$3,$4,$5,0*
20,1,$1+$1,$4,$5,$6,$7,0*
20,1,$1+$1,$6,$7,$8,$9,0*
20,1,$1+$1,$8,$9,$2,$3,0*%
%AMFreePoly0*
4,1,296,0.076512,1.482500,0.076536,1.482499,0.118536,1.479499,0.118572,1.479495,0.159586,1.473493,0.199586,1.466493,0.199621,1.466485,0.239644,1.456479,0.279644,1.444479,0.318658,1.431474,0.318694,1.431461,0.356714,1.415452,0.394714,1.397452,0.394743,1.397437,0.430757,1.377429,0.465757,1.356429,0.465788,1.356408,0.499788,1.332408,0.499802,1.332399,0.532802,1.307399,
0.564841,1.280366,0.594841,1.252366,0.594866,1.252341,0.622866,1.222341,0.649899,1.190302,0.674899,1.157302,0.674908,1.157288,0.698908,1.123288,0.698929,1.123257,0.719937,1.088243,0.739937,1.052243,0.739952,1.052214,0.757961,1.014194,0.773961,0.976194,0.773974,0.976158,0.786979,0.937144,0.798979,0.897144,0.808985,0.857121,0.808993,0.857086,0.815995,0.817072,
0.821995,0.776072,0.821999,0.776036,0.824999,0.734036,0.826000,0.693012,0.826000,0.662988,0.824999,0.620965,0.821999,0.577965,0.821995,0.577929,0.815991,0.535904,0.807991,0.494904,0.797979,0.452856,0.785972,0.412835,0.771963,0.372810,0.755963,0.333810,0.737954,0.294790,0.737935,0.294753,0.716927,0.257739,0.694927,0.221739,0.670897,0.186696,0.644897,0.152696,
0.617865,0.120658,0.588865,0.089658,0.588842,0.089635,0.557842,0.060635,0.525804,0.033603,0.491804,0.007603,0.456761,-0.016427,0.420747,-0.038435,0.383747,-0.059435,0.383710,-0.059454,0.344690,-0.077463,0.305690,-0.093463,0.265644,-0.107479,0.225644,-0.119479,0.183596,-0.129491,0.142596,-0.137491,0.100571,-0.143495,0.100535,-0.143499,0.057512,-0.146500,0.015512,-0.147500,
0.005488,-0.147500,-0.036536,-0.146499,-0.078536,-0.143499,-0.078572,-0.143495,-0.119584,-0.137493,-0.160584,-0.130493,-0.160618,-0.130486,-0.201644,-0.120479,-0.241665,-0.108472,-0.281665,-0.094472,-0.281694,-0.094461,-0.319714,-0.078452,-0.357738,-0.060440,-0.394761,-0.040427,-0.430761,-0.018427,-0.464788,0.005592,-0.464802,0.005601,-0.497802,0.030601,-0.529842,0.057635,-0.560842,0.086635,
-0.560865,0.086658,-0.589865,0.117658,-0.616899,0.149698,-0.641899,0.182698,-0.641908,0.182712,-0.665927,0.216739,-0.687927,0.252739,-0.707940,0.289762,-0.725961,0.327806,-0.741961,0.365806,-0.741972,0.365835,-0.755979,0.405856,-0.767979,0.445856,-0.777986,0.486882,-0.777993,0.486916,-0.784995,0.527928,-0.790995,0.568928,-0.790999,0.568964,-0.793999,0.610964,-0.795000,0.652988,
-0.795000,0.683012,-0.793999,0.725036,-0.790999,0.767036,-0.790995,0.767072,-0.784993,0.808084,-0.777993,0.849084,-0.777986,0.849118,-0.767979,0.890144,-0.755972,0.930165,-0.741972,0.970165,-0.741961,0.970194,-0.725952,1.008214,-0.707940,1.046238,-0.687927,1.083261,-0.665927,1.119261,-0.641908,1.153288,-0.641899,1.153302,-0.616899,1.186302,-0.589865,1.218342,-0.560865,1.249342,
-0.560842,1.249365,-0.529842,1.278365,-0.497802,1.305399,-0.464802,1.330399,-0.464788,1.330408,-0.430761,1.354427,-0.394761,1.376427,-0.357738,1.396440,-0.319694,1.414461,-0.281694,1.430461,-0.281665,1.430472,-0.241644,1.444479,-0.201644,1.456479,-0.160618,1.466486,-0.160584,1.466493,-0.119572,1.473495,-0.078572,1.479495,-0.078536,1.479499,-0.036536,1.482499,0.005488,1.483500,
0.005845,1.483362,0.006000,1.483012,0.006000,1.183000,0.005854,1.182646,0.005519,1.182500,-0.020469,1.181500,-0.046457,1.179501,-0.072428,1.176504,-0.098395,1.171511,-0.123370,1.165517,-0.149348,1.158522,-0.173308,1.149538,-0.197300,1.139541,-0.221278,1.128551,-0.244239,1.115572,-0.266232,1.101578,-0.288210,1.087591,-0.309187,1.071609,-0.329166,1.054627,-0.348146,1.036646,
-0.366127,1.017666,-0.383109,0.997687,-0.399091,0.976710,-0.413078,0.954732,-0.427072,0.932739,-0.440051,0.909778,-0.451045,0.885792,-0.461038,0.861808,-0.470022,0.837848,-0.477017,0.811870,-0.483011,0.786895,-0.488004,0.760928,-0.491001,0.734962,-0.493001,0.708962,-0.494000,0.682981,-0.494000,0.663019,-0.493001,0.636038,-0.491001,0.610038,-0.488005,0.583073,-0.483009,0.557098,
-0.477018,0.531135,-0.469022,0.505147,-0.460038,0.480192,-0.450041,0.456200,-0.438049,0.431216,-0.426066,0.408250,-0.412081,0.385273,-0.397101,0.363303,-0.380111,0.342315,-0.363119,0.322324,-0.345146,0.302354,-0.325176,0.284381,-0.305185,0.267389,-0.284196,0.250398,-0.262226,0.235418,-0.239250,0.221433,-0.216284,0.209451,-0.191299,0.197458,-0.167308,0.187462,-0.167308,0.187461,
-0.142353,0.178478,-0.116365,0.170481,-0.090402,0.164490,-0.064426,0.159494,-0.037462,0.156498,-0.037462,0.156499,-0.011469,0.154499,0.015519,0.153500,0.025481,0.153500,0.051469,0.154499,0.077457,0.156498,0.103428,0.159495,0.129395,0.164488,0.154370,0.170482,0.154370,0.170483,0.180348,0.177477,0.204308,0.186462,0.228300,0.196458,0.252278,0.207448,0.275239,0.220427,
0.319210,0.248408,0.340187,0.264390,0.360166,0.281372,0.379146,0.299353,0.397127,0.318333,0.414109,0.338312,0.430091,0.359289,0.458072,0.403260,0.471051,0.426221,0.482045,0.450208,0.492038,0.474192,0.501022,0.498151,0.508017,0.524130,0.514011,0.549104,0.519004,0.575071,0.522001,0.601043,0.524001,0.627038,0.525000,0.653019,0.525000,0.682981,0.524001,0.708962,
0.522001,0.734962,0.519004,0.760928,0.514011,0.786895,0.508017,0.811870,0.501022,0.837848,0.492038,0.861808,0.482045,0.885792,0.471051,0.909778,0.458072,0.932739,0.444078,0.954732,0.430091,0.976710,0.414109,0.997687,0.397127,1.017666,0.379146,1.036646,0.360166,1.054627,0.340187,1.071609,0.319210,1.087591,0.297232,1.101578,0.275239,1.115572,0.252278,1.128551,
0.228300,1.139541,0.204308,1.149538,0.180348,1.158522,0.154370,1.165517,0.129395,1.171511,0.103428,1.176504,0.077457,1.179501,0.051469,1.181500,0.025481,1.182500,0.025133,1.182660,0.025000,1.183000,0.025000,1.483000,0.025146,1.483354,0.025500,1.483500,0.035512,1.483500,0.076512,1.482500,0.076512,1.482500,$1*%
G04 Aperture macros list end*
%TA.AperFunction,SMDPad,CuDef*%
%ADD10RoundRect,0.250000X0.475000X-0.250000X0.475000X0.250000X-0.475000X0.250000X-0.475000X-0.250000X0*%
%TD*%
%TA.AperFunction,SMDPad,CuDef*%
%ADD11R,0.600000X0.522000*%
%TD*%
%TA.AperFunction,SMDPad,CuDef*%
%ADD12FreePoly0,180.000000*%
%TD*%
%TA.AperFunction,ComponentPad*%
%ADD13R,1.700000X1.700000*%
%TD*%
%TA.AperFunction,ComponentPad*%
%ADD14C,1.700000*%
%TD*%
%TA.AperFunction,SMDPad,CuDef*%
%ADD15RoundRect,0.250000X-0.250000X-0.475000X0.250000X-0.475000X0.250000X0.475000X-0.250000X0.475000X0*%
%TD*%
%TA.AperFunction,SMDPad,CuDef*%
%ADD16RoundRect,0.250000X-0.275000X-0.750000X0.275000X-0.750000X0.275000X0.750000X-0.275000X0.750000X0*%
%TD*%
%TA.AperFunction,SMDPad,CuDef*%
%ADD17RoundRect,0.250000X-0.262500X-0.450000X0.262500X-0.450000X0.262500X0.450000X-0.262500X0.450000X0*%
%TD*%
%TA.AperFunction,SMDPad,CuDef*%
%ADD18RoundRect,0.250000X-0.475000X0.250000X-0.475000X-0.250000X0.475000X-0.250000X0.475000X0.250000X0*%
%TD*%
%TA.AperFunction,SMDPad,CuDef*%
%ADD19RoundRect,0.075000X-0.700000X-0.075000X0.700000X-0.075000X0.700000X0.075000X-0.700000X0.075000X0*%
%TD*%
%TA.AperFunction,SMDPad,CuDef*%
%ADD20RoundRect,0.075000X-0.075000X-0.700000X0.075000X-0.700000X0.075000X0.700000X-0.075000X0.700000X0*%
%TD*%
%TA.AperFunction,SMDPad,CuDef*%
%ADD21RoundRect,0.250000X0.450000X-0.262500X0.450000X0.262500X-0.450000X0.262500X-0.450000X-0.262500X0*%
%TD*%
%TA.AperFunction,SMDPad,CuDef*%
%ADD22RoundRect,0.250000X1.450000X0.650000X-1.450000X0.650000X-1.450000X-0.650000X1.450000X-0.650000X0*%
%TD*%
%TA.AperFunction,SMDPad,CuDef*%
%ADD23RoundRect,0.250000X-1.450000X-0.650000X1.450000X-0.650000X1.450000X0.650000X-1.450000X0.650000X0*%
%TD*%
%TA.AperFunction,SMDPad,CuDef*%
%ADD24RoundRect,0.250000X0.477237X0.245703X0.067661X0.532491X-0.477237X-0.245703X-0.067661X-0.532491X0*%
%TD*%
%TA.AperFunction,SMDPad,CuDef*%
%ADD25R,0.900000X1.000000*%
%TD*%
%TA.AperFunction,SMDPad,CuDef*%
%ADD26RoundRect,0.250000X0.250000X0.475000X-0.250000X0.475000X-0.250000X-0.475000X0.250000X-0.475000X0*%
%TD*%
%TA.AperFunction,ComponentPad*%
%ADD27O,1.800000X1.000000*%
%TD*%
%TA.AperFunction,ComponentPad*%
%ADD28O,2.100000X1.000000*%
%TD*%
%TA.AperFunction,ViaPad*%
%ADD29C,0.600000*%
%TD*%
%TA.AperFunction,Conductor*%
%ADD30C,0.500000*%
%TD*%
%TA.AperFunction,Conductor*%
%ADD31C,0.200000*%
%TD*%
G04 APERTURE END LIST*
D10*
%TO.P,C7,1*%
%TO.N,+3.3V*%
X90400000Y-80150000D03*
%TO.P,C7,2*%
%TO.N,GND*%
X90400000Y-78250000D03*
%TD*%
D11*
%TO.P,MK-L1,1,WS_1*%
%TO.N,MIC_WS*%
X45984500Y-55344000D03*
%TO.P,MK-L1,2,L/R_2*%
%TO.N,+3.3V*%
X45984500Y-54522000D03*
D12*
%TO.P,MK-L1,3,GND_3*%
%TO.N,GND*%
X45100000Y-52600000D03*
D11*
%TO.P,MK-L1,4,SCK_4*%
%TO.N,MIC_SCK*%
X44184500Y-54522000D03*
%TO.P,MK-L1,5,VDD_5*%
%TO.N,+3.3V*%
X44184500Y-55344000D03*
%TO.P,MK-L1,6,SD_6*%
%TO.N,MIC_SD*%
X45084500Y-55344000D03*
%TD*%
D13*
%TO.P,J3,1,VCC_1*%
%TO.N,+5V*%
X165000000Y-60800000D03*
D14*
%TO.P,J3,2,GND_2*%
%TO.N,GND*%
X165000000Y-63340000D03*
%TO.P,J3,3,DIN_3*%
%TO.N,SPI_DIN*%
X165000000Y-65880000D03*
%TO.P,J3,4,CS_4*%
%TO.N,SPI_CS*%
X165000000Y-68420000D03*
%TO.P,J3,5,CLK_5*%
%TO.N,SPI_CLK*%
X165000000Y-70960000D03*
%TD*%
D15*
%TO.P,C19,1*%
%TO.N,Net-(U2-VCAP1)*%
X108150000Y-75800000D03*
%TO.P,C19,2*%
%TO.N,GND*%
X110050000Y-75800000D03*
%TD*%
D10*
%TO.P,C6,1*%
%TO.N,GND*%
X85800000Y-65850000D03*
%TO.P,C6,2*%
%TO.N,+3.3V*%
X85800000Y-63950000D03*
%TD*%
D16*
%TO.P,SW1,1,1_1*%
%TO.N,GND*%
X81575000Y-69100000D03*
%TO.P,SW1,2,2_2*%
%TO.N,Net-(U2-NRST)*%
X86025000Y-69100000D03*
%TD*%
D17*
%TO.P,R4,1*%
%TO.N,SWDIO*%
X118675000Y-56900000D03*
%TO.P,R4,2*%
%TO.N,+3.3V*%
X120500000Y-56900000D03*
%TD*%
D10*
%TO.P,C8,1*%
%TO.N,+3.3V*%
X99700000Y-62650000D03*
%TO.P,C8,2*%
%TO.N,GND*%
X99700000Y-60750000D03*
%TD*%
D18*
%TO.P,C4,1*%
%TO.N,+3.3V*%
X112400000Y-73850000D03*
%TO.P,C4,2*%
%TO.N,GND*%
X112400000Y-75750000D03*
%TD*%
D19*
%TO.P,U2,1,VBAT_1*%
%TO.N,+3.3V*%
X100525000Y-64050000D03*
%TO.P,U2,2,PC13_2*%
%TO.N,unconnected-(U2-PC13-Pad2)*%
X100525000Y-64550000D03*
%TO.P,U2,3,PC14_3*%
%TO.N,unconnected-(U2-PC14-Pad3)*%
X100525000Y-65050000D03*
%TO.P,U2,4,PC15_4*%
%TO.N,unconnected-(U2-PC15-Pad4)*%
X100525000Y-65550000D03*
%TO.P,U2,5,PH0_5*%
%TO.N,/CRYS_OUT*%
X100525000Y-66050000D03*
%TO.P,U2,6,PH1_6*%
%TO.N,unconnected-(U2-PH1-Pad6)*%
X100525000Y-66550000D03*
%TO.P,U2,7,NRST_7*%
%TO.N,Net-(U2-NRST)*%
X100525000Y-67050000D03*
%TO.P,U2,8,PC0_8*%
%TO.N,unconnected-(U2-PC0-Pad8)*%
X100525000Y-67550000D03*
%TO.P,U2,9,PC1_9*%
%TO.N,unconnected-(U2-PC1-Pad9)*%
X100525000Y-68050000D03*
%TO.P,U2,10,PC2_10*%
%TO.N,unconnected-(U2-PC2-Pad10)*%
X100525000Y-68550000D03*
%TO.P,U2,11,PC3_11*%
%TO.N,unconnected-(U2-PC3-Pad11)*%
X100525000Y-69050000D03*
%TO.P,U2,12,VSSA_12*%
%TO.N,GND*%
X100525000Y-69550000D03*
%TO.P,U2,13,VREF+_13*%
%TO.N,unconnected-(U2-VREF+-Pad13)*%
X100525000Y-70050000D03*
%TO.P,U2,14,PA0_14*%
%TO.N,unconnected-(U2-PA0-Pad14)*%
X100525000Y-70550000D03*
%TO.P,U2,15,PA1_15*%
%TO.N,unconnected-(U2-PA1-Pad15)*%
X100525000Y-71050000D03*
%TO.P,U2,16,PA2_16*%
%TO.N,unconnected-(U2-PA2-Pad16)*%
X100525000Y-71550000D03*
D20*
%TO.P,U2,17,PA3_17*%
%TO.N,unconnected-(U2-PA3-Pad17)*%
X102450000Y-73475000D03*
%TO.P,U2,18,VSS_18*%
%TO.N,GND*%
X102950000Y-73475000D03*
%TO.P,U2,19,VDD_19*%
%TO.N,+3.3V*%
X103450000Y-73475000D03*
%TO.P,U2,20,PA4_20*%
%TO.N,unconnected-(U2-PA4-Pad20)*%
X103950000Y-73475000D03*
%TO.P,U2,21,PA5_21*%
%TO.N,unconnected-(U2-PA5-Pad21)*%
X104450000Y-73475000D03*
%TO.P,U2,22,PA6_22*%
%TO.N,unconnected-(U2-PA6-Pad22)*%
X104950000Y-73475000D03*
%TO.P,U2,23,PA7_23*%
%TO.N,unconnected-(U2-PA7-Pad23)*%
X105450000Y-73475000D03*
%TO.P,U2,24,PC4_24*%
%TO.N,unconnected-(U2-PC4-Pad24)*%
X105950000Y-73475000D03*
%TO.P,U2,25,PC5_25*%
%TO.N,unconnected-(U2-PC5-Pad25)*%
X106450000Y-73475000D03*
%TO.P,U2,26,PB0_26*%
%TO.N,unconnected-(U2-PB0-Pad26)*%
X106950000Y-73475000D03*
%TO.P,U2,27,PB1_27*%
%TO.N,unconnected-(U2-PB1-Pad27)*%
X107450000Y-73475000D03*
%TO.P,U2,28,PB2_28*%
%TO.N,unconnected-(U2-PB2-Pad28)*%
X107950000Y-73475000D03*
%TO.P,U2,29,PB10_29*%
%TO.N,unconnected-(U2-PB10-Pad29)*%
X108450000Y-73475000D03*
%TO.P,U2,30,VCAP1_30*%
%TO.N,Net-(U2-VCAP1)*%
X108950000Y-73475000D03*
%TO.P,U2,31,VSS_31*%
%TO.N,GND*%
X109450000Y-73475000D03*
%TO.P,U2,32,VDD_32*%
%TO.N,+3.3V*%
X109950000Y-73475000D03*
D19*
%TO.P,U2,33,PB12_33*%
%TO.N,unconnected-(U2-PB12-Pad33)*%
X111875000Y-71550000D03*
%TO.P,U2,34,PB13_34*%
%TO.N,SPI_CLK*%
X111875000Y-71050000D03*
%TO.P,U2,35,PB14_35*%
%TO.N,SPI_CS*%
X111875000Y-70550000D03*
%TO.P,U2,36,PB15_36*%
%TO.N,SPI_DIN*%
X111875000Y-70050000D03*
%TO.P,U2,37,PC6_37*%
%TO.N,unconnected-(U2-PC6-Pad37)*%
X111875000Y-69550000D03*
%TO.P,U2,38,PC7_38*%
%TO.N,unconnected-(U2-PC7-Pad38)*%
X111875000Y-69050000D03*
%TO.P,U2,39,PC8_39*%
%TO.N,unconnected-(U2-PC8-Pad39)*%
X111875000Y-68550000D03*
%TO.P,U2,40,PC9_40*%
%TO.N,unconnected-(U2-PC9-Pad40)*%
X111875000Y-68050000D03*
%TO.P,U2,41,PA8_41*%
%TO.N,unconnected-(U2-PA8-Pad41)*%
X111875000Y-67550000D03*
%TO.P,U2,42,PA9_42*%
%TO.N,unconnected-(U2-PA9-Pad42)*%
X111875000Y-67050000D03*
%TO.P,U2,43,PA10_43*%
%TO.N,unconnected-(U2-PA10-Pad43)*%
X111875000Y-66550000D03*
%TO.P,U2,44,PA11_44*%
%TO.N,unconnected-(U2-PA11-Pad44)*%
X111875000Y-66050000D03*
%TO.P,U2,45,PA12_45*%
%TO.N,unconnected-(U2-PA12-Pad45)*%
X111875000Y-65550000D03*
%TO.P,U2,46,PA13_46*%
%TO.N,SWDIO*%
X111875000Y-65050000D03*
%TO.P,U2,47,VSS_47*%
%TO.N,GND*%
X111875000Y-64550000D03*
%TO.P,U2,48,VDD_48*%
%TO.N,+3.3V*%
X111875000Y-64050000D03*
D20*
%TO.P,U2,49,PA14_49*%
%TO.N,SWCLK*%
X109950000Y-62125000D03*
%TO.P,U2,50,PA15_50*%
%TO.N,MIC_WS*%
X109450000Y-62125000D03*
%TO.P,U2,51,PC10_51*%
%TO.N,MIC_SCK*%
X108950000Y-62125000D03*
%TO.P,U2,52,PC11_52*%
%TO.N,unconnected-(U2-PC11-Pad52)*%
X108450000Y-62125000D03*
%TO.P,U2,53,PC12_53*%
%TO.N,MIC_SD*%
X107950000Y-62125000D03*
%TO.P,U2,54,PD2_54*%
%TO.N,unconnected-(U2-PD2-Pad54)*%
X107450000Y-62125000D03*
%TO.P,U2,55,PB3_55*%
%TO.N,unconnected-(U2-PB3-Pad55)*%
X106950000Y-62125000D03*
%TO.P,U2,56,PB4_56*%
%TO.N,unconnected-(U2-PB4-Pad56)*%
X106450000Y-62125000D03*
%TO.P,U2,57,PB5_57*%
%TO.N,unconnected-(U2-PB5-Pad57)*%
X105950000Y-62125000D03*
%TO.P,U2,58,PB6_58*%
%TO.N,unconnected-(U2-PB6-Pad58)*%
X105450000Y-62125000D03*
%TO.P,U2,59,PB7_59*%
%TO.N,unconnected-(U2-PB7-Pad59)*%
X104950000Y-62125000D03*
%TO.P,U2,60,BOOT0_60*%
%TO.N,GND*%
X104450000Y-62125000D03*
%TO.P,U2,61,PB8_61*%
%TO.N,unconnected-(U2-PB8-Pad61)*%
X103950000Y-62125000D03*
%TO.P,U2,62,PB9_62*%
%TO.N,unconnected-(U2-PB9-Pad62)*%
X103450000Y-62125000D03*
%TO.P,U2,63,VSS_63*%
%TO.N,GND*%
X102950000Y-62125000D03*
%TO.P,U2,64,VDD_64*%
%TO.N,+3.3V*%
X102450000Y-62125000D03*
%TD*%
D18*
%TO.P,C13,1*%
%TO.N,Net-(U2-NRST)*%
X95000000Y-70000000D03*
%TO.P,C13,2*%
%TO.N,GND*%
X95000000Y-71900000D03*
%TD*%
D21*
%TO.P,R8,1*%
%TO.N,+3.3V*%
X90800000Y-71812500D03*
%TO.P,R8,2*%
%TO.N,Net-(U2-NRST)*%
X90800000Y-69987500D03*
%TD*%
D17*
%TO.P,R5,1*%
%TO.N,SWCLK*%
X115187500Y-56887500D03*
%TO.P,R5,2*%
%TO.N,GND*%
X117012500Y-56887500D03*
%TD*%
D22*
%TO.P,3V3,1,1_1*%
%TO.N,+3.3V*%
X75400000Y-63800000D03*
%TD*%
D11*
%TO.P,MK-R1,1,WS_1*%
%TO.N,MIC_WS*%
X160400000Y-55400000D03*
%TO.P,MK-R1,2,L/R_2*%
%TO.N,GND*%
X160400000Y-54578000D03*
D12*
%TO.P,MK-R1,3,GND_3*%
X159515500Y-52656000D03*
D11*
%TO.P,MK-R1,4,SCK_4*%
%TO.N,MIC_SCK*%
X158600000Y-54578000D03*
%TO.P,MK-R1,5,VDD_5*%
%TO.N,+3.3V*%
X158600000Y-55400000D03*
%TO.P,MK-R1,6,SD_6*%
%TO.N,MIC_SD*%
X159500000Y-55400000D03*
%TD*%
D13*
%TO.P,J2,1,Pin_1_1*%
%TO.N,SWDIO*%
X118610000Y-53200000D03*
D14*
%TO.P,J2,2,Pin_2_2*%
%TO.N,SWCLK*%
X116070000Y-53200000D03*
%TO.P,J2,3,Pin_3_3*%
%TO.N,GND*%
X113530000Y-53200000D03*
%TO.P,J2,4,Pin_4_4*%
%TO.N,+3.3V*%
X110990000Y-53200000D03*
%TD*%
D23*
%TO.P,CRYS_25,1,1_1*%
%TO.N,/CRYS_OUT*%
X95100000Y-66100000D03*
%TD*%
D21*
%TO.P,R29,1*%
%TO.N,MIC_SD*%
X107900000Y-55012500D03*
%TO.P,R29,2*%
%TO.N,GND*%
X107900000Y-53187500D03*
%TD*%
D15*
%TO.P,C3,1*%
%TO.N,+3.3V*%
X102450000Y-58200000D03*
%TO.P,C3,2*%
%TO.N,GND*%
X104350000Y-58200000D03*
%TD*%
D24*
%TO.P,C20,1*%
%TO.N,+3.3V*%
X112978195Y-61544897D03*
%TO.P,C20,2*%
%TO.N,GND*%
X111421805Y-60455103D03*
%TD*%
D25*
%TO.P,Y1,1,EN_1*%
%TO.N,+3.3V*%
X90250000Y-63950000D03*
%TO.P,Y1,2,GND_2*%
%TO.N,GND*%
X90250000Y-66100000D03*
%TO.P,Y1,3,OUT_3*%
%TO.N,/CRYS_OUT*%
X91800000Y-66100000D03*
%TO.P,Y1,4,Vdd_4*%
%TO.N,+3.3V*%
X91800000Y-63950000D03*
%TD*%
D26*
%TO.P,C5,1*%
%TO.N,+3.3V*%
X104150000Y-76800000D03*
%TO.P,C5,2*%
%TO.N,GND*%
X102250000Y-76800000D03*
%TD*%
D10*
%TO.P,C18,1*%
%TO.N,GND*%
X44200000Y-59450000D03*
%TO.P,C18,2*%
%TO.N,+3.3V*%
X44200000Y-57550000D03*
%TD*%
D18*
%TO.P,C2,1*%
%TO.N,+3.3V*%
X158600000Y-57450000D03*
%TO.P,C2,2*%
%TO.N,GND*%
X158600000Y-59350000D03*
%TD*%
D22*
%TO.P,GND1,1,1_1*%
%TO.N,GND*%
X61500000Y-69000000D03*
%TD*%
D27*
%TO.P,J1,SH,SHIELD_SH*%
%TO.N,unconnected-(J1-SHIELD-PadSH)_2*%
X38800000Y-80500000D03*
D28*
%TO.N,unconnected-(J1-SHIELD-PadSH)_1*%
X42980000Y-80500000D03*
D27*
%TO.N,unconnected-(J1-SHIELD-PadSH)_3*%
X38800000Y-71860000D03*
D28*
%TO.N,unconnected-(J1-SHIELD-PadSH)*%
X42980000Y-71860000D03*
%TD*%
D29*
%TO.N,GND*%
X56200000Y-80300000D03*
%TO.N,+3.3V*%
X49400000Y-54600000D03*
X87500000Y-71900000D03*
X125200000Y-59300000D03*
X51400000Y-56600000D03*
X119436200Y-55874500D03*
X75400000Y-68200000D03*
X87300000Y-79500000D03*
%TO.N,GND*%
X153500000Y-64300000D03*
X97600000Y-60800000D03*
X44200000Y-60900000D03*
X157371600Y-59406300D03*
X117000000Y-58800000D03*
X83000000Y-66300000D03*
X95000000Y-73600000D03*
X61500000Y-71500000D03*
X79200000Y-69100000D03*
X80000000Y-79000000D03*
X73800000Y-81000000D03*
X107005200Y-52292700D03*
X113600000Y-63200000D03*
X64900000Y-79600000D03*
X66900000Y-73900000D03*
X47300000Y-52800000D03*
X55900000Y-71700000D03*
X95403600Y-77689797D03*
X95400000Y-75700000D03*
X87900000Y-78300000D03*
X133300000Y-77400000D03*
X104400000Y-56300000D03*
X159500000Y-51700000D03*
X52300000Y-76500000D03*
X65000000Y-77000000D03*
X130700000Y-74900000D03*
X52300000Y-73900000D03*
%TO.N,MIC_WS*%
X130200000Y-58000000D03*
X109903300Y-63578500D03*
X56900000Y-55363400D03*
%TO.N,MIC_SCK*%
X108900000Y-51300000D03*
X42900000Y-51200000D03*
%TO.N,MIC_SD*%
X107100000Y-56400000D03*
X159500000Y-56400000D03*
%TD*%
%TO.N,+3.3V*%
D30*
X87300000Y-79500000D02*
X88100000Y-80300000D01*
X88100000Y-80300000D02*
X90250000Y-80300000D01*
X90250000Y-80300000D02*
X90400000Y-80150000D01*
D31*
X85450000Y-63950000D02*
X85300000Y-63800000D01*
X91800000Y-63950000D02*
X98400000Y-63950000D01*
X111875000Y-63925000D02*
X112978195Y-62821805D01*
X44200000Y-57550000D02*
X44200000Y-55359500D01*
X85800000Y-63950000D02*
X85450000Y-63950000D01*
X90400000Y-80150000D02*
X100800000Y-80150000D01*
X102450000Y-62932400D02*
X102450000Y-62125000D01*
X108600000Y-66300000D02*
X110850000Y-64050000D01*
X101332000Y-64050000D02*
X102450000Y-62932400D01*
D30*
X90712500Y-71900000D02*
X90800000Y-71812500D01*
D31*
X122800000Y-56900000D02*
X120500000Y-56900000D01*
X110850000Y-64050000D02*
X111875000Y-64050000D01*
X49322000Y-54522000D02*
X49400000Y-54600000D01*
X69150000Y-57550000D02*
X75400000Y-63800000D01*
X103450000Y-76100000D02*
X103450000Y-73475000D01*
X44200000Y-57550000D02*
X52350000Y-57550000D01*
X100525000Y-64050000D02*
X101332000Y-64050000D01*
X111875000Y-64050000D02*
X111875000Y-63925000D01*
X109950000Y-73475000D02*
X110325000Y-73850000D01*
X52350000Y-57550000D02*
X69150000Y-57550000D01*
D30*
X75400000Y-63800000D02*
X75400000Y-68200000D01*
D31*
X104150000Y-76800000D02*
X103450000Y-76100000D01*
X108468000Y-66167600D02*
X108600000Y-66300000D01*
X158050000Y-56900000D02*
X120500000Y-56900000D01*
D30*
X87500000Y-71900000D02*
X90712500Y-71900000D01*
D31*
X85300000Y-63800000D02*
X75400000Y-63800000D01*
X108600000Y-66300000D02*
X109950000Y-67650000D01*
X98400000Y-63950000D02*
X99700000Y-62650000D01*
X101332000Y-64050000D02*
X103450000Y-66167600D01*
X108468000Y-66167600D02*
X108600000Y-66300000D01*
X85800000Y-63950000D02*
X91800000Y-63950000D01*
X125200000Y-59300000D02*
X122800000Y-56900000D01*
X45984500Y-54522000D02*
X49322000Y-54522000D01*
X103450000Y-66167600D02*
X108468000Y-66167600D01*
X102450000Y-58200000D02*
X102050000Y-57800000D01*
X109950000Y-67650000D02*
X109950000Y-73475000D01*
X103450000Y-66167600D02*
X108468000Y-66167600D01*
X100525000Y-63475000D02*
X99700000Y-62650000D01*
X112978195Y-62821805D02*
X112978195Y-61544897D01*
X81400000Y-57800000D02*
X75400000Y-63800000D01*
X110325000Y-73850000D02*
X112400000Y-73850000D01*
X102450000Y-62125000D02*
X102450000Y-58200000D01*
X44200000Y-55359500D02*
X44184500Y-55344000D01*
X120500000Y-56900000D02*
X119474500Y-55874500D01*
X51400000Y-56600000D02*
X52350000Y-57550000D01*
X100525000Y-64050000D02*
X100525000Y-63475000D01*
X119474500Y-55874500D02*
X119436200Y-55874500D01*
X102050000Y-57800000D02*
X81400000Y-57800000D01*
X158600000Y-57450000D02*
X158050000Y-56900000D01*
X158600000Y-57450000D02*
X158600000Y-55400000D01*
X100800000Y-80150000D02*
X104150000Y-76800000D01*
%TO.N,GND*%
D30*
X78000000Y-81000000D02*
X80000000Y-79000000D01*
D31*
X85800000Y-66200000D02*
X90150000Y-66200000D01*
X102950000Y-71167600D02*
X108068000Y-71167600D01*
X160400000Y-53066533D02*
X159989467Y-52656000D01*
X97400000Y-69500000D02*
X99800000Y-69500000D01*
X104350000Y-56350000D02*
X104400000Y-56300000D01*
D30*
X130700000Y-74900000D02*
X133200000Y-77400000D01*
D31*
X110050000Y-75800000D02*
X112350000Y-75800000D01*
X95000000Y-71900000D02*
X95000000Y-73600000D01*
X158543700Y-59406300D02*
X158600000Y-59350000D01*
X97650000Y-60750000D02*
X97600000Y-60800000D01*
X157371600Y-59406300D02*
X158543700Y-59406300D01*
X102950000Y-62125000D02*
X102950000Y-59600000D01*
X47100000Y-52600000D02*
X47300000Y-52800000D01*
X112682410Y-64550000D02*
X113600000Y-63632410D01*
X104350000Y-58200000D02*
X104350000Y-56350000D01*
X111875000Y-64550000D02*
X112682410Y-64550000D01*
X95000000Y-71900000D02*
X97400000Y-69500000D01*
X87950000Y-78250000D02*
X90400000Y-78250000D01*
X102950000Y-76100000D02*
X102250000Y-76800000D01*
X111421805Y-60455103D02*
X111421805Y-55308195D01*
X95403600Y-75703600D02*
X95400000Y-75700000D01*
X90150000Y-66200000D02*
X90250000Y-66300000D01*
X100525000Y-69550000D02*
X101332000Y-69550000D01*
X160400000Y-54578000D02*
X160400000Y-53066533D01*
X104450000Y-58300000D02*
X104350000Y-58200000D01*
X87900000Y-78300000D02*
X87950000Y-78250000D01*
X107005200Y-52292700D02*
X107900000Y-53187500D01*
X159515500Y-52656000D02*
X159515500Y-51715500D01*
X109450000Y-72550000D02*
X109450000Y-73475000D01*
X159515500Y-51715500D02*
X159500000Y-51700000D01*
X102950000Y-71167600D02*
X102950000Y-73475000D01*
X44200000Y-59450000D02*
X44200000Y-60900000D01*
X113600000Y-63632410D02*
X113600000Y-63200000D01*
X109450000Y-73475000D02*
X109450000Y-75200000D01*
X104450000Y-62125000D02*
X104450000Y-58300000D01*
X83000000Y-66300000D02*
X90250000Y-66300000D01*
X102950000Y-59600000D02*
X104350000Y-58200000D01*
X112350000Y-75800000D02*
X112400000Y-75750000D01*
X101332000Y-69550000D02*
X102950000Y-71167600D01*
X102950000Y-73475000D02*
X102950000Y-76100000D01*
D30*
X95403600Y-77689797D02*
X95403600Y-75703600D01*
D31*
X117012000Y-56887500D02*
X117012000Y-58787500D01*
X117012000Y-58787500D02*
X117000000Y-58800000D01*
X133200000Y-77400000D02*
X133300000Y-77400000D01*
X97400000Y-69500000D02*
X99800000Y-69500000D01*
X111421805Y-55308195D02*
X113530000Y-53200000D01*
D30*
X73800000Y-81000000D02*
X78000000Y-81000000D01*
D31*
X90250000Y-66300000D02*
X83000000Y-66300000D01*
X61500000Y-69000000D02*
X61500000Y-71500000D01*
X81675000Y-69100000D02*
X79200000Y-69100000D01*
X109450000Y-75200000D02*
X110050000Y-75800000D01*
X108068000Y-71167600D02*
X109450000Y-72550000D01*
X99700000Y-60750000D02*
X97650000Y-60750000D01*
X64900000Y-79600000D02*
X64900000Y-77100000D01*
X45100000Y-52600000D02*
X47100000Y-52600000D01*
X64900000Y-77100000D02*
X65000000Y-77000000D01*
X159989467Y-52656000D02*
X159515500Y-52656000D01*
%TO.N,MIC_WS*%
X159625000Y-57933600D02*
X160400000Y-57158600D01*
X159309744Y-58250000D02*
X159625000Y-57934744D01*
X56880600Y-55344000D02*
X56900000Y-55363400D01*
X109450000Y-63125200D02*
X109450000Y-62125000D01*
X160400000Y-57158600D02*
X160400000Y-55400000D01*
X157890256Y-58250000D02*
X159309744Y-58250000D01*
X159625000Y-57934744D02*
X159625000Y-57933600D01*
X157640256Y-58000000D02*
X157890256Y-58250000D01*
X109903300Y-63578500D02*
X109450000Y-63125200D01*
X45984500Y-55344000D02*
X56880600Y-55344000D01*
X130200000Y-58000000D02*
X157640256Y-58000000D01*
%TO.N,MIC_SCK*%
X158600000Y-54578000D02*
X158278000Y-54578000D01*
X108950000Y-62125000D02*
X108950000Y-51350000D01*
X158278000Y-54578000D02*
X155000000Y-51300000D01*
X42100000Y-53400000D02*
X42100000Y-52000000D01*
X155000000Y-51300000D02*
X108900000Y-51300000D01*
X42100000Y-52000000D02*
X42900000Y-51200000D01*
X43222000Y-54522000D02*
X42100000Y-53400000D01*
X158278000Y-54578000D02*
X155000000Y-51300000D01*
X44184500Y-54522000D02*
X43222000Y-54522000D01*
X108950000Y-51350000D02*
X108900000Y-51300000D01*
X42100000Y-52000000D02*
X42900000Y-51200000D01*
X158600000Y-54578000D02*
X158278000Y-54578000D01*
%TO.N,MIC_SD*%
X59440600Y-55963400D02*
X45567800Y-55963400D01*
X107950000Y-62125000D02*
X107950000Y-55062500D01*
X107100000Y-56400000D02*
X107100000Y-55812500D01*
X45084500Y-55480100D02*
X45084500Y-55344000D01*
X159500000Y-55400000D02*
X159500000Y-56400000D01*
X60391500Y-55012500D02*
X59440600Y-55963400D01*
X45567800Y-55963400D02*
X45084500Y-55480100D01*
X107900000Y-55012500D02*
X60391500Y-55012500D01*
X107950000Y-55062500D02*
X107900000Y-55012500D01*
X107100000Y-55812500D02*
X107900000Y-55012500D01*
%TO.N,+5V*%
X164850000Y-60650000D02*
X165000000Y-60800000D01*
%TO.N,SPI_DIN*%
X115250000Y-70050000D02*
X119420000Y-65880000D01*
X119420000Y-65880000D02*
X165000000Y-65880000D01*
X111875000Y-70050000D02*
X115250000Y-70050000D01*
%TO.N,SPI_CS*%
X116050000Y-70550000D02*
X118200000Y-68400000D01*
X111875000Y-70550000D02*
X116050000Y-70550000D01*
X116050000Y-70550000D02*
X118200000Y-68400000D01*
X118220000Y-68420000D02*
X165000000Y-68420000D01*
X111875000Y-70550000D02*
X116050000Y-70550000D01*
X118200000Y-68400000D02*
X118220000Y-68420000D01*
%TO.N,SPI_CLK*%
X111875000Y-71050000D02*
X164910000Y-71050000D01*
X164910000Y-71050000D02*
X165000000Y-70960000D01*
%TO.N,Net-(U2-VCAP1)*%
X108950000Y-75000000D02*
X108150000Y-75800000D01*
X108950000Y-73475000D02*
X108950000Y-75000000D01*
%TO.N,Net-(U2-NRST)*%
X86125000Y-69100000D02*
X87012500Y-69987500D01*
X94987500Y-69987500D02*
X95000000Y-70000000D01*
X100525000Y-67050000D02*
X97950000Y-67050000D01*
X87012500Y-69987500D02*
X90800000Y-69987500D01*
X97950000Y-67050000D02*
X95000000Y-70000000D01*
X90800000Y-69987500D02*
X94987500Y-69987500D01*
%TO.N,SWDIO*%
X112810000Y-65050000D02*
X118675000Y-59184700D01*
X118675000Y-53265000D02*
X118610000Y-53200000D01*
X118675000Y-59184700D02*
X118675000Y-53265000D01*
X111875000Y-65050000D02*
X112810000Y-65050000D01*
%TO.N,/CRYS_OUT*%
X100475000Y-66100000D02*
X100525000Y-66050000D01*
X91800000Y-66100000D02*
X100475000Y-66100000D01*
%TO.N,SWCLK*%
X115188000Y-56887500D02*
X115188000Y-54082500D01*
X115187500Y-58092269D02*
X111154769Y-62125000D01*
X115188000Y-54082500D02*
X116070000Y-53200000D01*
X111154769Y-62125000D02*
X109950000Y-62125000D01*
X115188000Y-54082500D02*
X116070000Y-53200000D01*
X115187500Y-56887500D02*
X115187500Y-58092269D01*
X115188000Y-56887500D02*
X115188000Y-54082500D01*
%TD*%
M02*
