%TF.GenerationSoftware,KiCad,Pcbnew,9.0.0*%
%TF.CreationDate,2025-08-28T17:52:37+02:00*%
%TF.ProjectId,audioVisualizer_PCB,61756469-6f56-4697-9375-616c697a6572,rev?*%
%TF.SameCoordinates,Original*%
%TF.FileFunction,Drillmap*%
%TF.FilePolarity,Positive*%
%FSLAX45Y45*%
G04 Gerber Fmt 4.5, Leading zero omitted, Abs format (unit mm)*
G04 Created by KiCad (PCBNEW 9.0.0) date 2025-08-28 17:52:37*
%MOMM*%
%LPD*%
G01*
G04 APERTURE LIST*
%ADD10C,0.050000*%
%ADD11C,0.200000*%
G04 APERTURE END LIST*
D10*
X10550000Y-4150000D02*
X17450000Y-4150000D01*
X17450000Y-7200000D01*
X10550000Y-7200000D01*
X10550000Y-4150000D01*
D11*
X10808277Y-7513984D02*
X10808277Y-7313984D01*
X10808277Y-7313984D02*
X10855896Y-7313984D01*
X10855896Y-7313984D02*
X10884467Y-7323508D01*
X10884467Y-7323508D02*
X10903515Y-7342555D01*
X10903515Y-7342555D02*
X10913039Y-7361603D01*
X10913039Y-7361603D02*
X10922563Y-7399698D01*
X10922563Y-7399698D02*
X10922563Y-7428269D01*
X10922563Y-7428269D02*
X10913039Y-7466365D01*
X10913039Y-7466365D02*
X10903515Y-7485412D01*
X10903515Y-7485412D02*
X10884467Y-7504460D01*
X10884467Y-7504460D02*
X10855896Y-7513984D01*
X10855896Y-7513984D02*
X10808277Y-7513984D01*
X11008277Y-7513984D02*
X11008277Y-7380650D01*
X11008277Y-7418746D02*
X11017801Y-7399698D01*
X11017801Y-7399698D02*
X11027324Y-7390174D01*
X11027324Y-7390174D02*
X11046372Y-7380650D01*
X11046372Y-7380650D02*
X11065420Y-7380650D01*
X11132086Y-7513984D02*
X11132086Y-7380650D01*
X11132086Y-7313984D02*
X11122563Y-7323508D01*
X11122563Y-7323508D02*
X11132086Y-7333031D01*
X11132086Y-7333031D02*
X11141610Y-7323508D01*
X11141610Y-7323508D02*
X11132086Y-7313984D01*
X11132086Y-7313984D02*
X11132086Y-7333031D01*
X11255896Y-7513984D02*
X11236848Y-7504460D01*
X11236848Y-7504460D02*
X11227324Y-7485412D01*
X11227324Y-7485412D02*
X11227324Y-7313984D01*
X11360658Y-7513984D02*
X11341610Y-7504460D01*
X11341610Y-7504460D02*
X11332086Y-7485412D01*
X11332086Y-7485412D02*
X11332086Y-7313984D01*
X11589229Y-7513984D02*
X11589229Y-7313984D01*
X11589229Y-7313984D02*
X11655896Y-7456841D01*
X11655896Y-7456841D02*
X11722562Y-7313984D01*
X11722562Y-7313984D02*
X11722562Y-7513984D01*
X11903515Y-7513984D02*
X11903515Y-7409222D01*
X11903515Y-7409222D02*
X11893991Y-7390174D01*
X11893991Y-7390174D02*
X11874943Y-7380650D01*
X11874943Y-7380650D02*
X11836848Y-7380650D01*
X11836848Y-7380650D02*
X11817801Y-7390174D01*
X11903515Y-7504460D02*
X11884467Y-7513984D01*
X11884467Y-7513984D02*
X11836848Y-7513984D01*
X11836848Y-7513984D02*
X11817801Y-7504460D01*
X11817801Y-7504460D02*
X11808277Y-7485412D01*
X11808277Y-7485412D02*
X11808277Y-7466365D01*
X11808277Y-7466365D02*
X11817801Y-7447317D01*
X11817801Y-7447317D02*
X11836848Y-7437793D01*
X11836848Y-7437793D02*
X11884467Y-7437793D01*
X11884467Y-7437793D02*
X11903515Y-7428269D01*
X11998753Y-7380650D02*
X11998753Y-7580650D01*
X11998753Y-7390174D02*
X12017801Y-7380650D01*
X12017801Y-7380650D02*
X12055896Y-7380650D01*
X12055896Y-7380650D02*
X12074943Y-7390174D01*
X12074943Y-7390174D02*
X12084467Y-7399698D01*
X12084467Y-7399698D02*
X12093991Y-7418746D01*
X12093991Y-7418746D02*
X12093991Y-7475888D01*
X12093991Y-7475888D02*
X12084467Y-7494936D01*
X12084467Y-7494936D02*
X12074943Y-7504460D01*
X12074943Y-7504460D02*
X12055896Y-7513984D01*
X12055896Y-7513984D02*
X12017801Y-7513984D01*
X12017801Y-7513984D02*
X11998753Y-7504460D01*
X12179705Y-7494936D02*
X12189229Y-7504460D01*
X12189229Y-7504460D02*
X12179705Y-7513984D01*
X12179705Y-7513984D02*
X12170182Y-7504460D01*
X12170182Y-7504460D02*
X12179705Y-7494936D01*
X12179705Y-7494936D02*
X12179705Y-7513984D01*
X12179705Y-7390174D02*
X12189229Y-7399698D01*
X12189229Y-7399698D02*
X12179705Y-7409222D01*
X12179705Y-7409222D02*
X12170182Y-7399698D01*
X12170182Y-7399698D02*
X12179705Y-7390174D01*
X12179705Y-7390174D02*
X12179705Y-7409222D01*
M02*
