%TF.GenerationSoftware,KiCad,Pcbnew,10.0.4*%
%TF.CreationDate,2026-06-24T14:37:47+02:00*%
%TF.ProjectId,audioVisualizer_PCB,61756469-6f56-4697-9375-616c697a6572,rev?*%
%TF.SameCoordinates,Original*%
%TF.FileFunction,Paste,Top*%
%TF.FilePolarity,Positive*%
%FSLAX46Y46*%
G04 Gerber Fmt 4.6, Leading zero omitted, Abs format (unit mm)*
G04 Created by KiCad (PCBNEW 10.0.4) date 2026-06-24 14:37:47*
%MOMM*%
%LPD*%
G01*
G04 APERTURE LIST*
G04 Aperture macros list*
%AMRoundRect*
0 Rectangle with rounded corners*
0 $1 Rounding radius*
0 $2 $3 $4 $5 $6 $7 $8 $9 X,Y pos of 4 corners*
0 Add a 4 corners polygon primitive as box body*
4,1,4,$2,$3,$4,$5,$6,$7,$8,$9,$2,$3,0*
0 Add four circle primitives for the rounded corners*
1,1,$1+$1,$2,$3*
1,1,$1+$1,$4,$5*
1,1,$1+$1,$6,$7*
1,1,$1+$1,$8,$9*
0 Add four rect primitives between the rounded corners*
20,1,$1+$1,$2,$3,$4,$5,0*
20,1,$1+$1,$4,$5,$6,$7,0*
20,1,$1+$1,$6,$7,$8,$9,0*
20,1,$1+$1,$8,$9,$2,$3,0*%
G04 Aperture macros list end*
%ADD10C,0.001000*%
%ADD11RoundRect,0.250000X0.250000X0.475000X-0.250000X0.475000X-0.250000X-0.475000X0.250000X-0.475000X0*%
%ADD12RoundRect,0.250000X-0.475000X0.250000X-0.475000X-0.250000X0.475000X-0.250000X0.475000X0.250000X0*%
%ADD13RoundRect,0.250000X0.475000X-0.250000X0.475000X0.250000X-0.475000X0.250000X-0.475000X-0.250000X0*%
%ADD14RoundRect,0.250000X-0.250000X-0.475000X0.250000X-0.475000X0.250000X0.475000X-0.250000X0.475000X0*%
%ADD15RoundRect,0.250000X-0.262500X-0.450000X0.262500X-0.450000X0.262500X0.450000X-0.262500X0.450000X0*%
%ADD16RoundRect,0.250000X0.262500X0.450000X-0.262500X0.450000X-0.262500X-0.450000X0.262500X-0.450000X0*%
%ADD17RoundRect,0.243750X0.456250X-0.243750X0.456250X0.243750X-0.456250X0.243750X-0.456250X-0.243750X0*%
%ADD18RoundRect,0.250000X-0.315000X-0.315000X0.315000X-0.315000X0.315000X0.315000X-0.315000X0.315000X0*%
%ADD19RoundRect,0.062500X-0.375000X-0.062500X0.375000X-0.062500X0.375000X0.062500X-0.375000X0.062500X0*%
%ADD20RoundRect,0.062500X-0.062500X-0.375000X0.062500X-0.375000X0.062500X0.375000X-0.062500X0.375000X0*%
%ADD21R,0.900000X1.000000*%
G04 APERTURE END LIST*
D10*
%TO.C,MK-L1*%
X43934500Y-54733000D02*
X43934500Y-54311000D01*
X44434500Y-54311000D01*
X44434500Y-54733000D01*
X43934500Y-54733000D01*
G36*
X44434500Y-54733000D02*
G01*
X43934500Y-54733000D01*
X43934500Y-54311000D01*
X44434500Y-54311000D01*
X44434500Y-54733000D01*
G37*
X43934500Y-55555000D02*
X43934500Y-55133000D01*
X44434500Y-55133000D01*
X44434500Y-55555000D01*
X43934500Y-55555000D01*
G36*
X44434500Y-55555000D02*
G01*
X43934500Y-55555000D01*
X43934500Y-55133000D01*
X44434500Y-55133000D01*
X44434500Y-55555000D01*
G37*
X44834500Y-55555000D02*
X44834500Y-55133000D01*
X45334500Y-55133000D01*
X45334500Y-55555000D01*
X44834500Y-55555000D01*
G36*
X45334500Y-55555000D02*
G01*
X44834500Y-55555000D01*
X44834500Y-55133000D01*
X45334500Y-55133000D01*
X45334500Y-55555000D01*
G37*
X45734500Y-54733000D02*
X45734500Y-54311000D01*
X46234500Y-54311000D01*
X46234500Y-54733000D01*
X45734500Y-54733000D01*
G36*
X46234500Y-54733000D02*
G01*
X45734500Y-54733000D01*
X45734500Y-54311000D01*
X46234500Y-54311000D01*
X46234500Y-54733000D01*
G37*
X45734500Y-55555000D02*
X45734500Y-55133000D01*
X46234500Y-55133000D01*
X46234500Y-55555000D01*
X45734500Y-55555000D01*
G36*
X46234500Y-55555000D02*
G01*
X45734500Y-55555000D01*
X45734500Y-55133000D01*
X46234500Y-55133000D01*
X46234500Y-55555000D01*
G37*
X44574500Y-53320000D02*
X44274500Y-53320000D01*
X44277500Y-53359000D01*
X44282500Y-53397000D01*
X44289500Y-53436000D01*
X44297500Y-53474000D01*
X44308500Y-53512000D01*
X44320500Y-53550000D01*
X44335500Y-53586000D01*
X44351500Y-53622000D01*
X44368500Y-53657000D01*
X44388500Y-53691000D01*
X44409500Y-53724000D01*
X44431500Y-53757000D01*
X44456500Y-53788000D01*
X44481500Y-53817000D01*
X44508500Y-53846000D01*
X44537500Y-53873000D01*
X44566500Y-53898000D01*
X44597500Y-53923000D01*
X44630500Y-53945000D01*
X44663500Y-53966000D01*
X44697500Y-53986000D01*
X44732500Y-54003000D01*
X44768500Y-54019000D01*
X44804500Y-54034000D01*
X44842500Y-54046000D01*
X44880500Y-54057000D01*
X44918500Y-54065000D01*
X44957500Y-54072000D01*
X44995500Y-54077000D01*
X45034500Y-54080000D01*
X45034500Y-53780000D01*
X45013500Y-53778000D01*
X44989500Y-53774000D01*
X44966500Y-53769000D01*
X44943500Y-53763000D01*
X44921500Y-53756000D01*
X44898500Y-53748000D01*
X44876500Y-53739000D01*
X44855500Y-53729000D01*
X44834500Y-53718000D01*
X44814500Y-53706000D01*
X44794500Y-53693000D01*
X44774500Y-53680000D01*
X44756500Y-53665000D01*
X44738500Y-53649000D01*
X44721500Y-53633000D01*
X44705500Y-53616000D01*
X44689500Y-53598000D01*
X44674500Y-53580000D01*
X44661500Y-53560000D01*
X44648500Y-53540000D01*
X44636500Y-53520000D01*
X44625500Y-53499000D01*
X44615500Y-53478000D01*
X44606500Y-53456000D01*
X44598500Y-53433000D01*
X44591500Y-53411000D01*
X44585500Y-53388000D01*
X44580500Y-53365000D01*
X44576500Y-53341000D01*
X44574500Y-53320000D01*
G36*
X44576500Y-53341000D02*
G01*
X44580500Y-53365000D01*
X44585500Y-53388000D01*
X44591500Y-53411000D01*
X44598500Y-53433000D01*
X44606500Y-53456000D01*
X44615500Y-53478000D01*
X44625500Y-53499000D01*
X44636500Y-53520000D01*
X44648500Y-53540000D01*
X44661500Y-53560000D01*
X44674500Y-53580000D01*
X44689500Y-53598000D01*
X44705500Y-53616000D01*
X44721500Y-53633000D01*
X44738500Y-53649000D01*
X44756500Y-53665000D01*
X44774500Y-53680000D01*
X44794500Y-53693000D01*
X44814500Y-53706000D01*
X44834500Y-53718000D01*
X44855500Y-53729000D01*
X44876500Y-53739000D01*
X44898500Y-53748000D01*
X44921500Y-53756000D01*
X44943500Y-53763000D01*
X44966500Y-53769000D01*
X44989500Y-53774000D01*
X45013500Y-53778000D01*
X45034500Y-53780000D01*
X45034500Y-54080000D01*
X44995500Y-54077000D01*
X44957500Y-54072000D01*
X44918500Y-54065000D01*
X44880500Y-54057000D01*
X44842500Y-54046000D01*
X44804500Y-54034000D01*
X44768500Y-54019000D01*
X44732500Y-54003000D01*
X44697500Y-53986000D01*
X44663500Y-53966000D01*
X44630500Y-53945000D01*
X44597500Y-53923000D01*
X44566500Y-53898000D01*
X44537500Y-53873000D01*
X44508500Y-53846000D01*
X44481500Y-53817000D01*
X44456500Y-53788000D01*
X44431500Y-53757000D01*
X44409500Y-53724000D01*
X44388500Y-53691000D01*
X44368500Y-53657000D01*
X44351500Y-53622000D01*
X44335500Y-53586000D01*
X44320500Y-53550000D01*
X44308500Y-53512000D01*
X44297500Y-53474000D01*
X44289500Y-53436000D01*
X44282500Y-53397000D01*
X44277500Y-53359000D01*
X44274500Y-53320000D01*
X44574500Y-53320000D01*
X44576500Y-53341000D01*
G37*
X45034500Y-52760000D02*
X45034500Y-52460000D01*
X44995500Y-52463000D01*
X44957500Y-52468000D01*
X44918500Y-52475000D01*
X44880500Y-52483000D01*
X44842500Y-52494000D01*
X44804500Y-52506000D01*
X44768500Y-52521000D01*
X44732500Y-52537000D01*
X44697500Y-52554000D01*
X44663500Y-52574000D01*
X44630500Y-52595000D01*
X44597500Y-52617000D01*
X44566500Y-52642000D01*
X44537500Y-52667000D01*
X44508500Y-52694000D01*
X44481500Y-52723000D01*
X44456500Y-52752000D01*
X44431500Y-52783000D01*
X44409500Y-52816000D01*
X44388500Y-52849000D01*
X44368500Y-52883000D01*
X44351500Y-52918000D01*
X44335500Y-52954000D01*
X44320500Y-52990000D01*
X44308500Y-53028000D01*
X44297500Y-53066000D01*
X44289500Y-53104000D01*
X44282500Y-53143000D01*
X44277500Y-53181000D01*
X44274500Y-53220000D01*
X44574500Y-53220000D01*
X44576500Y-53199000D01*
X44580500Y-53175000D01*
X44585500Y-53152000D01*
X44591500Y-53129000D01*
X44598500Y-53107000D01*
X44606500Y-53084000D01*
X44615500Y-53062000D01*
X44625500Y-53041000D01*
X44636500Y-53020000D01*
X44648500Y-53000000D01*
X44661500Y-52980000D01*
X44674500Y-52960000D01*
X44689500Y-52942000D01*
X44705500Y-52924000D01*
X44721500Y-52907000D01*
X44738500Y-52891000D01*
X44756500Y-52875000D01*
X44774500Y-52860000D01*
X44794500Y-52847000D01*
X44814500Y-52834000D01*
X44834500Y-52822000D01*
X44855500Y-52811000D01*
X44876500Y-52801000D01*
X44898500Y-52792000D01*
X44921500Y-52784000D01*
X44943500Y-52777000D01*
X44966500Y-52771000D01*
X44989500Y-52766000D01*
X45013500Y-52762000D01*
X45034500Y-52760000D01*
G36*
X45034500Y-52760000D02*
G01*
X45013500Y-52762000D01*
X44989500Y-52766000D01*
X44966500Y-52771000D01*
X44943500Y-52777000D01*
X44921500Y-52784000D01*
X44898500Y-52792000D01*
X44876500Y-52801000D01*
X44855500Y-52811000D01*
X44834500Y-52822000D01*
X44814500Y-52834000D01*
X44794500Y-52847000D01*
X44774500Y-52860000D01*
X44756500Y-52875000D01*
X44738500Y-52891000D01*
X44721500Y-52907000D01*
X44705500Y-52924000D01*
X44689500Y-52942000D01*
X44674500Y-52960000D01*
X44661500Y-52980000D01*
X44648500Y-53000000D01*
X44636500Y-53020000D01*
X44625500Y-53041000D01*
X44615500Y-53062000D01*
X44606500Y-53084000D01*
X44598500Y-53107000D01*
X44591500Y-53129000D01*
X44585500Y-53152000D01*
X44580500Y-53175000D01*
X44576500Y-53199000D01*
X44574500Y-53220000D01*
X44274500Y-53220000D01*
X44277500Y-53181000D01*
X44282500Y-53143000D01*
X44289500Y-53104000D01*
X44297500Y-53066000D01*
X44308500Y-53028000D01*
X44320500Y-52990000D01*
X44335500Y-52954000D01*
X44351500Y-52918000D01*
X44368500Y-52883000D01*
X44388500Y-52849000D01*
X44409500Y-52816000D01*
X44431500Y-52783000D01*
X44456500Y-52752000D01*
X44481500Y-52723000D01*
X44508500Y-52694000D01*
X44537500Y-52667000D01*
X44566500Y-52642000D01*
X44597500Y-52617000D01*
X44630500Y-52595000D01*
X44663500Y-52574000D01*
X44697500Y-52554000D01*
X44732500Y-52537000D01*
X44768500Y-52521000D01*
X44804500Y-52506000D01*
X44842500Y-52494000D01*
X44880500Y-52483000D01*
X44918500Y-52475000D01*
X44957500Y-52468000D01*
X44995500Y-52463000D01*
X45034500Y-52460000D01*
X45034500Y-52760000D01*
G37*
X45134500Y-53780000D02*
X45134500Y-54080000D01*
X45173500Y-54077000D01*
X45211500Y-54072000D01*
X45250500Y-54065000D01*
X45288500Y-54057000D01*
X45326500Y-54046000D01*
X45364500Y-54034000D01*
X45400500Y-54019000D01*
X45436500Y-54003000D01*
X45471500Y-53986000D01*
X45505500Y-53966000D01*
X45538500Y-53945000D01*
X45571500Y-53923000D01*
X45602500Y-53898000D01*
X45631500Y-53873000D01*
X45660500Y-53846000D01*
X45687500Y-53817000D01*
X45712500Y-53788000D01*
X45737500Y-53757000D01*
X45759500Y-53724000D01*
X45780500Y-53691000D01*
X45800500Y-53657000D01*
X45817500Y-53622000D01*
X45833500Y-53586000D01*
X45848500Y-53550000D01*
X45860500Y-53512000D01*
X45871500Y-53474000D01*
X45879500Y-53436000D01*
X45886500Y-53397000D01*
X45891500Y-53359000D01*
X45894500Y-53320000D01*
X45594500Y-53320000D01*
X45592500Y-53341000D01*
X45588500Y-53365000D01*
X45583500Y-53388000D01*
X45577500Y-53411000D01*
X45570500Y-53433000D01*
X45562500Y-53456000D01*
X45553500Y-53478000D01*
X45543500Y-53499000D01*
X45532500Y-53520000D01*
X45520500Y-53540000D01*
X45507500Y-53560000D01*
X45494500Y-53580000D01*
X45479500Y-53598000D01*
X45463500Y-53616000D01*
X45447500Y-53633000D01*
X45430500Y-53649000D01*
X45412500Y-53665000D01*
X45394500Y-53680000D01*
X45374500Y-53693000D01*
X45354500Y-53706000D01*
X45334500Y-53718000D01*
X45313500Y-53729000D01*
X45292500Y-53739000D01*
X45270500Y-53748000D01*
X45247500Y-53756000D01*
X45225500Y-53763000D01*
X45202500Y-53769000D01*
X45179500Y-53774000D01*
X45155500Y-53778000D01*
X45134500Y-53780000D01*
G36*
X45891500Y-53359000D02*
G01*
X45886500Y-53397000D01*
X45879500Y-53436000D01*
X45871500Y-53474000D01*
X45860500Y-53512000D01*
X45848500Y-53550000D01*
X45833500Y-53586000D01*
X45817500Y-53622000D01*
X45800500Y-53657000D01*
X45780500Y-53691000D01*
X45759500Y-53724000D01*
X45737500Y-53757000D01*
X45712500Y-53788000D01*
X45687500Y-53817000D01*
X45660500Y-53846000D01*
X45631500Y-53873000D01*
X45602500Y-53898000D01*
X45571500Y-53923000D01*
X45538500Y-53945000D01*
X45505500Y-53966000D01*
X45471500Y-53986000D01*
X45436500Y-54003000D01*
X45400500Y-54019000D01*
X45364500Y-54034000D01*
X45326500Y-54046000D01*
X45288500Y-54057000D01*
X45250500Y-54065000D01*
X45211500Y-54072000D01*
X45173500Y-54077000D01*
X45134500Y-54080000D01*
X45134500Y-53780000D01*
X45155500Y-53778000D01*
X45179500Y-53774000D01*
X45202500Y-53769000D01*
X45225500Y-53763000D01*
X45247500Y-53756000D01*
X45270500Y-53748000D01*
X45292500Y-53739000D01*
X45313500Y-53729000D01*
X45334500Y-53718000D01*
X45354500Y-53706000D01*
X45374500Y-53693000D01*
X45394500Y-53680000D01*
X45412500Y-53665000D01*
X45430500Y-53649000D01*
X45447500Y-53633000D01*
X45463500Y-53616000D01*
X45479500Y-53598000D01*
X45494500Y-53580000D01*
X45507500Y-53560000D01*
X45520500Y-53540000D01*
X45532500Y-53520000D01*
X45543500Y-53499000D01*
X45553500Y-53478000D01*
X45562500Y-53456000D01*
X45570500Y-53433000D01*
X45577500Y-53411000D01*
X45583500Y-53388000D01*
X45588500Y-53365000D01*
X45592500Y-53341000D01*
X45594500Y-53320000D01*
X45894500Y-53320000D01*
X45891500Y-53359000D01*
G37*
X45594500Y-53220000D02*
X45894500Y-53220000D01*
X45891500Y-53181000D01*
X45886500Y-53143000D01*
X45879500Y-53104000D01*
X45871500Y-53066000D01*
X45860500Y-53028000D01*
X45848500Y-52990000D01*
X45833500Y-52954000D01*
X45817500Y-52918000D01*
X45800500Y-52883000D01*
X45780500Y-52849000D01*
X45759500Y-52816000D01*
X45737500Y-52783000D01*
X45712500Y-52752000D01*
X45687500Y-52723000D01*
X45660500Y-52694000D01*
X45631500Y-52667000D01*
X45602500Y-52642000D01*
X45571500Y-52617000D01*
X45538500Y-52595000D01*
X45505500Y-52574000D01*
X45471500Y-52554000D01*
X45436500Y-52537000D01*
X45400500Y-52521000D01*
X45364500Y-52506000D01*
X45326500Y-52494000D01*
X45288500Y-52483000D01*
X45250500Y-52475000D01*
X45211500Y-52468000D01*
X45173500Y-52463000D01*
X45134500Y-52460000D01*
X45134500Y-52760000D01*
X45155500Y-52762000D01*
X45179500Y-52766000D01*
X45202500Y-52771000D01*
X45225500Y-52777000D01*
X45247500Y-52784000D01*
X45270500Y-52792000D01*
X45292500Y-52801000D01*
X45313500Y-52811000D01*
X45334500Y-52822000D01*
X45354500Y-52834000D01*
X45374500Y-52847000D01*
X45394500Y-52860000D01*
X45412500Y-52875000D01*
X45430500Y-52891000D01*
X45447500Y-52907000D01*
X45463500Y-52924000D01*
X45479500Y-52942000D01*
X45494500Y-52960000D01*
X45507500Y-52980000D01*
X45520500Y-53000000D01*
X45532500Y-53020000D01*
X45543500Y-53041000D01*
X45553500Y-53062000D01*
X45562500Y-53084000D01*
X45570500Y-53107000D01*
X45577500Y-53129000D01*
X45583500Y-53152000D01*
X45588500Y-53175000D01*
X45592500Y-53199000D01*
X45594500Y-53220000D01*
G36*
X45173500Y-52463000D02*
G01*
X45211500Y-52468000D01*
X45250500Y-52475000D01*
X45288500Y-52483000D01*
X45326500Y-52494000D01*
X45364500Y-52506000D01*
X45400500Y-52521000D01*
X45436500Y-52537000D01*
X45471500Y-52554000D01*
X45505500Y-52574000D01*
X45538500Y-52595000D01*
X45571500Y-52617000D01*
X45602500Y-52642000D01*
X45631500Y-52667000D01*
X45660500Y-52694000D01*
X45687500Y-52723000D01*
X45712500Y-52752000D01*
X45737500Y-52783000D01*
X45759500Y-52816000D01*
X45780500Y-52849000D01*
X45800500Y-52883000D01*
X45817500Y-52918000D01*
X45833500Y-52954000D01*
X45848500Y-52990000D01*
X45860500Y-53028000D01*
X45871500Y-53066000D01*
X45879500Y-53104000D01*
X45886500Y-53143000D01*
X45891500Y-53181000D01*
X45894500Y-53220000D01*
X45594500Y-53220000D01*
X45592500Y-53199000D01*
X45588500Y-53175000D01*
X45583500Y-53152000D01*
X45577500Y-53129000D01*
X45570500Y-53107000D01*
X45562500Y-53084000D01*
X45553500Y-53062000D01*
X45543500Y-53041000D01*
X45532500Y-53020000D01*
X45520500Y-53000000D01*
X45507500Y-52980000D01*
X45494500Y-52960000D01*
X45479500Y-52942000D01*
X45463500Y-52924000D01*
X45447500Y-52907000D01*
X45430500Y-52891000D01*
X45412500Y-52875000D01*
X45394500Y-52860000D01*
X45374500Y-52847000D01*
X45354500Y-52834000D01*
X45334500Y-52822000D01*
X45313500Y-52811000D01*
X45292500Y-52801000D01*
X45270500Y-52792000D01*
X45247500Y-52784000D01*
X45225500Y-52777000D01*
X45202500Y-52771000D01*
X45179500Y-52766000D01*
X45155500Y-52762000D01*
X45134500Y-52760000D01*
X45134500Y-52460000D01*
X45173500Y-52463000D01*
G37*
%TO.C,MK-R1*%
X158350000Y-54789000D02*
X158350000Y-54367000D01*
X158850000Y-54367000D01*
X158850000Y-54789000D01*
X158350000Y-54789000D01*
G36*
X158850000Y-54789000D02*
G01*
X158350000Y-54789000D01*
X158350000Y-54367000D01*
X158850000Y-54367000D01*
X158850000Y-54789000D01*
G37*
X158350000Y-55611000D02*
X158350000Y-55189000D01*
X158850000Y-55189000D01*
X158850000Y-55611000D01*
X158350000Y-55611000D01*
G36*
X158850000Y-55611000D02*
G01*
X158350000Y-55611000D01*
X158350000Y-55189000D01*
X158850000Y-55189000D01*
X158850000Y-55611000D01*
G37*
X159250000Y-55611000D02*
X159250000Y-55189000D01*
X159750000Y-55189000D01*
X159750000Y-55611000D01*
X159250000Y-55611000D01*
G36*
X159750000Y-55611000D02*
G01*
X159250000Y-55611000D01*
X159250000Y-55189000D01*
X159750000Y-55189000D01*
X159750000Y-55611000D01*
G37*
X160150000Y-54789000D02*
X160150000Y-54367000D01*
X160650000Y-54367000D01*
X160650000Y-54789000D01*
X160150000Y-54789000D01*
G36*
X160650000Y-54789000D02*
G01*
X160150000Y-54789000D01*
X160150000Y-54367000D01*
X160650000Y-54367000D01*
X160650000Y-54789000D01*
G37*
X160150000Y-55611000D02*
X160150000Y-55189000D01*
X160650000Y-55189000D01*
X160650000Y-55611000D01*
X160150000Y-55611000D01*
G36*
X160650000Y-55611000D02*
G01*
X160150000Y-55611000D01*
X160150000Y-55189000D01*
X160650000Y-55189000D01*
X160650000Y-55611000D01*
G37*
X158990000Y-53376000D02*
X158690000Y-53376000D01*
X158693000Y-53415000D01*
X158698000Y-53453000D01*
X158705000Y-53492000D01*
X158713000Y-53530000D01*
X158724000Y-53568000D01*
X158736000Y-53606000D01*
X158751000Y-53642000D01*
X158767000Y-53678000D01*
X158784000Y-53713000D01*
X158804000Y-53747000D01*
X158825000Y-53780000D01*
X158847000Y-53813000D01*
X158872000Y-53844000D01*
X158897000Y-53873000D01*
X158924000Y-53902000D01*
X158953000Y-53929000D01*
X158982000Y-53954000D01*
X159013000Y-53979000D01*
X159046000Y-54001000D01*
X159079000Y-54022000D01*
X159113000Y-54042000D01*
X159148000Y-54059000D01*
X159184000Y-54075000D01*
X159220000Y-54090000D01*
X159258000Y-54102000D01*
X159296000Y-54113000D01*
X159334000Y-54121000D01*
X159373000Y-54128000D01*
X159411000Y-54133000D01*
X159450000Y-54136000D01*
X159450000Y-53836000D01*
X159429000Y-53834000D01*
X159405000Y-53830000D01*
X159382000Y-53825000D01*
X159359000Y-53819000D01*
X159337000Y-53812000D01*
X159314000Y-53804000D01*
X159292000Y-53795000D01*
X159271000Y-53785000D01*
X159250000Y-53774000D01*
X159230000Y-53762000D01*
X159210000Y-53749000D01*
X159190000Y-53736000D01*
X159172000Y-53721000D01*
X159154000Y-53705000D01*
X159137000Y-53689000D01*
X159121000Y-53672000D01*
X159105000Y-53654000D01*
X159090000Y-53636000D01*
X159077000Y-53616000D01*
X159064000Y-53596000D01*
X159052000Y-53576000D01*
X159041000Y-53555000D01*
X159031000Y-53534000D01*
X159022000Y-53512000D01*
X159014000Y-53489000D01*
X159007000Y-53467000D01*
X159001000Y-53444000D01*
X158996000Y-53421000D01*
X158992000Y-53397000D01*
X158990000Y-53376000D01*
G36*
X158992000Y-53397000D02*
G01*
X158996000Y-53421000D01*
X159001000Y-53444000D01*
X159007000Y-53467000D01*
X159014000Y-53489000D01*
X159022000Y-53512000D01*
X159031000Y-53534000D01*
X159041000Y-53555000D01*
X159052000Y-53576000D01*
X159064000Y-53596000D01*
X159077000Y-53616000D01*
X159090000Y-53636000D01*
X159105000Y-53654000D01*
X159121000Y-53672000D01*
X159137000Y-53689000D01*
X159154000Y-53705000D01*
X159172000Y-53721000D01*
X159190000Y-53736000D01*
X159210000Y-53749000D01*
X159230000Y-53762000D01*
X159250000Y-53774000D01*
X159271000Y-53785000D01*
X159292000Y-53795000D01*
X159314000Y-53804000D01*
X159337000Y-53812000D01*
X159359000Y-53819000D01*
X159382000Y-53825000D01*
X159405000Y-53830000D01*
X159429000Y-53834000D01*
X159450000Y-53836000D01*
X159450000Y-54136000D01*
X159411000Y-54133000D01*
X159373000Y-54128000D01*
X159334000Y-54121000D01*
X159296000Y-54113000D01*
X159258000Y-54102000D01*
X159220000Y-54090000D01*
X159184000Y-54075000D01*
X159148000Y-54059000D01*
X159113000Y-54042000D01*
X159079000Y-54022000D01*
X159046000Y-54001000D01*
X159013000Y-53979000D01*
X158982000Y-53954000D01*
X158953000Y-53929000D01*
X158924000Y-53902000D01*
X158897000Y-53873000D01*
X158872000Y-53844000D01*
X158847000Y-53813000D01*
X158825000Y-53780000D01*
X158804000Y-53747000D01*
X158784000Y-53713000D01*
X158767000Y-53678000D01*
X158751000Y-53642000D01*
X158736000Y-53606000D01*
X158724000Y-53568000D01*
X158713000Y-53530000D01*
X158705000Y-53492000D01*
X158698000Y-53453000D01*
X158693000Y-53415000D01*
X158690000Y-53376000D01*
X158990000Y-53376000D01*
X158992000Y-53397000D01*
G37*
X159450000Y-52816000D02*
X159450000Y-52516000D01*
X159411000Y-52519000D01*
X159373000Y-52524000D01*
X159334000Y-52531000D01*
X159296000Y-52539000D01*
X159258000Y-52550000D01*
X159220000Y-52562000D01*
X159184000Y-52577000D01*
X159148000Y-52593000D01*
X159113000Y-52610000D01*
X159079000Y-52630000D01*
X159046000Y-52651000D01*
X159013000Y-52673000D01*
X158982000Y-52698000D01*
X158953000Y-52723000D01*
X158924000Y-52750000D01*
X158897000Y-52779000D01*
X158872000Y-52808000D01*
X158847000Y-52839000D01*
X158825000Y-52872000D01*
X158804000Y-52905000D01*
X158784000Y-52939000D01*
X158767000Y-52974000D01*
X158751000Y-53010000D01*
X158736000Y-53046000D01*
X158724000Y-53084000D01*
X158713000Y-53122000D01*
X158705000Y-53160000D01*
X158698000Y-53199000D01*
X158693000Y-53237000D01*
X158690000Y-53276000D01*
X158990000Y-53276000D01*
X158992000Y-53255000D01*
X158996000Y-53231000D01*
X159001000Y-53208000D01*
X159007000Y-53185000D01*
X159014000Y-53163000D01*
X159022000Y-53140000D01*
X159031000Y-53118000D01*
X159041000Y-53097000D01*
X159052000Y-53076000D01*
X159064000Y-53056000D01*
X159077000Y-53036000D01*
X159090000Y-53016000D01*
X159105000Y-52998000D01*
X159121000Y-52980000D01*
X159137000Y-52963000D01*
X159154000Y-52947000D01*
X159172000Y-52931000D01*
X159190000Y-52916000D01*
X159210000Y-52903000D01*
X159230000Y-52890000D01*
X159250000Y-52878000D01*
X159271000Y-52867000D01*
X159292000Y-52857000D01*
X159314000Y-52848000D01*
X159337000Y-52840000D01*
X159359000Y-52833000D01*
X159382000Y-52827000D01*
X159405000Y-52822000D01*
X159429000Y-52818000D01*
X159450000Y-52816000D01*
G36*
X159450000Y-52816000D02*
G01*
X159429000Y-52818000D01*
X159405000Y-52822000D01*
X159382000Y-52827000D01*
X159359000Y-52833000D01*
X159337000Y-52840000D01*
X159314000Y-52848000D01*
X159292000Y-52857000D01*
X159271000Y-52867000D01*
X159250000Y-52878000D01*
X159230000Y-52890000D01*
X159210000Y-52903000D01*
X159190000Y-52916000D01*
X159172000Y-52931000D01*
X159154000Y-52947000D01*
X159137000Y-52963000D01*
X159121000Y-52980000D01*
X159105000Y-52998000D01*
X159090000Y-53016000D01*
X159077000Y-53036000D01*
X159064000Y-53056000D01*
X159052000Y-53076000D01*
X159041000Y-53097000D01*
X159031000Y-53118000D01*
X159022000Y-53140000D01*
X159014000Y-53163000D01*
X159007000Y-53185000D01*
X159001000Y-53208000D01*
X158996000Y-53231000D01*
X158992000Y-53255000D01*
X158990000Y-53276000D01*
X158690000Y-53276000D01*
X158693000Y-53237000D01*
X158698000Y-53199000D01*
X158705000Y-53160000D01*
X158713000Y-53122000D01*
X158724000Y-53084000D01*
X158736000Y-53046000D01*
X158751000Y-53010000D01*
X158767000Y-52974000D01*
X158784000Y-52939000D01*
X158804000Y-52905000D01*
X158825000Y-52872000D01*
X158847000Y-52839000D01*
X158872000Y-52808000D01*
X158897000Y-52779000D01*
X158924000Y-52750000D01*
X158953000Y-52723000D01*
X158982000Y-52698000D01*
X159013000Y-52673000D01*
X159046000Y-52651000D01*
X159079000Y-52630000D01*
X159113000Y-52610000D01*
X159148000Y-52593000D01*
X159184000Y-52577000D01*
X159220000Y-52562000D01*
X159258000Y-52550000D01*
X159296000Y-52539000D01*
X159334000Y-52531000D01*
X159373000Y-52524000D01*
X159411000Y-52519000D01*
X159450000Y-52516000D01*
X159450000Y-52816000D01*
G37*
X159550000Y-53836000D02*
X159550000Y-54136000D01*
X159589000Y-54133000D01*
X159627000Y-54128000D01*
X159666000Y-54121000D01*
X159704000Y-54113000D01*
X159742000Y-54102000D01*
X159780000Y-54090000D01*
X159816000Y-54075000D01*
X159852000Y-54059000D01*
X159887000Y-54042000D01*
X159921000Y-54022000D01*
X159954000Y-54001000D01*
X159987000Y-53979000D01*
X160018000Y-53954000D01*
X160047000Y-53929000D01*
X160076000Y-53902000D01*
X160103000Y-53873000D01*
X160128000Y-53844000D01*
X160153000Y-53813000D01*
X160175000Y-53780000D01*
X160196000Y-53747000D01*
X160216000Y-53713000D01*
X160233000Y-53678000D01*
X160249000Y-53642000D01*
X160264000Y-53606000D01*
X160276000Y-53568000D01*
X160287000Y-53530000D01*
X160295000Y-53492000D01*
X160302000Y-53453000D01*
X160307000Y-53415000D01*
X160310000Y-53376000D01*
X160010000Y-53376000D01*
X160008000Y-53397000D01*
X160004000Y-53421000D01*
X159999000Y-53444000D01*
X159993000Y-53467000D01*
X159986000Y-53489000D01*
X159978000Y-53512000D01*
X159969000Y-53534000D01*
X159959000Y-53555000D01*
X159948000Y-53576000D01*
X159936000Y-53596000D01*
X159923000Y-53616000D01*
X159910000Y-53636000D01*
X159895000Y-53654000D01*
X159879000Y-53672000D01*
X159863000Y-53689000D01*
X159846000Y-53705000D01*
X159828000Y-53721000D01*
X159810000Y-53736000D01*
X159790000Y-53749000D01*
X159770000Y-53762000D01*
X159750000Y-53774000D01*
X159729000Y-53785000D01*
X159708000Y-53795000D01*
X159686000Y-53804000D01*
X159663000Y-53812000D01*
X159641000Y-53819000D01*
X159618000Y-53825000D01*
X159595000Y-53830000D01*
X159571000Y-53834000D01*
X159550000Y-53836000D01*
G36*
X160307000Y-53415000D02*
G01*
X160302000Y-53453000D01*
X160295000Y-53492000D01*
X160287000Y-53530000D01*
X160276000Y-53568000D01*
X160264000Y-53606000D01*
X160249000Y-53642000D01*
X160233000Y-53678000D01*
X160216000Y-53713000D01*
X160196000Y-53747000D01*
X160175000Y-53780000D01*
X160153000Y-53813000D01*
X160128000Y-53844000D01*
X160103000Y-53873000D01*
X160076000Y-53902000D01*
X160047000Y-53929000D01*
X160018000Y-53954000D01*
X159987000Y-53979000D01*
X159954000Y-54001000D01*
X159921000Y-54022000D01*
X159887000Y-54042000D01*
X159852000Y-54059000D01*
X159816000Y-54075000D01*
X159780000Y-54090000D01*
X159742000Y-54102000D01*
X159704000Y-54113000D01*
X159666000Y-54121000D01*
X159627000Y-54128000D01*
X159589000Y-54133000D01*
X159550000Y-54136000D01*
X159550000Y-53836000D01*
X159571000Y-53834000D01*
X159595000Y-53830000D01*
X159618000Y-53825000D01*
X159641000Y-53819000D01*
X159663000Y-53812000D01*
X159686000Y-53804000D01*
X159708000Y-53795000D01*
X159729000Y-53785000D01*
X159750000Y-53774000D01*
X159770000Y-53762000D01*
X159790000Y-53749000D01*
X159810000Y-53736000D01*
X159828000Y-53721000D01*
X159846000Y-53705000D01*
X159863000Y-53689000D01*
X159879000Y-53672000D01*
X159895000Y-53654000D01*
X159910000Y-53636000D01*
X159923000Y-53616000D01*
X159936000Y-53596000D01*
X159948000Y-53576000D01*
X159959000Y-53555000D01*
X159969000Y-53534000D01*
X159978000Y-53512000D01*
X159986000Y-53489000D01*
X159993000Y-53467000D01*
X159999000Y-53444000D01*
X160004000Y-53421000D01*
X160008000Y-53397000D01*
X160010000Y-53376000D01*
X160310000Y-53376000D01*
X160307000Y-53415000D01*
G37*
X160010000Y-53276000D02*
X160310000Y-53276000D01*
X160307000Y-53237000D01*
X160302000Y-53199000D01*
X160295000Y-53160000D01*
X160287000Y-53122000D01*
X160276000Y-53084000D01*
X160264000Y-53046000D01*
X160249000Y-53010000D01*
X160233000Y-52974000D01*
X160216000Y-52939000D01*
X160196000Y-52905000D01*
X160175000Y-52872000D01*
X160153000Y-52839000D01*
X160128000Y-52808000D01*
X160103000Y-52779000D01*
X160076000Y-52750000D01*
X160047000Y-52723000D01*
X160018000Y-52698000D01*
X159987000Y-52673000D01*
X159954000Y-52651000D01*
X159921000Y-52630000D01*
X159887000Y-52610000D01*
X159852000Y-52593000D01*
X159816000Y-52577000D01*
X159780000Y-52562000D01*
X159742000Y-52550000D01*
X159704000Y-52539000D01*
X159666000Y-52531000D01*
X159627000Y-52524000D01*
X159589000Y-52519000D01*
X159550000Y-52516000D01*
X159550000Y-52816000D01*
X159571000Y-52818000D01*
X159595000Y-52822000D01*
X159618000Y-52827000D01*
X159641000Y-52833000D01*
X159663000Y-52840000D01*
X159686000Y-52848000D01*
X159708000Y-52857000D01*
X159729000Y-52867000D01*
X159750000Y-52878000D01*
X159770000Y-52890000D01*
X159790000Y-52903000D01*
X159810000Y-52916000D01*
X159828000Y-52931000D01*
X159846000Y-52947000D01*
X159863000Y-52963000D01*
X159879000Y-52980000D01*
X159895000Y-52998000D01*
X159910000Y-53016000D01*
X159923000Y-53036000D01*
X159936000Y-53056000D01*
X159948000Y-53076000D01*
X159959000Y-53097000D01*
X159969000Y-53118000D01*
X159978000Y-53140000D01*
X159986000Y-53163000D01*
X159993000Y-53185000D01*
X159999000Y-53208000D01*
X160004000Y-53231000D01*
X160008000Y-53255000D01*
X160010000Y-53276000D01*
G36*
X159589000Y-52519000D02*
G01*
X159627000Y-52524000D01*
X159666000Y-52531000D01*
X159704000Y-52539000D01*
X159742000Y-52550000D01*
X159780000Y-52562000D01*
X159816000Y-52577000D01*
X159852000Y-52593000D01*
X159887000Y-52610000D01*
X159921000Y-52630000D01*
X159954000Y-52651000D01*
X159987000Y-52673000D01*
X160018000Y-52698000D01*
X160047000Y-52723000D01*
X160076000Y-52750000D01*
X160103000Y-52779000D01*
X160128000Y-52808000D01*
X160153000Y-52839000D01*
X160175000Y-52872000D01*
X160196000Y-52905000D01*
X160216000Y-52939000D01*
X160233000Y-52974000D01*
X160249000Y-53010000D01*
X160264000Y-53046000D01*
X160276000Y-53084000D01*
X160287000Y-53122000D01*
X160295000Y-53160000D01*
X160302000Y-53199000D01*
X160307000Y-53237000D01*
X160310000Y-53276000D01*
X160010000Y-53276000D01*
X160008000Y-53255000D01*
X160004000Y-53231000D01*
X159999000Y-53208000D01*
X159993000Y-53185000D01*
X159986000Y-53163000D01*
X159978000Y-53140000D01*
X159969000Y-53118000D01*
X159959000Y-53097000D01*
X159948000Y-53076000D01*
X159936000Y-53056000D01*
X159923000Y-53036000D01*
X159910000Y-53016000D01*
X159895000Y-52998000D01*
X159879000Y-52980000D01*
X159863000Y-52963000D01*
X159846000Y-52947000D01*
X159828000Y-52931000D01*
X159810000Y-52916000D01*
X159790000Y-52903000D01*
X159770000Y-52890000D01*
X159750000Y-52878000D01*
X159729000Y-52867000D01*
X159708000Y-52857000D01*
X159686000Y-52848000D01*
X159663000Y-52840000D01*
X159641000Y-52833000D01*
X159618000Y-52827000D01*
X159595000Y-52822000D01*
X159571000Y-52818000D01*
X159550000Y-52816000D01*
X159550000Y-52516000D01*
X159589000Y-52519000D01*
G37*
%TD*%
D11*
%TO.C,C8*%
X97725000Y-69495000D03*
X95825000Y-69495000D03*
%TD*%
D12*
%TO.C,C7*%
X114700000Y-61250000D03*
X114700000Y-63150000D03*
%TD*%
D13*
%TO.C,C16*%
X148300000Y-62550000D03*
X148300000Y-60650000D03*
%TD*%
D14*
%TO.C,C19*%
X104350000Y-71400000D03*
X106250000Y-71400000D03*
%TD*%
D13*
%TO.C,C6*%
X82900000Y-68500000D03*
X82900000Y-66600000D03*
%TD*%
D15*
%TO.C,R4*%
X107587500Y-57950000D03*
X109412500Y-57950000D03*
%TD*%
D12*
%TO.C,C4*%
X108100000Y-69650000D03*
X108100000Y-71550000D03*
%TD*%
D13*
%TO.C,C13*%
X91900000Y-65800000D03*
X91900000Y-63900000D03*
%TD*%
D16*
%TO.C,R5*%
X105412500Y-57350000D03*
X103587500Y-57350000D03*
%TD*%
D17*
%TO.C,D3*%
X98300000Y-73400000D03*
X98300000Y-71525000D03*
%TD*%
D15*
%TO.C,R29*%
X116187500Y-76000000D03*
X118012500Y-76000000D03*
%TD*%
%TO.C,R7*%
X100500000Y-74000000D03*
X102325000Y-74000000D03*
%TD*%
D14*
%TO.C,C3*%
X98950000Y-59650000D03*
X100850000Y-59650000D03*
%TD*%
D12*
%TO.C,C20*%
X109500000Y-62050000D03*
X109500000Y-63950000D03*
%TD*%
D18*
%TO.C,U7*%
X100574500Y-63745700D03*
X100574500Y-65145700D03*
X100574500Y-66545700D03*
X100574500Y-67945700D03*
X101974500Y-63745700D03*
X101974500Y-65145700D03*
X101974500Y-66545700D03*
X101974500Y-67945700D03*
X103374500Y-63745700D03*
X103374500Y-65145700D03*
X103374500Y-66545700D03*
X103374500Y-67945700D03*
X104774500Y-63745700D03*
X104774500Y-65145700D03*
X104774500Y-66545700D03*
X104774500Y-67945700D03*
D19*
X99237000Y-63095700D03*
X99237000Y-63595700D03*
X99237000Y-64095700D03*
X99237000Y-64595700D03*
X99237000Y-65095700D03*
X99237000Y-65595700D03*
X99237000Y-66095700D03*
X99237000Y-66595700D03*
X99237000Y-67095700D03*
X99237000Y-67595700D03*
X99237000Y-68095700D03*
X99237000Y-68595700D03*
D20*
X99924500Y-69283200D03*
X100424500Y-69283200D03*
X100924500Y-69283200D03*
X101424500Y-69283200D03*
X101924500Y-69283200D03*
X102424500Y-69283200D03*
X102924500Y-69283200D03*
X103424500Y-69283200D03*
X103924500Y-69283200D03*
X104424500Y-69283200D03*
X104924500Y-69283200D03*
X105424500Y-69283200D03*
D19*
X106112000Y-68595700D03*
X106112000Y-68095700D03*
X106112000Y-67595700D03*
X106112000Y-67095700D03*
X106112000Y-66595700D03*
X106112000Y-66095700D03*
X106112000Y-65595700D03*
X106112000Y-65095700D03*
X106112000Y-64595700D03*
X106112000Y-64095700D03*
X106112000Y-63595700D03*
X106112000Y-63095700D03*
D20*
X105424500Y-62408200D03*
X104924500Y-62408200D03*
X104424500Y-62408200D03*
X103924500Y-62408200D03*
X103424500Y-62408200D03*
X102924500Y-62408200D03*
X102424500Y-62408200D03*
X101924500Y-62408200D03*
X101424500Y-62408200D03*
X100924500Y-62408200D03*
X100424500Y-62408200D03*
X99924500Y-62408200D03*
%TD*%
D21*
%TO.C,Y1*%
X87350000Y-66450000D03*
X87350000Y-68600000D03*
X88900000Y-68600000D03*
X88900000Y-66450000D03*
%TD*%
D13*
%TO.C,C5*%
X95500000Y-62750000D03*
X95500000Y-60850000D03*
%TD*%
%TO.C,C18*%
X42150000Y-59350000D03*
X42150000Y-57450000D03*
%TD*%
D12*
%TO.C,C17*%
X153500000Y-60700000D03*
X153500000Y-62600000D03*
%TD*%
%TO.C,C2*%
X156900000Y-57050000D03*
X156900000Y-58950000D03*
%TD*%
M02*
