%TF.GenerationSoftware,KiCad,Pcbnew,10.0.4*%
%TF.CreationDate,2026-06-24T14:37:47+02:00*%
%TF.ProjectId,audioVisualizer_PCB,61756469-6f56-4697-9375-616c697a6572,rev?*%
%TF.SameCoordinates,Original*%
%TF.FileFunction,Soldermask,Top*%
%TF.FilePolarity,Negative*%
%FSLAX46Y46*%
G04 Gerber Fmt 4.6, Leading zero omitted, Abs format (unit mm)*
G04 Created by KiCad (PCBNEW 10.0.4) date 2026-06-24 14:37:47*
%MOMM*%
%LPD*%
G01*
G04 APERTURE LIST*
G04 Aperture macros list*
%AMRoundRect*
0 Rectangle with rounded corners*
0 $1 Rounding radius*
0 $2 $3 $4 $5 $6 $7 $8 $9 X,Y pos of 4 corners*
0 Add a 4 corners polygon primitive as box body*
4,1,4,$2,$3,$4,$5,$6,$7,$8,$9,$2,$3,0*
0 Add four circle primitives for the rounded corners*
1,1,$1+$1,$2,$3*
1,1,$1+$1,$4,$5*
1,1,$1+$1,$6,$7*
1,1,$1+$1,$8,$9*
0 Add four rect primitives between the rounded corners*
20,1,$1+$1,$2,$3,$4,$5,0*
20,1,$1+$1,$4,$5,$6,$7,0*
20,1,$1+$1,$6,$7,$8,$9,0*
20,1,$1+$1,$8,$9,$2,$3,0*%
G04 Aperture macros list end*
%ADD10C,0.500000*%
%ADD11O,2.100000X1.000000*%
%ADD12O,1.800000X1.000000*%
%ADD13C,0.650000*%
%ADD14RoundRect,0.250000X0.250000X0.475000X-0.250000X0.475000X-0.250000X-0.475000X0.250000X-0.475000X0*%
%ADD15RoundRect,0.250000X-0.475000X0.250000X-0.475000X-0.250000X0.475000X-0.250000X0.475000X0.250000X0*%
%ADD16C,0.500000*%
%ADD17RoundRect,0.102000X0.300000X0.261000X-0.300000X0.261000X-0.300000X-0.261000X0.300000X-0.261000X0*%
%ADD18RoundRect,0.250000X0.475000X-0.250000X0.475000X0.250000X-0.475000X0.250000X-0.475000X-0.250000X0*%
%ADD19R,1.700000X1.700000*%
%ADD20C,1.700000*%
%ADD21RoundRect,0.250000X-0.250000X-0.475000X0.250000X-0.475000X0.250000X0.475000X-0.250000X0.475000X0*%
%ADD22RoundRect,0.250000X-0.262500X-0.450000X0.262500X-0.450000X0.262500X0.450000X-0.262500X0.450000X0*%
%ADD23RoundRect,0.250000X0.262500X0.450000X-0.262500X0.450000X-0.262500X-0.450000X0.262500X-0.450000X0*%
%ADD24RoundRect,0.243750X0.456250X-0.243750X0.456250X0.243750X-0.456250X0.243750X-0.456250X-0.243750X0*%
%ADD25RoundRect,0.062500X-0.375000X-0.062500X0.375000X-0.062500X0.375000X0.062500X-0.375000X0.062500X0*%
%ADD26RoundRect,0.062500X-0.062500X-0.375000X0.062500X-0.375000X0.062500X0.375000X-0.062500X0.375000X0*%
%ADD27R,5.600000X5.600000*%
%ADD28R,0.900000X1.000000*%
G04 APERTURE END LIST*
%TO.C,MK-L1*%
D10*
X45749500Y-53270000D02*
G75*
G02*
X44419500Y-53270000I-665000J0D01*
G01*
X44419500Y-53270000D02*
G75*
G02*
X45749500Y-53270000I665000J0D01*
G01*
%TO.C,MK-R1*%
X160165000Y-53326000D02*
G75*
G02*
X158835000Y-53326000I-665000J0D01*
G01*
X158835000Y-53326000D02*
G75*
G02*
X160165000Y-53326000I665000J0D01*
G01*
%TD*%
D11*
%TO.C,J1*%
X42980000Y-71860000D03*
D12*
X38800000Y-71860000D03*
D11*
X42980000Y-80500000D03*
D12*
X38800000Y-80500000D03*
D13*
X42480000Y-73290000D03*
X42480000Y-79070000D03*
%TD*%
D14*
%TO.C,C8*%
X97725000Y-69495000D03*
X95825000Y-69495000D03*
%TD*%
D15*
%TO.C,C7*%
X114700000Y-61250000D03*
X114700000Y-63150000D03*
%TD*%
D16*
%TO.C,MK-L1*%
X45084500Y-53270000D03*
D17*
X45984500Y-55344000D03*
X45984500Y-54522000D03*
X44184500Y-54522000D03*
X44184500Y-55344000D03*
X45084500Y-55344000D03*
%TD*%
D18*
%TO.C,C16*%
X148300000Y-62550000D03*
X148300000Y-60650000D03*
%TD*%
D19*
%TO.C,J3*%
X165000000Y-60800000D03*
D20*
X165000000Y-63340000D03*
X165000000Y-65880000D03*
X165000000Y-68420000D03*
X165000000Y-70960000D03*
%TD*%
D21*
%TO.C,C19*%
X104350000Y-71400000D03*
X106250000Y-71400000D03*
%TD*%
D18*
%TO.C,C6*%
X82900000Y-68500000D03*
X82900000Y-66600000D03*
%TD*%
D22*
%TO.C,R4*%
X107587500Y-57950000D03*
X109412500Y-57950000D03*
%TD*%
D15*
%TO.C,C4*%
X108100000Y-69650000D03*
X108100000Y-71550000D03*
%TD*%
D18*
%TO.C,C13*%
X91900000Y-65800000D03*
X91900000Y-63900000D03*
%TD*%
D23*
%TO.C,R5*%
X105412500Y-57350000D03*
X103587500Y-57350000D03*
%TD*%
D16*
%TO.C,MK-R1*%
X159500000Y-53326000D03*
D17*
X160400000Y-55400000D03*
X160400000Y-54578000D03*
X158600000Y-54578000D03*
X158600000Y-55400000D03*
X159500000Y-55400000D03*
%TD*%
D24*
%TO.C,D3*%
X98300000Y-73400000D03*
X98300000Y-71525000D03*
%TD*%
D19*
%TO.C,J2*%
X113380000Y-52650000D03*
D20*
X110840000Y-52650000D03*
X108300000Y-52650000D03*
X105760000Y-52650000D03*
%TD*%
D22*
%TO.C,R29*%
X116187500Y-76000000D03*
X118012500Y-76000000D03*
%TD*%
%TO.C,R7*%
X100500000Y-74000000D03*
X102325000Y-74000000D03*
%TD*%
D21*
%TO.C,C3*%
X98950000Y-59650000D03*
X100850000Y-59650000D03*
%TD*%
D15*
%TO.C,C20*%
X109500000Y-62050000D03*
X109500000Y-63950000D03*
%TD*%
D25*
%TO.C,U7*%
X99237000Y-63095700D03*
X99237000Y-63595700D03*
X99237000Y-64095700D03*
X99237000Y-64595700D03*
X99237000Y-65095700D03*
X99237000Y-65595700D03*
X99237000Y-66095700D03*
X99237000Y-66595700D03*
X99237000Y-67095700D03*
X99237000Y-67595700D03*
X99237000Y-68095700D03*
X99237000Y-68595700D03*
D26*
X99924500Y-69283200D03*
X100424500Y-69283200D03*
X100924500Y-69283200D03*
X101424500Y-69283200D03*
X101924500Y-69283200D03*
X102424500Y-69283200D03*
X102924500Y-69283200D03*
X103424500Y-69283200D03*
X103924500Y-69283200D03*
X104424500Y-69283200D03*
X104924500Y-69283200D03*
X105424500Y-69283200D03*
D25*
X106112000Y-68595700D03*
X106112000Y-68095700D03*
X106112000Y-67595700D03*
X106112000Y-67095700D03*
X106112000Y-66595700D03*
X106112000Y-66095700D03*
X106112000Y-65595700D03*
X106112000Y-65095700D03*
X106112000Y-64595700D03*
X106112000Y-64095700D03*
X106112000Y-63595700D03*
X106112000Y-63095700D03*
D26*
X105424500Y-62408200D03*
X104924500Y-62408200D03*
X104424500Y-62408200D03*
X103924500Y-62408200D03*
X103424500Y-62408200D03*
X102924500Y-62408200D03*
X102424500Y-62408200D03*
X101924500Y-62408200D03*
X101424500Y-62408200D03*
X100924500Y-62408200D03*
X100424500Y-62408200D03*
X99924500Y-62408200D03*
D27*
X102674500Y-65845700D03*
%TD*%
D28*
%TO.C,Y1*%
X87350000Y-66450000D03*
X87350000Y-68600000D03*
X88900000Y-68600000D03*
X88900000Y-66450000D03*
%TD*%
D18*
%TO.C,C5*%
X95500000Y-62750000D03*
X95500000Y-60850000D03*
%TD*%
%TO.C,C18*%
X42150000Y-59350000D03*
X42150000Y-57450000D03*
%TD*%
D15*
%TO.C,C17*%
X153500000Y-60700000D03*
X153500000Y-62600000D03*
%TD*%
%TO.C,C2*%
X156900000Y-57050000D03*
X156900000Y-58950000D03*
%TD*%
M02*
