%TF.GenerationSoftware,KiCad,Pcbnew,10.0.4*%
%TF.CreationDate,2026-06-24T14:37:48+02:00*%
%TF.ProjectId,audioVisualizer_PCB,61756469-6f56-4697-9375-616c697a6572,rev?*%
%TF.SameCoordinates,Original*%
%TF.FileFunction,Soldermask,Bot*%
%TF.FilePolarity,Negative*%
%FSLAX46Y46*%
G04 Gerber Fmt 4.6, Leading zero omitted, Abs format (unit mm)*
G04 Created by KiCad (PCBNEW 10.0.4) date 2026-06-24 14:37:48*
%MOMM*%
%LPD*%
G01*
G04 APERTURE LIST*
G04 Aperture macros list*
%AMRoundRect*
0 Rectangle with rounded corners*
0 $1 Rounding radius*
0 $2 $3 $4 $5 $6 $7 $8 $9 X,Y pos of 4 corners*
0 Add a 4 corners polygon primitive as box body*
4,1,4,$2,$3,$4,$5,$6,$7,$8,$9,$2,$3,0*
0 Add four circle primitives for the rounded corners*
1,1,$1+$1,$2,$3*
1,1,$1+$1,$4,$5*
1,1,$1+$1,$6,$7*
1,1,$1+$1,$8,$9*
0 Add four rect primitives between the rounded corners*
20,1,$1+$1,$2,$3,$4,$5,0*
20,1,$1+$1,$4,$5,$6,$7,0*
20,1,$1+$1,$6,$7,$8,$9,0*
20,1,$1+$1,$8,$9,$2,$3,0*%
G04 Aperture macros list end*
%ADD10O,2.100000X1.000000*%
%ADD11O,1.800000X1.000000*%
%ADD12RoundRect,0.150000X0.425000X-0.150000X0.425000X0.150000X-0.425000X0.150000X-0.425000X-0.150000X0*%
%ADD13RoundRect,0.075000X0.500000X-0.075000X0.500000X0.075000X-0.500000X0.075000X-0.500000X-0.075000X0*%
%ADD14C,0.650000*%
%ADD15RoundRect,0.375000X0.375000X-0.625000X0.375000X0.625000X-0.375000X0.625000X-0.375000X-0.625000X0*%
%ADD16RoundRect,0.500000X1.400000X-0.500000X1.400000X0.500000X-1.400000X0.500000X-1.400000X-0.500000X0*%
%ADD17C,0.500000*%
%ADD18R,1.700000X1.700000*%
%ADD19C,1.700000*%
%ADD20RoundRect,0.250000X0.250000X0.475000X-0.250000X0.475000X-0.250000X-0.475000X0.250000X-0.475000X0*%
%ADD21RoundRect,0.250000X0.262500X0.450000X-0.262500X0.450000X-0.262500X-0.450000X0.262500X-0.450000X0*%
%ADD22RoundRect,0.243750X0.243750X0.456250X-0.243750X0.456250X-0.243750X-0.456250X0.243750X-0.456250X0*%
%ADD23RoundRect,0.250000X-0.450000X0.262500X-0.450000X-0.262500X0.450000X-0.262500X0.450000X0.262500X0*%
%ADD24RoundRect,0.250000X-0.475000X0.250000X-0.475000X-0.250000X0.475000X-0.250000X0.475000X0.250000X0*%
%ADD25RoundRect,0.250000X0.475000X-0.250000X0.475000X0.250000X-0.475000X0.250000X-0.475000X-0.250000X0*%
%ADD26R,1.000000X1.000000*%
G04 APERTURE END LIST*
D10*
%TO.C,J1*%
X42980000Y-71860000D03*
D11*
X38800000Y-71860000D03*
D10*
X42980000Y-80500000D03*
D11*
X38800000Y-80500000D03*
D12*
X43555000Y-79380000D03*
X43555000Y-78580000D03*
D13*
X43555000Y-77930000D03*
X43555000Y-76930000D03*
X43555000Y-75430000D03*
X43555000Y-74430000D03*
D12*
X43555000Y-73780000D03*
X43555000Y-72980000D03*
X43555000Y-72980000D03*
X43555000Y-73780000D03*
D13*
X43555000Y-74930000D03*
X43555000Y-75930000D03*
X43555000Y-76430000D03*
X43555000Y-77430000D03*
D12*
X43555000Y-78580000D03*
X43555000Y-79380000D03*
D14*
X42480000Y-73290000D03*
X42480000Y-79070000D03*
%TD*%
D15*
%TO.C,U1*%
X75100000Y-77150000D03*
D16*
X77400000Y-70850000D03*
D15*
X77400000Y-77150000D03*
X79700000Y-77150000D03*
%TD*%
D17*
%TO.C,MK-L1*%
X45084500Y-53270000D03*
%TD*%
D18*
%TO.C,J3*%
X165000000Y-60800000D03*
D19*
X165000000Y-63340000D03*
X165000000Y-65880000D03*
X165000000Y-68420000D03*
X165000000Y-70960000D03*
%TD*%
D17*
%TO.C,MK-R1*%
X159500000Y-53326000D03*
%TD*%
D18*
%TO.C,J2*%
X113380000Y-52650000D03*
D19*
X110840000Y-52650000D03*
X108300000Y-52650000D03*
X105760000Y-52650000D03*
%TD*%
D20*
%TO.C,C12*%
X70200000Y-70600000D03*
X68300000Y-70600000D03*
%TD*%
D21*
%TO.C,R3*%
X50212500Y-76500000D03*
X48387500Y-76500000D03*
%TD*%
D22*
%TO.C,D1*%
X86900000Y-73400000D03*
X85025000Y-73400000D03*
%TD*%
D23*
%TO.C,R2*%
X87900000Y-76887500D03*
X87900000Y-78712500D03*
%TD*%
D24*
%TO.C,C15*%
X54100000Y-78450000D03*
X54100000Y-80350000D03*
%TD*%
D25*
%TO.C,C14*%
X49300000Y-80450000D03*
X49300000Y-78550000D03*
%TD*%
D26*
%TO.C,5V1*%
X60300000Y-78400000D03*
%TD*%
%TO.C,3V3*%
X70100000Y-66600000D03*
%TD*%
D23*
%TO.C,R6*%
X53500000Y-66600000D03*
X53500000Y-68425000D03*
%TD*%
D21*
%TO.C,R1*%
X50125000Y-73000000D03*
X48300000Y-73000000D03*
%TD*%
D22*
%TO.C,D2*%
X50037500Y-67600000D03*
X48162500Y-67600000D03*
%TD*%
D26*
%TO.C,GND1*%
X61500000Y-69000000D03*
%TD*%
D25*
%TO.C,C11*%
X68300000Y-77350000D03*
X68300000Y-75450000D03*
%TD*%
M02*
