%TF.GenerationSoftware,KiCad,Pcbnew,9.0.0*%
%TF.CreationDate,2025-08-28T17:52:35+02:00*%
%TF.ProjectId,audioVisualizer_PCB,61756469-6f56-4697-9375-616c697a6572,rev?*%
%TF.SameCoordinates,Original*%
%TF.FileFunction,Paste,Top*%
%TF.FilePolarity,Positive*%
%FSLAX46Y46*%
G04 Gerber Fmt 4.6, Leading zero omitted, Abs format (unit mm)*
G04 Created by KiCad (PCBNEW 9.0.0) date 2025-08-28 17:52:35*
%MOMM*%
%LPD*%
G01*
G04 APERTURE LIST*
G04 Aperture macros list*
%AMRoundRect*
0 Rectangle with rounded corners*
0 $1 Rounding radius*
0 $2 $3 $4 $5 $6 $7 $8 $9 X,Y pos of 4 corners*
0 Add a 4 corners polygon primitive as box body*
4,1,4,$2,$3,$4,$5,$6,$7,$8,$9,$2,$3,0*
0 Add four circle primitives for the rounded corners*
1,1,$1+$1,$2,$3*
1,1,$1+$1,$4,$5*
1,1,$1+$1,$6,$7*
1,1,$1+$1,$8,$9*
0 Add four rect primitives between the rounded corners*
20,1,$1+$1,$2,$3,$4,$5,0*
20,1,$1+$1,$4,$5,$6,$7,0*
20,1,$1+$1,$6,$7,$8,$9,0*
20,1,$1+$1,$8,$9,$2,$3,0*%
%AMFreePoly0*
4,1,9,3.862500,-0.866500,0.737500,-0.866500,0.737500,-0.450000,-0.737500,-0.450000,-0.737500,0.450000,0.737500,0.450000,0.737500,0.866500,3.862500,0.866500,3.862500,-0.866500,3.862500,-0.866500,$1*%
G04 Aperture macros list end*
%ADD10RoundRect,0.250000X-0.250000X-0.475000X0.250000X-0.475000X0.250000X0.475000X-0.250000X0.475000X0*%
%ADD11RoundRect,0.250000X-0.475000X0.250000X-0.475000X-0.250000X0.475000X-0.250000X0.475000X0.250000X0*%
%ADD12RoundRect,0.250000X0.250000X0.475000X-0.250000X0.475000X-0.250000X-0.475000X0.250000X-0.475000X0*%
%ADD13RoundRect,0.100000X0.100000X0.575000X-0.100000X0.575000X-0.100000X-0.575000X0.100000X-0.575000X0*%
%ADD14O,0.900000X1.600000*%
%ADD15RoundRect,0.250000X0.550000X0.450000X-0.550000X0.450000X-0.550000X-0.450000X0.550000X-0.450000X0*%
%ADD16RoundRect,0.250000X0.700000X0.700000X-0.700000X0.700000X-0.700000X-0.700000X0.700000X-0.700000X0*%
%ADD17RoundRect,0.243750X0.243750X0.456250X-0.243750X0.456250X-0.243750X-0.456250X0.243750X-0.456250X0*%
%ADD18RoundRect,0.250000X0.262500X0.450000X-0.262500X0.450000X-0.262500X-0.450000X0.262500X-0.450000X0*%
%ADD19RoundRect,0.250000X0.475000X-0.250000X0.475000X0.250000X-0.475000X0.250000X-0.475000X-0.250000X0*%
%ADD20RoundRect,0.243750X-0.456250X0.243750X-0.456250X-0.243750X0.456250X-0.243750X0.456250X0.243750X0*%
%ADD21RoundRect,0.225000X0.225000X-0.425000X0.225000X0.425000X-0.225000X0.425000X-0.225000X-0.425000X0*%
%ADD22FreePoly0,90.000000*%
%ADD23RoundRect,0.250000X0.450000X-0.262500X0.450000X0.262500X-0.450000X0.262500X-0.450000X-0.262500X0*%
%ADD24RoundRect,0.075000X-0.662500X-0.075000X0.662500X-0.075000X0.662500X0.075000X-0.662500X0.075000X0*%
%ADD25RoundRect,0.075000X-0.075000X-0.662500X0.075000X-0.662500X0.075000X0.662500X-0.075000X0.662500X0*%
G04 APERTURE END LIST*
D10*
%TO.C,C7*%
X141550000Y-61500000D03*
X143450000Y-61500000D03*
%TD*%
D11*
%TO.C,C1*%
X122000000Y-51600000D03*
X122000000Y-53500000D03*
%TD*%
D12*
%TO.C,C12*%
X155450000Y-65500000D03*
X153550000Y-65500000D03*
%TD*%
D13*
%TO.C,J2*%
X156600000Y-45675000D03*
X155950000Y-45675000D03*
X155300000Y-45675000D03*
X154650000Y-45675000D03*
X154000000Y-45675000D03*
D14*
X158600000Y-43000000D03*
D15*
X158500000Y-45450000D03*
D16*
X156500000Y-43000000D03*
X154100000Y-43000000D03*
D15*
X152100000Y-45450000D03*
D14*
X152000000Y-43000000D03*
%TD*%
D12*
%TO.C,C6*%
X138950000Y-64000000D03*
X137050000Y-64000000D03*
%TD*%
D17*
%TO.C,D1*%
X162989500Y-63500000D03*
X161114500Y-63500000D03*
%TD*%
D18*
%TO.C,R2*%
X162912500Y-68000000D03*
X161087500Y-68000000D03*
%TD*%
D10*
%TO.C,C4*%
X132050000Y-47500000D03*
X133950000Y-47500000D03*
%TD*%
D19*
%TO.C,C13*%
X122000000Y-66400000D03*
X122000000Y-64500000D03*
%TD*%
D10*
%TO.C,C10*%
X128910000Y-70104000D03*
X130810000Y-70104000D03*
%TD*%
%TO.C,C8*%
X128910000Y-62604000D03*
X130810000Y-62604000D03*
%TD*%
D20*
%TO.C,D2*%
X164000000Y-45625000D03*
X164000000Y-47500000D03*
%TD*%
D21*
%TO.C,U2*%
X153000000Y-61450000D03*
D22*
X154500000Y-61362500D03*
D21*
X156000000Y-61450000D03*
%TD*%
D23*
%TO.C,R3*%
X168402000Y-47394500D03*
X168402000Y-45569500D03*
%TD*%
D24*
%TO.C,U1*%
X131175000Y-53000000D03*
X131175000Y-53500000D03*
X131175000Y-54000000D03*
X131175000Y-54500000D03*
X131175000Y-55000000D03*
X131175000Y-55500000D03*
X131175000Y-56000000D03*
X131175000Y-56500000D03*
X131175000Y-57000000D03*
X131175000Y-57500000D03*
X131175000Y-58000000D03*
X131175000Y-58500000D03*
D25*
X132587500Y-59912500D03*
X133087500Y-59912500D03*
X133587500Y-59912500D03*
X134087500Y-59912500D03*
X134587500Y-59912500D03*
X135087500Y-59912500D03*
X135587500Y-59912500D03*
X136087500Y-59912500D03*
X136587500Y-59912500D03*
X137087500Y-59912500D03*
X137587500Y-59912500D03*
X138087500Y-59912500D03*
D24*
X139500000Y-58500000D03*
X139500000Y-58000000D03*
X139500000Y-57500000D03*
X139500000Y-57000000D03*
X139500000Y-56500000D03*
X139500000Y-56000000D03*
X139500000Y-55500000D03*
X139500000Y-55000000D03*
X139500000Y-54500000D03*
X139500000Y-54000000D03*
X139500000Y-53500000D03*
X139500000Y-53000000D03*
D25*
X138087500Y-51587500D03*
X137587500Y-51587500D03*
X137087500Y-51587500D03*
X136587500Y-51587500D03*
X136087500Y-51587500D03*
X135587500Y-51587500D03*
X135087500Y-51587500D03*
X134587500Y-51587500D03*
X134087500Y-51587500D03*
X133587500Y-51587500D03*
X133087500Y-51587500D03*
X132587500Y-51587500D03*
%TD*%
D10*
%TO.C,C9*%
X128960000Y-66104000D03*
X130860000Y-66104000D03*
%TD*%
D19*
%TO.C,C3*%
X128500000Y-51950000D03*
X128500000Y-50050000D03*
%TD*%
%TO.C,C5*%
X143000000Y-52500000D03*
X143000000Y-50600000D03*
%TD*%
D11*
%TO.C,C2*%
X122000000Y-58550000D03*
X122000000Y-60450000D03*
%TD*%
D12*
%TO.C,C11*%
X155128000Y-53500000D03*
X153228000Y-53500000D03*
%TD*%
M02*
