%TF.GenerationSoftware,KiCad,Pcbnew,9.0.0*%
%TF.CreationDate,2025-08-28T17:52:35+02:00*%
%TF.ProjectId,audioVisualizer_PCB,61756469-6f56-4697-9375-616c697a6572,rev?*%
%TF.SameCoordinates,Original*%
%TF.FileFunction,Legend,Top*%
%TF.FilePolarity,Positive*%
%FSLAX46Y46*%
G04 Gerber Fmt 4.6, Leading zero omitted, Abs format (unit mm)*
G04 Created by KiCad (PCBNEW 9.0.0) date 2025-08-28 17:52:35*
%MOMM*%
%LPD*%
G01*
G04 APERTURE LIST*
G04 Aperture macros list*
%AMRoundRect*
0 Rectangle with rounded corners*
0 $1 Rounding radius*
0 $2 $3 $4 $5 $6 $7 $8 $9 X,Y pos of 4 corners*
0 Add a 4 corners polygon primitive as box body*
4,1,4,$2,$3,$4,$5,$6,$7,$8,$9,$2,$3,0*
0 Add four circle primitives for the rounded corners*
1,1,$1+$1,$2,$3*
1,1,$1+$1,$4,$5*
1,1,$1+$1,$6,$7*
1,1,$1+$1,$8,$9*
0 Add four rect primitives between the rounded corners*
20,1,$1+$1,$2,$3,$4,$5,0*
20,1,$1+$1,$4,$5,$6,$7,0*
20,1,$1+$1,$6,$7,$8,$9,0*
20,1,$1+$1,$8,$9,$2,$3,0*%
%AMFreePoly0*
4,1,9,3.862500,-0.866500,0.737500,-0.866500,0.737500,-0.450000,-0.737500,-0.450000,-0.737500,0.450000,0.737500,0.450000,0.737500,0.866500,3.862500,0.866500,3.862500,-0.866500,3.862500,-0.866500,$1*%
G04 Aperture macros list end*
%ADD10C,0.100000*%
%ADD11C,0.150000*%
%ADD12C,0.120000*%
%ADD13RoundRect,0.250000X-0.250000X-0.475000X0.250000X-0.475000X0.250000X0.475000X-0.250000X0.475000X0*%
%ADD14RoundRect,0.250000X-0.475000X0.250000X-0.475000X-0.250000X0.475000X-0.250000X0.475000X0.250000X0*%
%ADD15RoundRect,0.250000X0.250000X0.475000X-0.250000X0.475000X-0.250000X-0.475000X0.250000X-0.475000X0*%
%ADD16RoundRect,0.100000X0.100000X0.575000X-0.100000X0.575000X-0.100000X-0.575000X0.100000X-0.575000X0*%
%ADD17O,0.900000X1.600000*%
%ADD18RoundRect,0.250000X0.550000X0.450000X-0.550000X0.450000X-0.550000X-0.450000X0.550000X-0.450000X0*%
%ADD19RoundRect,0.250000X0.700000X0.700000X-0.700000X0.700000X-0.700000X-0.700000X0.700000X-0.700000X0*%
%ADD20R,1.000000X1.000000*%
%ADD21R,1.700000X1.700000*%
%ADD22O,1.700000X1.700000*%
%ADD23RoundRect,0.243750X0.243750X0.456250X-0.243750X0.456250X-0.243750X-0.456250X0.243750X-0.456250X0*%
%ADD24RoundRect,0.250000X0.262500X0.450000X-0.262500X0.450000X-0.262500X-0.450000X0.262500X-0.450000X0*%
%ADD25RoundRect,0.250000X0.475000X-0.250000X0.475000X0.250000X-0.475000X0.250000X-0.475000X-0.250000X0*%
%ADD26RoundRect,0.243750X-0.456250X0.243750X-0.456250X-0.243750X0.456250X-0.243750X0.456250X0.243750X0*%
%ADD27RoundRect,0.225000X0.225000X-0.425000X0.225000X0.425000X-0.225000X0.425000X-0.225000X-0.425000X0*%
%ADD28FreePoly0,90.000000*%
%ADD29RoundRect,0.250000X0.450000X-0.262500X0.450000X0.262500X-0.450000X0.262500X-0.450000X-0.262500X0*%
%ADD30RoundRect,0.075000X-0.662500X-0.075000X0.662500X-0.075000X0.662500X0.075000X-0.662500X0.075000X0*%
%ADD31RoundRect,0.075000X-0.075000X-0.662500X0.075000X-0.662500X0.075000X0.662500X-0.075000X0.662500X0*%
%ADD32C,1.500000*%
G04 APERTURE END LIST*
D10*
X144327693Y-68920038D02*
X144232455Y-68872419D01*
X144232455Y-68872419D02*
X144089598Y-68872419D01*
X144089598Y-68872419D02*
X143946741Y-68920038D01*
X143946741Y-68920038D02*
X143851503Y-69015276D01*
X143851503Y-69015276D02*
X143803884Y-69110514D01*
X143803884Y-69110514D02*
X143756265Y-69300990D01*
X143756265Y-69300990D02*
X143756265Y-69443847D01*
X143756265Y-69443847D02*
X143803884Y-69634323D01*
X143803884Y-69634323D02*
X143851503Y-69729561D01*
X143851503Y-69729561D02*
X143946741Y-69824800D01*
X143946741Y-69824800D02*
X144089598Y-69872419D01*
X144089598Y-69872419D02*
X144184836Y-69872419D01*
X144184836Y-69872419D02*
X144327693Y-69824800D01*
X144327693Y-69824800D02*
X144375312Y-69777180D01*
X144375312Y-69777180D02*
X144375312Y-69443847D01*
X144375312Y-69443847D02*
X144184836Y-69443847D01*
X144803884Y-69348609D02*
X145137217Y-69348609D01*
X145280074Y-69872419D02*
X144803884Y-69872419D01*
X144803884Y-69872419D02*
X144803884Y-68872419D01*
X144803884Y-68872419D02*
X145280074Y-68872419D01*
X145708646Y-69872419D02*
X145708646Y-68872419D01*
X145708646Y-68872419D02*
X145946741Y-68872419D01*
X145946741Y-68872419D02*
X146089598Y-68920038D01*
X146089598Y-68920038D02*
X146184836Y-69015276D01*
X146184836Y-69015276D02*
X146232455Y-69110514D01*
X146232455Y-69110514D02*
X146280074Y-69300990D01*
X146280074Y-69300990D02*
X146280074Y-69443847D01*
X146280074Y-69443847D02*
X146232455Y-69634323D01*
X146232455Y-69634323D02*
X146184836Y-69729561D01*
X146184836Y-69729561D02*
X146089598Y-69824800D01*
X146089598Y-69824800D02*
X145946741Y-69872419D01*
X145946741Y-69872419D02*
X145708646Y-69872419D01*
X146708646Y-69491466D02*
X147470551Y-69491466D01*
X147946741Y-69872419D02*
X147946741Y-68872419D01*
X147946741Y-68872419D02*
X148184836Y-68872419D01*
X148184836Y-68872419D02*
X148327693Y-68920038D01*
X148327693Y-68920038D02*
X148422931Y-69015276D01*
X148422931Y-69015276D02*
X148470550Y-69110514D01*
X148470550Y-69110514D02*
X148518169Y-69300990D01*
X148518169Y-69300990D02*
X148518169Y-69443847D01*
X148518169Y-69443847D02*
X148470550Y-69634323D01*
X148470550Y-69634323D02*
X148422931Y-69729561D01*
X148422931Y-69729561D02*
X148327693Y-69824800D01*
X148327693Y-69824800D02*
X148184836Y-69872419D01*
X148184836Y-69872419D02*
X147946741Y-69872419D01*
X148946741Y-69348609D02*
X149280074Y-69348609D01*
X149422931Y-69872419D02*
X148946741Y-69872419D01*
X148946741Y-69872419D02*
X148946741Y-68872419D01*
X148946741Y-68872419D02*
X149422931Y-68872419D01*
X149708646Y-68872419D02*
X150041979Y-69872419D01*
X150041979Y-69872419D02*
X150375312Y-68872419D01*
X150661027Y-69824800D02*
X150803884Y-69872419D01*
X150803884Y-69872419D02*
X151041979Y-69872419D01*
X151041979Y-69872419D02*
X151137217Y-69824800D01*
X151137217Y-69824800D02*
X151184836Y-69777180D01*
X151184836Y-69777180D02*
X151232455Y-69681942D01*
X151232455Y-69681942D02*
X151232455Y-69586704D01*
X151232455Y-69586704D02*
X151184836Y-69491466D01*
X151184836Y-69491466D02*
X151137217Y-69443847D01*
X151137217Y-69443847D02*
X151041979Y-69396228D01*
X151041979Y-69396228D02*
X150851503Y-69348609D01*
X150851503Y-69348609D02*
X150756265Y-69300990D01*
X150756265Y-69300990D02*
X150708646Y-69253371D01*
X150708646Y-69253371D02*
X150661027Y-69158133D01*
X150661027Y-69158133D02*
X150661027Y-69062895D01*
X150661027Y-69062895D02*
X150708646Y-68967657D01*
X150708646Y-68967657D02*
X150756265Y-68920038D01*
X150756265Y-68920038D02*
X150851503Y-68872419D01*
X150851503Y-68872419D02*
X151089598Y-68872419D01*
X151089598Y-68872419D02*
X151232455Y-68920038D01*
X152280075Y-68872419D02*
X152613408Y-69872419D01*
X152613408Y-69872419D02*
X152946741Y-68872419D01*
X153803884Y-69872419D02*
X153232456Y-69872419D01*
X153518170Y-69872419D02*
X153518170Y-68872419D01*
X153518170Y-68872419D02*
X153422932Y-69015276D01*
X153422932Y-69015276D02*
X153327694Y-69110514D01*
X153327694Y-69110514D02*
X153232456Y-69158133D01*
X154232456Y-69777180D02*
X154280075Y-69824800D01*
X154280075Y-69824800D02*
X154232456Y-69872419D01*
X154232456Y-69872419D02*
X154184837Y-69824800D01*
X154184837Y-69824800D02*
X154232456Y-69777180D01*
X154232456Y-69777180D02*
X154232456Y-69872419D01*
X154899122Y-68872419D02*
X154994360Y-68872419D01*
X154994360Y-68872419D02*
X155089598Y-68920038D01*
X155089598Y-68920038D02*
X155137217Y-68967657D01*
X155137217Y-68967657D02*
X155184836Y-69062895D01*
X155184836Y-69062895D02*
X155232455Y-69253371D01*
X155232455Y-69253371D02*
X155232455Y-69491466D01*
X155232455Y-69491466D02*
X155184836Y-69681942D01*
X155184836Y-69681942D02*
X155137217Y-69777180D01*
X155137217Y-69777180D02*
X155089598Y-69824800D01*
X155089598Y-69824800D02*
X154994360Y-69872419D01*
X154994360Y-69872419D02*
X154899122Y-69872419D01*
X154899122Y-69872419D02*
X154803884Y-69824800D01*
X154803884Y-69824800D02*
X154756265Y-69777180D01*
X154756265Y-69777180D02*
X154708646Y-69681942D01*
X154708646Y-69681942D02*
X154661027Y-69491466D01*
X154661027Y-69491466D02*
X154661027Y-69253371D01*
X154661027Y-69253371D02*
X154708646Y-69062895D01*
X154708646Y-69062895D02*
X154756265Y-68967657D01*
X154756265Y-68967657D02*
X154803884Y-68920038D01*
X154803884Y-68920038D02*
X154899122Y-68872419D01*
X155661027Y-69777180D02*
X155708646Y-69824800D01*
X155708646Y-69824800D02*
X155661027Y-69872419D01*
X155661027Y-69872419D02*
X155613408Y-69824800D01*
X155613408Y-69824800D02*
X155661027Y-69777180D01*
X155661027Y-69777180D02*
X155661027Y-69872419D01*
X156661026Y-69872419D02*
X156089598Y-69872419D01*
X156375312Y-69872419D02*
X156375312Y-68872419D01*
X156375312Y-68872419D02*
X156280074Y-69015276D01*
X156280074Y-69015276D02*
X156184836Y-69110514D01*
X156184836Y-69110514D02*
X156089598Y-69158133D01*
D11*
X142333333Y-60179580D02*
X142285714Y-60227200D01*
X142285714Y-60227200D02*
X142142857Y-60274819D01*
X142142857Y-60274819D02*
X142047619Y-60274819D01*
X142047619Y-60274819D02*
X141904762Y-60227200D01*
X141904762Y-60227200D02*
X141809524Y-60131961D01*
X141809524Y-60131961D02*
X141761905Y-60036723D01*
X141761905Y-60036723D02*
X141714286Y-59846247D01*
X141714286Y-59846247D02*
X141714286Y-59703390D01*
X141714286Y-59703390D02*
X141761905Y-59512914D01*
X141761905Y-59512914D02*
X141809524Y-59417676D01*
X141809524Y-59417676D02*
X141904762Y-59322438D01*
X141904762Y-59322438D02*
X142047619Y-59274819D01*
X142047619Y-59274819D02*
X142142857Y-59274819D01*
X142142857Y-59274819D02*
X142285714Y-59322438D01*
X142285714Y-59322438D02*
X142333333Y-59370057D01*
X142666667Y-59274819D02*
X143333333Y-59274819D01*
X143333333Y-59274819D02*
X142904762Y-60274819D01*
X124359580Y-52716666D02*
X124407200Y-52764285D01*
X124407200Y-52764285D02*
X124454819Y-52907142D01*
X124454819Y-52907142D02*
X124454819Y-53002380D01*
X124454819Y-53002380D02*
X124407200Y-53145237D01*
X124407200Y-53145237D02*
X124311961Y-53240475D01*
X124311961Y-53240475D02*
X124216723Y-53288094D01*
X124216723Y-53288094D02*
X124026247Y-53335713D01*
X124026247Y-53335713D02*
X123883390Y-53335713D01*
X123883390Y-53335713D02*
X123692914Y-53288094D01*
X123692914Y-53288094D02*
X123597676Y-53240475D01*
X123597676Y-53240475D02*
X123502438Y-53145237D01*
X123502438Y-53145237D02*
X123454819Y-53002380D01*
X123454819Y-53002380D02*
X123454819Y-52907142D01*
X123454819Y-52907142D02*
X123502438Y-52764285D01*
X123502438Y-52764285D02*
X123550057Y-52716666D01*
X124454819Y-51764285D02*
X124454819Y-52335713D01*
X124454819Y-52049999D02*
X123454819Y-52049999D01*
X123454819Y-52049999D02*
X123597676Y-52145237D01*
X123597676Y-52145237D02*
X123692914Y-52240475D01*
X123692914Y-52240475D02*
X123740533Y-52335713D01*
X157091142Y-65637580D02*
X157043523Y-65685200D01*
X157043523Y-65685200D02*
X156900666Y-65732819D01*
X156900666Y-65732819D02*
X156805428Y-65732819D01*
X156805428Y-65732819D02*
X156662571Y-65685200D01*
X156662571Y-65685200D02*
X156567333Y-65589961D01*
X156567333Y-65589961D02*
X156519714Y-65494723D01*
X156519714Y-65494723D02*
X156472095Y-65304247D01*
X156472095Y-65304247D02*
X156472095Y-65161390D01*
X156472095Y-65161390D02*
X156519714Y-64970914D01*
X156519714Y-64970914D02*
X156567333Y-64875676D01*
X156567333Y-64875676D02*
X156662571Y-64780438D01*
X156662571Y-64780438D02*
X156805428Y-64732819D01*
X156805428Y-64732819D02*
X156900666Y-64732819D01*
X156900666Y-64732819D02*
X157043523Y-64780438D01*
X157043523Y-64780438D02*
X157091142Y-64828057D01*
X158043523Y-65732819D02*
X157472095Y-65732819D01*
X157757809Y-65732819D02*
X157757809Y-64732819D01*
X157757809Y-64732819D02*
X157662571Y-64875676D01*
X157662571Y-64875676D02*
X157567333Y-64970914D01*
X157567333Y-64970914D02*
X157472095Y-65018533D01*
X158424476Y-64828057D02*
X158472095Y-64780438D01*
X158472095Y-64780438D02*
X158567333Y-64732819D01*
X158567333Y-64732819D02*
X158805428Y-64732819D01*
X158805428Y-64732819D02*
X158900666Y-64780438D01*
X158900666Y-64780438D02*
X158948285Y-64828057D01*
X158948285Y-64828057D02*
X158995904Y-64923295D01*
X158995904Y-64923295D02*
X158995904Y-65018533D01*
X158995904Y-65018533D02*
X158948285Y-65161390D01*
X158948285Y-65161390D02*
X158376857Y-65732819D01*
X158376857Y-65732819D02*
X158995904Y-65732819D01*
X154966666Y-46954819D02*
X154966666Y-47669104D01*
X154966666Y-47669104D02*
X154919047Y-47811961D01*
X154919047Y-47811961D02*
X154823809Y-47907200D01*
X154823809Y-47907200D02*
X154680952Y-47954819D01*
X154680952Y-47954819D02*
X154585714Y-47954819D01*
X155395238Y-47050057D02*
X155442857Y-47002438D01*
X155442857Y-47002438D02*
X155538095Y-46954819D01*
X155538095Y-46954819D02*
X155776190Y-46954819D01*
X155776190Y-46954819D02*
X155871428Y-47002438D01*
X155871428Y-47002438D02*
X155919047Y-47050057D01*
X155919047Y-47050057D02*
X155966666Y-47145295D01*
X155966666Y-47145295D02*
X155966666Y-47240533D01*
X155966666Y-47240533D02*
X155919047Y-47383390D01*
X155919047Y-47383390D02*
X155347619Y-47954819D01*
X155347619Y-47954819D02*
X155966666Y-47954819D01*
X157738095Y-48454819D02*
X158309523Y-48454819D01*
X158023809Y-49454819D02*
X158023809Y-48454819D01*
X158642857Y-49454819D02*
X158642857Y-48454819D01*
X158642857Y-48454819D02*
X159023809Y-48454819D01*
X159023809Y-48454819D02*
X159119047Y-48502438D01*
X159119047Y-48502438D02*
X159166666Y-48550057D01*
X159166666Y-48550057D02*
X159214285Y-48645295D01*
X159214285Y-48645295D02*
X159214285Y-48788152D01*
X159214285Y-48788152D02*
X159166666Y-48883390D01*
X159166666Y-48883390D02*
X159119047Y-48931009D01*
X159119047Y-48931009D02*
X159023809Y-48978628D01*
X159023809Y-48978628D02*
X158642857Y-48978628D01*
X160166666Y-49454819D02*
X159595238Y-49454819D01*
X159880952Y-49454819D02*
X159880952Y-48454819D01*
X159880952Y-48454819D02*
X159785714Y-48597676D01*
X159785714Y-48597676D02*
X159690476Y-48692914D01*
X159690476Y-48692914D02*
X159595238Y-48740533D01*
X106291666Y-61454819D02*
X106291666Y-62169104D01*
X106291666Y-62169104D02*
X106244047Y-62311961D01*
X106244047Y-62311961D02*
X106148809Y-62407200D01*
X106148809Y-62407200D02*
X106005952Y-62454819D01*
X106005952Y-62454819D02*
X105910714Y-62454819D01*
X107291666Y-62454819D02*
X106720238Y-62454819D01*
X107005952Y-62454819D02*
X107005952Y-61454819D01*
X107005952Y-61454819D02*
X106910714Y-61597676D01*
X106910714Y-61597676D02*
X106815476Y-61692914D01*
X106815476Y-61692914D02*
X106720238Y-61740533D01*
X134454819Y-45166666D02*
X135169104Y-45166666D01*
X135169104Y-45166666D02*
X135311961Y-45214285D01*
X135311961Y-45214285D02*
X135407200Y-45309523D01*
X135407200Y-45309523D02*
X135454819Y-45452380D01*
X135454819Y-45452380D02*
X135454819Y-45547618D01*
X134454819Y-44833332D02*
X134454819Y-44261904D01*
X135454819Y-44547618D02*
X134454819Y-44547618D01*
X135169104Y-43976189D02*
X135169104Y-43499999D01*
X135454819Y-44071427D02*
X134454819Y-43738094D01*
X134454819Y-43738094D02*
X135454819Y-43404761D01*
X134502438Y-42547618D02*
X134454819Y-42642856D01*
X134454819Y-42642856D02*
X134454819Y-42785713D01*
X134454819Y-42785713D02*
X134502438Y-42928570D01*
X134502438Y-42928570D02*
X134597676Y-43023808D01*
X134597676Y-43023808D02*
X134692914Y-43071427D01*
X134692914Y-43071427D02*
X134883390Y-43119046D01*
X134883390Y-43119046D02*
X135026247Y-43119046D01*
X135026247Y-43119046D02*
X135216723Y-43071427D01*
X135216723Y-43071427D02*
X135311961Y-43023808D01*
X135311961Y-43023808D02*
X135407200Y-42928570D01*
X135407200Y-42928570D02*
X135454819Y-42785713D01*
X135454819Y-42785713D02*
X135454819Y-42690475D01*
X135454819Y-42690475D02*
X135407200Y-42547618D01*
X135407200Y-42547618D02*
X135359580Y-42499999D01*
X135359580Y-42499999D02*
X135026247Y-42499999D01*
X135026247Y-42499999D02*
X135026247Y-42690475D01*
X135283333Y-64359580D02*
X135235714Y-64407200D01*
X135235714Y-64407200D02*
X135092857Y-64454819D01*
X135092857Y-64454819D02*
X134997619Y-64454819D01*
X134997619Y-64454819D02*
X134854762Y-64407200D01*
X134854762Y-64407200D02*
X134759524Y-64311961D01*
X134759524Y-64311961D02*
X134711905Y-64216723D01*
X134711905Y-64216723D02*
X134664286Y-64026247D01*
X134664286Y-64026247D02*
X134664286Y-63883390D01*
X134664286Y-63883390D02*
X134711905Y-63692914D01*
X134711905Y-63692914D02*
X134759524Y-63597676D01*
X134759524Y-63597676D02*
X134854762Y-63502438D01*
X134854762Y-63502438D02*
X134997619Y-63454819D01*
X134997619Y-63454819D02*
X135092857Y-63454819D01*
X135092857Y-63454819D02*
X135235714Y-63502438D01*
X135235714Y-63502438D02*
X135283333Y-63550057D01*
X136140476Y-63454819D02*
X135950000Y-63454819D01*
X135950000Y-63454819D02*
X135854762Y-63502438D01*
X135854762Y-63502438D02*
X135807143Y-63550057D01*
X135807143Y-63550057D02*
X135711905Y-63692914D01*
X135711905Y-63692914D02*
X135664286Y-63883390D01*
X135664286Y-63883390D02*
X135664286Y-64264342D01*
X135664286Y-64264342D02*
X135711905Y-64359580D01*
X135711905Y-64359580D02*
X135759524Y-64407200D01*
X135759524Y-64407200D02*
X135854762Y-64454819D01*
X135854762Y-64454819D02*
X136045238Y-64454819D01*
X136045238Y-64454819D02*
X136140476Y-64407200D01*
X136140476Y-64407200D02*
X136188095Y-64359580D01*
X136188095Y-64359580D02*
X136235714Y-64264342D01*
X136235714Y-64264342D02*
X136235714Y-64026247D01*
X136235714Y-64026247D02*
X136188095Y-63931009D01*
X136188095Y-63931009D02*
X136140476Y-63883390D01*
X136140476Y-63883390D02*
X136045238Y-63835771D01*
X136045238Y-63835771D02*
X135854762Y-63835771D01*
X135854762Y-63835771D02*
X135759524Y-63883390D01*
X135759524Y-63883390D02*
X135711905Y-63931009D01*
X135711905Y-63931009D02*
X135664286Y-64026247D01*
X161313905Y-66454819D02*
X161313905Y-65454819D01*
X161313905Y-65454819D02*
X161552000Y-65454819D01*
X161552000Y-65454819D02*
X161694857Y-65502438D01*
X161694857Y-65502438D02*
X161790095Y-65597676D01*
X161790095Y-65597676D02*
X161837714Y-65692914D01*
X161837714Y-65692914D02*
X161885333Y-65883390D01*
X161885333Y-65883390D02*
X161885333Y-66026247D01*
X161885333Y-66026247D02*
X161837714Y-66216723D01*
X161837714Y-66216723D02*
X161790095Y-66311961D01*
X161790095Y-66311961D02*
X161694857Y-66407200D01*
X161694857Y-66407200D02*
X161552000Y-66454819D01*
X161552000Y-66454819D02*
X161313905Y-66454819D01*
X162837714Y-66454819D02*
X162266286Y-66454819D01*
X162552000Y-66454819D02*
X162552000Y-65454819D01*
X162552000Y-65454819D02*
X162456762Y-65597676D01*
X162456762Y-65597676D02*
X162361524Y-65692914D01*
X162361524Y-65692914D02*
X162266286Y-65740533D01*
X161833333Y-70454819D02*
X161500000Y-69978628D01*
X161261905Y-70454819D02*
X161261905Y-69454819D01*
X161261905Y-69454819D02*
X161642857Y-69454819D01*
X161642857Y-69454819D02*
X161738095Y-69502438D01*
X161738095Y-69502438D02*
X161785714Y-69550057D01*
X161785714Y-69550057D02*
X161833333Y-69645295D01*
X161833333Y-69645295D02*
X161833333Y-69788152D01*
X161833333Y-69788152D02*
X161785714Y-69883390D01*
X161785714Y-69883390D02*
X161738095Y-69931009D01*
X161738095Y-69931009D02*
X161642857Y-69978628D01*
X161642857Y-69978628D02*
X161261905Y-69978628D01*
X162214286Y-69550057D02*
X162261905Y-69502438D01*
X162261905Y-69502438D02*
X162357143Y-69454819D01*
X162357143Y-69454819D02*
X162595238Y-69454819D01*
X162595238Y-69454819D02*
X162690476Y-69502438D01*
X162690476Y-69502438D02*
X162738095Y-69550057D01*
X162738095Y-69550057D02*
X162785714Y-69645295D01*
X162785714Y-69645295D02*
X162785714Y-69740533D01*
X162785714Y-69740533D02*
X162738095Y-69883390D01*
X162738095Y-69883390D02*
X162166667Y-70454819D01*
X162166667Y-70454819D02*
X162785714Y-70454819D01*
X132833333Y-46179580D02*
X132785714Y-46227200D01*
X132785714Y-46227200D02*
X132642857Y-46274819D01*
X132642857Y-46274819D02*
X132547619Y-46274819D01*
X132547619Y-46274819D02*
X132404762Y-46227200D01*
X132404762Y-46227200D02*
X132309524Y-46131961D01*
X132309524Y-46131961D02*
X132261905Y-46036723D01*
X132261905Y-46036723D02*
X132214286Y-45846247D01*
X132214286Y-45846247D02*
X132214286Y-45703390D01*
X132214286Y-45703390D02*
X132261905Y-45512914D01*
X132261905Y-45512914D02*
X132309524Y-45417676D01*
X132309524Y-45417676D02*
X132404762Y-45322438D01*
X132404762Y-45322438D02*
X132547619Y-45274819D01*
X132547619Y-45274819D02*
X132642857Y-45274819D01*
X132642857Y-45274819D02*
X132785714Y-45322438D01*
X132785714Y-45322438D02*
X132833333Y-45370057D01*
X133690476Y-45608152D02*
X133690476Y-46274819D01*
X133452381Y-45227200D02*
X133214286Y-45941485D01*
X133214286Y-45941485D02*
X133833333Y-45941485D01*
X120679580Y-66092857D02*
X120727200Y-66140476D01*
X120727200Y-66140476D02*
X120774819Y-66283333D01*
X120774819Y-66283333D02*
X120774819Y-66378571D01*
X120774819Y-66378571D02*
X120727200Y-66521428D01*
X120727200Y-66521428D02*
X120631961Y-66616666D01*
X120631961Y-66616666D02*
X120536723Y-66664285D01*
X120536723Y-66664285D02*
X120346247Y-66711904D01*
X120346247Y-66711904D02*
X120203390Y-66711904D01*
X120203390Y-66711904D02*
X120012914Y-66664285D01*
X120012914Y-66664285D02*
X119917676Y-66616666D01*
X119917676Y-66616666D02*
X119822438Y-66521428D01*
X119822438Y-66521428D02*
X119774819Y-66378571D01*
X119774819Y-66378571D02*
X119774819Y-66283333D01*
X119774819Y-66283333D02*
X119822438Y-66140476D01*
X119822438Y-66140476D02*
X119870057Y-66092857D01*
X120774819Y-65140476D02*
X120774819Y-65711904D01*
X120774819Y-65426190D02*
X119774819Y-65426190D01*
X119774819Y-65426190D02*
X119917676Y-65521428D01*
X119917676Y-65521428D02*
X120012914Y-65616666D01*
X120012914Y-65616666D02*
X120060533Y-65711904D01*
X119774819Y-64807142D02*
X119774819Y-64188095D01*
X119774819Y-64188095D02*
X120155771Y-64521428D01*
X120155771Y-64521428D02*
X120155771Y-64378571D01*
X120155771Y-64378571D02*
X120203390Y-64283333D01*
X120203390Y-64283333D02*
X120251009Y-64235714D01*
X120251009Y-64235714D02*
X120346247Y-64188095D01*
X120346247Y-64188095D02*
X120584342Y-64188095D01*
X120584342Y-64188095D02*
X120679580Y-64235714D01*
X120679580Y-64235714D02*
X120727200Y-64283333D01*
X120727200Y-64283333D02*
X120774819Y-64378571D01*
X120774819Y-64378571D02*
X120774819Y-64664285D01*
X120774819Y-64664285D02*
X120727200Y-64759523D01*
X120727200Y-64759523D02*
X120679580Y-64807142D01*
X129217142Y-68783580D02*
X129169523Y-68831200D01*
X129169523Y-68831200D02*
X129026666Y-68878819D01*
X129026666Y-68878819D02*
X128931428Y-68878819D01*
X128931428Y-68878819D02*
X128788571Y-68831200D01*
X128788571Y-68831200D02*
X128693333Y-68735961D01*
X128693333Y-68735961D02*
X128645714Y-68640723D01*
X128645714Y-68640723D02*
X128598095Y-68450247D01*
X128598095Y-68450247D02*
X128598095Y-68307390D01*
X128598095Y-68307390D02*
X128645714Y-68116914D01*
X128645714Y-68116914D02*
X128693333Y-68021676D01*
X128693333Y-68021676D02*
X128788571Y-67926438D01*
X128788571Y-67926438D02*
X128931428Y-67878819D01*
X128931428Y-67878819D02*
X129026666Y-67878819D01*
X129026666Y-67878819D02*
X129169523Y-67926438D01*
X129169523Y-67926438D02*
X129217142Y-67974057D01*
X130169523Y-68878819D02*
X129598095Y-68878819D01*
X129883809Y-68878819D02*
X129883809Y-67878819D01*
X129883809Y-67878819D02*
X129788571Y-68021676D01*
X129788571Y-68021676D02*
X129693333Y-68116914D01*
X129693333Y-68116914D02*
X129598095Y-68164533D01*
X130788571Y-67878819D02*
X130883809Y-67878819D01*
X130883809Y-67878819D02*
X130979047Y-67926438D01*
X130979047Y-67926438D02*
X131026666Y-67974057D01*
X131026666Y-67974057D02*
X131074285Y-68069295D01*
X131074285Y-68069295D02*
X131121904Y-68259771D01*
X131121904Y-68259771D02*
X131121904Y-68497866D01*
X131121904Y-68497866D02*
X131074285Y-68688342D01*
X131074285Y-68688342D02*
X131026666Y-68783580D01*
X131026666Y-68783580D02*
X130979047Y-68831200D01*
X130979047Y-68831200D02*
X130883809Y-68878819D01*
X130883809Y-68878819D02*
X130788571Y-68878819D01*
X130788571Y-68878819D02*
X130693333Y-68831200D01*
X130693333Y-68831200D02*
X130645714Y-68783580D01*
X130645714Y-68783580D02*
X130598095Y-68688342D01*
X130598095Y-68688342D02*
X130550476Y-68497866D01*
X130550476Y-68497866D02*
X130550476Y-68259771D01*
X130550476Y-68259771D02*
X130598095Y-68069295D01*
X130598095Y-68069295D02*
X130645714Y-67974057D01*
X130645714Y-67974057D02*
X130693333Y-67926438D01*
X130693333Y-67926438D02*
X130788571Y-67878819D01*
X129693333Y-61283580D02*
X129645714Y-61331200D01*
X129645714Y-61331200D02*
X129502857Y-61378819D01*
X129502857Y-61378819D02*
X129407619Y-61378819D01*
X129407619Y-61378819D02*
X129264762Y-61331200D01*
X129264762Y-61331200D02*
X129169524Y-61235961D01*
X129169524Y-61235961D02*
X129121905Y-61140723D01*
X129121905Y-61140723D02*
X129074286Y-60950247D01*
X129074286Y-60950247D02*
X129074286Y-60807390D01*
X129074286Y-60807390D02*
X129121905Y-60616914D01*
X129121905Y-60616914D02*
X129169524Y-60521676D01*
X129169524Y-60521676D02*
X129264762Y-60426438D01*
X129264762Y-60426438D02*
X129407619Y-60378819D01*
X129407619Y-60378819D02*
X129502857Y-60378819D01*
X129502857Y-60378819D02*
X129645714Y-60426438D01*
X129645714Y-60426438D02*
X129693333Y-60474057D01*
X130264762Y-60807390D02*
X130169524Y-60759771D01*
X130169524Y-60759771D02*
X130121905Y-60712152D01*
X130121905Y-60712152D02*
X130074286Y-60616914D01*
X130074286Y-60616914D02*
X130074286Y-60569295D01*
X130074286Y-60569295D02*
X130121905Y-60474057D01*
X130121905Y-60474057D02*
X130169524Y-60426438D01*
X130169524Y-60426438D02*
X130264762Y-60378819D01*
X130264762Y-60378819D02*
X130455238Y-60378819D01*
X130455238Y-60378819D02*
X130550476Y-60426438D01*
X130550476Y-60426438D02*
X130598095Y-60474057D01*
X130598095Y-60474057D02*
X130645714Y-60569295D01*
X130645714Y-60569295D02*
X130645714Y-60616914D01*
X130645714Y-60616914D02*
X130598095Y-60712152D01*
X130598095Y-60712152D02*
X130550476Y-60759771D01*
X130550476Y-60759771D02*
X130455238Y-60807390D01*
X130455238Y-60807390D02*
X130264762Y-60807390D01*
X130264762Y-60807390D02*
X130169524Y-60855009D01*
X130169524Y-60855009D02*
X130121905Y-60902628D01*
X130121905Y-60902628D02*
X130074286Y-60997866D01*
X130074286Y-60997866D02*
X130074286Y-61188342D01*
X130074286Y-61188342D02*
X130121905Y-61283580D01*
X130121905Y-61283580D02*
X130169524Y-61331200D01*
X130169524Y-61331200D02*
X130264762Y-61378819D01*
X130264762Y-61378819D02*
X130455238Y-61378819D01*
X130455238Y-61378819D02*
X130550476Y-61331200D01*
X130550476Y-61331200D02*
X130598095Y-61283580D01*
X130598095Y-61283580D02*
X130645714Y-61188342D01*
X130645714Y-61188342D02*
X130645714Y-60997866D01*
X130645714Y-60997866D02*
X130598095Y-60902628D01*
X130598095Y-60902628D02*
X130550476Y-60855009D01*
X130550476Y-60855009D02*
X130455238Y-60807390D01*
X166454819Y-47238094D02*
X165454819Y-47238094D01*
X165454819Y-47238094D02*
X165454819Y-46999999D01*
X165454819Y-46999999D02*
X165502438Y-46857142D01*
X165502438Y-46857142D02*
X165597676Y-46761904D01*
X165597676Y-46761904D02*
X165692914Y-46714285D01*
X165692914Y-46714285D02*
X165883390Y-46666666D01*
X165883390Y-46666666D02*
X166026247Y-46666666D01*
X166026247Y-46666666D02*
X166216723Y-46714285D01*
X166216723Y-46714285D02*
X166311961Y-46761904D01*
X166311961Y-46761904D02*
X166407200Y-46857142D01*
X166407200Y-46857142D02*
X166454819Y-46999999D01*
X166454819Y-46999999D02*
X166454819Y-47238094D01*
X165550057Y-46285713D02*
X165502438Y-46238094D01*
X165502438Y-46238094D02*
X165454819Y-46142856D01*
X165454819Y-46142856D02*
X165454819Y-45904761D01*
X165454819Y-45904761D02*
X165502438Y-45809523D01*
X165502438Y-45809523D02*
X165550057Y-45761904D01*
X165550057Y-45761904D02*
X165645295Y-45714285D01*
X165645295Y-45714285D02*
X165740533Y-45714285D01*
X165740533Y-45714285D02*
X165883390Y-45761904D01*
X165883390Y-45761904D02*
X166454819Y-46333332D01*
X166454819Y-46333332D02*
X166454819Y-45714285D01*
X150454819Y-60261904D02*
X151264342Y-60261904D01*
X151264342Y-60261904D02*
X151359580Y-60214285D01*
X151359580Y-60214285D02*
X151407200Y-60166666D01*
X151407200Y-60166666D02*
X151454819Y-60071428D01*
X151454819Y-60071428D02*
X151454819Y-59880952D01*
X151454819Y-59880952D02*
X151407200Y-59785714D01*
X151407200Y-59785714D02*
X151359580Y-59738095D01*
X151359580Y-59738095D02*
X151264342Y-59690476D01*
X151264342Y-59690476D02*
X150454819Y-59690476D01*
X150550057Y-59261904D02*
X150502438Y-59214285D01*
X150502438Y-59214285D02*
X150454819Y-59119047D01*
X150454819Y-59119047D02*
X150454819Y-58880952D01*
X150454819Y-58880952D02*
X150502438Y-58785714D01*
X150502438Y-58785714D02*
X150550057Y-58738095D01*
X150550057Y-58738095D02*
X150645295Y-58690476D01*
X150645295Y-58690476D02*
X150740533Y-58690476D01*
X150740533Y-58690476D02*
X150883390Y-58738095D01*
X150883390Y-58738095D02*
X151454819Y-59309523D01*
X151454819Y-59309523D02*
X151454819Y-58690476D01*
X170333333Y-45454819D02*
X170000000Y-44978628D01*
X169761905Y-45454819D02*
X169761905Y-44454819D01*
X169761905Y-44454819D02*
X170142857Y-44454819D01*
X170142857Y-44454819D02*
X170238095Y-44502438D01*
X170238095Y-44502438D02*
X170285714Y-44550057D01*
X170285714Y-44550057D02*
X170333333Y-44645295D01*
X170333333Y-44645295D02*
X170333333Y-44788152D01*
X170333333Y-44788152D02*
X170285714Y-44883390D01*
X170285714Y-44883390D02*
X170238095Y-44931009D01*
X170238095Y-44931009D02*
X170142857Y-44978628D01*
X170142857Y-44978628D02*
X169761905Y-44978628D01*
X170666667Y-44454819D02*
X171285714Y-44454819D01*
X171285714Y-44454819D02*
X170952381Y-44835771D01*
X170952381Y-44835771D02*
X171095238Y-44835771D01*
X171095238Y-44835771D02*
X171190476Y-44883390D01*
X171190476Y-44883390D02*
X171238095Y-44931009D01*
X171238095Y-44931009D02*
X171285714Y-45026247D01*
X171285714Y-45026247D02*
X171285714Y-45264342D01*
X171285714Y-45264342D02*
X171238095Y-45359580D01*
X171238095Y-45359580D02*
X171190476Y-45407200D01*
X171190476Y-45407200D02*
X171095238Y-45454819D01*
X171095238Y-45454819D02*
X170809524Y-45454819D01*
X170809524Y-45454819D02*
X170714286Y-45407200D01*
X170714286Y-45407200D02*
X170666667Y-45359580D01*
X134575595Y-48954819D02*
X134575595Y-49764342D01*
X134575595Y-49764342D02*
X134623214Y-49859580D01*
X134623214Y-49859580D02*
X134670833Y-49907200D01*
X134670833Y-49907200D02*
X134766071Y-49954819D01*
X134766071Y-49954819D02*
X134956547Y-49954819D01*
X134956547Y-49954819D02*
X135051785Y-49907200D01*
X135051785Y-49907200D02*
X135099404Y-49859580D01*
X135099404Y-49859580D02*
X135147023Y-49764342D01*
X135147023Y-49764342D02*
X135147023Y-48954819D01*
X136147023Y-49954819D02*
X135575595Y-49954819D01*
X135861309Y-49954819D02*
X135861309Y-48954819D01*
X135861309Y-48954819D02*
X135766071Y-49097676D01*
X135766071Y-49097676D02*
X135670833Y-49192914D01*
X135670833Y-49192914D02*
X135575595Y-49240533D01*
X161738095Y-55954819D02*
X162309523Y-55954819D01*
X162023809Y-56954819D02*
X162023809Y-55954819D01*
X162642857Y-56954819D02*
X162642857Y-55954819D01*
X162642857Y-55954819D02*
X163023809Y-55954819D01*
X163023809Y-55954819D02*
X163119047Y-56002438D01*
X163119047Y-56002438D02*
X163166666Y-56050057D01*
X163166666Y-56050057D02*
X163214285Y-56145295D01*
X163214285Y-56145295D02*
X163214285Y-56288152D01*
X163214285Y-56288152D02*
X163166666Y-56383390D01*
X163166666Y-56383390D02*
X163119047Y-56431009D01*
X163119047Y-56431009D02*
X163023809Y-56478628D01*
X163023809Y-56478628D02*
X162642857Y-56478628D01*
X163595238Y-56050057D02*
X163642857Y-56002438D01*
X163642857Y-56002438D02*
X163738095Y-55954819D01*
X163738095Y-55954819D02*
X163976190Y-55954819D01*
X163976190Y-55954819D02*
X164071428Y-56002438D01*
X164071428Y-56002438D02*
X164119047Y-56050057D01*
X164119047Y-56050057D02*
X164166666Y-56145295D01*
X164166666Y-56145295D02*
X164166666Y-56240533D01*
X164166666Y-56240533D02*
X164119047Y-56383390D01*
X164119047Y-56383390D02*
X163547619Y-56954819D01*
X163547619Y-56954819D02*
X164166666Y-56954819D01*
X129743333Y-64783580D02*
X129695714Y-64831200D01*
X129695714Y-64831200D02*
X129552857Y-64878819D01*
X129552857Y-64878819D02*
X129457619Y-64878819D01*
X129457619Y-64878819D02*
X129314762Y-64831200D01*
X129314762Y-64831200D02*
X129219524Y-64735961D01*
X129219524Y-64735961D02*
X129171905Y-64640723D01*
X129171905Y-64640723D02*
X129124286Y-64450247D01*
X129124286Y-64450247D02*
X129124286Y-64307390D01*
X129124286Y-64307390D02*
X129171905Y-64116914D01*
X129171905Y-64116914D02*
X129219524Y-64021676D01*
X129219524Y-64021676D02*
X129314762Y-63926438D01*
X129314762Y-63926438D02*
X129457619Y-63878819D01*
X129457619Y-63878819D02*
X129552857Y-63878819D01*
X129552857Y-63878819D02*
X129695714Y-63926438D01*
X129695714Y-63926438D02*
X129743333Y-63974057D01*
X130219524Y-64878819D02*
X130410000Y-64878819D01*
X130410000Y-64878819D02*
X130505238Y-64831200D01*
X130505238Y-64831200D02*
X130552857Y-64783580D01*
X130552857Y-64783580D02*
X130648095Y-64640723D01*
X130648095Y-64640723D02*
X130695714Y-64450247D01*
X130695714Y-64450247D02*
X130695714Y-64069295D01*
X130695714Y-64069295D02*
X130648095Y-63974057D01*
X130648095Y-63974057D02*
X130600476Y-63926438D01*
X130600476Y-63926438D02*
X130505238Y-63878819D01*
X130505238Y-63878819D02*
X130314762Y-63878819D01*
X130314762Y-63878819D02*
X130219524Y-63926438D01*
X130219524Y-63926438D02*
X130171905Y-63974057D01*
X130171905Y-63974057D02*
X130124286Y-64069295D01*
X130124286Y-64069295D02*
X130124286Y-64307390D01*
X130124286Y-64307390D02*
X130171905Y-64402628D01*
X130171905Y-64402628D02*
X130219524Y-64450247D01*
X130219524Y-64450247D02*
X130314762Y-64497866D01*
X130314762Y-64497866D02*
X130505238Y-64497866D01*
X130505238Y-64497866D02*
X130600476Y-64450247D01*
X130600476Y-64450247D02*
X130648095Y-64402628D01*
X130648095Y-64402628D02*
X130695714Y-64307390D01*
X111453628Y-56486190D02*
X111929819Y-56486190D01*
X110929819Y-56819523D02*
X111453628Y-56486190D01*
X111453628Y-56486190D02*
X110929819Y-56152857D01*
X111929819Y-55295714D02*
X111929819Y-55867142D01*
X111929819Y-55581428D02*
X110929819Y-55581428D01*
X110929819Y-55581428D02*
X111072676Y-55676666D01*
X111072676Y-55676666D02*
X111167914Y-55771904D01*
X111167914Y-55771904D02*
X111215533Y-55867142D01*
X126859580Y-51166666D02*
X126907200Y-51214285D01*
X126907200Y-51214285D02*
X126954819Y-51357142D01*
X126954819Y-51357142D02*
X126954819Y-51452380D01*
X126954819Y-51452380D02*
X126907200Y-51595237D01*
X126907200Y-51595237D02*
X126811961Y-51690475D01*
X126811961Y-51690475D02*
X126716723Y-51738094D01*
X126716723Y-51738094D02*
X126526247Y-51785713D01*
X126526247Y-51785713D02*
X126383390Y-51785713D01*
X126383390Y-51785713D02*
X126192914Y-51738094D01*
X126192914Y-51738094D02*
X126097676Y-51690475D01*
X126097676Y-51690475D02*
X126002438Y-51595237D01*
X126002438Y-51595237D02*
X125954819Y-51452380D01*
X125954819Y-51452380D02*
X125954819Y-51357142D01*
X125954819Y-51357142D02*
X126002438Y-51214285D01*
X126002438Y-51214285D02*
X126050057Y-51166666D01*
X125954819Y-50833332D02*
X125954819Y-50214285D01*
X125954819Y-50214285D02*
X126335771Y-50547618D01*
X126335771Y-50547618D02*
X126335771Y-50404761D01*
X126335771Y-50404761D02*
X126383390Y-50309523D01*
X126383390Y-50309523D02*
X126431009Y-50261904D01*
X126431009Y-50261904D02*
X126526247Y-50214285D01*
X126526247Y-50214285D02*
X126764342Y-50214285D01*
X126764342Y-50214285D02*
X126859580Y-50261904D01*
X126859580Y-50261904D02*
X126907200Y-50309523D01*
X126907200Y-50309523D02*
X126954819Y-50404761D01*
X126954819Y-50404761D02*
X126954819Y-50690475D01*
X126954819Y-50690475D02*
X126907200Y-50785713D01*
X126907200Y-50785713D02*
X126859580Y-50833332D01*
X141679580Y-51716666D02*
X141727200Y-51764285D01*
X141727200Y-51764285D02*
X141774819Y-51907142D01*
X141774819Y-51907142D02*
X141774819Y-52002380D01*
X141774819Y-52002380D02*
X141727200Y-52145237D01*
X141727200Y-52145237D02*
X141631961Y-52240475D01*
X141631961Y-52240475D02*
X141536723Y-52288094D01*
X141536723Y-52288094D02*
X141346247Y-52335713D01*
X141346247Y-52335713D02*
X141203390Y-52335713D01*
X141203390Y-52335713D02*
X141012914Y-52288094D01*
X141012914Y-52288094D02*
X140917676Y-52240475D01*
X140917676Y-52240475D02*
X140822438Y-52145237D01*
X140822438Y-52145237D02*
X140774819Y-52002380D01*
X140774819Y-52002380D02*
X140774819Y-51907142D01*
X140774819Y-51907142D02*
X140822438Y-51764285D01*
X140822438Y-51764285D02*
X140870057Y-51716666D01*
X140774819Y-50811904D02*
X140774819Y-51288094D01*
X140774819Y-51288094D02*
X141251009Y-51335713D01*
X141251009Y-51335713D02*
X141203390Y-51288094D01*
X141203390Y-51288094D02*
X141155771Y-51192856D01*
X141155771Y-51192856D02*
X141155771Y-50954761D01*
X141155771Y-50954761D02*
X141203390Y-50859523D01*
X141203390Y-50859523D02*
X141251009Y-50811904D01*
X141251009Y-50811904D02*
X141346247Y-50764285D01*
X141346247Y-50764285D02*
X141584342Y-50764285D01*
X141584342Y-50764285D02*
X141679580Y-50811904D01*
X141679580Y-50811904D02*
X141727200Y-50859523D01*
X141727200Y-50859523D02*
X141774819Y-50954761D01*
X141774819Y-50954761D02*
X141774819Y-51192856D01*
X141774819Y-51192856D02*
X141727200Y-51288094D01*
X141727200Y-51288094D02*
X141679580Y-51335713D01*
X124359580Y-59666666D02*
X124407200Y-59714285D01*
X124407200Y-59714285D02*
X124454819Y-59857142D01*
X124454819Y-59857142D02*
X124454819Y-59952380D01*
X124454819Y-59952380D02*
X124407200Y-60095237D01*
X124407200Y-60095237D02*
X124311961Y-60190475D01*
X124311961Y-60190475D02*
X124216723Y-60238094D01*
X124216723Y-60238094D02*
X124026247Y-60285713D01*
X124026247Y-60285713D02*
X123883390Y-60285713D01*
X123883390Y-60285713D02*
X123692914Y-60238094D01*
X123692914Y-60238094D02*
X123597676Y-60190475D01*
X123597676Y-60190475D02*
X123502438Y-60095237D01*
X123502438Y-60095237D02*
X123454819Y-59952380D01*
X123454819Y-59952380D02*
X123454819Y-59857142D01*
X123454819Y-59857142D02*
X123502438Y-59714285D01*
X123502438Y-59714285D02*
X123550057Y-59666666D01*
X123550057Y-59285713D02*
X123502438Y-59238094D01*
X123502438Y-59238094D02*
X123454819Y-59142856D01*
X123454819Y-59142856D02*
X123454819Y-58904761D01*
X123454819Y-58904761D02*
X123502438Y-58809523D01*
X123502438Y-58809523D02*
X123550057Y-58761904D01*
X123550057Y-58761904D02*
X123645295Y-58714285D01*
X123645295Y-58714285D02*
X123740533Y-58714285D01*
X123740533Y-58714285D02*
X123883390Y-58761904D01*
X123883390Y-58761904D02*
X124454819Y-59333332D01*
X124454819Y-59333332D02*
X124454819Y-58714285D01*
X153535142Y-55539580D02*
X153487523Y-55587200D01*
X153487523Y-55587200D02*
X153344666Y-55634819D01*
X153344666Y-55634819D02*
X153249428Y-55634819D01*
X153249428Y-55634819D02*
X153106571Y-55587200D01*
X153106571Y-55587200D02*
X153011333Y-55491961D01*
X153011333Y-55491961D02*
X152963714Y-55396723D01*
X152963714Y-55396723D02*
X152916095Y-55206247D01*
X152916095Y-55206247D02*
X152916095Y-55063390D01*
X152916095Y-55063390D02*
X152963714Y-54872914D01*
X152963714Y-54872914D02*
X153011333Y-54777676D01*
X153011333Y-54777676D02*
X153106571Y-54682438D01*
X153106571Y-54682438D02*
X153249428Y-54634819D01*
X153249428Y-54634819D02*
X153344666Y-54634819D01*
X153344666Y-54634819D02*
X153487523Y-54682438D01*
X153487523Y-54682438D02*
X153535142Y-54730057D01*
X154487523Y-55634819D02*
X153916095Y-55634819D01*
X154201809Y-55634819D02*
X154201809Y-54634819D01*
X154201809Y-54634819D02*
X154106571Y-54777676D01*
X154106571Y-54777676D02*
X154011333Y-54872914D01*
X154011333Y-54872914D02*
X153916095Y-54920533D01*
X155439904Y-55634819D02*
X154868476Y-55634819D01*
X155154190Y-55634819D02*
X155154190Y-54634819D01*
X155154190Y-54634819D02*
X155058952Y-54777676D01*
X155058952Y-54777676D02*
X154963714Y-54872914D01*
X154963714Y-54872914D02*
X154868476Y-54920533D01*
D12*
%TO.C,C7*%
X142238748Y-60765000D02*
X142761252Y-60765000D01*
X142238748Y-62235000D02*
X142761252Y-62235000D01*
%TO.C,C1*%
X121265000Y-52288748D02*
X121265000Y-52811252D01*
X122735000Y-52288748D02*
X122735000Y-52811252D01*
%TO.C,C12*%
X154761252Y-64765000D02*
X154238748Y-64765000D01*
X154761252Y-66235000D02*
X154238748Y-66235000D01*
%TO.C,J2*%
X151040000Y-46410000D02*
X151040000Y-42050000D01*
X153540000Y-46410000D02*
X151040000Y-46410000D01*
X156400000Y-46610000D02*
X157060000Y-46610000D01*
X157060000Y-46410000D02*
X157060000Y-46610000D01*
X159560000Y-46410000D02*
X157060000Y-46410000D01*
X159560000Y-46410000D02*
X159560000Y-42050000D01*
%TO.C,TP1*%
X158300000Y-50300000D02*
X159700000Y-50300000D01*
X158300000Y-51700000D02*
X158300000Y-50300000D01*
X159700000Y-50300000D02*
X159700000Y-51700000D01*
X159700000Y-51700000D02*
X158300000Y-51700000D01*
%TO.C,J1*%
X96900000Y-53040000D02*
X102900000Y-53040000D01*
X96900000Y-53800000D02*
X96900000Y-53040000D01*
X96900000Y-55580000D02*
X102900000Y-55580000D01*
X96900000Y-56340000D02*
X96900000Y-55580000D01*
X96900000Y-58120000D02*
X102900000Y-58120000D01*
X96900000Y-58880000D02*
X96900000Y-58120000D01*
X102900000Y-52090000D02*
X102900000Y-59830000D01*
X102900000Y-53800000D02*
X96900000Y-53800000D01*
X102900000Y-56340000D02*
X96900000Y-56340000D01*
X102900000Y-58220000D02*
X96900000Y-58220000D01*
X102900000Y-58340000D02*
X96900000Y-58340000D01*
X102900000Y-58460000D02*
X96900000Y-58460000D01*
X102900000Y-58580000D02*
X96900000Y-58580000D01*
X102900000Y-58700000D02*
X96900000Y-58700000D01*
X102900000Y-58820000D02*
X96900000Y-58820000D01*
X102900000Y-58880000D02*
X96900000Y-58880000D01*
X102900000Y-59830000D02*
X105560000Y-59830000D01*
X105560000Y-52090000D02*
X102900000Y-52090000D01*
X105560000Y-54690000D02*
X102900000Y-54690000D01*
X105560000Y-57230000D02*
X102900000Y-57230000D01*
X105560000Y-59830000D02*
X105560000Y-52090000D01*
X105890000Y-58120000D02*
X105560000Y-58120000D01*
X105890000Y-58880000D02*
X105560000Y-58880000D01*
X105957071Y-53040000D02*
X105560000Y-53040000D01*
X105957071Y-53800000D02*
X105560000Y-53800000D01*
X105957071Y-55580000D02*
X105560000Y-55580000D01*
X105957071Y-56340000D02*
X105560000Y-56340000D01*
X108270000Y-58500000D02*
X108270000Y-59770000D01*
X108270000Y-59770000D02*
X107000000Y-59770000D01*
%TO.C,JTAG*%
X136850000Y-42670000D02*
X136850000Y-45330000D01*
X144530000Y-42670000D02*
X136850000Y-42670000D01*
X144530000Y-42670000D02*
X144530000Y-45330000D01*
X144530000Y-45330000D02*
X136850000Y-45330000D01*
X145800000Y-42670000D02*
X147130000Y-42670000D01*
X147130000Y-42670000D02*
X147130000Y-44000000D01*
%TO.C,C6*%
X138261252Y-63265000D02*
X137738748Y-63265000D01*
X138261252Y-64735000D02*
X137738748Y-64735000D01*
%TO.C,D1*%
X161052000Y-64460000D02*
X163737000Y-64460000D01*
X163737000Y-62540000D02*
X161052000Y-62540000D01*
X163737000Y-64460000D02*
X163737000Y-62540000D01*
%TO.C,R2*%
X162227064Y-67265000D02*
X161772936Y-67265000D01*
X162227064Y-68735000D02*
X161772936Y-68735000D01*
%TO.C,C4*%
X132738748Y-46765000D02*
X133261252Y-46765000D01*
X132738748Y-48235000D02*
X133261252Y-48235000D01*
%TO.C,C13*%
X121265000Y-65711252D02*
X121265000Y-65188748D01*
X122735000Y-65711252D02*
X122735000Y-65188748D01*
%TO.C,C10*%
X129598748Y-69369000D02*
X130121252Y-69369000D01*
X129598748Y-70839000D02*
X130121252Y-70839000D01*
%TO.C,C8*%
X129598748Y-61869000D02*
X130121252Y-61869000D01*
X129598748Y-63339000D02*
X130121252Y-63339000D01*
%TO.C,D2*%
X163040000Y-44877500D02*
X163040000Y-47562500D01*
X164960000Y-44877500D02*
X163040000Y-44877500D01*
X164960000Y-47562500D02*
X164960000Y-44877500D01*
%TO.C,U2*%
X152140000Y-60720000D02*
X152140000Y-58140000D01*
X153120000Y-58140000D02*
X152140000Y-58140000D01*
X155880000Y-58140000D02*
X156860000Y-58140000D01*
X156860000Y-58140000D02*
X156860000Y-60860000D01*
X152290000Y-61270000D02*
X151960000Y-61510000D01*
X151960000Y-61030000D01*
X152290000Y-61270000D01*
G36*
X152290000Y-61270000D02*
G01*
X151960000Y-61510000D01*
X151960000Y-61030000D01*
X152290000Y-61270000D01*
G37*
%TO.C,R3*%
X167667000Y-46709064D02*
X167667000Y-46254936D01*
X169137000Y-46709064D02*
X169137000Y-46254936D01*
%TO.C,U1*%
X131727500Y-52140000D02*
X131727500Y-52590000D01*
X131727500Y-59360000D02*
X131727500Y-58910000D01*
X132177500Y-52140000D02*
X131727500Y-52140000D01*
X132177500Y-59360000D02*
X131727500Y-59360000D01*
X138497500Y-52140000D02*
X138947500Y-52140000D01*
X138497500Y-59360000D02*
X138947500Y-59360000D01*
X138947500Y-52140000D02*
X138947500Y-52590000D01*
X138947500Y-59360000D02*
X138947500Y-58910000D01*
X131137500Y-52590000D02*
X130797500Y-52120000D01*
X131477500Y-52120000D01*
X131137500Y-52590000D01*
G36*
X131137500Y-52590000D02*
G01*
X130797500Y-52120000D01*
X131477500Y-52120000D01*
X131137500Y-52590000D01*
G37*
%TO.C,TP2*%
X162300000Y-57800000D02*
X163700000Y-57800000D01*
X162300000Y-59200000D02*
X162300000Y-57800000D01*
X163700000Y-57800000D02*
X163700000Y-59200000D01*
X163700000Y-59200000D02*
X162300000Y-59200000D01*
%TO.C,C9*%
X129648748Y-65369000D02*
X130171252Y-65369000D01*
X129648748Y-66839000D02*
X130171252Y-66839000D01*
%TO.C,Y1*%
X112475000Y-59210000D02*
X112475000Y-52810000D01*
X117525000Y-59210000D02*
X117525000Y-52810000D01*
X112475000Y-52810000D02*
G75*
G02*
X117525000Y-52810000I2525000J0D01*
G01*
X117525000Y-59210000D02*
G75*
G02*
X112475000Y-59210000I-2525000J0D01*
G01*
%TO.C,C3*%
X127765000Y-51261252D02*
X127765000Y-50738748D01*
X129235000Y-51261252D02*
X129235000Y-50738748D01*
%TO.C,C5*%
X142265000Y-51811252D02*
X142265000Y-51288748D01*
X143735000Y-51811252D02*
X143735000Y-51288748D01*
%TO.C,C2*%
X121265000Y-59238748D02*
X121265000Y-59761252D01*
X122735000Y-59238748D02*
X122735000Y-59761252D01*
%TO.C,C11*%
X154439252Y-52765000D02*
X153916748Y-52765000D01*
X154439252Y-54235000D02*
X153916748Y-54235000D01*
%TD*%
%LPC*%
D13*
%TO.C,C7*%
X141550000Y-61500000D03*
X143450000Y-61500000D03*
%TD*%
D14*
%TO.C,C1*%
X122000000Y-51600000D03*
X122000000Y-53500000D03*
%TD*%
D15*
%TO.C,C12*%
X155450000Y-65500000D03*
X153550000Y-65500000D03*
%TD*%
D16*
%TO.C,J2*%
X156600000Y-45675000D03*
X155950000Y-45675000D03*
X155300000Y-45675000D03*
X154650000Y-45675000D03*
X154000000Y-45675000D03*
D17*
X158600000Y-43000000D03*
D18*
X158500000Y-45450000D03*
D19*
X156500000Y-43000000D03*
X154100000Y-43000000D03*
D18*
X152100000Y-45450000D03*
D17*
X152000000Y-43000000D03*
%TD*%
D20*
%TO.C,TP1*%
X159000000Y-51000000D03*
%TD*%
D21*
%TO.C,J1*%
X107000000Y-58500000D03*
D22*
X107000000Y-55960000D03*
X107000000Y-53420000D03*
%TD*%
D21*
%TO.C,JTAG*%
X145800000Y-44000000D03*
D22*
X143260000Y-44000000D03*
X140720000Y-44000000D03*
X138180000Y-44000000D03*
%TD*%
D15*
%TO.C,C6*%
X138950000Y-64000000D03*
X137050000Y-64000000D03*
%TD*%
D23*
%TO.C,D1*%
X162989500Y-63500000D03*
X161114500Y-63500000D03*
%TD*%
D24*
%TO.C,R2*%
X162912500Y-68000000D03*
X161087500Y-68000000D03*
%TD*%
D13*
%TO.C,C4*%
X132050000Y-47500000D03*
X133950000Y-47500000D03*
%TD*%
D25*
%TO.C,C13*%
X122000000Y-66400000D03*
X122000000Y-64500000D03*
%TD*%
D13*
%TO.C,C10*%
X128910000Y-70104000D03*
X130810000Y-70104000D03*
%TD*%
%TO.C,C8*%
X128910000Y-62604000D03*
X130810000Y-62604000D03*
%TD*%
D26*
%TO.C,D2*%
X164000000Y-45625000D03*
X164000000Y-47500000D03*
%TD*%
D27*
%TO.C,U2*%
X153000000Y-61450000D03*
D28*
X154500000Y-61362500D03*
D27*
X156000000Y-61450000D03*
%TD*%
D29*
%TO.C,R3*%
X168402000Y-47394500D03*
X168402000Y-45569500D03*
%TD*%
D30*
%TO.C,U1*%
X131175000Y-53000000D03*
X131175000Y-53500000D03*
X131175000Y-54000000D03*
X131175000Y-54500000D03*
X131175000Y-55000000D03*
X131175000Y-55500000D03*
X131175000Y-56000000D03*
X131175000Y-56500000D03*
X131175000Y-57000000D03*
X131175000Y-57500000D03*
X131175000Y-58000000D03*
X131175000Y-58500000D03*
D31*
X132587500Y-59912500D03*
X133087500Y-59912500D03*
X133587500Y-59912500D03*
X134087500Y-59912500D03*
X134587500Y-59912500D03*
X135087500Y-59912500D03*
X135587500Y-59912500D03*
X136087500Y-59912500D03*
X136587500Y-59912500D03*
X137087500Y-59912500D03*
X137587500Y-59912500D03*
X138087500Y-59912500D03*
D30*
X139500000Y-58500000D03*
X139500000Y-58000000D03*
X139500000Y-57500000D03*
X139500000Y-57000000D03*
X139500000Y-56500000D03*
X139500000Y-56000000D03*
X139500000Y-55500000D03*
X139500000Y-55000000D03*
X139500000Y-54500000D03*
X139500000Y-54000000D03*
X139500000Y-53500000D03*
X139500000Y-53000000D03*
D31*
X138087500Y-51587500D03*
X137587500Y-51587500D03*
X137087500Y-51587500D03*
X136587500Y-51587500D03*
X136087500Y-51587500D03*
X135587500Y-51587500D03*
X135087500Y-51587500D03*
X134587500Y-51587500D03*
X134087500Y-51587500D03*
X133587500Y-51587500D03*
X133087500Y-51587500D03*
X132587500Y-51587500D03*
%TD*%
D20*
%TO.C,TP2*%
X163000000Y-58500000D03*
%TD*%
D13*
%TO.C,C9*%
X128960000Y-66104000D03*
X130860000Y-66104000D03*
%TD*%
D32*
%TO.C,Y1*%
X115000000Y-58450000D03*
X115000000Y-53570000D03*
%TD*%
D25*
%TO.C,C3*%
X128500000Y-51950000D03*
X128500000Y-50050000D03*
%TD*%
%TO.C,C5*%
X143000000Y-52500000D03*
X143000000Y-50600000D03*
%TD*%
D14*
%TO.C,C2*%
X122000000Y-58550000D03*
X122000000Y-60450000D03*
%TD*%
D15*
%TO.C,C11*%
X155128000Y-53500000D03*
X153228000Y-53500000D03*
%TD*%
D21*
%TO.C,J3*%
X172000000Y-59000000D03*
D22*
X172000000Y-56460000D03*
X172000000Y-53920000D03*
X172000000Y-51380000D03*
X172000000Y-48840000D03*
%TD*%
%LPD*%
M02*
