M48
; DRILL file KiCad 10.0.5 date 2026-08-07T21:44:13
; FORMAT={-:-/ absolute / metric / decimal}
; #@! TF.CreationDate,2026-08-07T21:44:13+02:00
; #@! TF.GenerationSoftware,Kicad,Pcbnew,10.0.5
; #@! TF.FileFunction,Plated,1,2,PTH
FMAT,2
METRIC
; #@! TA.AperFunction,Plated,PTH,ViaDrill
T1C0.300
; #@! TA.AperFunction,Plated,PTH,ComponentDrill
T2C0.600
; #@! TA.AperFunction,Plated,PTH,ComponentDrill
T3C1.000
%
G90
G05
T1
X42.9Y-51.2
X44.2Y-60.9
X47.3Y-52.8
X49.4Y-54.6
X51.4Y-56.6
X52.3Y-73.9
X52.3Y-76.5
X55.9Y-71.7
X56.2Y-80.3
X56.9Y-55.363
X61.5Y-71.5
X64.9Y-79.6
X65.0Y-77.0
X66.9Y-73.9
X73.8Y-81.0
X75.4Y-68.2
X79.2Y-69.1
X80.0Y-79.0
X83.0Y-66.3
X87.3Y-79.5
X87.5Y-71.9
X87.9Y-78.3
X95.0Y-73.6
X95.4Y-75.7
X95.404Y-77.69
X97.6Y-60.8
X104.4Y-56.3
X107.005Y-52.293
X107.1Y-56.4
X108.9Y-51.3
X109.903Y-63.578
X113.6Y-63.2
X117.0Y-58.8
X119.436Y-55.874
X125.2Y-59.3
X130.2Y-58.0
X130.7Y-74.9
X133.3Y-77.4
X153.5Y-64.3
X157.372Y-59.406
X159.5Y-51.7
X159.5Y-56.4
T3
X110.99Y-53.2
X113.53Y-53.2
X116.07Y-53.2
X118.61Y-53.2
X165.0Y-60.8
X165.0Y-63.34
X165.0Y-65.88
X165.0Y-68.42
X165.0Y-70.96
T2
G00X38.4Y-71.86
M15
G01X39.2Y-71.86
M16
G05
G00X38.4Y-80.5
M15
G01X39.2Y-80.5
M16
G05
G00X42.43Y-71.86
M15
G01X43.53Y-71.86
M16
G05
G00X42.43Y-80.5
M15
G01X43.53Y-80.5
M16
G05
M30
