%TF.GenerationSoftware,KiCad,Pcbnew,10.0.5*%
%TF.CreationDate,2026-08-07T21:44:09+02:00*%
%TF.ProjectId,audioVisualizer_PCB,61756469-6f56-4697-9375-616c697a6572,rev?*%
%TF.SameCoordinates,Original*%
%TF.FileFunction,Copper,L2,Bot*%
%TF.FilePolarity,Positive*%
%FSLAX46Y46*%
G04 Gerber Fmt 4.6, Leading zero omitted, Abs format (unit mm)*
G04 Created by KiCad (PCBNEW 10.0.5) date 2026-08-07 21:44:09*
%MOMM*%
%LPD*%
G01*
G04 APERTURE LIST*
G04 Aperture macros list*
%AMRoundRect*
0 Rectangle with rounded corners*
0 $1 Rounding radius*
0 $2 $3 $4 $5 $6 $7 $8 $9 X,Y pos of 4 corners*
0 Add a 4 corners polygon primitive as box body*
4,1,4,$2,$3,$4,$5,$6,$7,$8,$9,$2,$3,0*
0 Add four circle primitives for the rounded corners*
1,1,$1+$1,$2,$3*
1,1,$1+$1,$4,$5*
1,1,$1+$1,$6,$7*
1,1,$1+$1,$8,$9*
0 Add four rect primitives between the rounded corners*
20,1,$1+$1,$2,$3,$4,$5,0*
20,1,$1+$1,$4,$5,$6,$7,0*
20,1,$1+$1,$6,$7,$8,$9,0*
20,1,$1+$1,$8,$9,$2,$3,0*%
G04 Aperture macros list end*
%TA.AperFunction,ComponentPad*%
%ADD10R,1.700000X1.700000*%
%TD*%
%TA.AperFunction,ComponentPad*%
%ADD11C,1.700000*%
%TD*%
%TA.AperFunction,SMDPad,CuDef*%
%ADD12RoundRect,0.250000X0.475000X-0.250000X0.475000X0.250000X-0.475000X0.250000X-0.475000X-0.250000X0*%
%TD*%
%TA.AperFunction,SMDPad,CuDef*%
%ADD13RoundRect,0.250000X0.250000X0.475000X-0.250000X0.475000X-0.250000X-0.475000X0.250000X-0.475000X0*%
%TD*%
%TA.AperFunction,SMDPad,CuDef*%
%ADD14RoundRect,0.250000X0.262500X0.450000X-0.262500X0.450000X-0.262500X-0.450000X0.262500X-0.450000X0*%
%TD*%
%TA.AperFunction,SMDPad,CuDef*%
%ADD15RoundRect,0.243750X0.456250X-0.243750X0.456250X0.243750X-0.456250X0.243750X-0.456250X-0.243750X0*%
%TD*%
%TA.AperFunction,SMDPad,CuDef*%
%ADD16RoundRect,0.250000X-0.450000X0.262500X-0.450000X-0.262500X0.450000X-0.262500X0.450000X0.262500X0*%
%TD*%
%TA.AperFunction,SMDPad,CuDef*%
%ADD17RoundRect,0.250000X-0.475000X0.250000X-0.475000X-0.250000X0.475000X-0.250000X0.475000X0.250000X0*%
%TD*%
%TA.AperFunction,SMDPad,CuDef*%
%ADD18RoundRect,0.375000X0.375000X-0.625000X0.375000X0.625000X-0.375000X0.625000X-0.375000X-0.625000X0*%
%TD*%
%TA.AperFunction,SMDPad,CuDef*%
%ADD19RoundRect,0.500000X1.400000X-0.500000X1.400000X0.500000X-1.400000X0.500000X-1.400000X-0.500000X0*%
%TD*%
%TA.AperFunction,SMDPad,CuDef*%
%ADD20RoundRect,0.250000X-1.450000X-0.650000X1.450000X-0.650000X1.450000X0.650000X-1.450000X0.650000X0*%
%TD*%
%TA.AperFunction,SMDPad,CuDef*%
%ADD21RoundRect,0.250000X-0.262500X-0.450000X0.262500X-0.450000X0.262500X0.450000X-0.262500X0.450000X0*%
%TD*%
%TA.AperFunction,SMDPad,CuDef*%
%ADD22RoundRect,0.243750X0.243750X0.456250X-0.243750X0.456250X-0.243750X-0.456250X0.243750X-0.456250X0*%
%TD*%
%TA.AperFunction,SMDPad,CuDef*%
%ADD23RoundRect,0.150000X0.425000X-0.150000X0.425000X0.150000X-0.425000X0.150000X-0.425000X-0.150000X0*%
%TD*%
%TA.AperFunction,SMDPad,CuDef*%
%ADD24RoundRect,0.075000X0.500000X-0.075000X0.500000X0.075000X-0.500000X0.075000X-0.500000X-0.075000X0*%
%TD*%
%TA.AperFunction,ComponentPad*%
%ADD25O,1.800000X1.000000*%
%TD*%
%TA.AperFunction,ComponentPad*%
%ADD26O,2.100000X1.000000*%
%TD*%
%TA.AperFunction,ViaPad*%
%ADD27C,0.600000*%
%TD*%
%TA.AperFunction,Conductor*%
%ADD28C,0.500000*%
%TD*%
%TA.AperFunction,Conductor*%
%ADD29C,0.200000*%
%TD*%
G04 APERTURE END LIST*
D10*
%TO.P,J3,1,VCC_1*%
%TO.N,+5V*%
X165000000Y-60800000D03*
D11*
%TO.P,J3,2,GND_2*%
%TO.N,GND*%
X165000000Y-63340000D03*
%TO.P,J3,3,DIN_3*%
%TO.N,SPI_DIN*%
X165000000Y-65880000D03*
%TO.P,J3,4,CS_4*%
%TO.N,SPI_CS*%
X165000000Y-68420000D03*
%TO.P,J3,5,CLK_5*%
%TO.N,SPI_CLK*%
X165000000Y-70960000D03*
%TD*%
D10*
%TO.P,J2,1,Pin_1_1*%
%TO.N,SWDIO*%
X118610000Y-53200000D03*
D11*
%TO.P,J2,2,Pin_2_2*%
%TO.N,SWCLK*%
X116070000Y-53200000D03*
%TO.P,J2,3,Pin_3_3*%
%TO.N,GND*%
X113530000Y-53200000D03*
%TO.P,J2,4,Pin_4_4*%
%TO.N,+3.3V*%
X110990000Y-53200000D03*
%TD*%
D12*
%TO.P,C16,1*%
%TO.N,GND*%
X148300000Y-62550000D03*
%TO.P,C16,2*%
%TO.N,+5V*%
X148300000Y-60650000D03*
%TD*%
D13*
%TO.P,C12,1*%
%TO.N,+3.3V*%
X68750000Y-71500000D03*
%TO.P,C12,2*%
%TO.N,GND*%
X66850000Y-71500000D03*
%TD*%
D14*
%TO.P,R3,1*%
%TO.N,GND*%
X50212500Y-76500000D03*
%TO.P,R3,2*%
%TO.N,Net-(J1-CC1)*%
X48387500Y-76500000D03*
%TD*%
D15*
%TO.P,D1,1,K_1*%
%TO.N,Net-(D1-K)*%
X84200000Y-73637500D03*
%TO.P,D1,2,A_2*%
%TO.N,+3.3V*%
X84200000Y-71762500D03*
%TD*%
D16*
%TO.P,R2,1*%
%TO.N,Net-(D1-K)*%
X84300000Y-76475000D03*
%TO.P,R2,2*%
%TO.N,GND*%
X84300000Y-78300000D03*
%TD*%
D17*
%TO.P,C15,1*%
%TO.N,+5V*%
X54100000Y-78450000D03*
%TO.P,C15,2*%
%TO.N,GND*%
X54100000Y-80350000D03*
%TD*%
D18*
%TO.P,U1,1,GND_1*%
%TO.N,GND*%
X77800000Y-78250000D03*
%TO.P,U1,2,VO_2*%
%TO.N,+3.3V*%
X75500000Y-78250000D03*
D19*
X75500000Y-71950000D03*
D18*
%TO.P,U1,3,VI_3*%
%TO.N,+5V*%
X73200000Y-78250000D03*
%TD*%
D12*
%TO.P,C14,1*%
%TO.N,GND*%
X49300000Y-80450000D03*
%TO.P,C14,2*%
%TO.N,+5V*%
X49300000Y-78550000D03*
%TD*%
D20*
%TO.P,5V1,1,1_1*%
%TO.N,+5V*%
X60300000Y-78400000D03*
%TD*%
D21*
%TO.P,R6,1*%
%TO.N,Net-(D2-K)*%
X52275000Y-71700000D03*
%TO.P,R6,2*%
%TO.N,GND*%
X54100000Y-71700000D03*
%TD*%
D14*
%TO.P,R1,1*%
%TO.N,GND*%
X50012500Y-73900000D03*
%TO.P,R1,2*%
%TO.N,Net-(J1-CC2)*%
X48187500Y-73900000D03*
%TD*%
D22*
%TO.P,D2,1,K_1*%
%TO.N,Net-(D2-K)*%
X50000000Y-71700000D03*
%TO.P,D2,2,A_2*%
%TO.N,+5V*%
X48125000Y-71700000D03*
%TD*%
D17*
%TO.P,C17,1*%
%TO.N,+5V*%
X153500000Y-60700000D03*
%TO.P,C17,2*%
%TO.N,GND*%
X153500000Y-62600000D03*
%TD*%
D12*
%TO.P,C11,1*%
%TO.N,+5V*%
X66900000Y-78250000D03*
%TO.P,C11,2*%
%TO.N,GND*%
X66900000Y-76350000D03*
%TD*%
D23*
%TO.P,J1,A1,GND_A1*%
%TO.N,GND*%
X43555000Y-79380000D03*
%TO.P,J1,A4,VBUS_A4*%
%TO.N,+5V*%
X43555000Y-78580000D03*
D24*
%TO.P,J1,A5,CC1_A5*%
%TO.N,Net-(J1-CC1)*%
X43555000Y-77430000D03*
%TO.P,J1,A6,D+_A6*%
%TO.N,USB_D+*%
X43555000Y-76430000D03*
%TO.P,J1,A7,D-_A7*%
%TO.N,USB_D-*%
X43555000Y-75930000D03*
%TO.P,J1,A8,SBU1_A8*%
%TO.N,unconnected-(J1-SBU1-PadA8)*%
X43555000Y-74930000D03*
D23*
%TO.P,J1,A9,VBUS_A9*%
%TO.N,+5V*%
X43555000Y-73780000D03*
%TO.P,J1,A12,GND_A12*%
%TO.N,GND*%
X43555000Y-72980000D03*
%TO.P,J1,B1,GND_B1*%
X43555000Y-72980000D03*
%TO.P,J1,B4,VBUS_B4*%
%TO.N,+5V*%
X43555000Y-73780000D03*
D24*
%TO.P,J1,B5,CC2_B5*%
%TO.N,Net-(J1-CC2)*%
X43555000Y-74430000D03*
%TO.P,J1,B6,D+_B6*%
%TO.N,USB_D+*%
X43555000Y-75430000D03*
%TO.P,J1,B7,D-_B7*%
%TO.N,USB_D-*%
X43555000Y-76930000D03*
%TO.P,J1,B8,SBU2_B8*%
%TO.N,unconnected-(J1-SBU2-PadB8)*%
X43555000Y-77930000D03*
D23*
%TO.P,J1,B9,VBUS_B9*%
%TO.N,+5V*%
X43555000Y-78580000D03*
%TO.P,J1,B12,GND_B12*%
%TO.N,GND*%
X43555000Y-79380000D03*
D25*
%TO.P,J1,SH,SHIELD_SH*%
%TO.N,unconnected-(J1-SHIELD-PadSH)_2*%
X38800000Y-80500000D03*
D26*
%TO.N,unconnected-(J1-SHIELD-PadSH)_1*%
X42980000Y-80500000D03*
D25*
%TO.N,unconnected-(J1-SHIELD-PadSH)_3*%
X38800000Y-71860000D03*
D26*
%TO.N,unconnected-(J1-SHIELD-PadSH)*%
X42980000Y-71860000D03*
%TD*%
D27*
%TO.N,GND*%
X56200000Y-80300000D03*
%TO.N,+3.3V*%
X49400000Y-54600000D03*
X87500000Y-71900000D03*
X125200000Y-59300000D03*
X51400000Y-56600000D03*
X119436200Y-55874500D03*
X75400000Y-68200000D03*
X87300000Y-79500000D03*
%TO.N,GND*%
X153500000Y-64300000D03*
X97600000Y-60800000D03*
X44200000Y-60900000D03*
X157371600Y-59406300D03*
X117000000Y-58800000D03*
X83000000Y-66300000D03*
X95000000Y-73600000D03*
X61500000Y-71500000D03*
X79200000Y-69100000D03*
X80000000Y-79000000D03*
X73800000Y-81000000D03*
X107005200Y-52292700D03*
X113600000Y-63200000D03*
X64900000Y-79600000D03*
X66900000Y-73900000D03*
X47300000Y-52800000D03*
X55900000Y-71700000D03*
X95403600Y-77689797D03*
X95400000Y-75700000D03*
X87900000Y-78300000D03*
X133300000Y-77400000D03*
X104400000Y-56300000D03*
X159500000Y-51700000D03*
X52300000Y-76500000D03*
X65000000Y-77000000D03*
X130700000Y-74900000D03*
X52300000Y-73900000D03*
%TO.N,MIC_WS*%
X130200000Y-58000000D03*
X109903300Y-63578500D03*
X56900000Y-55363400D03*
%TO.N,MIC_SCK*%
X108900000Y-51300000D03*
X42900000Y-51200000D03*
%TO.N,MIC_SD*%
X107100000Y-56400000D03*
X159500000Y-56400000D03*
%TD*%
%TO.N,GND*%
D28*
X148300000Y-62550000D02*
X164210000Y-62550000D01*
X164210000Y-62550000D02*
X165000000Y-63340000D01*
%TO.N,+3.3V*%
X86500000Y-80300000D02*
X87300000Y-79500000D01*
X77550000Y-80300000D02*
X86500000Y-80300000D01*
%TO.N,GND*%
D29*
X56150000Y-80350000D02*
X56200000Y-80300000D01*
X54100000Y-80350000D02*
X56150000Y-80350000D01*
X43555000Y-72980000D02*
X45835000Y-70700000D01*
X45835000Y-70700000D02*
X53100000Y-70700000D01*
X53100000Y-70700000D02*
X54100000Y-71700000D01*
X49300000Y-80450000D02*
X54000000Y-80450000D01*
X54000000Y-80450000D02*
X54100000Y-80350000D01*
X43555000Y-79380000D02*
X48230000Y-79380000D01*
X48230000Y-79380000D02*
X49300000Y-80450000D01*
%TO.N,+3.3V*%
D28*
X87362500Y-71762500D02*
X87500000Y-71900000D01*
D29*
X140900000Y-59300000D02*
X144400000Y-62800000D01*
D28*
X75500000Y-78250000D02*
X77550000Y-80300000D01*
X75400000Y-68200000D02*
X75400000Y-71850000D01*
D29*
X102100000Y-79700000D02*
X127700000Y-79700000D01*
X110990000Y-53200000D02*
X113664500Y-55874500D01*
X49400000Y-54600000D02*
X51400000Y-56600000D01*
D28*
X68750000Y-71500000D02*
X75050000Y-71500000D01*
X75500000Y-71950000D02*
X84012500Y-71950000D01*
D29*
X113664500Y-55874500D02*
X119436200Y-55874500D01*
D28*
X75400000Y-71850000D02*
X75500000Y-71950000D01*
D29*
X99100000Y-76700000D02*
X102100000Y-79700000D01*
X75050000Y-71500000D02*
X75500000Y-71950000D01*
X84200000Y-71762500D02*
X89137500Y-76700000D01*
X144400000Y-62800000D02*
X144400000Y-63000000D01*
X127700000Y-79700000D02*
X144400000Y-63000000D01*
D28*
X75500000Y-78250000D02*
X75500000Y-71950000D01*
X84012500Y-71950000D02*
X84200000Y-71762500D01*
X84200000Y-71762500D02*
X87362500Y-71762500D01*
D29*
X75050000Y-71500000D02*
X75400000Y-71150000D01*
X89137500Y-76700000D02*
X99100000Y-76700000D01*
X140900000Y-59300000D02*
X125200000Y-59300000D01*
%TO.N,GND*%
X66900000Y-71550000D02*
X66850000Y-71500000D01*
X84300000Y-78300000D02*
X87900000Y-78300000D01*
D28*
X66900000Y-73900000D02*
X66900000Y-71550000D01*
D29*
X84250000Y-78250000D02*
X84300000Y-78300000D01*
X50012500Y-73900000D02*
X52300000Y-73900000D01*
X61300000Y-71700000D02*
X61500000Y-71500000D01*
D28*
X66900000Y-76350000D02*
X66900000Y-73900000D01*
D29*
X77800000Y-78250000D02*
X84250000Y-78250000D01*
D28*
X153500000Y-62600000D02*
X153500000Y-64300000D01*
D29*
X54100000Y-71700000D02*
X55900000Y-71700000D01*
X50212500Y-76500000D02*
X52300000Y-76500000D01*
%TO.N,MIC_WS*%
X130200000Y-58000000D02*
X130151600Y-57951600D01*
X56963400Y-55300000D02*
X104600000Y-55300000D01*
X115530200Y-57951600D02*
X109903300Y-63578500D01*
X56900000Y-55363400D02*
X56963400Y-55300000D01*
X130151600Y-57951600D02*
X115530200Y-57951600D01*
X104600000Y-55300000D02*
X109903300Y-60603300D01*
X109903300Y-60603300D02*
X109903300Y-63578500D01*
%TO.N,MIC_SCK*%
X42900000Y-51200000D02*
X108800000Y-51200000D01*
X108800000Y-51200000D02*
X108900000Y-51300000D01*
X108800000Y-51200000D02*
X108900000Y-51300000D01*
%TO.N,MIC_SD*%
X159425500Y-56474500D02*
X107174500Y-56474500D01*
X159500000Y-56400000D02*
X159425500Y-56474500D01*
X107174500Y-56474500D02*
X107100000Y-56400000D01*
%TO.N,+5V*%
X44720000Y-73780000D02*
X46800000Y-71700000D01*
D28*
X73200000Y-78250000D02*
X75850000Y-80900000D01*
D29*
X43097600Y-78580000D02*
X42680000Y-78162400D01*
D28*
X73200000Y-78250000D02*
X75850000Y-80900000D01*
D29*
X43097600Y-78580000D02*
X42680000Y-78162400D01*
D28*
X75850000Y-80900000D02*
X128050000Y-80900000D01*
D29*
X42680000Y-74044600D02*
X42944600Y-73780000D01*
X46800000Y-71700000D02*
X48125000Y-71700000D01*
X43555000Y-73780000D02*
X44720000Y-73780000D01*
X43555000Y-73780000D02*
X44720000Y-73780000D01*
X164850000Y-60650000D02*
X165000000Y-60800000D01*
X46800000Y-71700000D02*
X48125000Y-71700000D01*
X42680000Y-78162400D02*
X42680000Y-74044600D01*
X42944600Y-73780000D02*
X43555000Y-73780000D01*
D28*
X128050000Y-80900000D02*
X148300000Y-60650000D01*
D29*
X42944600Y-73780000D02*
X43555000Y-73780000D01*
D28*
X60300000Y-78400000D02*
X73050000Y-78400000D01*
X43555000Y-78580000D02*
X60120000Y-78580000D01*
X148300000Y-60650000D02*
X164850000Y-60650000D01*
D29*
X42680000Y-78162400D02*
X42680000Y-74044600D01*
D28*
X75850000Y-80900000D02*
X128050000Y-80900000D01*
D29*
X43555000Y-78580000D02*
X43097600Y-78580000D01*
X43555000Y-78580000D02*
X43097600Y-78580000D01*
X60120000Y-78580000D02*
X60300000Y-78400000D01*
X73050000Y-78400000D02*
X73200000Y-78250000D01*
%TO.N,Net-(J1-CC1)*%
X47457500Y-77430000D02*
X48387500Y-76500000D01*
X43555000Y-77430000D02*
X47457500Y-77430000D01*
%TO.N,Net-(D1-K)*%
X84200000Y-76575000D02*
X84200000Y-77087500D01*
X84200000Y-77087500D02*
X84400000Y-77287500D01*
X84300000Y-73737500D02*
X84200000Y-73637500D01*
X84300000Y-76475000D02*
X84300000Y-73737500D01*
X84300000Y-76475000D02*
X84200000Y-76575000D01*
%TO.N,Net-(D2-K)*%
X50000000Y-71700000D02*
X52275000Y-71700000D01*
%TO.N,Net-(J1-CC2)*%
X43605000Y-74480000D02*
X47607500Y-74480000D01*
X47607500Y-74480000D02*
X48187500Y-73900000D01*
X43555000Y-74430000D02*
X43605000Y-74480000D01*
%TO.N,USB_D-*%
X44237800Y-76930000D02*
X44439000Y-76728800D01*
X44177800Y-75930000D02*
X43555000Y-75930000D01*
X43555000Y-76930000D02*
X44237800Y-76930000D01*
X44439000Y-76728800D02*
X44439000Y-76191200D01*
X44439000Y-76191200D02*
X44177800Y-75930000D01*
%TD*%
%TA.AperFunction,Conductor*%
%TO.N,GND*%
G36*
X166257549Y-50114150D02*
G01*
X166303304Y-50166954D01*
X166314510Y-50218465D01*
X166314510Y-59424804D01*
X166294825Y-59491843D01*
X166242021Y-59537598D01*
X166172863Y-59547542D01*
X166116200Y-59524072D01*
X166092330Y-59506203D01*
X166092328Y-59506202D01*
X165957482Y-59455908D01*
X165957483Y-59455908D01*
X165897883Y-59449501D01*
X165897881Y-59449500D01*
X165897873Y-59449500D01*
X165897864Y-59449500D01*
X164102129Y-59449500D01*
X164102123Y-59449501D01*
X164042516Y-59455908D01*
X163907671Y-59506202D01*
X163907664Y-59506206D01*
X163792455Y-59592452D01*
X163792452Y-59592455D01*
X163706206Y-59707664D01*
X163706202Y-59707671D01*
X163664742Y-59818833D01*
X163622871Y-59874767D01*
X163557407Y-59899184D01*
X163548560Y-59899500D01*
X154537230Y-59899500D01*
X154470191Y-59879815D01*
X154449549Y-59863181D01*
X154443657Y-59857289D01*
X154443656Y-59857288D01*
X154294334Y-59765186D01*
X154127797Y-59710001D01*
X154127795Y-59710000D01*
X154025010Y-59699500D01*
X152974998Y-59699500D01*
X152974980Y-59699501D01*
X152872203Y-59710000D01*
X152872200Y-59710001D01*
X152705668Y-59765185D01*
X152705663Y-59765187D01*
X152556342Y-59857289D01*
X152550451Y-59863181D01*
X152489128Y-59896666D01*
X152462770Y-59899500D01*
X149387230Y-59899500D01*
X149320191Y-59879815D01*
X149299549Y-59863181D01*
X149243657Y-59807289D01*
X149243656Y-59807288D01*
X149094334Y-59715186D01*
X148927797Y-59660001D01*
X148927795Y-59660000D01*
X148825010Y-59649500D01*
X147774998Y-59649500D01*
X147774980Y-59649501D01*
X147672203Y-59660000D01*
X147672200Y-59660001D01*
X147505668Y-59715185D01*
X147505663Y-59715187D01*
X147356342Y-59807289D01*
X147232289Y-59931342D01*
X147140187Y-60080663D01*
X147140185Y-60080668D01*
X147112349Y-60164670D01*
X147085001Y-60247203D01*
X147085001Y-60247204D01*
X147085000Y-60247204D01*
X147074500Y-60349983D01*
X147074500Y-60762770D01*
X147054815Y-60829809D01*
X147038181Y-60850451D01*
X145187699Y-62700932D01*
X145126376Y-62734417D01*
X145056684Y-62729433D01*
X145000751Y-62687561D01*
X144980243Y-62645344D01*
X144976785Y-62632439D01*
X144959577Y-62568216D01*
X144942084Y-62537917D01*
X144880524Y-62431290D01*
X144880521Y-62431286D01*
X144880520Y-62431284D01*
X144768716Y-62319480D01*
X144768715Y-62319479D01*
X144764385Y-62315149D01*
X144764374Y-62315139D01*
X141387590Y-58938355D01*
X141387588Y-58938352D01*
X141268717Y-58819481D01*
X141268716Y-58819480D01*
X141181904Y-58769360D01*
X141181904Y-58769359D01*
X141181900Y-58769358D01*
X141131785Y-58740423D01*
X140979057Y-58699499D01*
X140820943Y-58699499D01*
X140813347Y-58699499D01*
X140813331Y-58699500D01*
X130927350Y-58699500D01*
X130860311Y-58679815D01*
X130814556Y-58627011D01*
X130804612Y-58557853D01*
X130824248Y-58506609D01*
X130909390Y-58379185D01*
X130909390Y-58379184D01*
X130909394Y-58379179D01*
X130969737Y-58233497D01*
X131000500Y-58078842D01*
X131000500Y-57921158D01*
X131000500Y-57921155D01*
X131000499Y-57921153D01*
X130969738Y-57766510D01*
X130969737Y-57766503D01*
X130969735Y-57766498D01*
X130909397Y-57620827D01*
X130909390Y-57620814D01*
X130821789Y-57489711D01*
X130821786Y-57489707D01*
X130710292Y-57378213D01*
X130710288Y-57378210D01*
X130596385Y-57302102D01*
X130551580Y-57248490D01*
X130542873Y-57179165D01*
X130573028Y-57116137D01*
X130632471Y-57079418D01*
X130665276Y-57075000D01*
X159031731Y-57075000D01*
X159098770Y-57094685D01*
X159100622Y-57095898D01*
X159120814Y-57109390D01*
X159120827Y-57109397D01*
X159212791Y-57147489D01*
X159266503Y-57169737D01*
X159416131Y-57199500D01*
X159421153Y-57200499D01*
X159421156Y-57200500D01*
X159421158Y-57200500D01*
X159578844Y-57200500D01*
X159578845Y-57200499D01*
X159733497Y-57169737D01*
X159879179Y-57109394D01*
X160010289Y-57021789D01*
X160121789Y-56910289D01*
X160209394Y-56779179D01*
X160269737Y-56633497D01*
X160300500Y-56478842D01*
X160300500Y-56321158D01*
X160300500Y-56321155D01*
X160300499Y-56321153D01*
X160280543Y-56220827D01*
X160269737Y-56166503D01*
X160255917Y-56133138D01*
X160209397Y-56020827D01*
X160209390Y-56020814D01*
X160121789Y-55889711D01*
X160121786Y-55889707D01*
X160010292Y-55778213D01*
X160010288Y-55778210D01*
X159879185Y-55690609D01*
X159879172Y-55690602D01*
X159733501Y-55630264D01*
X159733489Y-55630261D01*
X159578845Y-55599500D01*
X159578842Y-55599500D01*
X159421158Y-55599500D01*
X159421155Y-55599500D01*
X159266510Y-55630261D01*
X159266498Y-55630264D01*
X159120827Y-55690602D01*
X159120814Y-55690609D01*
X158989712Y-55778209D01*
X158974588Y-55793334D01*
X158930239Y-55837682D01*
X158868919Y-55871166D01*
X158842560Y-55874000D01*
X120354048Y-55874000D01*
X120287009Y-55854315D01*
X120241254Y-55801511D01*
X120232431Y-55774192D01*
X120205938Y-55641008D01*
X120205937Y-55641007D01*
X120205937Y-55641003D01*
X120188746Y-55599500D01*
X120145597Y-55495327D01*
X120145590Y-55495314D01*
X120057989Y-55364211D01*
X120057986Y-55364207D01*
X119946492Y-55252713D01*
X119946488Y-55252710D01*
X119815385Y-55165109D01*
X119815372Y-55165102D01*
X119669701Y-55104764D01*
X119669689Y-55104761D01*
X119515045Y-55074000D01*
X119515042Y-55074000D01*
X119357358Y-55074000D01*
X119357355Y-55074000D01*
X119202710Y-55104761D01*
X119202698Y-55104764D01*
X119057027Y-55165102D01*
X119057014Y-55165109D01*
X118925325Y-55253102D01*
X118858647Y-55273980D01*
X118856434Y-55274000D01*
X113964597Y-55274000D01*
X113897558Y-55254315D01*
X113876916Y-55237681D01*
X113400916Y-54761681D01*
X113367431Y-54700358D01*
X113372415Y-54630666D01*
X113414287Y-54574733D01*
X113479751Y-54550316D01*
X113488597Y-54550000D01*
X113636246Y-54550000D01*
X113846127Y-54516757D01*
X113846130Y-54516757D01*
X114048217Y-54451095D01*
X114237554Y-54354622D01*
X114291716Y-54315270D01*
X114291717Y-54315270D01*
X113659408Y-53682962D01*
X113722993Y-53665925D01*
X113837007Y-53600099D01*
X113930099Y-53507007D01*
X113995925Y-53392993D01*
X114012962Y-53329408D01*
X114645270Y-53961717D01*
X114645270Y-53961716D01*
X114684622Y-53907555D01*
X114689232Y-53898507D01*
X114737205Y-53847709D01*
X114805025Y-53830912D01*
X114871161Y-53853447D01*
X114910204Y-53898504D01*
X114914949Y-53907817D01*
X115039890Y-54079786D01*
X115190213Y-54230109D01*
X115362179Y-54355048D01*
X115362181Y-54355049D01*
X115362184Y-54355051D01*
X115551588Y-54451557D01*
X115753757Y-54517246D01*
X115963713Y-54550500D01*
X115963714Y-54550500D01*
X116176286Y-54550500D01*
X116176287Y-54550500D01*
X116386243Y-54517246D01*
X116588412Y-54451557D01*
X116777816Y-54355051D01*
X116949792Y-54230104D01*
X117063329Y-54116566D01*
X117124648Y-54083084D01*
X117194340Y-54088068D01*
X117250274Y-54129939D01*
X117267189Y-54160917D01*
X117316202Y-54292328D01*
X117316206Y-54292335D01*
X117402452Y-54407544D01*
X117402455Y-54407547D01*
X117517664Y-54493793D01*
X117517671Y-54493797D01*
X117652517Y-54544091D01*
X117652516Y-54544091D01*
X117659444Y-54544835D01*
X117712127Y-54550500D01*
X119507872Y-54550499D01*
X119567483Y-54544091D01*
X119702331Y-54493796D01*
X119817546Y-54407546D01*
X119903796Y-54292331D01*
X119954091Y-54157483D01*
X119960500Y-54097873D01*
X119960499Y-53260108D01*
X158999500Y-53260108D01*
X158999500Y-53391891D01*
X159033608Y-53519187D01*
X159066554Y-53576250D01*
X159099500Y-53633314D01*
X159192686Y-53726500D01*
X159306814Y-53792392D01*
X159434108Y-53826500D01*
X159434110Y-53826500D01*
X159565890Y-53826500D01*
X159565892Y-53826500D01*
X159693186Y-53792392D01*
X159807314Y-53726500D01*
X159900500Y-53633314D01*
X159966392Y-53519186D01*
X160000500Y-53391892D01*
X160000500Y-53260108D01*
X159966392Y-53132814D01*
X159900500Y-53018686D01*
X159807314Y-52925500D01*
X159750250Y-52892554D01*
X159693187Y-52859608D01*
X159629539Y-52842554D01*
X159565892Y-52825500D01*
X159434108Y-52825500D01*
X159306812Y-52859608D01*
X159192686Y-52925500D01*
X159192683Y-52925502D01*
X159099502Y-53018683D01*
X159099500Y-53018686D01*
X159033608Y-53132812D01*
X158999500Y-53260108D01*
X119960499Y-53260108D01*
X119960499Y-53200000D01*
X119960499Y-52302129D01*
X119960498Y-52302123D01*
X119954091Y-52242516D01*
X119903797Y-52107671D01*
X119903793Y-52107664D01*
X119817547Y-51992455D01*
X119817544Y-51992452D01*
X119702335Y-51906206D01*
X119702328Y-51906202D01*
X119567482Y-51855908D01*
X119567483Y-51855908D01*
X119507883Y-51849501D01*
X119507881Y-51849500D01*
X119507873Y-51849500D01*
X119507864Y-51849500D01*
X117712129Y-51849500D01*
X117712123Y-51849501D01*
X117652516Y-51855908D01*
X117517671Y-51906202D01*
X117517664Y-51906206D01*
X117402455Y-51992452D01*
X117402452Y-51992455D01*
X117316206Y-52107664D01*
X117316203Y-52107669D01*
X117267189Y-52239083D01*
X117225317Y-52295016D01*
X117159853Y-52319433D01*
X117091580Y-52304581D01*
X117063326Y-52283430D01*
X116949786Y-52169890D01*
X116777820Y-52044951D01*
X116588414Y-51948444D01*
X116588413Y-51948443D01*
X116588412Y-51948443D01*
X116386243Y-51882754D01*
X116386241Y-51882753D01*
X116386240Y-51882753D01*
X116224957Y-51857208D01*
X116176287Y-51849500D01*
X115963713Y-51849500D01*
X115915042Y-51857208D01*
X115753760Y-51882753D01*
X115551585Y-51948444D01*
X115362179Y-52044951D01*
X115190213Y-52169890D01*
X115039890Y-52320213D01*
X114914949Y-52492182D01*
X114910202Y-52501499D01*
X114862227Y-52552293D01*
X114794405Y-52569087D01*
X114728271Y-52546548D01*
X114689234Y-52501495D01*
X114684626Y-52492452D01*
X114645270Y-52438282D01*
X114645269Y-52438282D01*
X114012962Y-53070590D01*
X113995925Y-53007007D01*
X113930099Y-52892993D01*
X113837007Y-52799901D01*
X113722993Y-52734075D01*
X113659409Y-52717037D01*
X114291716Y-52084728D01*
X114237550Y-52045375D01*
X114048217Y-51948904D01*
X113846129Y-51883242D01*
X113636246Y-51850000D01*
X113423754Y-51850000D01*
X113213872Y-51883242D01*
X113213869Y-51883242D01*
X113011782Y-51948904D01*
X112822439Y-52045380D01*
X112768282Y-52084727D01*
X112768282Y-52084728D01*
X113400591Y-52717037D01*
X113337007Y-52734075D01*
X113222993Y-52799901D01*
X113129901Y-52892993D01*
X113064075Y-53007007D01*
X113047037Y-53070591D01*
X112414728Y-52438282D01*
X112414727Y-52438282D01*
X112375380Y-52492440D01*
X112375376Y-52492446D01*
X112370760Y-52501505D01*
X112322781Y-52552297D01*
X112254959Y-52569087D01*
X112188826Y-52546543D01*
X112149794Y-52501493D01*
X112145051Y-52492184D01*
X112145049Y-52492181D01*
X112145048Y-52492179D01*
X112020109Y-52320213D01*
X111869786Y-52169890D01*
X111697820Y-52044951D01*
X111508414Y-51948444D01*
X111508413Y-51948443D01*
X111508412Y-51948443D01*
X111306243Y-51882754D01*
X111306241Y-51882753D01*
X111306240Y-51882753D01*
X111144957Y-51857208D01*
X111096287Y-51849500D01*
X110883713Y-51849500D01*
X110835042Y-51857208D01*
X110673760Y-51882753D01*
X110471585Y-51948444D01*
X110282179Y-52044951D01*
X110110213Y-52169890D01*
X109959890Y-52320213D01*
X109834951Y-52492179D01*
X109738444Y-52681585D01*
X109672753Y-52883760D01*
X109639500Y-53093713D01*
X109639500Y-53306286D01*
X109664350Y-53463187D01*
X109672754Y-53516243D01*
X109722875Y-53670500D01*
X109738444Y-53718414D01*
X109834951Y-53907820D01*
X109959890Y-54079786D01*
X110110213Y-54230109D01*
X110282179Y-54355048D01*
X110282181Y-54355049D01*
X110282184Y-54355051D01*
X110471588Y-54451557D01*
X110673757Y-54517246D01*
X110883713Y-54550500D01*
X110883714Y-54550500D01*
X111096286Y-54550500D01*
X111096287Y-54550500D01*
X111306243Y-54517246D01*
X111348523Y-54503507D01*
X111418362Y-54501511D01*
X111474522Y-54533757D01*
X112603084Y-55662319D01*
X112636569Y-55723642D01*
X112631585Y-55793334D01*
X112589713Y-55849267D01*
X112524249Y-55873684D01*
X112515403Y-55874000D01*
X107757440Y-55874000D01*
X107690401Y-55854315D01*
X107669763Y-55837685D01*
X107610289Y-55778211D01*
X107610288Y-55778210D01*
X107610287Y-55778209D01*
X107479185Y-55690609D01*
X107479172Y-55690602D01*
X107333501Y-55630264D01*
X107333489Y-55630261D01*
X107178845Y-55599500D01*
X107178842Y-55599500D01*
X107021158Y-55599500D01*
X107021155Y-55599500D01*
X106866510Y-55630261D01*
X106866498Y-55630264D01*
X106720827Y-55690602D01*
X106720814Y-55690609D01*
X106589711Y-55778210D01*
X106589707Y-55778213D01*
X106478213Y-55889707D01*
X106478210Y-55889711D01*
X106387221Y-56025886D01*
X106385254Y-56024572D01*
X106343625Y-56066944D01*
X106275486Y-56082398D01*
X106209808Y-56058561D01*
X106195558Y-56046322D01*
X105087590Y-54938355D01*
X105087588Y-54938352D01*
X104968717Y-54819481D01*
X104968716Y-54819480D01*
X104881904Y-54769360D01*
X104881904Y-54769359D01*
X104881900Y-54769358D01*
X104831785Y-54740423D01*
X104679057Y-54699499D01*
X104520943Y-54699499D01*
X104513347Y-54699499D01*
X104513331Y-54699500D01*
X57384880Y-54699500D01*
X57317841Y-54679815D01*
X57316026Y-54678626D01*
X57279179Y-54654006D01*
X57279175Y-54654004D01*
X57279171Y-54654002D01*
X57133501Y-54593664D01*
X57133489Y-54593661D01*
X56978845Y-54562900D01*
X56978842Y-54562900D01*
X56821158Y-54562900D01*
X56821155Y-54562900D01*
X56666510Y-54593661D01*
X56666498Y-54593664D01*
X56520827Y-54654002D01*
X56520814Y-54654009D01*
X56389711Y-54741610D01*
X56389707Y-54741613D01*
X56278213Y-54853107D01*
X56278210Y-54853111D01*
X56190609Y-54984214D01*
X56190602Y-54984227D01*
X56130264Y-55129898D01*
X56130261Y-55129910D01*
X56099500Y-55284553D01*
X56099500Y-55442246D01*
X56130261Y-55596889D01*
X56130264Y-55596901D01*
X56190602Y-55742572D01*
X56190609Y-55742585D01*
X56278207Y-55873684D01*
X56278213Y-55873692D01*
X56389707Y-55985186D01*
X56389711Y-55985189D01*
X56520814Y-56072790D01*
X56520827Y-56072797D01*
X56666498Y-56133135D01*
X56666503Y-56133137D01*
X56821153Y-56163899D01*
X56821156Y-56163900D01*
X56821158Y-56163900D01*
X56978844Y-56163900D01*
X56978845Y-56163899D01*
X57133497Y-56133137D01*
X57279179Y-56072794D01*
X57410289Y-55985189D01*
X57458658Y-55936820D01*
X57519981Y-55903334D01*
X57546340Y-55900500D01*
X104299903Y-55900500D01*
X104366942Y-55920185D01*
X104387584Y-55936819D01*
X109266481Y-60815716D01*
X109299966Y-60877039D01*
X109302800Y-60903397D01*
X109302800Y-62998734D01*
X109283115Y-63065773D01*
X109281902Y-63067625D01*
X109193909Y-63199314D01*
X109193902Y-63199327D01*
X109133564Y-63344998D01*
X109133561Y-63345010D01*
X109102800Y-63499653D01*
X109102800Y-63657346D01*
X109133561Y-63811989D01*
X109133564Y-63812001D01*
X109193902Y-63957672D01*
X109193909Y-63957685D01*
X109281510Y-64088788D01*
X109281513Y-64088792D01*
X109393007Y-64200286D01*
X109393011Y-64200289D01*
X109524114Y-64287890D01*
X109524127Y-64287897D01*
X109669798Y-64348235D01*
X109669803Y-64348237D01*
X109824453Y-64378999D01*
X109824456Y-64379000D01*
X109824458Y-64379000D01*
X109982144Y-64379000D01*
X109982145Y-64378999D01*
X110136797Y-64348237D01*
X110282479Y-64287894D01*
X110413589Y-64200289D01*
X110525089Y-64088789D01*
X110612694Y-63957679D01*
X110673037Y-63811997D01*
X110696597Y-63693554D01*
X110703938Y-63656650D01*
X110736323Y-63594739D01*
X110737818Y-63593216D01*
X115742616Y-58588419D01*
X115803939Y-58554934D01*
X115830297Y-58552100D01*
X124516459Y-58552100D01*
X124583498Y-58571785D01*
X124629253Y-58624589D01*
X124639197Y-58693747D01*
X124610172Y-58757303D01*
X124604140Y-58763781D01*
X124578213Y-58789707D01*
X124578210Y-58789711D01*
X124490609Y-58920814D01*
X124490602Y-58920827D01*
X124430264Y-59066498D01*
X124430261Y-59066510D01*
X124399500Y-59221153D01*
X124399500Y-59378846D01*
X124430261Y-59533489D01*
X124430264Y-59533501D01*
X124490602Y-59679172D01*
X124490609Y-59679185D01*
X124578210Y-59810288D01*
X124578213Y-59810292D01*
X124689707Y-59921786D01*
X124689711Y-59921789D01*
X124820814Y-60009390D01*
X124820827Y-60009397D01*
X124966498Y-60069735D01*
X124966503Y-60069737D01*
X125121153Y-60100499D01*
X125121156Y-60100500D01*
X125121158Y-60100500D01*
X125278844Y-60100500D01*
X125278845Y-60100499D01*
X125433497Y-60069737D01*
X125579179Y-60009394D01*
X125579185Y-60009390D01*
X125710875Y-59921398D01*
X125777553Y-59900520D01*
X125779766Y-59900500D01*
X140599903Y-59900500D01*
X140666942Y-59920185D01*
X140687584Y-59936819D01*
X143563084Y-62812319D01*
X143596569Y-62873642D01*
X143591585Y-62943334D01*
X143563084Y-62987681D01*
X127487584Y-79063181D01*
X127426261Y-79096666D01*
X127399903Y-79099500D01*
X102400098Y-79099500D01*
X102333059Y-79079815D01*
X102312417Y-79063181D01*
X99587590Y-76338355D01*
X99587588Y-76338352D01*
X99468717Y-76219481D01*
X99468716Y-76219480D01*
X99370007Y-76162491D01*
X99370006Y-76162490D01*
X99331783Y-76140422D01*
X99275881Y-76125443D01*
X99179057Y-76099499D01*
X99020943Y-76099499D01*
X99013347Y-76099499D01*
X99013331Y-76099500D01*
X89437597Y-76099500D01*
X89370558Y-76079815D01*
X89349916Y-76063181D01*
X86011416Y-72724681D01*
X85977931Y-72663358D01*
X85982915Y-72593666D01*
X86024787Y-72537733D01*
X86090251Y-72513316D01*
X86099097Y-72513000D01*
X86938942Y-72513000D01*
X87005981Y-72532685D01*
X87007833Y-72533898D01*
X87120814Y-72609390D01*
X87120827Y-72609397D01*
X87266498Y-72669735D01*
X87266503Y-72669737D01*
X87421153Y-72700499D01*
X87421156Y-72700500D01*
X87421158Y-72700500D01*
X87578844Y-72700500D01*
X87578845Y-72700499D01*
X87733497Y-72669737D01*
X87879179Y-72609394D01*
X88010289Y-72521789D01*
X88121789Y-72410289D01*
X88209394Y-72279179D01*
X88216229Y-72262679D01*
X88237404Y-72211557D01*
X88269737Y-72133497D01*
X88300500Y-71978842D01*
X88300500Y-71821158D01*
X88300500Y-71821155D01*
X88300499Y-71821153D01*
X88269737Y-71666503D01*
X88269735Y-71666498D01*
X88209397Y-71520827D01*
X88209390Y-71520814D01*
X88121789Y-71389711D01*
X88121786Y-71389707D01*
X88010292Y-71278213D01*
X88010284Y-71278207D01*
X87879181Y-71190607D01*
X87879180Y-71190606D01*
X87833329Y-71171614D01*
X87811895Y-71160157D01*
X87764279Y-71128342D01*
X87717995Y-71097416D01*
X87717988Y-71097412D01*
X87581417Y-71040843D01*
X87581407Y-71040840D01*
X87436420Y-71012000D01*
X87436418Y-71012000D01*
X85253391Y-71012000D01*
X85186352Y-70992315D01*
X85165710Y-70975681D01*
X85121003Y-70930974D01*
X85120999Y-70930971D01*
X84972933Y-70839642D01*
X84972927Y-70839639D01*
X84972925Y-70839638D01*
X84882898Y-70809806D01*
X84807776Y-70784913D01*
X84705855Y-70774500D01*
X84705848Y-70774500D01*
X83694152Y-70774500D01*
X83694144Y-70774500D01*
X83592223Y-70784913D01*
X83427077Y-70839637D01*
X83427066Y-70839642D01*
X83279000Y-70930971D01*
X83278996Y-70930974D01*
X83155975Y-71053995D01*
X83155974Y-71053997D01*
X83102556Y-71140598D01*
X83050611Y-71187321D01*
X82997020Y-71199500D01*
X77962471Y-71199500D01*
X77895432Y-71179815D01*
X77849677Y-71127011D01*
X77843256Y-71109613D01*
X77833911Y-71076956D01*
X77833909Y-71076953D01*
X77833909Y-71076951D01*
X77739698Y-70896593D01*
X77648432Y-70784664D01*
X77611109Y-70738890D01*
X77484109Y-70635336D01*
X77453407Y-70610302D01*
X77273049Y-70516091D01*
X77273048Y-70516090D01*
X77273045Y-70516089D01*
X77155829Y-70482550D01*
X77077418Y-70460114D01*
X77077415Y-70460113D01*
X77077413Y-70460113D01*
X77004631Y-70453642D01*
X76958037Y-70449500D01*
X76958033Y-70449500D01*
X76274500Y-70449500D01*
X76207461Y-70429815D01*
X76161706Y-70377011D01*
X76150500Y-70325500D01*
X76150500Y-68504604D01*
X76159939Y-68457151D01*
X76169737Y-68433497D01*
X76200500Y-68278842D01*
X76200500Y-68121158D01*
X76200500Y-68121155D01*
X76200499Y-68121153D01*
X76169738Y-67966510D01*
X76169737Y-67966503D01*
X76142849Y-67901588D01*
X76109397Y-67820827D01*
X76109390Y-67820814D01*
X76021789Y-67689711D01*
X76021786Y-67689707D01*
X75910292Y-67578213D01*
X75910288Y-67578210D01*
X75779185Y-67490609D01*
X75779172Y-67490602D01*
X75633501Y-67430264D01*
X75633489Y-67430261D01*
X75478845Y-67399500D01*
X75478842Y-67399500D01*
X75321158Y-67399500D01*
X75321155Y-67399500D01*
X75166510Y-67430261D01*
X75166498Y-67430264D01*
X75020827Y-67490602D01*
X75020814Y-67490609D01*
X74889711Y-67578210D01*
X74889707Y-67578213D01*
X74778213Y-67689707D01*
X74778210Y-67689711D01*
X74690609Y-67820814D01*
X74690602Y-67820827D01*
X74630264Y-67966498D01*
X74630261Y-67966510D01*
X74599500Y-68121153D01*
X74599500Y-68278846D01*
X74630261Y-68433489D01*
X74630263Y-68433497D01*
X74640061Y-68457151D01*
X74649500Y-68504604D01*
X74649500Y-70325500D01*
X74629815Y-70392539D01*
X74577011Y-70438294D01*
X74525500Y-70449500D01*
X74041971Y-70449500D01*
X74041965Y-70449500D01*
X74041964Y-70449501D01*
X74030316Y-70450536D01*
X73922584Y-70460113D01*
X73726954Y-70516089D01*
X73649894Y-70556342D01*
X73546593Y-70610302D01*
X73546591Y-70610303D01*
X73546590Y-70610304D01*
X73537640Y-70617602D01*
X73410093Y-70721602D01*
X73345699Y-70748711D01*
X73331734Y-70749500D01*
X69781058Y-70749500D01*
X69714019Y-70729815D01*
X69675519Y-70690597D01*
X69592712Y-70556344D01*
X69468656Y-70432288D01*
X69319334Y-70340186D01*
X69152797Y-70285001D01*
X69152795Y-70285000D01*
X69050010Y-70274500D01*
X68449998Y-70274500D01*
X68449980Y-70274501D01*
X68347203Y-70285000D01*
X68347200Y-70285001D01*
X68180668Y-70340185D01*
X68180663Y-70340187D01*
X68031342Y-70432289D01*
X67907288Y-70556343D01*
X67907283Y-70556349D01*
X67905241Y-70559661D01*
X67903247Y-70561453D01*
X67902807Y-70562011D01*
X67902711Y-70561935D01*
X67853291Y-70606383D01*
X67784328Y-70617602D01*
X67720247Y-70589755D01*
X67694168Y-70559656D01*
X67692319Y-70556659D01*
X67692316Y-70556655D01*
X67568345Y-70432684D01*
X67419124Y-70340643D01*
X67419119Y-70340641D01*
X67252697Y-70285494D01*
X67252690Y-70285493D01*
X67149986Y-70275000D01*
X67100000Y-70275000D01*
X67100000Y-72724999D01*
X67149972Y-72724999D01*
X67149986Y-72724998D01*
X67252697Y-72714505D01*
X67419119Y-72659358D01*
X67419124Y-72659356D01*
X67568345Y-72567315D01*
X67692318Y-72443342D01*
X67694165Y-72440348D01*
X67695969Y-72438724D01*
X67696798Y-72437677D01*
X67696976Y-72437818D01*
X67746110Y-72393621D01*
X67815073Y-72382396D01*
X67879156Y-72410236D01*
X67905243Y-72440341D01*
X67907288Y-72443656D01*
X68031344Y-72567712D01*
X68180666Y-72659814D01*
X68347203Y-72714999D01*
X68449991Y-72725500D01*
X69050008Y-72725499D01*
X69050016Y-72725498D01*
X69050019Y-72725498D01*
X69106302Y-72719748D01*
X69152797Y-72714999D01*
X69319334Y-72659814D01*
X69468656Y-72567712D01*
X69592712Y-72443656D01*
X69675519Y-72309402D01*
X69727467Y-72262679D01*
X69781058Y-72250500D01*
X72975501Y-72250500D01*
X73042540Y-72270185D01*
X73088295Y-72322989D01*
X73099501Y-72374500D01*
X73099501Y-72508036D01*
X73100723Y-72521786D01*
X73110113Y-72627415D01*
X73166089Y-72823045D01*
X73166090Y-72823048D01*
X73166091Y-72823049D01*
X73260302Y-73003407D01*
X73260304Y-73003409D01*
X73388890Y-73161109D01*
X73482803Y-73237684D01*
X73546593Y-73289698D01*
X73726951Y-73383909D01*
X73922582Y-73439886D01*
X74041963Y-73450500D01*
X74625500Y-73450499D01*
X74692539Y-73470183D01*
X74738294Y-73522987D01*
X74749500Y-73574499D01*
X74749500Y-76757057D01*
X74729815Y-76824096D01*
X74680595Y-76868145D01*
X74650704Y-76882969D01*
X74502278Y-77002277D01*
X74502277Y-77002278D01*
X74446647Y-77071486D01*
X74389304Y-77111405D01*
X74319482Y-77113985D01*
X74259349Y-77078406D01*
X74253353Y-77071486D01*
X74197722Y-77002278D01*
X74197721Y-77002277D01*
X74049295Y-76882969D01*
X74049292Y-76882967D01*
X73878697Y-76798360D01*
X73693892Y-76752400D01*
X73672506Y-76750950D01*
X73651123Y-76749500D01*
X73651120Y-76749500D01*
X72748877Y-76749500D01*
X72748874Y-76749501D01*
X72706113Y-76752399D01*
X72706112Y-76752399D01*
X72521303Y-76798360D01*
X72350707Y-76882967D01*
X72350704Y-76882969D01*
X72202278Y-77002277D01*
X72202277Y-77002278D01*
X72082969Y-77150704D01*
X72082967Y-77150707D01*
X71998360Y-77321302D01*
X71952400Y-77506108D01*
X71951951Y-77512725D01*
X71950516Y-77533891D01*
X71926342Y-77599443D01*
X71870564Y-77641521D01*
X71826801Y-77649500D01*
X68109798Y-77649500D01*
X68042759Y-77629815D01*
X68004259Y-77590597D01*
X67967712Y-77531344D01*
X67843656Y-77407288D01*
X67840342Y-77405243D01*
X67838546Y-77403248D01*
X67837989Y-77402807D01*
X67838064Y-77402711D01*
X67793618Y-77353297D01*
X67782397Y-77284334D01*
X67810240Y-77220252D01*
X67840348Y-77194165D01*
X67843342Y-77192318D01*
X67967315Y-77068345D01*
X68059356Y-76919124D01*
X68059358Y-76919119D01*
X68114505Y-76752697D01*
X68114506Y-76752690D01*
X68124999Y-76649986D01*
X68125000Y-76649973D01*
X68125000Y-76600000D01*
X65675001Y-76600000D01*
X65675001Y-76649986D01*
X65685494Y-76752697D01*
X65740641Y-76919119D01*
X65740643Y-76919124D01*
X65832684Y-77068345D01*
X65956655Y-77192316D01*
X65956659Y-77192319D01*
X65959656Y-77194168D01*
X65961279Y-77195972D01*
X65962323Y-77196798D01*
X65962181Y-77196976D01*
X66006381Y-77246116D01*
X66017602Y-77315079D01*
X65989759Y-77379161D01*
X65959661Y-77405241D01*
X65956349Y-77407283D01*
X65956343Y-77407288D01*
X65832289Y-77531342D01*
X65825276Y-77542712D01*
X65804121Y-77577011D01*
X65795741Y-77590597D01*
X65743793Y-77637321D01*
X65690202Y-77649500D01*
X62596870Y-77649500D01*
X62529831Y-77629815D01*
X62484076Y-77577011D01*
X62479164Y-77564505D01*
X62464179Y-77519285D01*
X62434814Y-77430666D01*
X62342712Y-77281344D01*
X62218656Y-77157288D01*
X62125888Y-77100069D01*
X62069336Y-77065187D01*
X62069331Y-77065185D01*
X62044120Y-77056831D01*
X61902797Y-77010001D01*
X61902795Y-77010000D01*
X61800010Y-76999500D01*
X58799998Y-76999500D01*
X58799981Y-76999501D01*
X58697203Y-77010000D01*
X58697200Y-77010001D01*
X58530668Y-77065185D01*
X58530663Y-77065187D01*
X58381342Y-77157289D01*
X58257289Y-77281342D01*
X58165187Y-77430663D01*
X58165185Y-77430668D01*
X58155465Y-77460001D01*
X58110001Y-77597203D01*
X58110001Y-77597204D01*
X58110000Y-77597204D01*
X58099500Y-77699983D01*
X58099500Y-77705500D01*
X58079815Y-77772539D01*
X58027011Y-77818294D01*
X57975500Y-77829500D01*
X55297462Y-77829500D01*
X55230423Y-77809815D01*
X55191923Y-77770597D01*
X55167712Y-77731344D01*
X55043656Y-77607288D01*
X54924657Y-77533889D01*
X54894336Y-77515187D01*
X54894331Y-77515185D01*
X54892862Y-77514698D01*
X54727797Y-77460001D01*
X54727795Y-77460000D01*
X54625010Y-77449500D01*
X53574998Y-77449500D01*
X53574980Y-77449501D01*
X53472203Y-77460000D01*
X53472200Y-77460001D01*
X53305668Y-77515185D01*
X53305663Y-77515187D01*
X53156342Y-77607289D01*
X53032289Y-77731342D01*
X53032288Y-77731344D01*
X53016457Y-77757011D01*
X53008077Y-77770597D01*
X52956129Y-77817321D01*
X52902538Y-77829500D01*
X50914985Y-77829500D01*
X50847946Y-77809815D01*
X50802191Y-77757011D01*
X50792247Y-77687853D01*
X50821272Y-77624297D01*
X50849888Y-77599962D01*
X50943340Y-77542319D01*
X50943344Y-77542316D01*
X51067315Y-77418345D01*
X51159356Y-77269124D01*
X51159358Y-77269119D01*
X51214505Y-77102697D01*
X51214506Y-77102690D01*
X51224999Y-76999986D01*
X51225000Y-76999973D01*
X51225000Y-76750000D01*
X50336500Y-76750000D01*
X50269461Y-76730315D01*
X50223706Y-76677511D01*
X50212500Y-76626000D01*
X50212500Y-76500000D01*
X50086500Y-76500000D01*
X50019461Y-76480315D01*
X49973706Y-76427511D01*
X49962500Y-76376000D01*
X49962500Y-75325951D01*
X50462500Y-75325951D01*
X50462500Y-76250000D01*
X51224999Y-76250000D01*
X51224999Y-76050013D01*
X65675000Y-76050013D01*
X65675000Y-76100000D01*
X66650000Y-76100000D01*
X67150000Y-76100000D01*
X68124999Y-76100000D01*
X68124999Y-76050028D01*
X68124998Y-76050013D01*
X68114505Y-75947302D01*
X68059358Y-75780880D01*
X68059356Y-75780875D01*
X67967315Y-75631654D01*
X67843345Y-75507684D01*
X67694124Y-75415643D01*
X67694119Y-75415641D01*
X67527697Y-75360494D01*
X67527690Y-75360493D01*
X67424986Y-75350000D01*
X67150000Y-75350000D01*
X67150000Y-76100000D01*
X66650000Y-76100000D01*
X66650000Y-75350000D01*
X66375029Y-75350000D01*
X66375012Y-75350001D01*
X66272302Y-75360494D01*
X66105880Y-75415641D01*
X66105875Y-75415643D01*
X65956654Y-75507684D01*
X65832684Y-75631654D01*
X65740643Y-75780875D01*
X65740641Y-75780880D01*
X65685494Y-75947302D01*
X65685493Y-75947309D01*
X65675000Y-76050013D01*
X51224999Y-76050013D01*
X51224999Y-76000028D01*
X51224998Y-76000013D01*
X51214505Y-75897302D01*
X51159358Y-75730880D01*
X51159356Y-75730875D01*
X51067315Y-75581654D01*
X50943345Y-75457684D01*
X50794124Y-75365643D01*
X50794119Y-75365641D01*
X50627697Y-75310494D01*
X50627690Y-75310493D01*
X50561404Y-75303720D01*
X50462500Y-75325951D01*
X49962500Y-75325951D01*
X49962500Y-75300000D01*
X49962499Y-75299999D01*
X49900028Y-75300000D01*
X49900001Y-75300002D01*
X49878209Y-75302227D01*
X49704261Y-75341325D01*
X49630878Y-75365642D01*
X49630875Y-75365643D01*
X49481657Y-75457682D01*
X49388034Y-75551305D01*
X49326710Y-75584789D01*
X49257019Y-75579805D01*
X49212672Y-75551304D01*
X49118657Y-75457289D01*
X49118656Y-75457288D01*
X48970075Y-75365643D01*
X48969336Y-75365187D01*
X48969331Y-75365185D01*
X48967862Y-75364698D01*
X48802797Y-75310001D01*
X48802794Y-75310000D01*
X48718689Y-75301408D01*
X48653997Y-75275012D01*
X48613846Y-75217831D01*
X48610983Y-75148020D01*
X48639133Y-75099999D01*
X50262500Y-75099999D01*
X50324972Y-75099999D01*
X50324986Y-75099998D01*
X50346791Y-75097770D01*
X50520742Y-75058672D01*
X50594117Y-75034359D01*
X50594124Y-75034356D01*
X50743345Y-74942315D01*
X50867315Y-74818345D01*
X50959356Y-74669124D01*
X50959358Y-74669119D01*
X51014505Y-74502697D01*
X51014506Y-74502690D01*
X51024999Y-74399986D01*
X51025000Y-74399973D01*
X51025000Y-74150000D01*
X50262500Y-74150000D01*
X50262500Y-75099999D01*
X48639133Y-75099999D01*
X48646318Y-75087743D01*
X48692285Y-75060345D01*
X48769334Y-75034814D01*
X48918656Y-74942712D01*
X49012675Y-74848692D01*
X49073994Y-74815210D01*
X49143686Y-74820194D01*
X49188034Y-74848695D01*
X49281654Y-74942315D01*
X49430875Y-75034356D01*
X49430880Y-75034358D01*
X49597302Y-75089505D01*
X49597309Y-75089506D01*
X49663592Y-75096278D01*
X49762500Y-75074047D01*
X49762500Y-74024000D01*
X49782185Y-73956961D01*
X49834989Y-73911206D01*
X49886500Y-73900000D01*
X50012500Y-73900000D01*
X50012500Y-73774000D01*
X50032185Y-73706961D01*
X50084989Y-73661206D01*
X50136500Y-73650000D01*
X51024999Y-73650000D01*
X51024999Y-73400028D01*
X51024998Y-73400013D01*
X51014505Y-73297302D01*
X50959358Y-73130880D01*
X50959356Y-73130875D01*
X50867315Y-72981654D01*
X50756776Y-72871115D01*
X50723291Y-72809792D01*
X50728275Y-72740100D01*
X50756776Y-72695753D01*
X50793173Y-72659356D01*
X50831526Y-72621003D01*
X50922862Y-72472925D01*
X50951833Y-72385496D01*
X50991606Y-72328051D01*
X51056122Y-72301228D01*
X51069539Y-72300500D01*
X51182199Y-72300500D01*
X51249238Y-72320185D01*
X51294993Y-72372989D01*
X51299903Y-72385492D01*
X51326939Y-72467082D01*
X51327685Y-72469331D01*
X51327687Y-72469336D01*
X51351556Y-72508034D01*
X51419788Y-72618656D01*
X51543844Y-72742712D01*
X51693166Y-72834814D01*
X51859703Y-72889999D01*
X51962491Y-72900500D01*
X52587508Y-72900499D01*
X52587516Y-72900498D01*
X52587519Y-72900498D01*
X52643802Y-72894748D01*
X52690297Y-72889999D01*
X52856834Y-72834814D01*
X53006156Y-72742712D01*
X53100175Y-72648692D01*
X53161494Y-72615210D01*
X53231186Y-72620194D01*
X53275534Y-72648695D01*
X53369154Y-72742315D01*
X53518375Y-72834356D01*
X53518380Y-72834358D01*
X53684802Y-72889505D01*
X53684809Y-72889506D01*
X53787519Y-72899999D01*
X54350000Y-72899999D01*
X54412472Y-72899999D01*
X54412486Y-72899998D01*
X54515197Y-72889505D01*
X54681619Y-72834358D01*
X54681624Y-72834356D01*
X54830845Y-72742315D01*
X54954815Y-72618345D01*
X55046856Y-72469124D01*
X55046858Y-72469119D01*
X55102005Y-72302697D01*
X55102006Y-72302690D01*
X55112499Y-72199986D01*
X55112500Y-72199973D01*
X55112500Y-72024986D01*
X65850001Y-72024986D01*
X65860494Y-72127697D01*
X65915641Y-72294119D01*
X65915643Y-72294124D01*
X66007684Y-72443345D01*
X66131654Y-72567315D01*
X66280875Y-72659356D01*
X66280880Y-72659358D01*
X66447302Y-72714505D01*
X66447309Y-72714506D01*
X66550019Y-72724999D01*
X66599999Y-72724998D01*
X66600000Y-72724998D01*
X66600000Y-71750000D01*
X65850001Y-71750000D01*
X65850001Y-72024986D01*
X55112500Y-72024986D01*
X55112500Y-71950000D01*
X54350000Y-71950000D01*
X54350000Y-72899999D01*
X53787519Y-72899999D01*
X53849999Y-72899998D01*
X53850000Y-72899998D01*
X53850000Y-71450000D01*
X54350000Y-71450000D01*
X55112499Y-71450000D01*
X55112499Y-71200028D01*
X55112498Y-71200013D01*
X55102005Y-71097302D01*
X55073364Y-71010868D01*
X55061483Y-70975013D01*
X65850000Y-70975013D01*
X65850000Y-71250000D01*
X66600000Y-71250000D01*
X66600000Y-70275000D01*
X66599999Y-70274999D01*
X66550029Y-70275000D01*
X66550011Y-70275001D01*
X66447302Y-70285494D01*
X66280880Y-70340641D01*
X66280875Y-70340643D01*
X66131654Y-70432684D01*
X66007684Y-70556654D01*
X65915643Y-70705875D01*
X65915641Y-70705880D01*
X65860494Y-70872302D01*
X65860493Y-70872309D01*
X65850000Y-70975013D01*
X55061483Y-70975013D01*
X55046858Y-70930880D01*
X55046856Y-70930875D01*
X54954815Y-70781654D01*
X54830845Y-70657684D01*
X54681624Y-70565643D01*
X54681619Y-70565641D01*
X54515197Y-70510494D01*
X54515190Y-70510493D01*
X54412486Y-70500000D01*
X54350000Y-70500000D01*
X54350000Y-71450000D01*
X53850000Y-71450000D01*
X53850000Y-70500000D01*
X53849999Y-70499999D01*
X53787528Y-70500000D01*
X53787511Y-70500001D01*
X53684802Y-70510494D01*
X53518380Y-70565641D01*
X53518375Y-70565643D01*
X53369157Y-70657682D01*
X53275534Y-70751305D01*
X53214210Y-70784789D01*
X53144519Y-70779805D01*
X53100172Y-70751304D01*
X53006157Y-70657289D01*
X53006156Y-70657288D01*
X52856834Y-70565186D01*
X52690297Y-70510001D01*
X52690295Y-70510000D01*
X52587510Y-70499500D01*
X51962498Y-70499500D01*
X51962480Y-70499501D01*
X51859703Y-70510000D01*
X51859700Y-70510001D01*
X51693168Y-70565185D01*
X51693163Y-70565187D01*
X51543842Y-70657289D01*
X51419789Y-70781342D01*
X51327687Y-70930663D01*
X51327685Y-70930668D01*
X51299905Y-71014504D01*
X51260132Y-71071949D01*
X51195616Y-71098772D01*
X51182199Y-71099500D01*
X51069539Y-71099500D01*
X51002500Y-71079815D01*
X50956745Y-71027011D01*
X50951833Y-71014504D01*
X50938747Y-70975013D01*
X50922862Y-70927075D01*
X50922858Y-70927069D01*
X50922857Y-70927066D01*
X50831528Y-70779000D01*
X50831525Y-70778996D01*
X50708503Y-70655974D01*
X50708499Y-70655971D01*
X50560433Y-70564642D01*
X50560427Y-70564639D01*
X50560425Y-70564638D01*
X50535389Y-70556342D01*
X50395276Y-70509913D01*
X50293355Y-70499500D01*
X50293348Y-70499500D01*
X49706652Y-70499500D01*
X49706644Y-70499500D01*
X49604723Y-70509913D01*
X49439577Y-70564637D01*
X49439566Y-70564642D01*
X49291500Y-70655971D01*
X49291496Y-70655974D01*
X49168474Y-70778996D01*
X49168471Y-70779000D01*
X49168038Y-70779703D01*
X49167614Y-70780083D01*
X49163993Y-70784664D01*
X49163210Y-70784045D01*
X49116090Y-70826428D01*
X49047128Y-70837649D01*
X48983046Y-70809806D01*
X48961157Y-70784544D01*
X48961007Y-70784664D01*
X48958359Y-70781315D01*
X48956962Y-70779703D01*
X48956528Y-70779000D01*
X48956525Y-70778996D01*
X48833503Y-70655974D01*
X48833499Y-70655971D01*
X48685433Y-70564642D01*
X48685427Y-70564639D01*
X48685425Y-70564638D01*
X48660389Y-70556342D01*
X48520276Y-70509913D01*
X48418355Y-70499500D01*
X48418348Y-70499500D01*
X47831652Y-70499500D01*
X47831644Y-70499500D01*
X47729723Y-70509913D01*
X47564577Y-70564637D01*
X47564566Y-70564642D01*
X47416500Y-70655971D01*
X47416496Y-70655974D01*
X47293474Y-70778996D01*
X47293471Y-70779000D01*
X47202142Y-70927066D01*
X47202137Y-70927077D01*
X47173167Y-71014504D01*
X47133394Y-71071949D01*
X47068878Y-71098772D01*
X47055461Y-71099500D01*
X46720942Y-71099500D01*
X46568215Y-71140423D01*
X46550578Y-71150606D01*
X46550577Y-71150606D01*
X46431290Y-71219475D01*
X46431282Y-71219481D01*
X46319478Y-71331286D01*
X44838902Y-72811861D01*
X44777579Y-72845346D01*
X44707887Y-72840362D01*
X44651954Y-72798490D01*
X44627603Y-72733901D01*
X44627100Y-72727512D01*
X44627099Y-72727504D01*
X44581283Y-72569806D01*
X44581282Y-72569803D01*
X44497685Y-72428447D01*
X44497678Y-72428438D01*
X44471271Y-72402031D01*
X44437786Y-72340708D01*
X44442770Y-72271016D01*
X44444391Y-72266898D01*
X44492049Y-72151839D01*
X44492051Y-72151835D01*
X44526461Y-71978846D01*
X44530500Y-71958543D01*
X44530500Y-71761456D01*
X44492052Y-71568170D01*
X44492051Y-71568169D01*
X44492051Y-71568165D01*
X44454875Y-71478414D01*
X44416635Y-71386092D01*
X44416628Y-71386079D01*
X44307139Y-71222218D01*
X44307136Y-71222214D01*
X44167785Y-71082863D01*
X44167781Y-71082860D01*
X44003920Y-70973371D01*
X44003907Y-70973364D01*
X43821839Y-70897950D01*
X43821829Y-70897947D01*
X43628543Y-70859500D01*
X43628541Y-70859500D01*
X42331459Y-70859500D01*
X42331457Y-70859500D01*
X42138170Y-70897947D01*
X42138160Y-70897950D01*
X41956092Y-70973364D01*
X41956079Y-70973371D01*
X41792218Y-71082860D01*
X41792214Y-71082863D01*
X41652863Y-71222214D01*
X41652860Y-71222218D01*
X41543371Y-71386079D01*
X41543364Y-71386092D01*
X41467950Y-71568160D01*
X41467947Y-71568170D01*
X41429500Y-71761456D01*
X41429500Y-71761459D01*
X41429500Y-71958541D01*
X41429500Y-71958543D01*
X41429499Y-71958543D01*
X41467947Y-72151829D01*
X41467950Y-72151839D01*
X41543364Y-72333907D01*
X41543371Y-72333920D01*
X41652860Y-72497781D01*
X41652863Y-72497785D01*
X41792214Y-72637136D01*
X41792218Y-72637139D01*
X41956079Y-72746628D01*
X41956083Y-72746630D01*
X41956086Y-72746632D01*
X41965523Y-72750541D01*
X42019927Y-72794378D01*
X42041995Y-72860672D01*
X42024719Y-72928372D01*
X42021565Y-72933032D01*
X41943719Y-73067863D01*
X41913807Y-73179500D01*
X41904500Y-73214234D01*
X41904500Y-73365766D01*
X41924109Y-73438950D01*
X41943719Y-73512136D01*
X41949984Y-73522987D01*
X42019485Y-73643365D01*
X42019487Y-73643367D01*
X42084278Y-73708158D01*
X42117763Y-73769481D01*
X42116372Y-73827932D01*
X42079499Y-73965543D01*
X42079499Y-74133646D01*
X42079500Y-74133659D01*
X42079500Y-78075730D01*
X42079499Y-78075748D01*
X42079499Y-78241454D01*
X42079498Y-78241454D01*
X42079499Y-78241457D01*
X42115550Y-78376000D01*
X42120424Y-78394187D01*
X42132700Y-78415449D01*
X42132702Y-78415453D01*
X42154099Y-78452515D01*
X42170570Y-78520415D01*
X42147717Y-78586442D01*
X42131694Y-78603050D01*
X42132382Y-78603738D01*
X42019485Y-78716635D01*
X41943719Y-78847863D01*
X41934673Y-78881624D01*
X41904500Y-78994234D01*
X41904500Y-79145766D01*
X41905964Y-79151228D01*
X41943719Y-79292136D01*
X41966587Y-79331744D01*
X42019485Y-79423365D01*
X42019486Y-79423366D01*
X42023549Y-79430403D01*
X42021220Y-79431747D01*
X42041645Y-79484584D01*
X42027603Y-79553029D01*
X41978787Y-79603016D01*
X41965528Y-79609456D01*
X41956094Y-79613363D01*
X41956079Y-79613371D01*
X41792218Y-79722860D01*
X41792214Y-79722863D01*
X41652863Y-79862214D01*
X41652860Y-79862218D01*
X41543371Y-80026079D01*
X41543364Y-80026092D01*
X41467950Y-80208160D01*
X41467947Y-80208170D01*
X41429500Y-80401456D01*
X41429500Y-80401459D01*
X41429500Y-80598541D01*
X41429500Y-80598543D01*
X41429499Y-80598543D01*
X41467947Y-80791829D01*
X41467950Y-80791839D01*
X41543364Y-80973907D01*
X41543371Y-80973920D01*
X41652860Y-81137781D01*
X41652863Y-81137785D01*
X41792214Y-81277136D01*
X41792218Y-81277139D01*
X41931041Y-81369898D01*
X41975846Y-81423510D01*
X41984553Y-81492835D01*
X41954399Y-81555863D01*
X41894956Y-81592582D01*
X41862150Y-81597000D01*
X39767850Y-81597000D01*
X39700811Y-81577315D01*
X39655056Y-81524511D01*
X39645112Y-81455353D01*
X39674137Y-81391797D01*
X39698959Y-81369898D01*
X39815069Y-81292315D01*
X39837782Y-81277139D01*
X39977139Y-81137782D01*
X40086632Y-80973914D01*
X40162051Y-80791835D01*
X40190267Y-80649986D01*
X40200500Y-80598543D01*
X40200500Y-80401456D01*
X40162052Y-80208170D01*
X40162051Y-80208169D01*
X40162051Y-80208165D01*
X40137964Y-80150013D01*
X40086635Y-80026092D01*
X40086628Y-80026079D01*
X39977139Y-79862218D01*
X39977136Y-79862214D01*
X39837785Y-79722863D01*
X39837781Y-79722860D01*
X39673920Y-79613371D01*
X39673907Y-79613364D01*
X39491839Y-79537950D01*
X39491829Y-79537947D01*
X39298543Y-79499500D01*
X39298541Y-79499500D01*
X38301459Y-79499500D01*
X38299000Y-79499500D01*
X38231961Y-79479815D01*
X38186206Y-79427011D01*
X38175000Y-79375500D01*
X38175000Y-72984500D01*
X38194685Y-72917461D01*
X38247489Y-72871706D01*
X38299000Y-72860500D01*
X39298543Y-72860500D01*
X39454462Y-72829485D01*
X39491835Y-72822051D01*
X39673914Y-72746632D01*
X39837782Y-72637139D01*
X39977139Y-72497782D01*
X40086632Y-72333914D01*
X40103116Y-72294119D01*
X40121183Y-72250500D01*
X40162051Y-72151835D01*
X40196461Y-71978846D01*
X40200500Y-71958543D01*
X40200500Y-71761456D01*
X40162052Y-71568170D01*
X40162051Y-71568169D01*
X40162051Y-71568165D01*
X40124875Y-71478414D01*
X40086635Y-71386092D01*
X40086628Y-71386079D01*
X39977139Y-71222218D01*
X39977136Y-71222214D01*
X39837785Y-71082863D01*
X39837781Y-71082860D01*
X39673920Y-70973371D01*
X39673907Y-70973364D01*
X39491839Y-70897950D01*
X39491829Y-70897947D01*
X39298543Y-70859500D01*
X39298541Y-70859500D01*
X38301459Y-70859500D01*
X38299000Y-70859500D01*
X38231961Y-70839815D01*
X38186206Y-70787011D01*
X38175000Y-70735500D01*
X38175000Y-54521153D01*
X48599500Y-54521153D01*
X48599500Y-54678846D01*
X48630261Y-54833489D01*
X48630264Y-54833501D01*
X48690602Y-54979172D01*
X48690609Y-54979185D01*
X48778210Y-55110288D01*
X48778213Y-55110292D01*
X48889707Y-55221786D01*
X48889711Y-55221789D01*
X49020814Y-55309390D01*
X49020827Y-55309397D01*
X49153152Y-55364207D01*
X49166503Y-55369737D01*
X49231147Y-55382595D01*
X49321849Y-55400638D01*
X49383760Y-55433023D01*
X49385339Y-55434574D01*
X50565425Y-56614660D01*
X50598910Y-56675983D01*
X50599361Y-56678149D01*
X50630261Y-56833491D01*
X50630264Y-56833501D01*
X50690602Y-56979172D01*
X50690609Y-56979185D01*
X50778210Y-57110288D01*
X50778213Y-57110292D01*
X50889707Y-57221786D01*
X50889711Y-57221789D01*
X51020814Y-57309390D01*
X51020827Y-57309397D01*
X51166498Y-57369735D01*
X51166503Y-57369737D01*
X51278542Y-57392023D01*
X51321153Y-57400499D01*
X51321156Y-57400500D01*
X51321158Y-57400500D01*
X51478844Y-57400500D01*
X51478845Y-57400499D01*
X51633497Y-57369737D01*
X51779179Y-57309394D01*
X51910289Y-57221789D01*
X52021789Y-57110289D01*
X52109394Y-56979179D01*
X52169737Y-56833497D01*
X52200500Y-56678842D01*
X52200500Y-56521158D01*
X52200500Y-56521155D01*
X52200499Y-56521153D01*
X52169737Y-56366503D01*
X52150955Y-56321158D01*
X52109397Y-56220827D01*
X52109390Y-56220814D01*
X52021789Y-56089711D01*
X52021786Y-56089707D01*
X51910292Y-55978213D01*
X51910288Y-55978210D01*
X51779185Y-55890609D01*
X51779172Y-55890602D01*
X51633501Y-55830264D01*
X51633491Y-55830261D01*
X51478149Y-55799361D01*
X51416238Y-55766976D01*
X51414660Y-55765425D01*
X50234574Y-54585339D01*
X50201089Y-54524016D01*
X50200638Y-54521849D01*
X50177901Y-54407546D01*
X50169737Y-54366503D01*
X50169735Y-54366498D01*
X50109397Y-54220827D01*
X50109390Y-54220814D01*
X50021789Y-54089711D01*
X50021786Y-54089707D01*
X49910292Y-53978213D01*
X49910288Y-53978210D01*
X49779185Y-53890609D01*
X49779172Y-53890602D01*
X49633501Y-53830264D01*
X49633489Y-53830261D01*
X49478845Y-53799500D01*
X49478842Y-53799500D01*
X49321158Y-53799500D01*
X49321155Y-53799500D01*
X49166510Y-53830261D01*
X49166498Y-53830264D01*
X49020827Y-53890602D01*
X49020814Y-53890609D01*
X48889711Y-53978210D01*
X48889707Y-53978213D01*
X48778213Y-54089707D01*
X48778210Y-54089711D01*
X48690609Y-54220814D01*
X48690602Y-54220827D01*
X48630264Y-54366498D01*
X48630261Y-54366510D01*
X48599500Y-54521153D01*
X38175000Y-54521153D01*
X38175000Y-53204108D01*
X44584000Y-53204108D01*
X44584000Y-53335892D01*
X44599005Y-53391891D01*
X44618108Y-53463187D01*
X44643408Y-53507007D01*
X44684000Y-53577314D01*
X44777186Y-53670500D01*
X44891314Y-53736392D01*
X45018608Y-53770500D01*
X45018610Y-53770500D01*
X45150390Y-53770500D01*
X45150392Y-53770500D01*
X45277686Y-53736392D01*
X45391814Y-53670500D01*
X45485000Y-53577314D01*
X45550892Y-53463186D01*
X45585000Y-53335892D01*
X45585000Y-53204108D01*
X45550892Y-53076814D01*
X45485000Y-52962686D01*
X45391814Y-52869500D01*
X45315604Y-52825500D01*
X45277687Y-52803608D01*
X45214039Y-52786554D01*
X45150392Y-52769500D01*
X45018608Y-52769500D01*
X44891312Y-52803608D01*
X44777186Y-52869500D01*
X44777183Y-52869502D01*
X44684002Y-52962683D01*
X44684000Y-52962686D01*
X44618108Y-53076812D01*
X44585101Y-53199999D01*
X44584000Y-53204108D01*
X38175000Y-53204108D01*
X38175000Y-51121153D01*
X42099500Y-51121153D01*
X42099500Y-51278846D01*
X42130261Y-51433489D01*
X42130264Y-51433501D01*
X42190602Y-51579172D01*
X42190609Y-51579185D01*
X42278210Y-51710288D01*
X42278213Y-51710292D01*
X42389707Y-51821786D01*
X42389711Y-51821789D01*
X42520814Y-51909390D01*
X42520827Y-51909397D01*
X42616207Y-51948904D01*
X42666503Y-51969737D01*
X42821153Y-52000499D01*
X42821156Y-52000500D01*
X42821158Y-52000500D01*
X42978844Y-52000500D01*
X42978845Y-52000499D01*
X43133497Y-51969737D01*
X43279179Y-51909394D01*
X43359225Y-51855909D01*
X43410875Y-51821398D01*
X43477553Y-51800520D01*
X43479766Y-51800500D01*
X108217060Y-51800500D01*
X108284099Y-51820185D01*
X108304736Y-51836814D01*
X108350675Y-51882753D01*
X108389712Y-51921790D01*
X108520814Y-52009390D01*
X108520827Y-52009397D01*
X108666498Y-52069735D01*
X108666503Y-52069737D01*
X108821153Y-52100499D01*
X108821156Y-52100500D01*
X108821158Y-52100500D01*
X108978844Y-52100500D01*
X108978845Y-52100499D01*
X109133497Y-52069737D01*
X109279179Y-52009394D01*
X109410289Y-51921789D01*
X109521789Y-51810289D01*
X109609394Y-51679179D01*
X109669737Y-51533497D01*
X109700500Y-51378842D01*
X109700500Y-51221158D01*
X109700500Y-51221155D01*
X109700499Y-51221153D01*
X109669737Y-51066503D01*
X109628314Y-50966498D01*
X109609397Y-50920827D01*
X109609390Y-50920814D01*
X109521789Y-50789711D01*
X109521786Y-50789707D01*
X109410292Y-50678213D01*
X109410288Y-50678210D01*
X109279185Y-50590609D01*
X109279172Y-50590602D01*
X109133501Y-50530264D01*
X109133489Y-50530261D01*
X108978845Y-50499500D01*
X108978842Y-50499500D01*
X108821158Y-50499500D01*
X108821155Y-50499500D01*
X108666510Y-50530261D01*
X108666498Y-50530264D01*
X108522136Y-50590061D01*
X108474684Y-50599500D01*
X43479766Y-50599500D01*
X43412727Y-50579815D01*
X43410875Y-50578602D01*
X43279185Y-50490609D01*
X43279172Y-50490602D01*
X43133501Y-50430264D01*
X43133489Y-50430261D01*
X42978845Y-50399500D01*
X42978842Y-50399500D01*
X42821158Y-50399500D01*
X42821155Y-50399500D01*
X42666510Y-50430261D01*
X42666498Y-50430264D01*
X42520827Y-50490602D01*
X42520814Y-50490609D01*
X42389711Y-50578210D01*
X42389707Y-50578213D01*
X42278213Y-50689707D01*
X42278210Y-50689711D01*
X42190609Y-50820814D01*
X42190602Y-50820827D01*
X42130264Y-50966498D01*
X42130261Y-50966510D01*
X42099500Y-51121153D01*
X38175000Y-51121153D01*
X38175000Y-50218465D01*
X38194685Y-50151426D01*
X38247489Y-50105671D01*
X38299000Y-50094465D01*
X166190510Y-50094465D01*
X166257549Y-50114150D01*
G37*
%TD.AperFunction*%
%TA.AperFunction,Conductor*%
G36*
X66079963Y-79168960D02*
G01*
X66105666Y-79184814D01*
X66272203Y-79239999D01*
X66374991Y-79250500D01*
X67425008Y-79250499D01*
X67425016Y-79250498D01*
X67425019Y-79250498D01*
X67481302Y-79244748D01*
X67527797Y-79239999D01*
X67694334Y-79184814D01*
X67720036Y-79168960D01*
X67785132Y-79150500D01*
X71907463Y-79150500D01*
X71974502Y-79170185D01*
X72018549Y-79219402D01*
X72082970Y-79349296D01*
X72117868Y-79392711D01*
X72202277Y-79497721D01*
X72202278Y-79497722D01*
X72350704Y-79617030D01*
X72350707Y-79617032D01*
X72521302Y-79701639D01*
X72521303Y-79701639D01*
X72521307Y-79701641D01*
X72706111Y-79747600D01*
X72748877Y-79750500D01*
X73587769Y-79750499D01*
X73654808Y-79770183D01*
X73675450Y-79786818D01*
X75273951Y-81385319D01*
X75307436Y-81446642D01*
X75302452Y-81516334D01*
X75260580Y-81572267D01*
X75195116Y-81596684D01*
X75186270Y-81597000D01*
X54641076Y-81597000D01*
X54574037Y-81577315D01*
X54528282Y-81524511D01*
X54518338Y-81455353D01*
X54547363Y-81391797D01*
X54606141Y-81354023D01*
X54628474Y-81349642D01*
X54727697Y-81339505D01*
X54894119Y-81284358D01*
X54894124Y-81284356D01*
X55043345Y-81192315D01*
X55167315Y-81068345D01*
X55259356Y-80919124D01*
X55259358Y-80919119D01*
X55314505Y-80752697D01*
X55314506Y-80752690D01*
X55324999Y-80649986D01*
X55325000Y-80649973D01*
X55325000Y-80600000D01*
X52875001Y-80600000D01*
X52875001Y-80649986D01*
X52885494Y-80752697D01*
X52940641Y-80919119D01*
X52940643Y-80919124D01*
X53032684Y-81068345D01*
X53156654Y-81192315D01*
X53305875Y-81284356D01*
X53305880Y-81284358D01*
X53472302Y-81339505D01*
X53472309Y-81339506D01*
X53571516Y-81349642D01*
X53636207Y-81376038D01*
X53676359Y-81433219D01*
X53679222Y-81503030D01*
X53643888Y-81563307D01*
X53581575Y-81594912D01*
X53558913Y-81597000D01*
X50186613Y-81597000D01*
X50119574Y-81577315D01*
X50073819Y-81524511D01*
X50063875Y-81455353D01*
X50092900Y-81391797D01*
X50121516Y-81367461D01*
X50243345Y-81292315D01*
X50367315Y-81168345D01*
X50459356Y-81019124D01*
X50459358Y-81019119D01*
X50514505Y-80852697D01*
X50514506Y-80852690D01*
X50524999Y-80749986D01*
X50525000Y-80749973D01*
X50525000Y-80700000D01*
X48075001Y-80700000D01*
X48075001Y-80749986D01*
X48085494Y-80852697D01*
X48140641Y-81019119D01*
X48140643Y-81019124D01*
X48232684Y-81168345D01*
X48356654Y-81292315D01*
X48478484Y-81367461D01*
X48525209Y-81419409D01*
X48536430Y-81488372D01*
X48508587Y-81552454D01*
X48450518Y-81591310D01*
X48413387Y-81597000D01*
X44097850Y-81597000D01*
X44030811Y-81577315D01*
X43985056Y-81524511D01*
X43975112Y-81455353D01*
X44004137Y-81391797D01*
X44028959Y-81369898D01*
X44145069Y-81292315D01*
X44167782Y-81277139D01*
X44307139Y-81137782D01*
X44416632Y-80973914D01*
X44492051Y-80791835D01*
X44520267Y-80649986D01*
X44530500Y-80598543D01*
X44530500Y-80401456D01*
X44492052Y-80208170D01*
X44492051Y-80208169D01*
X44492051Y-80208165D01*
X44444389Y-80093099D01*
X44436921Y-80023633D01*
X44468196Y-79961153D01*
X44471271Y-79957966D01*
X44497683Y-79931553D01*
X44497686Y-79931550D01*
X44581281Y-79790198D01*
X44627100Y-79632486D01*
X44627295Y-79630001D01*
X44627295Y-79630000D01*
X44066091Y-79630000D01*
X44007632Y-79615355D01*
X44003193Y-79612982D01*
X43953351Y-79564017D01*
X43937894Y-79495879D01*
X43961730Y-79430200D01*
X44017289Y-79387834D01*
X44051922Y-79380009D01*
X44082569Y-79377598D01*
X44082571Y-79377597D01*
X44082573Y-79377597D01*
X44227733Y-79335424D01*
X44262328Y-79330500D01*
X48242770Y-79330500D01*
X48309809Y-79350185D01*
X48330451Y-79366819D01*
X48356344Y-79392712D01*
X48359628Y-79394737D01*
X48359653Y-79394753D01*
X48361445Y-79396746D01*
X48362011Y-79397193D01*
X48361934Y-79397289D01*
X48406379Y-79446699D01*
X48417603Y-79515661D01*
X48389761Y-79579744D01*
X48359665Y-79605826D01*
X48356660Y-79607679D01*
X48356655Y-79607683D01*
X48232684Y-79731654D01*
X48140643Y-79880875D01*
X48140641Y-79880880D01*
X48085494Y-80047302D01*
X48085493Y-80047309D01*
X48075000Y-80150013D01*
X48075000Y-80200000D01*
X50524999Y-80200000D01*
X50524999Y-80150028D01*
X50524998Y-80150013D01*
X50514505Y-80047302D01*
X50459358Y-79880880D01*
X50459356Y-79880875D01*
X50367315Y-79731654D01*
X50243344Y-79607683D01*
X50243341Y-79607681D01*
X50240339Y-79605829D01*
X50238713Y-79604021D01*
X50237677Y-79603202D01*
X50237817Y-79603024D01*
X50193617Y-79553880D01*
X50182397Y-79484917D01*
X50210243Y-79420836D01*
X50240344Y-79394754D01*
X50243656Y-79392712D01*
X50269549Y-79366819D01*
X50330872Y-79333334D01*
X50357230Y-79330500D01*
X53034477Y-79330500D01*
X53101516Y-79350185D01*
X53147271Y-79402989D01*
X53157215Y-79472147D01*
X53128190Y-79535703D01*
X53122158Y-79542181D01*
X53032684Y-79631654D01*
X52940643Y-79780875D01*
X52940641Y-79780880D01*
X52885494Y-79947302D01*
X52885493Y-79947309D01*
X52875000Y-80050013D01*
X52875000Y-80100000D01*
X55324999Y-80100000D01*
X55324999Y-80050028D01*
X55324998Y-80050013D01*
X55314505Y-79947302D01*
X55259358Y-79780880D01*
X55259356Y-79780875D01*
X55167315Y-79631654D01*
X55077842Y-79542181D01*
X55044357Y-79480858D01*
X55049341Y-79411166D01*
X55091213Y-79355233D01*
X55156677Y-79330816D01*
X55165523Y-79330500D01*
X58072026Y-79330500D01*
X58139065Y-79350185D01*
X58177563Y-79389401D01*
X58257288Y-79518656D01*
X58381344Y-79642712D01*
X58530666Y-79734814D01*
X58697203Y-79789999D01*
X58799991Y-79800500D01*
X61800008Y-79800499D01*
X61902797Y-79789999D01*
X62069334Y-79734814D01*
X62218656Y-79642712D01*
X62342712Y-79518656D01*
X62434814Y-79369334D01*
X62479164Y-79235494D01*
X62518936Y-79178051D01*
X62583451Y-79151228D01*
X62596869Y-79150500D01*
X66014868Y-79150500D01*
X66079963Y-79168960D01*
G37*
%TD.AperFunction*%
%TA.AperFunction,Conductor*%
G36*
X152429808Y-61420185D02*
G01*
X152450450Y-61436818D01*
X152556344Y-61542712D01*
X152556346Y-61542713D01*
X152559653Y-61544753D01*
X152561445Y-61546746D01*
X152562011Y-61547193D01*
X152561934Y-61547289D01*
X152606379Y-61596699D01*
X152617603Y-61665661D01*
X152589761Y-61729744D01*
X152559665Y-61755826D01*
X152556660Y-61757679D01*
X152556655Y-61757683D01*
X152432684Y-61881654D01*
X152340643Y-62030875D01*
X152340641Y-62030880D01*
X152285494Y-62197302D01*
X152285493Y-62197309D01*
X152275000Y-62300013D01*
X152275000Y-62350000D01*
X154724999Y-62350000D01*
X154724999Y-62300028D01*
X154724998Y-62300013D01*
X154714505Y-62197302D01*
X154659358Y-62030880D01*
X154659356Y-62030875D01*
X154567315Y-61881654D01*
X154443344Y-61757683D01*
X154443341Y-61757681D01*
X154440339Y-61755829D01*
X154438713Y-61754021D01*
X154437677Y-61753202D01*
X154437817Y-61753024D01*
X154393617Y-61703880D01*
X154382397Y-61634917D01*
X154410243Y-61570836D01*
X154440344Y-61544754D01*
X154443656Y-61542712D01*
X154549550Y-61436818D01*
X154610873Y-61403334D01*
X154637231Y-61400500D01*
X163525501Y-61400500D01*
X163592540Y-61420185D01*
X163638295Y-61472989D01*
X163649501Y-61524500D01*
X163649501Y-61697876D01*
X163655908Y-61757483D01*
X163706202Y-61892328D01*
X163706206Y-61892335D01*
X163792452Y-62007544D01*
X163792455Y-62007547D01*
X163907664Y-62093793D01*
X163907671Y-62093797D01*
X163952618Y-62110561D01*
X164042517Y-62144091D01*
X164102127Y-62150500D01*
X164112685Y-62150499D01*
X164179723Y-62170179D01*
X164200372Y-62186818D01*
X164870591Y-62857037D01*
X164807007Y-62874075D01*
X164692993Y-62939901D01*
X164599901Y-63032993D01*
X164534075Y-63147007D01*
X164517037Y-63210591D01*
X163884728Y-62578282D01*
X163884727Y-62578282D01*
X163845380Y-62632439D01*
X163748904Y-62821782D01*
X163683242Y-63023869D01*
X163683242Y-63023872D01*
X163650000Y-63233753D01*
X163650000Y-63446246D01*
X163683242Y-63656127D01*
X163683242Y-63656130D01*
X163748904Y-63858217D01*
X163845375Y-64047550D01*
X163884728Y-64101716D01*
X164517037Y-63469408D01*
X164534075Y-63532993D01*
X164599901Y-63647007D01*
X164692993Y-63740099D01*
X164807007Y-63805925D01*
X164870590Y-63822962D01*
X164238282Y-64455269D01*
X164238282Y-64455270D01*
X164292452Y-64494626D01*
X164292451Y-64494626D01*
X164301495Y-64499234D01*
X164352292Y-64547208D01*
X164369087Y-64615029D01*
X164346550Y-64681164D01*
X164301499Y-64720202D01*
X164292182Y-64724949D01*
X164120213Y-64849890D01*
X163969890Y-65000213D01*
X163844951Y-65172179D01*
X163748444Y-65361585D01*
X163682753Y-65563760D01*
X163649500Y-65773713D01*
X163649500Y-65986286D01*
X163682753Y-66196239D01*
X163748444Y-66398414D01*
X163844951Y-66587820D01*
X163969890Y-66759786D01*
X164120213Y-66910109D01*
X164292182Y-67035050D01*
X164300946Y-67039516D01*
X164351742Y-67087491D01*
X164368536Y-67155312D01*
X164345998Y-67221447D01*
X164300946Y-67260484D01*
X164292182Y-67264949D01*
X164120213Y-67389890D01*
X163969890Y-67540213D01*
X163844951Y-67712179D01*
X163748444Y-67901585D01*
X163682753Y-68103760D01*
X163649500Y-68313713D01*
X163649500Y-68526286D01*
X163682753Y-68736239D01*
X163748444Y-68938414D01*
X163844951Y-69127820D01*
X163969890Y-69299786D01*
X164120213Y-69450109D01*
X164292182Y-69575050D01*
X164300946Y-69579516D01*
X164351742Y-69627491D01*
X164368536Y-69695312D01*
X164345998Y-69761447D01*
X164300946Y-69800484D01*
X164292182Y-69804949D01*
X164120213Y-69929890D01*
X163969890Y-70080213D01*
X163844951Y-70252179D01*
X163748444Y-70441585D01*
X163682753Y-70643760D01*
X163652044Y-70837649D01*
X163649500Y-70853713D01*
X163649500Y-71066287D01*
X163656362Y-71109613D01*
X163674196Y-71222214D01*
X163682754Y-71276243D01*
X163739211Y-71450000D01*
X163748444Y-71478414D01*
X163844951Y-71667820D01*
X163969890Y-71839786D01*
X164120213Y-71990109D01*
X164292179Y-72115048D01*
X164292181Y-72115049D01*
X164292184Y-72115051D01*
X164481588Y-72211557D01*
X164683757Y-72277246D01*
X164893713Y-72310500D01*
X164893714Y-72310500D01*
X165106286Y-72310500D01*
X165106287Y-72310500D01*
X165316243Y-72277246D01*
X165518412Y-72211557D01*
X165707816Y-72115051D01*
X165729789Y-72099086D01*
X165879786Y-71990109D01*
X165879788Y-71990106D01*
X165879792Y-71990104D01*
X166030104Y-71839792D01*
X166090192Y-71757087D01*
X166145521Y-71714422D01*
X166215134Y-71708443D01*
X166276930Y-71741048D01*
X166311287Y-71801886D01*
X166314510Y-71829973D01*
X166314510Y-81473000D01*
X166294825Y-81540039D01*
X166242021Y-81585794D01*
X166190510Y-81597000D01*
X128713730Y-81597000D01*
X128646691Y-81577315D01*
X128600936Y-81524511D01*
X128590992Y-81455353D01*
X128620017Y-81391797D01*
X128626049Y-81385319D01*
X130914702Y-79096666D01*
X146936669Y-63074696D01*
X146997988Y-63041214D01*
X147067680Y-63046198D01*
X147123613Y-63088070D01*
X147136644Y-63113020D01*
X147137592Y-63112579D01*
X147140643Y-63119124D01*
X147232684Y-63268345D01*
X147356654Y-63392315D01*
X147505875Y-63484356D01*
X147505880Y-63484358D01*
X147672302Y-63539505D01*
X147672309Y-63539506D01*
X147775019Y-63549999D01*
X148049999Y-63549999D01*
X148550000Y-63549999D01*
X148824972Y-63549999D01*
X148824986Y-63549998D01*
X148927697Y-63539505D01*
X149094119Y-63484358D01*
X149094124Y-63484356D01*
X149243345Y-63392315D01*
X149367315Y-63268345D01*
X149459356Y-63119124D01*
X149459358Y-63119119D01*
X149514505Y-62952697D01*
X149514506Y-62952690D01*
X149519891Y-62899986D01*
X152275001Y-62899986D01*
X152285494Y-63002697D01*
X152340641Y-63169119D01*
X152340643Y-63169124D01*
X152432684Y-63318345D01*
X152556654Y-63442315D01*
X152705875Y-63534356D01*
X152705880Y-63534358D01*
X152872302Y-63589505D01*
X152872309Y-63589506D01*
X152975019Y-63599999D01*
X153249999Y-63599999D01*
X153750000Y-63599999D01*
X154024972Y-63599999D01*
X154024986Y-63599998D01*
X154127697Y-63589505D01*
X154294119Y-63534358D01*
X154294124Y-63534356D01*
X154443345Y-63442315D01*
X154567315Y-63318345D01*
X154659356Y-63169124D01*
X154659358Y-63169119D01*
X154714505Y-63002697D01*
X154714506Y-63002690D01*
X154724999Y-62899986D01*
X154725000Y-62899973D01*
X154725000Y-62850000D01*
X153750000Y-62850000D01*
X153750000Y-63599999D01*
X153249999Y-63599999D01*
X153250000Y-63599998D01*
X153250000Y-62850000D01*
X152275001Y-62850000D01*
X152275001Y-62899986D01*
X149519891Y-62899986D01*
X149524999Y-62849986D01*
X149525000Y-62849973D01*
X149525000Y-62800000D01*
X148550000Y-62800000D01*
X148550000Y-63549999D01*
X148049999Y-63549999D01*
X148050000Y-63549998D01*
X148050000Y-62674000D01*
X148069685Y-62606961D01*
X148122489Y-62561206D01*
X148174000Y-62550000D01*
X148300000Y-62550000D01*
X148300000Y-62424000D01*
X148319685Y-62356961D01*
X148372489Y-62311206D01*
X148424000Y-62300000D01*
X149524999Y-62300000D01*
X149524999Y-62250028D01*
X149524998Y-62250013D01*
X149514505Y-62147302D01*
X149459358Y-61980880D01*
X149459356Y-61980875D01*
X149367315Y-61831654D01*
X149243344Y-61707683D01*
X149243341Y-61707681D01*
X149240339Y-61705829D01*
X149238713Y-61704021D01*
X149237677Y-61703202D01*
X149237817Y-61703024D01*
X149193617Y-61653880D01*
X149182397Y-61584917D01*
X149210243Y-61520836D01*
X149240344Y-61494754D01*
X149243656Y-61492712D01*
X149299549Y-61436819D01*
X149360872Y-61403334D01*
X149387230Y-61400500D01*
X152362769Y-61400500D01*
X152429808Y-61420185D01*
G37*
%TD.AperFunction*%
%TA.AperFunction,Conductor*%
G36*
X83152148Y-72720185D02*
G01*
X83197903Y-72772989D01*
X83207847Y-72842147D01*
X83178822Y-72905703D01*
X83172790Y-72912181D01*
X83155974Y-72928996D01*
X83155971Y-72929000D01*
X83064642Y-73077066D01*
X83064637Y-73077077D01*
X83009913Y-73242223D01*
X82999500Y-73344144D01*
X82999500Y-73930855D01*
X83009913Y-74032776D01*
X83064637Y-74197922D01*
X83064642Y-74197933D01*
X83155971Y-74345999D01*
X83155974Y-74346003D01*
X83278996Y-74469025D01*
X83279000Y-74469028D01*
X83427066Y-74560357D01*
X83427069Y-74560358D01*
X83427075Y-74560362D01*
X83565077Y-74606091D01*
X83592228Y-74615088D01*
X83598842Y-74616504D01*
X83598339Y-74618850D01*
X83652763Y-74641036D01*
X83692933Y-74698204D01*
X83699500Y-74738023D01*
X83699500Y-75382199D01*
X83679815Y-75449238D01*
X83627011Y-75494993D01*
X83614507Y-75499903D01*
X83591028Y-75507684D01*
X83530668Y-75527685D01*
X83530663Y-75527687D01*
X83381342Y-75619789D01*
X83257289Y-75743842D01*
X83165187Y-75893163D01*
X83165185Y-75893168D01*
X83143233Y-75959416D01*
X83110001Y-76059703D01*
X83110001Y-76059704D01*
X83110000Y-76059704D01*
X83099500Y-76162483D01*
X83099500Y-76787501D01*
X83099501Y-76787519D01*
X83110000Y-76890296D01*
X83110001Y-76890299D01*
X83165185Y-77056831D01*
X83165187Y-77056836D01*
X83178737Y-77078804D01*
X83251006Y-77195972D01*
X83257289Y-77206157D01*
X83351304Y-77300172D01*
X83384789Y-77361495D01*
X83379805Y-77431187D01*
X83351305Y-77475534D01*
X83257682Y-77569157D01*
X83165643Y-77718375D01*
X83165641Y-77718380D01*
X83110494Y-77884802D01*
X83110493Y-77884809D01*
X83100000Y-77987513D01*
X83100000Y-78050000D01*
X85499999Y-78050000D01*
X85499999Y-77987528D01*
X85499998Y-77987513D01*
X85489505Y-77884802D01*
X85434358Y-77718380D01*
X85434356Y-77718375D01*
X85342315Y-77569154D01*
X85248695Y-77475534D01*
X85215210Y-77414211D01*
X85220194Y-77344519D01*
X85248691Y-77300176D01*
X85342712Y-77206156D01*
X85434814Y-77056834D01*
X85489999Y-76890297D01*
X85500500Y-76787509D01*
X85500499Y-76162492D01*
X85492053Y-76079815D01*
X85489999Y-76059703D01*
X85489998Y-76059700D01*
X85486788Y-76050013D01*
X85434814Y-75893166D01*
X85342712Y-75743844D01*
X85218656Y-75619788D01*
X85069334Y-75527686D01*
X84985495Y-75499904D01*
X84928051Y-75460132D01*
X84901228Y-75395616D01*
X84900500Y-75382199D01*
X84900500Y-74673130D01*
X84920185Y-74606091D01*
X84967276Y-74564961D01*
X84966778Y-74564154D01*
X84971623Y-74561165D01*
X84972108Y-74560742D01*
X84972915Y-74560365D01*
X84972925Y-74560362D01*
X85121003Y-74469026D01*
X85244026Y-74346003D01*
X85335362Y-74197925D01*
X85384335Y-74050134D01*
X85424108Y-73992689D01*
X85488624Y-73965866D01*
X85557399Y-73978181D01*
X85589722Y-74001457D01*
X88652639Y-77064374D01*
X88652649Y-77064385D01*
X88656979Y-77068715D01*
X88656980Y-77068716D01*
X88768784Y-77180520D01*
X88768786Y-77180521D01*
X88768790Y-77180524D01*
X88888262Y-77249500D01*
X88905716Y-77259577D01*
X88986952Y-77281344D01*
X89058442Y-77300500D01*
X89058443Y-77300500D01*
X98799903Y-77300500D01*
X98866942Y-77320185D01*
X98887584Y-77336819D01*
X101488583Y-79937819D01*
X101522068Y-79999142D01*
X101517084Y-80068834D01*
X101475212Y-80124767D01*
X101409748Y-80149184D01*
X101400902Y-80149500D01*
X88060759Y-80149500D01*
X87993720Y-80129815D01*
X87947965Y-80077011D01*
X87938021Y-80007853D01*
X87957657Y-79956609D01*
X88008257Y-79880880D01*
X88009394Y-79879179D01*
X88069737Y-79733497D01*
X88100500Y-79578842D01*
X88100500Y-79421158D01*
X88100500Y-79421155D01*
X88100499Y-79421153D01*
X88094842Y-79392712D01*
X88069737Y-79266503D01*
X88069735Y-79266498D01*
X88009397Y-79120827D01*
X88009390Y-79120814D01*
X87921789Y-78989711D01*
X87921786Y-78989707D01*
X87810292Y-78878213D01*
X87810288Y-78878210D01*
X87679185Y-78790609D01*
X87679172Y-78790602D01*
X87533501Y-78730264D01*
X87533489Y-78730261D01*
X87378845Y-78699500D01*
X87378842Y-78699500D01*
X87221158Y-78699500D01*
X87221155Y-78699500D01*
X87066510Y-78730261D01*
X87066498Y-78730264D01*
X86920827Y-78790602D01*
X86920814Y-78790609D01*
X86789711Y-78878210D01*
X86789707Y-78878213D01*
X86678213Y-78989707D01*
X86678207Y-78989715D01*
X86590607Y-79120818D01*
X86590606Y-79120819D01*
X86580805Y-79144480D01*
X86553927Y-79184703D01*
X86225449Y-79513182D01*
X86164128Y-79546666D01*
X86137770Y-79549500D01*
X84913967Y-79549500D01*
X84846928Y-79529815D01*
X84801173Y-79477011D01*
X84791229Y-79407853D01*
X84820254Y-79344297D01*
X84879032Y-79306523D01*
X84901365Y-79302142D01*
X84902697Y-79302005D01*
X85069119Y-79246858D01*
X85069124Y-79246856D01*
X85218345Y-79154815D01*
X85342315Y-79030845D01*
X85434356Y-78881624D01*
X85434358Y-78881619D01*
X85489505Y-78715197D01*
X85489506Y-78715190D01*
X85499999Y-78612486D01*
X85500000Y-78612473D01*
X85500000Y-78550000D01*
X83100001Y-78550000D01*
X83100001Y-78612486D01*
X83110494Y-78715197D01*
X83165641Y-78881619D01*
X83165643Y-78881624D01*
X83257684Y-79030845D01*
X83381654Y-79154815D01*
X83530875Y-79246856D01*
X83530880Y-79246858D01*
X83697302Y-79302005D01*
X83697310Y-79302006D01*
X83698634Y-79302142D01*
X83699398Y-79302453D01*
X83703929Y-79303424D01*
X83703755Y-79304231D01*
X83763326Y-79328539D01*
X83803477Y-79385720D01*
X83806340Y-79455531D01*
X83771005Y-79515807D01*
X83708692Y-79547412D01*
X83686031Y-79549500D01*
X79014229Y-79549500D01*
X78947190Y-79529815D01*
X78901435Y-79477011D01*
X78891491Y-79407853D01*
X78914246Y-79355489D01*
X78912989Y-79354686D01*
X78916609Y-79349022D01*
X79001168Y-79178523D01*
X79047102Y-78993824D01*
X79050000Y-78951096D01*
X79050000Y-78500000D01*
X77924000Y-78500000D01*
X77856961Y-78480315D01*
X77811206Y-78427511D01*
X77800000Y-78376000D01*
X77800000Y-78250000D01*
X77674000Y-78250000D01*
X77606961Y-78230315D01*
X77561206Y-78177511D01*
X77550000Y-78126000D01*
X77550000Y-78000000D01*
X78050000Y-78000000D01*
X79050000Y-78000000D01*
X79050000Y-77548903D01*
X79047102Y-77506175D01*
X79001168Y-77321476D01*
X78916609Y-77150977D01*
X78916607Y-77150974D01*
X78797367Y-77002633D01*
X78797366Y-77002632D01*
X78649025Y-76883392D01*
X78649022Y-76883390D01*
X78478523Y-76798831D01*
X78293824Y-76752897D01*
X78251097Y-76750000D01*
X78050000Y-76750000D01*
X78050000Y-78000000D01*
X77550000Y-78000000D01*
X77550000Y-76750000D01*
X77348903Y-76750000D01*
X77306175Y-76752897D01*
X77121476Y-76798831D01*
X76950977Y-76883390D01*
X76950974Y-76883392D01*
X76802635Y-77002631D01*
X76746967Y-77071885D01*
X76689624Y-77111803D01*
X76619801Y-77114383D01*
X76559669Y-77078804D01*
X76553673Y-77071884D01*
X76497722Y-77002278D01*
X76497721Y-77002277D01*
X76349295Y-76882969D01*
X76319405Y-76868145D01*
X76268092Y-76820723D01*
X76250500Y-76757057D01*
X76250500Y-73574499D01*
X76270185Y-73507460D01*
X76322989Y-73461705D01*
X76374500Y-73450499D01*
X76958028Y-73450499D01*
X76958036Y-73450499D01*
X77077418Y-73439886D01*
X77273049Y-73383909D01*
X77453407Y-73289698D01*
X77611109Y-73161109D01*
X77739698Y-73003407D01*
X77833909Y-72823049D01*
X77834138Y-72822250D01*
X77843256Y-72790387D01*
X77880624Y-72731349D01*
X77943978Y-72701887D01*
X77962471Y-72700500D01*
X83085109Y-72700500D01*
X83152148Y-72720185D01*
G37*
%TD.AperFunction*%
%TA.AperFunction,Conductor*%
G36*
X166115270Y-64101717D02*
G01*
X166137192Y-64099991D01*
X166145520Y-64093570D01*
X166215133Y-64087589D01*
X166276929Y-64120194D01*
X166311287Y-64181032D01*
X166314510Y-64209120D01*
X166314510Y-65010026D01*
X166294825Y-65077065D01*
X166242021Y-65122820D01*
X166172863Y-65132764D01*
X166109307Y-65103739D01*
X166090192Y-65082911D01*
X166030109Y-65000214D01*
X166030105Y-65000209D01*
X165879786Y-64849890D01*
X165707817Y-64724949D01*
X165698504Y-64720204D01*
X165647707Y-64672230D01*
X165630912Y-64604409D01*
X165653449Y-64538274D01*
X165698507Y-64499232D01*
X165707555Y-64494622D01*
X165761716Y-64455270D01*
X165761717Y-64455270D01*
X165129408Y-63822962D01*
X165192993Y-63805925D01*
X165307007Y-63740099D01*
X165400099Y-63647007D01*
X165465925Y-63532993D01*
X165482962Y-63469408D01*
X166115270Y-64101717D01*
G37*
%TD.AperFunction*%
%TA.AperFunction,Conductor*%
G36*
X166249935Y-62066362D02*
G01*
X166299341Y-62115767D01*
X166314510Y-62175195D01*
X166314510Y-62470878D01*
X166294825Y-62537917D01*
X166242021Y-62583672D01*
X166172863Y-62593616D01*
X166144288Y-62580566D01*
X166115269Y-62578282D01*
X165482962Y-63210590D01*
X165465925Y-63147007D01*
X165400099Y-63032993D01*
X165307007Y-62939901D01*
X165192993Y-62874075D01*
X165129409Y-62857037D01*
X165799627Y-62186818D01*
X165860950Y-62153333D01*
X165887307Y-62150499D01*
X165897872Y-62150499D01*
X165957483Y-62144091D01*
X166092331Y-62093796D01*
X166116198Y-62075928D01*
X166181662Y-62051511D01*
X166249935Y-62066362D01*
G37*
%TD.AperFunction*%
%TD*%
M02*
