M48
; DRILL file {KiCad 9.0.0} date 2025-08-08T17:32:05+0200
; FORMAT={-:-/ absolute / metric / decimal}
; #@! TF.CreationDate,2025-08-08T17:32:05+02:00
; #@! TF.GenerationSoftware,Kicad,Pcbnew,9.0.0
; #@! TF.FileFunction,Plated,1,2,PTH
FMAT,2
METRIC
; #@! TA.AperFunction,Plated,PTH,ViaDrill
T1C0.300
; #@! TA.AperFunction,Plated,PTH,ComponentDrill
T2C0.500
; #@! TA.AperFunction,Plated,PTH,ComponentDrill
T3C0.800
%
G90
G05
T1
X123.472Y-51.167
X125.011Y-58.518
X129.212Y-56.779
X131.023Y-50.63
X132.511Y-57.622
X133.5Y-64.5
X133.765Y-50.2
X134.588Y-50.327
X137.418Y-56.75
X138.255Y-56.192
X138.259Y-53.919
X138.747Y-50.696
X140.743Y-53.876
X141.351Y-54.765
X143.483Y-59.939
X144.345Y-50.363
X144.458Y-61.987
X151.72Y-61.987
X151.809Y-53.957
X152.526Y-65.123
X153.873Y-46.877
X160.031Y-67.913
X166.706Y-45.535
X170.124Y-56.127
T2
X119.0Y-43.375
X120.0Y-43.375
X121.0Y-43.375
X137.5Y-43.5
X138.5Y-43.5
X139.5Y-43.5
X140.5Y-43.5
X172.0Y-55.0
X172.0Y-56.0
X172.0Y-57.0
X172.0Y-58.0
X172.0Y-59.0
T3
X115.0Y-53.57
X115.0Y-58.45
T2
X152.0Y-42.65G85X152.0Y-43.35
G05
X158.6Y-42.65G85X158.6Y-43.35
G05
M30
