M48
; DRILL file {KiCad 9.0.0} date 2025-08-28T17:52:37+0200
; FORMAT={-:-/ absolute / metric / decimal}
; #@! TF.CreationDate,2025-08-28T17:52:37+02:00
; #@! TF.GenerationSoftware,Kicad,Pcbnew,9.0.0
; #@! TF.FileFunction,Plated,1,2,PTH
FMAT,2
METRIC
; #@! TA.AperFunction,Plated,PTH,ViaDrill
T1C0.300
; #@! TA.AperFunction,Plated,PTH,ComponentDrill
T2C0.500
; #@! TA.AperFunction,Plated,PTH,ComponentDrill
T3C0.800
; #@! TA.AperFunction,Plated,PTH,ComponentDrill
T4C1.000
%
G90
G05
T1
X120.545Y-51.903
X122.0Y-62.5
X126.679Y-51.09
X127.021Y-67.913
X128.0Y-56.5
X132.571Y-56.096
X132.716Y-50.322
X133.304Y-58.66
X134.721Y-50.327
X135.0Y-62.0
X135.784Y-48.377
X137.47Y-58.66
X137.94Y-53.4
X138.776Y-65.622
X141.159Y-51.167
X141.561Y-54.252
X144.859Y-62.331
X150.093Y-65.201
X152.042Y-61.518
X153.228Y-48.377
X156.236Y-53.959
X158.743Y-67.913
X166.826Y-47.785
X167.393Y-70.65
T3
X115.0Y-53.57
X115.0Y-58.45
T4
X107.0Y-53.42
X107.0Y-55.96
X107.0Y-58.5
X138.18Y-44.0
X140.72Y-44.0
X143.26Y-44.0
X145.8Y-44.0
X172.0Y-48.84
X172.0Y-51.38
X172.0Y-53.92
X172.0Y-56.46
X172.0Y-59.0
T2
X152.0Y-42.65G85X152.0Y-43.35
G05
X158.6Y-42.65G85X158.6Y-43.35
G05
M30
