%TF.GenerationSoftware,KiCad,Pcbnew,10.0.5*%
%TF.CreationDate,2026-08-07T21:44:09+02:00*%
%TF.ProjectId,audioVisualizer_PCB,61756469-6f56-4697-9375-616c697a6572,rev?*%
%TF.SameCoordinates,Original*%
%TF.FileFunction,Soldermask,Top*%
%TF.FilePolarity,Negative*%
%FSLAX46Y46*%
G04 Gerber Fmt 4.6, Leading zero omitted, Abs format (unit mm)*
G04 Created by KiCad (PCBNEW 10.0.5) date 2026-08-07 21:44:09*
%MOMM*%
%LPD*%
G01*
G04 APERTURE LIST*
G04 Aperture macros list*
%AMRoundRect*
0 Rectangle with rounded corners*
0 $1 Rounding radius*
0 $2 $3 $4 $5 $6 $7 $8 $9 X,Y pos of 4 corners*
0 Add a 4 corners polygon primitive as box body*
4,1,4,$2,$3,$4,$5,$6,$7,$8,$9,$2,$3,0*
0 Add four circle primitives for the rounded corners*
1,1,$1+$1,$2,$3*
1,1,$1+$1,$4,$5*
1,1,$1+$1,$6,$7*
1,1,$1+$1,$8,$9*
0 Add four rect primitives between the rounded corners*
20,1,$1+$1,$2,$3,$4,$5,0*
20,1,$1+$1,$4,$5,$6,$7,0*
20,1,$1+$1,$6,$7,$8,$9,0*
20,1,$1+$1,$8,$9,$2,$3,0*%
G04 Aperture macros list end*
%ADD10C,0.500000*%
%ADD11RoundRect,0.250000X0.475000X-0.250000X0.475000X0.250000X-0.475000X0.250000X-0.475000X-0.250000X0*%
%ADD12C,0.500000*%
%ADD13RoundRect,0.102000X0.300000X0.261000X-0.300000X0.261000X-0.300000X-0.261000X0.300000X-0.261000X0*%
%ADD14R,1.700000X1.700000*%
%ADD15C,1.700000*%
%ADD16RoundRect,0.250000X-0.250000X-0.475000X0.250000X-0.475000X0.250000X0.475000X-0.250000X0.475000X0*%
%ADD17RoundRect,0.250000X-0.275000X-0.750000X0.275000X-0.750000X0.275000X0.750000X-0.275000X0.750000X0*%
%ADD18RoundRect,0.250000X-0.262500X-0.450000X0.262500X-0.450000X0.262500X0.450000X-0.262500X0.450000X0*%
%ADD19RoundRect,0.250000X-0.475000X0.250000X-0.475000X-0.250000X0.475000X-0.250000X0.475000X0.250000X0*%
%ADD20RoundRect,0.075000X-0.700000X-0.075000X0.700000X-0.075000X0.700000X0.075000X-0.700000X0.075000X0*%
%ADD21RoundRect,0.075000X-0.075000X-0.700000X0.075000X-0.700000X0.075000X0.700000X-0.075000X0.700000X0*%
%ADD22RoundRect,0.250000X0.450000X-0.262500X0.450000X0.262500X-0.450000X0.262500X-0.450000X-0.262500X0*%
%ADD23RoundRect,0.250000X1.450000X0.650000X-1.450000X0.650000X-1.450000X-0.650000X1.450000X-0.650000X0*%
%ADD24RoundRect,0.250000X-1.450000X-0.650000X1.450000X-0.650000X1.450000X0.650000X-1.450000X0.650000X0*%
%ADD25RoundRect,0.250000X0.477237X0.245703X0.067661X0.532491X-0.477237X-0.245703X-0.067661X-0.532491X0*%
%ADD26R,0.900000X1.000000*%
%ADD27RoundRect,0.250000X0.250000X0.475000X-0.250000X0.475000X-0.250000X-0.475000X0.250000X-0.475000X0*%
%ADD28C,0.650000*%
%ADD29O,1.800000X1.000000*%
%ADD30O,2.100000X1.000000*%
G04 APERTURE END LIST*
%TO.C,MK-L1*%
D10*
X45749500Y-53270000D02*
G75*
G02*
X44419500Y-53270000I-665000J0D01*
G01*
X44419500Y-53270000D02*
G75*
G02*
X45749500Y-53270000I665000J0D01*
G01*
%TO.C,MK-R1*%
X160165000Y-53326000D02*
G75*
G02*
X158835000Y-53326000I-665000J0D01*
G01*
X158835000Y-53326000D02*
G75*
G02*
X160165000Y-53326000I665000J0D01*
G01*
%TD*%
D11*
%TO.C,C7*%
X90400000Y-80150000D03*
X90400000Y-78250000D03*
%TD*%
D12*
%TO.C,MK-L1*%
X45084500Y-53270000D03*
D13*
X45984500Y-55344000D03*
X45984500Y-54522000D03*
X44184500Y-54522000D03*
X44184500Y-55344000D03*
X45084500Y-55344000D03*
%TD*%
D14*
%TO.C,J3*%
X165000000Y-60800000D03*
D15*
X165000000Y-63340000D03*
X165000000Y-65880000D03*
X165000000Y-68420000D03*
X165000000Y-70960000D03*
%TD*%
D16*
%TO.C,C19*%
X108150000Y-75800000D03*
X110050000Y-75800000D03*
%TD*%
D11*
%TO.C,C6*%
X85800000Y-65850000D03*
X85800000Y-63950000D03*
%TD*%
D17*
%TO.C,SW1*%
X81575000Y-69100000D03*
X86025000Y-69100000D03*
%TD*%
D18*
%TO.C,R4*%
X118675000Y-56900000D03*
X120500000Y-56900000D03*
%TD*%
D11*
%TO.C,C8*%
X99700000Y-62650000D03*
X99700000Y-60750000D03*
%TD*%
D19*
%TO.C,C4*%
X112400000Y-73850000D03*
X112400000Y-75750000D03*
%TD*%
D20*
%TO.C,U2*%
X100525000Y-64050000D03*
X100525000Y-64550000D03*
X100525000Y-65050000D03*
X100525000Y-65550000D03*
X100525000Y-66050000D03*
X100525000Y-66550000D03*
X100525000Y-67050000D03*
X100525000Y-67550000D03*
X100525000Y-68050000D03*
X100525000Y-68550000D03*
X100525000Y-69050000D03*
X100525000Y-69550000D03*
X100525000Y-70050000D03*
X100525000Y-70550000D03*
X100525000Y-71050000D03*
X100525000Y-71550000D03*
D21*
X102450000Y-73475000D03*
X102950000Y-73475000D03*
X103450000Y-73475000D03*
X103950000Y-73475000D03*
X104450000Y-73475000D03*
X104950000Y-73475000D03*
X105450000Y-73475000D03*
X105950000Y-73475000D03*
X106450000Y-73475000D03*
X106950000Y-73475000D03*
X107450000Y-73475000D03*
X107950000Y-73475000D03*
X108450000Y-73475000D03*
X108950000Y-73475000D03*
X109450000Y-73475000D03*
X109950000Y-73475000D03*
D20*
X111875000Y-71550000D03*
X111875000Y-71050000D03*
X111875000Y-70550000D03*
X111875000Y-70050000D03*
X111875000Y-69550000D03*
X111875000Y-69050000D03*
X111875000Y-68550000D03*
X111875000Y-68050000D03*
X111875000Y-67550000D03*
X111875000Y-67050000D03*
X111875000Y-66550000D03*
X111875000Y-66050000D03*
X111875000Y-65550000D03*
X111875000Y-65050000D03*
X111875000Y-64550000D03*
X111875000Y-64050000D03*
D21*
X109950000Y-62125000D03*
X109450000Y-62125000D03*
X108950000Y-62125000D03*
X108450000Y-62125000D03*
X107950000Y-62125000D03*
X107450000Y-62125000D03*
X106950000Y-62125000D03*
X106450000Y-62125000D03*
X105950000Y-62125000D03*
X105450000Y-62125000D03*
X104950000Y-62125000D03*
X104450000Y-62125000D03*
X103950000Y-62125000D03*
X103450000Y-62125000D03*
X102950000Y-62125000D03*
X102450000Y-62125000D03*
%TD*%
D19*
%TO.C,C13*%
X95000000Y-70000000D03*
X95000000Y-71900000D03*
%TD*%
D22*
%TO.C,R8*%
X90800000Y-71812500D03*
X90800000Y-69987500D03*
%TD*%
D18*
%TO.C,R5*%
X115187500Y-56887500D03*
X117012500Y-56887500D03*
%TD*%
D23*
%TO.C,3V3*%
X75400000Y-63800000D03*
%TD*%
D12*
%TO.C,MK-R1*%
X159500000Y-53326000D03*
D13*
X160400000Y-55400000D03*
X160400000Y-54578000D03*
X158600000Y-54578000D03*
X158600000Y-55400000D03*
X159500000Y-55400000D03*
%TD*%
D14*
%TO.C,J2*%
X118610000Y-53200000D03*
D15*
X116070000Y-53200000D03*
X113530000Y-53200000D03*
X110990000Y-53200000D03*
%TD*%
D24*
%TO.C,CRYS_25*%
X95100000Y-66100000D03*
%TD*%
D22*
%TO.C,R29*%
X107900000Y-55012500D03*
X107900000Y-53187500D03*
%TD*%
D16*
%TO.C,C3*%
X102450000Y-58200000D03*
X104350000Y-58200000D03*
%TD*%
D25*
%TO.C,C20*%
X112978195Y-61544897D03*
X111421805Y-60455103D03*
%TD*%
D26*
%TO.C,Y1*%
X90250000Y-63950000D03*
X90250000Y-66100000D03*
X91800000Y-66100000D03*
X91800000Y-63950000D03*
%TD*%
D27*
%TO.C,C5*%
X104150000Y-76800000D03*
X102250000Y-76800000D03*
%TD*%
D11*
%TO.C,C18*%
X44200000Y-59450000D03*
X44200000Y-57550000D03*
%TD*%
D19*
%TO.C,C2*%
X158600000Y-57450000D03*
X158600000Y-59350000D03*
%TD*%
D23*
%TO.C,GND1*%
X61500000Y-69000000D03*
%TD*%
D28*
%TO.C,J1*%
X42480000Y-79070000D03*
X42480000Y-73290000D03*
D29*
X38800000Y-80500000D03*
D30*
X42980000Y-80500000D03*
D29*
X38800000Y-71860000D03*
D30*
X42980000Y-71860000D03*
%TD*%
M02*
