%TF.GenerationSoftware,KiCad,Pcbnew,10.0.4*%
%TF.CreationDate,2026-06-24T14:37:47+02:00*%
%TF.ProjectId,audioVisualizer_PCB,61756469-6f56-4697-9375-616c697a6572,rev?*%
%TF.SameCoordinates,Original*%
%TF.FileFunction,Copper,L1,Top*%
%TF.FilePolarity,Positive*%
%FSLAX46Y46*%
G04 Gerber Fmt 4.6, Leading zero omitted, Abs format (unit mm)*
G04 Created by KiCad (PCBNEW 10.0.4) date 2026-06-24 14:37:47*
%MOMM*%
%LPD*%
G01*
G04 APERTURE LIST*
G04 Aperture macros list*
%AMRoundRect*
0 Rectangle with rounded corners*
0 $1 Rounding radius*
0 $2 $3 $4 $5 $6 $7 $8 $9 X,Y pos of 4 corners*
0 Add a 4 corners polygon primitive as box body*
4,1,4,$2,$3,$4,$5,$6,$7,$8,$9,$2,$3,0*
0 Add four circle primitives for the rounded corners*
1,1,$1+$1,$2,$3*
1,1,$1+$1,$4,$5*
1,1,$1+$1,$6,$7*
1,1,$1+$1,$8,$9*
0 Add four rect primitives between the rounded corners*
20,1,$1+$1,$2,$3,$4,$5,0*
20,1,$1+$1,$4,$5,$6,$7,0*
20,1,$1+$1,$6,$7,$8,$9,0*
20,1,$1+$1,$8,$9,$2,$3,0*%
%AMFreePoly0*
4,1,296,0.076512,1.482500,0.076536,1.482499,0.118536,1.479499,0.118572,1.479495,0.159586,1.473493,0.199586,1.466493,0.199621,1.466485,0.239644,1.456479,0.279644,1.444479,0.318658,1.431474,0.318694,1.431461,0.356714,1.415452,0.394714,1.397452,0.394743,1.397437,0.430757,1.377429,0.465757,1.356429,0.465788,1.356408,0.499788,1.332408,0.499802,1.332399,0.532802,1.307399,
0.564841,1.280366,0.594841,1.252366,0.594866,1.252341,0.622866,1.222341,0.649899,1.190302,0.674899,1.157302,0.674908,1.157288,0.698908,1.123288,0.698929,1.123257,0.719937,1.088243,0.739937,1.052243,0.739952,1.052214,0.757961,1.014194,0.773961,0.976194,0.773974,0.976158,0.786979,0.937144,0.798979,0.897144,0.808985,0.857121,0.808993,0.857086,0.815995,0.817072,
0.821995,0.776072,0.821999,0.776036,0.824999,0.734036,0.826000,0.693012,0.826000,0.662988,0.824999,0.620965,0.821999,0.577965,0.821995,0.577929,0.815991,0.535904,0.807991,0.494904,0.797979,0.452856,0.785972,0.412835,0.771963,0.372810,0.755963,0.333810,0.737954,0.294790,0.737935,0.294753,0.716927,0.257739,0.694927,0.221739,0.670897,0.186696,0.644897,0.152696,
0.617865,0.120658,0.588865,0.089658,0.588842,0.089635,0.557842,0.060635,0.525804,0.033603,0.491804,0.007603,0.456761,-0.016427,0.420747,-0.038435,0.383747,-0.059435,0.383710,-0.059454,0.344690,-0.077463,0.305690,-0.093463,0.265644,-0.107479,0.225644,-0.119479,0.183596,-0.129491,0.142596,-0.137491,0.100571,-0.143495,0.100535,-0.143499,0.057512,-0.146500,0.015512,-0.147500,
0.005488,-0.147500,-0.036536,-0.146499,-0.078536,-0.143499,-0.078572,-0.143495,-0.119584,-0.137493,-0.160584,-0.130493,-0.160618,-0.130486,-0.201644,-0.120479,-0.241665,-0.108472,-0.281665,-0.094472,-0.281694,-0.094461,-0.319714,-0.078452,-0.357738,-0.060440,-0.394761,-0.040427,-0.430761,-0.018427,-0.464788,0.005592,-0.464802,0.005601,-0.497802,0.030601,-0.529842,0.057635,-0.560842,0.086635,
-0.560865,0.086658,-0.589865,0.117658,-0.616899,0.149698,-0.641899,0.182698,-0.641908,0.182712,-0.665927,0.216739,-0.687927,0.252739,-0.707940,0.289762,-0.725961,0.327806,-0.741961,0.365806,-0.741972,0.365835,-0.755979,0.405856,-0.767979,0.445856,-0.777986,0.486882,-0.777993,0.486916,-0.784995,0.527928,-0.790995,0.568928,-0.790999,0.568964,-0.793999,0.610964,-0.795000,0.652988,
-0.795000,0.683012,-0.793999,0.725036,-0.790999,0.767036,-0.790995,0.767072,-0.784993,0.808084,-0.777993,0.849084,-0.777986,0.849118,-0.767979,0.890144,-0.755972,0.930165,-0.741972,0.970165,-0.741961,0.970194,-0.725952,1.008214,-0.707940,1.046238,-0.687927,1.083261,-0.665927,1.119261,-0.641908,1.153288,-0.641899,1.153302,-0.616899,1.186302,-0.589865,1.218342,-0.560865,1.249342,
-0.560842,1.249365,-0.529842,1.278365,-0.497802,1.305399,-0.464802,1.330399,-0.464788,1.330408,-0.430761,1.354427,-0.394761,1.376427,-0.357738,1.396440,-0.319694,1.414461,-0.281694,1.430461,-0.281665,1.430472,-0.241644,1.444479,-0.201644,1.456479,-0.160618,1.466486,-0.160584,1.466493,-0.119572,1.473495,-0.078572,1.479495,-0.078536,1.479499,-0.036536,1.482499,0.005488,1.483500,
0.005845,1.483362,0.006000,1.483012,0.006000,1.183000,0.005854,1.182646,0.005519,1.182500,-0.020469,1.181500,-0.046457,1.179501,-0.072428,1.176504,-0.098395,1.171511,-0.123370,1.165517,-0.149348,1.158522,-0.173308,1.149538,-0.197300,1.139541,-0.221278,1.128551,-0.244239,1.115572,-0.266232,1.101578,-0.288210,1.087591,-0.309187,1.071609,-0.329166,1.054627,-0.348146,1.036646,
-0.366127,1.017666,-0.383109,0.997687,-0.399091,0.976710,-0.413078,0.954732,-0.427072,0.932739,-0.440051,0.909778,-0.451045,0.885792,-0.461038,0.861808,-0.470022,0.837848,-0.477017,0.811870,-0.483011,0.786895,-0.488004,0.760928,-0.491001,0.734962,-0.493001,0.708962,-0.494000,0.682981,-0.494000,0.663019,-0.493001,0.636038,-0.491001,0.610038,-0.488005,0.583073,-0.483009,0.557098,
-0.477018,0.531135,-0.469022,0.505147,-0.460038,0.480192,-0.450041,0.456200,-0.438049,0.431216,-0.426066,0.408250,-0.412081,0.385273,-0.397101,0.363303,-0.380111,0.342315,-0.363119,0.322324,-0.345146,0.302354,-0.325176,0.284381,-0.305185,0.267389,-0.284196,0.250398,-0.262226,0.235418,-0.239250,0.221433,-0.216284,0.209451,-0.191299,0.197458,-0.167308,0.187462,-0.167308,0.187461,
-0.142353,0.178478,-0.116365,0.170481,-0.090402,0.164490,-0.064426,0.159494,-0.037462,0.156498,-0.037462,0.156499,-0.011469,0.154499,0.015519,0.153500,0.025481,0.153500,0.051469,0.154499,0.077457,0.156498,0.103428,0.159495,0.129395,0.164488,0.154370,0.170482,0.154370,0.170483,0.180348,0.177477,0.204308,0.186462,0.228300,0.196458,0.252278,0.207448,0.275239,0.220427,
0.319210,0.248408,0.340187,0.264390,0.360166,0.281372,0.379146,0.299353,0.397127,0.318333,0.414109,0.338312,0.430091,0.359289,0.458072,0.403260,0.471051,0.426221,0.482045,0.450208,0.492038,0.474192,0.501022,0.498151,0.508017,0.524130,0.514011,0.549104,0.519004,0.575071,0.522001,0.601043,0.524001,0.627038,0.525000,0.653019,0.525000,0.682981,0.524001,0.708962,
0.522001,0.734962,0.519004,0.760928,0.514011,0.786895,0.508017,0.811870,0.501022,0.837848,0.492038,0.861808,0.482045,0.885792,0.471051,0.909778,0.458072,0.932739,0.444078,0.954732,0.430091,0.976710,0.414109,0.997687,0.397127,1.017666,0.379146,1.036646,0.360166,1.054627,0.340187,1.071609,0.319210,1.087591,0.297232,1.101578,0.275239,1.115572,0.252278,1.128551,
0.228300,1.139541,0.204308,1.149538,0.180348,1.158522,0.154370,1.165517,0.129395,1.171511,0.103428,1.176504,0.077457,1.179501,0.051469,1.181500,0.025481,1.182500,0.025133,1.182660,0.025000,1.183000,0.025000,1.483000,0.025146,1.483354,0.025500,1.483500,0.035512,1.483500,0.076512,1.482500,0.076512,1.482500,$1*%
G04 Aperture macros list end*
%TA.AperFunction,ComponentPad*%
%ADD10O,2.100000X1.000000*%
%TD*%
%TA.AperFunction,ComponentPad*%
%ADD11O,1.800000X1.000000*%
%TD*%
%TA.AperFunction,SMDPad,CuDef*%
%ADD12RoundRect,0.250000X0.250000X0.475000X-0.250000X0.475000X-0.250000X-0.475000X0.250000X-0.475000X0*%
%TD*%
%TA.AperFunction,SMDPad,CuDef*%
%ADD13RoundRect,0.250000X-0.475000X0.250000X-0.475000X-0.250000X0.475000X-0.250000X0.475000X0.250000X0*%
%TD*%
%TA.AperFunction,SMDPad,CuDef*%
%ADD14R,0.600000X0.522000*%
%TD*%
%TA.AperFunction,SMDPad,CuDef*%
%ADD15FreePoly0,180.000000*%
%TD*%
%TA.AperFunction,SMDPad,CuDef*%
%ADD16RoundRect,0.250000X0.475000X-0.250000X0.475000X0.250000X-0.475000X0.250000X-0.475000X-0.250000X0*%
%TD*%
%TA.AperFunction,ComponentPad*%
%ADD17R,1.700000X1.700000*%
%TD*%
%TA.AperFunction,ComponentPad*%
%ADD18C,1.700000*%
%TD*%
%TA.AperFunction,SMDPad,CuDef*%
%ADD19RoundRect,0.250000X-0.250000X-0.475000X0.250000X-0.475000X0.250000X0.475000X-0.250000X0.475000X0*%
%TD*%
%TA.AperFunction,SMDPad,CuDef*%
%ADD20RoundRect,0.250000X-0.262500X-0.450000X0.262500X-0.450000X0.262500X0.450000X-0.262500X0.450000X0*%
%TD*%
%TA.AperFunction,SMDPad,CuDef*%
%ADD21RoundRect,0.250000X0.262500X0.450000X-0.262500X0.450000X-0.262500X-0.450000X0.262500X-0.450000X0*%
%TD*%
%TA.AperFunction,SMDPad,CuDef*%
%ADD22RoundRect,0.243750X0.456250X-0.243750X0.456250X0.243750X-0.456250X0.243750X-0.456250X-0.243750X0*%
%TD*%
%TA.AperFunction,SMDPad,CuDef*%
%ADD23RoundRect,0.062500X-0.375000X-0.062500X0.375000X-0.062500X0.375000X0.062500X-0.375000X0.062500X0*%
%TD*%
%TA.AperFunction,SMDPad,CuDef*%
%ADD24RoundRect,0.062500X-0.062500X-0.375000X0.062500X-0.375000X0.062500X0.375000X-0.062500X0.375000X0*%
%TD*%
%TA.AperFunction,HeatsinkPad*%
%ADD25R,5.600000X5.600000*%
%TD*%
%TA.AperFunction,SMDPad,CuDef*%
%ADD26R,0.900000X1.000000*%
%TD*%
%TA.AperFunction,ViaPad*%
%ADD27C,0.600000*%
%TD*%
%TA.AperFunction,Conductor*%
%ADD28C,0.200000*%
%TD*%
%TA.AperFunction,Conductor*%
%ADD29C,0.300000*%
%TD*%
%TA.AperFunction,Conductor*%
%ADD30C,0.500000*%
%TD*%
G04 APERTURE END LIST*
D10*
%TO.P,J1,SH,SHIELD_SH*%
%TO.N,unconnected-(J1-SHIELD-PadSH)*%
X42980000Y-71860000D03*
D11*
%TO.N,unconnected-(J1-SHIELD-PadSH)_3*%
X38800000Y-71860000D03*
D10*
%TO.N,unconnected-(J1-SHIELD-PadSH)_1*%
X42980000Y-80500000D03*
D11*
%TO.N,unconnected-(J1-SHIELD-PadSH)_2*%
X38800000Y-80500000D03*
%TD*%
D12*
%TO.P,C8,1*%
%TO.N,+3.3V*%
X97725000Y-69495000D03*
%TO.P,C8,2*%
%TO.N,GND*%
X95825000Y-69495000D03*
%TD*%
D13*
%TO.P,C7,1*%
%TO.N,+3.3V*%
X114700000Y-61250000D03*
%TO.P,C7,2*%
%TO.N,GND*%
X114700000Y-63150000D03*
%TD*%
D14*
%TO.P,MK-L1,1,WS_1*%
%TO.N,MIC_WS*%
X45984500Y-55344000D03*
%TO.P,MK-L1,2,L/R_2*%
%TO.N,+3.3V*%
X45984500Y-54522000D03*
D15*
%TO.P,MK-L1,3,GND_3*%
%TO.N,GND*%
X45100000Y-52600000D03*
D14*
%TO.P,MK-L1,4,SCK_4*%
%TO.N,MIC_SCK*%
X44184500Y-54522000D03*
%TO.P,MK-L1,5,VDD_5*%
%TO.N,+3.3V*%
X44184500Y-55344000D03*
%TO.P,MK-L1,6,SD_6*%
%TO.N,MIC_SD*%
X45084500Y-55344000D03*
%TD*%
D16*
%TO.P,C16,1*%
%TO.N,GND*%
X148300000Y-62550000D03*
%TO.P,C16,2*%
%TO.N,+5V*%
X148300000Y-60650000D03*
%TD*%
D17*
%TO.P,J3,1,VCC_1*%
%TO.N,+5V*%
X165000000Y-60800000D03*
D18*
%TO.P,J3,2,GND_2*%
%TO.N,GND*%
X165000000Y-63340000D03*
%TO.P,J3,3,DIN_3*%
%TO.N,SPI_DIN*%
X165000000Y-65880000D03*
%TO.P,J3,4,CS_4*%
%TO.N,SPI_CS*%
X165000000Y-68420000D03*
%TO.P,J3,5,CLK_5*%
%TO.N,SPI_CLK*%
X165000000Y-70960000D03*
%TD*%
D19*
%TO.P,C19,1*%
%TO.N,Net-(U7-VCAP1)*%
X104350000Y-71400000D03*
%TO.P,C19,2*%
%TO.N,GND*%
X106250000Y-71400000D03*
%TD*%
D16*
%TO.P,C6,1*%
%TO.N,GND*%
X82900000Y-68500000D03*
%TO.P,C6,2*%
%TO.N,+3.3V*%
X82900000Y-66600000D03*
%TD*%
D20*
%TO.P,R4,1*%
%TO.N,SWDIO*%
X107587500Y-57950000D03*
%TO.P,R4,2*%
%TO.N,+3.3V*%
X109412500Y-57950000D03*
%TD*%
D13*
%TO.P,C4,1*%
%TO.N,+3.3V*%
X108100000Y-69650000D03*
%TO.P,C4,2*%
%TO.N,GND*%
X108100000Y-71550000D03*
%TD*%
D16*
%TO.P,C13,1*%
%TO.N,Net-(U7-NRST)*%
X91900000Y-65800000D03*
%TO.P,C13,2*%
%TO.N,GND*%
X91900000Y-63900000D03*
%TD*%
D21*
%TO.P,R5,1*%
%TO.N,SWCLK*%
X105412500Y-57350000D03*
%TO.P,R5,2*%
%TO.N,GND*%
X103587500Y-57350000D03*
%TD*%
D14*
%TO.P,MK-R1,1,WS_1*%
%TO.N,MIC_WS*%
X160400000Y-55400000D03*
%TO.P,MK-R1,2,L/R_2*%
%TO.N,GND*%
X160400000Y-54578000D03*
D15*
%TO.P,MK-R1,3,GND_3*%
X159515500Y-52656000D03*
D14*
%TO.P,MK-R1,4,SCK_4*%
%TO.N,MIC_SCK*%
X158600000Y-54578000D03*
%TO.P,MK-R1,5,VDD_5*%
%TO.N,+3.3V*%
X158600000Y-55400000D03*
%TO.P,MK-R1,6,SD_6*%
%TO.N,MIC_SD*%
X159500000Y-55400000D03*
%TD*%
D22*
%TO.P,D3,1,K_1*%
%TO.N,Net-(D3-K)*%
X98300000Y-73400000D03*
%TO.P,D3,2,A_2*%
%TO.N,Net-(D3-A)*%
X98300000Y-71525000D03*
%TD*%
D17*
%TO.P,J2,1,Pin_1_1*%
%TO.N,SWDIO*%
X113380000Y-52650000D03*
D18*
%TO.P,J2,2,Pin_2_2*%
%TO.N,SWCLK*%
X110840000Y-52650000D03*
%TO.P,J2,3,Pin_3_3*%
%TO.N,GND*%
X108300000Y-52650000D03*
%TO.P,J2,4,Pin_4_4*%
%TO.N,+3.3V*%
X105760000Y-52650000D03*
%TD*%
D20*
%TO.P,R29,1*%
%TO.N,MIC_SD*%
X116187500Y-76000000D03*
%TO.P,R29,2*%
%TO.N,GND*%
X118012500Y-76000000D03*
%TD*%
%TO.P,R7,1*%
%TO.N,Net-(D3-K)*%
X100500000Y-74000000D03*
%TO.P,R7,2*%
%TO.N,GND*%
X102325000Y-74000000D03*
%TD*%
D19*
%TO.P,C3,1*%
%TO.N,+3.3V*%
X98950000Y-59650000D03*
%TO.P,C3,2*%
%TO.N,GND*%
X100850000Y-59650000D03*
%TD*%
D13*
%TO.P,C20,1*%
%TO.N,+3.3V*%
X109500000Y-62050000D03*
%TO.P,C20,2*%
%TO.N,GND*%
X109500000Y-63950000D03*
%TD*%
D23*
%TO.P,U7,1,VBAT_1*%
%TO.N,+3.3V*%
X99237000Y-63095700D03*
%TO.P,U7,2,PC13_2*%
%TO.N,unconnected-(U7-PC13-Pad2)*%
X99237000Y-63595700D03*
%TO.P,U7,3,PC14_3*%
%TO.N,unconnected-(U7-PC14-Pad3)*%
X99237000Y-64095700D03*
%TO.P,U7,4,PC15_4*%
%TO.N,unconnected-(U7-PC15-Pad4)*%
X99237000Y-64595700D03*
%TO.P,U7,5,PH0_5*%
%TO.N,/CRYS_OUT*%
X99237000Y-65095700D03*
%TO.P,U7,6,PH1_6*%
%TO.N,unconnected-(U7-PH1-Pad6)*%
X99237000Y-65595700D03*
%TO.P,U7,7,NRST_7*%
%TO.N,Net-(U7-NRST)*%
X99237000Y-66095700D03*
%TO.P,U7,8,VSSA_8*%
%TO.N,GND*%
X99237000Y-66595700D03*
%TO.P,U7,9,VREF+_9*%
%TO.N,+3.3V*%
X99237000Y-67095700D03*
%TO.P,U7,10,PA0_10*%
%TO.N,unconnected-(U7-PA0-Pad10)*%
X99237000Y-67595700D03*
%TO.P,U7,11,PA1_11*%
%TO.N,unconnected-(U7-PA1-Pad11)*%
X99237000Y-68095700D03*
%TO.P,U7,12,PA2_12*%
%TO.N,unconnected-(U7-PA2-Pad12)*%
X99237000Y-68595700D03*
D24*
%TO.P,U7,13,PA3_13*%
%TO.N,Net-(D3-A)*%
X99924500Y-69283200D03*
%TO.P,U7,14,PA4_14*%
%TO.N,unconnected-(U7-PA4-Pad14)*%
X100424500Y-69283200D03*
%TO.P,U7,15,PA5_15*%
%TO.N,SPI_CLK*%
X100924500Y-69283200D03*
%TO.P,U7,16,PA6_16*%
%TO.N,unconnected-(U7-PA6-Pad16)*%
X101424500Y-69283200D03*
%TO.P,U7,17,PA7_17*%
%TO.N,SPI_DIN*%
X101924500Y-69283200D03*
%TO.P,U7,18,PB0_18*%
%TO.N,unconnected-(U7-PB0-Pad18)*%
X102424500Y-69283200D03*
%TO.P,U7,19,PB1_19*%
%TO.N,unconnected-(U7-PB1-Pad19)*%
X102924500Y-69283200D03*
%TO.P,U7,20,PB2_20*%
%TO.N,unconnected-(U7-PB2-Pad20)*%
X103424500Y-69283200D03*
%TO.P,U7,21,PB10_21*%
%TO.N,MIC_SCK*%
X103924500Y-69283200D03*
%TO.P,U7,22,VCAP1_22*%
%TO.N,Net-(U7-VCAP1)*%
X104424500Y-69283200D03*
%TO.P,U7,23,VSS_23*%
%TO.N,GND*%
X104924500Y-69283200D03*
%TO.P,U7,24,VDD_24*%
%TO.N,+3.3V*%
X105424500Y-69283200D03*
D23*
%TO.P,U7,25,PB12_25*%
%TO.N,MIC_WS*%
X106112000Y-68595700D03*
%TO.P,U7,26,PB13_26*%
%TO.N,unconnected-(U7-PB13-Pad26)*%
X106112000Y-68095700D03*
%TO.P,U7,27,PB14_27*%
%TO.N,SPI_CS*%
X106112000Y-67595700D03*
%TO.P,U7,28,PB15_28*%
%TO.N,MIC_SD*%
X106112000Y-67095700D03*
%TO.P,U7,29,PA8_29*%
%TO.N,unconnected-(U7-PA8-Pad29)*%
X106112000Y-66595700D03*
%TO.P,U7,30,PA9_30*%
%TO.N,unconnected-(U7-PA9-Pad30)*%
X106112000Y-66095700D03*
%TO.P,U7,31,PA10_31*%
%TO.N,unconnected-(U7-PA10-Pad31)*%
X106112000Y-65595700D03*
%TO.P,U7,32,PA11_32*%
%TO.N,unconnected-(U7-PA11-Pad32)*%
X106112000Y-65095700D03*
%TO.P,U7,33,PA12_33*%
%TO.N,unconnected-(U7-PA12-Pad33)*%
X106112000Y-64595700D03*
%TO.P,U7,34,PA13_34*%
%TO.N,SWDIO*%
X106112000Y-64095700D03*
%TO.P,U7,35,VSS_35*%
%TO.N,GND*%
X106112000Y-63595700D03*
%TO.P,U7,36,VDD_36*%
%TO.N,+3.3V*%
X106112000Y-63095700D03*
D24*
%TO.P,U7,37,PA14_37*%
%TO.N,SWCLK*%
X105424500Y-62408200D03*
%TO.P,U7,38,PA15_38*%
%TO.N,unconnected-(U7-PA15-Pad38)*%
X104924500Y-62408200D03*
%TO.P,U7,39,PB3_39*%
%TO.N,unconnected-(U7-PB3-Pad39)*%
X104424500Y-62408200D03*
%TO.P,U7,40,PB4_40*%
%TO.N,unconnected-(U7-PB4-Pad40)*%
X103924500Y-62408200D03*
%TO.P,U7,41,PB5_41*%
%TO.N,unconnected-(U7-PB5-Pad41)*%
X103424500Y-62408200D03*
%TO.P,U7,42,PB6_42*%
%TO.N,unconnected-(U7-PB6-Pad42)*%
X102924500Y-62408200D03*
%TO.P,U7,43,PB7_43*%
%TO.N,unconnected-(U7-PB7-Pad43)*%
X102424500Y-62408200D03*
%TO.P,U7,44,BOOT0_44*%
%TO.N,GND*%
X101924500Y-62408200D03*
%TO.P,U7,45,PB8_45*%
%TO.N,unconnected-(U7-PB8-Pad45)*%
X101424500Y-62408200D03*
%TO.P,U7,46,PB9_46*%
%TO.N,unconnected-(U7-PB9-Pad46)*%
X100924500Y-62408200D03*
%TO.P,U7,47,VSS_47*%
%TO.N,GND*%
X100424500Y-62408200D03*
%TO.P,U7,48,VDD_48*%
%TO.N,+3.3V*%
X99924500Y-62408200D03*
D25*
%TO.P,U7,49,VSS_49*%
%TO.N,GND*%
X102674500Y-65845700D03*
%TD*%
D26*
%TO.P,Y1,1,EN_1*%
%TO.N,+3.3V*%
X87350000Y-66450000D03*
%TO.P,Y1,2,GND_2*%
%TO.N,GND*%
X87350000Y-68600000D03*
%TO.P,Y1,3,OUT_3*%
%TO.N,/CRYS_OUT*%
X88900000Y-68600000D03*
%TO.P,Y1,4,Vdd_4*%
%TO.N,+3.3V*%
X88900000Y-66450000D03*
%TD*%
D16*
%TO.P,C5,1*%
%TO.N,+3.3V*%
X95500000Y-62750000D03*
%TO.P,C5,2*%
%TO.N,GND*%
X95500000Y-60850000D03*
%TD*%
%TO.P,C18,1*%
%TO.N,GND*%
X42150000Y-59350000D03*
%TO.P,C18,2*%
%TO.N,+3.3V*%
X42150000Y-57450000D03*
%TD*%
D13*
%TO.P,C17,1*%
%TO.N,+5V*%
X153500000Y-60700000D03*
%TO.P,C17,2*%
%TO.N,GND*%
X153500000Y-62600000D03*
%TD*%
%TO.P,C2,1*%
%TO.N,+3.3V*%
X156900000Y-57050000D03*
%TO.P,C2,2*%
%TO.N,GND*%
X156900000Y-58950000D03*
%TD*%
D27*
%TO.N,+3.3V*%
X70300000Y-62000000D03*
X80700000Y-66600000D03*
X120700000Y-59600000D03*
X39300000Y-63800000D03*
X151300000Y-55800000D03*
X128700000Y-55800000D03*
X111500000Y-70000000D03*
%TO.N,GND*%
X52300000Y-75600000D03*
X91900000Y-62000000D03*
X61500000Y-71800000D03*
X59500000Y-63600000D03*
X51700000Y-73000000D03*
X59500000Y-66200000D03*
X103900000Y-74000000D03*
X52700000Y-70200000D03*
X101900000Y-57350000D03*
X159700000Y-58000000D03*
X119900000Y-75400000D03*
X42100000Y-62000000D03*
X64900000Y-80000000D03*
X155500000Y-62400000D03*
X64900000Y-77200000D03*
X110100000Y-71400000D03*
X95500000Y-59000000D03*
X100700000Y-58000000D03*
X80700000Y-68600000D03*
X159515500Y-51600000D03*
X44900000Y-68600000D03*
X45100000Y-51400000D03*
%TO.N,MIC_SCK*%
X109900000Y-78600000D03*
X109900000Y-75200000D03*
%TO.N,MIC_SD*%
X135300000Y-61800000D03*
X115500000Y-65800000D03*
X124500000Y-53000000D03*
X113700000Y-75600000D03*
%TO.N,SPI_CS*%
X118100000Y-66000000D03*
X141700000Y-64800000D03*
%TO.N,SPI_CLK*%
X100900000Y-71800000D03*
%TO.N,SWDIO*%
X107500000Y-59000000D03*
X107500000Y-64200000D03*
%TO.N,Net-(U7-NRST)*%
X94500000Y-66800000D03*
X97900000Y-66200000D03*
%TD*%
%TO.N,MIC_SCK*%
D28*
X44184500Y-54522000D02*
X43012314Y-54522000D01*
X43012314Y-54522000D02*
X41125000Y-56409314D01*
X41125000Y-56409314D02*
X41125000Y-76425000D01*
X41125000Y-76425000D02*
X46197500Y-81497500D01*
X46197500Y-81497500D02*
X107002500Y-81497500D01*
X107002500Y-81497500D02*
X109900000Y-78600000D01*
%TO.N,GND*%
X99237000Y-66595700D02*
X98352829Y-66595700D01*
X98352829Y-66595700D02*
X95825000Y-69123529D01*
X95825000Y-69123529D02*
X95825000Y-69495000D01*
%TO.N,+3.3V*%
D29*
X97725000Y-69495000D02*
X97725000Y-68085104D01*
X97725000Y-68085104D02*
X98714404Y-67095700D01*
X98714404Y-67095700D02*
X99237000Y-67095700D01*
D28*
X105791300Y-69650000D02*
X105424500Y-69283200D01*
X98950000Y-52800000D02*
X99100000Y-52650000D01*
X115775000Y-60000000D02*
X120300000Y-60000000D01*
X42150000Y-55950000D02*
X42756000Y-55344000D01*
X45348529Y-50800000D02*
X46205000Y-51656471D01*
X120300000Y-60000000D02*
X120700000Y-59600000D01*
X115775000Y-60175000D02*
X115775000Y-60000000D01*
X108454300Y-63095700D02*
X109500000Y-62050000D01*
X46205000Y-54301500D02*
X45984500Y-54522000D01*
X39300000Y-63800000D02*
X38700000Y-63200000D01*
X117300000Y-55950000D02*
X115775000Y-57475000D01*
X98950000Y-59650000D02*
X98950000Y-61433700D01*
X107060000Y-51350000D02*
X115500000Y-51350000D01*
X156700000Y-55800000D02*
X156900000Y-55600000D01*
X117300000Y-53150000D02*
X117300000Y-55950000D01*
X46205000Y-51656471D02*
X46205000Y-54301500D01*
X115775000Y-60000000D02*
X115775000Y-57475000D01*
X42150000Y-57450000D02*
X42150000Y-55950000D01*
X80700000Y-66600000D02*
X82900000Y-66600000D01*
X128550000Y-55950000D02*
X117300000Y-55950000D01*
X115100000Y-57950000D02*
X109412500Y-57950000D01*
D30*
X99100000Y-52650000D02*
X105760000Y-52650000D01*
D28*
X109500000Y-62050000D02*
X109650000Y-62050000D01*
X87350000Y-66450000D02*
X88900000Y-66450000D01*
X156900000Y-55600000D02*
X157100000Y-55400000D01*
X114700000Y-61250000D02*
X115775000Y-60175000D01*
X115300000Y-57950000D02*
X115100000Y-57950000D01*
X98950000Y-61433700D02*
X99924500Y-62408200D01*
X108100000Y-69650000D02*
X111150000Y-69650000D01*
X106112000Y-63095700D02*
X108454300Y-63095700D01*
X70300000Y-62000000D02*
X65750000Y-57450000D01*
X65750000Y-57450000D02*
X42150000Y-57450000D01*
X105760000Y-52650000D02*
X107060000Y-51350000D01*
D30*
X71450000Y-62000000D02*
X70300000Y-62000000D01*
D28*
X38700000Y-63200000D02*
X38700000Y-52400000D01*
X38700000Y-52400000D02*
X40300000Y-50800000D01*
X110450000Y-61250000D02*
X114700000Y-61250000D01*
D30*
X72100000Y-61350000D02*
X71450000Y-62000000D01*
D28*
X98950000Y-59650000D02*
X98950000Y-52800000D01*
X115775000Y-57475000D02*
X115300000Y-57950000D01*
X115500000Y-51350000D02*
X117300000Y-53150000D01*
X40300000Y-50800000D02*
X45348529Y-50800000D01*
X94100000Y-61350000D02*
X72100000Y-61350000D01*
X128700000Y-55800000D02*
X128550000Y-55950000D01*
D29*
X98891300Y-62750000D02*
X99237000Y-63095700D01*
D28*
X151300000Y-55800000D02*
X156700000Y-55800000D01*
X95500000Y-62750000D02*
X94100000Y-61350000D01*
X109650000Y-62050000D02*
X110450000Y-61250000D01*
D30*
X80800000Y-52650000D02*
X99100000Y-52650000D01*
D29*
X95500000Y-62750000D02*
X98891300Y-62750000D01*
D28*
X83050000Y-66450000D02*
X82900000Y-66600000D01*
D30*
X80800000Y-52650000D02*
X72100000Y-61350000D01*
D28*
X111150000Y-69650000D02*
X111500000Y-70000000D01*
X157100000Y-55400000D02*
X158600000Y-55400000D01*
X156900000Y-57050000D02*
X156900000Y-55600000D01*
X108100000Y-69650000D02*
X105791300Y-69650000D01*
X42756000Y-55344000D02*
X44184500Y-55344000D01*
X87350000Y-66450000D02*
X83050000Y-66450000D01*
%TO.N,GND*%
X153500000Y-62600000D02*
X155500000Y-62600000D01*
X102674500Y-65845700D02*
X101924500Y-65095700D01*
X101924500Y-65095700D02*
X101924500Y-62408200D01*
X109500000Y-63950000D02*
X113900000Y-63950000D01*
X45100000Y-52600000D02*
X45100000Y-51400000D01*
X159989467Y-52656000D02*
X159515500Y-52656000D01*
X100700000Y-58000000D02*
X100700000Y-59500000D01*
X160400000Y-54578000D02*
X160400000Y-53066533D01*
X119300000Y-76000000D02*
X119900000Y-75400000D01*
X42150000Y-59350000D02*
X42150000Y-61950000D01*
X118012500Y-76000000D02*
X119300000Y-76000000D01*
X95500000Y-60850000D02*
X95500000Y-59000000D01*
X104924500Y-63595700D02*
X106112000Y-63595700D01*
X153450000Y-62550000D02*
X153500000Y-62600000D01*
X160400000Y-53066533D02*
X159989467Y-52656000D01*
X101924500Y-62408200D02*
X101924500Y-60724500D01*
X164060000Y-62400000D02*
X155500000Y-62400000D01*
X104924500Y-69283200D02*
X104924500Y-70074500D01*
X87350000Y-68600000D02*
X83000000Y-68600000D01*
X100424500Y-60075500D02*
X100850000Y-59650000D01*
X109950000Y-71550000D02*
X110100000Y-71400000D01*
X91900000Y-63900000D02*
X91900000Y-62000000D01*
X83000000Y-68600000D02*
X82900000Y-68500000D01*
X99237000Y-66595700D02*
X101924500Y-66595700D01*
X109145700Y-63595700D02*
X109500000Y-63950000D01*
X106400000Y-71550000D02*
X106250000Y-71400000D01*
X59500000Y-66200000D02*
X59500000Y-63600000D01*
X100700000Y-59500000D02*
X100850000Y-59650000D01*
X101924500Y-60724500D02*
X100850000Y-59650000D01*
X156900000Y-58950000D02*
X158750000Y-58950000D01*
X104924500Y-70074500D02*
X106250000Y-71400000D01*
X113900000Y-63950000D02*
X114700000Y-63150000D01*
X106112000Y-63595700D02*
X109145700Y-63595700D01*
X102325000Y-74000000D02*
X103900000Y-74000000D01*
X108100000Y-71550000D02*
X106400000Y-71550000D01*
X165000000Y-63340000D02*
X164060000Y-62400000D01*
X158750000Y-58950000D02*
X159700000Y-58000000D01*
X103587500Y-57350000D02*
X101900000Y-57350000D01*
X108100000Y-71550000D02*
X109950000Y-71550000D01*
X82900000Y-68500000D02*
X80800000Y-68500000D01*
X100424500Y-62408200D02*
X100424500Y-60075500D01*
X159515500Y-51600000D02*
X159515500Y-52656000D01*
X102674500Y-65845700D02*
X104924500Y-63595700D01*
X64900000Y-80000000D02*
X64900000Y-77200000D01*
X101924500Y-66595700D02*
X102674500Y-65845700D01*
X80800000Y-68500000D02*
X80700000Y-68600000D01*
X42150000Y-61950000D02*
X42100000Y-62000000D01*
X148300000Y-62550000D02*
X153450000Y-62550000D01*
%TO.N,MIC_WS*%
X45984500Y-55344000D02*
X46956000Y-55344000D01*
X160900000Y-50200000D02*
X162300000Y-51600000D01*
X161900000Y-55400000D02*
X160400000Y-55400000D01*
X119138614Y-68595700D02*
X137534314Y-50200000D01*
X46956000Y-55344000D02*
X52100000Y-50200000D01*
X137534314Y-50200000D02*
X160900000Y-50200000D01*
X162300000Y-55000000D02*
X161900000Y-55400000D01*
X162300000Y-51600000D02*
X162300000Y-55000000D01*
X106112000Y-68595700D02*
X119138614Y-68595700D01*
X52100000Y-50200000D02*
X137534314Y-50200000D01*
%TO.N,MIC_SCK*%
X103924500Y-69735086D02*
X103924500Y-69283200D01*
X109900000Y-75200000D02*
X109900000Y-73800000D01*
X114700000Y-73600000D02*
X109700000Y-73600000D01*
X109900000Y-73800000D02*
X109700000Y-73600000D01*
X158600000Y-54578000D02*
X133722000Y-54578000D01*
X103500000Y-70159586D02*
X103924500Y-69735086D01*
X103500000Y-72059744D02*
X103500000Y-70159586D01*
X133722000Y-54578000D02*
X114700000Y-73600000D01*
X105040256Y-73600000D02*
X103500000Y-72059744D01*
X109700000Y-73600000D02*
X105040256Y-73600000D01*
%TO.N,MIC_SD*%
X45084500Y-55344000D02*
X45084500Y-56784500D01*
X115300000Y-65600000D02*
X108300000Y-65600000D01*
X145650000Y-57850000D02*
X141700000Y-61800000D01*
X113700000Y-75600000D02*
X114100000Y-76000000D01*
X46529500Y-57050000D02*
X52629500Y-50950000D01*
X141700000Y-61800000D02*
X126500000Y-77000000D01*
X157609744Y-57850000D02*
X145650000Y-57850000D01*
X108300000Y-65600000D02*
X106804300Y-67095700D01*
X106804300Y-67095700D02*
X106112000Y-67095700D01*
X114100000Y-76000000D02*
X116187500Y-76000000D01*
X135300000Y-61800000D02*
X141700000Y-61800000D01*
X159500000Y-55400000D02*
X159500000Y-55959744D01*
X126500000Y-77000000D02*
X117187500Y-77000000D01*
X52629500Y-50950000D02*
X122450000Y-50950000D01*
X45350000Y-57050000D02*
X46529500Y-57050000D01*
X115500000Y-65800000D02*
X115300000Y-65600000D01*
X159500000Y-55959744D02*
X157609744Y-57850000D01*
X45084500Y-56784500D02*
X45350000Y-57050000D01*
X117187500Y-77000000D02*
X116187500Y-76000000D01*
X122450000Y-50950000D02*
X124500000Y-53000000D01*
%TO.N,+5V*%
X164850000Y-60650000D02*
X165000000Y-60800000D01*
X148300000Y-60650000D02*
X164850000Y-60650000D01*
%TO.N,SPI_DIN*%
X108274571Y-77400000D02*
X101924500Y-71049929D01*
X165000000Y-65880000D02*
X153480000Y-77400000D01*
X101924500Y-71049929D02*
X101924500Y-69283200D01*
X153480000Y-77400000D02*
X108274571Y-77400000D01*
%TO.N,SPI_CS*%
X106663886Y-67495700D02*
X106638886Y-67520700D01*
X118100000Y-66000000D02*
X117700000Y-66400000D01*
X117700000Y-66400000D02*
X108065686Y-66400000D01*
X166150000Y-67270000D02*
X165000000Y-68420000D01*
X141700000Y-64800000D02*
X141900000Y-64600000D01*
X106638886Y-67520700D02*
X106187000Y-67520700D01*
X108065686Y-66400000D02*
X106969986Y-67495700D01*
X106187000Y-67520700D02*
X106112000Y-67595700D01*
X165346346Y-64600000D02*
X166150000Y-65403654D01*
X141900000Y-64600000D02*
X165346346Y-64600000D01*
X166150000Y-65403654D02*
X166150000Y-67270000D01*
X106969986Y-67495700D02*
X106663886Y-67495700D01*
%TO.N,SPI_CLK*%
X100900000Y-71800000D02*
X100924500Y-71775500D01*
X100924500Y-71775500D02*
X100924500Y-69283200D01*
%TO.N,Net-(U7-VCAP1)*%
X104350000Y-71400000D02*
X104350000Y-69357700D01*
X104350000Y-69357700D02*
X104424500Y-69283200D01*
%TO.N,SWDIO*%
X107395700Y-64095700D02*
X107500000Y-64200000D01*
X113380000Y-52650000D02*
X112887500Y-52650000D01*
X107587500Y-60062500D02*
X107587500Y-57950000D01*
X112887500Y-52650000D02*
X107587500Y-57950000D01*
X107500000Y-59000000D02*
X107587500Y-58912500D01*
X106112000Y-64095700D02*
X107395700Y-64095700D01*
%TO.N,Net-(U7-NRST)*%
X94500000Y-66800000D02*
X92900000Y-66800000D01*
X99237000Y-66095700D02*
X98004300Y-66095700D01*
X92900000Y-66800000D02*
X91900000Y-65800000D01*
X98004300Y-66095700D02*
X97900000Y-66200000D01*
%TO.N,SWCLK*%
X105412500Y-57350000D02*
X105412500Y-62396200D01*
X105412500Y-57350000D02*
X110112500Y-52650000D01*
X110112500Y-52650000D02*
X110840000Y-52650000D01*
X105424500Y-57362000D02*
X105412500Y-57350000D01*
X105412500Y-62396200D02*
X105424500Y-62408200D01*
%TO.N,Net-(D3-K)*%
X98300000Y-73400000D02*
X99900000Y-73400000D01*
X99900000Y-73400000D02*
X100500000Y-74000000D01*
%TO.N,Net-(D3-A)*%
X99924500Y-69900500D02*
X98300000Y-71525000D01*
X99924500Y-69283200D02*
X99924500Y-69900500D01*
%TO.N,/CRYS_OUT*%
X88900000Y-68600000D02*
X94300000Y-68600000D01*
X94300000Y-68600000D02*
X97804300Y-65095700D01*
X97804300Y-65095700D02*
X99237000Y-65095700D01*
%TD*%
M02*
