%TF.GenerationSoftware,KiCad,Pcbnew,9.0.0*%
%TF.CreationDate,2025-08-08T17:30:59+02:00*%
%TF.ProjectId,audioVisualizer_PCB,61756469-6f56-4697-9375-616c697a6572,rev?*%
%TF.SameCoordinates,Original*%
%TF.FileFunction,Copper,L1,Top*%
%TF.FilePolarity,Positive*%
%FSLAX46Y46*%
G04 Gerber Fmt 4.6, Leading zero omitted, Abs format (unit mm)*
G04 Created by KiCad (PCBNEW 9.0.0) date 2025-08-08 17:30:59*
%MOMM*%
%LPD*%
G01*
G04 APERTURE LIST*
G04 Aperture macros list*
%AMRoundRect*
0 Rectangle with rounded corners*
0 $1 Rounding radius*
0 $2 $3 $4 $5 $6 $7 $8 $9 X,Y pos of 4 corners*
0 Add a 4 corners polygon primitive as box body*
4,1,4,$2,$3,$4,$5,$6,$7,$8,$9,$2,$3,0*
0 Add four circle primitives for the rounded corners*
1,1,$1+$1,$2,$3*
1,1,$1+$1,$4,$5*
1,1,$1+$1,$6,$7*
1,1,$1+$1,$8,$9*
0 Add four rect primitives between the rounded corners*
20,1,$1+$1,$2,$3,$4,$5,0*
20,1,$1+$1,$4,$5,$6,$7,0*
20,1,$1+$1,$6,$7,$8,$9,0*
20,1,$1+$1,$8,$9,$2,$3,0*%
%AMFreePoly0*
4,1,9,3.862500,-0.866500,0.737500,-0.866500,0.737500,-0.450000,-0.737500,-0.450000,-0.737500,0.450000,0.737500,0.450000,0.737500,0.866500,3.862500,0.866500,3.862500,-0.866500,3.862500,-0.866500,$1*%
G04 Aperture macros list end*
%TA.AperFunction,SMDPad,CuDef*%
%ADD10RoundRect,0.250000X-0.250000X-0.475000X0.250000X-0.475000X0.250000X0.475000X-0.250000X0.475000X0*%
%TD*%
%TA.AperFunction,SMDPad,CuDef*%
%ADD11RoundRect,0.250000X-0.475000X0.250000X-0.475000X-0.250000X0.475000X-0.250000X0.475000X0.250000X0*%
%TD*%
%TA.AperFunction,SMDPad,CuDef*%
%ADD12RoundRect,0.250000X0.250000X0.475000X-0.250000X0.475000X-0.250000X-0.475000X0.250000X-0.475000X0*%
%TD*%
%TA.AperFunction,SMDPad,CuDef*%
%ADD13RoundRect,0.100000X0.100000X0.575000X-0.100000X0.575000X-0.100000X-0.575000X0.100000X-0.575000X0*%
%TD*%
%TA.AperFunction,HeatsinkPad*%
%ADD14O,0.900000X1.600000*%
%TD*%
%TA.AperFunction,SMDPad,CuDef*%
%ADD15RoundRect,0.250000X0.550000X0.450000X-0.550000X0.450000X-0.550000X-0.450000X0.550000X-0.450000X0*%
%TD*%
%TA.AperFunction,SMDPad,CuDef*%
%ADD16RoundRect,0.250000X0.700000X0.700000X-0.700000X0.700000X-0.700000X-0.700000X0.700000X-0.700000X0*%
%TD*%
%TA.AperFunction,SMDPad,CuDef*%
%ADD17R,1.000000X1.000000*%
%TD*%
%TA.AperFunction,ComponentPad*%
%ADD18R,0.850000X0.850000*%
%TD*%
%TA.AperFunction,ComponentPad*%
%ADD19O,0.850000X0.850000*%
%TD*%
%TA.AperFunction,SMDPad,CuDef*%
%ADD20RoundRect,0.243750X0.243750X0.456250X-0.243750X0.456250X-0.243750X-0.456250X0.243750X-0.456250X0*%
%TD*%
%TA.AperFunction,SMDPad,CuDef*%
%ADD21RoundRect,0.250000X0.262500X0.450000X-0.262500X0.450000X-0.262500X-0.450000X0.262500X-0.450000X0*%
%TD*%
%TA.AperFunction,SMDPad,CuDef*%
%ADD22RoundRect,0.243750X0.456250X-0.243750X0.456250X0.243750X-0.456250X0.243750X-0.456250X-0.243750X0*%
%TD*%
%TA.AperFunction,SMDPad,CuDef*%
%ADD23RoundRect,0.225000X0.225000X-0.425000X0.225000X0.425000X-0.225000X0.425000X-0.225000X-0.425000X0*%
%TD*%
%TA.AperFunction,SMDPad,CuDef*%
%ADD24FreePoly0,90.000000*%
%TD*%
%TA.AperFunction,SMDPad,CuDef*%
%ADD25RoundRect,0.250000X-0.450000X0.262500X-0.450000X-0.262500X0.450000X-0.262500X0.450000X0.262500X0*%
%TD*%
%TA.AperFunction,SMDPad,CuDef*%
%ADD26RoundRect,0.075000X-0.662500X-0.075000X0.662500X-0.075000X0.662500X0.075000X-0.662500X0.075000X0*%
%TD*%
%TA.AperFunction,SMDPad,CuDef*%
%ADD27RoundRect,0.075000X-0.075000X-0.662500X0.075000X-0.662500X0.075000X0.662500X-0.075000X0.662500X0*%
%TD*%
%TA.AperFunction,ComponentPad*%
%ADD28C,1.500000*%
%TD*%
%TA.AperFunction,SMDPad,CuDef*%
%ADD29RoundRect,0.250000X0.475000X-0.250000X0.475000X0.250000X-0.475000X0.250000X-0.475000X-0.250000X0*%
%TD*%
%TA.AperFunction,ViaPad*%
%ADD30C,0.600000*%
%TD*%
%TA.AperFunction,Conductor*%
%ADD31C,0.200000*%
%TD*%
%TA.AperFunction,Conductor*%
%ADD32C,0.300000*%
%TD*%
G04 APERTURE END LIST*
D10*
%TO.P,C7,1*%
%TO.N,+3.3V*%
X141550000Y-61500000D03*
%TO.P,C7,2*%
%TO.N,GND*%
X143450000Y-61500000D03*
%TD*%
D11*
%TO.P,C1,1*%
%TO.N,GND*%
X122000000Y-51600000D03*
%TO.P,C1,2*%
%TO.N,Net-(U1-PD0)*%
X122000000Y-53500000D03*
%TD*%
D12*
%TO.P,C12,1*%
%TO.N,+3.3V*%
X155450000Y-65500000D03*
%TO.P,C12,2*%
%TO.N,GND*%
X153550000Y-65500000D03*
%TD*%
D13*
%TO.P,J2,1,VBUS*%
%TO.N,VBUS*%
X156600000Y-45675000D03*
%TO.P,J2,2,D-*%
%TO.N,unconnected-(J2-D--Pad2)*%
X155950000Y-45675000D03*
%TO.P,J2,3,D+*%
%TO.N,unconnected-(J2-D+-Pad3)*%
X155300000Y-45675000D03*
%TO.P,J2,4,ID*%
%TO.N,unconnected-(J2-ID-Pad4)*%
X154650000Y-45675000D03*
%TO.P,J2,5,GND*%
%TO.N,GND*%
X154000000Y-45675000D03*
D14*
%TO.P,J2,6,Shield*%
%TO.N,unconnected-(J2-Shield-Pad6)_4*%
X158600000Y-43000000D03*
D15*
%TO.N,unconnected-(J2-Shield-Pad6)_1*%
X158500000Y-45450000D03*
D16*
%TO.N,unconnected-(J2-Shield-Pad6)_5*%
X156500000Y-43000000D03*
%TO.N,unconnected-(J2-Shield-Pad6)*%
X154100000Y-43000000D03*
D15*
%TO.N,unconnected-(J2-Shield-Pad6)_2*%
X152100000Y-45450000D03*
D14*
%TO.N,unconnected-(J2-Shield-Pad6)_3*%
X152000000Y-43000000D03*
%TD*%
D17*
%TO.P,TP1,1,1*%
%TO.N,VBUS*%
X155194000Y-49022000D03*
%TD*%
D18*
%TO.P,J1,1,Pin_1*%
%TO.N,/OUT*%
X119000000Y-43375000D03*
D19*
%TO.P,J1,2,Pin_2*%
%TO.N,GND*%
X120000000Y-43375000D03*
%TO.P,J1,3,Pin_3*%
%TO.N,+3.3V*%
X121000000Y-43375000D03*
%TD*%
D18*
%TO.P,J4,1,Pin_1*%
%TO.N,GND*%
X140500000Y-43500000D03*
D19*
%TO.P,J4,2,Pin_2*%
%TO.N,/SWDIO*%
X139500000Y-43500000D03*
%TO.P,J4,3,Pin_3*%
%TO.N,Net-(J4-Pin_3)*%
X138500000Y-43500000D03*
%TO.P,J4,4,Pin_4*%
%TO.N,VBUS*%
X137500000Y-43500000D03*
%TD*%
D12*
%TO.P,C6,1*%
%TO.N,+3.3V*%
X138950000Y-64000000D03*
%TO.P,C6,2*%
%TO.N,GND*%
X137050000Y-64000000D03*
%TD*%
D20*
%TO.P,D1,1,K*%
%TO.N,Net-(D1-K)*%
X162989500Y-63500000D03*
%TO.P,D1,2,A*%
%TO.N,+3.3V*%
X161114500Y-63500000D03*
%TD*%
D21*
%TO.P,R2,1*%
%TO.N,Net-(D1-K)*%
X162912500Y-68000000D03*
%TO.P,R2,2*%
%TO.N,GND*%
X161087500Y-68000000D03*
%TD*%
D10*
%TO.P,C4,1*%
%TO.N,+3.3V*%
X132050000Y-47500000D03*
%TO.P,C4,2*%
%TO.N,GND*%
X133950000Y-47500000D03*
%TD*%
D12*
%TO.P,C13,1*%
%TO.N,Net-(U1-NRST)*%
X128204000Y-58166000D03*
%TO.P,C13,2*%
%TO.N,GND*%
X126304000Y-58166000D03*
%TD*%
D10*
%TO.P,C10,1*%
%TO.N,+3.3V*%
X128910000Y-70104000D03*
%TO.P,C10,2*%
%TO.N,GND*%
X130810000Y-70104000D03*
%TD*%
%TO.P,C8,1*%
%TO.N,+3.3V*%
X128910000Y-62604000D03*
%TO.P,C8,2*%
%TO.N,GND*%
X130810000Y-62604000D03*
%TD*%
D22*
%TO.P,D2,1,K*%
%TO.N,Net-(D2-K)*%
X164000000Y-47500000D03*
%TO.P,D2,2,A*%
%TO.N,VBUS*%
X164000000Y-45625000D03*
%TD*%
D23*
%TO.P,U2,1,GND*%
%TO.N,GND*%
X153000000Y-61450000D03*
D24*
%TO.P,U2,2,VIN*%
%TO.N,VBUS*%
X154500000Y-61362500D03*
D23*
%TO.P,U2,3,VOUT*%
%TO.N,+3.3V*%
X156000000Y-61450000D03*
%TD*%
D25*
%TO.P,R3,1*%
%TO.N,GND*%
X168402000Y-45569500D03*
%TO.P,R3,2*%
%TO.N,Net-(D2-K)*%
X168402000Y-47394500D03*
%TD*%
D26*
%TO.P,U1,1,VBAT*%
%TO.N,+3.3V*%
X131175000Y-53000000D03*
%TO.P,U1,2,PC13*%
%TO.N,unconnected-(U1-PC13-Pad2)*%
X131175000Y-53500000D03*
%TO.P,U1,3,PC14*%
%TO.N,unconnected-(U1-PC14-Pad3)*%
X131175000Y-54000000D03*
%TO.P,U1,4,PC15*%
%TO.N,unconnected-(U1-PC15-Pad4)*%
X131175000Y-54500000D03*
%TO.P,U1,5,PD0*%
%TO.N,Net-(U1-PD0)*%
X131175000Y-55000000D03*
%TO.P,U1,6,PD1*%
%TO.N,Net-(U1-PD1)*%
X131175000Y-55500000D03*
%TO.P,U1,7,NRST*%
%TO.N,Net-(U1-NRST)*%
X131175000Y-56000000D03*
%TO.P,U1,8,VSSA*%
%TO.N,GND*%
X131175000Y-56500000D03*
%TO.P,U1,9,VDDA*%
%TO.N,+3.3V*%
X131175000Y-57000000D03*
%TO.P,U1,10,PA0*%
%TO.N,/OUT*%
X131175000Y-57500000D03*
%TO.P,U1,11,PA1*%
%TO.N,unconnected-(U1-PA1-Pad11)*%
X131175000Y-58000000D03*
%TO.P,U1,12,PA2*%
%TO.N,unconnected-(U1-PA2-Pad12)*%
X131175000Y-58500000D03*
D27*
%TO.P,U1,13,PA3*%
%TO.N,unconnected-(U1-PA3-Pad13)*%
X132587500Y-59912500D03*
%TO.P,U1,14,PA4*%
%TO.N,unconnected-(U1-PA4-Pad14)*%
X133087500Y-59912500D03*
%TO.P,U1,15,PA5*%
%TO.N,/CLK*%
X133587500Y-59912500D03*
%TO.P,U1,16,PA6*%
%TO.N,/CS*%
X134087500Y-59912500D03*
%TO.P,U1,17,PA7*%
%TO.N,/DIN*%
X134587500Y-59912500D03*
%TO.P,U1,18,PB0*%
%TO.N,unconnected-(U1-PB0-Pad18)*%
X135087500Y-59912500D03*
%TO.P,U1,19,PB1*%
%TO.N,unconnected-(U1-PB1-Pad19)*%
X135587500Y-59912500D03*
%TO.P,U1,20,PB2*%
%TO.N,unconnected-(U1-PB2-Pad20)*%
X136087500Y-59912500D03*
%TO.P,U1,21,PB10*%
%TO.N,unconnected-(U1-PB10-Pad21)*%
X136587500Y-59912500D03*
%TO.P,U1,22,PB11*%
%TO.N,unconnected-(U1-PB11-Pad22)*%
X137087500Y-59912500D03*
%TO.P,U1,23,VSS*%
%TO.N,GND*%
X137587500Y-59912500D03*
%TO.P,U1,24,VDD*%
%TO.N,+3.3V*%
X138087500Y-59912500D03*
D26*
%TO.P,U1,25,PB12*%
%TO.N,unconnected-(U1-PB12-Pad25)*%
X139500000Y-58500000D03*
%TO.P,U1,26,PB13*%
%TO.N,unconnected-(U1-PB13-Pad26)*%
X139500000Y-58000000D03*
%TO.P,U1,27,PB14*%
%TO.N,unconnected-(U1-PB14-Pad27)*%
X139500000Y-57500000D03*
%TO.P,U1,28,PB15*%
%TO.N,unconnected-(U1-PB15-Pad28)*%
X139500000Y-57000000D03*
%TO.P,U1,29,PA8*%
%TO.N,unconnected-(U1-PA8-Pad29)*%
X139500000Y-56500000D03*
%TO.P,U1,30,PA9*%
%TO.N,unconnected-(U1-PA9-Pad30)*%
X139500000Y-56000000D03*
%TO.P,U1,31,PA10*%
%TO.N,unconnected-(U1-PA10-Pad31)*%
X139500000Y-55500000D03*
%TO.P,U1,32,PA11*%
%TO.N,unconnected-(U1-PA11-Pad32)*%
X139500000Y-55000000D03*
%TO.P,U1,33,PA12*%
%TO.N,unconnected-(U1-PA12-Pad33)*%
X139500000Y-54500000D03*
%TO.P,U1,34,PA13*%
%TO.N,/SWDIO*%
X139500000Y-54000000D03*
%TO.P,U1,35,VSS*%
%TO.N,GND*%
X139500000Y-53500000D03*
%TO.P,U1,36,VDD*%
%TO.N,+3.3V*%
X139500000Y-53000000D03*
D27*
%TO.P,U1,37,PA14*%
%TO.N,Net-(J4-Pin_3)*%
X138087500Y-51587500D03*
%TO.P,U1,38,PA15*%
%TO.N,unconnected-(U1-PA15-Pad38)*%
X137587500Y-51587500D03*
%TO.P,U1,39,PB3*%
%TO.N,unconnected-(U1-PB3-Pad39)*%
X137087500Y-51587500D03*
%TO.P,U1,40,PB4*%
%TO.N,unconnected-(U1-PB4-Pad40)*%
X136587500Y-51587500D03*
%TO.P,U1,41,PB5*%
%TO.N,unconnected-(U1-PB5-Pad41)*%
X136087500Y-51587500D03*
%TO.P,U1,42,PB6*%
%TO.N,unconnected-(U1-PB6-Pad42)*%
X135587500Y-51587500D03*
%TO.P,U1,43,PB7*%
%TO.N,unconnected-(U1-PB7-Pad43)*%
X135087500Y-51587500D03*
%TO.P,U1,44,BOOT0*%
%TO.N,GND*%
X134587500Y-51587500D03*
%TO.P,U1,45,PB8*%
%TO.N,unconnected-(U1-PB8-Pad45)*%
X134087500Y-51587500D03*
%TO.P,U1,46,PB9*%
%TO.N,unconnected-(U1-PB9-Pad46)*%
X133587500Y-51587500D03*
%TO.P,U1,47,VSS*%
%TO.N,GND*%
X133087500Y-51587500D03*
%TO.P,U1,48,VDD*%
%TO.N,+3.3V*%
X132587500Y-51587500D03*
%TD*%
D17*
%TO.P,TP2,1,1*%
%TO.N,+3.3V*%
X163000000Y-58500000D03*
%TD*%
D10*
%TO.P,C9,1*%
%TO.N,+3.3V*%
X128960000Y-66104000D03*
%TO.P,C9,2*%
%TO.N,GND*%
X130860000Y-66104000D03*
%TD*%
D28*
%TO.P,Y1,1,1*%
%TO.N,Net-(U1-PD1)*%
X115000000Y-58450000D03*
%TO.P,Y1,2,2*%
%TO.N,Net-(U1-PD0)*%
X115000000Y-53570000D03*
%TD*%
D29*
%TO.P,C3,1*%
%TO.N,+3.3V*%
X128500000Y-51950000D03*
%TO.P,C3,2*%
%TO.N,GND*%
X128500000Y-50050000D03*
%TD*%
%TO.P,C5,1*%
%TO.N,+3.3V*%
X143000000Y-52500000D03*
%TO.P,C5,2*%
%TO.N,GND*%
X143000000Y-50600000D03*
%TD*%
D11*
%TO.P,C2,1*%
%TO.N,Net-(U1-PD1)*%
X122000000Y-58550000D03*
%TO.P,C2,2*%
%TO.N,GND*%
X122000000Y-60450000D03*
%TD*%
D12*
%TO.P,C11,1*%
%TO.N,VBUS*%
X155128000Y-53500000D03*
%TO.P,C11,2*%
%TO.N,GND*%
X153228000Y-53500000D03*
%TD*%
D18*
%TO.P,J3,1,Pin_1*%
%TO.N,/CLK*%
X172000000Y-59000000D03*
D19*
%TO.P,J3,2,Pin_2*%
%TO.N,/CS*%
X172000000Y-58000000D03*
%TO.P,J3,3,Pin_3*%
%TO.N,/DIN*%
X172000000Y-57000000D03*
%TO.P,J3,4,Pin_4*%
%TO.N,GND*%
X172000000Y-56000000D03*
%TO.P,J3,5,Pin_5*%
%TO.N,VBUS*%
X172000000Y-55000000D03*
%TD*%
D30*
%TO.N,Net-(J4-Pin_3)*%
X138747100Y-50696100D03*
%TO.N,/SWDIO*%
X138258700Y-53919000D03*
%TO.N,/CS*%
X137417900Y-56749600D03*
X141351300Y-54765000D03*
X170124500Y-56127000D03*
%TO.N,/CLK*%
X138255000Y-56192300D03*
X143482600Y-59938800D03*
%TO.N,/OUT*%
X132511200Y-57622500D03*
%TO.N,GND*%
X133500000Y-64500000D03*
X153872900Y-46877300D03*
X134587500Y-50327400D03*
X131023000Y-50629700D03*
X151720500Y-61987000D03*
X144345200Y-50362900D03*
X166705700Y-45535500D03*
X151809400Y-53956900D03*
X160030700Y-67913500D03*
X144457700Y-61987000D03*
X152525800Y-65122500D03*
X125010800Y-58518500D03*
X123472300Y-51167500D03*
X133765400Y-50199700D03*
X129212000Y-56779400D03*
X140743300Y-53876000D03*
%TD*%
D31*
%TO.N,Net-(J4-Pin_3)*%
X138747100Y-50927900D02*
X138087500Y-51587500D01*
X138747100Y-50696100D02*
X138747100Y-50927900D01*
D32*
%TO.N,Net-(U1-PD1)*%
X121900000Y-58450000D02*
X122000000Y-58550000D01*
X115000000Y-58450000D02*
X121900000Y-58450000D01*
X125050000Y-55500000D02*
X131175000Y-55500000D01*
X122000000Y-58550000D02*
X125050000Y-55500000D01*
%TO.N,Net-(U1-PD0)*%
X121930000Y-53570000D02*
X122000000Y-53500000D01*
X115000000Y-53570000D02*
X121930000Y-53570000D01*
X123500000Y-55000000D02*
X131175000Y-55000000D01*
X122000000Y-53500000D02*
X123500000Y-55000000D01*
D31*
%TO.N,Net-(D1-K)*%
X162989500Y-67923000D02*
X162989500Y-63500000D01*
X162912500Y-68000000D02*
X162989500Y-67923000D01*
%TO.N,Net-(D2-K)*%
X168296500Y-47500000D02*
X168402000Y-47394500D01*
X164000000Y-47500000D02*
X168296500Y-47500000D01*
D32*
%TO.N,Net-(U1-NRST)*%
X128204000Y-56296000D02*
X128204000Y-58166000D01*
X128500000Y-56000000D02*
X128204000Y-56296000D01*
X131175000Y-56000000D02*
X128500000Y-56000000D01*
D31*
%TO.N,/SWDIO*%
X138339700Y-54000000D02*
X138258700Y-53919000D01*
X139500000Y-54000000D02*
X138339700Y-54000000D01*
%TO.N,VBUS*%
X137500000Y-43500000D02*
X137500000Y-44226700D01*
X156600000Y-45079100D02*
X156600000Y-45675000D01*
X155854600Y-44333700D02*
X156600000Y-45079100D01*
X137607000Y-44333700D02*
X155854600Y-44333700D01*
X137500000Y-44226700D02*
X137607000Y-44333700D01*
X155194000Y-53500000D02*
X155194000Y-49823700D01*
X155194000Y-53500000D02*
X155128000Y-53500000D01*
X155194000Y-49022000D02*
X155194000Y-49422800D01*
X155194000Y-49422800D02*
X155194000Y-49823700D01*
X157389500Y-47227300D02*
X157389500Y-46464500D01*
X155194000Y-49422800D02*
X157389500Y-47227300D01*
X156600000Y-45675000D02*
X157389500Y-46464500D01*
X163160500Y-46464500D02*
X164000000Y-45625000D01*
X157389500Y-46464500D02*
X163160500Y-46464500D01*
X172000000Y-55000000D02*
X172726700Y-55000000D01*
X172726700Y-59550000D02*
X172726700Y-55000000D01*
X172505900Y-59770800D02*
X172726700Y-59550000D01*
X170950100Y-59770800D02*
X172505900Y-59770800D01*
X168856000Y-57676700D02*
X170950100Y-59770800D01*
X158185800Y-57676700D02*
X168856000Y-57676700D01*
X154500000Y-61362500D02*
X158185800Y-57676700D01*
X156694000Y-55000000D02*
X155194000Y-53500000D01*
X172000000Y-55000000D02*
X156694000Y-55000000D01*
%TO.N,/DIN*%
X134587500Y-59088900D02*
X134587500Y-59912500D01*
X134862000Y-58814400D02*
X134587500Y-59088900D01*
X138543800Y-58814400D02*
X134862000Y-58814400D01*
X138733100Y-59003700D02*
X138543800Y-58814400D01*
X148485200Y-59003700D02*
X138733100Y-59003700D01*
X150790200Y-56698700D02*
X148485200Y-59003700D01*
X169626600Y-56698700D02*
X150790200Y-56698700D01*
X169927900Y-57000000D02*
X169626600Y-56698700D01*
X172000000Y-57000000D02*
X169927900Y-57000000D01*
%TO.N,/CS*%
X142713300Y-56127000D02*
X170124500Y-56127000D01*
X141351300Y-54765000D02*
X142713300Y-56127000D01*
X136346900Y-56749600D02*
X137417900Y-56749600D01*
X134087500Y-59009000D02*
X136346900Y-56749600D01*
X134087500Y-59912500D02*
X134087500Y-59009000D01*
%TO.N,/CLK*%
X171159700Y-59000000D02*
X172000000Y-59000000D01*
X169309800Y-57150100D02*
X171159700Y-59000000D01*
X151106700Y-57150100D02*
X169309800Y-57150100D01*
X148318000Y-59938800D02*
X151106700Y-57150100D01*
X143482600Y-59938800D02*
X148318000Y-59938800D01*
X138159600Y-56096900D02*
X138255000Y-56192300D01*
X136361200Y-56096900D02*
X138159600Y-56096900D01*
X133587500Y-58870600D02*
X136361200Y-56096900D01*
X133587500Y-59912500D02*
X133587500Y-58870600D01*
%TO.N,/OUT*%
X132388700Y-57500000D02*
X132511200Y-57622500D01*
X131175000Y-57500000D02*
X132388700Y-57500000D01*
D32*
%TO.N,+3.3V*%
X128910000Y-66154000D02*
X128960000Y-66104000D01*
X128910000Y-70104000D02*
X128910000Y-66154000D01*
X142500000Y-53000000D02*
X143000000Y-52500000D01*
X139500000Y-53000000D02*
X142500000Y-53000000D01*
X132050000Y-51050000D02*
X132372800Y-51372500D01*
X132050000Y-47500000D02*
X132050000Y-51050000D01*
X132372800Y-51372500D02*
X132588000Y-51587500D01*
D31*
X132587500Y-51587200D02*
X132587500Y-51587500D01*
X132372800Y-51372500D02*
X132587500Y-51587200D01*
X138087500Y-59912500D02*
X138088000Y-59912500D01*
D32*
X141550000Y-63138000D02*
X141550000Y-61500000D01*
X130125000Y-51950000D02*
X130650000Y-52475000D01*
X128500000Y-51950000D02*
X130125000Y-51950000D01*
D31*
X131537500Y-51587500D02*
X132587500Y-51587500D01*
X130650000Y-52475000D02*
X131537500Y-51587500D01*
D32*
X128960000Y-62654000D02*
X128935000Y-62629000D01*
X128960000Y-66104000D02*
X128960000Y-62654000D01*
X128935000Y-62629000D02*
X128910000Y-62604000D01*
D31*
X130349500Y-57000000D02*
X131175000Y-57000000D01*
X129474500Y-57875000D02*
X130349500Y-57000000D01*
X129474500Y-62089500D02*
X129474500Y-57875000D01*
X128935000Y-62629000D02*
X129474500Y-62089500D01*
X162198300Y-59301700D02*
X160050000Y-61450000D01*
X162198300Y-58500000D02*
X162198300Y-59301700D01*
X160050000Y-61450000D02*
X156000000Y-61450000D01*
X163000000Y-58500000D02*
X162198300Y-58500000D01*
D32*
X130650000Y-52475000D02*
X130912500Y-52737500D01*
X130912500Y-52737500D02*
X131175000Y-53000000D01*
D31*
X155450000Y-63138000D02*
X155450000Y-65500000D01*
X141550000Y-63138000D02*
X155450000Y-63138000D01*
X159347500Y-63138000D02*
X160050000Y-62435500D01*
X155450000Y-63138000D02*
X159347500Y-63138000D01*
X160050000Y-61450000D02*
X160050000Y-62435500D01*
X160050000Y-62435500D02*
X161114500Y-63500000D01*
X139500000Y-53000000D02*
X132232300Y-53000000D01*
X131969800Y-52737500D02*
X132232300Y-53000000D01*
X130912500Y-52737500D02*
X131969800Y-52737500D01*
X127925000Y-43375000D02*
X132050000Y-47500000D01*
X121000000Y-43375000D02*
X127925000Y-43375000D01*
D32*
X141500000Y-61450000D02*
X141550000Y-61500000D01*
X141500000Y-59975000D02*
X141500000Y-61450000D01*
X141438000Y-59912500D02*
X141500000Y-59975000D01*
X138088000Y-59912500D02*
X141438000Y-59912500D01*
D31*
X131968000Y-57000000D02*
X131175000Y-57000000D01*
X132232300Y-56735700D02*
X131968000Y-57000000D01*
X132232300Y-53000000D02*
X132232300Y-56735700D01*
D32*
X138950000Y-64000000D02*
X140225000Y-64000000D01*
X141550000Y-63950000D02*
X141550000Y-63138000D01*
X141500000Y-64000000D02*
X141550000Y-63950000D01*
X140225000Y-64000000D02*
X141500000Y-64000000D01*
D31*
X129988900Y-71182900D02*
X128910000Y-70104000D01*
X132505600Y-71182900D02*
X129988900Y-71182900D01*
X138468800Y-65219700D02*
X132505600Y-71182900D01*
X138468800Y-65084600D02*
X138468800Y-65219700D01*
X138527200Y-65026200D02*
X138468800Y-65084600D01*
X139198800Y-65026200D02*
X138527200Y-65026200D01*
X140225000Y-64000000D02*
X139198800Y-65026200D01*
D32*
%TO.N,GND*%
X152950000Y-61500000D02*
X153000000Y-61450000D01*
X130860000Y-62654000D02*
X130810000Y-62604000D01*
X130860000Y-64500000D02*
X130860000Y-62654000D01*
X133500000Y-69500000D02*
X133500000Y-64500000D01*
X132896000Y-70104000D02*
X133500000Y-69500000D01*
X130810000Y-70104000D02*
X132896000Y-70104000D01*
X136550000Y-64500000D02*
X137050000Y-64000000D01*
X133500000Y-64500000D02*
X136550000Y-64500000D01*
X130860000Y-66104000D02*
X130860000Y-64500000D01*
X130860000Y-64500000D02*
X133500000Y-64500000D01*
D31*
X133087500Y-51587500D02*
X133088000Y-51587500D01*
X154000000Y-46750200D02*
X154000000Y-45675000D01*
X153872900Y-46877300D02*
X154000000Y-46750200D01*
X129079700Y-50629700D02*
X128500000Y-50050000D01*
X131023000Y-50629700D02*
X129079700Y-50629700D01*
X152463000Y-61987000D02*
X152950000Y-61500000D01*
X151720500Y-61987000D02*
X152463000Y-61987000D01*
X143237100Y-50362900D02*
X143000000Y-50600000D01*
X144345200Y-50362900D02*
X143237100Y-50362900D01*
X168368000Y-45535500D02*
X168402000Y-45569500D01*
X166705700Y-45535500D02*
X168368000Y-45535500D01*
X137587500Y-60412000D02*
X137587500Y-59912500D01*
X137588000Y-60412500D02*
X137587500Y-60412000D01*
D32*
X137588000Y-59912500D02*
X137588000Y-60412500D01*
X137050000Y-61450000D02*
X137050000Y-64000000D01*
X137588000Y-60912500D02*
X137050000Y-61450000D01*
X137588000Y-60412500D02*
X137588000Y-60912500D01*
D31*
X161001000Y-67913500D02*
X161087500Y-68000000D01*
X160030700Y-67913500D02*
X161001000Y-67913500D01*
X152771100Y-53956900D02*
X153228000Y-53500000D01*
X151809400Y-53956900D02*
X152771100Y-53956900D01*
X143937000Y-61987000D02*
X143450000Y-61500000D01*
X144457700Y-61987000D02*
X143937000Y-61987000D01*
X125010900Y-58518500D02*
X125481200Y-58988800D01*
X125010800Y-58518500D02*
X125010900Y-58518500D01*
D32*
X124020000Y-60450000D02*
X125481200Y-58988800D01*
X122000000Y-60450000D02*
X124020000Y-60450000D01*
X125481200Y-58988800D02*
X126304000Y-58166000D01*
D31*
X153172500Y-65122500D02*
X153550000Y-65500000D01*
X152525800Y-65122500D02*
X153172500Y-65122500D01*
X122432500Y-51167500D02*
X122000000Y-51600000D01*
X123472300Y-51167500D02*
X122432500Y-51167500D01*
X133620500Y-50054800D02*
X133620500Y-50054700D01*
X133765400Y-50199700D02*
X133620500Y-50054800D01*
D32*
X133088000Y-50587500D02*
X133620500Y-50054700D01*
X133088000Y-51587500D02*
X133088000Y-50587500D01*
X133950000Y-49725000D02*
X133950000Y-47500000D01*
X133620500Y-50054700D02*
X133950000Y-49725000D01*
D31*
X134587500Y-50327400D02*
X134587500Y-51587500D01*
X129491400Y-56500000D02*
X131175000Y-56500000D01*
X129212000Y-56779400D02*
X129491400Y-56500000D01*
X140367300Y-53500000D02*
X140743300Y-53876000D01*
X139500000Y-53500000D02*
X140367300Y-53500000D01*
%TD*%
M02*
